<?xml version="1.0" encoding="UTF-8" standalone="no"?>
<svg
   xmlns:dc="http://purl.org/dc/elements/1.1/"
   xmlns:cc="http://creativecommons.org/ns#"
   xmlns:rdf="http://www.w3.org/1999/02/22-rdf-syntax-ns#"
   xmlns:svg="http://www.w3.org/2000/svg"
   xmlns="http://www.w3.org/2000/svg"
   xmlns:sodipodi="http://sodipodi.sourceforge.net/DTD/sodipodi-0.dtd"
   xmlns:inkscape="http://www.inkscape.org/namespaces/inkscape"
   inkscape:version="1.0 (4035a4f, 2020-05-01)"
   sodipodi:docname="404.svg"
   version="1.1"
   viewBox="0 0 1120.59226 777.91584"
   height="777.91584"
   width="1120.59226"
   data-name="Layer 1"
   id="a706cf1c-1654-439b-8fcf-310eb7aa0e00">
  <metadata
     id="metadata2017">
    <rdf:RDF>
      <cc:Work
         rdf:about="">
        <dc:format>image/svg+xml</dc:format>
        <dc:type
           rdf:resource="http://purl.org/dc/dcmitype/StillImage" />
      </cc:Work>
    </rdf:RDF>
  </metadata>
  <defs
     id="defs2015" />
  <sodipodi:namedview
     inkscape:current-layer="a706cf1c-1654-439b-8fcf-310eb7aa0e00"
     inkscape:window-maximized="1"
     inkscape:window-y="23"
     inkscape:window-x="1440"
     inkscape:cy="504.42011"
     inkscape:cx="138.16589"
     inkscape:zoom="0.54447659"
     showgrid="false"
     id="namedview2013"
     inkscape:window-height="1395"
     inkscape:window-width="2560"
     inkscape:pageshadow="2"
     inkscape:pageopacity="0"
     guidetolerance="10"
     gridtolerance="10"
     objecttolerance="10"
     borderopacity="1"
     bordercolor="#666666"
     pagecolor="#ffffff" />
  <title
     id="title1944">not found</title>
  <circle
     style="fill:#657786;fill-opacity:1"
     id="circle1946"
     fill="#ff6584"
     r="64"
     cy="103"
     cx="212.59226" />
  <path
     style="fill:#f5f5f5;fill-opacity:1"
     id="path1948"
     fill="#f2f2f2"
     transform="translate(-39.70387 -61.04208)"
     d="M563.68016,404.16381c0,151.01141-89.77389,203.73895-200.51559,203.73895S162.649,555.17522,162.649,404.16381,363.16457,61.04208,363.16457,61.04208,563.68016,253.1524,563.68016,404.16381Z" />
  <polygon
     style="fill:#14171a;fill-opacity:1"
     id="polygon1950"
     fill="#3f3d56"
     points="316.156 523.761 318.21 397.378 403.674 241.024 318.532 377.552 319.455 320.725 378.357 207.605 319.699 305.687 319.699 305.687 321.359 203.481 384.433 113.423 321.621 187.409 322.658 0 316.138 248.096 316.674 237.861 252.547 139.704 315.646 257.508 309.671 371.654 309.493 368.625 235.565 265.329 309.269 379.328 308.522 393.603 308.388 393.818 308.449 394.99 293.29 684.589 313.544 684.589 315.974 535.005 389.496 421.285 316.156 523.761" />
  <path
     style="fill:#f5f5f5;fill-opacity:1"
     id="path1952"
     fill="#f2f2f2"
     transform="translate(-39.70387 -61.04208)"
     d="M1160.29613,466.01367c0,123.61-73.4842,166.77-164.13156,166.77s-164.13156-43.16-164.13156-166.77S996.16457,185.15218,996.16457,185.15218,1160.29613,342.40364,1160.29613,466.01367Z" />
  <polygon
     style="fill:#14171a;fill-opacity:1"
     id="polygon1954"
     fill="#3f3d56"
     points="950.482 552.833 952.162 449.383 1022.119 321.4 952.426 433.154 953.182 386.639 1001.396 294.044 953.382 374.329 953.382 374.329 954.741 290.669 1006.369 216.952 954.954 277.514 955.804 124.11 950.467 327.188 950.906 318.811 898.414 238.464 950.064 334.893 945.173 428.327 945.027 425.847 884.514 341.294 944.844 434.608 944.232 446.293 944.123 446.469 944.173 447.428 931.764 684.478 948.343 684.478 950.332 562.037 1010.514 468.952 950.482 552.833" />
  <ellipse
     style="fill:#3e3e3e;fill-opacity:1"
     id="ellipse1956"
     fill="#3f3d56"
     ry="28.03433"
     rx="554.59226"
     cy="680.47903"
     cx="554.59226" />
  <ellipse
     style="fill:#3e3e3e;fill-opacity:1"
     id="ellipse1958"
     fill="#3f3d56"
     ry="4.80162"
     rx="94.98858"
     cy="726.79663"
     cx="892.44491" />
  <ellipse
     style="fill:#3e3e3e;fill-opacity:1"
     id="ellipse1960"
     fill="#3f3d56"
     ry="4.80162"
     rx="94.98858"
     cy="773.11422"
     cx="548.71959" />
  <ellipse
     style="fill:#3e3e3e;fill-opacity:1"
     id="ellipse1962"
     fill="#3f3d56"
     ry="10.96996"
     rx="217.01436"
     cy="734.27887"
     cx="287.94432" />
  <circle
     style="fill:#14171a;fill-opacity:1"
     id="circle1964"
     fill="#2f2e41"
     r="79"
     cy="566.26982"
     cx="97.08375" />
  <rect
     style="fill:#14171a;fill-opacity:1"
     id="rect1966"
     fill="#2f2e41"
     transform="translate(-31.32451 -62.31008) rotate(0.67509)"
     height="43"
     width="24"
     y="689.02332"
     x="99.80546" />
  <rect
     id="rect1968"
     fill="#2f2e41"
     transform="translate(-31.31452 -62.87555) rotate(0.67509)"
     height="43"
     width="24"
     y="689.58887"
     x="147.80213" />
  <ellipse
     style="fill:#14171a;fill-opacity:1"
     id="ellipse1970"
     fill="#2f2e41"
     transform="translate(-654.1319 782.47948) rotate(-89.32491)"
     ry="20"
     rx="7.5"
     cy="732.61606"
     cx="119.54569" />
  <ellipse
     id="ellipse1972"
     fill="#2f2e41"
     transform="translate(-606.25475 830.05533) rotate(-89.32491)"
     ry="20"
     rx="7.5"
     cy="732.18168"
     cx="167.55414" />
  <circle
     id="circle1974"
     fill="#fff"
     r="27"
     cy="546.29477"
     cx="99.31925" />
  <circle
     style="fill:#14171a;fill-opacity:1"
     id="circle1976"
     fill="#3f3d56"
     r="9"
     cy="546.29477"
     cx="99.31925" />
  <path
     id="path1978"
     fill="#eb7260"
     transform="translate(-39.70387 -61.04208)"
     d="M61.02588,552.94636c-6.04185-28.64075,14.68758-57.26483,46.30049-63.93367s62.13813,11.14292,68.18,39.78367-14.97834,38.93-46.59124,45.59886S67.06774,581.58712,61.02588,552.94636Z" />
  <path
     style="fill:#92b06a;fill-opacity:1"
     id="path1980"
     fill="#eb7260"
     transform="translate(-39.70387 -61.04208)"
     d="M257.29613,671.38411c0,55.07585-32.73985,74.3063-73.13,74.3063q-1.40351,0-2.80255-.0312c-1.87139-.04011-3.72494-.1292-5.55619-.254-36.45135-2.57979-64.77127-22.79937-64.77127-74.02113,0-53.00843,67.73872-119.89612,72.827-124.84633l.00892-.00889c.19608-.19159.29409-.28516.29409-.28516S257.29613,616.30827,257.29613,671.38411Z" />
  <path
     style="fill:#14171a;fill-opacity:1"
     id="path1982"
     fill="#3f3d56"
     transform="translate(-39.70387 -61.04208)"
     d="M181.50168,737.26482l26.747-37.37367-26.81386,41.4773-.07125,4.29076c-1.87139-.04011-3.72494-.1292-5.55619-.254l2.88282-55.10258-.0223-.42775.049-.0802.27179-5.20415-26.88076-41.5798,26.96539,37.67668.06244,1.105,2.17874-41.63324-23.0132-42.96551,23.29391,35.6583,2.26789-86.31419.00892-.294v.28516l-.37871,68.064,22.91079-26.98321-23.00435,32.84678-.60595,37.27566L204.18523,621.958l-21.4805,41.259-.33863,20.723,31.05561-49.79149-31.17146,57.023Z" />
  <circle
     style="fill:#14171a;fill-opacity:1"
     id="circle1984"
     fill="#2f2e41"
     r="79"
     cy="565.41532"
     cx="712.48505" />
  <rect
     id="rect1986"
     fill="#2f2e41"
     transform="translate(-215.99457 191.86399) rotate(-17.08345)"
     height="43"
     width="24"
     y="691.82355"
     x="741.77716" />
  <rect
     id="rect1988"
     fill="#2f2e41"
     transform="matrix(0.95588, -0.29376, 0.29376, 0.95588, -209.82788, 204.72037)"
     height="43"
     width="24"
     y="677.72286"
     x="787.6593" />
  <ellipse
     id="ellipse1990"
     fill="#2f2e41"
     transform="translate(-220.8593 196.83312) rotate(-17.08345)"
     ry="7.5"
     rx="20"
     cy="732.00275"
     cx="767.887" />
  <ellipse
     id="ellipse1992"
     fill="#2f2e41"
     transform="translate(-214.42477 209.56103) rotate(-17.08345)"
     ry="7.5"
     rx="20"
     cy="716.94619"
     cx="813.47537" />
  <circle
     id="circle1994"
     fill="#fff"
     r="27"
     cy="545.71023"
     cx="708.52153" />
  <circle
     style="fill:#14171a;fill-opacity:1"
     id="circle1996"
     fill="#3f3d56"
     r="9"
     cy="545.71023"
     cx="708.52153" />
  <path
     id="path1998"
     fill="#eb7260"
     transform="translate(-39.70387 -61.04208)"
     d="M657.35526,578.74316c-14.48957-25.43323-3.47841-59.016,24.59412-75.0092s62.57592-8.34055,77.06549,17.09268-2.39072,41.6435-30.46325,57.63671S671.84483,604.17639,657.35526,578.74316Z" />
  <path
     style="fill:#92b06a;fill-opacity:1"
     id="path2000"
     fill="#eb7260"
     transform="translate(-39.70387 -61.04208)"
     d="M611.29613,661.29875c0,50.55711-30.05368,68.20979-67.13,68.20979q-1.28835,0-2.57261-.02864c-1.71785-.03682-3.41933-.1186-5.10033-.23313-33.46068-2.36813-59.45707-20.92878-59.45707-67.948,0-48.65932,62.18106-110.05916,66.85186-114.60322l.00819-.00817c.18-.17587.27-.26177.27-.26177S611.29613,610.74164,611.29613,661.29875Z" />
  <path
     style="fill:#14171a;fill-opacity:1"
     id="path2002"
     fill="#3f3d56"
     transform="translate(-39.70387 -61.04208)"
     d="M541.72029,721.77424l24.55253-34.30732-24.6139,38.07426-.0654,3.93872c-1.71785-.03682-3.41933-.1186-5.10033-.23313l2.6463-50.58165-.02047-.39266.045-.07361.24949-4.77718-24.67531-38.16836,24.753,34.58547.05731,1.01433,2-38.21741-21.12507-39.44039L541.80616,625.928l2.08182-79.23247.00819-.26994v.26177l-.34764,62.47962,21.031-24.76934-21.11693,30.15184-.55624,34.21735,19.63634-32.839-19.71812,37.87389-.31085,19.0228,28.50763-45.70631-28.614,52.34448Z" />
  <path
     style="fill:#92b06a;fill-opacity:1"
     id="path2004"
     fill="#eb7260"
     transform="translate(-39.70387 -61.04208)"
     d="M875.29613,682.38411c0,55.07585-32.73985,74.3063-73.13,74.3063q-1.4035,0-2.80255-.0312c-1.87139-.04011-3.72494-.1292-5.55619-.254-36.45135-2.57979-64.77127-22.79937-64.77127-74.02113,0-53.00843,67.73872-119.89612,72.827-124.84633l.00892-.00889c.19608-.19159.29409-.28516.29409-.28516S875.29613,627.30827,875.29613,682.38411Z" />
  <path
     style="fill:#14171a;fill-opacity:1"
     id="path2006"
     fill="#3f3d56"
     transform="translate(-39.70387 -61.04208)"
     d="M799.50168,748.26482l26.747-37.37367-26.81386,41.4773-.07125,4.29076c-1.87139-.04011-3.72494-.1292-5.55619-.254l2.88282-55.10258-.0223-.42775.049-.0802.27179-5.20415L770.108,654.01076l26.96539,37.67668.06244,1.105,2.17874-41.63324-23.0132-42.96551,23.29391,35.6583,2.26789-86.31419.00892-.294v.28516l-.37871,68.064,22.91079-26.98321-23.00435,32.84678-.606,37.27566L822.18523,632.958l-21.4805,41.259-.33863,20.723,31.05561-49.79149-31.17146,57.023Z" />
  <ellipse
     style="fill:#14171a;fill-opacity:1"
     id="ellipse2008"
     fill="#2f2e41"
     transform="translate(-220.83517 966.22323) rotate(-64.62574)"
     ry="39.5"
     rx="12.40027"
     cy="656.82212"
     cx="721.51694" />
  <ellipse
     style="fill:#14171a;fill-opacity:1"
     id="ellipse2010"
     fill="#2f2e41"
     transform="translate(-574.07936 452.71367) rotate(-68.15829)"
     ry="39.5"
     rx="12.40027"
     cy="651.82212"
     cx="112.51694" />
</svg>
