<?xml version="1.0" encoding="UTF-8" standalone="no"?>
<svg
   xmlns:dc="http://purl.org/dc/elements/1.1/"
   xmlns:cc="http://creativecommons.org/ns#"
   xmlns:rdf="http://www.w3.org/1999/02/22-rdf-syntax-ns#"
   xmlns:svg="http://www.w3.org/2000/svg"
   xmlns="http://www.w3.org/2000/svg"
   xmlns:sodipodi="http://sodipodi.sourceforge.net/DTD/sodipodi-0.dtd"
   xmlns:inkscape="http://www.inkscape.org/namespaces/inkscape"
   inkscape:version="1.0 (4035a4f, 2020-05-01)"
   sodipodi:docname="404_dark.svg"
   id="svg915"
   viewBox="0 0 1120.6 777.92"
   version="1.1"
   data-name="Layer 1"
   height="777.92"
   width="1120.6">
  <defs
     id="defs919" />
  <sodipodi:namedview
     inkscape:current-layer="svg915"
     inkscape:window-maximized="1"
     inkscape:window-y="563"
     inkscape:window-x="0"
     inkscape:cy="388.95999"
     inkscape:cx="560.29999"
     inkscape:zoom="0.60057114"
     showgrid="false"
     id="namedview917"
     inkscape:window-height="785"
     inkscape:window-width="1440"
     inkscape:pageshadow="2"
     inkscape:pageopacity="0"
     guidetolerance="10"
     gridtolerance="10"
     objecttolerance="10"
     borderopacity="1"
     bordercolor="#666666"
     pagecolor="#ffffff" />
  <metadata
     id="metadata833">
    <rdf:RDF>
      <cc:Work
         rdf:about="">
        <dc:format>image/svg+xml</dc:format>
        <dc:type
           rdf:resource="http://purl.org/dc/dcmitype/StillImage" />
        <dc:title>not found</dc:title>
      </cc:Work>
    </rdf:RDF>
  </metadata>
  <title
     id="title835">not found</title>
  <circle
     cx="212.59"
     cy="103"
     r="64"
     fill="#657786"
     id="circle837" />
  <path
     style="fill:#2d2c2c;fill-opacity:1"
     d="m 523.976,343.118 c 0,151.01 -89.774,203.74 -200.52,203.74 -110.746,0 -200.52,-52.728 -200.52,-203.74 0,-151.012 200.52,-343.12 200.52,-343.12 0,0 200.52,192.11 200.52,343.12 z"
     fill="#f5f5f5"
     id="path839" />
  <polygon
     style="fill:#f5f5f5;fill-opacity:1"
     points="403.67,241.02 318.53,377.55 319.46,320.72 378.36,207.6 319.7,305.69 319.7,305.69 321.36,203.48 384.43,113.42 321.62,187.41 322.66,0 316.14,248.1 316.67,237.86 252.55,139.7 315.65,257.51 309.67,371.65 309.49,368.62 235.56,265.33 309.27,379.33 308.52,393.6 308.39,393.82 308.45,394.99 293.29,684.59 313.54,684.59 315.97,535 389.5,421.28 316.16,523.76 318.21,397.38 "
     fill="#14171a"
     id="polygon841" />
  <path
     style="fill:#2d2c2c;fill-opacity:1"
     d="m 1120.596,404.968 c 0,123.61 -73.484,166.77 -164.13,166.77 -90.646,0 -164.13,-43.16 -164.13,-166.77 0,-123.61 164.13,-280.86 164.13,-280.86 0,0 164.13,157.25 164.13,280.86 z"
     fill="#f5f5f5"
     id="path843" />
  <polygon
     style="fill:#f5f5f5;fill-opacity:1"
     points="1022.1,321.4 952.43,433.15 953.18,386.64 1001.4,294.04 953.38,374.33 953.38,374.33 954.74,290.67 1006.4,216.95 954.95,277.51 955.8,124.11 950.47,327.19 950.91,318.81 898.41,238.46 950.06,334.89 945.17,428.33 945.03,425.85 884.51,341.29 944.84,434.61 944.23,446.29 944.12,446.47 944.17,447.43 931.76,684.48 948.34,684.48 950.33,562.04 1010.5,468.95 950.48,552.83 952.16,449.38 "
     fill="#14171a"
     id="polygon845" />
  <g
     style="fill:#2d2c2c;fill-opacity:1"
     id="g857"
     fill="#3e3e3e">
    <ellipse
       style="fill:#2d2c2c;fill-opacity:1"
       id="ellipse849"
       ry="28.034"
       rx="554.59"
       cy="680.48"
       cx="554.59" />
    <ellipse
       style="fill:#2d2c2c;fill-opacity:1"
       id="ellipse851"
       ry="4.8016"
       rx="94.989"
       cy="726.8"
       cx="892.44" />
    <ellipse
       style="fill:#2d2c2c;fill-opacity:1"
       id="ellipse853"
       ry="4.8016"
       rx="94.989"
       cy="773.11"
       cx="548.72" />
    <ellipse
       style="fill:#2d2c2c;fill-opacity:1"
       id="ellipse855"
       ry="10.97"
       rx="217.01"
       cy="734.28"
       cx="287.94" />
  </g>
  <circle
     id="circle859"
     fill="#14171a"
     r="79"
     cy="566.27"
     cx="97.084" />
  <rect
     id="rect861"
     fill="#14171a"
     height="43"
     width="24"
     y="689.02"
     x="99.805"
     transform="translate(-31.325 -62.31) rotate(.67509)" />
  <rect
     id="rect863"
     fill="#2f2e41"
     height="43"
     width="24"
     y="689.59"
     x="147.8"
     transform="translate(-31.315 -62.876) rotate(.67509)" />
  <ellipse
     id="ellipse865"
     fill="#14171a"
     ry="20"
     rx="7.5"
     cy="732.62"
     cx="119.55"
     transform="translate(-654.13 782.48) rotate(-89.325)" />
  <ellipse
     id="ellipse867"
     fill="#2f2e41"
     ry="20"
     rx="7.5"
     cy="732.18"
     cx="167.55"
     transform="translate(-606.25 830.06) rotate(-89.325)" />
  <circle
     id="circle869"
     fill="#fff"
     r="27"
     cy="546.29"
     cx="99.319" />
  <circle
     id="circle871"
     fill="#14171a"
     r="9"
     cy="546.29"
     cx="99.319" />
  <path
     id="path873"
     fill="#eb7260"
     d="m61.026 552.95c-6.0418-28.641 14.688-57.265 46.3-63.934s62.138 11.143 68.18 39.784-14.978 38.93-46.591 45.599-61.847 7.1919-67.889-21.449z"
     transform="translate(-39.704 -61.042)" />
  <g
     id="g881">
    <path
       id="path875"
       fill="#92b06a"
       d="m257.3 671.38c0 55.076-32.74 74.306-73.13 74.306q-1.4035 0-2.8026-0.0312c-1.8714-0.04011-3.7249-0.1292-5.5562-0.254-36.451-2.5798-64.771-22.799-64.771-74.021 0-53.008 67.739-119.9 72.827-124.85l0.00892-0.00889c0.19608-0.19159 0.29409-0.28516 0.29409-0.28516s73.13 70.065 73.13 125.14z"
       transform="translate(-39.704 -61.042)" />
    <path
       id="path877"
       fill="#14171a"
       d="m181.5 737.26 26.747-37.374-26.814 41.477-0.07125 4.2908c-1.8714-0.04011-3.7249-0.1292-5.5562-0.254l2.8828-55.103-0.0223-0.42775 0.049-0.0802 0.27179-5.2042-26.881-41.58 26.965 37.677 0.06244 1.105 2.1787-41.633-23.013-42.966 23.294 35.658 2.2679-86.314 0.00892-0.294v0.28516l-0.37871 68.064 22.911-26.983-23.004 32.847-0.60595 37.276 21.391-35.774-21.48 41.259-0.33863 20.723 31.056-49.791-31.171 57.023z"
       transform="translate(-39.704 -61.042)" />
    <circle
       id="circle879"
       fill="#14171a"
       r="79"
       cy="565.42"
       cx="712.49" />
  </g>
  <g
     id="g891"
     fill="#2f2e41">
    <rect
       id="rect883"
       height="43"
       width="24"
       y="691.82"
       x="741.78"
       transform="translate(-215.99 191.86) rotate(-17.083)" />
    <rect
       id="rect885"
       height="43"
       width="24"
       y="677.72"
       x="787.66"
       transform="matrix(.95588 -.29376 .29376 .95588 -209.83 204.72)" />
    <ellipse
       id="ellipse887"
       ry="7.5"
       rx="20"
       cy="732"
       cx="767.89"
       transform="translate(-220.86 196.83) rotate(-17.083)" />
    <ellipse
       id="ellipse889"
       ry="7.5"
       rx="20"
       cy="716.95"
       cx="813.48"
       transform="translate(-214.42 209.56) rotate(-17.083)" />
  </g>
  <circle
     id="circle893"
     fill="#fff"
     r="27"
     cy="545.71"
     cx="708.52" />
  <circle
     id="circle895"
     fill="#14171a"
     r="9"
     cy="545.71"
     cx="708.52" />
  <path
     id="path897"
     fill="#eb7260"
     d="m657.36 578.74c-14.49-25.433-3.4784-59.016 24.594-75.009s62.576-8.3406 77.065 17.093-2.3907 41.644-30.463 57.637-56.707 25.713-71.196 0.27981z"
     transform="translate(-39.704 -61.042)" />
  <g
     id="g905">
    <path
       id="path899"
       fill="#92b06a"
       d="m611.3 661.3c0 50.557-30.054 68.21-67.13 68.21q-1.2884 0-2.5726-0.02864c-1.7178-0.03682-3.4193-0.1186-5.1003-0.23313-33.461-2.3681-59.457-20.929-59.457-67.948 0-48.659 62.181-110.06 66.852-114.6l0.00819-0.00817c0.18-0.17587 0.27-0.26177 0.27-0.26177s67.13 64.316 67.13 114.87z"
       transform="translate(-39.704 -61.042)" />
    <path
       id="path901"
       fill="#14171a"
       d="m541.72 721.77 24.553-34.307-24.614 38.074-0.0654 3.9387c-1.7178-0.03682-3.4193-0.1186-5.1003-0.23313l2.6463-50.582-0.02047-0.39266 0.045-0.07361 0.24949-4.7772-24.675-38.168 24.753 34.585 0.05731 1.0143 2-38.217-21.125-39.44 21.383 32.733 2.0818-79.232 0.00819-0.26994v0.26177l-0.34764 62.48 21.031-24.769-21.117 30.152-0.55624 34.217 19.636-32.839-19.718 37.874-0.31085 19.023 28.508-45.706-28.614 52.344z"
       transform="translate(-39.704 -61.042)" />
    <path
       id="path903"
       fill="#92b06a"
       d="m875.3 682.38c0 55.076-32.74 74.306-73.13 74.306q-1.4035 0-2.8026-0.0312c-1.8714-0.04011-3.7249-0.1292-5.5562-0.254-36.451-2.5798-64.771-22.799-64.771-74.021 0-53.008 67.739-119.9 72.827-124.85l0.00892-0.00889c0.19608-0.19159 0.29409-0.28516 0.29409-0.28516s73.13 70.065 73.13 125.14z"
       transform="translate(-39.704 -61.042)" />
  </g>
  <g
     id="g913"
     fill="#14171a">
    <path
       id="path907"
       d="m799.5 748.26 26.747-37.374-26.814 41.477-0.07125 4.2908c-1.8714-0.04011-3.7249-0.1292-5.5562-0.254l2.8828-55.103-0.0223-0.42775 0.049-0.0802 0.27179-5.2042-26.881-41.58 26.965 37.677 0.06244 1.105 2.1787-41.633-23.013-42.966 23.294 35.658 2.2679-86.314 0.00892-0.294v0.28516l-0.37871 68.064 22.911-26.983-23.004 32.847-0.606 37.276 21.391-35.774-21.48 41.259-0.33863 20.723 31.056-49.791-31.171 57.023z"
       transform="translate(-39.704 -61.042)" />
    <ellipse
       id="ellipse909"
       ry="39.5"
       rx="12.4"
       cy="656.82"
       cx="721.52"
       transform="translate(-220.84 966.22) rotate(-64.626)" />
    <ellipse
       id="ellipse911"
       ry="39.5"
       rx="12.4"
       cy="651.82"
       cx="112.52"
       transform="translate(-574.08 452.71) rotate(-68.158)" />
  </g>
</svg>
