<svg xmlns="http://www.w3.org/2000/svg" width="527.958" height="415.271" viewBox="0 0 527.958 415.271">
  <g id="undraw_Powerful_re_frhr" transform="translate(-284.287 -98)">
    <circle id="Ellipse_55" data-name="Ellipse 55" cx="197.958" cy="197.958" r="197.958" transform="translate(357.409 98)" fill="#fff"/>
    <path id="Pfad_481" data-name="Pfad 481" d="M701.228,456.7c16.578-9.111,37.209-7.283,55.071-1.053s34.047,16.435,51.392,23.983c53,23.067,116.886,19.347,166.854-9.715,4.726,10.993-.344,23.566-5.913,34.157s-11.916,22.069-9.624,33.813c2.934,15.028,18.69,24.038,25.074,37.955,6.06,13.211,2.807,28.726-1.842,42.5s-10.683,27.646-9.893,42.159,11.334,29.86,25.869,29.872c-21.54,3.347-43.5,6.7-65.031,3.266s-42.941-14.815-52.936-34.187c-5-9.683-6.922-20.816-12.659-30.079-9.773-15.777-28.528-23.2-46.224-28.788s-36.633-10.978-49.093-24.732c-11.871-13.105-15.632-31.361-21.921-47.887a152.956,152.956,0,0,0-52.961-69.066" transform="translate(-185.972 -196.55)" fill="#e19d29"/>
    <path id="Pfad_482" data-name="Pfad 482" d="M716.948,373.674c-5.819-2.707-12.964-3.595-18.885-1.079s-9.958,8.964-8.044,14.67c.868,2.587,2.845,5.132,2.075,7.745-.593,2.011-2.661,3.339-4.692,4.283s-4.253,1.738-5.722,3.33-1.775,4.334.06,5.569c.6.407,1.36.6,1.946,1.029a3.093,3.093,0,0,1,.955,3.462,7.293,7.293,0,0,1-2.338,3.075c-2.083,1.8-4.836,3.853-4.189,6.4A4.492,4.492,0,0,0,681.144,425a15.063,15.063,0,0,0,4.45.587l61.47,1.936a23.307,23.307,0,0,0,6.069-.339,7.184,7.184,0,0,0,4.767-3.2c1.177-2.179.4-4.863-1.049-6.9s-3.511-3.64-5.211-5.508-3.091-4.2-2.791-6.615c.24-1.933,1.515-3.6,2.43-5.36s1.447-3.951.261-5.567c-1.67-2.277-5.68-2.071-7.579-4.192-1.433-1.6-1.156-3.906-1.3-5.971a14.484,14.484,0,0,0-8.676-11.834,17.081,17.081,0,0,0-15.541,1.058Z" transform="translate(-182.484 -182.191)" fill="#2f2e41"/>
    <path id="Pfad_483" data-name="Pfad 483" d="M540.271,613.009l-9.627-2.893,6.575-38.512,14.209,4.27Z" transform="translate(-44.652 -109.808)" fill="#a0616a"/>
    <path id="Pfad_484" data-name="Pfad 484" d="M670.882,762.666l-31.043-9.327.118-.393a12.616,12.616,0,0,1,15.713-8.453h0l18.96,5.7Z" transform="translate(-175.611 -249.395)" fill="#3e3e3e"/>
    <path id="Pfad_485" data-name="Pfad 485" d="M649.925,613.983H639.872l-4.782-38.775h14.837Z" transform="translate(-63.455 -110.457)" fill="#a0616a"/>
    <path id="Pfad_486" data-name="Pfad 486" d="M784.929,763.913H752.515v-.41a12.616,12.616,0,0,1,12.617-12.616h19.8Z" transform="translate(-195.896 -250.643)" fill="#3e3e3e"/>
    <path id="Pfad_487" data-name="Pfad 487" d="M753.5,683.2a3.69,3.69,0,0,1-3.642-3.106l-14.926-93.112a2.87,2.87,0,0,0-5.484-.647l-38.671,93.1a3.7,3.7,0,0,1-4.574,2.086l-13.968-4.656a3.678,3.678,0,0,1-2.432-4.314L701.5,532.314a3.711,3.711,0,0,1,2.765-2.781l42.5-9.866a3.741,3.741,0,0,1,3.04.631c27.986,20.334,25.622,86.771,20.406,158.91a3.691,3.691,0,0,1-3.521,3.422l-13.023.567C753.612,683.2,753.558,683.2,753.5,683.2Z" transform="translate(-180.989 -209.001)" fill="#2d2c2c"/>
    <circle id="Ellipse_56" data-name="Ellipse 56" cx="20.139" cy="20.139" r="20.139" transform="translate(516.599 204.574)" fill="#a0616a"/>
    <path id="Pfad_488" data-name="Pfad 488" d="M722.173,524.883a32.716,32.716,0,0,1-13.959-3.226l-.15-.07-.06-.155-18.064-46.8L689.6,466.5a19.493,19.493,0,0,1,20.573-20.286l19.177,1.08a19.5,19.5,0,0,1,18.4,19.36c.5.957,4.035,8.439-2.9,15.469-.259,1.6-2.684,18.242,6.467,27.393l.257.257-.225.286C751.2,510.244,739.451,524.881,722.173,524.883Z" transform="translate(-184.566 -195.789)" fill="#2480bc"/>
    <path id="Pfad_489" data-name="Pfad 489" d="M759.719,538.559a8.246,8.246,0,0,0,4.327-11.88L783.2,504.5l-15.1-1.965L752.227,523.9a8.29,8.29,0,0,0,7.492,14.661Z" transform="translate(-195.182 -205.934)" fill="#a0616a"/>
    <path id="Pfad_490" data-name="Pfad 490" d="M769.158,512.025a3.681,3.681,0,0,1-2.024-.607l-9.474-6.213a3.683,3.683,0,0,1-1.147-4.973l6.858-11.522a5.143,5.143,0,0,0-2.316-7.324l-19.7-8.833A11.745,11.745,0,0,1,734.7,459.5h0a11.677,11.677,0,0,1,16.754-8l29.89,15.316a15.725,15.725,0,0,1,5.58,23.2L772.15,510.493A3.681,3.681,0,0,1,769.158,512.025Z" transform="translate(-192.646 -196.516)" fill="#2480bc"/>
    <path id="Pfad_491" data-name="Pfad 491" d="M702.039,405.832a12.485,12.485,0,0,0,10.979-13.211,10.667,10.667,0,0,0,9.136,10.861c2.917.321,6.116-.561,8.655.911,2.813,1.63,3.713,5.589,6.643,7,2.831,1.36,6.427-.495,7.825-3.307s1.055-6.191.128-9.192a25.954,25.954,0,0,0-43.2-10.639c-2.674,2.69-4.8,6.118-5.142,9.9s1.408,7.876,4.8,9.573Z" transform="translate(-185.905 -183.982)" fill="#2f2e41"/>
    <path id="Pfad_492" data-name="Pfad 492" d="M643.307,343.114a8.246,8.246,0,0,1,2.546,12.385l15.71,24.734-15.225-.261-12.584-23.448a8.29,8.29,0,0,1,9.553-13.41Z" transform="translate(-174.026 -177.051)" fill="#a0616a"/>
    <path id="Pfad_493" data-name="Pfad 493" d="M656.977,364.323l20.232,47.806L698.421,448.1a11.635,11.635,0,0,1-6.659,17.047h0a11.7,11.7,0,0,1-13.9-6.206l-40.882-87.354a3.69,3.69,0,0,1,2.214-5.077l13.256-4.258a3.772,3.772,0,0,1,.773-.162,3.669,3.669,0,0,1,3.754,2.236Z" transform="translate(-175.034 -180.646)" fill="#2480bc"/>
    <circle id="Ellipse_57" data-name="Ellipse 57" cx="87.156" cy="87.156" r="87.156" transform="translate(287.287 329.604)" fill="#eb7260"/>
    <circle id="Ellipse_58" data-name="Ellipse 58" cx="31.958" cy="31.958" r="31.958" transform="translate(284.287 268.225)" fill="#fff"/>
  </g>
</svg>
