<svg id="Layer_1" data-name="Layer 1" xmlns="http://www.w3.org/2000/svg" viewBox="0 0 100 100"><defs><style>.cls-1{fill:#fff;}.cls-2{fill:#e8f4fa;}.cls-3{fill:none;}.cls-10,.cls-12,.cls-13,.cls-14,.cls-15,.cls-16,.cls-17,.cls-3{stroke:#45413c;stroke-linecap:round;stroke-linejoin:round;}.cls-4{fill:#fffacf;}.cls-16,.cls-5{fill:#fff48c;}.cls-6{fill:#4aeff7;}.cls-7{fill:#a6fbff;}.cls-8{fill:#80ddff;}.cls-9{fill:#4acfff;}.cls-10{fill:#87898c;}.cls-11{fill:#00b8f0;}.cls-12{fill:#daedf7;}.cls-13{fill:#ffe500;}.cls-14{fill:#d9fdff;}.cls-15{fill:#e0e0e0;}.cls-17{fill:#ffb0ca;}</style></defs><title>amusement-park</title><path class="cls-1" d="M50,92A39.94,39.94,0,0,0,84.61,72H15.39A39.94,39.94,0,0,0,50,92Z"/><path class="cls-1" d="M13.56,68.5c.55,1.2,1.17,2.36,1.83,3.5H84.61c.66-1.14,1.28-2.3,1.83-3.5Z"/><path class="cls-2" d="M90,52A40,40,0,1,0,13.56,68.5H86.44A39.85,39.85,0,0,0,90,52Z"/><line class="cls-3" x1="11" y1="68.5" x2="89" y2="68.5"/><line class="cls-3" x1="6.5" y1="68.5" x2="9" y2="68.5"/><line class="cls-3" x1="91" y1="68.5" x2="93.5" y2="68.5"/><path class="cls-4" d="M23.14,53.3h5.24a1,1,0,0,1,1,1V68.5a0,0,0,0,1,0,0H22.14a0,0,0,0,1,0,0V54.3A1,1,0,0,1,23.14,53.3Z"/><rect class="cls-5" x="22.14" y="56.2" width="7.24" height="12.3"/><path class="cls-3" d="M23.25,53.3h5a1.12,1.12,0,0,1,1.12,1.12V68.5a0,0,0,0,1,0,0H22.14a0,0,0,0,1,0,0V54.42A1.12,1.12,0,0,1,23.25,53.3Z"/><path class="cls-4" d="M43.57,53.3H61.5a1,1,0,0,1,1,1V68.5a0,0,0,0,1,0,0H42.57a0,0,0,0,1,0,0V54.3A1,1,0,0,1,43.57,53.3Z"/><rect class="cls-5" x="42.57" y="56.2" width="19.92" height="12.3"/><path class="cls-3" d="M43.6,53.3H61.47a1,1,0,0,1,1,1V68.5a0,0,0,0,1,0,0H42.57a0,0,0,0,1,0,0V54.33A1,1,0,0,1,43.6,53.3Z"/><rect class="cls-6" x="23.58" y="34.48" width="4.34" height="18.82"/><rect class="cls-7" x="23.58" y="42.44" width="4.34" height="10.86"/><rect class="cls-3" x="23.58" y="34.48" width="4.34" height="18.82"/><rect class="cls-6" x="43.85" y="34.48" width="17.37" height="18.82"/><rect class="cls-7" x="43.85" y="42.44" width="17.37" height="10.86"/><rect class="cls-3" x="43.85" y="34.48" width="17.37" height="18.82"/><path class="cls-8" d="M48.92,20h-13A18.36,18.36,0,0,1,25.53,32.33l-4.84,2.15H64.11l-4.84-2.15A18.35,18.35,0,0,1,48.92,20Z"/><path class="cls-9" d="M59.27,32.33A18.39,18.39,0,0,1,52,26.52H32.76a18.35,18.35,0,0,1-7.22,5.81l-4.85,2.15H64.11Z"/><path class="cls-3" d="M48.92,20h-13A18.36,18.36,0,0,1,25.53,32.33l-4.84,2.15H64.11l-4.84-2.15A18.35,18.35,0,0,1,48.92,20Z"/><path class="cls-10" d="M48.19,37.38h8.69a0,0,0,0,1,0,0V49.9a.5.5,0,0,1-.5.5H48.69a.5.5,0,0,1-.5-.5V37.38A0,0,0,0,1,48.19,37.38Z"/><path class="cls-11" d="M48.19,37.38V47.51h2.17a2.18,2.18,0,0,1,4.35,0h2.17V37.38Z"/><path class="cls-9" d="M51.73,45.5l4.87-8.12H48.19V47.51h2.17A2.15,2.15,0,0,1,51.73,45.5Z"/><path class="cls-3" d="M48.19,37.38V47.51h2.17a2.18,2.18,0,0,1,4.35,0h2.17V37.38Z"/><path class="cls-12" d="M23.14,59.09H24a1,1,0,0,1,1,1V68.5a0,0,0,0,1,0,0h-2.9a0,0,0,0,1,0,0V60.09A1,1,0,0,1,23.14,59.09Z"/><path class="cls-12" d="M25,57.64a1.45,1.45,0,1,1-2.89,0,1.45,1.45,0,0,1,2.89,0Z"/><path class="cls-12" d="M35.44,59.09h.9a1,1,0,0,1,1,1V68.5a0,0,0,0,1,0,0h-2.9a0,0,0,0,1,0,0V60.09A1,1,0,0,1,35.44,59.09Z"/><path class="cls-12" d="M37.33,57.64a1.45,1.45,0,1,1-1.44-1.44A1.44,1.44,0,0,1,37.33,57.64Z"/><path class="cls-12" d="M60,59.09h.9a1,1,0,0,1,1,1V68.5a0,0,0,0,1,0,0H59a0,0,0,0,1,0,0V60.09A1,1,0,0,1,60,59.09Z"/><path class="cls-12" d="M61.94,57.64A1.45,1.45,0,1,1,60.5,56.2,1.44,1.44,0,0,1,61.94,57.64Z"/><path class="cls-12" d="M72.35,59.09h.9a1,1,0,0,1,1,1V68.5a0,0,0,0,1,0,0h-2.9a0,0,0,0,1,0,0V60.09A1,1,0,0,1,72.35,59.09Z"/><path class="cls-12" d="M74.25,57.64A1.45,1.45,0,1,1,72.8,56.2,1.45,1.45,0,0,1,74.25,57.64Z"/><rect class="cls-12" x="77.14" y="42.44" width="2.9" height="26.06"/><path class="cls-12" d="M47.74,59.09h.9a1,1,0,0,1,1,1V68.5a0,0,0,0,1,0,0h-2.9a0,0,0,0,1,0,0V60.09A1,1,0,0,1,47.74,59.09Z"/><path class="cls-12" d="M49.64,57.64a1.45,1.45,0,1,1-1.45-1.44A1.45,1.45,0,0,1,49.64,57.64Z"/><path class="cls-3" d="M25,60.54l1.62,1.61a4.37,4.37,0,0,0,3.09,1.28h0a4.36,4.36,0,0,0,3.08-1.28l1.62-1.61"/><path class="cls-3" d="M37.33,60.54,39,62.15A4.37,4.37,0,0,0,42,63.43h0a4.37,4.37,0,0,0,3.09-1.28l1.61-1.61"/><path class="cls-3" d="M49.64,60.54l1.61,1.61a4.38,4.38,0,0,0,3.09,1.28h0a4.37,4.37,0,0,0,3.09-1.28l1.62-1.61"/><path class="cls-3" d="M61.94,60.54l1.62,1.61a4.37,4.37,0,0,0,3.09,1.28h0a4.37,4.37,0,0,0,3.09-1.28l1.61-1.61"/><path class="cls-13" d="M83.3,38.1h-9V35.93l-4.56,3.9a.58.58,0,0,0,0,.88l4.56,3.9V42.44h9a.58.58,0,0,0,.48-.9l-.85-1.27L83.78,39A.58.58,0,0,0,83.3,38.1Z"/><path class="cls-14" d="M77.14,42.44h5.07a0,0,0,0,1,0,0V61.71a1,1,0,0,1-1,1H77.14a0,0,0,0,1,0,0V42.44A0,0,0,0,1,77.14,42.44Z"/><rect class="cls-15" x="35.89" y="17.11" width="13.03" height="2.9"/><line class="cls-3" x1="35.89" y1="20.01" x2="35.89" y2="12.04"/><line class="cls-3" x1="48.92" y1="20.01" x2="48.92" y2="12.04"/><path class="cls-13" d="M35.89,8.58V12l3.82-1.63a.58.58,0,0,0,0-1.07l-3-1.29A.57.57,0,0,0,35.89,8.58Z"/><path class="cls-13" d="M48.92,8.58V12l3.82-1.63a.58.58,0,0,0,0-1.07l-3-1.29A.57.57,0,0,0,48.92,8.58Z"/><path class="cls-16" d="M60.5,34.48H20.69v3.26a1.81,1.81,0,1,0,3.62,0,1.81,1.81,0,0,0,3.62,0,1.81,1.81,0,1,0,3.61,0,1.81,1.81,0,1,0,3.62,0,1.81,1.81,0,1,0,3.62,0,1.81,1.81,0,1,0,3.62,0,1.81,1.81,0,1,0,3.62,0,1.81,1.81,0,0,0,3.62,0,1.81,1.81,0,1,0,3.62,0,1.81,1.81,0,1,0,3.62,0,1.81,1.81,0,0,0,3.62,0,1.81,1.81,0,1,0,3.61,0V34.48Z"/><path class="cls-17" d="M33.72,29.42l.73-.49a14.32,14.32,0,0,1,7.95-2.41h0a14.38,14.38,0,0,1,8,2.41l.73.49v5.06L50.36,34a14.3,14.3,0,0,0-8-2.41h0A14.24,14.24,0,0,0,34.45,34l-.73.48Z"/><polygon class="cls-17" points="51.09 30.86 55.43 30.86 53.98 33.03 55.43 35.93 51.09 35.93 51.09 30.86"/><polygon class="cls-17" points="33.72 30.86 29.37 30.86 30.82 33.03 29.37 35.93 33.72 35.93 33.72 30.86"/><line class="cls-3" x1="80.04" y1="45.34" x2="82.21" y2="45.34"/><line class="cls-3" x1="80.04" y1="48.23" x2="82.21" y2="48.23"/><line class="cls-3" x1="80.04" y1="51.13" x2="82.21" y2="51.13"/><line class="cls-3" x1="80.04" y1="54.02" x2="82.21" y2="54.02"/><line class="cls-3" x1="80.04" y1="56.92" x2="82.21" y2="56.92"/><line class="cls-3" x1="80.04" y1="59.81" x2="82.21" y2="59.81"/></svg>