<svg id="Layer_1" data-name="Layer 1" xmlns="http://www.w3.org/2000/svg" viewBox="0 0 100 100"><defs><style>.cls-1{fill:#e8f4fa;}.cls-2,.cls-6,.cls-7{fill:#6dd627;}.cls-3{fill:#46b000;}.cls-4{fill:#9ceb60;}.cls-5{fill:none;}.cls-5,.cls-6,.cls-7,.cls-8{stroke:#45413c;}.cls-5,.cls-6,.cls-8{stroke-linecap:round;stroke-linejoin:round;}.cls-7{stroke-miterlimit:10;}.cls-8{fill:#fff;}.cls-9{fill:#020202;opacity:0.15;}.cls-10{fill:#00b8f0;}.cls-11{fill:#4acfff;}.cls-12{fill:#45413c;}</style></defs><title>android-phone</title><circle class="cls-1" cx="50" cy="50" r="40"/><path class="cls-2" d="M31.38,38.19H54.22a1,1,0,0,1,1,1v16.7a3,3,0,0,1-3,3H33.38a3,3,0,0,1-3-3V39.19A1,1,0,0,1,31.38,38.19Z"/><path class="cls-3" d="M42.8,55.44a20.6,20.6,0,0,1-12.42-4.17v4.17a3.45,3.45,0,0,0,3.45,3.45H51.77a3.46,3.46,0,0,0,3.45-3.45V51.27A20.6,20.6,0,0,1,42.8,55.44Z"/><path class="cls-2" d="M53.75,35.43a1.14,1.14,0,0,0,.9-.44,1.13,1.13,0,0,0,.22-1,12.39,12.39,0,0,0-24.15,0A1.17,1.17,0,0,0,31,35a1.13,1.13,0,0,0,.9.44Z"/><path class="cls-4" d="M31.06,35.09a12.37,12.37,0,0,1,23.47,0s.09-.06.12-.1a1.13,1.13,0,0,0,.22-1,12.39,12.39,0,0,0-24.15,0A1.17,1.17,0,0,0,31,35S31,35.05,31.06,35.09Z"/><path class="cls-5" d="M31.38,38.19H54.22a1,1,0,0,1,1,1v16.7a3,3,0,0,1-3,3H33.38a3,3,0,0,1-3-3V39.19A1,1,0,0,1,31.38,38.19Z"/><path class="cls-5" d="M53.75,35.43a1.14,1.14,0,0,0,.9-.44,1.13,1.13,0,0,0,.22-1,12.39,12.39,0,0,0-24.15,0A1.17,1.17,0,0,0,31,35a1.13,1.13,0,0,0,.9.44Z"/><path class="cls-6" d="M33.14,58.89H40a0,0,0,0,1,0,0v6.28a2,2,0,0,1-2,2h-2.9a2,2,0,0,1-2-2V58.89A0,0,0,0,1,33.14,58.89Z"/><path class="cls-6" d="M47.56,58.89h2.9a2,2,0,0,1,2,2v6.28a0,0,0,0,1,0,0h-6.9a0,0,0,0,1,0,0V60.89A2,2,0,0,1,47.56,58.89Z" transform="translate(98.02 126.05) rotate(180)"/><path class="cls-7" d="M60.74,42.33a2.76,2.76,0,0,0,2.43-1.46l4.83-9a2.76,2.76,0,0,0-4.86-2.61l-4.83,9A2.77,2.77,0,0,0,59.43,42,2.83,2.83,0,0,0,60.74,42.33Z"/><path class="cls-7" d="M22.1,50.6a2.76,2.76,0,0,0,5.52,0V40.94a2.76,2.76,0,0,0-5.52,0Z"/><line class="cls-5" x1="46.94" y1="25.07" x2="51.42" y2="20.59"/><line class="cls-5" x1="38.66" y1="25.07" x2="34.17" y2="20.59"/><circle class="cls-8" cx="38.66" cy="31.28" r="1.38"/><circle class="cls-8" cx="46.94" cy="31.28" r="1.38"/><ellipse class="cls-9" cx="60.95" cy="80.27" rx="9.2" ry="1.73"/><rect class="cls-8" x="49.7" y="37.49" width="22.08" height="37.37" rx="3.4" ry="3.4"/><rect class="cls-10" x="49.7" y="44.29" width="22.08" height="25.48"/><polygon class="cls-11" points="49.7 63.17 68.53 44.29 49.7 44.29 49.7 63.17"/><rect class="cls-5" x="49.7" y="44.29" width="22.08" height="25.48"/><line class="cls-5" x1="55.97" y1="40.89" x2="60.22" y2="40.89"/><line class="cls-5" x1="63.62" y1="40.89" x2="64.47" y2="40.89"/><path class="cls-12" d="M60.74,71.46a.85.85,0,1,0,.85.85.85.85,0,0,0-.85-.85Z"/></svg>