<svg id="Layer_1" data-name="Layer 1" xmlns="http://www.w3.org/2000/svg" viewBox="0 0 100 100"><defs><style>.cls-1{fill:#daedf7;}.cls-2,.cls-6{fill:#fff;}.cls-3{fill:none;}.cls-15,.cls-3,.cls-6,.cls-7,.cls-8,.cls-9{stroke:#45413c;stroke-linecap:round;stroke-linejoin:round;}.cls-4{fill:#00b8f0;}.cls-5{fill:#4acfff;}.cls-12,.cls-7{fill:#c0dceb;}.cls-8{fill:#ffe500;}.cls-9{fill:#ffda8f;}.cls-10{fill:#f0f0f0;}.cls-11{fill:#020202;opacity:0.15;}.cls-13{fill:#adc4d9;}.cls-14{fill:#ffbe3d;}.cls-15{fill:#614b44;}.cls-16{fill:#ff6242;}.cls-17{fill:#ff866e;}</style></defs><title>arab-male-travel</title><path class="cls-1" d="M90,50A40,40,0,1,0,13.56,66.5H86.44A39.85,39.85,0,0,0,90,50Z"/><path class="cls-2" d="M13.56,66.5a40,40,0,0,0,72.88,0Z"/><line class="cls-3" x1="11" y1="66.5" x2="89" y2="66.5"/><line class="cls-3" x1="6.5" y1="66.5" x2="9" y2="66.5"/><line class="cls-3" x1="91" y1="66.5" x2="93.5" y2="66.5"/><path class="cls-4" d="M76,64V59.94a.94.94,0,0,0-.94-.94H44.3l-1.11,5Z"/><polygon class="cls-5" points="63.23 59 44.3 59 43.19 64 58.23 64 63.23 59"/><path class="cls-2" d="M43.1,64l-.6,2.5h36V58.6A1.6,1.6,0,0,0,76.9,57H45.84a1.21,1.21,0,0,0-1.17.91L44.3,59H75.06a.94.94,0,0,1,.94.94V64Z"/><path class="cls-3" d="M43.1,64l-.6,2.5h36V58.6A1.6,1.6,0,0,0,76.9,57H45.84a1.21,1.21,0,0,0-1.17.91L44.3,59H75.06a.94.94,0,0,1,.94.94V64Z"/><path class="cls-3" d="M76,64V59.94a.94.94,0,0,0-.94-.94H44.3l-1.11,5Z"/><path class="cls-2" d="M51,55.3V57H76.9a1.6,1.6,0,0,1,1.6,1.6v7.9h6V55.3a1.79,1.79,0,0,0-1.8-1.8H52.8A1.79,1.79,0,0,0,51,55.3Z"/><path class="cls-1" d="M78.4,55.5H51V57H76.9a1.6,1.6,0,0,1,1.6,1.6v7.9H80V57.1A1.6,1.6,0,0,0,78.4,55.5Z"/><path class="cls-3" d="M51,55.3V57H76.9a1.6,1.6,0,0,1,1.6,1.6v7.9h6V55.3a1.79,1.79,0,0,0-1.8-1.8H52.8A1.79,1.79,0,0,0,51,55.3Z"/><path class="cls-6" d="M63.7,51a1.2,1.2,0,0,0-1.2,1.2v1.3h19V52.2A1.2,1.2,0,0,0,80.3,51Z"/><path class="cls-2" d="M62.9,29a.54.54,0,0,0-.53.6l.34,2.9H81.09l.34-2.9a.54.54,0,0,0-.53-.6Z"/><polygon class="cls-1" points="62.48 30.54 62.71 32.5 81.09 32.5 81.32 30.54 62.48 30.54"/><path class="cls-3" d="M62.9,29a.54.54,0,0,0-.53.6l.34,2.9H81.09l.34-2.9a.54.54,0,0,0-.53-.6Z"/><rect class="cls-2" x="66" y="44.5" width="12" height="6.5"/><rect class="cls-7" x="66" y="39.5" width="12" height="2.5"/><path class="cls-2" d="M65.9,29h12c0-1-.83-2.5-1.85-2.5h-8.3C66.73,26.5,65.9,28,65.9,29Z"/><path class="cls-3" d="M65.9,29h12c0-1-.83-2.5-1.85-2.5h-8.3C66.73,26.5,65.9,28,65.9,29Z"/><rect class="cls-1" x="66" y="44.5" width="12" height="2.06" transform="translate(144 91.06) rotate(180)"/><rect class="cls-3" x="66" y="44.5" width="12" height="6.5"/><path class="cls-8" d="M65.3,42a1.29,1.29,0,0,0-1.2,1.3,1.2,1.2,0,0,0,1.2,1.2H78.5a1.2,1.2,0,0,0,1.2-1.2A1.29,1.29,0,0,0,78.5,42Z"/><path class="cls-4" d="M81.09,32.5l-.69,6.11a1,1,0,0,1-1,.89h-15a1,1,0,0,1-1-.89l-.69-6.11Z"/><path class="cls-5" d="M62.71,32.5l.69,6.11a1,1,0,0,0,1,.89h4.16l7-7Z"/><path class="cls-3" d="M81.09,32.5l-.69,6.11a1,1,0,0,1-1,.89h-15a1,1,0,0,1-1-.89l-.69-6.11Z"/><line class="cls-3" x1="72" y1="26.5" x2="72" y2="22"/><line class="cls-3" x1="69" y1="26.5" x2="69" y2="25"/><line class="cls-3" x1="75" y1="26.5" x2="75" y2="25"/><line class="cls-3" x1="78.5" y1="32.5" x2="78.5" y2="39.5"/><line class="cls-3" x1="74.5" y1="32.5" x2="74.5" y2="39.5"/><line class="cls-3" x1="69.5" y1="32.5" x2="69.5" y2="39.5"/><line class="cls-3" x1="65.5" y1="32.5" x2="65.5" y2="39.5"/><line class="cls-3" x1="72" y1="59" x2="72" y2="64"/><line class="cls-3" x1="67" y1="59" x2="67" y2="64"/><line class="cls-3" x1="62" y1="59" x2="62" y2="64"/><line class="cls-3" x1="57" y1="59" x2="57" y2="64"/><line class="cls-3" x1="52" y1="59" x2="52" y2="64"/><line class="cls-3" x1="47.4" y1="59.3" x2="47.4" y2="64.1"/><path class="cls-9" d="M24.5,62a2,2,0,1,0,4,0V60h-4Z"/><path class="cls-10" d="M43.48,60h4a.58.58,0,0,0,.58-.57V49.65a12.08,12.08,0,1,0-24.15,0v9.78a.57.57,0,0,0,.57.57h4L27.38,77.25H44.63Z"/><path class="cls-2" d="M36,37.57A12.07,12.07,0,0,0,23.93,49.65v2.87a12.08,12.08,0,0,1,24.15,0V49.65A12.08,12.08,0,0,0,36,37.57Z"/><path class="cls-3" d="M43.48,60h4a.58.58,0,0,0,.58-.57V49.65a12.08,12.08,0,1,0-24.15,0v9.78a.57.57,0,0,0,.57.57h4L27.38,77.25H44.63Z"/><line class="cls-6" x1="28.53" y1="60" x2="28.53" y2="46.77"/><line class="cls-6" x1="43.48" y1="60" x2="43.48" y2="46.77"/><path class="cls-9" d="M43.48,62a2,2,0,1,0,4,0V60h-4Z"/><ellipse class="cls-11" cx="36" cy="81.27" rx="14.95" ry="1.73"/><path class="cls-9" d="M43.74,80.12a1.15,1.15,0,0,0,1-.57,1.18,1.18,0,0,0,0-1.15,3.45,3.45,0,0,0-3-1.72h-.58a3.43,3.43,0,0,0-3,1.72,1.15,1.15,0,0,0,1,1.72Z"/><path class="cls-9" d="M32.82,80.12a1.15,1.15,0,0,0,1-1.72,3.43,3.43,0,0,0-3-1.72h-.58a3.45,3.45,0,0,0-3,1.72,1.18,1.18,0,0,0,0,1.15,1.15,1.15,0,0,0,1,.57Z"/><path class="cls-3" d="M28.79,77a5.47,5.47,0,0,1,1.46,3.15c0-1.72,2.3-2.87,2.3-2.87"/><path class="cls-3" d="M43.21,77a5.47,5.47,0,0,0-1.46,3.15c0-1.72-2.3-2.87-2.3-2.87"/><rect class="cls-12" x="43.48" y="65.75" width="4.6" height="10.93" rx="1" ry="1"/><path class="cls-13" d="M46.92,75h-2.3a1.14,1.14,0,0,1-1.14-1.15v1.72a1.15,1.15,0,0,0,1.14,1.16h2.3a1.16,1.16,0,0,0,1.16-1.16V73.8A1.15,1.15,0,0,1,46.92,75Z"/><rect class="cls-3" x="43.48" y="65.75" width="4.6" height="10.93" rx="1" ry="1"/><line class="cls-3" x1="45.49" y1="64.02" x2="45.49" y2="65.75"/><path class="cls-6" d="M36,41a4,4,0,0,1-1.15-.17V50.8a.58.58,0,0,0,.58.58h1.15a.58.58,0,0,0,.57-.58V40.85A4,4,0,0,1,36,41Z"/><path class="cls-9" d="M39.82,38.2a11.9,11.9,0,0,0-7.64,0,4,4,0,0,0,7.64,0Z"/><path class="cls-9" d="M44.05,28.38A1.41,1.41,0,0,0,42.9,27v-.93a6.9,6.9,0,0,0-13.8,0V27a1.4,1.4,0,0,0,.14,2.78,6.91,6.91,0,0,0,13.52,0A1.41,1.41,0,0,0,44.05,28.38Z"/><path class="cls-14" d="M36,19.18a6.89,6.89,0,0,0-6.9,6.89v.75a2.12,2.12,0,0,1,2.18-1.08c1.24.24,4,.51,4.62.57h.2c.57-.06,3.39-.33,4.63-.57a2.12,2.12,0,0,1,2.17,1.07h0v-.74A6.89,6.89,0,0,0,36,19.18Z"/><path class="cls-3" d="M44.05,28.38A1.41,1.41,0,0,0,42.9,27v-.93a6.9,6.9,0,0,0-13.8,0V27a1.4,1.4,0,0,0,.14,2.78,6.91,6.91,0,0,0,13.52,0A1.41,1.41,0,0,0,44.05,28.38Z"/><circle class="cls-14" cx="32.26" cy="29.24" r="0.86"/><circle class="cls-14" cx="39.74" cy="29.24" r="0.86"/><path class="cls-15" d="M40,31.13a1.17,1.17,0,0,1-.94-.18,6,6,0,0,0-6.14,0,1.16,1.16,0,0,1-.94.18,5.37,5.37,0,0,1-2.75-1.35c.69,6,4.3,7.79,6.76,7.79s6.07-1.76,6.76-7.79A5.37,5.37,0,0,1,40,31.13Z"/><path class="cls-3" d="M34.27,32.43a3.13,3.13,0,0,0,3.45,0"/><path class="cls-16" d="M41.18,19.18a3.23,3.23,0,0,0-3.45-3.45H34.28a3.22,3.22,0,0,0-3.45,3.45c-3.73.93-7.11,8.36-4.59,20.68a1.16,1.16,0,0,0,1.86.66c1.45-1.26,4.66-2.37,6.86-3.05C32.63,37,29.84,35,29.24,29.78A1.4,1.4,0,0,1,29.1,27V25.5a2,2,0,0,1,2.3-1.73c.89.18,3.38.45,4.28.55a3.53,3.53,0,0,0,.65,0c.89-.1,3.38-.37,4.27-.55a2,2,0,0,1,2.3,1.73V27a1.4,1.4,0,0,1-.14,2.78C42.16,35,39.37,37,37,37.47c2.2.68,5.41,1.79,6.86,3.05a1.16,1.16,0,0,0,1.86-.66C48.28,27.54,44.9,20.11,41.18,19.18Z"/><path class="cls-17" d="M36,20.9a10.93,10.93,0,0,1,10.28,6.46c-.8-4.79-2.89-7.63-5.1-8.18a3.23,3.23,0,0,0-3.45-3.45H34.28a3.22,3.22,0,0,0-3.45,3.45c-2.22.55-4.3,3.39-5.11,8.18A10.93,10.93,0,0,1,36,20.9Z"/><path class="cls-3" d="M41.18,19.18a3.23,3.23,0,0,0-3.45-3.45H34.28a3.22,3.22,0,0,0-3.45,3.45c-3.73.93-7.11,8.36-4.59,20.68a1.16,1.16,0,0,0,1.86.66c1.45-1.26,4.66-2.37,6.86-3.05C32.63,37,29.84,35,29.24,29.78A1.4,1.4,0,0,1,29.1,27V25.5a2,2,0,0,1,2.3-1.73c.89.18,3.38.45,4.28.55a3.53,3.53,0,0,0,.65,0c.89-.1,3.38-.37,4.27-.55a2,2,0,0,1,2.3,1.73V27a1.4,1.4,0,0,1-.14,2.78C42.16,35,39.37,37,37,37.47c2.2.68,5.41,1.79,6.86,3.05a1.16,1.16,0,0,0,1.86-.66C48.28,27.54,44.9,20.11,41.18,19.18Z"/><line class="cls-3" x1="29.1" y1="19.18" x2="42.9" y2="19.18"/><path class="cls-3" d="M39.11,27.23a1,1,0,0,0-1.38,0"/><path class="cls-3" d="M34.28,27.23a1,1,0,0,0-1.39,0"/></svg>