<svg id="Layer_1" data-name="Layer 1" xmlns="http://www.w3.org/2000/svg" viewBox="0 0 100 100"><defs><style>.cls-1,.cls-6{fill:#e8f4fa;}.cls-2{fill:#fff;}.cls-3{fill:none;}.cls-3,.cls-6{stroke:#45413c;stroke-linecap:round;stroke-linejoin:round;}.cls-4{fill:#ffcebf;}.cls-5{fill:#ffb59e;}.cls-7{fill:#00b8f0;}.cls-8{fill:#ff6242;}.cls-9{fill:#ff866e;}.cls-10{fill:#80ddff;}.cls-11{fill:#00f5bc;}.cls-12{fill:#8cffe4;}</style></defs><title>chip-head</title><path class="cls-1" d="M90.5,50A40,40,0,1,0,14.06,66.5H86.94A39.85,39.85,0,0,0,90.5,50Z"/><path class="cls-2" d="M14.06,66.5a40,40,0,0,0,72.88,0Z"/><line class="cls-3" x1="11" y1="66.5" x2="89" y2="66.5"/><line class="cls-3" x1="6.5" y1="66.5" x2="9" y2="66.5"/><line class="cls-3" x1="91" y1="66.5" x2="93.5" y2="66.5"/><path class="cls-4" d="M74.07,36.59c0-10-9.41-15.23-18-15.23-12.25,0-18.67,9.44-18.67,20.06,0,6,1.45,10.14,6.69,13.67V66.5H64.19V59.81H69c2.79,0,5.25-1.74,5.25-4.54V49.78s1.74,0,3,0C81.48,49.61,74.07,38.27,74.07,36.59Z"/><path class="cls-5" d="M37.44,41.42c0,4.11.68,7.34,2.77,10.09a21.15,21.15,0,0,0,5.6.78,20.89,20.89,0,0,0,19.28-29,21.38,21.38,0,0,0-9-2C43.86,21.36,37.44,30.8,37.44,41.42Z"/><path class="cls-3" d="M74.07,36.59c0-10-9.41-15.23-18-15.23-12.25,0-18.67,9.44-18.67,20.06,0,6,1.45,10.14,6.69,13.67V66.5H64.19V59.81H69c2.79,0,5.25-1.74,5.25-4.54V49.78s1.74,0,3,0C81.48,49.61,74.07,38.27,74.07,36.59Z"/><path class="cls-6" d="M32.76,18.39A18.38,18.38,0,1,1,34,45.52l-3,3-2.36-2.36,3-3A18.37,18.37,0,0,1,32.76,18.39Z"/><circle class="cls-7" cx="45.81" cy="31.39" r="14.42" transform="translate(-8.78 41.59) rotate(-45)"/><path class="cls-8" d="M26.58,45.84a1.21,1.21,0,0,1,.86-.35,1.19,1.19,0,0,1,.85.35l3,3a1.21,1.21,0,0,1,0,1.71l-9.22,9.22a3.34,3.34,0,0,1-4.73-4.73Z"/><path class="cls-9" d="M29.76,47.31l-1.47-1.47a1.21,1.21,0,0,0-1.71,0l-9.22,9.22a3.34,3.34,0,0,0,0,4.68Z"/><path class="cls-3" d="M26.58,45.84a1.21,1.21,0,0,1,.86-.35,1.19,1.19,0,0,1,.85.35l3,3a1.21,1.21,0,0,1,0,1.71l-9.22,9.22a3.34,3.34,0,0,1-4.73-4.73Z"/><path class="cls-10" d="M45.81,20.58a14.42,14.42,0,0,1,14.3,12.61,15.25,15.25,0,0,0,.12-1.8,14.42,14.42,0,1,0-28.84,0,15.25,15.25,0,0,0,.12,1.8A14.42,14.42,0,0,1,45.81,20.58Z"/><circle class="cls-3" cx="45.81" cy="31.39" r="14.42" transform="translate(-8.78 41.59) rotate(-45)"/><rect class="cls-11" x="40.79" y="26.38" width="10.03" height="10.03" rx="0.84" ry="0.84"/><path class="cls-12" d="M50,26.38H41.63a.84.84,0,0,0-.84.83v8.36a.85.85,0,0,0,.26.61l9.54-9.54A.81.81,0,0,0,50,26.38Z"/><rect class="cls-3" x="40.79" y="26.38" width="10.03" height="10.03" rx="0.84" ry="0.84"/><line class="cls-3" x1="49.99" y1="26.38" x2="49.99" y2="23.87"/><line class="cls-3" x1="45.81" y1="26.38" x2="45.81" y2="23.87"/><line class="cls-3" x1="41.63" y1="26.38" x2="41.63" y2="23.87"/><line class="cls-3" x1="49.99" y1="38.91" x2="49.99" y2="36.41"/><line class="cls-3" x1="45.81" y1="38.91" x2="45.81" y2="36.41"/><line class="cls-3" x1="41.63" y1="38.91" x2="41.63" y2="36.41"/><line class="cls-3" x1="53.33" y1="27.21" x2="50.83" y2="27.21"/><line class="cls-3" x1="53.33" y1="31.39" x2="50.83" y2="31.39"/><line class="cls-3" x1="53.33" y1="35.57" x2="50.83" y2="35.57"/><line class="cls-3" x1="40.79" y1="27.21" x2="38.29" y2="27.21"/><line class="cls-3" x1="40.79" y1="31.39" x2="38.29" y2="31.39"/><line class="cls-3" x1="40.79" y1="35.57" x2="38.29" y2="35.57"/><line class="cls-3" x1="46.65" y1="33.06" x2="44.14" y2="33.06"/><path class="cls-3" d="M68.15,41.42a.61.61,0,1,1-.61-.6A.61.61,0,0,1,68.15,41.42Z"/></svg>