<svg id="Layer_1" data-name="Layer 1" xmlns="http://www.w3.org/2000/svg" viewBox="0 0 100 100"><defs><style>.cls-1,.cls-16{fill:#e8f4fa;}.cls-14,.cls-2{fill:#fff;}.cls-21,.cls-3{fill:none;}.cls-10,.cls-11,.cls-14,.cls-15,.cls-16,.cls-19,.cls-20,.cls-21,.cls-3,.cls-9{stroke:#45413c;stroke-linejoin:round;}.cls-10,.cls-11,.cls-14,.cls-15,.cls-3,.cls-9{stroke-linecap:round;}.cls-4{fill:#020202;opacity:0.15;}.cls-10,.cls-5{fill:#9ceb60;}.cls-6{fill:#6dd627;}.cls-11,.cls-7{fill:#e09f7e;}.cls-8{fill:#d18660;}.cls-9{fill:#ff6242;}.cls-12{fill:#614b44;}.cls-13{fill:#724f3d;}.cls-15{fill:#656769;}.cls-17{fill:#adc4d9;}.cls-18,.cls-19{fill:#c0dceb;}.cls-20{fill:#f0f0f0;}</style></defs><title>customer-service-man</title><g id="_Group_" data-name="&lt;Group&gt;"><path class="cls-1" d="M90.5,50A40,40,0,1,0,14.06,66.5H86.94A39.85,39.85,0,0,0,90.5,50Z"/><path class="cls-2" d="M14.06,66.5a40,40,0,0,0,72.88,0Z"/><line class="cls-3" x1="11" y1="66.5" x2="89" y2="66.5"/><line class="cls-3" x1="6.5" y1="66.5" x2="9" y2="66.5"/><line class="cls-3" x1="91" y1="66.5" x2="93.5" y2="66.5"/></g><ellipse class="cls-4" cx="42.94" cy="78" rx="18" ry="1.5"/><path class="cls-5" d="M57.9,43.1A15.59,15.59,0,0,0,42.3,58.7v4.2c0,7.91-2.81,9-5.92,9H33.9v5.4h2.48c4.35,0,11.92-3.63,11.92-10.8H67.5c0,4.57-3.36,5.4-5.92,5.4H59.1v5.4h2.48c4.92,0,11.92-1,11.92-10.8V58.7A15.59,15.59,0,0,0,57.9,43.1Z"/><path class="cls-6" d="M53.87,50.76a1.44,1.44,0,0,0,.93-.34l3.1-2.66L61,50.42a1.44,1.44,0,0,0,2.1-.26l3.24-4.58a15.55,15.55,0,0,0-6.24-2.33l-5.43.19a15.26,15.26,0,0,0-5.21,2.14l.2.29,3,4.29A1.44,1.44,0,0,0,53.87,50.76Z"/><path class="cls-3" d="M57.9,43.1A15.59,15.59,0,0,0,42.3,58.7v4.2c0,7.91-2.81,9-5.92,9H33.9v5.4h2.48c4.35,0,11.92-3.63,11.92-10.8H67.5c0,4.57-3.36,5.4-5.92,5.4H59.1v5.4h2.48c4.92,0,11.92-1,11.92-10.8V58.7A15.59,15.59,0,0,0,57.9,43.1Z"/><polygon class="cls-7" points="61.5 43.7 57.9 46.1 54.3 43.7 54.3 40.7 61.5 40.7 61.5 43.7"/><path class="cls-8" d="M54.3,43.57l.27.13a9.54,9.54,0,0,0,6.66,0l.27-.13V40.7H54.3Z"/><polygon class="cls-3" points="61.5 43.7 57.9 46.1 54.3 43.7 54.3 40.7 61.5 40.7 61.5 43.7"/><path class="cls-9" d="M57.9,46.1,55,63.51a1.74,1.74,0,0,0,.17,1.12l.93,1.87h3.6l.93-1.87a1.74,1.74,0,0,0,.17-1.12Z"/><path class="cls-10" d="M62.69,48.87,65.41,45a15.45,15.45,0,0,0-3.73-1.45L57.9,46.1,61.33,49A.93.93,0,0,0,62.69,48.87Z"/><path class="cls-10" d="M53.11,48.87,50.39,45a15.45,15.45,0,0,1,3.73-1.45L57.9,46.1,54.47,49A.93.93,0,0,1,53.11,48.87Z"/><line class="cls-3" x1="48.3" y1="59.3" x2="48.3" y2="66.5"/><line class="cls-3" x1="67.5" y1="59.3" x2="67.5" y2="66.5"/><path class="cls-11" d="M59.1,76.7H57.3a2.4,2.4,0,1,1,0-4.8h1.8Z"/><path class="cls-11" d="M33.9,76.7H32.1a2.4,2.4,0,1,1,0-4.8h1.8Z"/><path class="cls-11" d="M68.1,29.9V27.5a10.2,10.2,0,1,0-20.4,0v2.4a1.81,1.81,0,0,0-1.8,1.8v.6a1.81,1.81,0,0,0,1.8,1.8l.17,0a10.19,10.19,0,0,0,20.07,0l.16,0a1.8,1.8,0,0,0,1.8-1.8v-.6A1.8,1.8,0,0,0,68.1,29.9Z"/><circle class="cls-8" cx="51.9" cy="34.1" r="1.2"/><circle class="cls-8" cx="63.9" cy="34.1" r="1.2"/><path class="cls-3" d="M54.9,36.5a4.35,4.35,0,0,0,6,0"/><path class="cls-3" d="M63.3,31.1a1.63,1.63,0,0,0-3,0"/><path class="cls-3" d="M55.5,30.9a1.63,1.63,0,0,0-3,0"/><path class="cls-12" d="M49.5,31.7a10.14,10.14,0,0,0,.21-4.25c1.06.35,2.79-1.15,2.79-1.15V23.9a24,24,0,0,0,5.4,1.2,23.83,23.83,0,0,0,5.4-1.2v2.4s1.74,1.5,2.79,1.15a10.14,10.14,0,0,0,.21,4.25A1.78,1.78,0,0,1,68.64,30l0,0a1.74,1.74,0,0,0-.56-.1V27.5a10.2,10.2,0,1,0-20.4,0v2.4a1.74,1.74,0,0,0-.56.1l0,0A1.77,1.77,0,0,1,49.5,31.7Z"/><path class="cls-13" d="M57.9,19.7A10.2,10.2,0,0,1,68.1,29.9V27.5a10.2,10.2,0,1,0-20.4,0v2.4A10.2,10.2,0,0,1,57.9,19.7Z"/><path class="cls-3" d="M49.5,31.7a10.14,10.14,0,0,0,.21-4.25c1.06.35,2.79-1.15,2.79-1.15V23.9a24,24,0,0,0,5.4,1.2,23.83,23.83,0,0,0,5.4-1.2v2.4s1.74,1.5,2.79,1.15a10.14,10.14,0,0,0,.21,4.25A1.78,1.78,0,0,1,68.64,30l0,0a1.74,1.74,0,0,0-.56-.1V27.5a10.2,10.2,0,1,0-20.4,0v2.4a1.74,1.74,0,0,0-.56.1l0,0A1.77,1.77,0,0,1,49.5,31.7Z"/><path class="cls-3" d="M45.9,34.1v1.8a5.4,5.4,0,0,0,5.4,5.4h.6"/><path class="cls-3" d="M44.7,31.1v-3a13.2,13.2,0,1,1,26.4,0v2.4"/><path class="cls-14" d="M44.7,29.3h2.4a0,0,0,0,1,0,0v6a0,0,0,0,1,0,0H44.7a1.2,1.2,0,0,1-1.2-1.2V30.5A1.2,1.2,0,0,1,44.7,29.3Z"/><path class="cls-15" d="M45.9,34.1a1.2,1.2,0,1,0,2.4,0V30.5a1.2,1.2,0,1,0-2.4,0Z"/><path class="cls-14" d="M69.9,29.3h2.4a0,0,0,0,1,0,0v6a0,0,0,0,1,0,0H69.9a1.2,1.2,0,0,1-1.2-1.2V30.5A1.2,1.2,0,0,1,69.9,29.3Z" transform="translate(141 64.6) rotate(180)"/><path class="cls-15" d="M69.9,34.1a1.2,1.2,0,1,1-2.4,0V30.5a1.2,1.2,0,0,1,2.4,0Z"/><path class="cls-15" d="M55.5,41.3a1.8,1.8,0,1,1-1.8-1.8A1.81,1.81,0,0,1,55.5,41.3Z"/><path class="cls-16" d="M46.63,75h2.23L44.09,60.19a1,1,0,0,0-1-.69h-1.5Z"/><path class="cls-17" d="M27.13,75h19.5l-5-15.5H23.5a1,1,0,0,0-.95,1.31Z"/><path class="cls-18" d="M42.41,61.92H22.91l-.36-1.11a1,1,0,0,1,.95-1.31H41.63Z"/><path class="cls-19" d="M27.13,75h20.5v2.5H29.13a2,2,0,0,1-2-2Z"/><path class="cls-16" d="M47.63,75h9a.5.5,0,0,1,.5.5,2,2,0,0,1-2,2H47.63Z"/><path class="cls-20" d="M35.47,66.7a1.11,1.11,0,0,1,.53-.94,1.13,1.13,0,0,0-.9-.48c-.38,0-.75.22-.94.22s-.49-.22-.81-.21a1.2,1.2,0,0,0-1,.61,2.58,2.58,0,0,0,.31,2.48c.21.3.46.63.78.62s.43-.2.8-.2.49.2.81.19.55-.3.76-.6a3.23,3.23,0,0,0,.34-.7A1.06,1.06,0,0,1,35.47,66.7Z"/><line class="cls-3" x1="34.63" y1="64" x2="35.08" y2="63.55"/><path class="cls-21" d="M27.13,75h19.5l-5-15.5H23.5a1,1,0,0,0-.95,1.31Z"/></svg>