<svg id="Layer_1" data-name="Layer 1" xmlns="http://www.w3.org/2000/svg" viewBox="0 0 100 100"><defs><style>.cls-1,.cls-15{fill:#e8f4fa;}.cls-13,.cls-2{fill:#fff;}.cls-20,.cls-3{fill:none;}.cls-12,.cls-13,.cls-14,.cls-15,.cls-18,.cls-19,.cls-20,.cls-3,.cls-9{stroke:#45413c;stroke-linejoin:round;}.cls-12,.cls-13,.cls-14,.cls-3,.cls-9{stroke-linecap:round;}.cls-4{fill:#ffdf3d;}.cls-5{fill:#ffef9e;}.cls-12,.cls-6{fill:#ffb0ca;}.cls-7{fill:#fcd;}.cls-8{fill:#020202;opacity:0.15;}.cls-10,.cls-9{fill:#ffdcd1;}.cls-11{fill:#ffcebf;}.cls-14{fill:#656769;}.cls-16{fill:#adc4d9;}.cls-17,.cls-18{fill:#c0dceb;}.cls-19{fill:#f0f0f0;}</style></defs><title>customer-service-woman</title><g id="_Group_" data-name="&lt;Group&gt;"><path class="cls-1" d="M90.5,50A40,40,0,1,0,14.06,66.5H86.94A39.85,39.85,0,0,0,90.5,50Z"/><path class="cls-2" d="M14.06,66.5a40,40,0,0,0,72.88,0Z"/><line class="cls-3" x1="11" y1="66.5" x2="89" y2="66.5"/><line class="cls-3" x1="6.5" y1="66.5" x2="9" y2="66.5"/><line class="cls-3" x1="91" y1="66.5" x2="93.5" y2="66.5"/></g><path class="cls-4" d="M63.9,44.9a6,6,0,0,0,6-6v-12a12,12,0,0,0-12.8-12A12.26,12.26,0,0,0,45.9,27.31V38.9a6,6,0,0,0,6,6Z"/><path class="cls-5" d="M57.1,14.93A12.26,12.26,0,0,0,45.9,27.31v3A12.26,12.26,0,0,1,57.1,17.93a12,12,0,0,1,12.8,12v-3A12,12,0,0,0,57.1,14.93Z"/><path class="cls-3" d="M63.9,44.9a6,6,0,0,0,6-6v-12a12,12,0,0,0-12.8-12A12.26,12.26,0,0,0,45.9,27.31V38.9a6,6,0,0,0,6,6Z"/><path class="cls-6" d="M57.9,43.1A15.6,15.6,0,0,0,42.3,58.7v4.2c0,7.91-2.81,9-5.92,9H33.9v5.4h2.48c4.36,0,11.92-3.63,11.92-10.8H67.5c0,4.56-3.36,5.4-5.92,5.4H59.1v5.4h2.48c4.92,0,11.92-1,11.92-10.8V58.7A15.59,15.59,0,0,0,57.9,43.1Z"/><path class="cls-7" d="M57.9,43.1A15.59,15.59,0,0,0,42.3,58.7v4.2a15.6,15.6,0,0,1,31.2,0V58.7A15.59,15.59,0,0,0,57.9,43.1Z"/><path class="cls-3" d="M57.9,43.1A15.6,15.6,0,0,0,42.3,58.7v4.2c0,7.91-2.81,9-5.92,9H33.9v5.4h2.48c4.36,0,11.92-3.63,11.92-10.8H67.5c0,4.56-3.36,5.4-5.92,5.4H59.1v5.4h2.48c4.92,0,11.92-1,11.92-10.8V58.7A15.59,15.59,0,0,0,57.9,43.1Z"/><line class="cls-3" x1="48.3" y1="59.3" x2="48.3" y2="66.5"/><line class="cls-3" x1="67.5" y1="59.3" x2="67.5" y2="66.5"/><ellipse class="cls-8" cx="42.94" cy="78" rx="18" ry="1.5"/><path class="cls-9" d="M59.1,76.7H57.3a2.4,2.4,0,1,1,0-4.8h1.8Z"/><path class="cls-9" d="M33.9,76.7H32.1a2.4,2.4,0,1,1,0-4.8h1.8Z"/><line class="cls-3" x1="57.9" y1="50.9" x2="57.9" y2="66.5"/><polygon class="cls-10" points="61.5 43.7 57.9 50.9 54.3 43.7 54.3 40.7 61.5 40.7 61.5 43.7"/><path class="cls-11" d="M54.3,43.57l.27.13a9.54,9.54,0,0,0,6.66,0l.27-.13V40.7H54.3Z"/><polygon class="cls-3" points="61.5 43.7 57.9 50.9 54.3 43.7 54.3 40.7 61.5 40.7 61.5 43.7"/><path class="cls-12" d="M52.28,49.23a1,1,0,0,0,.81.39,1,1,0,0,0,.79-.42l1.8-2.5a1,1,0,0,0,0-1.19l-1.48-2a15.6,15.6,0,0,0-4.71,2Z"/><path class="cls-12" d="M63.52,49.23a1,1,0,0,1-1.6,0l-1.79-2.5a1,1,0,0,1,0-1.19l1.48-2a15.65,15.65,0,0,1,4.72,2Z"/><path class="cls-9" d="M68.1,29.9V27.5c0-.28,0-.56,0-.83a10.78,10.78,0,0,1-13.62-2.42A6.1,6.1,0,0,1,48.9,28.7a5.32,5.32,0,0,1-1.2-.14V29.9a1.81,1.81,0,0,0-1.8,1.8v.6a1.81,1.81,0,0,0,1.8,1.8l.17,0a10.19,10.19,0,0,0,20.07,0l.16,0a1.8,1.8,0,0,0,1.8-1.8v-.6A1.8,1.8,0,0,0,68.1,29.9Z"/><path class="cls-11" d="M53.1,34.1a1.2,1.2,0,1,1-1.2-1.2A1.2,1.2,0,0,1,53.1,34.1Z"/><path class="cls-11" d="M65.1,34.1a1.2,1.2,0,1,1-1.2-1.2A1.2,1.2,0,0,1,65.1,34.1Z"/><path class="cls-3" d="M54.9,36.5a4.35,4.35,0,0,0,6,0"/><path class="cls-3" d="M63.3,31.1a1.63,1.63,0,0,0-3,0"/><path class="cls-3" d="M55.5,30.9a1.63,1.63,0,0,0-3,0"/><path class="cls-3" d="M43.5,34.1v1.8a5.4,5.4,0,0,0,5.4,5.4h3"/><path class="cls-13" d="M44.7,29.3h2.4a0,0,0,0,1,0,0v6a0,0,0,0,1,0,0H44.7a1.2,1.2,0,0,1-1.2-1.2V30.5A1.2,1.2,0,0,1,44.7,29.3Z"/><path class="cls-14" d="M45.9,34.1a1.2,1.2,0,1,0,2.4,0V30.5a1.2,1.2,0,1,0-2.4,0Z"/><path class="cls-13" d="M69.9,29.3h2.4a0,0,0,0,1,0,0v6a0,0,0,0,1,0,0H69.9a1.2,1.2,0,0,1-1.2-1.2V30.5A1.2,1.2,0,0,1,69.9,29.3Z" transform="translate(141 64.6) rotate(180)"/><path class="cls-14" d="M69.9,34.1a1.2,1.2,0,1,1-2.4,0V30.5a1.2,1.2,0,0,1,2.4,0Z"/><path class="cls-14" d="M55.5,41.3a1.8,1.8,0,1,1-1.8-1.8A1.81,1.81,0,0,1,55.5,41.3Z"/><path class="cls-3" d="M43.5,32.3V26.9a14.4,14.4,0,0,1,28.8,0v5.4"/><path class="cls-15" d="M46.63,75h2.23L44.09,60.19a1,1,0,0,0-1-.69H41.63Z"/><path class="cls-16" d="M27.13,75h19.5l-5-15.5H23.5a1,1,0,0,0-.95,1.31Z"/><path class="cls-17" d="M41.63,59.5H23.5a1,1,0,0,0-.95,1.31l.6,1.86h19.5Z"/><path class="cls-18" d="M27.13,75h20.5v2.5H29.13a2,2,0,0,1-2-2Z"/><path class="cls-15" d="M47.63,75h9a.5.5,0,0,1,.5.5,2,2,0,0,1-2,2H47.63Z"/><path class="cls-19" d="M35.47,66.7a1.14,1.14,0,0,1,.53-.94,1.13,1.13,0,0,0-.9-.48c-.38,0-.75.22-.94.22s-.49-.22-.81-.21a1.2,1.2,0,0,0-1,.61,2.58,2.58,0,0,0,.31,2.48c.21.3.46.63.78.62s.43-.2.8-.2.49.2.81.19.55-.3.76-.6a3.23,3.23,0,0,0,.34-.7A1.06,1.06,0,0,1,35.47,66.7Z"/><line class="cls-3" x1="34.63" y1="64" x2="35.08" y2="63.55"/><path class="cls-20" d="M27.13,75h19.5l-5-15.5H23.5a1,1,0,0,0-.95,1.31Z"/></svg>