<?xml version="1.0" encoding="UTF-8" standalone="no"?>
<svg xmlns:dc="http://purl.org/dc/elements/1.1/" xmlns:cc="http://creativecommons.org/ns#"
  xmlns:rdf="http://www.w3.org/1999/02/22-rdf-syntax-ns#" xmlns:svg="http://www.w3.org/2000/svg"
  xmlns="http://www.w3.org/2000/svg" xmlns:sodipodi="http://sodipodi.sourceforge.net/DTD/sodipodi-0.dtd"
  xmlns:inkscape="http://www.inkscape.org/namespaces/inkscape" inkscape:version="1.0 (4035a4f, 2020-05-01)"
  sodipodi:docname="customize_opt.svg" id="svg925" viewBox="0 0 247 178" version="1.1" height="178mm" width="247mm">
  <defs id="defs929" />
  <sodipodi:namedview inkscape:current-layer="svg925" inkscape:window-maximized="1" inkscape:window-y="23"
    inkscape:window-x="1440" inkscape:cy="296.07041" inkscape:cx="473.26923" inkscape:zoom="1.4418185" showgrid="false"
    id="namedview927" inkscape:window-height="1395" inkscape:window-width="2560" inkscape:pageshadow="2"
    inkscape:pageopacity="0" guidetolerance="10" gridtolerance="10" objecttolerance="10" borderopacity="1"
    bordercolor="#666666" pagecolor="#ffffff" />
  <style>
    .check1,
    .check2,
    .check3 {
      opacity: 0;
    }

    .check1 {
      animation: 6s linear infinite blink;
    }

    .check2 {
      animation: 6s linear 2s infinite blink;
    }

    .check3 {
      animation: 6s linear 4s infinite blink;
    }

    .phone {
      animation: 6s linear infinite changeColor;
    }

    @keyframes blink {
      0% {
        opacity: 0;
      }

      3% {
        opacity: 1;
      }

      30% {
        opacity: 1;
      }

      33% {
        opacity: 0;
      }

      100% {
        opacity: 0;
      }
    }

    @keyframes changeColor {
      0% {
        fill: #3a9ad9;
      }

      30% {
        fill: #3a9ad9;
      }

      33% {
        fill: #657786;
      }

      63% {
        fill: #657786;
      }

      66% {
        fill: #e19d29;
      }

      98% {
        fill: #e19d29;
      }

      100% {
        fill: #3a9ad9;
      }
    }
  </style>
  <polygon id="polygon835" fill="#3e3e3e" points="921.47 658.97 347.38 658.97 347.38 656.79 921.86 656.79"
    transform="matrix(.26458 0 0 .26458 2.1324 2.701)" />
  <path id="path837" stroke-width=".26458" fill="#e6e6e6"
    d="m3.3762 2.701a1.2453 1.2453 0 0 0-1.2438 1.2438v71.642a1.2453 1.2453 0 0 0 1.2438 1.2438h142.04a1.2453 1.2453 0 0 0 1.2438-1.2438v-71.642a1.2453 1.2453 0 0 0-1.2438-1.2438z" />
  <path id="path839" stroke-width=".26458" fill="#fff"
    d="m5.3662 4.6911a1.2453 1.2453 0 0 0-1.2438 1.2438v67.662a1.2453 1.2453 0 0 0 1.2438 1.2438h138.06a1.2453 1.2453 0 0 0 1.2438-1.2438v-67.662a1.2453 1.2453 0 0 0-1.2438-1.2438z" />
  <g id="g853" stroke-width=".26458">
    <path id="path841" fill="#3a9ad9"
      d="m46.785 48.224h-29.353a1.7433 1.7433 0 0 1-1.7413-1.7413v-29.353a1.7433 1.7433 0 0 1 1.7413-1.7413h29.353a1.7433 1.7433 0 0 1 1.7413 1.7413v29.353a1.7433 1.7433 0 0 1-1.7413 1.7413zm-29.353-32.339a1.2453 1.2453 0 0 0-1.2438 1.2438v29.353a1.2453 1.2453 0 0 0 1.2438 1.2438h29.353a1.2453 1.2453 0 0 0 1.2438-1.2438v-29.353a1.2453 1.2453 0 0 0-1.2438-1.2438z" />
    <path id="path843" fill="#657786"
      d="m89.073 48.224h-29.353a1.7433 1.7433 0 0 1-1.7413-1.7413v-29.353a1.7433 1.7433 0 0 1 1.7413-1.7413h29.353a1.7433 1.7433 0 0 1 1.7413 1.7413v29.353a1.7433 1.7433 0 0 1-1.7413 1.7413zm-29.353-32.339a1.2453 1.2453 0 0 0-1.2438 1.2438v29.353a1.2453 1.2453 0 0 0 1.2438 1.2438h29.353a1.2453 1.2453 0 0 0 1.2438-1.2438v-29.353a1.2453 1.2453 0 0 0-1.2438-1.2438z" />
    <path id="path845" fill="#657786"
      d="m61.959 18.124a1.2453 1.2453 0 0 0-1.2438 1.2438v24.876a1.2453 1.2453 0 0 0 1.2438 1.2438h24.876a1.2453 1.2453 0 0 0 1.2438-1.2438v-24.876a1.2453 1.2453 0 0 0-1.2438-1.2438z" />
    <path id="path847" fill="#3a9ad9"
      d="m19.794 18.124a1.2453 1.2453 0 0 0-1.2438 1.2438v24.876a1.2453 1.2453 0 0 0 1.2438 1.2438h24.876a1.2453 1.2453 0 0 0 1.2438-1.2438v-24.876a1.2453 1.2453 0 0 0-1.2438-1.2438z" />
    <path id="path849" fill="#e19d29"
      d="m104.12 18.124a1.2453 1.2453 0 0 0-1.2438 1.2438v24.876a1.2453 1.2453 0 0 0 1.2438 1.2438h24.876a1.2453 1.2453 0 0 0 1.2438-1.2438v-24.876a1.2453 1.2453 0 0 0-1.2438-1.2438z" />
    <path id="path851" fill="#e19d29"
      d="m131.36 48.224h-29.353a1.7433 1.7433 0 0 1-1.7413-1.7413v-29.353a1.7433 1.7433 0 0 1 1.7413-1.7413h29.353a1.7433 1.7433 0 0 1 1.7413 1.7413v29.353a1.7433 1.7433 0 0 1-1.7413 1.7413zm-29.353-32.339a1.2453 1.2453 0 0 0-1.2438 1.2438v29.353a1.2453 1.2453 0 0 0 1.2438 1.2438h29.353a1.2453 1.2453 0 0 0 1.2438-1.2438v-29.353a1.2453 1.2453 0 0 0-1.2438-1.2438z" />
  </g>
  <g id="g861" stroke-width=".26458" fill="#657786">
    <circle id="circle855" opacity=".8" r="4.2289" cy="57.677" cx="62.581" />
    <circle id="circle857" opacity=".4" r="4.2289" cy="57.677" cx="86.461" />
    <circle id="circle859" opacity=".6" r="4.2289" cy="57.677" cx="74.521" />
  </g>
  <g id="g869" stroke-width=".26458" fill="#3a9ad9">
    <circle id="circle863" opacity=".8" r="4.2289" cy="57.677" cx="20.292" />
    <circle id="circle865" opacity=".4" r="4.2289" cy="57.677" cx="44.173" />
    <circle id="circle867" opacity=".6" r="4.2289" cy="57.677" cx="32.232" />
  </g>
  <g id="g877" stroke-width=".26458" fill="#e19d29">
    <circle id="circle871" opacity=".8" r="4.2289" cy="57.677" cx="104.87" />
    <circle id="circle873" opacity=".4" r="4.2289" cy="57.677" cx="128.75" />
    <circle id="circle875" opacity=".6" r="4.2289" cy="57.677" cx="116.81" />
  </g>
  <path id="path881" stroke-width=".26458" fill="#3e3e3e"
    d="m170.02 86.61a0.8394 0.8394 0 0 0-1.0508-0.10342l-6.4186 4.1806a0.84441 0.84441 0 0 0-0.13496 1.3058l16.323 16.252a0.84434 0.84434 0 0 0 1.203-0.0116l5.3493-5.5365a0.84621 0.84621 0 0 0-0.0173-1.1907z" />
  <path id="path883" stroke-width=".26458" fill="#fff"
    d="m163.82 91.134 0.66425-0.42352a0.63288 0.63288 0 0 0 0.9109 0.83098l4.2985-2.9552a0.63251 0.63251 0 0 0-0.16723-1.1246l0.34223-0.2182a0.23028 0.23028 0 0 1 0.2876 0.0323l14.46 14.211a0.23027 0.23027 0 0 1-6e-3 0.32941l-5.2517 5.1172a0.23028 0.23028 0 0 1-0.32053-4e-3l-15.257-15.438a0.23028 0.23028 0 0 1 0.0388-0.35727z" />
  <polygon class="phone" id="polygon885" points="674.18 361.5 657.41 377.31 617.53 337.91 637.77 324.74"
    transform="matrix(.26458 0 0 .26458 2.1324 2.701)" />
  <g id="g893" stroke-width=".26458">
    <path id="path887" fill="#e6e6e6"
      d="m165.93 94.679a0.15376 0.15376 0 0 0 0-0.2171l-0.92272-0.9227a0.15725 0.15725 0 0 0-0.21712 0 0.15375 0.15375 0 0 0 0 0.2171l0.92272 0.9227a0.15725 0.15725 0 0 0 0.21712 0z" />
    <path id="path889" fill="#e6e6e6"
      d="m167.49 96.016-0.92272-0.92272a0.15353 0.15353 0 0 0-0.21712 0.21712l0.92272 0.92272a0.15353 0.15353 0 0 0 0.21712-0.21712z" />
    <circle class="phone" id="circle891" r="1.0362" cy="101.94" cx="180.41" />
  </g>
  <g id="g901" stroke-width=".26458" fill="#ffb8b8">
    <path id="path895"
      d="m210.44 104.06-0.79869 3.8936a3.2228 3.2228 0 0 0 4.2297 3.6867 3.2228 3.2228 0 0 0 2.0174-3.9547l-1.0743-3.6256 9.7204-28.432h-8.2624z" />
    <circle id="circle897" r="7.5333" cy="39.907" cx="201.69" />
    <path id="path899" d="m200.48 53.272 9.9634-1.2151c-2.2857-2.8659-3.15-5.8582-2.4301-8.9914l-8.9914 0.97204z" />
  </g>
  <path id="path903" stroke-width=".26458" fill="#eb7260"
    d="m188.08 95.313 23.572-5.3462c5.0384-3.9185 8.3115-11.691 10.84-21.09 1.8426-6.8495-1.468-14.142-7.9745-16.966q-0.23333-0.10128-0.47141-0.19497l-5.3101-2.0892-8.7484 0.72903-3.1212 0.85125a3.5401 3.5401 0 0 0-2.569 2.8873c-4.1963 15.397-6.9624 29.679-6.2173 41.218z" />
  <polygon id="polygon905" fill="#eb7260" points="804.76 293.09 844.25 293.09 831.39 215.94 804.76 218.69"
    transform="matrix(.26458 0 0 .26458 2.1324 2.701)" />
  <g id="g915" stroke-width=".26458" fill="#3e3e3e">
    <path id="path907"
      d="m179.82 168.7h6.3183l13.244-46.537 5.1109 46.537h7.4042l2.9161-74.604c-1.1129-5.7239-1.0891-12.546-0.48602-19.927 5.2111-3.6482 3.3027-12.308 3.8795-21.01a0.33187 0.33187 0 0 0-0.0754-0.23334l-3.3581-1.7455a0.32835 0.32835 0 0 0-0.57565 0.24053c-0.0854 6.0837 1.5547 13.319-1.0854 18.131-2.8684-9.805-6.6068-18.038-13.884-19.876a0.8061 0.8061 0 0 0-0.41794 0.0082l-1.3551 0.38718a0.80499 0.80499 0 0 0-0.1937 1.4623c6.6578 4.1133 10.961 11 11.234 22.635-5.1803 7.3313-10.225 11.671-19.306 17.008a3.3859 3.3859 0 0 0-1.6482 2.5738z" />
    <path id="path909"
      d="m202.67 46.751 5.342-1.0116 3.178-5.4291a7.2179 7.2179 0 0 0-0.84505-8.4535 7.2179 7.2179 0 0 0-6.4048-2.3381l-6.9233 0.98904a4.5717 4.5717 0 0 0-3.8746 5.2039l4.6633 0.7934z" />
    <path id="path911"
      d="m172.42 176.84h11.129a3.6612 3.6612 0 0 0 3.6228-4.1895l-0.69858-4.7903-5.0511-0.37416-10.038 4.695a2.4446 2.4446 0 0 0-1.3978 2.4461 2.4446 2.4446 0 0 0 2.4336 2.2128z" />
    <path id="path913"
      d="m197.7 176.84h11.129a3.6612 3.6612 0 0 0 3.6228-4.1895l-0.69859-4.7903-5.0511-0.37416-10.038 4.695a2.4446 2.4446 0 0 0-1.3978 2.4461 2.4446 2.4446 0 0 0 2.4336 2.2128z" />
  </g>
  <g id="g923" stroke-width=".26458">
    <path id="path917" fill="#ffb9b9"
      d="m176.55 95.118-4.8145 1.6736a3.4046 3.4046 0 0 0-0.98557 5.893 3.4046 3.4046 0 0 0 3.946 0.18581l4.3883-2.8243 14.984-15.231 2.3222-17.902a13.632 13.632 0 0 0-4.8081-12.24l-4.8864 27.27z" />
    <path id="path919" fill="#eb7260" d="m186.87 76.601h10.692l-0.24302-25.516a12.324 12.324 0 0 0-9.3109 11.187z" />
    <ellipse id="ellipse921" fill="#ffb8b8" ry="1.5875" rx="1.3229" cy="40.93" cx="199.49" />
  </g>
  <polygon class="check1" transform="matrix(0.26458,0,0,0.26458,-82.764716,2.8486942)"
    points="472.26,88.26 422.91,140.35 400.37,111.37 413.48,101.18 424.15,114.9 460.2,76.838 " fill="#ffffff"
    id="polygon879-9" />
  <polygon class="check2" transform="matrix(0.26458,0,0,0.26458,-40.5208,2.6097992)"
    points="472.26,88.26 422.91,140.35 400.37,111.37 413.48,101.18 424.15,114.9 460.2,76.838 " fill="#ffffff"
    id="polygon879-99" />
  <polygon class="check3" id="polygon879" fill="#ffffff"
    points="460.2,76.838 472.26,88.26 422.91,140.35 400.37,111.37 413.48,101.18 424.15,114.9 "
    transform="matrix(0.26458,0,0,0.26458,2.1324,2.701)" />
</svg>