<?xml version="1.0" encoding="UTF-8" standalone="no"?>
<svg
   xmlns:dc="http://purl.org/dc/elements/1.1/"
   xmlns:cc="http://creativecommons.org/ns#"
   xmlns:rdf="http://www.w3.org/1999/02/22-rdf-syntax-ns#"
   xmlns:svg="http://www.w3.org/2000/svg"
   xmlns="http://www.w3.org/2000/svg"
   xmlns:sodipodi="http://sodipodi.sourceforge.net/DTD/sodipodi-0.dtd"
   xmlns:inkscape="http://www.inkscape.org/namespaces/inkscape"
   sodipodi:docname="customize.svg"
   inkscape:version="1.0 (4035a4f, 2020-05-01)"
   id="svg8"
   version="1.1"
   viewBox="0 0 247 178"
   height="178mm"
   width="247mm">
  <defs
     id="defs2" />
  <sodipodi:namedview
     inkscape:window-maximized="1"
     inkscape:window-y="23"
     inkscape:window-x="1440"
     inkscape:window-height="1395"
     inkscape:window-width="2560"
     showgrid="false"
     inkscape:document-rotation="0"
     inkscape:current-layer="layer1"
     inkscape:document-units="mm"
     inkscape:cy="432.58505"
     inkscape:cx="427.53132"
     inkscape:zoom="0.98994949"
     inkscape:pageshadow="2"
     inkscape:pageopacity="0.0"
     borderopacity="1.0"
     bordercolor="#666666"
     pagecolor="#ffffff"
     id="base" />
  <metadata
     id="metadata5">
    <rdf:RDF>
      <cc:Work
         rdf:about="">
        <dc:format>image/svg+xml</dc:format>
        <dc:type
           rdf:resource="http://purl.org/dc/dcmitype/StillImage" />
        <dc:title></dc:title>
      </cc:Work>
    </rdf:RDF>
  </metadata>
  <g
     id="layer1"
     inkscape:groupmode="layer"
     inkscape:label="Ebene 1">
    <polygon
       style="fill:#3e3e3e;fill-opacity:1"
       transform="matrix(0.26458333,0,0,0.26458333,2.1323791,2.7009872)"
       id="polygon10"
       fill="#3f3d56"
       points="921.466,658.974 347.385,658.974 347.385,656.793 921.861,656.793 " />
    <path
       style="stroke-width:0.264583"
       id="path12"
       fill="#e6e6e6"
       d="m 3.3761721,2.7009872 a 1.2452562,1.2452562 0 0 0 -1.243806,1.243806 V 75.587202 a 1.2452562,1.2452562 0 0 0 1.243806,1.2438 H 145.41724 a 1.2452562,1.2452562 0 0 0 1.24379,-1.2438 V 3.9447802 a 1.2452562,1.2452562 0 0 0 -1.24379,-1.243806 z" />
    <path
       style="stroke-width:0.264583"
       id="path14"
       fill="#ffffff"
       d="m 5.3662391,4.6910562 a 1.2452535,1.2452535 0 0 0 -1.243791,1.24379 V 73.597142 a 1.2452562,1.2452562 0 0 0 1.243791,1.2438 H 143.42717 a 1.2452562,1.2452562 0 0 0 1.2438,-1.2438 V 5.9348462 a 1.2452535,1.2452535 0 0 0 -1.2438,-1.24379 z" />
    <path
       style="fill:#3a9ad9;fill-opacity:1;stroke-width:0.264583"
       id="path16"
       fill="#3f3d56"
       d="M 46.784518,48.223779 H 17.431024 a 1.7432655,1.7432655 0 0 1 -1.74131,-1.74131 V 17.128975 a 1.7432628,1.7432628 0 0 1 1.74131,-1.741307 h 29.353494 a 1.7432628,1.7432628 0 0 1 1.741307,1.741307 v 29.353494 a 1.7432655,1.7432655 0 0 1 -1.741307,1.74131 z M 17.431024,15.885185 a 1.2452535,1.2452535 0 0 0 -1.243806,1.24379 v 29.353494 a 1.2452562,1.2452562 0 0 0 1.243806,1.243806 h 29.353494 a 1.2452562,1.2452562 0 0 0 1.24379,-1.243806 V 17.128975 a 1.2452535,1.2452535 0 0 0 -1.24379,-1.24379 z" />
    <path
       style="fill:#657786;fill-opacity:1;stroke-width:0.264583"
       id="path18"
       fill="#e6e6e6"
       d="M 89.073448,48.223779 H 59.719955 a 1.7432655,1.7432655 0 0 1 -1.741308,-1.74131 V 17.128975 a 1.7432628,1.7432628 0 0 1 1.741308,-1.741307 h 29.353493 a 1.7432655,1.7432655 0 0 1 1.74131,1.741307 v 29.353494 a 1.7432681,1.7432681 0 0 1 -1.74131,1.74131 z M 59.719955,15.885185 a 1.2452535,1.2452535 0 0 0 -1.243793,1.24379 v 29.353494 a 1.2452562,1.2452562 0 0 0 1.243793,1.243806 h 29.353493 a 1.2452562,1.2452562 0 0 0 1.243793,-1.243806 V 17.128975 a 1.2452535,1.2452535 0 0 0 -1.243793,-1.24379 z" />
    <path
       style="fill:#657786;fill-opacity:1;stroke-width:0.264583"
       id="path20"
       fill="#e6e6e6"
       d="m 61.958782,18.12401 a 1.2452562,1.2452562 0 0 0 -1.243793,1.243806 v 24.875842 a 1.2452562,1.2452562 0 0 0 1.243793,1.243806 h 24.875842 a 1.2452562,1.2452562 0 0 0 1.243793,-1.243806 V 19.367803 a 1.2452562,1.2452562 0 0 0 -1.243793,-1.243807 z" />
    <path
       style="fill:#3a9ad9;fill-opacity:1;stroke-width:0.264583"
       id="path22"
       fill="#3f3d56"
       d="m 19.794226,18.12401 a 1.2452562,1.2452562 0 0 0 -1.24379,1.243806 v 24.875842 a 1.2452562,1.2452562 0 0 0 1.24379,1.243806 h 24.875832 a 1.2452562,1.2452562 0 0 0 1.24379,-1.243806 V 19.367803 a 1.2452562,1.2452562 0 0 0 -1.24379,-1.243807 z" />
    <path
       style="fill:#e19d29;fill-opacity:1;stroke-width:0.264583"
       id="path24"
       fill="#eb7260"
       d="m 104.12333,18.12401 a 1.2452562,1.2452562 0 0 0 -1.24379,1.243806 v 24.875842 a 1.2452562,1.2452562 0 0 0 1.24379,1.243806 h 24.87585 a 1.2452562,1.2452562 0 0 0 1.2438,-1.243806 V 19.367803 a 1.2452562,1.2452562 0 0 0 -1.2438,-1.243807 z" />
    <path
       style="fill:#e19d29;fill-opacity:1;stroke-width:0.264583"
       id="path26"
       fill="#eb7260"
       d="m 131.36238,48.223779 h -29.35349 a 1.7433396,1.7433396 0 0 1 -1.74131,-1.74131 V 17.128975 a 1.7433396,1.7433396 0 0 1 1.74131,-1.741307 h 29.35349 a 1.7433396,1.7433396 0 0 1 1.7413,1.741307 v 29.353494 a 1.7433396,1.7433396 0 0 1 -1.7413,1.74131 z M 102.00889,15.885185 a 1.2452535,1.2452535 0 0 0 -1.24381,1.24379 v 29.353494 a 1.2452562,1.2452562 0 0 0 1.24381,1.243806 h 29.35349 a 1.2452535,1.2452535 0 0 0 1.24379,-1.243806 V 17.128975 a 1.2452535,1.2452535 0 0 0 -1.24379,-1.24379 z" />
    <circle
       style="fill:#657786;fill-opacity:1;stroke-width:0.264583"
       id="circle28"
       opacity="0.8"
       fill="#e6e6e6"
       r="4.2288938"
       cy="57.676601"
       cx="62.580677" />
    <circle
       style="fill:#657786;fill-opacity:1;stroke-width:0.264583"
       id="circle30"
       opacity="0.4"
       fill="#e6e6e6"
       r="4.2288938"
       cy="57.676601"
       cx="86.461479" />
    <circle
       style="fill:#657786;fill-opacity:1;stroke-width:0.264583"
       id="circle32"
       opacity="0.6"
       fill="#e6e6e6"
       r="4.2288938"
       cy="57.676601"
       cx="74.521072" />
    <circle
       style="fill:#3a9ad9;fill-opacity:1;stroke-width:0.264583"
       id="circle34"
       opacity="0.8"
       fill="#3f3d56"
       r="4.2288938"
       cy="57.676601"
       cx="20.291744" />
    <circle
       style="fill:#3a9ad9;fill-opacity:1;stroke-width:0.264583"
       id="circle36"
       opacity="0.4"
       fill="#3f3d56"
       r="4.2288938"
       cy="57.676601"
       cx="44.172554" />
    <circle
       style="fill:#3a9ad9;fill-opacity:1;stroke-width:0.264583"
       id="circle38"
       opacity="0.6"
       fill="#3f3d56"
       r="4.2288938"
       cy="57.676601"
       cx="32.232147" />
    <circle
       style="fill:#e19d29;fill-opacity:1;stroke-width:0.264583"
       id="circle40"
       opacity="0.8"
       fill="#eb7260"
       r="4.2288938"
       cy="57.676601"
       cx="104.86961" />
    <circle
       style="fill:#e19d29;fill-opacity:1;stroke-width:0.264583"
       id="circle42"
       opacity="0.4"
       fill="#eb7260"
       r="4.2288938"
       cy="57.676601"
       cx="128.75041" />
    <circle
       style="fill:#e19d29;fill-opacity:1;stroke-width:0.264583"
       id="circle44"
       opacity="0.6"
       fill="#eb7260"
       r="4.2288938"
       cy="57.676601"
       cx="116.81002" />
    <polygon
       transform="matrix(0.26458333,0,0,0.26458333,2.1323791,2.7009872)"
       id="polygon46"
       fill="#ffffff"
       points="460.203,76.838 472.26,88.26 422.908,140.352 400.367,111.371 413.475,101.175 424.148,114.897 " />
    <path
       style="fill:#3e3e3e;fill-opacity:1;stroke-width:0.264583"
       id="path48"
       fill="#3f3d56"
       d="m 170.02404,86.609532 a 0.83940384,0.83940384 0 0 0 -1.05075,-0.10342 l -6.41862,4.18064 a 0.84441241,0.84441241 0 0 0 -0.13496,1.305832 l 16.3232,16.252496 a 0.84434097,0.84434097 0 0 0 1.20296,-0.0116 l 5.34934,-5.53653 a 0.84620893,0.84620893 0 0 0 -0.0173,-1.19073 z" />
    <path
       style="stroke-width:0.264583"
       id="path50"
       fill="#ffffff"
       d="m 163.81915,91.133942 0.66425,-0.42352 a 0.63288333,0.63288333 0 0 0 0.9109,0.83098 l 4.29849,-2.95521 a 0.63251026,0.63251026 0 0 0 -0.16723,-1.12457 l 0.34223,-0.2182 a 0.2302801,0.2302801 0 0 1 0.2876,0.0323 l 14.46044,14.210698 a 0.23027481,0.23027481 0 0 1 -0.006,0.32941 l -5.25169,5.11716 a 0.23027746,0.23027746 0 0 1 -0.32053,-0.004 L 163.78038,91.491212 a 0.23027746,0.23027746 0 0 1 0.0388,-0.35727 z" />
    <polygon
       style="fill:#e19d29;fill-opacity:1"
       transform="matrix(0.26458333,0,0,0.26458333,2.1323791,2.7009872)"
       id="polygon52"
       fill="#eb7260"
       points="674.178,361.503 657.412,377.311 617.533,337.91 637.772,324.737 " />
    <path
       style="stroke-width:0.264583"
       id="path54"
       fill="#e6e6e6"
       d="m 165.93146,94.679194 a 0.15375731,0.15375731 0 0 0 0,-0.2171 l -0.92272,-0.9227 a 0.15724981,0.15724981 0 0 0 -0.21712,0 0.15375202,0.15375202 0 0 0 0,0.2171 l 0.92272,0.9227 a 0.15725246,0.15725246 0 0 0 0.21712,0 z" />
    <path
       style="stroke-width:0.264583"
       id="path56"
       fill="#e6e6e6"
       d="m 167.48583,96.016444 -0.92272,-0.92272 a 0.15352777,0.15352777 0 0 0 -0.21712,0.21712 l 0.92272,0.92272 a 0.15352777,0.15352777 0 0 0 0.21712,-0.21712 z" />
    <circle
       style="fill:#e19d29;fill-opacity:1;stroke-width:0.264583"
       id="circle58"
       fill="#eb7260"
       r="1.0362433"
       cy="101.93868"
       cx="180.40627" />
    <path
       style="stroke-width:0.264583"
       id="path60"
       fill="#ffb8b8"
       d="m 210.44018,104.06172 -0.79869,3.8936 a 3.222834,3.222834 0 0 0 4.22972,3.68671 v 0 a 3.222834,3.222834 0 0 0 2.01742,-3.95467 l -1.07426,-3.62565 9.72044,-28.432278 h -8.26237 z" />
    <circle
       style="stroke-width:0.264583"
       id="circle62"
       fill="#ffb8b8"
       r="7.5333381"
       cy="39.906834"
       cx="201.69179" />
    <path
       style="stroke-width:0.264583"
       id="path64"
       fill="#ffb8b8"
       d="m 200.47673,53.272429 9.96345,-1.215054 c -2.28574,-2.865911 -3.14998,-5.85819 -2.43011,-8.991404 l -8.9914,0.972042 z" />
    <path
       style="stroke-width:0.264583"
       id="path66"
       fill="#eb7260"
       d="m 188.08317,95.313324 23.57207,-5.346242 c 5.03843,-3.91849 8.31154,-11.69114 10.83989,-21.08987 1.84258,-6.849491 -1.46795,-14.141587 -7.97448,-16.965739 q -0.23333,-0.101277 -0.47141,-0.194972 l -5.31014,-2.089234 -8.74839,0.729033 -3.12124,0.851246 a 3.5400562,3.5400562 0 0 0 -2.56899,2.887287 c -4.19627,15.397479 -6.96243,29.678519 -6.21731,41.218491 z" />
    <polygon
       transform="matrix(0.26458333,0,0,0.26458333,2.1323791,2.7009872)"
       id="polygon68"
       fill="#eb7260"
       points="804.756,293.086 844.25,293.086 831.391,215.935 804.756,218.69 " />
    <path
       style="fill:#3e3e3e;fill-opacity:1;stroke-width:0.264583"
       id="path70"
       fill="#2f2e41"
       d="m 179.82081,168.70263 h 6.31829 l 13.24409,-46.5366 5.11089,46.5366 h 7.40417 l 2.91614,-74.604356 c -1.11292,-5.723932 -1.08913,-12.545652 -0.48602,-19.926902 5.21106,-3.64818 3.30273,-12.308431 3.8795,-21.009539 a 0.33186687,0.33186687 0 0 0 -0.0754,-0.233344 l -3.35812,-1.745456 a 0.32834791,0.32834791 0 0 0 -0.57565,0.24053 c -0.0854,6.083715 1.55471,13.318823 -1.08535,18.130589 -2.86835,-9.805012 -6.6068,-18.037673 -13.88434,-19.875794 a 0.80609545,0.80609545 0 0 0 -0.41794,0.0082 l -1.35511,0.387176 a 0.80498949,0.80498949 0 0 0 -0.1937,1.462299 c 6.65779,4.11326 10.96104,11.000277 11.23388,22.635299 -5.18027,7.33132 -10.22506,11.67099 -19.3065,17.00809 a 3.3859496,3.3859496 0 0 0 -1.64817,2.573822 z" />
    <path
       style="fill:#3e3e3e;fill-opacity:1;stroke-width:0.264583"
       id="path72"
       fill="#2f2e41"
       d="m 202.66811,46.750714 5.34196,-1.011621 3.17802,-5.429115 a 7.2178782,7.2178782 0 0 0 -0.84505,-8.45354 v 0 a 7.2178703,7.2178703 0 0 0 -6.40485,-2.338123 l -6.92331,0.989044 a 4.5716877,4.5716877 0 0 0 -3.87458,5.203909 l 4.66332,0.793404 z" />
    <path
       style="fill:#3e3e3e;fill-opacity:1;stroke-width:0.264583"
       id="path74"
       fill="#2f2e41"
       d="m 172.42351,176.84349 h 11.1288 a 3.6611665,3.6611665 0 0 0 3.62284,-4.18949 l -0.69858,-4.79031 -5.05114,-0.37416 -10.03766,4.69503 a 2.4445912,2.4445912 0 0 0 -1.39784,2.44611 v 0 a 2.4445912,2.4445912 0 0 0 2.43358,2.21282 z" />
    <path
       style="fill:#3e3e3e;fill-opacity:1;stroke-width:0.264583"
       id="path76"
       fill="#2f2e41"
       d="m 197.69664,176.84349 h 11.1288 a 3.6611639,3.6611639 0 0 0 3.62285,-4.18949 l -0.69859,-4.79031 -5.05113,-0.37416 -10.03766,4.69503 a 2.4445912,2.4445912 0 0 0 -1.39785,2.44611 v 0 a 2.4445912,2.4445912 0 0 0 2.43358,2.21282 z" />
    <path
       style="stroke-width:0.264583"
       id="path78"
       fill="#ffb9b9"
       d="m 176.54525,95.118404 -4.81454,1.67358 a 3.4046292,3.4046292 0 0 0 -0.98557,5.892986 v 0 a 3.4046292,3.4046292 0 0 0 3.94604,0.18581 l 4.38826,-2.82429 14.98389,-15.230618 2.32215,-17.901955 a 13.631952,13.631952 0 0 0 -4.80813,-12.23958 v 0 l -4.88637,27.269985 z" />
    <path
       style="stroke-width:0.264583"
       id="path80"
       fill="#eb7260"
       d="M 186.86812,76.601482 H 197.5606 L 197.31758,51.08533 v 0 a 12.323868,12.323868 0 0 0 -9.31089,11.187165 z" />
    <ellipse
       style="stroke-width:0.264583"
       id="ellipse82"
       fill="#ffb8b8"
       ry="1.5875"
       rx="1.3229166"
       cy="40.929882"
       cx="199.49312" />
  </g>
</svg>
