<?xml version="1.0" encoding="UTF-8"?>
<svg width="528.12" height="327.99" data-name="Layer 1" version="1.1" viewBox="0 0 528.12 327.99" xmlns="http://www.w3.org/2000/svg" xmlns:cc="http://creativecommons.org/ns#" xmlns:dc="http://purl.org/dc/elements/1.1/" xmlns:rdf="http://www.w3.org/1999/02/22-rdf-syntax-ns#" xmlns:xlink="http://www.w3.org/1999/xlink">
 <metadata>
  <rdf:RDF>
   <cc:Work rdf:about="">
    <dc:format>image/svg+xml</dc:format>
    <dc:type rdf:resource="http://purl.org/dc/dcmitype/StillImage"/>
    <dc:title/>
   </cc:Work>
  </rdf:RDF>
 </metadata>
 <g>
  <rect width="528.12" height="327.99" rx="23.26" ry="23.26" fill="#2d2c2c"/>
  <rect x="11.11" y="47.81" width="504.77" height="267.95" fill="#444"/>
  <rect x="11.11" y="47.81" width="504.77" height="25.453" fill="#eb7260" stroke-width="3.5422"/>
 </g>
 <g fill="#fff">
  <circle cx="263.5" cy="24.46" r="4.45"/>
  <g>
   <rect x="82.813" y="57.66" width="39.413" height="5.2482" stroke-width=".52825"/>
   <rect x="23.343" y="55.676" width="39.413" height="9.3814" stroke-width=".70626"/>
   <rect x="142.28" y="57.66" width="39.413" height="5.2482" stroke-width=".52825"/>
   <rect x="201.75" y="57.66" width="39.413" height="5.2482" stroke-width=".52825"/>
  </g>
 </g>
 <g fill="#657786">
  <rect x="207.16" y="104.22" width="103.51" height="7.9146" stroke-width="1.0513"/>
  <rect x="350.79" y="104.22" width="103.51" height="7.9146" stroke-width="1.0513"/>
  <rect x="207.16" y="132.13" width="76.32" height="5.2482" opacity=".5" stroke-width=".73509"/>
  <rect x="207.16" y="147.38" width="60.071" height="5.2482" opacity=".5" stroke-width=".65216"/>
  <rect x="207.16" y="162.63" width="86.599" height="5.2482" opacity=".5" stroke-width=".78303"/>
  <rect x="207.16" y="177.88" width="79.304" height="5.2482" opacity=".5" stroke-width=".74932"/>
  <rect x="207.16" y="193.12" width="98.205" height="5.2482" opacity=".5" stroke-width=".83385"/>
  <rect x="207.16" y="208.37" width="89.915" height="5.2482" opacity=".5" stroke-width=".79788"/>
  <rect x="350.79" y="132.13" width="76.32" height="5.2482" opacity=".5" stroke-width=".73509"/>
  <rect x="350.79" y="147.38" width="60.071" height="5.2482" opacity=".5" stroke-width=".65216"/>
  <rect x="350.79" y="162.63" width="86.599" height="5.2482" opacity=".5" stroke-width=".78303"/>
  <rect x="350.79" y="177.88" width="79.304" height="5.2482" opacity=".5" stroke-width=".74932"/>
  <rect x="350.79" y="193.12" width="98.205" height="5.2482" opacity=".5" stroke-width=".83385"/>
  <rect x="350.79" y="208.37" width="89.915" height="5.2482" opacity=".5" stroke-width=".79788"/>
  <rect x="350.79" y="223.62" width="70.019" height="5.2482" opacity=".5" stroke-width=".70409"/>
  <rect x="350.79" y="238.87" width="57.75" height="5.2482" opacity=".5" stroke-width=".63943"/>
 </g>
 <rect x="470.43" y="55.807" width="33.973" height="9.3814" fill="#fff" stroke-width=".65571"/>
 <rect x="450.14" y="55.807" width="10.292" height="9.3814" fill="#fff" stroke-width=".36091"/>
 <g fill="#657786">
  <rect x="63.65" y="104.22" width="103.51" height="7.9146" stroke-width="1.0513"/>
  <rect x="63.65" y="132.13" width="76.32" height="5.2482" opacity=".5" stroke-width=".73509"/>
  <rect x="63.65" y="147.38" width="60.071" height="5.2482" opacity=".5" stroke-width=".65216"/>
  <rect x="63.65" y="162.63" width="86.599" height="5.2482" opacity=".5" stroke-width=".78303"/>
  <rect x="63.65" y="177.88" width="79.304" height="5.2482" opacity=".5" stroke-width=".74932"/>
  <rect x="63.65" y="193.12" width="98.205" height="5.2482" opacity=".5" stroke-width=".83385"/>
  <rect x="63.65" y="208.37" width="89.915" height="5.2482" opacity=".5" stroke-width=".79788"/>
  <rect x="63.65" y="223.62" width="70.019" height="5.2482" opacity=".5" stroke-width=".70409"/>
  <rect x="63.65" y="238.87" width="78.34" height="5.2482" opacity=".5" stroke-width=".74475"/>
  <rect x="63.65" y="254.12" width="92.066" height="5.2482" opacity=".5" stroke-width=".80737"/>
 </g>
</svg>
