<svg id="Layer_1" data-name="Layer 1" xmlns="http://www.w3.org/2000/svg" viewBox="0 0 100 100"><defs><style>.cls-1{fill:#e8f4fa;}.cls-2{fill:#fff;}.cls-23,.cls-3,.cls-4{fill:none;}.cls-12,.cls-16,.cls-17,.cls-18,.cls-19,.cls-20,.cls-22,.cls-23,.cls-24,.cls-25,.cls-26,.cls-27,.cls-28,.cls-3,.cls-30,.cls-31,.cls-32,.cls-7{stroke:#45413c;stroke-linejoin:round;}.cls-12,.cls-16,.cls-17,.cls-18,.cls-19,.cls-20,.cls-22,.cls-24,.cls-25,.cls-26,.cls-27,.cls-28,.cls-3,.cls-30,.cls-31,.cls-32,.cls-4,.cls-7{stroke-linecap:round;}.cls-4{stroke:#e0e0e0;stroke-miterlimit:10;}.cls-5{fill:#656769;}.cls-6{fill:#525252;}.cls-7,.cls-8{fill:#915e3a;}.cls-22,.cls-9{fill:#bf8256;}.cls-10,.cls-19{fill:#ffcebf;}.cls-11{fill:#ffb59e;}.cls-12,.cls-29{fill:#87898c;}.cls-13,.cls-24{fill:#dea47a;}.cls-14{fill:#020202;opacity:0.15;}.cls-15,.cls-20{fill:#f0c2a1;}.cls-16{fill:#00b8f0;}.cls-17{fill:#a86c4d;}.cls-18{fill:#ffe500;}.cls-21{fill:#45413c;}.cls-25{fill:#ff8a14;}.cls-26{fill:#8ca4b8;}.cls-27{fill:#ff6242;}.cls-28{fill:#adc4d9;}.cls-30{fill:#debb7e;}.cls-31{fill:#627b8c;}.cls-32{fill:#f7e5c6;}</style></defs><title>delivery-truck</title><g id="_Group_" data-name="&lt;Group&gt;"><g id="New_Symbol_25" data-name="New Symbol 25"><path class="cls-1" d="M90,50A40,40,0,1,0,13.56,66.5H86.44A39.85,39.85,0,0,0,90,50Z"/><path class="cls-2" d="M13.56,66.5a40,40,0,0,0,72.88,0Z"/><line class="cls-3" x1="11" y1="66.5" x2="89" y2="66.5"/><line class="cls-3" x1="6.5" y1="66.5" x2="9" y2="66.5"/><line class="cls-3" x1="91" y1="66.5" x2="93.5" y2="66.5"/><line class="cls-4" x1="64" y1="77" x2="71.16" y2="77"/><line class="cls-4" x1="59.83" y1="77" x2="61.61" y2="77"/><line class="cls-4" x1="56.84" y1="77" x2="57.44" y2="77"/><line class="cls-4" x1="34.16" y1="73.5" x2="41.31" y2="73.5"/><line class="cls-4" x1="29.98" y1="73.5" x2="31.77" y2="73.5"/><line class="cls-4" x1="27" y1="73.5" x2="27.6" y2="73.5"/><line class="cls-4" x1="45.34" y1="84.5" x2="52.5" y2="84.5"/><line class="cls-4" x1="41.17" y1="84.5" x2="42.96" y2="84.5"/><line class="cls-4" x1="38.19" y1="84.5" x2="38.78" y2="84.5"/></g></g><path class="cls-5" d="M48.79,61h6.62a0,0,0,0,1,0,0v4.51a1,1,0,0,1-1,1H49.8a1,1,0,0,1-1-1V61A0,0,0,0,1,48.79,61Z"/><rect class="cls-6" x="48.79" y="60.98" width="6.62" height="2.45"/><path class="cls-7" d="M47.6,15.62H80.06A2.42,2.42,0,0,1,82.48,18V57.92a0,0,0,0,1,0,0H45.18a0,0,0,0,1,0,0V18A2.42,2.42,0,0,1,47.6,15.62Z"/><rect class="cls-7" x="45.18" y="21.14" width="37.3" height="30.65"/><path class="cls-8" d="M82.48,18.07a2.42,2.42,0,0,0-2.4-2.45H47.58a2.43,2.43,0,0,0-2.4,2.45v3.07h37.3Z"/><path class="cls-9" d="M82.48,18.07a2.42,2.42,0,0,0-2.4-2.45H47.58a2.43,2.43,0,0,0-2.4,2.45v.62h37.3Z"/><rect class="cls-10" x="32.84" y="71.46" width="4.15" height="8.77" transform="translate(69.83 151.69) rotate(180)"/><rect class="cls-11" x="32.84" y="71.46" width="4.15" height="3.98" transform="translate(69.83 146.91) rotate(180)"/><rect class="cls-3" x="32.84" y="71.46" width="4.15" height="8.77" transform="translate(69.83 151.69) rotate(180)"/><path class="cls-12" d="M39.24,80a1.15,1.15,0,0,1,0,1.2,1.14,1.14,0,0,1-1,.61H33.55a1.13,1.13,0,0,1-1-.56,1.18,1.18,0,0,1,0-1.15C33.78,77.61,37.81,77.75,39.24,80Z"/><rect class="cls-10" x="24.54" y="71.46" width="4.15" height="8.77"/><rect class="cls-11" x="24.54" y="71.46" width="4.15" height="3.98"/><rect class="cls-3" x="24.54" y="71.46" width="4.15" height="8.77"/><path class="cls-13" d="M42.53,50.07a11.77,11.77,0,1,0-23.53,0v.7h4.15v9.17H38.37V50.77h4.16Z"/><path class="cls-14" d="M42.29,82.38c0,1-5.15,1.75-11.5,1.75s-11.5-.78-11.5-1.75,5.15-1.76,11.5-1.76S42.29,81.41,42.29,82.38Z"/><path class="cls-13" d="M28,72.63a1.17,1.17,0,0,0,1.15-1.14l.17-5.21a1.45,1.45,0,0,1,2.89,0l.17,5.21a1.16,1.16,0,0,0,1.15,1.14h4.33a1.16,1.16,0,0,0,.83-.37A1.18,1.18,0,0,0,39,71.4l-.64-12.87H23.15L22.52,71.4a1.14,1.14,0,0,0,.32.86,1.13,1.13,0,0,0,.83.37Z"/><polygon class="cls-9" points="22.91 63.46 38.62 63.46 38.48 60.64 23.05 60.64 22.91 63.46"/><path class="cls-3" d="M28,72.63a1.17,1.17,0,0,0,1.15-1.14l.17-5.21a1.45,1.45,0,0,1,2.89,0l.17,5.21a1.16,1.16,0,0,0,1.15,1.14h4.33a1.16,1.16,0,0,0,.83-.37A1.18,1.18,0,0,0,39,71.4l-.64-12.87H23.15L22.52,71.4a1.14,1.14,0,0,0,.32.86,1.13,1.13,0,0,0,.83.37Z"/><path class="cls-15" d="M30.76,38.09A11.87,11.87,0,0,0,19,50.07v.7h.22a11.72,11.72,0,0,1,23.09,0h.22v-.7A11.88,11.88,0,0,0,30.76,38.09Z"/><path class="cls-3" d="M42.53,50.07a11.77,11.77,0,1,0-23.53,0v.7h4.15v9.17H38.37V50.77h4.16Z"/><line class="cls-16" x1="38.37" y1="50.77" x2="38.37" y2="46.55"/><line class="cls-16" x1="23.15" y1="50.77" x2="23.15" y2="46.55"/><path class="cls-10" d="M23.15,63.46a2.08,2.08,0,1,1-4.15,0V50.77h4.15Z"/><rect class="cls-17" x="23.15" y="57.82" width="15.22" height="2.82"/><rect class="cls-18" x="28.69" y="57.82" width="4.15" height="2.82"/><path class="cls-12" d="M22.28,80a1.2,1.2,0,0,0-.05,1.2,1.14,1.14,0,0,0,1,.61H28a1.14,1.14,0,0,0,1-.56,1.2,1.2,0,0,0,0-1.15C27.74,77.61,23.71,77.75,22.28,80Z"/><rect class="cls-11" x="19" y="50.77" width="4.15" height="2.82"/><path class="cls-3" d="M23.15,63.46a2.08,2.08,0,1,1-4.15,0V50.77h4.15Z"/><path class="cls-10" d="M42.53,63.46a2.08,2.08,0,1,1-4.16,0V50.77h4.16Z"/><rect class="cls-11" x="38.37" y="50.77" width="4.15" height="2.82"/><path class="cls-3" d="M42.53,63.46a2.08,2.08,0,1,1-4.16,0V50.77h4.16Z"/><path class="cls-19" d="M30.76,38.09a11.46,11.46,0,0,0-3.73.63l3.73,6.42,3.74-6.42A11.47,11.47,0,0,0,30.76,38.09Z"/><path class="cls-20" d="M24.54,42.32a11.51,11.51,0,0,1,6.22,2.82L27,38.72a11.47,11.47,0,0,0-1.53.64Z"/><path class="cls-20" d="M37,42.32a11.54,11.54,0,0,0-6.23,2.82l3.74-6.42a11.92,11.92,0,0,1,1.52.64Z"/><line class="cls-19" x1="30.76" y1="45.14" x2="30.76" y2="48.66"/><path class="cls-19" d="M30.77,35.74a6.91,6.91,0,0,0,6.57-4.93h0c2.18,0,2.32-3.53.34-3.53V25.87a6.92,6.92,0,1,0-13.84,0v1.41c-2,0-1.84,3.53.35,3.53h0A6.92,6.92,0,0,0,30.77,35.74Z"/><path class="cls-21" d="M28.52,26.58a.88.88,0,1,0,.87.88.86.86,0,0,0-.87-.88Z"/><path class="cls-21" d="M33,26.58a.88.88,0,1,0,.86.88.87.87,0,0,0-.86-.88Z"/><path class="cls-11" d="M27.31,29.4a.69.69,0,1,1-1.38,0,.69.69,0,1,1,1.38,0Z"/><path class="cls-11" d="M35.61,29.4a.69.69,0,1,1-1.38,0,.69.69,0,1,1,1.38,0Z"/><path class="cls-3" d="M29,31.58a3.08,3.08,0,0,0,3.46,0"/><path class="cls-22" d="M26.18,17.42h9.17a3,3,0,0,1,3,3v3.32a0,0,0,0,1,0,0H23.15a0,0,0,0,1,0,0V20.44A3,3,0,0,1,26.18,17.42Z"/><path class="cls-23" d="M30.76,17.42s-4.15,2.11-4.15,5.63"/><path class="cls-23" d="M30.76,17.42s4.15,2.11,4.15,5.63"/><path class="cls-24" d="M38.7,24.72a1.15,1.15,0,0,1-.32,1.06,1.12,1.12,0,0,1-1,.32,37.77,37.77,0,0,0-13.16,0,1.13,1.13,0,0,1-1-.32,1.2,1.2,0,0,1-.32-1.06l.33-1.67c6.1-1.88,9.14-1.87,15.22,0Z"/><polygon class="cls-25" points="36.3 49.37 34.57 50.77 32.84 49.37 32.84 46.55 36.3 46.55 36.3 49.37"/><path class="cls-26" d="M45.18,57.92h37.3a0,0,0,0,1,0,0v1a2,2,0,0,1-2,2H47.2a2,2,0,0,1-2-2v-1a0,0,0,0,1,0,0Z"/><path class="cls-3" d="M48.79,61h6.62a0,0,0,0,1,0,0v4.51a1,1,0,0,1-1,1H49.8a1,1,0,0,1-1-1V61A0,0,0,0,1,48.79,61Z"/><path class="cls-5" d="M72.26,61h6.62a0,0,0,0,1,0,0v4.51a1,1,0,0,1-1,1h-4.6a1,1,0,0,1-1-1V61A0,0,0,0,1,72.26,61Z"/><rect class="cls-6" x="72.26" y="60.98" width="6.62" height="2.45"/><path class="cls-3" d="M72.26,61h6.62a0,0,0,0,1,0,0v4.51a1,1,0,0,1-1,1h-4.6a1,1,0,0,1-1-1V61A0,0,0,0,1,72.26,61Z"/><path class="cls-27" d="M79.48,54.85a1.21,1.21,0,1,1-1.21-1.22A1.22,1.22,0,0,1,79.48,54.85Z"/><path class="cls-25" d="M74.66,54.85a1.2,1.2,0,1,1-1.2-1.22A1.22,1.22,0,0,1,74.66,54.85Z"/><path class="cls-27" d="M48.19,54.85a1.21,1.21,0,1,0,1.2-1.22A1.22,1.22,0,0,0,48.19,54.85Z"/><path class="cls-25" d="M53,54.85a1.21,1.21,0,1,0,1.21-1.22A1.22,1.22,0,0,0,53,54.85Z"/><path class="cls-28" d="M74.06,21.14H86.29a1,1,0,0,1,1,1V50.78a1,1,0,0,1-1,1H74.06a0,0,0,0,1,0,0V21.14A0,0,0,0,1,74.06,21.14Z"/><rect class="cls-26" x="76.47" y="37.69" width="8.42" height="11.65" rx="1.01" ry="1.01"/><rect class="cls-26" x="76.47" y="23.59" width="8.42" height="11.65" rx="1.01" ry="1.01"/><rect class="cls-29" x="60.22" y="21.14" width="13.84" height="30.65"/><rect class="cls-5" x="60.22" y="21.14" width="13.84" height="5.59"/><rect class="cls-3" x="60.22" y="21.14" width="13.84" height="30.65"/><path class="cls-30" d="M65.44,43.82h8.62a0,0,0,0,1,0,0v8a0,0,0,0,1,0,0H64.43a0,0,0,0,1,0,0v-7A1,1,0,0,1,65.44,43.82Z"/><path class="cls-30" d="M69.05,37.69h5a0,0,0,0,1,0,0v6.13a0,0,0,0,1,0,0H68a0,0,0,0,1,0,0V38.7A1,1,0,0,1,69.05,37.69Z"/><path class="cls-31" d="M81.28,37.69h2.6a1,1,0,0,1,1,1v1.83a0,0,0,0,1,0,0h-2.6a1,1,0,0,1-1-1V37.69A0,0,0,0,1,81.28,37.69Z"/><path class="cls-18" d="M57.21,30.34a16.84,16.84,0,0,0-9,0v3.23a33.52,33.52,0,0,1,9-1.93Z"/><path class="cls-22" d="M48.19,35.82a2.44,2.44,0,0,0,1,2l3.2,2.33,3.68-2.34a2.46,2.46,0,0,0,1.13-2.08V31.64a33.52,33.52,0,0,0-9,1.93Z"/><path class="cls-32" d="M68,43.82h3a0,0,0,0,1,0,0v4.4a.5.5,0,0,1-.5.5h-2a.5.5,0,0,1-.5-.5v-4.4A0,0,0,0,1,68,43.82Z"/><path class="cls-27" d="M52.4,18.38a.91.91,0,0,1-.9.92H49.09a.92.92,0,0,1,0-1.84H51.5A.91.91,0,0,1,52.4,18.38Z"/><path class="cls-27" d="M80.08,18.38a.91.91,0,0,1-.9.92H76.77a.92.92,0,0,1,0-1.84h2.41A.92.92,0,0,1,80.08,18.38Z"/><path class="cls-3" d="M82.48,18.07a2.42,2.42,0,0,0-2.4-2.45H47.58a2.43,2.43,0,0,0-2.4,2.45v3.07h37.3Z"/></svg>