<?xml version="1.0" encoding="UTF-8"?>
<svg id="b7b1ce3f-9371-481d-b4de-9356facff7dd" width="638.98" height="778.64" data-name="Layer 1" version="1.1" viewBox="0 0 638.98 778.64" xmlns="http://www.w3.org/2000/svg" xmlns:cc="http://creativecommons.org/ns#" xmlns:dc="http://purl.org/dc/elements/1.1/" xmlns:rdf="http://www.w3.org/1999/02/22-rdf-syntax-ns#">
 <metadata>
  <rdf:RDF>
   <cc:Work rdf:about="">
    <dc:format>image/svg+xml</dc:format>
    <dc:type rdf:resource="http://purl.org/dc/dcmitype/StillImage"/>
    <dc:title>access_denied</dc:title>
   </cc:Work>
  </rdf:RDF>
 </metadata>
 <title>access_denied</title>
 <path transform="translate(-280.51 -60.678)" d="m580.68 660.68-4.8e-4 -2c3.9766-1e-3 8.0132-0.083 11.999-0.24218l0.08008 1.998c-4.0122 0.16118-8.0757 0.24325-12.079 0.24418zm-12.075-0.23144c-3.998-0.15625-8.0547-0.39551-12.057-0.71094l0.15723-1.9941c3.9761 0.31445 8.0058 0.55176 11.978 0.707zm36.21-0.73731-0.15918-1.9941c3.9688-0.31738 7.9854-0.7207 11.938-1.1982l0.24023 1.9863c-3.979 0.48051-8.0225 0.8858-12.019 1.2061zm-60.287-1.166c-3.9878-0.47754-8.0122-1.041-11.962-1.6748l0.31738-1.9746c3.9233 0.62989 7.9214 1.1895 11.882 1.6631zm84.265-1.7285-0.31934-1.9746c3.9224-0.63379 7.8936-1.3594 11.803-2.1543l0.39844 1.959c-3.9355 0.80177-7.9336 1.5313-11.882 2.1699zm-108.11-2.1025c-3.936-0.79687-7.9018-1.6846-11.789-2.6357l0.47558-1.9434c3.8608 0.94629 7.8003 1.8272 11.709 2.6182zm131.78-2.7168-0.47851-1.9414c3.8726-0.95313 7.772-1.9971 11.59-3.1035l0.55664 1.9219c-3.8447 1.1133-7.7705 2.1641-11.668 3.1231zm-155.24-3.0303c-3.8564-1.1133-7.7378-2.3184-11.536-3.582l0.63184-1.8984c3.773 1.2559 7.6284 2.4531 11.459 3.5586zm178.44-3.6894-0.63379-1.8965c3.7754-1.2617 7.5772-2.6182 11.301-4.0332l0.71094 1.8691c-3.749 1.4249-7.5772 2.791-11.378 4.0606zm-201.39-3.9522c-3.752-1.4219-7.5312-2.9414-11.233-4.5186l0.7837-1.8398c3.6772 1.5664 7.4316 3.0762 11.159 4.4873zm223.94-4.6123-0.78515-1.8398c3.6562-1.5615 7.3272-3.2168 10.91-4.9209l0.85938 1.8066c-3.6074 1.7149-7.3037 3.3819-10.984 4.9541zm-246.21-4.875c-3.6328-1.7246-7.2749-3.5449-10.825-5.4111l0.93067-1.7695c3.5259 1.8525 7.1431 3.6611 10.751 5.374zm267.98-5.4746-0.93164-1.7695c3.5225-1.8535 7.0508-3.8018 10.486-5.7891l1.002 1.7305c-3.459 2.001-7.0107 3.962-10.557 5.8282zm-289.4-5.7793c-3.4854-2.0146-6.9663-4.1221-10.347-6.2637l1.0703-1.6895c3.3574 2.127 6.8154 4.2207 10.277 6.2227zm310.27-6.2988-1.0703-1.6894c3.3525-2.124 6.7148-4.3496 9.9932-6.6162l1.1367 1.6445c-3.2998 2.2823-6.6846 4.5235-10.06 6.6612zm-330.7-6.6377c-3.3071-2.2852-6.606-4.6641-9.8052-7.0713l1.2022-1.5977c3.1782 2.3906 6.4551 4.7539 9.7398 7.0244zm350.55-7.084-1.2031-1.5976c3.1709-2.3848 6.3457-4.874 9.4365-7.3994l1.2656 1.5488c-3.1114 2.542-6.3076 5.0479-9.499 7.4483zm-369.86-7.4463c-3.105-2.5371-6.2012-5.1719-9.2026-7.832l1.3262-1.4961c2.9819 2.6416 6.0576 5.2598 9.1421 7.7793zm388.56-7.8272-1.3262-1.4961c2.9795-2.6406 5.9463-5.3779 8.8174-8.1348l1.3848 1.4434c-2.8897 2.7745-5.876 5.5293-8.876 8.1875zm-406.64-8.1963c-2.8848-2.7715-5.7593-5.6445-8.543-8.5391l1.4414-1.3867c2.7656 2.876 5.6211 5.7305 8.4873 8.4824zm424.06-8.5312-1.4414-1.3867c2.7568-2.8672 5.4961-5.833 8.1426-8.8164l1.4961 1.3281c-2.6641 3.002-5.4219 5.9883-8.1973 8.875zm-440.8-8.8788c-2.6665-3.0059-5.3008-6.0986-7.8306-9.1924l1.5488-1.2656c2.5122 3.0732 5.1294 6.1455 7.7778 9.1299zm456.83-9.1943-1.5488-1.2656c2.5274-3.0898 5.0215-6.2676 7.4141-9.4443l1.5977 1.2031c-2.4082 3.1982-4.9199 6.3964-7.4629 9.5068zm-472.12-9.4922c-2.4102-3.2002-4.7876-6.4912-7.0659-9.7832l1.6445-1.1387c2.2632 3.2705 4.6245 6.54 7.019 9.7188zm486.66-9.8165-1.6445-1.1367c2.2715-3.2852 4.5039-6.6543 6.6338-10.014l1.6894 1.0703c-2.1446 3.3819-4.3916 6.7735-6.6787 10.08zm-500.39-10.023c-2.1431-3.3789-4.2476-6.8486-6.2554-10.313l1.7305-1.002c1.9941 3.4414 4.085 6.8877 6.2134 10.244zm513.34-10.399-1.7305-1.002c2.002-3.46 3.956-7 5.8086-10.52l1.7695 0.93164c-1.8642 3.544-3.832 7.1075-5.8476 10.591zm-525.43-10.47c-1.8633-3.5381-3.6807-7.1641-5.4014-10.777l1.8057-0.85938c1.7095 3.5889 3.5146 7.1904 5.3652 10.705zm536.69-10.942-1.8066-0.85938c1.7119-3.6016 3.375-7.2891 4.9414-10.961l1.8398 0.78515c-1.5772 3.6963-3.251 7.4092-4.9746 11.035zm-547.05-10.815c-1.5752-3.6836-3.0928-7.4414-4.5112-11.17l1.8691-0.71094c1.4092 3.7022 2.9165 7.4356 4.481 11.094zm556.55-11.452-1.8701-0.709c1.418-3.7412 2.7773-7.5547 4.0381-11.333l1.8965 0.63281c-1.2686 3.8047-2.6367 7.6426-4.0644 11.409zm-565.13-11.093c-1.2734-3.8018-2.4854-7.6816-3.6021-11.53l1.9209-0.55664c1.1094 3.8223 2.313 7.6758 3.5776 11.452zm572.78-11.853-1.9219-0.55469c1.1035-3.8164 2.1455-7.7158 3.0976-11.592l1.9414 0.47657c-0.95801 3.9023-2.0068 7.8291-3.1172 11.67zm-579.52-11.345c-0.96094-3.8945-1.854-7.8584-2.6558-11.783l1.96-0.40039c0.7959 3.8984 1.6831 7.8369 2.6372 11.705zm585.28-12.11-1.9609-0.39844c0.791-3.8955 1.5137-7.8672 2.1484-11.804l1.9746 0.31836c-0.63867 3.9629-1.3662 7.9609-2.1621 11.884zm-590.11-11.555c-0.64111-3.9482-1.2114-7.9717-1.6948-11.959l1.9854-0.24024c0.48047 3.9609 1.0469 7.957 1.6841 11.879zm593.95-12.293-1.9863-0.23828c0.47559-3.959 0.87695-7.9756 1.1914-11.938l1.9941 0.15821c-0.31738 3.9893-0.72071 8.0328-1.1992 12.018zm-596.86-11.683c-0.32276-3.9946-0.56885-8.0513-0.73145-12.058l1.998-0.08106c0.16162 3.9795 0.40625 8.0093 0.72656 11.978zm598.78-12.391-1.998-0.0791c0.15625-3.9854 0.23633-8.0215 0.23633-11.997l-1e-3 -0.6626h2l1e-3 0.6582c0 4.0054-0.08008 8.0679-0.23828 12.08zm-597.76-11.744h-2l4.9e-4 -0.33594c0-3.9014 0.07568-7.8525 0.22559-11.739l1.998 0.07714c-0.14844 3.8608-0.22363 7.7856-0.22363 11.666zm595.74-12.988c-0.165-3.9712-0.41309-8.001-0.73926-11.977l1.9941-0.16309c0.32715 4.0024 0.57715 8.0586 0.74317 12.057zm-594.81-10.988-1.9942-0.15625c0.31446-4.0049 0.71387-8.0488 1.1865-12.021l1.9863 0.23633c-0.46973 3.9453-0.86621 7.9629-1.1787 11.94zm592.86-12.925c-0.48243-3.9443-1.0527-7.9404-1.6973-11.877l1.9746-0.32275c0.64746 3.9629 1.2227 7.9858 1.707 11.958zm-590.02-10.898-1.9746-0.3164c0.63379-3.96 1.3569-7.9595 2.1504-11.886l1.96 0.39551c-0.78768 3.9008-1.506 7.873-2.1358 11.807zm586.15-12.779c-0.80274-3.9082-1.6943-7.8447-2.6504-11.702l1.9414-0.48145c0.9629 3.8828 1.8604 7.8467 2.668 11.781zm-581.4-10.739-1.9429-0.47461c0.95117-3.8926 1.9961-7.8203 3.1055-11.675l1.9219 0.55322c-1.102 3.8286-2.1396 7.73-3.0845 11.596zm575.63-12.548c-1.1133-3.8198-2.3203-7.6719-3.5898-11.449l1.8965-0.63671c1.2773 3.8022 2.4932 7.6802 3.6133 11.526zm-568.99-10.509-1.898-0.63086c1.2656-3.8081 2.6289-7.6484 4.0522-11.414l1.8711 0.707c-1.414 3.7408-2.7685 7.5552-4.0253 11.338zm561.35-12.234c-1.4209-3.7202-2.9326-7.4512-4.4932-11.09l1.8379-0.78808c1.5713 3.6631 3.0938 7.4189 4.5244 11.164zm-552.84-10.266-1.8408-0.7832c1.5718-3.6948 3.2417-7.4097 4.9629-11.04l1.8071 0.85645c-1.71 3.6064-3.3682 7.2963-4.9292 10.967zm543.41-11.728c-1.7119-3.585-3.5205-7.1846-5.376-10.699l1.7676-0.93408c1.8692 3.5381 3.6904 7.1616 5.4131 10.771zm-533.11-9.9946-1.7715-0.92872c1.8643-3.5532 3.8281-7.1186 5.8364-10.598l1.7324 1c-1.9951 3.4555-3.9458 6.9975-5.7974 10.526zm521.93-11.181c-2-3.4429-4.0938-6.8872-6.2246-10.238l1.6875-1.0732c2.1455 3.3735 4.2529 6.8413 6.2666 10.307zm-509.91-9.6265-1.6904-1.0693c2.1455-3.3921 4.3892-6.7861 6.668-10.087l1.6455 1.1362c-2.2637 3.2793-4.4917 6.6504-6.6231 10.021zm497.06-10.595c-2.2686-3.269-4.6338-6.5366-7.0293-9.7104l1.5957-1.2051c2.4121 3.1953 4.793 6.4844 7.0762 9.7759zm-483.41-9.1699-1.5986-1.2012c2.4102-3.208 4.9175-6.4092 7.4522-9.5156l1.5498 1.2646c-2.5181 3.0854-5.0088 6.2656-7.4033 9.4521zm468.97-9.9644c-2.5225-3.0776-5.1436-6.1465-7.7881-9.1211l1.4941-1.3291c2.6631 2.9946 5.3008 6.084 7.8408 9.1826zm-453.79-8.6343-1.4971-1.3252c2.6553-3 5.4097-5.9893 8.187-8.8848l1.4434 1.3848c-2.7588 2.876-5.4951 5.8457-8.1333 8.8252zm437.85-9.292c-2.7676-2.8716-5.626-5.7222-8.4971-8.4731l1.3838-1.4443c2.8896 2.7695 5.7676 5.6392 8.5527 8.5298zm-421.24-8.0249-1.3867-1.4414c2.8857-2.7768 5.8696-5.5347 8.8677-8.1978l1.3281 1.4951c-2.9786 2.6455-5.9424 5.3857-8.8091 8.144zm403.92-8.5767c-2.9883-2.6421-6.0674-5.2564-9.1504-7.7695l1.2637-1.5503c3.1035 2.5303 6.2031 5.1616 9.2109 7.8218zm-385.98-7.3506-1.2676-1.5469c3.103-2.5415 6.2964-5.0508 9.4907-7.459l1.2041 1.5967c-3.1733 2.3921-6.3452 4.8853-9.4272 7.4092zm367.37-7.8169c-3.1904-2.3945-6.4707-4.7544-9.7471-7.0142l1.1348-1.6465c3.2988 2.2749 6.6006 4.6504 9.8135 7.061zm-348.23-6.6182-1.1396-1.6436c3.2969-2.2847 6.6792-4.5293 10.053-6.6719l1.0723 1.6885c-3.3515 2.1279-6.7114 4.3574-9.9858 6.627zm328.46-7.0146c-3.3721-2.1299-6.832-4.2192-10.285-6.21l1-1.7324c3.4746 2.0039 6.958 4.1074 10.354 6.2515zm-308.23-5.8306-1.0034-1.7305c3.458-2.0054 7.0078-3.9702 10.55-5.8389l0.93359 1.7686c-3.519 1.8565-7.0449 3.8081-10.48 5.8008zm287.42-6.1714c-3.5322-1.8506-7.1514-3.6548-10.758-5.3623l0.85547-1.8076c3.6309 1.7188 7.2754 3.5352 10.83 5.3984zm-266.24-5-0.86084-1.8057c3.6064-1.7192 7.3003-3.3901 10.98-4.9663l0.78711 1.8384c-3.6544 1.5654-7.3238 3.2251-10.906 4.9336zm244.51-5.2856c-3.6758-1.561-7.4316-3.0664-11.164-4.4756l0.707-1.8711c3.7568 1.4185 7.5391 2.9346 11.238 4.5059zm-222.51-4.1353-0.7124-1.8691c3.7422-1.4268 7.5684-2.7969 11.372-4.0728l0.63574 1.8965c-3.7778 1.2671-7.5781 2.6284-11.295 4.0454zm200.01-4.3599c-3.7793-1.2534-7.6357-2.4463-11.463-3.5454l0.55274-1.9219c3.8525 1.1064 7.7344 2.3071 11.539 3.5688zm-177.26-3.2705-0.55859-1.9199c3.8462-1.1191 7.771-2.1748 11.665-3.1382l0.48047 1.9414c-3.8681 0.95703-7.7666 2.0059-11.587 3.1167zm154.2-3.3521c-3.8613-0.94189-7.8022-1.8184-11.712-2.605l0.39454-1.9609c3.9365 0.792 7.9038 1.6748 11.792 2.6226zm-130.91-2.4077-0.40137-1.959c3.9209-0.80274 7.918-1.5371 11.88-2.1831l0.32227 1.9736c-3.9365 0.64211-7.9067 1.3716-11.801 2.1685zm107.39-2.3262c-3.9331-0.627-7.9316-1.1826-11.885-1.6504l0.23535-1.9863c3.9795 0.47119 8.0049 1.0303 11.964 1.6621zm-83.711-1.5327-0.24219-1.9854c3.9785-0.48437 8.0215-0.895 12.017-1.2192l0.16211 1.9932c-3.9688 0.32272-7.9849 0.72998-11.937 1.2114zm59.886-1.2896c-3.9648-0.30908-7.9951-0.54248-11.979-0.69336l0.07617-1.999c4.0098 0.15234 8.0664 0.38721 12.058 0.69824zm-35.972-0.65478-0.082-1.998c3.999-0.165 8.062-0.252 12.076-0.25879l0.00293 2c-3.9873 0.00679-8.024 0.09321-11.997 0.25679z" fill="#3f3d56"/>
 <g fill="#3e3e3e">
  <path transform="translate(-280.51 -60.678)" d="m919.49 265.72v-54.44a125.25 125.25 0 0 1-80.859-60.189l-0.00128 1e-3a23.789 23.789 0 0 1-14.22 4.68h-43.228a178.55 178.55 0 0 0 138.31 109.95z"/>
  <path transform="translate(-280.51 -60.678)" d="m919.49 208.16v-52.298a29.121 29.121 0 0 0-29.13-29.13h-41.97v5.05a23.917 23.917 0 0 1-7.3988 17.329 122.3 122.3 0 0 0 78.499 59.049z"/>
  <path transform="translate(-280.51 -60.678)" d="m717.6 155.77h-27.031a23.987 23.987 0 0 1-23.98-23.99v-5.05h-39.38a29.128 29.128 0 0 0-29.13 29.13v648.2a29.079 29.079 0 0 0 29.13 29.11h263.15a28.362 28.362 0 0 0 3.59-0.22 29.146 29.146 0 0 0 25.54-28.89v-477.17c-95.709-11.09-175.46-79.379-201.89-171.12z"/>
  <path transform="translate(-280.51 -60.678)" d="m777.9 155.77h-57.14c26.301 90.039 104.68 157.03 198.73 168.07v-55.02a181.67 181.67 0 0 1-141.59-113.05z"/>
 </g>
 <path transform="translate(-280.51 -60.678)" d="m693.37 823.15c0.72508-0.72036 17.928-18.142 32.511-59.48 13.378-37.926 26.878-104.06 15.213-203.76-22.1-188.88 91.228-309.25 92.377-310.44l-3.3546-3.2215c-0.29128 0.3028-29.429 30.933-55.354 84.706a416.28 416.28 0 0 0-38.288 229.5c22.062 188.55-45.698 258.72-46.385 259.41z" opacity=".1"/>
 <circle cx="587.75" cy="155.4" r="30.222" opacity=".1"/>
 <circle cx="468.69" cy="241.2" r="30.222" opacity=".1"/>
 <circle cx="514.28" cy="328.91" r="30.222" opacity=".1"/>
 <circle cx="422.6" cy="371.14" r="30.222" opacity=".1"/>
 <circle cx="498.81" cy="490.26" r="30.222" opacity=".1"/>
 <path transform="translate(-280.51 -60.678)" d="m675.37 819.9s47.006-65.102-27.84-140.81z" opacity=".1"/>
 <path transform="translate(-280.51 -60.678)" d="m711.79 827.41s32.127-73.591 135.38-47.681z" opacity=".1"/>
 <rect x="351.73" y="505.93" width="254" height="50" fill="#eb7260"/>
 <path transform="translate(-280.51 -60.678)" d="m709.82 460.64a76.314 76.314 0 1 1 35.408 28.43 24.686 24.686 0 1 1-35.408-28.43z" fill="#f2f2f2"/>
 <path transform="translate(-280.51 -60.678)" d="m789.32 390.75c-1.8166-1.0489-8.7011 7.3635-16.3 19.607-7.5989-12.243-14.483-20.656-16.3-19.607-2.0182 1.1652 2.948 13.585 11.2 28.232-8.2525 14.648-13.219 27.067-11.2 28.232 1.8166 1.0488 8.7011-7.3635 16.3-19.607 7.5989 12.243 14.483 20.656 16.3 19.607 2.0182-1.1652-2.948-13.585-11.2-28.232 8.2525-14.648 13.219-27.067 11.2-28.232z" fill="#eb7260"/>
 <path transform="translate(-280.51 -60.678)" d="m423.67 520.33s-8.1346 34.862-1.1621 34.862 20.918-16.269 20.918-16.269v-9.2967z" fill="#a0616a"/>
 <polygon points="160 428.86 139.09 461.4 154.19 461.4" fill="#d0cde1"/>
 <rect x="147.22" y="712.41" width="27.89" height="23.242" fill="#a0616a"/>
 <polygon points="236.7 708.92 242.51 735.65 271.56 728.68 264.59 705.43" fill="#a0616a"/>
 <path transform="translate(-280.51 -60.678)" d="m430.06 529.05s-9.2967 4.6483-10.459 25.566 3.4862 75.535 3.4862 75.535-4.6483 24.404 0 46.483-4.6483 102.26 1.1621 102.26 36.025 3.4862 37.187 0 2.3242-55.78 2.3242-55.78 9.2967-26.728 0-42.997c0 0 20.918 17.431 20.918 22.08s22.08 76.698 32.538 77.86 39.511-1.1621 33.7-11.621-19.755-58.104-19.755-58.104-10.459-34.862-29.052-49.97l9.2967-74.373s19.755-49.97 8.1346-56.942-89.48 0-89.48 0z" fill="#3e3e3e"/>
 <circle cx="184.41" cy="248.73" r="30.214" fill="#a0616a"/>
 <path transform="translate(-280.51 -60.678)" d="m449.81 328.01s11.621 38.349 8.1346 42.997 37.187-25.566 37.187-25.566-15.107-10.459-9.2967-25.566z" fill="#a0616a"/>
 <path transform="translate(-280.51 -60.678)" d="m498.62 341.95s-13.945 4.6483-20.918 12.783-23.242 9.2967-23.242 9.2967-14.382 8.0996-19.755 22.08c-5.7268 14.899-2.3982 35.877 0 40.673 4.6483 9.2967 4.6483 32.538 4.6483 32.538l-5.8104 53.456s-20.918 19.755-4.6483 22.08 45.321-1.1621 62.752 0 37.187 3.4862 31.376-8.1346-12.783-19.755-5.8104-42.997c5.4562-18.187 5.2195-86.187 4.8586-114.9a23.118 23.118 0 0 0-11.227-19.536z" fill="#657786"/>
 <path transform="translate(-280.51 -60.678)" d="m453.3 519.75s-5.2871 11.64-5.8104 18.593c-4.0673 54.037 25.566 0 25.566 0v-9.2967z" fill="#a0616a"/>
 <path transform="translate(-280.51 -60.678)" d="m534.64 787.03s-17.431-12.783-17.431-5.8104-19.755 34.862-19.755 34.862-32.538 23.242-5.8104 23.242 38.349-4.6483 38.349-4.6483l27.89-18.593s6.9725-8.1346 4.6483-17.431-10.459-22.08-10.459-22.08-9.2967 12.783-17.431 10.459z" fill="#2d2c2c"/>
 <path transform="translate(-280.51 -60.678)" d="m432.38 790.52s-2.3242-11.621-10.459-5.8104-30.214 23.242-30.214 23.242-40.673 9.2967-15.107 20.918 83.67-4.6483 83.67-4.6483 2.3242-37.187 0-36.025-26.728 4.6483-27.89 2.3242z" fill="#2d2c2c"/>
 <polygon points="201.26 317.88 204.74 388.77 170.96 457.18 165.23 455 200.1 391.09" opacity=".1"/>
 <path transform="translate(-280.51 -60.678)" d="m509.08 357.06 8.7156-1.7431s26.147 19.174 18.012 57.523-44.159 96.453-44.159 96.453-8.1346 10.459-10.459 12.783-6.9725 0-4.6483 3.4862-3.4862 5.8104-3.4862 5.8104-25.566 0-23.242-9.2967 41.835-75.535 41.835-75.535l-5.8104-61.59s-4.6483-30.214 23.242-27.89z" fill="#657786"/>
 <polygon points="239.61 403.87 239.61 395.74 200.1 460.82" opacity=".1"/>
 <path transform="translate(-280.51 -60.678)" d="m443.48 281.42-4.995-1.9997s10.444-11.498 24.975-10.498l-4.0869-4.4994s9.9899-3.9993 19.072 6.499c4.7741 5.5187 10.298 12.006 13.741 19.313h5.3492l-2.2326 4.9159 7.814 4.9159-8.0203-0.883a27.202 27.202 0 0 1-0.75859 12.732l0.215 3.8855s-9.2967-14.384-9.2967-16.384v4.9992s-4.995-4.4993-4.995-7.4988l-2.7245 3.4995-1.3622-5.4992-16.801 5.4992 2.7245-4.4993-10.444 1.4998 4.0869-5.4992s-11.806 6.499-12.26 11.998-6.3571 12.498-6.3571 12.498l-2.7245-4.9992s-4.0868-22.496 9.0816-29.995z" fill="#14171a"/>
</svg>
