<svg xmlns="http://www.w3.org/2000/svg" viewBox="0 0 906.52 503.84"><defs><style>.cls-1{fill:#ecede2;}.cls-2{fill:#1e1e30;}.cls-3{fill:#dfe0cd;}.cls-20,.cls-21,.cls-26,.cls-28,.cls-4,.cls-7{fill:#fff;}.cls-5{fill:#28f3bb;}.cls-6{fill:#1bdda1;}.cls-7{opacity:0.56;}.cls-8{opacity:0.15;}.cls-9{fill:#1b3c47;}.cls-10{fill:#3f3e3e;}.cls-11{fill:#302f2f;}.cls-12{fill:#cacad8;}.cls-13{fill:#a1a1c4;}.cls-14{opacity:0.15;}.cls-15{fill:#546b76;}.cls-16{fill:#7997a3;}.cls-17{fill:#3c5159;}.cls-18{fill:#b4e4f9;}.cls-19{fill:#70bee0;}.cls-20{opacity:0.59;}.cls-21{opacity:0.3;}.cls-22{fill:#ffccc0;}.cls-23{fill:#f29681;}.cls-24{fill:#fdfdff;}.cls-25{fill:#dd7b6b;}.cls-26{opacity:0.39;}.cls-27{fill:#dd9742;}.cls-28{opacity:0.23;}.cls-29{fill:#dc166d;}</style></defs><title>Asset 26</title><g id="Layer_2" data-name="Layer 2"><g id="Layer_1-2" data-name="Layer 1"><path class="cls-1" d="M132.62,473.84H17.07A15.07,15.07,0,0,1,2,458.77H2A15.07,15.07,0,0,1,17.07,443.7H132.62"/><path class="cls-2" d="M22.64,457.73H3.49a1.5,1.5,0,0,1,0-3H22.64a1.5,1.5,0,0,1,0,3Z"/><rect class="cls-3" x="2" y="452.91" width="130.62" height="2"/><rect class="cls-3" x="2" y="457.98" width="130.62" height="2"/><rect class="cls-3" x="2" y="463.04" width="130.62" height="2"/><rect class="cls-3" x="6" y="468.1" width="126.62" height="2"/><rect class="cls-3" x="6" y="447.85" width="126.62" height="2"/><path class="cls-2" d="M83.5,465.15H4a1.5,1.5,0,0,1,0-3H83.5a1.5,1.5,0,0,1,0,3Z"/><path class="cls-4" d="M40.65,443.53H88.71a0,0,0,0,1,0,0v0a5.32,5.32,0,0,1-5.32,5.32H46a5.32,5.32,0,0,1-5.32-5.32v0A0,0,0,0,1,40.65,443.53Z"/><path class="cls-2" d="M132.62,475.84H17.07a17.07,17.07,0,1,1,0-34.14H132.62a2,2,0,0,1,0,4H17.07a13.07,13.07,0,1,0,0,26.14H132.62a2,2,0,1,1,0,4Z"/><path class="cls-2" d="M824.72,433.82a2,2,0,0,1-2-1.78l-7.38-67.51a2,2,0,0,1,4-.44l7.38,67.52a2,2,0,0,1-1.77,2.2Z"/><path class="cls-2" d="M813.73,394.83a1.5,1.5,0,0,1-1.49-1.33l-2.34-20.15a1.52,1.52,0,0,1,1.31-1.67l6.25-.77a1.5,1.5,0,1,1,.37,3l-4.78.59,2.17,18.68a1.5,1.5,0,0,1-1.32,1.66Z"/><path class="cls-2" d="M833.77,431.82h-.25a2,2,0,0,1-1.74-2.23L840,362.07a2,2,0,0,1,4,.48l-8.24,67.51A2,2,0,0,1,833.77,431.82Z"/><path class="cls-2" d="M856,431.82h-.24a2,2,0,0,1-1.74-2.23l8.24-67.51a2,2,0,0,1,4,.48L858,430.06A2,2,0,0,1,856,431.82Z"/><rect class="cls-5" x="816.53" y="399.89" width="61.15" height="76.06"/><rect class="cls-6" x="818.48" y="401.31" width="10.34" height="73.15"/><rect class="cls-4" x="856.65" y="401.31" width="3.51" height="73.65"/><rect class="cls-7" x="863.2" y="401.31" width="1.73" height="73.65"/><rect class="cls-7" x="868.68" y="401.31" width="1.73" height="73.65"/><path class="cls-2" d="M877.68,478H816.53a2,2,0,0,1-2-2V399.89a2,2,0,0,1,2-2h61.15a2,2,0,0,1,2,2V476A2,2,0,0,1,877.68,478Zm-59.15-4h57.15V401.89H818.53Z"/><g class="cls-8"><path class="cls-9" d="M797.6,126.5h-.29a1.5,1.5,0,0,1,0-3h.29a1.5,1.5,0,0,1,0,3Z"/><path class="cls-9" d="M808.53,126.5h-6a1.5,1.5,0,0,1,0-3h3V108.44H758.77V123.5H786a1.5,1.5,0,0,1,0,3H755.77V105.44h52.76Z"/><path class="cls-9" d="M793.26,126.5h-2.67a1.5,1.5,0,0,1,0-3h2.67a1.5,1.5,0,0,1,0,3Z"/><path class="cls-9" d="M768.27,162.61h-12.5V141.55h37.14a1.5,1.5,0,0,1,0,3H758.77v15.06h9.5a1.5,1.5,0,0,1,0,3Z"/><path class="cls-9" d="M778.07,162.61h-5.41a1.5,1.5,0,0,1,0-3h5.41a1.5,1.5,0,0,1,0,3Z"/><path class="cls-9" d="M782.2,162.61h-.11a1.5,1.5,0,0,1,0-3h.11a1.5,1.5,0,0,1,0,3Z"/><path class="cls-9" d="M808.53,162.61H786.45a1.5,1.5,0,0,1,0-3h19.08V144.55h-6.62a1.5,1.5,0,0,1,0-3h9.67Z"/><path class="cls-9" d="M783.25,144.55H730.49V123.5h52.76Zm-49.76-3h46.76V126.5H733.49Z"/></g><path class="cls-10" d="M181,452.55a20.49,20.49,0,1,1,20.49-20.49A20.51,20.51,0,0,1,181,452.55Zm0-31a10.49,10.49,0,1,0,10.49,10.49A10.49,10.49,0,0,0,181,421.57Z"/><path class="cls-2" d="M181.07,455a22,22,0,1,1,22-22A22,22,0,0,1,181.07,455Zm0-41a19,19,0,1,0,19,19A19,19,0,0,0,181.07,414Zm0,31a12,12,0,1,1,12-12A12,12,0,0,1,181.07,445Zm0-21a9,9,0,1,0,9,9A9,9,0,0,0,181.07,424Z"/><rect class="cls-10" x="113.53" y="388.63" width="66.88" height="84.81" rx="5.44"/><path class="cls-11" d="M181,405.56V471.1a5.44,5.44,0,0,1-5.44,5.44h-56a5.43,5.43,0,0,1-5.44-5.44V459a29.87,29.87,0,0,0,15.33,3.62c10.17-.37,19.74-5.54,27-12.65s12.5-16.06,16.92-25.22A132.71,132.71,0,0,0,181,405.56Z"/><path class="cls-12" d="M755.91,473.65a23.66,23.66,0,1,1,47.32,0"/><path class="cls-13" d="M803.25,473.62h-39.1A79.15,79.15,0,0,0,792.84,454,23.65,23.65,0,0,1,803.25,473.62Z"/><g class="cls-14"><path class="cls-9" d="M782,353h-12.5V331.91h37.14a1.5,1.5,0,0,1,0,3H772.53V350H782a1.5,1.5,0,0,1,0,3Z"/><path class="cls-9" d="M791.83,353h-5.41a1.5,1.5,0,1,1,0-3h5.41a1.5,1.5,0,1,1,0,3Z"/><path class="cls-9" d="M796,353h-.11a1.5,1.5,0,0,1,0-3H796a1.5,1.5,0,0,1,0,3Z"/><path class="cls-9" d="M822.29,353H800.21a1.5,1.5,0,0,1,0-3h19.08V334.91h-6.62a1.5,1.5,0,0,1,0-3h9.67Z"/><path class="cls-9" d="M797,334.91H744.25V313.86H797Zm-49.76-3H794V316.86H747.25Z"/></g><g class="cls-8"><path class="cls-9" d="M80,363.78h-.29a1.5,1.5,0,0,1,0-3H80a1.5,1.5,0,0,1,0,3Z"/><path class="cls-9" d="M90.89,363.78h-6a1.5,1.5,0,1,1,0-3h3V345.72H41.13v15.06H68.32a1.5,1.5,0,0,1,0,3H38.13V342.72H90.89Z"/><path class="cls-9" d="M75.62,363.78H73a1.5,1.5,0,1,1,0-3h2.67a1.5,1.5,0,0,1,0,3Z"/><path class="cls-9" d="M50.63,399.89H38.13V378.83H75.27a1.5,1.5,0,0,1,0,3H41.13v15.06h9.5a1.5,1.5,0,0,1,0,3Z"/><path class="cls-9" d="M60.43,399.89H55a1.5,1.5,0,1,1,0-3h5.41a1.5,1.5,0,1,1,0,3Z"/><path class="cls-9" d="M64.56,399.89h-.11a1.5,1.5,0,1,1,0-3h.11a1.5,1.5,0,0,1,0,3Z"/><path class="cls-9" d="M90.89,399.89H68.81a1.5,1.5,0,0,1,0-3H87.89V381.83H81.27a1.5,1.5,0,1,1,0-3h9.67Z"/><path class="cls-9" d="M65.61,381.83H12.85V360.78H65.61Zm-49.76-3H62.61V363.78H15.85Z"/></g><g class="cls-8"><path class="cls-9" d="M143.46,172.79h-.29a1.5,1.5,0,0,1,0-3h.29a1.5,1.5,0,0,1,0,3Z"/><path class="cls-9" d="M154.39,172.79h-6a1.5,1.5,0,0,1,0-3h3V154.73H104.63v15.06h27.19a1.5,1.5,0,0,1,0,3H101.63V151.73h52.76Z"/><path class="cls-9" d="M139.12,172.79h-2.67a1.5,1.5,0,0,1,0-3h2.67a1.5,1.5,0,0,1,0,3Z"/><path class="cls-9" d="M114.13,208.9h-12.5V187.84h37.14a1.5,1.5,0,0,1,0,3H104.63V205.9h9.5a1.5,1.5,0,0,1,0,3Z"/><path class="cls-9" d="M123.93,208.9h-5.41a1.5,1.5,0,0,1,0-3h5.41a1.5,1.5,0,1,1,0,3Z"/><path class="cls-9" d="M128.06,208.9H128a1.5,1.5,0,0,1,0-3h.11a1.5,1.5,0,0,1,0,3Z"/><path class="cls-9" d="M154.39,208.9H132.31a1.5,1.5,0,0,1,0-3h19.08V190.84h-6.62a1.5,1.5,0,0,1,0-3h9.67Z"/><path class="cls-9" d="M129.11,190.84H76.35V169.79h52.76Zm-49.76-3h46.76V172.79H79.35Z"/></g><g class="cls-8"><path class="cls-9" d="M499.29,21.06H499a1.5,1.5,0,0,1,0-3h.29a1.5,1.5,0,0,1,0,3Z"/><path class="cls-9" d="M510.22,21.06h-6a1.5,1.5,0,0,1,0-3h3V3H460.46V18.06h27.19a1.5,1.5,0,0,1,0,3H457.46V0h52.76Z"/><path class="cls-9" d="M495,21.06h-2.67a1.5,1.5,0,0,1,0-3H495a1.5,1.5,0,0,1,0,3Z"/><path class="cls-9" d="M470,57.17h-12.5V36.11H494.6a1.5,1.5,0,0,1,0,3H460.46V54.17H470a1.5,1.5,0,0,1,0,3Z"/><path class="cls-9" d="M479.76,57.17h-5.41a1.5,1.5,0,0,1,0-3h5.41a1.5,1.5,0,0,1,0,3Z"/><path class="cls-9" d="M483.89,57.17h-.11a1.5,1.5,0,0,1,0-3h.11a1.5,1.5,0,0,1,0,3Z"/><path class="cls-9" d="M510.22,57.17H488.14a1.5,1.5,0,0,1,0-3h19.08V39.11H500.6a1.5,1.5,0,0,1,0-3h9.67Z"/><path class="cls-9" d="M484.94,39.11H432.18v-21h52.76Zm-49.76-3h46.76v-15H435.18Z"/></g><path class="cls-12" d="M531.15,484.66H391.38a9.26,9.26,0,0,1-8.6-12.7l25.91-65,52.58-14.44L513.85,407l25.9,65A9.26,9.26,0,0,1,531.15,484.66Z"/><polygon class="cls-13" points="524.48 433.96 399.54 433.96 400.75 425.69 523.27 425.69 524.48 433.96"/><circle class="cls-13" cx="411.32" cy="435.2" r="4.38"/><circle class="cls-13" cx="424.57" cy="441.05" r="2.24"/><circle class="cls-13" cx="415.12" cy="449.32" r="2.92"/><path class="cls-2" d="M531.15,486.66H391.38a11.27,11.27,0,0,1-10.46-15.44l25.91-65a2,2,0,0,1,1.33-1.19l52.58-14.44a1.91,1.91,0,0,1,1.06,0L514.38,405a2,2,0,0,1,1.33,1.19l25.9,65a11.27,11.27,0,0,1-10.46,15.43Zm-121-78-25.54,64.09a7.26,7.26,0,0,0,6.74,10H531.15a7.26,7.26,0,0,0,6.74-10l-25.53-64.09-51.09-14Z"/><path class="cls-15" d="M237.36,82.58H678.15a17.1,17.1,0,0,1,17.1,17.1V410.16A16.24,16.24,0,0,1,679,426.4H236.51a16.24,16.24,0,0,1-16.24-16.24V99.68A17.1,17.1,0,0,1,237.36,82.58Z"/><path class="cls-16" d="M694.71,99.67v10.54a17.1,17.1,0,0,0-17.09-17.1H236.83a17.11,17.11,0,0,0-17.1,17.1V99.67a17.1,17.1,0,0,1,17.1-17.09H677.62A17.09,17.09,0,0,1,694.71,99.67Z"/><path class="cls-12" d="M695.25,370.4v39.76A16.24,16.24,0,0,1,679,426.4H236.51a16.24,16.24,0,0,1-16.24-16.24V370.4Z"/><rect class="cls-13" x="220.47" y="369.56" width="474.98" height="8.76"/><path class="cls-17" d="M695.45,361.64v8.76h-475s-3.8-24.52.8-23.69C302.19,361.31,695.45,361.64,695.45,361.64Z"/><rect class="cls-18" x="244.71" y="109.83" width="426.49" height="237.2"/><path class="cls-2" d="M220.47,267.05a2,2,0,0,1-2-2V147a2,2,0,0,1,4,0V265.05A2,2,0,0,1,220.47,267.05Z"/><path class="cls-2" d="M695.45,226.92a2,2,0,0,1-2-2V207.46a2,2,0,0,1,4,0v17.46A2,2,0,0,1,695.45,226.92Z"/><path class="cls-2" d="M695.45,197.35a2,2,0,0,1-2-2V162.46a2,2,0,0,1,4,0v32.89A2,2,0,0,1,695.45,197.35Z"/><path class="cls-2" d="M695.45,151.27a2,2,0,0,1-2-2V99.68a15.12,15.12,0,0,0-15.1-15.1H237.56a15.12,15.12,0,0,0-15.09,15.1V134a2,2,0,0,1-4,0V99.68a19.12,19.12,0,0,1,19.09-19.1H678.35a19.12,19.12,0,0,1,19.1,19.1v49.59A2,2,0,0,1,695.45,151.27Z"/><path class="cls-2" d="M695.45,372.4h-475a2,2,0,0,1,0-4h475a2,2,0,0,1,0,4Z"/><rect class="cls-19" x="244.71" y="337.3" width="426.49" height="9.74"/><polygon class="cls-20" points="427.38 347.03 417.64 347.03 477.64 109.83 487.38 109.83 427.38 347.03"/><polygon class="cls-21" points="405.96 347.03 396.22 347.03 456.22 109.83 465.96 109.83 405.96 347.03"/><polygon class="cls-4" points="470.93 347.03 441.19 347.03 501.19 109.83 530.93 109.83 470.93 347.03"/><path class="cls-2" d="M244.71,210.76a2,2,0,0,1-2-2v-23a2,2,0,0,1,4,0v23A2,2,0,0,1,244.71,210.76Z"/><circle class="cls-17" cx="632.51" cy="359.56" r="2.49"/><circle class="cls-17" cx="637.19" cy="357.81" r="0.74"/><circle class="cls-17" cx="633.56" cy="354.78" r="0.74"/><circle class="cls-17" cx="626.42" cy="354.69" r="1.71"/><circle class="cls-17" cx="623.99" cy="359.75" r="1.51"/><circle class="cls-17" cx="619.7" cy="356.29" r="0.77"/><circle class="cls-17" cx="621.41" cy="352.87" r="0.94"/><circle class="cls-17" cx="614.06" cy="358.68" r="1.62"/><circle class="cls-17" cx="642.93" cy="356.53" r="1.01"/><circle class="cls-17" cx="639.13" cy="353.45" r="0.58"/><circle class="cls-17" cx="643.59" cy="351.36" r="1.01"/><circle class="cls-17" cx="638.95" cy="355.7" r="0.7"/><circle class="cls-17" cx="635.49" cy="351.36" r="0.79"/><circle class="cls-17" cx="630.51" cy="350.2" r="1.16"/><circle class="cls-17" cx="631.45" cy="353.12" r="0.25"/><circle class="cls-17" cx="630.38" cy="355.54" r="0.37"/><circle class="cls-17" cx="642.89" cy="360.69" r="1.62"/><circle class="cls-17" cx="649.4" cy="358.78" r="1.25"/><circle class="cls-17" cx="655.77" cy="360.86" r="2.63"/><circle class="cls-17" cx="663.75" cy="361.05" r="2.81"/><circle class="cls-17" cx="668.74" cy="359.91" r="1.23"/><circle class="cls-17" cx="664.19" cy="355.96" r="0.44"/><circle class="cls-17" cx="658.08" cy="353.82" r="0.95"/><circle class="cls-17" cx="654.1" cy="352.49" r="0.96"/><circle class="cls-17" cx="650.71" cy="353.68" r="1.31"/><circle class="cls-17" cx="647.19" cy="354.78" r="0.96"/><circle class="cls-17" cx="656.56" cy="356.86" r="0.57"/><circle class="cls-19" cx="582.81" cy="333.66" r="4.75"/><circle class="cls-19" cx="591.73" cy="330.33" r="1.41"/><circle class="cls-19" cx="584.82" cy="324.56" r="1.42"/><circle class="cls-19" cx="571.23" cy="324.39" r="3.25"/><circle class="cls-19" cx="566.6" cy="334.02" r="2.88"/><circle class="cls-19" cx="558.44" cy="327.45" r="1.47"/><circle class="cls-19" cx="561.71" cy="320.93" r="1.79"/><circle class="cls-19" cx="547.71" cy="331.99" r="3.07"/><circle class="cls-19" cx="602.66" cy="327.9" r="1.92"/><circle class="cls-19" cx="595.43" cy="322.04" r="1.1"/><circle class="cls-19" cx="603.91" cy="318.06" r="1.92"/><circle class="cls-19" cx="595.07" cy="326.31" r="1.33"/><circle class="cls-19" cx="588.49" cy="318.06" r="1.5"/><circle class="cls-19" cx="579.03" cy="315.85" r="2.21"/><circle class="cls-19" cx="580.8" cy="321.41" r="0.48"/><circle class="cls-19" cx="578.78" cy="326.02" r="0.71"/><circle class="cls-19" cx="602.58" cy="335.82" r="3.08"/><circle class="cls-19" cx="614.96" cy="332.19" r="2.38"/><circle class="cls-19" cx="627.09" cy="336.15" r="5"/><circle class="cls-19" cx="642.28" cy="336.5" r="5.36"/><circle class="cls-19" cx="651.76" cy="334.33" r="2.33"/><circle class="cls-19" cx="643.12" cy="326.81" r="0.83"/><circle class="cls-19" cx="631.49" cy="322.75" r="1.81"/><circle class="cls-19" cx="623.91" cy="320.22" r="1.82"/><circle class="cls-19" cx="617.46" cy="322.48" r="2.5"/><circle class="cls-19" cx="610.76" cy="324.56" r="1.82"/><circle class="cls-19" cx="628.59" cy="328.53" r="1.08"/><circle class="cls-13" cx="292.42" cy="386.25" r="2.24"/><path class="cls-2" d="M258.88,158.17a1.52,1.52,0,0,1-.59-.12,1.5,1.5,0,0,1-.78-2l14-32.43a1.5,1.5,0,0,1,2.75,1.19l-14,32.43A1.49,1.49,0,0,1,258.88,158.17Z"/><path class="cls-2" d="M270.71,151.74a1.44,1.44,0,0,1-.6-.13,1.5,1.5,0,0,1-.78-2l7-16.21a1.5,1.5,0,0,1,2.76,1.19l-7,16.21A1.48,1.48,0,0,1,270.71,151.74Z"/><circle class="cls-2" cx="268.28" cy="157.19" r="2.39"/><path class="cls-2" d="M308.05,95H260.48a1.5,1.5,0,0,1,0-3h47.57a1.5,1.5,0,0,1,0,3Z"/><path class="cls-2" d="M328.08,95h-9.56a1.5,1.5,0,0,1,0-3h9.56a1.5,1.5,0,0,1,0,3Z"/><path class="cls-2" d="M695.25,250.3a2,2,0,0,1-2-2v-9.39a2,2,0,1,1,4,0v9.39A2,2,0,0,1,695.25,250.3Z"/><circle class="cls-13" cx="278.55" cy="381.39" r="7.45"/><circle class="cls-13" cx="286.48" cy="396.01" r="3.7"/><circle class="cls-13" cx="264.99" cy="388.84" r="3.68"/><circle class="cls-4" cx="457.76" cy="399.72" r="13.46"/><path class="cls-2" d="M458,417.65a17.25,17.25,0,1,1,0-34.49,2,2,0,0,1,0,4,13.24,13.24,0,1,0,11.32,6.37,2,2,0,0,1,3.42-2.08A17.25,17.25,0,0,1,458,417.65Z"/><path class="cls-2" d="M394,473.11a1.39,1.39,0,0,1-.53-.1,1.48,1.48,0,0,1-.87-1.93l3.72-9.83a1.5,1.5,0,0,1,2.81,1.06l-3.73,9.83A1.51,1.51,0,0,1,394,473.11Z"/><path class="cls-2" d="M401.33,453.74a1.6,1.6,0,0,1-.53-.09,1.5,1.5,0,0,1-.87-1.94l2.21-5.84a1.5,1.5,0,1,1,2.8,1.06l-2.21,5.84A1.51,1.51,0,0,1,401.33,453.74Z"/><path class="cls-19" d="M341.79,341.8H297.1a4.5,4.5,0,0,1,0-9h44.69a4.5,4.5,0,0,1,0,9Z"/><path class="cls-16" d="M506,98h-44.7a4.5,4.5,0,0,1,0-9H506a4.5,4.5,0,0,1,0,9Z"/><path class="cls-16" d="M605.16,98H584.47a4.5,4.5,0,0,1,0-9h20.69a4.5,4.5,0,0,1,0,9Z"/><rect class="cls-22" x="8.29" y="474.96" width="896.23" height="26.88" rx="13.44"/><path class="cls-23" d="M904.52,489a13.45,13.45,0,0,1-13.44,13.44H21.73A13.44,13.44,0,0,1,8.29,489a13.3,13.3,0,0,1,1.81-6.72A13.41,13.41,0,0,0,21.73,489H891.08a13.49,13.49,0,0,0,11.64-6.72A13.29,13.29,0,0,1,904.52,489Z"/><path class="cls-24" d="M165.42,483H98.82a3.5,3.5,0,0,1,0-7h66.6a3.5,3.5,0,1,1,0,7Z"/><path class="cls-24" d="M201.31,483h-16.6a3.5,3.5,0,1,1,0-7h16.6a3.5,3.5,0,0,1,0,7Z"/><path class="cls-23" d="M668.49,491.9h-66.6a3.5,3.5,0,0,1,0-7h66.6a3.5,3.5,0,0,1,0,7Z"/><path class="cls-23" d="M704.39,491.9h-16.6a3.5,3.5,0,0,1,0-7h16.6a3.5,3.5,0,0,1,0,7Z"/><path class="cls-25" d="M422.29,501.84h-66.6a3.5,3.5,0,0,1,0-7h66.6a3.5,3.5,0,0,1,0,7Z"/><path class="cls-25" d="M458.19,501.84h-16.6a3.5,3.5,0,0,1,0-7h16.6a3.5,3.5,0,0,1,0,7Z"/><path class="cls-25" d="M82.67,501.84H16.06a3.5,3.5,0,0,1,0-7H82.67a3.5,3.5,0,1,1,0,7Z"/><path class="cls-25" d="M118.56,501.84H102a3.5,3.5,0,1,1,0-7h16.6a3.5,3.5,0,0,1,0,7Z"/><path class="cls-25" d="M859.23,501.84h-66.6a3.5,3.5,0,0,1,0-7h66.6a3.5,3.5,0,0,1,0,7Z"/><path class="cls-25" d="M895.13,501.84H878.52a3.5,3.5,0,0,1,0-7h16.61a3.5,3.5,0,0,1,0,7Z"/><path class="cls-2" d="M891.08,503.84H21.73a15.44,15.44,0,0,1,0-30.88H263.1a2,2,0,0,1,0,4H21.73a11.44,11.44,0,0,0,0,22.88H891.08a11.44,11.44,0,0,0,0-22.88H332.16a2,2,0,0,1,0-4H891.08a15.44,15.44,0,0,1,0,30.88Z"/><path class="cls-2" d="M295.1,477H280.66a2,2,0,0,1,0-4H295.1a2,2,0,0,1,0,4Z"/><path class="cls-2" d="M315.26,477h-7.43a2,2,0,0,1,0-4h7.43a2,2,0,0,1,0,4Z"/><path class="cls-2" d="M803.23,475.65a2,2,0,0,1-2-2,21.68,21.68,0,0,0-32-19.06,2,2,0,0,1-1.9-3.52,25.68,25.68,0,0,1,37.87,22.58A2,2,0,0,1,803.23,475.65Z"/><path class="cls-2" d="M755.91,475.65a2,2,0,0,1-2-2,25.67,25.67,0,0,1,5.71-16.14,2,2,0,1,1,3.1,2.52,21.72,21.72,0,0,0-4.81,13.62A2,2,0,0,1,755.91,475.65Z"/><rect class="cls-4" x="133.12" y="388.84" width="5.67" height="86.12"/><rect class="cls-26" x="142.77" y="388.84" width="2.72" height="86.12"/><path class="cls-2" d="M147,380.33a1.5,1.5,0,0,1-1.5-1.5V356.39a11.22,11.22,0,0,1,11.21-11.2,9.71,9.71,0,0,0,0-19.41,1.5,1.5,0,1,1,0-3,12.71,12.71,0,0,1,0,25.41,8.21,8.21,0,0,0-8.21,8.2v22.44A1.5,1.5,0,0,1,147,380.33Z"/><path class="cls-2" d="M134.79,370.44a1.5,1.5,0,0,1-1.5-1.5V346.75a1.5,1.5,0,0,1,3,0v22.19A1.5,1.5,0,0,1,134.79,370.44Z"/><path class="cls-2" d="M159,382.16a1.5,1.5,0,0,1-1.5-1.5v-22.2a1.5,1.5,0,0,1,3,0v22.2A1.5,1.5,0,0,1,159,382.16Z"/><path class="cls-27" d="M163.08,415.65h0a2.79,2.79,0,0,1-2.79-2.79v-23.5h5.58v23.5A2.79,2.79,0,0,1,163.08,415.65Z"/><path class="cls-27" d="M176.91,390.87a4.92,4.92,0,0,1-9.83,0"/><rect class="cls-28" x="120.17" y="400.15" width="6.57" height="24.8" rx="3.28"/><path class="cls-17" d="M241.78,310.53a2.5,2.5,0,0,1-2.5-2.5V257.78a2.5,2.5,0,0,1,5,0V308A2.5,2.5,0,0,1,241.78,310.53Z"/><path class="cls-17" d="M673.72,200.41a2.5,2.5,0,0,1-2.5-2.5V147.67a2.5,2.5,0,1,1,5,0v50.24A2.5,2.5,0,0,1,673.72,200.41Z"/><path class="cls-17" d="M673.72,320.21a2.5,2.5,0,0,1-2.5-2.5V267.46a2.5,2.5,0,0,1,5,0v50.25A2.5,2.5,0,0,1,673.72,320.21Z"/><path class="cls-19" d="M667.62,271.91a3.5,3.5,0,0,1-3.5-3.5V218.16a3.5,3.5,0,1,1,7,0v50.25A3.5,3.5,0,0,1,667.62,271.91Z"/><path class="cls-19" d="M667.62,133.62a3.5,3.5,0,0,1-3.5-3.5V119.88a3.5,3.5,0,0,1,7,0v10.24A3.5,3.5,0,0,1,667.62,133.62Z"/><path class="cls-19" d="M248,252.22a3.5,3.5,0,0,1-3.5-3.5V238.48a3.5,3.5,0,0,1,7,0v10.24A3.5,3.5,0,0,1,248,252.22Z"/><path class="cls-13" d="M598.27,426.05H588a3.5,3.5,0,0,1,0-7h10.25a3.5,3.5,0,0,1,0,7Z"/><path class="cls-19" d="M248,327.76a3.5,3.5,0,0,1-3.5-3.5V314a3.5,3.5,0,0,1,7,0v10.24A3.5,3.5,0,0,1,248,327.76Z"/><path class="cls-19" d="M248,127a3.5,3.5,0,0,1-3.5-3.5V113.25a3.5,3.5,0,0,1,7,0V123.5A3.5,3.5,0,0,1,248,127Z"/><path class="cls-2" d="M671.2,348.53H244.71a1.5,1.5,0,0,1-1.5-1.5V219.71a1.5,1.5,0,0,1,3,0V345.53H669.7V111.33H246.21v59.26a1.5,1.5,0,0,1-3,0V109.83a1.5,1.5,0,0,1,1.5-1.5H671.2a1.5,1.5,0,0,1,1.5,1.5V347A1.5,1.5,0,0,1,671.2,348.53Z"/><path class="cls-27" d="M149.15,390.21h5.12a0,0,0,0,1,0,0v12a2.56,2.56,0,0,1-2.56,2.56h0a2.56,2.56,0,0,1-2.56-2.56v-12a0,0,0,0,1,0,0Z"/><path class="cls-2" d="M175.58,476.46h-56a7.44,7.44,0,0,1-7.44-7.43v-26.5a2,2,0,0,1,4,0V469a3.44,3.44,0,0,0,3.44,3.43h56A3.44,3.44,0,0,0,179,469V395.09a3.45,3.45,0,0,0-3.44-3.44h-56a3.45,3.45,0,0,0-3.44,3.44v21.05a2,2,0,0,1-4,0V395.09a7.45,7.45,0,0,1,7.44-7.44h56a7.45,7.45,0,0,1,7.44,7.44V469A7.44,7.44,0,0,1,175.58,476.46Z"/><path class="cls-2" d="M114.14,435a2,2,0,0,1-2-2v-8.47a2,2,0,0,1,4,0V433A2,2,0,0,1,114.14,435Z"/><circle class="cls-29" cx="866.08" cy="354.03" r="7.89"/><path class="cls-2" d="M866.08,363.42a9.39,9.39,0,1,1,9.39-9.39A9.4,9.4,0,0,1,866.08,363.42Zm0-15.77a6.39,6.39,0,1,0,6.39,6.38A6.38,6.38,0,0,0,866.08,347.65Z"/><path class="cls-2" d="M850,392.83h-.18a1.49,1.49,0,0,1-1.31-1.66l2.16-18.68-4.77-.59a1.5,1.5,0,0,1,.36-3l6.26.77a1.51,1.51,0,0,1,1.3,1.67l-2.33,20.15A1.5,1.5,0,0,1,850,392.83Z"/><path class="cls-4" d="M680,428.48H658a4,4,0,0,1,0-8H680c4.45,0,9.51-4.78,9.51-9V399.07a4,4,0,1,1,8,0V411.5C697.46,420.07,688.79,428.48,680,428.48Z"/><path class="cls-4" d="M276.87,429.57h-22a4,4,0,0,1,0-8h22a4,4,0,0,1,0,8Z"/><path class="cls-2" d="M679.21,428.4H236.71a18.26,18.26,0,0,1-18.24-18.24V277.51a2,2,0,0,1,4,0V410.16a14.25,14.25,0,0,0,14.24,14.24h442.5a14.26,14.26,0,0,0,14.24-14.24V262a2,2,0,0,1,4,0V410.16A18.26,18.26,0,0,1,679.21,428.4Z"/></g></g></svg>