<svg id="Layer_1" data-name="Layer 1" xmlns="http://www.w3.org/2000/svg" viewBox="0 0 100 100"><defs><style>.cls-1{fill:#e8f4fa;}.cls-2,.cls-4{fill:#fff;}.cls-3{fill:none;}.cls-10,.cls-14,.cls-16,.cls-18,.cls-21,.cls-22,.cls-23,.cls-26,.cls-27,.cls-3,.cls-4,.cls-7{stroke:#45413c;stroke-linecap:round;stroke-linejoin:round;}.cls-5{fill:#4acfff;}.cls-6{fill:#80ddff;}.cls-7{fill:#ffcebf;}.cls-8{fill:#45413c;}.cls-9{fill:#ffb59e;}.cls-10{fill:#ffdf3d;}.cls-11{fill:#ffef9e;}.cls-12,.cls-22{fill:#656769;}.cls-13{fill:#525252;}.cls-14{fill:#915e3a;}.cls-15,.cls-26{fill:#87898c;}.cls-16{fill:#00b8f0;}.cls-17{fill:#020202;opacity:0.15;}.cls-18{fill:#ff866e;}.cls-19,.cls-21{fill:#bdbec0;}.cls-20{fill:#f0f0f0;}.cls-23,.cls-25{fill:#ffe500;}.cls-24{fill:#ebcb00;}.cls-27{fill:#c0dceb;}</style></defs><title>dj-booth</title><g id="_Group_" data-name="&lt;Group&gt;"><path class="cls-1" d="M90.5,50A40,40,0,1,0,14.06,66.5H86.94A39.85,39.85,0,0,0,90.5,50Z"/><path class="cls-2" d="M14.06,66.5a40,40,0,0,0,72.88,0Z"/><line class="cls-3" x1="11" y1="66.5" x2="89" y2="66.5"/><line class="cls-3" x1="6.5" y1="66.5" x2="9" y2="66.5"/><line class="cls-3" x1="91" y1="66.5" x2="93.5" y2="66.5"/></g><path class="cls-4" d="M43.05,46.8s1.72-2.55,6.33-2.55S55.7,46.8,55.7,46.8l-.49,4.92H43.54Z"/><path class="cls-5" d="M59.73,56.9a10.35,10.35,0,1,0-20.7,0v1.44a7.76,7.76,0,0,0,4,6.8v.38L42,74.6a1.15,1.15,0,0,0,1.15,1.27H55.57a1.15,1.15,0,0,0,1.14-1.27l-1-9.08h4Z"/><path class="cls-6" d="M49.38,46.55A10.35,10.35,0,0,0,39,56.9v1.44c0,.22,0,.44,0,.66a10.35,10.35,0,0,1,20.68.77V56.9A10.35,10.35,0,0,0,49.38,46.55Z"/><path class="cls-3" d="M59.73,56.9a10.35,10.35,0,1,0-20.7,0v1.44a7.76,7.76,0,0,0,4,6.8v.38L42,74.6a1.15,1.15,0,0,0,1.15,1.27H55.57a1.15,1.15,0,0,0,1.14-1.27l-1-9.08h4Z"/><path class="cls-7" d="M45.42,47.33a7.94,7.94,0,0,1,3.78,4l.18.4.17-.4a7.94,7.94,0,0,1,3.78-4,10.42,10.42,0,0,0-7.91,0Z"/><path class="cls-3" d="M56.85,37.92h-15V34.2a7.47,7.47,0,0,1,7.48-7.47h0a7.47,7.47,0,0,1,7.47,7.47Z"/><path class="cls-7" d="M55.7,67.54a2,2,0,0,0,4,0v-2h-4Z"/><path class="cls-7" d="M49.38,44.25a5.74,5.74,0,0,0,5.46-4h0c1.81,0,1.92-2.87.28-2.87V36.2a5.75,5.75,0,0,0-11.5,0v1.15c-1.64,0-1.53,2.87.29,2.87h0A5.72,5.72,0,0,0,49.38,44.25Z"/><path class="cls-8" d="M47.51,36.77a.72.72,0,0,0,0,1.44.72.72,0,0,0,0-1.44Z"/><path class="cls-8" d="M51.25,36.77a.72.72,0,1,0,.72.72.72.72,0,0,0-.72-.72Z"/><circle class="cls-9" cx="45.93" cy="39.07" r="0.57"/><circle class="cls-9" cx="52.83" cy="39.07" r="0.57"/><path class="cls-3" d="M48,40.85a2.58,2.58,0,0,0,2.87,0"/><path class="cls-10" d="M46.21,34.19c2.52,2.44,6.87,2,9.49,1.15a6.33,6.33,0,0,0-12.65,0v2s3.16-.79,3.16-3.16"/><path class="cls-11" d="M49.38,31.81a6.3,6.3,0,0,1,5.73,3.7l.59-.17a6.33,6.33,0,0,0-12.65,0v2l.08,0A6.32,6.32,0,0,1,49.38,31.81Z"/><path class="cls-3" d="M46.21,34.19c2.52,2.44,6.87,2,9.49,1.15a6.33,6.33,0,0,0-12.65,0v2s3.16-.79,3.16-3.16"/><path class="cls-3" d="M46.21,34.19c-.29-.29-.33-.24-.57-.6"/><polygon class="cls-12" points="47.65 81.62 47.9 75.87 43.05 75.87 43.05 81.62 47.65 81.62"/><polygon class="cls-13" points="47.9 75.87 43.05 75.87 43.05 77.6 47.83 77.6 47.9 75.87"/><polygon class="cls-3" points="47.65 81.62 47.9 75.87 43.05 75.87 43.05 81.62 47.65 81.62"/><path class="cls-14" d="M42.87,82.2h4.42A.8.8,0,0,0,48,81.11c-.9-2.47-4.93-2.28-5.92,0A.8.8,0,0,0,42.87,82.2Z"/><polygon class="cls-12" points="51.1 81.62 50.85 75.87 55.7 75.87 55.7 81.62 51.1 81.62"/><polygon class="cls-13" points="50.85 75.87 55.7 75.87 55.7 77.6 50.92 77.6 50.85 75.87"/><polygon class="cls-3" points="51.1 81.62 50.85 75.87 55.7 75.87 55.7 81.62 51.1 81.62"/><path class="cls-14" d="M55.88,82.2H51.46a.8.8,0,0,1-.75-1.09c.9-2.47,4.93-2.28,5.92,0A.8.8,0,0,1,55.88,82.2Z"/><line class="cls-3" x1="55.7" y1="65.52" x2="55.7" y2="56.9"/><path class="cls-7" d="M50.81,66.1a2,2,0,1,0,0-4h-2v4Z"/><path class="cls-12" d="M55.13,35H57a1,1,0,0,1,1,1V39.8a1,1,0,0,1-1,1H55.13a0,0,0,0,1,0,0V35A0,0,0,0,1,55.13,35Z"/><path class="cls-15" d="M56.85,35.05H55.13v1.72h1.72A1.15,1.15,0,0,1,58,37.92V36.2A1.14,1.14,0,0,0,56.85,35.05Z"/><path class="cls-3" d="M55.13,35H57a1,1,0,0,1,1,1V39.8a1,1,0,0,1-1,1H55.13a0,0,0,0,1,0,0V35A0,0,0,0,1,55.13,35Z"/><path class="cls-12" d="M40.75,35h1.88a1,1,0,0,1,1,1V39.8a1,1,0,0,1-1,1H40.75a0,0,0,0,1,0,0V35A0,0,0,0,1,40.75,35Z" transform="translate(84.38 75.85) rotate(180)"/><path class="cls-15" d="M41.9,35.05a1.15,1.15,0,0,0-1.15,1.15v1.72a1.16,1.16,0,0,1,1.15-1.15h1.73V35.05Z"/><path class="cls-3" d="M40.75,35h1.88a1,1,0,0,1,1,1V39.8a1,1,0,0,1-1,1H40.75a0,0,0,0,1,0,0V35A0,0,0,0,1,40.75,35Z" transform="translate(84.38 75.85) rotate(180)"/><path class="cls-16" d="M49.38,51.72l-1.48-.84a8.22,8.22,0,0,0-5.45-1,.48.48,0,0,1-.44-.17.49.49,0,0,1-.07-.48l.81-2a.92.92,0,0,1,1.08-.55,8,8,0,0,1,5.37,4.58Z"/><path class="cls-16" d="M49.38,51.72l1.47-.84a8.22,8.22,0,0,1,5.45-1,.48.48,0,0,0,.44-.17.49.49,0,0,0,.07-.48l-.81-2a.92.92,0,0,0-1.08-.55,8,8,0,0,0-5.37,4.58Z"/><path class="cls-3" d="M43.05,65.14a7.73,7.73,0,0,0,3.74,1h4a2,2,0,1,0,0-4h-4a3.74,3.74,0,0,1-3.74-3.73V56.9"/><rect class="cls-3" x="12.29" y="43.39" width="40.83" height="4.6" transform="translate(78.39 12.99) rotate(90)"/><polyline class="cls-3" points="35 66.1 30.4 61.5 35 56.9 30.4 52.3 35 47.7 30.4 43.1 35 38.5 30.4 33.9 35 29.3 30.98 25.27"/><ellipse class="cls-17" cx="48.8" cy="82.77" rx="23" ry="1.73"/><rect class="cls-3" x="36.15" y="18.95" width="27.6" height="4.6"/><polyline class="cls-3" points="36.15 18.95 40.75 23.55 45.35 18.95 49.95 23.55 54.55 18.95 59.15 23.55 63.75 18.95"/><rect class="cls-18" x="28.58" y="17.22" width="8.24" height="8.05" rx="1.08" ry="1.08"/><rect class="cls-19" x="74.1" y="41.37" width="10.35" height="14.95" rx="1" ry="1"/><rect class="cls-15" x="74.1" y="43.67" width="10.35" height="12.65" rx="1" ry="1"/><rect class="cls-3" x="74.1" y="41.37" width="10.35" height="14.95" rx="1" ry="1"/><rect class="cls-20" x="78.13" y="56.32" width="2.3" height="7.48"/><rect class="cls-19" x="78.13" y="56.32" width="2.3" height="1.73"/><rect class="cls-3" x="78.13" y="56.32" width="2.3" height="7.48"/><path class="cls-21" d="M76.83,63.8h4.9a1,1,0,0,1,1,1v1.3a0,0,0,0,1,0,0h-6.9a0,0,0,0,1,0,0V64.8a1,1,0,0,1,1-1Z"/><path class="cls-12" d="M82.15,46.55a2.88,2.88,0,1,1-2.87-2.88A2.87,2.87,0,0,1,82.15,46.55Z"/><path class="cls-13" d="M79.28,45.4a2.89,2.89,0,0,1,2.74,2,2.71,2.71,0,0,0,.13-.86,2.88,2.88,0,1,0-5.75,0,3,3,0,0,0,.13.86A2.89,2.89,0,0,1,79.28,45.4Z"/><path class="cls-3" d="M82.15,46.55a2.88,2.88,0,1,1-2.87-2.88A2.87,2.87,0,0,1,82.15,46.55Z"/><path class="cls-22" d="M80.43,52.87a1.15,1.15,0,1,1-1.15-1.15A1.15,1.15,0,0,1,80.43,52.87Z"/><rect class="cls-19" x="16.03" y="41.37" width="10.35" height="14.95" rx="1" ry="1"/><rect class="cls-15" x="16.03" y="43.67" width="10.35" height="12.65" rx="1" ry="1"/><rect class="cls-3" x="16.03" y="41.37" width="10.35" height="14.95" rx="1" ry="1"/><rect class="cls-20" x="20.05" y="56.32" width="2.3" height="7.48"/><rect class="cls-19" x="20.05" y="56.32" width="2.3" height="1.73"/><rect class="cls-3" x="20.05" y="56.32" width="2.3" height="7.48"/><path class="cls-21" d="M18.75,63.8h4.9a1,1,0,0,1,1,1v1.3a0,0,0,0,1,0,0h-6.9a0,0,0,0,1,0,0V64.8A1,1,0,0,1,18.75,63.8Z"/><path class="cls-12" d="M24.08,46.55a2.88,2.88,0,1,1-2.88-2.88A2.87,2.87,0,0,1,24.08,46.55Z"/><path class="cls-13" d="M21.2,45.4a2.87,2.87,0,0,1,2.74,2,2.72,2.72,0,0,0,.14-.86,2.88,2.88,0,1,0-5.75,0,2.71,2.71,0,0,0,.13.86A2.87,2.87,0,0,1,21.2,45.4Z"/><path class="cls-3" d="M24.08,46.55a2.88,2.88,0,1,1-2.88-2.88A2.87,2.87,0,0,1,24.08,46.55Z"/><circle class="cls-22" cx="21.2" cy="52.87" r="1.15"/><circle class="cls-23" cx="32.7" cy="21.25" r="1.72"/><rect class="cls-18" x="63.08" y="17.22" width="8.24" height="8.05" rx="1.08" ry="1.08"/><circle class="cls-23" cx="67.2" cy="21.25" r="1.72"/><rect class="cls-3" x="46.79" y="43.39" width="40.83" height="4.6" transform="translate(112.89 -21.51) rotate(90)"/><polyline class="cls-3" points="69.5 66.1 64.9 61.5 69.5 56.9 64.9 52.3 69.5 47.7 64.9 43.1 69.5 38.5 64.9 33.9 69.5 29.3 65.48 25.27"/><path class="cls-24" d="M39.35,62.65H59.4a.9.9,0,0,1,.9.9V82.2a0,0,0,0,1,0,0H38.45a0,0,0,0,1,0,0V63.55A.9.9,0,0,1,39.35,62.65Z"/><path class="cls-25" d="M39.27,66.1H59.48a.82.82,0,0,1,.82.82V82.2a0,0,0,0,1,0,0H38.45a0,0,0,0,1,0,0V66.92A.82.82,0,0,1,39.27,66.1Z"/><path class="cls-3" d="M39.35,62.65H59.4a.9.9,0,0,1,.9.9V82.2a0,0,0,0,1,0,0H38.45a0,0,0,0,1,0,0V63.55A.9.9,0,0,1,39.35,62.65Z"/><path class="cls-26" d="M38.45,82.2h-6.9a1.16,1.16,0,0,1-1.15-1.15V68.5a1.9,1.9,0,0,1,1.53-1.71L38.45,65Z"/><path class="cls-26" d="M68.35,81.05A1.15,1.15,0,0,1,67.2,82.2H60.3V65l6.53,1.84a1.9,1.9,0,0,1,1.52,1.71Z"/><path class="cls-27" d="M41.75,60.35H58.58a0,0,0,0,1,0,0v2.3a0,0,0,0,1,0,0H40.75a0,0,0,0,1,0,0v-1.3A1,1,0,0,1,41.75,60.35Z"/><path class="cls-26" d="M49.8,58h7.78a1,1,0,0,1,1,1v1.3a0,0,0,0,1,0,0H48.8a0,0,0,0,1,0,0V59a1,1,0,0,1,1-1Z"/><path class="cls-22" d="M36.15,77.6a1.73,1.73,0,1,1-1.72-1.73A1.72,1.72,0,0,1,36.15,77.6Z"/><path class="cls-22" d="M36.15,70.7A1.73,1.73,0,1,1,34.43,69,1.72,1.72,0,0,1,36.15,70.7Z"/><path class="cls-22" d="M66.05,77.6a1.73,1.73,0,1,1-1.72-1.73A1.72,1.72,0,0,1,66.05,77.6Z"/><path class="cls-22" d="M66.05,70.7A1.73,1.73,0,1,1,64.33,69,1.72,1.72,0,0,1,66.05,70.7Z"/><line class="cls-3" x1="40.75" y1="79.9" x2="44.78" y2="79.9"/><line class="cls-3" x1="40.75" y1="77.6" x2="44.78" y2="77.6"/><line class="cls-3" x1="40.75" y1="75.3" x2="44.78" y2="75.3"/><line class="cls-3" x1="40.75" y1="73" x2="44.78" y2="73"/><line class="cls-3" x1="47.08" y1="79.9" x2="51.68" y2="79.9"/><line class="cls-3" x1="47.08" y1="77.6" x2="51.68" y2="77.6"/><line class="cls-3" x1="47.08" y1="75.3" x2="51.68" y2="75.3"/><line class="cls-3" x1="47.08" y1="73" x2="51.68" y2="73"/><line class="cls-3" x1="47.08" y1="70.7" x2="51.68" y2="70.7"/><line class="cls-3" x1="47.08" y1="68.4" x2="51.68" y2="68.4"/><line class="cls-3" x1="53.98" y1="79.9" x2="58" y2="79.9"/><line class="cls-3" x1="53.98" y1="77.6" x2="58" y2="77.6"/></svg>