<svg id="Layer_1" data-name="Layer 1" xmlns="http://www.w3.org/2000/svg" viewBox="0 0 100 100"><defs><style>.cls-1{fill:#e8f4fa;}.cls-2,.cls-26{fill:#fff;}.cls-23,.cls-3{fill:none;}.cls-12,.cls-16,.cls-19,.cls-21,.cls-22,.cls-24,.cls-25,.cls-26,.cls-3,.cls-9{stroke:#45413c;stroke-linejoin:round;}.cls-12,.cls-16,.cls-19,.cls-21,.cls-22,.cls-24,.cls-3,.cls-9{stroke-linecap:round;}.cls-4{fill:#f7e5c6;}.cls-5{fill:#fff5e3;}.cls-6{fill:#fffef2;}.cls-7{fill:#c0dceb;}.cls-8{fill:#adc4d9;}.cls-10,.cls-9{fill:#daedf7;}.cls-11{fill:#f0f0f0;}.cls-12{fill:#ff6242;}.cls-13,.cls-25{fill:#00b8f0;}.cls-14{fill:#4acfff;}.cls-15{fill:#020202;opacity:0.15;}.cls-16{fill:#ffcebf;}.cls-17{fill:#45413c;}.cls-18{fill:#ffb59e;}.cls-19{fill:#614b44;}.cls-20{fill:#947063;}.cls-21{fill:#656769;}.cls-22{fill:#915e3a;}.cls-24{fill:#b8ecff;}</style></defs><title>doctor-hospital</title><path class="cls-1" d="M89.53,50A40,40,0,1,0,13.09,66.5H86A39.86,39.86,0,0,0,89.53,50Z"/><path class="cls-2" d="M13.09,66.5A40,40,0,0,0,86,66.5Z"/><line class="cls-3" x1="10.53" y1="66.5" x2="88.53" y2="66.5"/><line class="cls-3" x1="6.03" y1="66.5" x2="8.53" y2="66.5"/><line class="cls-3" x1="90.53" y1="66.5" x2="93.03" y2="66.5"/><path class="cls-4" d="M40.82,40h8.63a0,0,0,0,1,0,0V66.49a0,0,0,0,1,0,0H39.82a0,0,0,0,1,0,0V41A1,1,0,0,1,40.82,40Z"/><path class="cls-5" d="M40.82,40h8.63a0,0,0,0,1,0,0v2.71a0,0,0,0,1,0,0H39.82a0,0,0,0,1,0,0V41A1,1,0,0,1,40.82,40Z"/><path class="cls-3" d="M40.82,40h8.63a0,0,0,0,1,0,0V66.49a0,0,0,0,1,0,0H39.82a0,0,0,0,1,0,0V41A1,1,0,0,1,40.82,40Z"/><path class="cls-6" d="M94,51.45a1.8,1.8,0,0,1-1.8,1.8h-15V49.64h15A1.8,1.8,0,0,1,94,51.45Z"/><path class="cls-2" d="M93.79,52.24a1.76,1.76,0,0,0,.18-.79,1.8,1.8,0,0,0-1.8-1.81h-15v1.59h15A1.83,1.83,0,0,1,93.79,52.24Z"/><rect class="cls-4" x="77.13" y="49.64" width="1.75" height="3.61"/><path class="cls-3" d="M94,51.45a1.8,1.8,0,0,1-1.8,1.8h-15V49.64h15A1.8,1.8,0,0,1,94,51.45Z"/><polygon class="cls-7" points="84.95 66.49 87.96 66.49 90.36 53.25 87.36 53.25 84.95 66.49"/><polygon class="cls-8" points="87.04 54.97 90.05 54.97 90.36 53.25 87.36 53.25 87.04 54.97"/><polygon class="cls-3" points="84.95 66.49 87.96 66.49 90.36 53.25 87.36 53.25 84.95 66.49"/><path class="cls-6" d="M50.45,22H76.13a1,1,0,0,1,1,1V66.49a0,0,0,0,1,0,0H49.45a0,0,0,0,1,0,0V23A1,1,0,0,1,50.45,22Z"/><rect class="cls-4" x="49.45" y="41.22" width="27.68" height="3.01"/><rect class="cls-4" x="49.45" y="24.97" width="27.68" height="3.01"/><path class="cls-3" d="M50.45,22H76.13a1,1,0,0,1,1,1V66.49a0,0,0,0,1,0,0H49.45a0,0,0,0,1,0,0V23A1,1,0,0,1,50.45,22Z"/><rect class="cls-9" x="48.25" y="38.21" width="30.08" height="3.01" rx="1" ry="1"/><path class="cls-10" d="M49.25,22H77.33a1,1,0,0,1,1,1v2a0,0,0,0,1,0,0H48.25a0,0,0,0,1,0,0V23A1,1,0,0,1,49.25,22Z"/><path class="cls-2" d="M77.33,22H49.25a1,1,0,0,0-1,1v1.51a1,1,0,0,1,1-1H77.33a1,1,0,0,1,1,1V23A1,1,0,0,0,77.33,22Z"/><rect class="cls-7" x="54.03" y="21.96" width="2.04" height="3.01"/><rect class="cls-7" x="70.51" y="21.96" width="2.04" height="3.01"/><path class="cls-3" d="M49.25,22H77.33a1,1,0,0,1,1,1v2a0,0,0,0,1,0,0H48.25a0,0,0,0,1,0,0V23A1,1,0,0,1,49.25,22Z"/><rect class="cls-11" x="56.07" y="12.34" width="14.44" height="14.44" rx="2" ry="2"/><path class="cls-2" d="M68.51,12.34H58.07a2,2,0,0,0-2,2v1.75a2,2,0,0,1,2-2H68.51a2,2,0,0,1,2,2V14.34A2,2,0,0,0,68.51,12.34Z"/><rect class="cls-3" x="56.07" y="12.34" width="14.44" height="14.44" rx="2" ry="2"/><path class="cls-12" d="M67.1,17.75h-2v-2a1,1,0,0,0-1-1H62.48a1,1,0,0,0-1,1v2h-2a1,1,0,0,0-1,1v1.61a1,1,0,0,0,1,1h2v2a1,1,0,0,0,1,1h1.61a1,1,0,0,0,1-1v-2h2a1,1,0,0,0,1-1V18.75A1,1,0,0,0,67.1,17.75Z"/><path class="cls-13" d="M57.67,53.25H68.91a1,1,0,0,1,1,1V66.49a0,0,0,0,1,0,0H56.67a0,0,0,0,1,0,0V54.25A1,1,0,0,1,57.67,53.25Z"/><path class="cls-14" d="M68.91,53.25H57.67a1,1,0,0,0-1,1V65.82L69.19,53.29A1.26,1.26,0,0,0,68.91,53.25Z"/><path class="cls-3" d="M57.67,53.25H68.91a1,1,0,0,1,1,1V66.49a0,0,0,0,1,0,0H56.67a0,0,0,0,1,0,0V54.25A1,1,0,0,1,57.67,53.25Z"/><line class="cls-3" x1="63.29" y1="53.25" x2="63.29" y2="66.49"/><rect class="cls-13" x="53.06" y="29.79" width="4.81" height="5.42" rx="1" ry="1"/><path class="cls-14" d="M57.51,30a1,1,0,0,0-.64-.22H54.06a1,1,0,0,0-1,1V34.2a.85.85,0,0,0,0,.23Z"/><rect class="cls-3" x="53.06" y="29.79" width="4.81" height="5.42" rx="1" ry="1"/><rect class="cls-13" x="60.88" y="29.79" width="4.81" height="5.42" rx="1" ry="1"/><path class="cls-14" d="M65.33,30a1,1,0,0,0-.64-.22H61.88a1,1,0,0,0-1,1V34.2a.85.85,0,0,0,0,.23Z"/><rect class="cls-3" x="60.88" y="29.79" width="4.81" height="5.42" rx="1" ry="1"/><rect class="cls-13" x="68.7" y="29.79" width="4.81" height="5.42" rx="1" ry="1"/><path class="cls-14" d="M73.15,30a1,1,0,0,0-.63-.22H69.7a1,1,0,0,0-1,1V34.2a.85.85,0,0,0,0,.23Z"/><rect class="cls-3" x="68.7" y="29.79" width="4.81" height="5.42" rx="1" ry="1"/><rect class="cls-13" x="68.7" y="44.23" width="4.81" height="5.42" rx="1" ry="1"/><path class="cls-14" d="M73.15,44.45a1,1,0,0,0-.63-.22H69.7a1,1,0,0,0-1,1v3.41a.85.85,0,0,0,0,.23Z"/><rect class="cls-3" x="68.7" y="44.23" width="4.81" height="5.42" rx="1" ry="1"/><rect class="cls-13" x="60.88" y="44.23" width="4.81" height="5.42" rx="1" ry="1"/><path class="cls-14" d="M65.33,44.45a1,1,0,0,0-.64-.22H61.88a1,1,0,0,0-1,1v3.41a.85.85,0,0,0,0,.23Z"/><rect class="cls-3" x="60.88" y="44.23" width="4.81" height="5.42" rx="1" ry="1"/><rect class="cls-13" x="53.06" y="44.23" width="4.81" height="5.42" rx="1" ry="1"/><path class="cls-14" d="M57.51,44.45a1,1,0,0,0-.64-.22H54.06a1,1,0,0,0-1,1v3.41a.85.85,0,0,0,0,.23Z"/><rect class="cls-3" x="53.06" y="44.23" width="4.81" height="5.42" rx="1" ry="1"/><rect class="cls-13" x="42.23" y="44.23" width="4.81" height="5.42" rx="1" ry="1"/><path class="cls-14" d="M46.68,44.45a1,1,0,0,0-.64-.22H43.23a1,1,0,0,0-1,1v3.41a.85.85,0,0,0,0,.23Z"/><rect class="cls-3" x="42.23" y="44.23" width="4.81" height="5.42" rx="1" ry="1"/><rect class="cls-13" x="42.23" y="53.25" width="4.81" height="5.42" rx="1" ry="1"/><path class="cls-14" d="M46.68,53.48a1,1,0,0,0-.64-.23H43.23a1,1,0,0,0-1,1v3.42a.91.91,0,0,0,0,.23Z"/><rect class="cls-3" x="42.23" y="53.25" width="4.81" height="5.42" rx="1" ry="1"/><path class="cls-11" d="M32.07,37.65A12.45,12.45,0,0,0,19.62,50.11v4.65a11,11,0,0,0,4.5,8.79l-.9,8.12a1.14,1.14,0,0,0,1.14,1.27H39.78a1.17,1.17,0,0,0,.86-.38,1.12,1.12,0,0,0,.28-.89L40,63.55a11,11,0,0,0,4.51-8.79V50.11A12.46,12.46,0,0,0,32.07,37.65Z"/><path class="cls-2" d="M32.07,37.65A12.45,12.45,0,0,0,19.62,50.11v4.15l0,0a12.44,12.44,0,0,1,24.85,0l0,0V50.11A12.46,12.46,0,0,0,32.07,37.65Z"/><path class="cls-3" d="M32.07,37.65A12.45,12.45,0,0,0,19.62,50.11v4.65a11,11,0,0,0,4.5,8.79l-.9,8.12a1.14,1.14,0,0,0,1.14,1.27H39.78a1.17,1.17,0,0,0,.86-.38,1.12,1.12,0,0,0,.28-.89L40,63.55a11,11,0,0,0,4.51-8.79V50.11A12.46,12.46,0,0,0,32.07,37.65Z"/><path class="cls-15" d="M43,81.7c0,1-4.89,1.73-10.93,1.73s-10.92-.77-10.92-1.73S26,80,32.07,80,43,80.75,43,81.7Z"/><path class="cls-16" d="M32.08,35.35a6.9,6.9,0,0,0,6.57-4.84h0c2.19,0,2.32-3.46.35-3.46V25.67a6.92,6.92,0,1,0-13.84,0v1.38c-2,0-1.84,3.46.35,3.46h0A6.9,6.9,0,0,0,32.08,35.35Z"/><path class="cls-17" d="M29.83,26.36a.87.87,0,1,0,.86.86.86.86,0,0,0-.86-.86Z"/><path class="cls-17" d="M34.33,26.36a.87.87,0,1,0,.86.86.87.87,0,0,0-.86-.86Z"/><path class="cls-18" d="M28.62,29.13a.69.69,0,1,1-.69-.69A.69.69,0,0,1,28.62,29.13Z"/><path class="cls-18" d="M36.92,29.13a.69.69,0,1,1-.69-.69A.69.69,0,0,1,36.92,29.13Z"/><path class="cls-3" d="M30.35,31.27a3.11,3.11,0,0,0,3.46,0"/><path class="cls-19" d="M28.27,22.88c3,2.95,8.26,2.46,11.41,1.39a7.61,7.61,0,0,0-15.22,0v2.41s3.81-1,3.81-3.81"/><path class="cls-20" d="M32.07,20A7.62,7.62,0,0,1,39,24.48c.23-.07.48-.13.7-.21a7.61,7.61,0,0,0-15.22,0v2.41l.1,0A7.57,7.57,0,0,1,32.07,20Z"/><path class="cls-3" d="M28.27,22.88c3,2.95,8.26,2.46,11.41,1.39a7.61,7.61,0,0,0-15.22,0v2.41s3.81-1,3.81-3.81"/><path class="cls-3" d="M28.27,22.88c-.36-.34-.41-.28-.69-.72"/><polygon class="cls-21" points="30 79.86 30.3 72.94 24.46 72.94 24.46 79.86 30 79.86"/><polygon class="cls-21" points="34.15 79.86 33.85 72.94 39.68 72.94 39.68 79.86 34.15 79.86"/><path class="cls-22" d="M23.59,78.77A1.16,1.16,0,0,0,23.54,80a1.15,1.15,0,0,0,1,.6h4.74a1.15,1.15,0,0,0,1-1.68C29.05,76.45,25,76.58,23.59,78.77Z"/><path class="cls-22" d="M40.55,78.77A1.16,1.16,0,0,1,40.6,80a1.15,1.15,0,0,1-1,.6H34.86a1.14,1.14,0,0,1-1-1.68C35.09,76.45,39.12,76.58,40.55,78.77Z"/><path class="cls-23" d="M33.52,65.33a1.74,1.74,0,0,0-.11-.45,4.73,4.73,0,0,1-1-.86,1,1,0,0,0-.72,0,4.94,4.94,0,0,1-1,.86,1.19,1.19,0,0,0-.11.45l-.33,7.61h3.55Z"/><path class="cls-3" d="M24.46,50.11v4.65a5.74,5.74,0,0,0,2.69,4.91A1.16,1.16,0,0,1,27.56,61l-1,2.48a1.17,1.17,0,0,1-.69.67,1.16,1.16,0,0,1-1-.1,7.47,7.47,0,0,1-.81-.53"/><path class="cls-3" d="M39.68,50.11v4.65A5.74,5.74,0,0,1,37,59.67,1.16,1.16,0,0,0,36.58,61l1,2.48a1.19,1.19,0,0,0,.7.67,1.13,1.13,0,0,0,1-.1,8.69,8.69,0,0,0,.82-.53"/><polygon class="cls-24" points="28.72 43.8 32.07 52.19 35.43 43.8 32.07 41.11 28.72 43.8"/><polygon class="cls-25" points="30.17 47.44 32.07 41.11 33.97 47.44 32.07 52.19 30.17 47.44"/><path class="cls-16" d="M32.07,37.65a12.48,12.48,0,0,0-2.81.32l2.81,3.14L34.88,38A12.35,12.35,0,0,0,32.07,37.65Z"/><path class="cls-24" d="M28.72,43.8l3.35-2.69L29.26,38a12.74,12.74,0,0,0-2.52.88Z"/><path class="cls-24" d="M35.43,43.8l-3.36-2.69L34.88,38a12.52,12.52,0,0,1,2.52.88Z"/><path class="cls-26" d="M26.54,44.57l-.62,3.09a.58.58,0,0,0,.24.59l5.91,3.93L26.74,38.86a13.37,13.37,0,0,0-1.8,1l-1.55,3.89a.56.56,0,0,0,.06.53.58.58,0,0,0,.48.25Z"/><path class="cls-26" d="M37.61,44.57l.61,3.09a.58.58,0,0,1-.24.59l-5.91,3.93L37.4,38.86a13.37,13.37,0,0,1,1.8,1l1.55,3.89a.56.56,0,0,1-.06.53.55.55,0,0,1-.47.25Z"/><line class="cls-3" x1="32.07" y1="72.94" x2="32.07" y2="52.18"/></svg>