<svg id="Layer_1" data-name="Layer 1" xmlns="http://www.w3.org/2000/svg" viewBox="0 0 100 100"><defs><style>.cls-1{fill:#e8f4fa;}.cls-2{fill:#fff;}.cls-2,.cls-5,.cls-6{stroke:#45413c;stroke-linejoin:round;}.cls-3{fill:#bf8256;}.cls-4{fill:#dea47a;}.cls-5{fill:none;}.cls-5,.cls-6{stroke-linecap:round;}.cls-6,.cls-9{fill:#6dd627;}.cls-7{fill:#00b8f0;}.cls-8{fill:#009fd9;}.cls-10{fill:#46b000;}</style></defs><title>ecology-globe</title><circle class="cls-1" cx="50" cy="50" r="40"/><path class="cls-2" d="M39.84,25.44a2.94,2.94,0,0,0-1,.19,4.75,4.75,0,0,0-9.39,0,2.9,2.9,0,0,0-1-.19,2.86,2.86,0,0,0,0,5.72H39.84a2.86,2.86,0,1,0,0-5.72Z"/><path class="cls-2" d="M81.35,32.35a3,3,0,0,0-1,.2,4.75,4.75,0,0,0-9.39,0,3,3,0,0,0-1-.2,2.87,2.87,0,0,0,0,5.73H81.35a2.87,2.87,0,0,0,0-5.73Z"/><path class="cls-3" d="M46.22,57.4,58.86,40.11a1.19,1.19,0,0,1,1.92,0L73.42,57.4Z"/><path class="cls-4" d="M58.93,44.3a1.11,1.11,0,0,1,1.78,0l9.57,13.1h3.14L60.78,40.11a1.19,1.19,0,0,0-1.92,0L46.22,57.4h3.14Z"/><path class="cls-5" d="M46.22,57.4,58.86,40.11a1.19,1.19,0,0,1,1.92,0L73.42,57.4Z"/><path class="cls-3" d="M39.42,57.4,50.68,44.16a1.2,1.2,0,0,1,1.82,0L63.76,57.4Z"/><path class="cls-4" d="M50.75,48.37a1.1,1.1,0,0,1,1.68,0l7.68,9h3.65L52.5,44.16a1.2,1.2,0,0,0-1.82,0L39.43,57.4h3.64Z"/><path class="cls-5" d="M39.43,57.4,50.68,44.16a1.2,1.2,0,0,1,1.82,0L63.76,57.4Z"/><line class="cls-5" x1="30.24" y1="57.4" x2="30.24" y2="51.68"/><polygon class="cls-6" points="35.97 47.38 31.67 42.37 34.53 42.37 30.24 37.36 25.95 42.37 28.81 42.37 24.52 47.38 28.09 47.38 24.52 51.68 30.24 51.68 35.97 51.68 32.39 47.38 35.97 47.38"/><path class="cls-7" d="M25.71,57.4a1.12,1.12,0,0,0-.81.35,1.16,1.16,0,0,0-.29.83,25,25,0,0,0,49.9,0,1.05,1.05,0,0,0-.29-.83,1.07,1.07,0,0,0-.8-.36Z"/><path class="cls-8" d="M73.74,57.45a25,25,0,0,1-48.35,0,1.25,1.25,0,0,0-.49.3,1.16,1.16,0,0,0-.29.83,25,25,0,0,0,49.9,0,1.05,1.05,0,0,0-.29-.83A1.08,1.08,0,0,0,73.74,57.45Z"/><path class="cls-5" d="M25.71,57.4a1.12,1.12,0,0,0-.81.35,1.16,1.16,0,0,0-.29.83,25,25,0,0,0,49.9,0,1.05,1.05,0,0,0-.29-.83,1.07,1.07,0,0,0-.8-.36Z"/><path class="cls-6" d="M35.25,57.4a2.87,2.87,0,0,0,0,5.73A2.92,2.92,0,0,1,38,65.18l2.39,7.66a2.48,2.48,0,0,0,4.84-.74v-2a8.19,8.19,0,0,1,2.39-5.78A4,4,0,0,0,44.8,57.4Z"/><path class="cls-9" d="M68.89,72.58V67.92a4.08,4.08,0,0,0-4.08-4.08,3.08,3.08,0,0,0-3.08,3.08,3.08,3.08,0,0,1-2.61,3l-.76.12A7.87,7.87,0,0,0,51.73,77l-.56,4.69A24.93,24.93,0,0,0,68.89,72.58Z"/><path class="cls-10" d="M68.89,67.92a4,4,0,0,0-.11-.92,24.92,24.92,0,0,1-16.86,8.9A7.34,7.34,0,0,0,51.73,77l-.56,4.69a24.93,24.93,0,0,0,17.72-9.07Z"/><path class="cls-5" d="M68.89,72.58V67.92a4.08,4.08,0,0,0-4.08-4.08,3.08,3.08,0,0,0-3.08,3.08,3.08,3.08,0,0,1-2.61,3l-.76.12A7.87,7.87,0,0,0,51.73,77l-.56,4.69A24.93,24.93,0,0,0,68.89,72.58Z"/><line class="cls-5" x1="43.12" y1="57.4" x2="43.12" y2="53.11"/><polygon class="cls-6" points="48.85 48.81 44.55 43.8 47.42 43.8 43.12 38.8 38.83 43.8 41.69 43.8 37.4 48.81 40.98 48.81 37.4 53.11 43.12 53.11 48.85 53.11 45.27 48.81 48.85 48.81"/></svg>