<svg id="Layer_1" data-name="Layer 1" xmlns="http://www.w3.org/2000/svg" viewBox="0 0 100 100"><defs><style>.cls-1{fill:#fff;}.cls-2{fill:#e8f4fa;}.cls-3{fill:none;}.cls-12,.cls-14,.cls-3,.cls-7,.cls-8,.cls-9{stroke:#45413c;stroke-linejoin:round;}.cls-12,.cls-3,.cls-7,.cls-8,.cls-9{stroke-linecap:round;}.cls-4{fill:#debb7e;}.cls-5{fill:#f0d5a8;}.cls-6{fill:#f7e5c6;}.cls-13,.cls-7{fill:#ff866e;}.cls-8{fill:#f0f0f0;}.cls-9{fill:#bdbec0;}.cls-10{fill:#ff6242;}.cls-11{fill:#e04122;}.cls-12{fill:#656769;}.cls-14{fill:#6dd627;}</style></defs><title>farm-barn</title><g id="_Group_" data-name="&lt;Group&gt;"><path class="cls-1" d="M50,90A39.94,39.94,0,0,0,84.61,70H15.39A39.94,39.94,0,0,0,50,90Z"/><path class="cls-1" d="M13.56,66.5c.55,1.2,1.17,2.36,1.83,3.5H84.61c.66-1.14,1.28-2.3,1.83-3.5Z"/><path class="cls-2" d="M90,50A40,40,0,1,0,13.56,66.5H86.44A39.85,39.85,0,0,0,90,50Z"/><line class="cls-3" x1="11" y1="66.5" x2="89" y2="66.5"/><line class="cls-3" x1="6.5" y1="66.5" x2="9" y2="66.5"/><line class="cls-3" x1="91" y1="66.5" x2="93.5" y2="66.5"/></g><rect class="cls-4" x="63.86" y="20.79" width="16.98" height="45.71"/><path class="cls-5" d="M80.84,37.66h-17V19.49A8.49,8.49,0,0,1,72.35,11h0a8.49,8.49,0,0,1,8.49,8.49Z"/><rect class="cls-3" x="63.86" y="20.79" width="16.98" height="45.71"/><path class="cls-6" d="M72.35,11a8.49,8.49,0,0,0-8.49,8.49v1.3h.23a8.49,8.49,0,0,1,16.52,0h.23v-1.3A8.49,8.49,0,0,0,72.35,11Z"/><path class="cls-3" d="M80.84,20.79h-17v-1.3A8.49,8.49,0,0,1,72.35,11h0a8.49,8.49,0,0,1,8.49,8.49Z"/><line class="cls-3" x1="77.58" y1="60.62" x2="77.58" y2="19.49"/><line class="cls-3" x1="74.31" y1="60.62" x2="74.31" y2="19.49"/><line class="cls-3" x1="70.39" y1="42.34" x2="70.39" y2="19.49"/><line class="cls-3" x1="67.13" y1="39.08" x2="67.13" y2="19.49"/><path class="cls-7" d="M44.78,26h5.53a.5.5,0,0,1,.5.5v4.07a0,0,0,0,1,0,0H44.28a0,0,0,0,1,0,0V26.52A.5.5,0,0,1,44.78,26Z"/><rect class="cls-8" x="45.58" y="22.1" width="3.92" height="3.92"/><path class="cls-9" d="M44.28,22.1h6.53L48,18.68a.55.55,0,0,0-.42-.19.57.57,0,0,0-.42.19Z"/><path class="cls-8" d="M61,36.46a3.08,3.08,0,0,0-1.1-1l-9.37-5.15-2-1.14a2,2,0,0,0-1.91,0l-2.06,1.14-9.37,5.15a3.16,3.16,0,0,0-1.1,1L27.3,46.91V66.5H67.78V46.91Z"/><path class="cls-10" d="M30.91,49.52H64.17a1,1,0,0,1,1,1v16a0,0,0,0,1,0,0H29.91a0,0,0,0,1,0,0v-16A1,1,0,0,1,30.91,49.52Z"/><path class="cls-10" d="M31.64,45.24a1.09,1.09,0,0,0,.92,1.67h30a1.09,1.09,0,0,0,.92-1.67l-4.5-7a2.05,2.05,0,0,0-.79-.73L48.2,32.24a1.4,1.4,0,0,0-1.32,0l-10,5.27a2.13,2.13,0,0,0-.79.73Z"/><path class="cls-11" d="M63.44,45.24l-4.5-7a2.05,2.05,0,0,0-.79-.73L48.2,32.24a1.4,1.4,0,0,0-1.32,0l-10,5.27a2.13,2.13,0,0,0-.79.73l-4.5,7a1.08,1.08,0,0,0,.92,1.67h.77L37.77,40a2.08,2.08,0,0,1,.8-.73l8.31-4.18a1.4,1.4,0,0,1,1.32,0l8.31,4.18a2.08,2.08,0,0,1,.8.73l4.45,6.91h.76a1.08,1.08,0,0,0,.92-1.67Z"/><path class="cls-3" d="M31.64,45.24a1.09,1.09,0,0,0,.92,1.67h30a1.09,1.09,0,0,0,.92-1.67l-4.5-7a2.05,2.05,0,0,0-.79-.73L48.2,32.24a1.4,1.4,0,0,0-1.32,0l-10,5.27a2.13,2.13,0,0,0-.79.73Z"/><rect class="cls-12" x="42.97" y="54.75" width="9.14" height="11.75"/><rect class="cls-13" x="35.14" y="54.75" width="7.84" height="11.75"/><rect class="cls-10" x="35.14" y="54.75" width="7.84" height="1.61"/><rect class="cls-3" x="35.14" y="54.75" width="7.84" height="11.75"/><path class="cls-12" d="M45.93,38.64h3.22a1,1,0,0,1,1,1v7.27a0,0,0,0,1,0,0H44.93a0,0,0,0,1,0,0V39.64A1,1,0,0,1,45.93,38.64Z"/><path class="cls-7" d="M43.32,39.73h1.61a0,0,0,0,1,0,0v7.18a0,0,0,0,1,0,0H42.32a0,0,0,0,1,0,0V40.73A1,1,0,0,1,43.32,39.73Z"/><path class="cls-7" d="M50.15,39.73h1.61a1,1,0,0,1,1,1v6.18a0,0,0,0,1,0,0H50.15a0,0,0,0,1,0,0V39.73A0,0,0,0,1,50.15,39.73Z"/><rect class="cls-8" x="34.05" y="52.14" width="26.99" height="2.61" rx="1" ry="1"/><line class="cls-8" x1="27.3" y1="46.91" x2="24.34" y2="51.48"/><line class="cls-8" x1="67.78" y1="46.91" x2="70.74" y2="51.48"/><line class="cls-3" x1="35.14" y1="54.75" x2="42.97" y2="66.5"/><line class="cls-3" x1="42.97" y1="54.75" x2="35.14" y2="66.5"/><rect class="cls-13" x="52.11" y="54.75" width="7.84" height="11.75"/><rect class="cls-10" x="52.11" y="54.75" width="7.84" height="1.61"/><rect class="cls-3" x="52.11" y="54.75" width="7.84" height="11.75"/><line class="cls-3" x1="52.11" y1="54.75" x2="59.95" y2="66.5"/><line class="cls-3" x1="59.95" y1="54.75" x2="52.11" y2="66.5"/><line class="cls-3" x1="44.93" y1="41.69" x2="42.32" y2="44.95"/><line class="cls-3" x1="50.15" y1="41.69" x2="52.76" y2="44.95"/><line class="cls-3" x1="83.45" y1="19.49" x2="83.45" y2="64.54"/><rect class="cls-3" x="80.84" y="20.79" width="2.61" height="7.84"/><rect class="cls-3" x="80.84" y="36.46" width="2.61" height="7.84"/><rect class="cls-3" x="80.84" y="52.14" width="2.61" height="7.84"/><path class="cls-14" d="M20.77,54.09c0,3.46-1.24,6.44-2.61,6.44s-2.61-3-2.61-6.44,2.61-12.5,2.61-12.5S20.77,50.64,20.77,54.09Z"/><line class="cls-3" x1="18.16" y1="60.53" x2="18.16" y2="66.5"/><path class="cls-11" d="M30.91,49.52H64.17a1,1,0,0,1,1,1v1.17a0,0,0,0,1,0,0H29.91a0,0,0,0,1,0,0V50.52A1,1,0,0,1,30.91,49.52Z"/><path class="cls-3" d="M30.91,49.52H64.17a1,1,0,0,1,1,1v16a0,0,0,0,1,0,0H29.91a0,0,0,0,1,0,0v-16A1,1,0,0,1,30.91,49.52Z"/></svg>