<svg id="Layer_1" data-name="Layer 1" xmlns="http://www.w3.org/2000/svg" viewBox="0 0 100 100"><defs><style>.cls-1{fill:#fff;}.cls-2,.cls-6{fill:#e8f4fa;}.cls-3{fill:none;}.cls-11,.cls-14,.cls-15,.cls-16,.cls-21,.cls-22,.cls-3,.cls-4,.cls-5,.cls-6,.cls-7,.cls-8,.cls-9{stroke:#45413c;}.cls-11,.cls-14,.cls-15,.cls-16,.cls-21,.cls-22,.cls-3,.cls-4,.cls-5,.cls-6,.cls-7,.cls-9{stroke-linecap:round;stroke-linejoin:round;}.cls-4{fill:#6dd627;}.cls-5{fill:#ff6242;}.cls-7{fill:#ffe500;}.cls-13,.cls-8{fill:#020202;opacity:0.15;}.cls-8{stroke-miterlimit:10;stroke-width:0;}.cls-9{fill:#d18660;}.cls-10{fill:#f0d5a8;}.cls-11{fill:#87898c;}.cls-12{fill:#debb7e;}.cls-14{fill:#656769;}.cls-15{fill:#c0dceb;}.cls-16{fill:#a6fbff;}.cls-17{fill:#45413c;}.cls-18{fill:#bd704a;}.cls-19{fill:#724f3d;}.cls-20{fill:#a86c4d;}.cls-21{fill:#4acfff;}.cls-22{fill:#00b8f0;}</style></defs><title>golfer-male</title><path class="cls-1" d="M50,90A39.94,39.94,0,0,0,84.61,70H15.39A39.94,39.94,0,0,0,50,90Z"/><path class="cls-1" d="M13.56,66.5c.55,1.2,1.17,2.36,1.83,3.5H84.61c.66-1.14,1.28-2.3,1.83-3.5Z"/><path class="cls-2" d="M90,50A40,40,0,1,0,13.56,66.5H86.44A39.85,39.85,0,0,0,90,50Z"/><line class="cls-3" x1="11" y1="66.5" x2="89" y2="66.5"/><line class="cls-3" x1="6.5" y1="66.5" x2="9" y2="66.5"/><line class="cls-3" x1="91" y1="66.5" x2="93.5" y2="66.5"/><path class="cls-4" d="M18.5,66.5s16.25-9.75,45.75-9.75C82.75,56.75,85,66.5,85,66.5Z"/><line class="cls-3" x1="64" y1="56.75" x2="64" y2="42"/><path class="cls-5" d="M64,37.52V42l4.86-2.08a1,1,0,0,0,0-1.84L65.39,36.6A1,1,0,0,0,64,37.52Z"/><path class="cls-6" d="M66.1,75.17a2.55,2.55,0,1,1-2.55-2.55A2.55,2.55,0,0,1,66.1,75.17Z"/><path class="cls-7" d="M61.5,77.72h4.11a.3.3,0,0,1,.26.44l-1.24,1.47L63.81,82a.29.29,0,0,1-.52,0l-.81-2.34-1.24-1.47A.3.3,0,0,1,61.5,77.72Z"/><ellipse class="cls-8" cx="63.59" cy="82.32" rx="5.75" ry="1.72"/><path class="cls-9" d="M21.91,64.22a1.84,1.84,0,0,0,2,1.8,2,2,0,0,0,2-2V53.38h-4Z"/><path class="cls-10" d="M35.6,79.65a3.46,3.46,0,0,1,2.41-1h.57a3.48,3.48,0,0,1,2.3.88V63.15h-15v16.4a3.48,3.48,0,0,1,2.3-.88h.57a3.46,3.46,0,0,1,2.41,1l.41-11.33a1.79,1.79,0,0,1,3.57,0Z"/><path class="cls-11" d="M40.57,82.12a1.14,1.14,0,0,0,1-1.66,3.44,3.44,0,0,0-3-1.79H38a3.43,3.43,0,0,0-3,1.79,1.14,1.14,0,0,0,1,1.66Z"/><rect class="cls-12" x="25.93" y="63.15" width="14.95" height="2.87"/><ellipse class="cls-13" cx="33.41" cy="83.27" rx="11.5" ry="1.73"/><path class="cls-3" d="M35.62,79.64a3.47,3.47,0,0,1,2.39-1h.57a3.42,3.42,0,0,1,2.3.89V63.15h-15V79.56a3.42,3.42,0,0,1,2.3-.89h.57a3.47,3.47,0,0,1,2.39,1l.43-11.31a1.79,1.79,0,0,1,3.57,0Z"/><path class="cls-11" d="M30.79,82.12a1.14,1.14,0,0,0,1-1.66,3.43,3.43,0,0,0-3-1.79h-.57a3.44,3.44,0,0,0-3,1.79,1.14,1.14,0,0,0,1,1.66Z"/><path class="cls-2" d="M25.93,63.15h15V53.38h4v-2.3a11.5,11.5,0,0,0-23,0v2.3h4Z"/><path class="cls-1" d="M33.41,39.58a11.49,11.49,0,0,0-11.5,11.5v2.3h.18a11.49,11.49,0,0,1,22.63,0h.19v-2.3A11.5,11.5,0,0,0,33.41,39.58Z"/><path class="cls-3" d="M25.93,63.15h15V53.38h4v-2.3a11.5,11.5,0,0,0-23,0v2.3h4Z"/><line class="cls-3" x1="25.93" y1="53.38" x2="25.93" y2="49.35"/><line class="cls-3" x1="40.88" y1="53.38" x2="40.88" y2="49.35"/><line class="cls-3" x1="48.55" y1="77.95" x2="48.55" y2="60.12"/><path class="cls-14" d="M48.55,53.22h0a1.16,1.16,0,0,0-1.15,1.15v5.18a.58.58,0,0,0,.58.57h1.15a.58.58,0,0,0,.57-.57V54.37A1.15,1.15,0,0,0,48.55,53.22Z"/><path class="cls-9" d="M40.88,53.38h4v3.16a2.58,2.58,0,0,0,2.58,2.59h0a2,2,0,0,1,2,2h0a2,2,0,0,1-2,2h0a6.61,6.61,0,0,1-6.61-6.61Z"/><path class="cls-11" d="M47.49,59.13a2.58,2.58,0,0,1-1.29-.36L45,62.66a6.66,6.66,0,0,0,2.49.49,2,2,0,1,0,0-4Z"/><path class="cls-15" d="M49.19,82h0a2.14,2.14,0,0,0,1.23.62l2,.29a1.28,1.28,0,0,0,1.45-1.09l.18-1.29a1.28,1.28,0,0,0-1.27-1.46H50.64A2.28,2.28,0,0,1,49,78.43L48.55,78v2.54A2.15,2.15,0,0,0,49.19,82Z"/><path class="cls-16" d="M29.38,44.45a.56.56,0,0,0,.26.48.55.55,0,0,0,.54,0l3.23-1.38-3.49-3.49-.54.19Z"/><path class="cls-16" d="M37.43,44.45a.56.56,0,0,1-.26.48.55.55,0,0,1-.54,0L33.41,43.6l3.48-3.49.54.19Z"/><line class="cls-3" x1="33.41" y1="47.05" x2="33.41" y2="43.6"/><path class="cls-9" d="M33.41,39.58a11.48,11.48,0,0,0-3.49.53l3.49,3.49,3.48-3.49A11.46,11.46,0,0,0,33.41,39.58Z"/><path class="cls-9" d="M41.46,30.38A1.41,1.41,0,0,0,40.31,29v-.92a6.9,6.9,0,0,0-13.8,0V29a1.4,1.4,0,0,0-1.15,1.38,1.41,1.41,0,0,0,1.29,1.4,6.9,6.9,0,0,0,13.51,0A1.42,1.42,0,0,0,41.46,30.38Z"/><path class="cls-17" d="M30.82,28.08a.86.86,0,0,0,0,1.72.86.86,0,1,0,0-1.72Z"/><path class="cls-17" d="M36,28.08a.86.86,0,1,0,.87.86.86.86,0,0,0-.87-.86Z"/><circle class="cls-18" cx="29.67" cy="31.24" r="0.86"/><circle class="cls-18" cx="37.14" cy="31.24" r="0.86"/><path class="cls-3" d="M31.68,33.3a3.1,3.1,0,0,0,3.45,0"/><path class="cls-19" d="M33.41,18.88a7.47,7.47,0,0,0-7.48,7.47V28a1.16,1.16,0,0,0,.87,1.12c.12,0,.75.19.86.19a.58.58,0,0,0,.57-.57V26.42c0-1.08.67-2.71,1.74-2.71a1.3,1.3,0,0,1,.66.19,5.64,5.64,0,0,0,5.55,0,1.32,1.32,0,0,1,.66-.19c1.08,0,1.74,1.63,1.74,2.71v2.32a.58.58,0,0,0,.58.57c.11,0,.73-.17.85-.19A1.16,1.16,0,0,0,40.88,28V26.35A7.47,7.47,0,0,0,33.41,18.88Z"/><path class="cls-20" d="M33.41,18.88a7.47,7.47,0,0,0-7.48,7.47v1.4A1.5,1.5,0,0,0,26,28a7.49,7.49,0,0,1,14.91,0,.78.78,0,0,0,0-.22v-1.4A7.47,7.47,0,0,0,33.41,18.88Z"/><path class="cls-3" d="M33.41,18.88a7.47,7.47,0,0,0-7.48,7.47V28a1.16,1.16,0,0,0,.87,1.12c.12,0,.75.19.86.19a.58.58,0,0,0,.57-.57V26.42c0-1.08.67-2.71,1.74-2.71a1.3,1.3,0,0,1,.66.19,5.64,5.64,0,0,0,5.55,0,1.32,1.32,0,0,1,.66-.19c1.08,0,1.74,1.63,1.74,2.71v2.32a.58.58,0,0,0,.58.57c.11,0,.73-.17.85-.19A1.16,1.16,0,0,0,40.88,28V26.35A7.47,7.47,0,0,0,33.41,18.88Z"/><path class="cls-21" d="M40.79,25.2H26a7.3,7.3,0,0,1,1.1-2.89H39.7A7.44,7.44,0,0,1,40.79,25.2Z"/><path class="cls-22" d="M26,25.2s1,2.88,7.36,2.88,7.41-2.88,7.41-2.88Z"/></svg>