<svg id="Layer_1" data-name="Layer 1" xmlns="http://www.w3.org/2000/svg" viewBox="0 0 100 100"><defs><style>.cls-1{fill:#e8f4fa;}.cls-18,.cls-2{fill:#fff;}.cls-12,.cls-3{fill:none;}.cls-15,.cls-17,.cls-18,.cls-3,.cls-5,.cls-9{stroke:#45413c;}.cls-12,.cls-15,.cls-17,.cls-18,.cls-3,.cls-5,.cls-9{stroke-linecap:round;stroke-linejoin:round;}.cls-4{fill:#45413c;}.cls-5,.cls-6{fill:#bf8256;}.cls-7{fill:#dea47a;}.cls-8{fill:#915e3a;}.cls-20,.cls-9{fill:#656769;}.cls-10{fill:#f7e5c6;}.cls-11{fill:#f0d5a8;}.cls-12{stroke:#e0e0e0;}.cls-13{fill:#020202;opacity:0.15;}.cls-14{fill:#614b44;}.cls-15{fill:#ffda8f;}.cls-16{fill:#ffbe3d;}.cls-17,.cls-21{fill:#525252;}.cls-19{fill:#87898c;}.cls-22{fill:#ffe500;}.cls-23{fill:#fff48c;}</style></defs><title>graduate-female</title><path class="cls-1" d="M90.5,50A40,40,0,1,0,14.06,66.5H86.94A39.85,39.85,0,0,0,90.5,50Z"/><path class="cls-2" d="M14.06,66.5a40,40,0,0,0,72.88,0Z"/><line class="cls-3" x1="11" y1="66.5" x2="89" y2="66.5"/><line class="cls-3" x1="6.5" y1="66.5" x2="9" y2="66.5"/><line class="cls-3" x1="91" y1="66.5" x2="93.5" y2="66.5"/><path class="cls-3" d="M64,45.5v-1a2,2,0,0,1,.8-1.6L66,42"/><path class="cls-4" d="M66,41a1,1,0,1,0,1,1,1,1,0,0,0-1-1Z"/><path class="cls-3" d="M75,45.5v-1a2,2,0,0,0-.8-1.6L73,42"/><path class="cls-4" d="M73,41a1,1,0,1,0,1,1,1,1,0,0,0-1-1Z"/><path class="cls-5" d="M76,64.5H63a1,1,0,0,0-1,1v1H77v-1A1,1,0,0,0,76,64.5Z"/><rect class="cls-6" x="62" y="45.5" width="15" height="9" rx="1" ry="1"/><path class="cls-7" d="M76,45.5H63a1,1,0,0,0-1,1v2a1,1,0,0,1,1-1H76a1,1,0,0,1,1,1v-2A1,1,0,0,0,76,45.5Z"/><rect class="cls-3" x="62" y="45.5" width="15" height="9" rx="1" ry="1"/><rect class="cls-6" x="64" y="54.5" width="11" height="10"/><rect class="cls-8" x="64" y="54.5" width="11" height="2.5"/><rect class="cls-3" x="64" y="54.5" width="11" height="10"/><circle class="cls-9" cx="69.5" cy="50" r="3"/><rect class="cls-10" x="66" y="54.5" width="7" height="10"/><rect class="cls-11" x="66" y="54.5" width="7" height="2.5"/><rect class="cls-3" x="66" y="54.5" width="7" height="10"/><path class="cls-12" d="M68.44,48.94a1.49,1.49,0,0,1,2.12,0"/><path class="cls-12" d="M70.56,51.06a1.49,1.49,0,0,1-2.12,0"/><ellipse class="cls-13" cx="41.39" cy="79.57" rx="11.5" ry="1.73"/><path class="cls-14" d="M39.18,42.75a5.43,5.43,0,0,0,2.21.49,5.52,5.52,0,0,0,2.22-.49,2.41,2.41,0,0,0,1.92,1.18c1.53,0,2.76-1.86,2.76-4.14,0-.24,0-.47,0-.7h0a2.27,2.27,0,0,0,2.07-2.42,2.57,2.57,0,0,0-.74-1.84c1.21-.43,2.12-2.07,2.12-4a5.09,5.09,0,0,0-1-3.19,2.67,2.67,0,0,0,.33-1.3A2.26,2.26,0,0,0,49,23.92a1.33,1.33,0,0,0-.28,0C47.3,19.82,44.56,17,41.39,17s-5.9,2.8-7.3,6.93a1.36,1.36,0,0,0-.29,0,2.26,2.26,0,0,0-2.07,2.41,2.78,2.78,0,0,0,.33,1.3,5.15,5.15,0,0,0-1,3.19c0,2,.91,3.59,2.13,4a2.58,2.58,0,0,0-.75,1.84,2.27,2.27,0,0,0,2.07,2.42h0a5.36,5.36,0,0,0,0,.7c0,2.28,1.24,4.14,2.76,4.14A2.42,2.42,0,0,0,39.18,42.75Z"/><path class="cls-3" d="M39.18,42.75a5.43,5.43,0,0,0,2.21.49,5.52,5.52,0,0,0,2.22-.49,2.41,2.41,0,0,0,1.92,1.18c1.53,0,2.76-1.86,2.76-4.14,0-.24,0-.47,0-.7h0a2.27,2.27,0,0,0,2.07-2.42,2.57,2.57,0,0,0-.74-1.84c1.21-.43,2.12-2.07,2.12-4a5.09,5.09,0,0,0-1-3.19,2.67,2.67,0,0,0,.33-1.3A2.26,2.26,0,0,0,49,23.92a1.33,1.33,0,0,0-.28,0C47.3,19.82,44.56,17,41.39,17s-5.9,2.8-7.3,6.93a1.36,1.36,0,0,0-.29,0,2.26,2.26,0,0,0-2.07,2.41,2.78,2.78,0,0,0,.33,1.3,5.15,5.15,0,0,0-1,3.19c0,2,.91,3.59,2.13,4a2.58,2.58,0,0,0-.75,1.84,2.27,2.27,0,0,0,2.07,2.42h0a5.36,5.36,0,0,0,0,.7c0,2.28,1.24,4.14,2.76,4.14A2.42,2.42,0,0,0,39.18,42.75Z"/><path class="cls-15" d="M34.49,26.68a6.9,6.9,0,0,0,13.8,0V23.92a6.9,6.9,0,1,0-13.8,0Z"/><circle class="cls-16" cx="37.25" cy="27.37" r="0.69"/><circle class="cls-16" cx="45.53" cy="27.37" r="0.69"/><path class="cls-3" d="M39.67,29.5a3.1,3.1,0,0,0,3.45,0"/><path class="cls-3" d="M37.94,25.58a1,1,0,0,1,1.38,0"/><path class="cls-3" d="M43.46,25.58a1,1,0,0,1,1.38,0"/><path class="cls-17" d="M45.11,16.33H37.68a2.76,2.76,0,0,0-2.75,2.48l-.44,4.42,2.25-1.13A1.39,1.39,0,0,1,37.8,22l3.16,1a1.44,1.44,0,0,0,.87,0L45,22a1.36,1.36,0,0,1,1,.07l2.25,1.13-.44-4.42A2.75,2.75,0,0,0,45.11,16.33Z"/><line class="cls-3" x1="29.66" y1="16.33" x2="53.12" y2="16.33"/><path class="cls-17" d="M42.77,15.64a1.38,1.38,0,1,0-2.76,0v.69h2.76Z"/><polygon class="cls-15" points="41.39 77.73 45.53 77.73 46.22 66.69 41.39 66.69 41.39 77.73"/><polygon class="cls-16" points="41.39 72.91 41.39 66.69 46.22 66.69 45.84 72.91 41.39 72.91"/><polygon class="cls-3" points="41.39 77.73 45.53 77.73 46.22 66.69 41.39 66.69 41.39 77.73"/><polygon class="cls-15" points="41.39 77.73 37.25 77.73 36.56 66.69 41.39 66.69 41.39 77.73"/><polygon class="cls-16" points="41.39 72.91 41.39 66.69 36.56 66.69 36.95 72.91 41.39 72.91"/><polygon class="cls-3" points="41.39 77.73 37.25 77.73 36.56 66.69 41.39 66.69 41.39 77.73"/><line class="cls-3" x1="41.39" y1="66.7" x2="41.39" y2="77.74"/><path class="cls-9" d="M36.64,78.43a1.16,1.16,0,0,1-1-1.73,3.43,3.43,0,0,1,3-1.72,2.75,2.75,0,0,1,2.76,2.76.69.69,0,0,1-.69.69Z"/><path class="cls-9" d="M46.15,78.43a1.16,1.16,0,0,0,1-1.73,3.44,3.44,0,0,0-3-1.72,2.76,2.76,0,0,0-2.76,2.76.69.69,0,0,0,.69.69Z"/><path class="cls-18" d="M51.74,46A10.35,10.35,0,0,0,31,46v3.79H47.6v8.63h4.14Z"/><line class="cls-3" x1="35.18" y1="57.73" x2="35.18" y2="43.93"/><line class="cls-3" x1="47.6" y1="57.73" x2="47.6" y2="43.93"/><line class="cls-3" x1="41.4" y1="38.41" x2="41.39" y2="45.12"/><path class="cls-18" d="M39.11,39.93l2.28-1.52h0L38,36.22a10,10,0,0,0-2.08,1Z"/><path class="cls-18" d="M43.67,39.93l-2.28-1.52h0l3.41-2.18a10,10,0,0,1,2.08,1Z"/><path class="cls-15" d="M47.6,60.49a2.07,2.07,0,1,0,4.14,0V58.42H47.6Z"/><path class="cls-15" d="M35.18,48v1.3A6.2,6.2,0,0,1,29,55.46c-3.08,0-4.44-1.87-6.63-4.07a2.07,2.07,0,1,1,2.92-2.93C27,50.24,27.64,51.29,29,51.29a2,2,0,0,0,2.07-2c0-.43,0-1.3,0-1.3Z"/><path class="cls-18" d="M25.26,48.46C27,50.24,27.64,51.29,29,51.29a2,2,0,0,0,2.07-2c0-.43,0-1.3,0-1.3h4.13v1.3A6.2,6.2,0,0,1,29,55.46c-3.08,0-4.44-1.87-6.63-4.07Z"/><path class="cls-19" d="M33.39,38.4a11,11,0,0,0-3,7.6v2.07h0v1.18A1.33,1.33,0,0,1,29,50.6c-.57,0-1-.29-1.67-1L25,54.83a6.44,6.44,0,0,0,4,1.32,6.88,6.88,0,0,0,6.21-3.95V69a1.16,1.16,0,0,0,1.15,1.15h5.06v-25Z"/><path class="cls-20" d="M33.39,38.4a11,11,0,0,0-3,7.6v2h11V45.12Z"/><path class="cls-3" d="M33.39,38.4a11,11,0,0,0-3,7.6v2.07h0v1.18A1.33,1.33,0,0,1,29,50.6c-.57,0-1-.29-1.67-1L25,54.83a6.44,6.44,0,0,0,4,1.32,6.88,6.88,0,0,0,6.21-3.95V69a1.16,1.16,0,0,0,1.15,1.15h5.06v-25Z"/><path class="cls-19" d="M49.4,38.4l-8,6.72v25h5.06A1.15,1.15,0,0,0,47.6,69V55.66h3.68a1.15,1.15,0,0,0,1.15-1.15V46A11,11,0,0,0,49.4,38.4Z"/><path class="cls-20" d="M49.4,38.4l-8,6.72V48h11V46A11,11,0,0,0,49.4,38.4Z"/><path class="cls-3" d="M49.4,38.4l-8,6.72v25h5.06A1.15,1.15,0,0,0,47.6,69V55.66h3.68a1.15,1.15,0,0,0,1.15-1.15V46A11,11,0,0,0,49.4,38.4Z"/><line class="cls-3" x1="35.18" y1="43.93" x2="35.18" y2="52.21"/><line class="cls-3" x1="47.6" y1="43.93" x2="47.6" y2="55.66"/><path class="cls-21" d="M41.39,45.12l-8-6.72a11,11,0,0,0-3,7.6H52.43a11,11,0,0,0-3-7.6Z"/><path class="cls-20" d="M50.42,46h2a11,11,0,0,0-3-7.6l-3.81,3.2A10.42,10.42,0,0,1,50.42,46Z"/><path class="cls-20" d="M37.2,41.6l-3.81-3.2a11,11,0,0,0-3,7.6h2A10.37,10.37,0,0,1,37.2,41.6Z"/><path class="cls-3" d="M41.39,45.12l-8-6.72a11,11,0,0,0-3,7.6H52.43a11,11,0,0,0-3-7.6Z"/><path class="cls-22" d="M33.39,38.4l8,6.72,8-6.72a11.34,11.34,0,0,0-1.21-1.09,1.15,1.15,0,0,0-1.45,0l-5.35,4.53-5.34-4.53a1.15,1.15,0,0,0-1.45,0A11.34,11.34,0,0,0,33.39,38.4Z"/><path class="cls-23" d="M45.59,41.6l3.81-3.2a11.34,11.34,0,0,0-1.21-1.09,1.15,1.15,0,0,0-1.45,0l-4.09,3.46A10.33,10.33,0,0,1,45.59,41.6Z"/><path class="cls-23" d="M40.14,40.79l-4.09-3.46a1.15,1.15,0,0,0-1.45,0,11.34,11.34,0,0,0-1.21,1.09l3.81,3.2A10.33,10.33,0,0,1,40.14,40.79Z"/><path class="cls-3" d="M33.39,38.4l8,6.72,8-6.72a11.34,11.34,0,0,0-1.21-1.09,1.15,1.15,0,0,0-1.45,0l-5.35,4.53-5.34-4.53a1.15,1.15,0,0,0-1.45,0A11.34,11.34,0,0,0,33.39,38.4Z"/><path class="cls-18" d="M23.45,55.11a1.38,1.38,0,0,1-1.85,1l-1.42-.54a1.39,1.39,0,0,1-.69-2l3.15-5.18,1.11-6a1.38,1.38,0,0,1,1.85-1L27,42a1.37,1.37,0,0,1,.69,2l-3.14,5.19Z"/><path class="cls-15" d="M23.9,46.39a2.59,2.59,0,0,1,2,3.37,2.71,2.71,0,0,1-3.12,1.68l-.66-.12a1.73,1.73,0,0,1-1.37-2l.29-1.7a1.72,1.72,0,0,1,2-1.4Z"/></svg>