<svg id="Layer_1" data-name="Layer 1" xmlns="http://www.w3.org/2000/svg" viewBox="0 0 100 100"><defs><style>.cls-1{fill:#fff;}.cls-2{fill:#e8f4fa;}.cls-3{fill:none;}.cls-10,.cls-11,.cls-14,.cls-3,.cls-6,.cls-7{stroke:#45413c;stroke-linecap:round;stroke-linejoin:round;}.cls-4{fill:#ff866e;}.cls-5,.cls-7{fill:#ff6242;}.cls-16,.cls-6{fill:#ffe500;}.cls-8{fill:#00b8f0;}.cls-9{fill:#4acfff;}.cls-10{fill:#8ca4b8;}.cls-11,.cls-12{fill:#bdbec0;}.cls-13,.cls-14{fill:#87898c;}.cls-15{fill:#fff48c;}</style></defs><title>gym</title><g id="_Group_" data-name="&lt;Group&gt;"><path class="cls-1" d="M50,90A39.94,39.94,0,0,0,84.61,70H15.39A39.94,39.94,0,0,0,50,90Z"/><path class="cls-1" d="M13.56,66.5c.55,1.2,1.17,2.36,1.83,3.5H84.61c.66-1.14,1.28-2.3,1.83-3.5Z"/><path class="cls-2" d="M90,50A40,40,0,1,0,13.56,66.5H86.44A39.85,39.85,0,0,0,90,50Z"/><line class="cls-3" x1="11" y1="66.5" x2="89" y2="66.5"/><line class="cls-3" x1="6.5" y1="66.5" x2="9" y2="66.5"/><line class="cls-3" x1="91" y1="66.5" x2="93.5" y2="66.5"/></g><path class="cls-4" d="M62.7,23.3H81.1a1,1,0,0,1,1,1V66.5a0,0,0,0,1,0,0H61.7a0,0,0,0,1,0,0V24.3A1,1,0,0,1,62.7,23.3Z"/><rect class="cls-5" x="61.7" y="28.82" width="20.4" height="37.68"/><path class="cls-3" d="M62.7,23.3H81.1a1,1,0,0,1,1,1V66.5a0,0,0,0,1,0,0H61.7a0,0,0,0,1,0,0V24.3A1,1,0,0,1,62.7,23.3Z"/><rect class="cls-6" x="22.1" y="34.7" width="39.6" height="2.4"/><rect class="cls-7" x="22.1" y="41.3" width="39.6" height="2.4"/><polygon class="cls-8" points="50.3 43.7 33.5 43.7 22.1 43.7 22.1 66.5 33.5 66.5 50.3 66.5 61.7 66.5 61.7 43.7 50.3 43.7"/><polygon class="cls-9" points="53.75 43.7 22.1 43.7 22.1 66.5 30.95 66.5 53.75 43.7"/><path class="cls-10" d="M29.9,64.1H25.7a1.2,1.2,0,0,0-1.2,1.2h0a1.2,1.2,0,0,0,1.2,1.2h4.2a1.2,1.2,0,0,0,1.2-1.2h0A1.2,1.2,0,0,0,29.9,64.1Z"/><path class="cls-3" d="M24.5,65.3V59.49a1.92,1.92,0,0,1,.56-1.35L26.3,56.9h3l1.24,1.24a1.92,1.92,0,0,1,.56,1.35V65.3"/><path class="cls-11" d="M27.3,54.5h1a1,1,0,0,1,1,1v1.4a0,0,0,0,1,0,0h-3a0,0,0,0,1,0,0V55.5A1,1,0,0,1,27.3,54.5Z"/><path class="cls-10" d="M44,65.3a1.2,1.2,0,0,0-1.2-1.2H38.6a1.2,1.2,0,0,0-1.2,1.2h0a1.2,1.2,0,0,0,1.2,1.2h4.2A1.2,1.2,0,0,0,44,65.3Z"/><path class="cls-3" d="M37.4,65.3V59.49A1.92,1.92,0,0,1,38,58.14L39.2,56.9h3l1.24,1.24A1.92,1.92,0,0,1,44,59.49V65.3"/><path class="cls-11" d="M40.2,54.5h1a1,1,0,0,1,1,1v1.4a0,0,0,0,1,0,0h-3a0,0,0,0,1,0,0V55.5A1,1,0,0,1,40.2,54.5Z"/><path class="cls-10" d="M56.9,65.3a1.2,1.2,0,0,0-1.2-1.2H51.5a1.2,1.2,0,0,0-1.2,1.2h0a1.2,1.2,0,0,0,1.2,1.2h4.2a1.2,1.2,0,0,0,1.2-1.2Z"/><path class="cls-3" d="M50.3,65.3V59.49a1.92,1.92,0,0,1,.56-1.35L52.1,56.9h3l1.24,1.24a1.92,1.92,0,0,1,.56,1.35V65.3"/><path class="cls-11" d="M53.1,54.5h1a1,1,0,0,1,1,1v1.4a0,0,0,0,1,0,0h-3a0,0,0,0,1,0,0V55.5A1,1,0,0,1,53.1,54.5Z"/><polygon class="cls-3" points="50.3 43.7 33.5 43.7 22.1 43.7 22.1 66.5 33.5 66.5 50.3 66.5 61.7 66.5 61.7 43.7 50.3 43.7"/><path class="cls-5" d="M60.3,48.5H83.5a1,1,0,0,1,1,1v17a0,0,0,0,1,0,0H59.3a0,0,0,0,1,0,0v-17A1,1,0,0,1,60.3,48.5Z"/><path class="cls-4" d="M83.5,48.5H60.3a1,1,0,0,0-1,1v1.78a1,1,0,0,1,1-1H83.5a1,1,0,0,1,1,1V49.5A1,1,0,0,0,83.5,48.5Z"/><path class="cls-3" d="M60.3,48.5H83.5a1,1,0,0,1,1,1v17a0,0,0,0,1,0,0H59.3a0,0,0,0,1,0,0v-17A1,1,0,0,1,60.3,48.5Z"/><path class="cls-12" d="M19.5,32.3h1.6a1,1,0,0,1,1,1V66.5a0,0,0,0,1,0,0H18.5a0,0,0,0,1,0,0V33.3A1,1,0,0,1,19.5,32.3Z"/><rect class="cls-13" x="18.5" y="39.5" width="3.6" height="27"/><path class="cls-3" d="M19.5,32.3h1.6a1,1,0,0,1,1,1V66.5a0,0,0,0,1,0,0H18.5a0,0,0,0,1,0,0V33.3A1,1,0,0,1,19.5,32.3Z"/><rect class="cls-14" x="22.1" y="37.1" width="39.6" height="4.2"/><rect class="cls-8" x="62.9" y="52.7" width="18" height="13.8"/><polygon class="cls-9" points="70.74 52.7 62.9 52.7 62.9 60.54 70.74 52.7"/><rect class="cls-3" x="62.9" y="52.7" width="18" height="13.8"/><polygon class="cls-9" points="68.3 58.1 71.9 58.1 68.3 61.7 68.3 58.1"/><rect class="cls-3" x="68.3" y="58.1" width="3.6" height="8.4"/><rect class="cls-8" x="71.9" y="58.1" width="3.6" height="8.4"/><polygon class="cls-9" points="71.9 58.1 75.5 58.1 71.9 61.7 71.9 58.1"/><rect class="cls-3" x="71.9" y="58.1" width="3.6" height="8.4"/><circle class="cls-15" cx="71.9" cy="34.1" r="7.2"/><ellipse class="cls-16" cx="71.9" cy="36.5" rx="6.78" ry="4.8"/><circle class="cls-3" cx="71.9" cy="34.1" r="7.2"/><rect class="cls-11" x="68.15" y="34.25" width="2.4" height="4.8" rx="0.6" ry="0.6" transform="translate(-5.6 59.77) rotate(-45)"/><rect class="cls-11" x="73.25" y="29.15" width="2.4" height="4.8" rx="0.6" ry="0.6" transform="translate(-0.51 61.88) rotate(-45)"/><rect class="cls-11" x="70.7" y="31.7" width="2.4" height="4.8" transform="translate(45.17 -40.85) rotate(45)"/><line class="cls-3" x1="68.3" y1="58.1" x2="68.3" y2="52.7"/><line class="cls-3" x1="75.5" y1="58.1" x2="75.5" y2="52.7"/><line class="cls-3" x1="75.5" y1="62.3" x2="80.9" y2="62.3"/><line class="cls-3" x1="68.3" y1="62.3" x2="62.9" y2="62.3"/><line class="cls-3" x1="33.5" y1="43.7" x2="33.5" y2="66.5"/><line class="cls-3" x1="50.3" y1="43.7" x2="50.3" y2="66.5"/><line class="cls-3" x1="22.1" y1="49.1" x2="59.3" y2="49.1"/><line class="cls-3" x1="22.1" y1="61.1" x2="59.3" y2="61.1"/></svg>