<?xml version="1.0" encoding="UTF-8"?>
<svg width="904.32" height="714.32" data-name="Layer 1" version="1.1" viewBox="0 0 904.32 714.32"
  xmlns="http://www.w3.org/2000/svg" xmlns:cc="http://creativecommons.org/ns#"
  xmlns:dc="http://purl.org/dc/elements/1.1/" xmlns:rdf="http://www.w3.org/1999/02/22-rdf-syntax-ns#">
  <style>
    .heart {
      animation: 2.5s ease infinite pulse;
      transform-origin: center 220px;
    }

    @keyframes pulse {
      0% {
        transform: scale(1);
      }

      30% {
        transform: scale(1);
      }

      50% {
        transform: scale(1.1);
      }

      70% {
        transform: scale(1);
      }

      100% {
        transform: scale(1);
      }
    }
  </style>
  <rect transform="translate(165.9 -392.99) rotate(31.459)" x="367.84" y="235.66" width="642" height="343"
    fill="#f5f5f5" />
  <polygon points="669 104.32 236 104.32 236 341.32 541.49 341.32 543.82 394.18 594.74 361.72 626.75 341.32 669 341.32"
    fill="#3e3e3e" />
  <line x2="386" y1="713.32" y2="713.32" fill="none" stroke="#2d2c2c" stroke-miterlimit="10" stroke-width="2" />
  <path transform="translate(-147.84 -93.341)"
    d="m223.07 469.73a27.003 27.003 0 0 1 11.937-26.503c0.84184-26.022 18.531-46.805 40.233-46.805 22.239 0 40.268 21.824 40.268 48.745s-18.029 48.745-40.268 48.745a33.675 33.675 0 0 1-6.2465-0.58456 27.019 27.019 0 1 1-45.924-23.598z"
    fill="#2f2e41" />
  <path transform="translate(-147.84 -93.341)"
    d="m300.03 455.32a10.234 10.234 0 0 0 0.52513 4.7237c0.92629 2.1454 3.2015 4.071 2.5338 6.3105-0.43077 1.4448-1.9533 2.2482-3.3814 2.7318-6.7587 2.2889-14.137 0.92581-21.266 1.2344a67.998 67.998 0 0 1-7.1504 0.24847 11.367 11.367 0 0 1-6.6464-2.316 56.854 56.854 0 0 0 10.452-6.5734 11.666 11.666 0 0 0 2.1082-2.014c1.5196-2.0013 1.7494-4.6723 1.8314-7.1838q0.12183-3.7308-0.02168-7.4639 7.6529-0.0823 15.306-0.06809c1.6354 3e-3 6.6388-0.39471 7.2095 1.3679 0.28627 0.88422-0.81136 3.4625-0.97693 4.4557a45.226 45.226 0 0 0-0.52359 4.5467z"
    fill="#fcdb96" />
  <path transform="translate(-147.84 -93.341)"
    d="m300.03 455.32a10.234 10.234 0 0 0 0.52513 4.7237c0.92629 2.1454 3.2015 4.071 2.5338 6.3105-0.43077 1.4448-1.9533 2.2482-3.3814 2.7318-6.7587 2.2889-14.137 0.92581-21.266 1.2344a67.998 67.998 0 0 1-7.1504 0.24847 11.367 11.367 0 0 1-6.6464-2.316 56.854 56.854 0 0 0 10.452-6.5734 11.666 11.666 0 0 0 2.1082-2.014c1.5196-2.0013 1.7494-4.6723 1.8314-7.1838q0.12183-3.7308-0.02168-7.4639 7.6529-0.0823 15.306-0.06809c1.6354 3e-3 6.6388-0.39471 7.2095 1.3679 0.28627 0.88422-0.81136 3.4625-0.97693 4.4557a45.226 45.226 0 0 0-0.52359 4.5467z"
    opacity=".05" />
  <path transform="translate(-147.84 -93.341)"
    d="m325.44 547.86a34.374 34.374 0 0 1-1.9708 16.81 319.09 319.09 0 0 0-33.063-1.7403 18.409 18.409 0 0 0 3.5316-8.7034 48.371 48.371 0 0 0 0.0576-8.9038l21.435-0.07266a20.196 20.196 0 0 1 4.6884 0.34984c2.0821 0.48823 3.2187 1.8695 5.3212 2.2606z"
    fill="#fcdb96" />
  <path transform="translate(-147.84 -93.341)"
    d="m331.45 559.61c1.0989 1.8065 2.4288 3.4595 3.6525 5.1839a75.384 75.384 0 0 1 5.9598 10.243c2.1617 4.3662 4.0937 8.8652 6.7136 12.973a36.142 36.142 0 0 1 3.7518 6.4568 20.633 20.633 0 0 1 1.089 6.7514c0.0805 3.0536-0.18373 6.3188-2.0301 8.7523a7.9666 7.9666 0 0 1-6.8976 3.0637 5.6652 5.6652 0 0 1-3.593-1.5552c-1.8033-1.8534-1.625-4.8217-1.1403-7.3618 0.33967-1.7803 0.766-3.6502 0.19255-5.3695a19.45 19.45 0 0 0-1.239-2.471 18.982 18.982 0 0 1-1.5192-6.0753c-0.53474-4.0273-1.1123-8.2958-3.6754-11.448-1.3744-1.6902-3.2354-2.9371-4.586-4.6464-0.70738-0.89523-1.2649-1.9056-2.019-2.7618-1.0735-1.2187-2.5567-2.1481-3.1752-3.6498a14.585 14.585 0 0 1-0.56291-3.0241 21.587 21.587 0 0 0-1.7652-4.6702c-2.4457-5.6148-3.1013-11.819-3.7283-17.912a25.596 25.596 0 0 0 7.698-1.5169c-0.70825 0.2575 6.1268 17.809 6.8739 19.037z"
    fill="#fcdb96" />
  <path transform="translate(-147.84 -93.341)"
    d="m331.45 559.61c1.0989 1.8065 2.4288 3.4595 3.6525 5.1839a75.384 75.384 0 0 1 5.9598 10.243c2.1617 4.3662 4.0937 8.8652 6.7136 12.973a36.142 36.142 0 0 1 3.7518 6.4568 20.633 20.633 0 0 1 1.089 6.7514c0.0805 3.0536-0.18373 6.3188-2.0301 8.7523a7.9666 7.9666 0 0 1-6.8976 3.0637 5.6652 5.6652 0 0 1-3.593-1.5552c-1.8033-1.8534-1.625-4.8217-1.1403-7.3618 0.33967-1.7803 0.766-3.6502 0.19255-5.3695a19.45 19.45 0 0 0-1.239-2.471 18.982 18.982 0 0 1-1.5192-6.0753c-0.53474-4.0273-1.1123-8.2958-3.6754-11.448-1.3744-1.6902-3.2354-2.9371-4.586-4.6464-0.70738-0.89523-1.2649-1.9056-2.019-2.7618-1.0735-1.2187-2.5567-2.1481-3.1752-3.6498a14.585 14.585 0 0 1-0.56291-3.0241 21.587 21.587 0 0 0-1.7652-4.6702c-2.4457-5.6148-3.1013-11.819-3.7283-17.912a25.596 25.596 0 0 0 7.698-1.5169c-0.70825 0.2575 6.1268 17.809 6.8739 19.037z"
    opacity=".05" />
  <circle cx="141.71" cy="341.76" r="18.015" fill="#fcdb96" />
  <path transform="translate(-147.84 -93.341)"
    d="m325.47 618.75c3.396 4.0297 4.7214 9.3592 5.9466 14.485l4.499 18.82a204.63 204.63 0 0 1 4.6026 23.163c0.53054 4.4324 0.75224 9.0407-0.7296 13.252a27.503 27.503 0 0 1-5.2941 8.4701 58.464 58.464 0 0 1-17.4 14.151c-3.5288 1.8316-7.2601 3.2369-10.887 4.8655-5.4089 2.4288-10.579 5.3513-15.741 8.2693l-19.426 10.982c-4.1666 2.3556-8.3797 4.7451-11.849 8.0426a29.373 29.373 0 0 0-7.2623 11 5.5291 5.5291 0 0 1-1.7029 2.8323c-1.1074 0.7566-2.6005 0.5115-3.883 0.11894a22.673 22.673 0 0 1-15.487-22.696 117.72 117.72 0 0 0 38.808-22.695c8.6701-7.6332 16.484-16.731 27.065-21.366 4.6274-2.0271 10.178-3.5753 12.341-8.1408a16.64 16.64 0 0 0 1.13-6.6717c0.19287-6.2722 0.38108-12.606-0.81394-18.766-1.0101-5.2071-2.986-10.17-4.4726-15.261-2.9762-10.194-3.9753-20.844-4.9602-31.418a174.91 174.91 0 0 1 20.828-1.2313 2.3638 2.3638 0 0 1 1.7198 0.45762 2.4876 2.4876 0 0 1 0.53288 1.3654c0.50408 2.7504 0.63428 5.833 2.4362 7.9712z"
    fill="#fcdb96" />
  <path transform="translate(-147.84 -93.341)"
    d="m325.47 618.75c3.396 4.0297 4.7214 9.3592 5.9466 14.485l4.499 18.82a204.63 204.63 0 0 1 4.6026 23.163c0.53054 4.4324 0.75224 9.0407-0.7296 13.252a27.503 27.503 0 0 1-5.2941 8.4701 58.464 58.464 0 0 1-17.4 14.151c-3.5288 1.8316-7.2601 3.2369-10.887 4.8655-5.4089 2.4288-10.579 5.3513-15.741 8.2693l-19.426 10.982c-4.1666 2.3556-8.3797 4.7451-11.849 8.0426a29.373 29.373 0 0 0-7.2623 11 5.5291 5.5291 0 0 1-1.7029 2.8323c-1.1074 0.7566-2.6005 0.5115-3.883 0.11894a22.673 22.673 0 0 1-15.487-22.696 117.72 117.72 0 0 0 38.808-22.695c8.6701-7.6332 16.484-16.731 27.065-21.366 4.6274-2.0271 10.178-3.5753 12.341-8.1408a16.64 16.64 0 0 0 1.13-6.6717c0.19287-6.2722 0.38108-12.606-0.81394-18.766-1.0101-5.2071-2.986-10.17-4.4726-15.261-2.9762-10.194-3.9753-20.844-4.9602-31.418a174.91 174.91 0 0 1 20.828-1.2313 2.3638 2.3638 0 0 1 1.7198 0.45762 2.4876 2.4876 0 0 1 0.53288 1.3654c0.50408 2.7504 0.63428 5.833 2.4362 7.9712z"
    opacity=".05" />
  <path transform="translate(-147.84 -93.341)"
    d="m223.53 742.82q5.2295 9.2749 10.454 18.544c0.81061 1.4306 1.6213 2.8718 2.2889 4.3765 1.1339 2.5432 1.8544 5.2613 3.1314 7.7357a38.466 38.466 0 0 0 5.3991 7.3224q3.4096 3.9341 6.819 7.8576a9.1471 9.1471 0 0 0 2.628 2.3419 3.1308 3.1308 0 0 0 3.338-0.15365 3.4685 3.4685 0 0 0 0.87431-1.2028 7.3685 7.3685 0 0 0 0.69937-3.5817 7.653 7.653 0 0 0-2.4797-5.309c-0.94313-0.82655-2.1459-1.4995-2.5538-2.6863a4.9385 4.9385 0 0 1-0.11131-1.9922c0.48217-5.8494 0.96965-11.752 2.7022-17.358 1.2928-4.191 3.2956-8.4986 2.3366-12.78-1.8226-0.551-4.191-0.92722-5.2825 0.63051-2.1247 3.0466-2.2465 1.9022-5.5209 1.4412-3.2374-0.44508-6.337-0.6623-8.7318-3.2161-3.1738-3.3804-2.9036-8.6258-2.4373-13.235-3.3486-0.15365-6.5382 1.0491-9.5743 2.575-1.0649 0.53514-2.1088 1.1074-3.1366 1.6743a5.188 5.188 0 0 0-1.5153 1.0968c-1.3723 1.616-0.37095 4.0692 0.67288 5.9184z"
    fill="#2f2e41" />
  <path transform="translate(-147.84 -93.341)"
    d="m324.13 603.72a88.248 88.248 0 0 1 2.6407 11.169c0.30418 2.0779 0.45952 4.1742 0.61464 6.2685-7.1127 1.686-14.494 1.7732-21.803 1.8521l-30.47 0.32864a64.921 64.921 0 0 1-0.82294-12.419c0.42434-6.8346 3.0066-13.501 2.5689-20.335a188.09 188.09 0 0 1 25.297-2.7533 11.89 11.89 0 0 1 4.5927 0.4331c1.3796 0.50606 2.5305 1.4893 3.8575 2.1206 2.9832 1.4192 7.4608 0.72752 9.9954 3.0298 2.3161 2.1038 2.7042 7.3874 3.5295 10.306z"
    fill="#2f2e41" />
  <path transform="translate(-147.84 -93.341)"
    d="m324.13 603.72a88.248 88.248 0 0 1 2.6407 11.169c0.30418 2.0779 0.45952 4.1742 0.61464 6.2685-7.1127 1.686-14.494 1.7732-21.803 1.8521l-30.47 0.32864a64.921 64.921 0 0 1-0.82294-12.419c0.42434-6.8346 3.0066-13.501 2.5689-20.335a188.09 188.09 0 0 1 25.297-2.7533 11.89 11.89 0 0 1 4.5927 0.4331c1.3796 0.50606 2.5305 1.4893 3.8575 2.1206 2.9832 1.4192 7.4608 0.72752 9.9954 3.0298 2.3161 2.1038 2.7042 7.3874 3.5295 10.306z"
    opacity=".1" />
  <path transform="translate(-147.84 -93.341)"
    d="m322.4 613.8c2.2972 10.845-0.1333 22.053-0.696 33.124-0.40268 7.9226 0.15826 15.858 0.3859 23.787a32.614 32.614 0 0 1-0.30963 6.824 34.595 34.595 0 0 1-1.8079 5.8508l-2.7374 7.2987c-2.5706 6.8538-5.1899 14.206-2.5718 21.354a10.002 10.002 0 0 1 0.39929 5.7724c-3.9234 16.389-0.3871 33.792 0.17271 50.633a12.209 12.209 0 0 0 0.84612 4.8479c1.3975 2.9597 4.8502 4.4009 6.6604 7.1278 2.198 3.311 1.4098 8.0269-1.1819 11.04s-6.6139 4.494-10.574 4.8216c-4.9548 0.40985-9.9172-0.79115-14.773-1.5822l-0.5393-0.51337c-0.61219-3.3771 1.2429-6.4941 1.8211-9.9433a41.817 41.817 0 0 0 0.36306-6.1658c0.03338-1.8442 0.10929-3.6913-0.01536-5.5316a50.871 50.871 0 0 0-0.794-5.5744l-8.7352-48.439c-0.70118-3.8882 1.0155-8.238 1.4632-12.163 0.927-8.1285 1.8556-16.292 1.5844-24.469a32.325 32.325 0 0 0-0.78407-6.6685 28.959 28.959 0 0 1-0.93252-6.1979c-0.065-2.5243-1.0758-5.0038-2.0588-7.4809-3.2962-8.3056-3.1593-17.5-3.8775-26.407a20.185 20.185 0 0 0-1.0176-5.5526c-1.028-2.7172-3.0809-4.8954-4.6998-7.3075s-2.847-5.4268-1.933-8.1844c1.4604-4.4062 7.45-5.8197 11.086-7.1037a31.168 31.168 0 0 1 19.371-0.65726 66.874 66.874 0 0 1 15.887 7.4606z"
    fill="#fcdb96" />
  <path transform="translate(-147.84 -93.341)"
    d="m294.78 804.17a2.7516 2.7516 0 0 0 1.0279 1.1021 3.2895 3.2895 0 0 0 1.5736 0.22782q12.096-0.25433 24.187-0.514a52.657 52.657 0 0 1 8.912 0.3232c2.3525 0.355 4.6573 1.0385 7.031 1.1816 5.505 0.34437 10.735-2.1777 15.673-4.6361a3.993 3.993 0 0 0 1.918-1.5259 3.2588 3.2588 0 0 0 0.03713-2.3684 7.2756 7.2756 0 0 0-2.6916-3.9102c-0.159-0.10594-0.3232-0.21191-0.49272-0.30728a11.942 11.942 0 0 0-4.3235-1.1233c-5.6163-0.73649-11.524-1.8386-15.784-5.5739-1.2293-1.0756-2.273-2.3366-3.4122-3.5022a60.877 60.877 0 0 0-7.7569-6.3634 2.7454 2.7454 0 0 0-2.024-0.75767 2.6533 2.6533 0 0 0-1.1126 0.64109 7.6538 7.6538 0 0 0-2.6228 3.2532 2.9422 2.9422 0 0 0 1.2982 3.6241c0.94307 0.39738 1.9657 0.19074 2.8187 0.73646-1.7432 1.261-4.4348 1.8915-6.3952 3.195a21.807 21.807 0 0 1-6.427 3.4016c-2.3578 0.60933-5.166 0.19074-6.7077-1.6955-0.83189-1.0173-1.8863-2.575-3.0148-1.9074a2.1317 2.1317 0 0 0-0.78415 1.1551 31.108 31.108 0 0 0-2.2942 8.5834 11.098 11.098 0 0 0 1.3669 6.7608z"
    fill="#2f2e41" />
  <path transform="translate(-147.84 -93.341)"
    d="m301.29 551.01a15.818 15.818 0 0 1 4.1474 0.46063 17.857 17.857 0 0 1 3.7031 1.6982l13.243 7.3429a12.559 12.559 0 0 1 2.6958 1.8165c1.9078 1.8366 2.4592 4.6631 2.5731 7.3089 0.44368 10.304-4.2049 20.187-4.7899 30.484a39.074 39.074 0 0 0 1.6373 13.596c0.33263 1.089 0.65963 2.4271-0.13785 3.2398a2.8822 2.8822 0 0 1-1.0452 0.60008c-4.1931 1.6329-8.756 1.9935-13.243 2.3372-10.979 0.84109-22.055 1.6799-32.968 0.21126a3.845 3.845 0 0 1-1.5632-0.44934 3.9489 3.9489 0 0 1-1.3238-1.915q-2.066-4.8446-4.0546-9.7217c-2.2244-5.4555-4.4154-11.199-3.8538-17.064 0.69762-7.2856 5.4807-13.438 8.2695-20.204 0.83258-2.0201 1.494-4.1166 2.5046-6.0538a51.741 51.741 0 0 1 3.7806-5.6766c1.0729-1.5271 2.1057-4.9601 3.4153-6.0311 1.6014-1.3095 6.1214-1.2782 8.1489-1.5155a69.009 69.009 0 0 1 8.8604-0.46382z"
    fill="#2f2e41" />
  <path transform="translate(-147.84 -93.341)"
    d="m223.53 742.82q5.2295 9.2749 10.454 18.544c0.81061 1.4306 1.6213 2.8718 2.2889 4.3765 1.1339 2.5432 1.8544 5.2613 3.1314 7.7357a38.466 38.466 0 0 0 5.3991 7.3224q3.4096 3.9341 6.819 7.8576a9.1471 9.1471 0 0 0 2.628 2.3419 3.1308 3.1308 0 0 0 3.338-0.15365 3.4685 3.4685 0 0 0 0.87431-1.2028 7.3685 7.3685 0 0 0 0.69937-3.5817 22.785 22.785 0 0 1-6.623-4.8852 32.71 32.71 0 0 1-3.852-5.7859q-1.4067-2.4717-2.8187-4.9487-7.2404-12.74-14.491-25.48a28.94 28.94 0 0 1-3.8679-10.83c-1.0649 0.53514-2.1088 1.1074-3.1366 1.6743a5.188 5.188 0 0 0-1.5153 1.0968c-1.3723 1.616-0.37093 4.0692 0.6729 5.9184z"
    opacity=".1" />
  <path transform="translate(-147.84 -93.341)"
    d="m267.89 463.66a180.04 180.04 0 0 0 26.504 2.508c2.1885 0.04445 4.8367-0.21711 5.8058-2.1799 0.45351-0.91857 0.42523-2.0603 1.0598-2.8646 1.1924-1.5114 3.5886-0.76447 5.3045 0.10833 2.3971 1.2193 4.9099 2.5416 6.3424 4.8177a16.355 16.355 0 0 1 1.7913 5.6726c0.83126 4.2269 2.1043 8.6506 5.312 11.526 1.6662 1.4936 3.756 2.4684 5.358 4.0308 2.5858 2.5219 3.5926 6.3044 3.5998 9.9164s-0.86481 7.1585-1.5106 10.712a86.838 86.838 0 0 0 2.0066 39.467 2.6426 2.6426 0 0 1 0.143 1.4236c-0.25777 0.92309-1.3762 1.2506-2.3218 1.4064-14.676 2.4183-30.42 0.1236-43.924 6.3567-1.1242-2.7745-3.9089-4.3512-5.2852-7.0097-1.1152-2.1542-0.95995-4.7101-1.256-7.1177-0.80117-6.5142-4.9581-12.062-7.3165-18.187-2.0678-5.3702-2.7855-11.287-5.681-16.26-1.0283-1.7662-2.3121-3.375-3.316-5.1552a57.203 57.203 0 0 1-5.1089-15.508c-0.5844-6.9704 2.6702-13.686 6.507-19.535 1.4789-2.2544 3.3285-4.5801 5.9865-4.1283z"
    fill="#657786" />
  <path transform="translate(-147.84 -93.341)"
    d="m310.38 488.55c1.6752 0.37525 2.6578 2.0676 3.4385 3.5966a19.068 19.068 0 0 1 1.321 3.0009 17.606 17.606 0 0 1 0.54967 5.3685 12.358 12.358 0 0 1-0.36509 3.4062 4.4896 4.4896 0 0 1-1.9834 2.7016"
    fill="none" opacity=".1" stroke="#2d2c2c" stroke-miterlimit="10" />
  <ellipse transform="translate(-243.48 -9.6322) rotate(-14.336)" cx="284.99" cy="422.09" rx="20.134" ry="9.9378"
    fill="#2f2e41" />
  <path
    d="m125.09 505.65c-1.5518 0.26796-2.9138 0.51664-3.0296 0.53852-0.11577 0.0219-0.38415 0.0644-0.58912 0.0942-0.20497 0.0299-0.43639 0.0736-0.52631 0.10012-0.0787 0.0232-1.0599 0.19628-2.1753 0.39061-1.1154 0.19433-2.1264 0.3701-2.2421 0.39198-0.11569 0.0219-0.58978 0.11273-1.0486 0.19296l-0.8397 0.15584-4.1045 7.4822-4.0972 7.4862 1.054 2.499c0.58195 1.3738 1.0778 2.5591 1.1017 2.6193 0.0199 0.0674 0.21849 0.53418 0.43432 1.0386 0.21583 0.50443 0.43433 1.0386 0.49259 1.1741 0.0781 0.20298 3.7182 8.8661 5.4634 13.006 0.21185 0.51169 0.41048 0.97844 0.43035 1.0459 0.0238 0.0601 0.11984 0.28229 0.20524 0.48921 0.30521 0.70407 0.78058 1.8405 0.79714 1.8967 0.01 0.0338 0.0854 0.20692 0.16816 0.38409 0.0788 0.18445 0.192 0.44426 0.23902 0.58309 0.051 0.13153 0.10593 0.25586 0.12776 0.26775 0.0291 0.0158 0.71145-0.0936 1.1558-0.1818 0.14942-0.0318 1.489-0.27388 2.9813-0.5365 1.4883-0.25536 2.8054-0.49079 2.9211-0.51269 0.11569-0.0219 1.0149-0.18303 1.9849-0.35283 0.97723-0.1658 1.7945-0.31502 1.8282-0.32496 0.0338-0.01 1.2576-0.23011 2.7162-0.48281 1.4626-0.25998 2.7572-0.48879 2.8729-0.51067 0.11966-0.0292 2.4814-0.45029 5.2459-0.93511l5.0402-0.88673 8.1375-14.937-1.5459-3.6916c-0.85936-2.0249-1.5916-3.7636-1.6254-3.8575-0.0338-0.0939-0.51974-1.2455-1.0739-2.5664l-1.009-2.4084-1.1677 0.20362c-1.0744 0.18835-7.8496 1.3848-8.5921 1.5181-0.1719 0.0385-0.57457 0.10213-0.88797 0.15784-0.30944 0.0484-0.59309 0.10148-0.62681 0.11142-0.0338 0.01-0.26513 0.0537-0.52233 0.0929-0.25721 0.0391-0.48863 0.0829-0.52234 0.0928-0.0338 0.01-0.27638 0.057-0.55606 0.1028l-0.49654 0.0975-0.28072-0.66242c-0.15426-0.35766-0.47537-1.1364-0.72893-1.7275-0.50253-1.2078-0.45154-1.0763-0.9236-2.2015-0.19134-0.46278-0.37606-0.90307-0.41048-0.97843-0.46609-1.0842-1.0679-2.5254-1.1328-2.6834-0.32378-0.80855-1.6241-3.8946-1.7148-4.0572-0.11121-0.21154-0.14096-0.20888-2.9279 0.28257z"
    fill="#eb7260" stroke-width=".082854" />
  <path transform="translate(-147.84 -93.341)"
    d="m275.86 493.85a30.88 30.88 0 0 0-5.0431-14.109 12.177 12.177 0 0 0-4.535-4.4024 5.6064 5.6064 0 0 0-6.0182 0.46819 8.6536 8.6536 0 0 0-2.1626 4.0051 48.093 48.093 0 0 0-3.1819 20.294c0.03953 6.305 0.08881 12.688 1.6824 18.788 0.90354 3.459 2.2951 6.7881 2.9859 10.296s0.60694 7.355-1.2737 10.395a26.559 26.559 0 0 0-3.3692 7.6493 37.506 37.506 0 0 0-0.60116 9.9087l0.25536 9.1068c0.33307 11.878 0.656 23.88-1.7194 35.522-1.0838 5.3121-3.8045 10.338-3.182 15.723a22.951 22.951 0 0 0 1.6596 5.6584c1.0182 2.6003 2.2486 5.4084 4.7408 6.6681a9.5518 9.5518 0 0 0 3.8537 0.83968 26.323 26.323 0 0 0 4.937-0.21658c1.0012-0.139 2.2951-0.80888 1.955-1.7608a1.9395 1.9395 0 0 0-0.70613-0.78577 11.011 11.011 0 0 1-4.1098-8.5433c0.01966-4.7132 3.0854-9.2469 2.1292-13.862-0.59272-2.8608-2.703-5.633-1.8132-8.4158 2.0083-6.281 2.2523-13.029 3.9633-19.398l1.6772-6.2424c0.99771-3.7134 1.9958-7.4285 2.8174-11.185a122.52 122.52 0 0 0 2.7001-31.686c-0.07516-1.6574 0.84746-3.5473 0.98585-5.2007 0.16324-1.9503-0.03457-3.9119-0.00619-5.8688 0.11681-8.0555 2.159-15.628 1.3788-23.647z"
    fill="#fcdb96" />
  <circle cx="449.12" cy="604.57" r="6.5354" fill="#92b06a" />
  <line x1="578.66" x2="851.66" y1="711.84" y2="711.84" fill="none" stroke="#2d2c2c" stroke-miterlimit="10"
    stroke-width="2" />
  <line x1="415.66" x2="544.66" y1="711.84" y2="711.84" fill="none" stroke="#2d2c2c" stroke-miterlimit="10"
    stroke-width="2" />
  <g fill="#2d2c2c">
    <line x1="481.14" x2="481.14" y1="713.04" y2="638.63" stroke="#2d2c2c" stroke-miterlimit="10" stroke-width="2" />
    <circle cx="481.14" cy="638.63" r="10.523" />
    <path transform="translate(-147.84 -93.341)" d="m628.98 777.83s-1.5033-32.332-32.32-28.574" />
    <path transform="translate(-147.84 -93.341)"
      d="m880.92 708.31c-27.28 41.835-19.805 95.043-19.805 95.043s51.704-14.619 78.983-56.454 19.805-95.043 19.805-95.043-51.704 14.619-78.983 56.454z" />
  </g>
  <path transform="translate(-147.84 -93.341)"
    d="m860.97 802.87s-0.66409-0.10594-1.8863-0.35324c-0.975-0.19779-2.3172-0.4804-3.9563-0.869-14.652-3.4547-53.608-15.133-79.077-45.837-31.877-38.447-30.534-92.161-30.534-92.161s48.74 7.9197 80.857 42.446q2.0877 2.2254 4.0623 4.6133c27.737 33.452 30.322 78.462 30.527 89.589 0.02825 1.6673 0.00707 2.5716 0.00707 2.5716z"
    fill="#92b06a" />
  <path transform="translate(-147.84 -93.341)"
    d="m841.31 708.31c27.28 41.835 19.805 95.043 19.805 95.043s-51.704-14.619-78.983-56.454-19.805-95.043-19.805-95.043 51.704 14.619 78.983 56.454z"
    fill="none" stroke="#2d2c2c" stroke-miterlimit="10" stroke-width="2" />
  <path transform="translate(-147.84 -93.341)"
    d="m860.96 800.3c-0.72062 0.869-1.3564 1.6108-1.8793 2.2183-1.1586 1.3211-1.8157 2.0135-1.8157 2.0135s-0.79828-1.0032-2.1406-2.8825c-7.3686-10.272-31.071-46.797-29.241-88.989q0.14838-3.317 0.48748-6.5632 2.0877 2.2254 4.0623 4.6133c27.737 33.452 30.322 78.462 30.527 89.589z"
    opacity=".1" />
  <path transform="translate(-147.84 -93.341)"
    d="m901.41 715.71c-2.1562 49.896-39.195 88.82-39.195 88.82s-33.543-41.974-31.387-91.871 39.195-88.82 39.195-88.82 33.543 41.974 31.387 91.871z"
    fill="#92b06a" />
  <line x1="714.38" x2="722.52" y1="709.77" y2="532.53" fill="none" stroke="#2d2c2c" stroke-miterlimit="10"
    stroke-width="2" />
  <path
    d="m407.03 149.38c-4.3802 3.4689-8.2019 6.5556-8.5253 6.8202s-1.0877 0.85252-1.6757 1.2935c-0.58794 0.44097-1.2347 0.97012-1.4699 1.2053-0.20578 0.20578-2.9691 2.4106-6.1147 4.9094-3.1455 2.4988-5.9971 4.7624-6.3204 5.027-0.32337 0.26458-1.6463 1.3523-2.9397 2.3812l-2.3518 1.9108-0.0882 30.279-0.0588 30.279 7.5258 5.9971c4.145 3.2925 7.7021 6.1441 7.8785 6.2911 0.17639 0.17639 1.5875 1.2935 3.1161 2.4988 1.5287 1.2053 3.1161 2.4988 3.5277 2.8222 0.58795 0.49975 26.634 21.313 39.099 31.249 1.5287 1.2347 2.9397 2.3518 3.1161 2.5282 0.17638 0.14698 0.85253 0.67613 1.4699 1.1759 2.146 1.6756 5.5561 4.4096 5.7031 4.5566 0.0882 0.0882 0.61735 0.49975 1.1759 0.91132 0.55855 0.44097 1.3523 1.0583 1.7344 1.4111 0.38217 0.32338 0.76433 0.61736 0.85252 0.61736 0.1176 0 2.0578-1.4993 3.2925-2.5282 0.41156-0.35276 4.1744-3.3807 8.3783-6.732 4.2038-3.3219 7.9079-6.2911 8.2313-6.5556 0.32337-0.26458 2.8516-2.293 5.5855-4.4684 2.7634-2.1754 5.0564-4.0274 5.1446-4.1156s3.5277-2.8515 7.6433-6.1147c4.1156-3.2925 7.7609-6.2029 8.0843-6.4674 0.32338-0.29398 6.9672-5.6149 14.758-11.818l14.199-11.318v-60.353l-11.083-8.878c-6.1147-4.8506-11.347-9.025-11.612-9.2602-0.26457-0.23517-3.7335-2.9985-7.7021-6.1735l-7.2318-5.7913-3.2925 2.6164c-3.0279 2.4106-22.107 17.638-24.194 19.314-0.47035 0.41157-1.6169 1.2935-2.4988 1.999-0.88192 0.67614-1.6756 1.3229-1.7638 1.4111-0.0882 0.0882-0.73493 0.61735-1.4699 1.1759s-1.3817 1.0877-1.4699 1.1759c-0.0882 0.0882-0.76433 0.64675-1.5581 1.2641l-1.3817 1.1465-1.999-1.5875c-1.0877-0.85253-3.4101-2.734-5.2034-4.145-3.6159-2.9104-3.2337-2.587-6.6144-5.2915-1.3817-1.1171-2.7046-2.1754-2.9398-2.3518-3.2925-2.587-7.6139-6.0559-8.0843-6.438-2.3812-1.9696-11.671-9.3778-12.229-9.7306-0.70554-0.47036-0.79373-0.41156-8.6429 5.8501z"
    fill="#eb7260" stroke-width=".29397" class="heart" />
</svg>