<?xml version="1.0" encoding="UTF-8" standalone="no"?>
<svg xmlns:dc="http://purl.org/dc/elements/1.1/" xmlns:cc="http://creativecommons.org/ns#"
   xmlns:rdf="http://www.w3.org/1999/02/22-rdf-syntax-ns#" xmlns:svg="http://www.w3.org/2000/svg"
   xmlns="http://www.w3.org/2000/svg" xmlns:sodipodi="http://sodipodi.sourceforge.net/DTD/sodipodi-0.dtd"
   xmlns:inkscape="http://www.inkscape.org/namespaces/inkscape" inkscape:version="1.0 (4035a4f, 2020-05-01)"
   sodipodi:docname="heart.svg" version="1.1" viewBox="0 0 904.32126 714.3182" height="714.3182" width="904.32126"
   data-name="Layer 1" id="b1c121f6-5782-4527-a6ee-a39cd8953237">
   <metadata id="metadata3570">
      <rdf:RDF>
         <cc:Work rdf:about="">
            <dc:format>image/svg+xml</dc:format>
            <dc:type rdf:resource="http://purl.org/dc/dcmitype/StillImage" />
         </cc:Work>
      </rdf:RDF>
   </metadata>
   <defs id="defs3568" />
   <sodipodi:namedview inkscape:current-layer="b1c121f6-5782-4527-a6ee-a39cd8953237" inkscape:window-maximized="1"
      inkscape:window-y="23" inkscape:window-x="1440" inkscape:cy="419.66175" inkscape:cx="530.22553"
      inkscape:zoom="1.1859056" inkscape:snap-nodes="true" showgrid="false" id="namedview3566"
      inkscape:window-height="1395" inkscape:window-width="2560" inkscape:pageshadow="2" inkscape:pageopacity="0"
      guidetolerance="10" gridtolerance="10" objecttolerance="10" borderopacity="1" bordercolor="#666666"
      pagecolor="#ffffff" />
   <rect id="rect3491" fill="#f5f5f5" transform="translate(165.90278 -392.99173) rotate(31.45906)" height="343"
      width="642" y="235.6591" x="367.83937" />
   <polygon id="polygon3493" fill="#3e3e3e"
      points="669 104.318 236 104.318 236 341.318 541.494 341.318 543.818 394.185 594.744 361.72 626.747 341.318 669 341.318 669 104.318" />
   <line id="line3495" stroke-width="2" stroke-miterlimit="10" stroke="#2d2c2c" fill="none" y2="713.3182" x2="386"
      y1="713.3182" />
   <path id="path3499" fill="#2f2e41" transform="translate(-147.83937 -93.3409)"
      d="M223.06937,469.72871a27.0027,27.0027,0,0,1,11.937-26.503c.84184-26.02151,18.53106-46.80528,40.23341-46.80528,22.23938,0,40.268,21.82405,40.268,48.74542s-18.02858,48.74542-40.268,48.74542a33.67518,33.67518,0,0,1-6.24653-.58456,27.01935,27.01935,0,1,1-45.92384-23.598Z" />
   <path id="path3501" fill="#fcdb96" transform="translate(-147.83937 -93.3409)"
      d="M300.02853,455.31779a10.2345,10.2345,0,0,0,.52513,4.72369c.92629,2.14544,3.20146,4.071,2.53379,6.31049-.43077,1.44485-1.95332,2.24818-3.38135,2.7318-6.75873,2.28893-14.13679.92581-21.26592,1.23441a67.998,67.998,0,0,1-7.15045.24847,11.367,11.367,0,0,1-6.6464-2.31595,56.85406,56.85406,0,0,0,10.45175-6.57337,11.66569,11.66569,0,0,0,2.10824-2.014c1.51964-2.00129,1.74941-4.67229,1.83142-7.18382q.12183-3.73075-.02168-7.4639,7.65292-.0823,15.30649-.06809c1.63543.003,6.63883-.39471,7.2095,1.36791.28627.88422-.81136,3.46248-.97693,4.45566A45.22617,45.22617,0,0,0,300.02853,455.31779Z" />
   <path id="path3503" opacity="0.05" transform="translate(-147.83937 -93.3409)"
      d="M300.02853,455.31779a10.2345,10.2345,0,0,0,.52513,4.72369c.92629,2.14544,3.20146,4.071,2.53379,6.31049-.43077,1.44485-1.95332,2.24818-3.38135,2.7318-6.75873,2.28893-14.13679.92581-21.26592,1.23441a67.998,67.998,0,0,1-7.15045.24847,11.367,11.367,0,0,1-6.6464-2.31595,56.85406,56.85406,0,0,0,10.45175-6.57337,11.66569,11.66569,0,0,0,2.10824-2.014c1.51964-2.00129,1.74941-4.67229,1.83142-7.18382q.12183-3.73075-.02168-7.4639,7.65292-.0823,15.30649-.06809c1.63543.003,6.63883-.39471,7.2095,1.36791.28627.88422-.81136,3.46248-.97693,4.45566A45.22617,45.22617,0,0,0,300.02853,455.31779Z" />
   <path id="path3505" fill="#fcdb96" transform="translate(-147.83937 -93.3409)"
      d="M325.43907,547.85768a34.374,34.374,0,0,1-1.97083,16.80973,319.09336,319.09336,0,0,0-33.06333-1.7403,18.40884,18.40884,0,0,0,3.53163-8.70336,48.3711,48.3711,0,0,0,.0576-8.90381l21.43533-.07266a20.196,20.196,0,0,1,4.6884.34984C322.2,546.08535,323.33657,547.46658,325.43907,547.85768Z" />
   <path id="path3507" fill="#fcdb96" transform="translate(-147.83937 -93.3409)"
      d="M331.4484,559.61042c1.09888,1.80649,2.42881,3.45952,3.65252,5.1839a75.38429,75.38429,0,0,1,5.95978,10.24323c2.16171,4.36622,4.09367,8.86523,6.71356,12.97291a36.14205,36.14205,0,0,1,3.75182,6.45681,20.63281,20.63281,0,0,1,1.089,6.75145c.0805,3.05357-.18373,6.31878-2.03007,8.75226a7.96664,7.96664,0,0,1-6.89758,3.06374,5.66524,5.66524,0,0,1-3.593-1.55523c-1.8033-1.85335-1.625-4.82174-1.14033-7.36181.33967-1.78033.766-3.65015.19255-5.36947a19.44961,19.44961,0,0,0-1.239-2.471,18.98224,18.98224,0,0,1-1.5192-6.07528c-.53474-4.02728-1.11227-8.29583-3.67541-11.44786-1.37442-1.69019-3.23545-2.93707-4.586-4.64636-.70738-.89523-1.26487-1.90561-2.019-2.7618-1.07347-1.21868-2.55666-2.14812-3.17515-3.64978a14.58472,14.58472,0,0,1-.56291-3.0241,21.5869,21.5869,0,0,0-1.76518-4.67016c-2.44572-5.61477-3.10131-11.81941-3.72826-17.91155a25.59575,25.59575,0,0,0,7.698-1.5169C323.86629,540.83092,330.70138,558.38237,331.4484,559.61042Z" />
   <path id="path3509" opacity="0.05" transform="translate(-147.83937 -93.3409)"
      d="M331.4484,559.61042c1.09888,1.80649,2.42881,3.45952,3.65252,5.1839a75.38429,75.38429,0,0,1,5.95978,10.24323c2.16171,4.36622,4.09367,8.86523,6.71356,12.97291a36.14205,36.14205,0,0,1,3.75182,6.45681,20.63281,20.63281,0,0,1,1.089,6.75145c.0805,3.05357-.18373,6.31878-2.03007,8.75226a7.96664,7.96664,0,0,1-6.89758,3.06374,5.66524,5.66524,0,0,1-3.593-1.55523c-1.8033-1.85335-1.625-4.82174-1.14033-7.36181.33967-1.78033.766-3.65015.19255-5.36947a19.44961,19.44961,0,0,0-1.239-2.471,18.98224,18.98224,0,0,1-1.5192-6.07528c-.53474-4.02728-1.11227-8.29583-3.67541-11.44786-1.37442-1.69019-3.23545-2.93707-4.586-4.64636-.70738-.89523-1.26487-1.90561-2.019-2.7618-1.07347-1.21868-2.55666-2.14812-3.17515-3.64978a14.58472,14.58472,0,0,1-.56291-3.0241,21.5869,21.5869,0,0,0-1.76518-4.67016c-2.44572-5.61477-3.10131-11.81941-3.72826-17.91155a25.59575,25.59575,0,0,0,7.698-1.5169C323.86629,540.83092,330.70138,558.38237,331.4484,559.61042Z" />
   <circle id="circle3511" fill="#fcdb96" r="18.01461" cy="341.75792" cx="141.7061" />
   <path id="path3513" fill="#fcdb96" transform="translate(-147.83937 -93.3409)"
      d="M325.4676,618.74633c3.396,4.02974,4.72138,9.35916,5.94665,14.4846l4.499,18.81987a204.6293,204.6293,0,0,1,4.60265,23.16337c.53054,4.43238.75224,9.04069-.7296,13.25158a27.503,27.503,0,0,1-5.29408,8.47013,58.46423,58.46423,0,0,1-17.4001,14.151c-3.5288,1.83164-7.26012,3.23688-10.88709,4.86548-5.40893,2.42875-10.57943,5.35134-15.74089,8.26934l-19.42551,10.98206c-4.16663,2.35557-8.37973,4.74514-11.84905,8.04261a29.37253,29.37253,0,0,0-7.26231,11.0003,5.5291,5.5291,0,0,1-1.70293,2.83232c-1.1074.7566-2.60052.5115-3.883.11894A22.67287,22.67287,0,0,1,230.854,734.5022a117.72145,117.72145,0,0,0,38.80816-22.69461c8.67013-7.63317,16.484-16.7307,27.06477-21.36568,4.62745-2.02708,10.178-3.57527,12.341-8.14078a16.64015,16.64015,0,0,0,1.13-6.67173c.19287-6.27219.38108-12.60616-.81394-18.76647-1.01012-5.20711-2.98605-10.16983-4.47258-15.26144-2.97623-10.19408-3.97533-20.84421-4.96025-31.4181a174.909,174.909,0,0,1,20.8275-1.23133,2.36377,2.36377,0,0,1,1.71985.45762,2.48756,2.48756,0,0,1,.53288,1.36545C323.53547,613.52554,323.66567,616.60812,325.4676,618.74633Z" />
   <path id="path3515" opacity="0.05" transform="translate(-147.83937 -93.3409)"
      d="M325.4676,618.74633c3.396,4.02974,4.72138,9.35916,5.94665,14.4846l4.499,18.81987a204.6293,204.6293,0,0,1,4.60265,23.16337c.53054,4.43238.75224,9.04069-.7296,13.25158a27.503,27.503,0,0,1-5.29408,8.47013,58.46423,58.46423,0,0,1-17.4001,14.151c-3.5288,1.83164-7.26012,3.23688-10.88709,4.86548-5.40893,2.42875-10.57943,5.35134-15.74089,8.26934l-19.42551,10.98206c-4.16663,2.35557-8.37973,4.74514-11.84905,8.04261a29.37253,29.37253,0,0,0-7.26231,11.0003,5.5291,5.5291,0,0,1-1.70293,2.83232c-1.1074.7566-2.60052.5115-3.883.11894A22.67287,22.67287,0,0,1,230.854,734.5022a117.72145,117.72145,0,0,0,38.80816-22.69461c8.67013-7.63317,16.484-16.7307,27.06477-21.36568,4.62745-2.02708,10.178-3.57527,12.341-8.14078a16.64015,16.64015,0,0,0,1.13-6.67173c.19287-6.27219.38108-12.60616-.81394-18.76647-1.01012-5.20711-2.98605-10.16983-4.47258-15.26144-2.97623-10.19408-3.97533-20.84421-4.96025-31.4181a174.909,174.909,0,0,1,20.8275-1.23133,2.36377,2.36377,0,0,1,1.71985.45762,2.48756,2.48756,0,0,1,.53288,1.36545C323.53547,613.52554,323.66567,616.60812,325.4676,618.74633Z" />
   <path id="path3517" fill="#2f2e41" transform="translate(-147.83937 -93.3409)"
      d="M223.52722,742.82016q5.22951,9.2749,10.45377,18.54445c.81061,1.43058,1.62128,2.87177,2.28888,4.3765,1.13394,2.54323,1.85445,5.26132,3.13139,7.73571a38.46647,38.46647,0,0,0,5.39911,7.32238q3.40956,3.93408,6.819,7.85756a9.14711,9.14711,0,0,0,2.62805,2.34189,3.13085,3.13085,0,0,0,3.338-.15365,3.46853,3.46853,0,0,0,.87431-1.20275,7.36846,7.36846,0,0,0,.69937-3.5817,7.653,7.653,0,0,0-2.47969-5.309c-.94313-.82655-2.14588-1.49946-2.55381-2.6863a4.93851,4.93851,0,0,1-.11131-1.99221c.48217-5.84944.96965-11.75188,2.70224-17.35761,1.29279-4.191,3.2956-8.49865,2.33656-12.77978-1.82262-.551-4.191-.92722-5.28251.63051-2.12467,3.04659-2.24652,1.90215-5.5209,1.44119-3.23739-.44508-6.337-.6623-8.73178-3.21614-3.17375-3.38039-2.90359-8.62584-2.43732-13.23546-3.34864-.15365-6.53823,1.0491-9.57428,2.575-1.06492.53514-2.10875,1.10735-3.13662,1.67428a5.188,5.188,0,0,0-1.51534,1.09678C221.482,738.51785,222.48339,740.971,223.52722,742.82016Z" />
   <path id="path3519" fill="#2f2e41" transform="translate(-147.83937 -93.3409)"
      d="M324.13313,603.722a88.24836,88.24836,0,0,1,2.64069,11.1688c.30418,2.07786.45952,4.17425.61464,6.26851-7.11273,1.686-14.49359,1.77323-21.803,1.85207l-30.4698.32864a64.92063,64.92063,0,0,1-.82294-12.419c.42434-6.83455,3.00656-13.50135,2.56889-20.33506a188.092,188.092,0,0,1,25.29652-2.75333,11.88978,11.88978,0,0,1,4.59268.4331c1.37955.50606,2.53053,1.4893,3.85746,2.12056,2.9832,1.41919,7.46083.72752,9.99537,3.02977C322.91974,595.51984,323.30787,600.80345,324.13313,603.722Z" />
   <path id="path3521" opacity="0.1" transform="translate(-147.83937 -93.3409)"
      d="M324.13313,603.722a88.24836,88.24836,0,0,1,2.64069,11.1688c.30418,2.07786.45952,4.17425.61464,6.26851-7.11273,1.686-14.49359,1.77323-21.803,1.85207l-30.4698.32864a64.92063,64.92063,0,0,1-.82294-12.419c.42434-6.83455,3.00656-13.50135,2.56889-20.33506a188.092,188.092,0,0,1,25.29652-2.75333,11.88978,11.88978,0,0,1,4.59268.4331c1.37955.50606,2.53053,1.4893,3.85746,2.12056,2.9832,1.41919,7.46083.72752,9.99537,3.02977C322.91974,595.51984,323.30787,600.80345,324.13313,603.722Z" />
   <path id="path3523" fill="#fcdb96" transform="translate(-147.83937 -93.3409)"
      d="M322.39849,613.79708c2.29716,10.84534-.1333,22.05264-.696,33.1243-.40268,7.92256.15826,15.85769.3859,23.78721a32.6145,32.6145,0,0,1-.30963,6.82405,34.5953,34.5953,0,0,1-1.80794,5.85077l-2.73745,7.29868c-2.5706,6.85379-5.18993,14.20593-2.57182,21.35385a10.002,10.002,0,0,1,.39929,5.77237c-3.92345,16.38909-.3871,33.79176.17271,50.63281a12.20894,12.20894,0,0,0,.84612,4.84789c1.39754,2.95971,4.85015,4.40092,6.6604,7.12783,2.198,3.311,1.40977,8.0269-1.18189,11.03969s-6.6139,4.494-10.57449,4.82164c-4.9548.40985-9.91723-.79115-14.77346-1.58223l-.5393-.51337c-.61219-3.37706,1.24294-6.49412,1.82107-9.94327a41.81658,41.81658,0,0,0,.36306-6.1658c.03338-1.84423.10929-3.69129-.01536-5.53161a50.87094,50.87094,0,0,0-.794-5.57444l-4.13212-22.91356-.89242-4.94865-3.71068-20.57656c-.70118-3.88823,1.01549-8.238,1.46317-12.16348.927-8.12849,1.85558-16.29214,1.58436-24.46882a32.325,32.325,0,0,0-.78407-6.66847,28.959,28.959,0,0,1-.93252-6.19794c-.065-2.52432-1.07577-5.00384-2.0588-7.48086-3.29615-8.30564-3.15931-17.50022-3.87752-26.40709a20.18528,20.18528,0,0,0-1.01765-5.55265c-1.028-2.71716-3.08086-4.89536-4.69985-7.30754s-2.847-5.42678-1.933-8.18437c1.46041-4.40618,7.45-5.8197,11.08587-7.10371a31.16794,31.16794,0,0,1,19.37063-.65726A66.87386,66.87386,0,0,1,322.39849,613.79708Z" />
   <path id="path3525" fill="#2f2e41" transform="translate(-147.83937 -93.3409)"
      d="M294.775,804.16523a2.75156,2.75156,0,0,0,1.02792,1.10208,3.2895,3.2895,0,0,0,1.57362.22782q12.09626-.25433,24.18721-.514a52.65719,52.65719,0,0,1,8.912.3232c2.35247.355,4.65733,1.0385,7.031,1.18157,5.505.34437,10.73459-2.17768,15.67269-4.63612a3.993,3.993,0,0,0,1.918-1.52594,3.25883,3.25883,0,0,0,.03713-2.36841,7.27564,7.27564,0,0,0-2.69164-3.91024c-.159-.10594-.3232-.21191-.49272-.30728a11.94235,11.94235,0,0,0-4.32352-1.12326c-5.61631-.73649-11.524-1.83857-15.78394-5.57394-1.22927-1.0756-2.273-2.33662-3.41221-3.50225a60.87678,60.87678,0,0,0-7.75689-6.3634,2.74537,2.74537,0,0,0-2.024-.75767,2.65334,2.65334,0,0,0-1.11259.64109,7.65379,7.65379,0,0,0-2.62275,3.25323,2.94217,2.94217,0,0,0,1.29815,3.62413c.94307.39738,1.96569.19074,2.81873.73646-1.7432,1.261-4.43477,1.89154-6.39516,3.195a21.80655,21.80655,0,0,1-6.42705,3.40157c-2.35777.60933-5.166.19074-6.70774-1.6955-.83189-1.01729-1.88627-2.575-3.01484-1.90742a2.13172,2.13172,0,0,0-.78415,1.15506,31.10813,31.10813,0,0,0-2.29419,8.58343A11.09812,11.09812,0,0,0,294.775,804.16523Z" />
   <path transform="translate(-147.83937 -93.3409)" id="path3527" fill="#2f2e41"
      d="M301.29206,551.0085a15.81761,15.81761,0,0,1,4.14737.46063,17.857,17.857,0,0,1,3.70311,1.69823l13.24263,7.34293a12.559,12.559,0,0,1,2.69583,1.81653c1.90776,1.83664,2.45918,4.66314,2.57311,7.30886.44368,10.3035-4.2049,20.18731-4.78988,30.48375a39.07367,39.07367,0,0,0,1.63729,13.59586c.33263,1.089.65963,2.4271-.13785,3.2398a2.88223,2.88223,0,0,1-1.0452.60008c-4.19307,1.63293-8.756,1.99346-13.24266,2.33718-10.97889.84109-22.055,1.67988-32.96767.21126a3.845,3.845,0,0,1-1.56315-.44934,3.94891,3.94891,0,0,1-1.32382-1.915q-2.06605-4.84457-4.05462-9.7217c-2.22438-5.45552-4.41535-11.1991-3.85379-17.06384.69762-7.28564,5.48066-13.43758,8.26954-20.20436.83258-2.02013,1.49405-4.11658,2.50458-6.05383a51.74078,51.74078,0,0,1,3.78059-5.67663c1.07293-1.52708,2.10566-4.9601,3.41534-6.03109,1.60137-1.30952,6.12145-1.27818,8.14886-1.5155A69.00911,69.00911,0,0,1,301.29206,551.0085Z" />
   <path id="path3529" opacity="0.1" transform="translate(-147.83937 -93.3409)"
      d="M223.52722,742.82016q5.22951,9.2749,10.45377,18.54445c.81061,1.43058,1.62128,2.87177,2.28888,4.3765,1.13394,2.54323,1.85445,5.26132,3.13139,7.73571a38.46647,38.46647,0,0,0,5.39911,7.32238q3.40956,3.93408,6.819,7.85756a9.14711,9.14711,0,0,0,2.62805,2.34189,3.13085,3.13085,0,0,0,3.338-.15365,3.46853,3.46853,0,0,0,.87431-1.20275,7.36846,7.36846,0,0,0,.69937-3.5817,22.785,22.785,0,0,1-6.623-4.88515,32.70984,32.70984,0,0,1-3.852-5.78586q-1.40674-2.4717-2.81873-4.94874-7.24036-12.74-14.49122-25.48006a28.93988,28.93988,0,0,1-3.86787-10.83c-1.06492.53514-2.10875,1.10735-3.13662,1.67428a5.188,5.188,0,0,0-1.51534,1.09678C221.482,738.51785,222.48339,740.971,223.52722,742.82016Z" />
   <path style="fill:#657786;fill-opacity:1" id="path3531" fill="#f5f5f5" transform="translate(-147.83937 -93.3409)"
      d="M267.88651,463.65693a180.0384,180.0384,0,0,0,26.50392,2.508c2.18852.04445,4.83671-.21711,5.80577-2.1799.45351-.91857.42523-2.06034,1.05975-2.8646,1.19241-1.51137,3.58861-.76447,5.3045.10833,2.3971,1.21932,4.9099,2.54155,6.34238,4.81769a16.355,16.355,0,0,1,1.7913,5.67263c.83126,4.22693,2.10426,8.65063,5.312,11.52607,1.66623,1.49361,3.756,2.46841,5.358,4.03077,2.58583,2.52194,3.59258,6.30439,3.59978,9.9164s-.86481,7.1585-1.51062,10.71231a86.838,86.838,0,0,0,2.00657,39.46656,2.64255,2.64255,0,0,1,.143,1.42365c-.25777.92309-1.37617,1.25061-2.32182,1.40643-14.67594,2.41832-30.41952.1236-43.92432,6.35672-1.12423-2.77448-3.90893-4.35124-5.28524-7.0097-1.11524-2.15416-.95995-4.7101-1.25605-7.11768-.80117-6.51421-4.95808-12.06217-7.31648-18.18709-2.06781-5.37024-2.78554-11.28718-5.681-16.26028-1.02833-1.76622-2.31214-3.375-3.316-5.15525a57.20277,57.20277,0,0,1-5.10894-15.50778c-.5844-6.97042,2.67025-13.68631,6.507-19.535C263.37891,465.53084,265.22852,463.2051,267.88651,463.65693Z" />
   <path style="stroke:#2d2c2c;stroke-opacity:1" id="path3533" opacity="0.1" stroke-miterlimit="10" stroke="#000"
      fill="none" transform="translate(-147.83937 -93.3409)"
      d="M310.38243,488.54558c1.67524.37525,2.65779,2.06765,3.43847,3.59662a19.068,19.068,0,0,1,1.32095,3.00088,17.60578,17.60578,0,0,1,.54967,5.36846,12.35789,12.35789,0,0,1-.36509,3.40625,4.48962,4.48962,0,0,1-1.9834,2.70162" />
   <ellipse id="ellipse3537" fill="#2f2e41" transform="translate(-243.47619 -9.63221) rotate(-14.33583)" ry="9.93783"
      rx="20.13398" cy="422.08823" cx="284.99145" />
   <path id="path4133-5"
      d="m 125.09339,505.64813 c -1.55181,0.26796 -2.91385,0.51664 -3.02956,0.53852 -0.11577,0.0219 -0.38415,0.0644 -0.58912,0.0942 -0.20497,0.0299 -0.43639,0.0736 -0.52631,0.10012 -0.0787,0.0232 -1.05987,0.19628 -2.1753,0.39061 -1.11542,0.19433 -2.12639,0.3701 -2.24209,0.39198 -0.11569,0.0219 -0.58978,0.11273 -1.04865,0.19296 l -0.8397,0.15584 -4.10447,7.48219 -4.09718,7.48616 1.05402,2.49897 c 0.58195,1.37378 1.07785,2.55914 1.10169,2.6193 0.0199,0.0674 0.21849,0.53418 0.43432,1.0386 0.21583,0.50443 0.43433,1.03859 0.49259,1.17411 0.0781,0.20298 3.7182,8.86609 5.46343,13.00591 0.21185,0.51169 0.41048,0.97844 0.43035,1.04587 0.0238,0.0601 0.11984,0.28229 0.20524,0.48921 0.30521,0.70407 0.78058,1.84052 0.79714,1.89672 0.01,0.0338 0.0854,0.20692 0.16816,0.38409 0.0788,0.18445 0.192,0.44426 0.23902,0.58309 0.051,0.13153 0.10593,0.25586 0.12776,0.26775 0.0291,0.0158 0.71145,-0.0936 1.15576,-0.1818 0.14942,-0.0318 1.48899,-0.27388 2.98129,-0.5365 1.48833,-0.25536 2.80542,-0.49079 2.92113,-0.51269 0.11569,-0.0219 1.01492,-0.18303 1.98489,-0.35283 0.97723,-0.1658 1.79446,-0.31502 1.82819,-0.32496 0.0338,-0.01 1.25757,-0.23011 2.71615,-0.48281 1.46256,-0.25998 2.75716,-0.48879 2.87286,-0.51067 0.11966,-0.0292 2.48143,-0.45029 5.24587,-0.93511 l 5.04023,-0.88673 8.13746,-14.93727 -1.54594,-3.69162 c -0.85936,-2.02494 -1.59162,-3.76364 -1.62538,-3.85753 -0.0338,-0.0939 -0.51974,-1.24551 -1.07389,-2.56641 l -1.00901,-2.4084 -1.16766,0.20362 c -1.07443,0.18835 -7.84962,1.3848 -8.59214,1.5181 -0.1719,0.0385 -0.57457,0.10213 -0.88797,0.15784 -0.30944,0.0484 -0.59309,0.10148 -0.62681,0.11142 -0.0338,0.01 -0.26513,0.0537 -0.52233,0.0929 -0.25721,0.0391 -0.48863,0.0829 -0.52234,0.0928 -0.0338,0.01 -0.27638,0.057 -0.55606,0.1028 l -0.49654,0.0975 -0.28072,-0.66242 c -0.15426,-0.35766 -0.47537,-1.13644 -0.72893,-1.72748 -0.50253,-1.20783 -0.45154,-1.07627 -0.9236,-2.20147 -0.19134,-0.46278 -0.37606,-0.90307 -0.41048,-0.97843 -0.46609,-1.0842 -1.06792,-2.52542 -1.1328,-2.68341 -0.32378,-0.80855 -1.62409,-3.89458 -1.71476,-4.0572 -0.11121,-0.21154 -0.14096,-0.20888 -2.92787,0.28257 z"
      style="fill:#eb7260;fill-opacity:1;stroke-width:0.0828541" />
   <path id="path3539" fill="#fcdb96" transform="translate(-147.83937 -93.3409)"
      d="M275.86075,493.84975a30.88012,30.88012,0,0,0-5.04312-14.10913,12.17691,12.17691,0,0,0-4.53505-4.40243,5.6064,5.6064,0,0,0-6.01815.46819,8.65359,8.65359,0,0,0-2.16265,4.00508,48.09339,48.09339,0,0,0-3.18187,20.29415c.03953,6.305.08881,12.68762,1.68235,18.78806.90354,3.459,2.29508,6.78806,2.98592,10.29572s.60694,7.35505-1.27372,10.39546a26.55947,26.55947,0,0,0-3.36915,7.64934,37.50631,37.50631,0,0,0-.60116,9.90872l.25536,9.1068c.33307,11.87771.656,23.8798-1.71945,35.52231-1.08385,5.31212-3.80449,10.3376-3.182,15.72331a22.95078,22.95078,0,0,0,1.65965,5.65836c1.01823,2.60028,2.24856,5.40841,4.74085,6.66807a9.55185,9.55185,0,0,0,3.85373.83968,26.32283,26.32283,0,0,0,4.937-.21658c1.00122-.139,2.29507-.80888,1.955-1.76076a1.93953,1.93953,0,0,0-.70613-.78577,11.01069,11.01069,0,0,1-4.10982-8.54329c.01966-4.7132,3.08539-9.24692,2.12918-13.86214-.59272-2.86078-2.703-5.633-1.8132-8.41578,2.00826-6.281,2.25228-13.02918,3.9633-19.39752l1.67717-6.24239c.99771-3.71341,1.99581-7.42849,2.81742-11.18479a122.52285,122.52285,0,0,0,2.70011-31.68623c-.07516-1.65745.84746-3.5473.98585-5.20068.16324-1.95034-.03457-3.91188-.00619-5.86884C274.59879,509.44119,276.641,501.86821,275.86075,493.84975Z" />
   <circle id="circle3541" fill="#92b06a" r="6.53537" cy="604.57035" cx="449.11714" />
   <line id="line3543" stroke-width="2" stroke-miterlimit="10" stroke="#2d2c2c" fill="none" y2="711.84111"
      x2="851.65873" y1="711.84111" x1="578.65873" />
   <line id="line3545" stroke-width="2" stroke-miterlimit="10" stroke="#2d2c2c" fill="none" y2="711.84111"
      x2="544.65873" y1="711.84111" x1="415.65873" />
   <line id="line3547" stroke-width="2" stroke-miterlimit="10" stroke="#2d2c2c" fill="#2d2c2c" y2="638.63149"
      x2="481.13592" y1="713.04286" x1="481.13592" />
   <circle id="circle3549" fill="#2d2c2c" r="10.52282" cy="638.63149" cx="481.13592" />
   <path id="path3551" fill="#2d2c2c" transform="translate(-147.83937 -93.3409)"
      d="M628.97529,777.83366s-1.50326-32.33193-32.32009-28.57378" />
   <path id="path3553" fill="#2d2c2c" transform="translate(-147.83937 -93.3409)"
      d="M880.91938,708.31062c-27.27962,41.83457-19.805,95.04278-19.805,95.04278s51.70364-14.61905,78.98326-56.45362,19.805-95.04278,19.805-95.04278S908.199,666.476,880.91938,708.31062Z" />
   <path id="path3555" fill="#92b06a" transform="translate(-147.83937 -93.3409)"
      d="M860.96927,802.86688s-.66409-.10594-1.88634-.35324c-.975-.19779-2.31724-.4804-3.95629-.869-14.65246-3.45472-53.608-15.13287-79.07671-45.83667-31.87654-38.44683-30.53425-92.1608-30.53425-92.1608s48.74035,7.9197,80.85707,42.44555q2.08768,2.2254,4.06228,4.61332c27.73655,33.452,30.32226,78.46212,30.52717,89.58923C860.99045,801.96261,860.96927,802.86688,860.96927,802.86688Z" />
   <path id="path3557" stroke-width="2" stroke-miterlimit="10" stroke="#2d2c2c" fill="none"
      transform="translate(-147.83937 -93.3409)"
      d="M841.30942,708.31062c27.27962,41.83457,19.805,95.04278,19.805,95.04278s-51.70364-14.61905-78.98326-56.45362-19.805-95.04278-19.805-95.04278S814.0298,666.476,841.30942,708.31062Z" />
   <path id="path3559" opacity="0.1" transform="translate(-147.83937 -93.3409)"
      d="M860.9622,800.29531c-.72062.869-1.35643,1.61076-1.87927,2.21833-1.1586,1.32112-1.81567,2.0135-1.81567,2.0135s-.79828-1.00323-2.14062-2.88246c-7.36862-10.27226-31.07114-46.79747-29.24137-88.9887q.14838-3.317.48748-6.56322,2.08768,2.2254,4.06228,4.61332C858.17158,744.15811,860.75729,789.1682,860.9622,800.29531Z" />
   <path id="path3561" fill="#92b06a" transform="translate(-147.83937 -93.3409)"
      d="M901.41077,715.7071c-2.15625,49.89649-39.19548,88.8205-39.19548,88.8205s-33.54326-41.97419-31.387-91.87068,39.19548-88.8205,39.19548-88.8205S903.567,665.81061,901.41077,715.7071Z" />
   <line id="line3563" stroke-width="2" stroke-miterlimit="10" stroke="#2d2c2c" fill="none" y2="532.53065"
      x2="722.51906" y1="709.77373" x1="714.37592" />
   <path style="fill:#eb7260;fill-opacity:1;stroke-width:0.293974"
      d="m 407.02937,149.37784 c -4.38022,3.46891 -8.20189,6.55564 -8.52526,6.82022 -0.32337,0.26458 -1.0877,0.85252 -1.67566,1.29348 -0.58794,0.44097 -1.23469,0.97012 -1.46987,1.2053 -0.20578,0.20578 -2.96914,2.41059 -6.11467,4.90937 -3.14553,2.49879 -5.99708,4.7624 -6.32045,5.02697 -0.32337,0.26458 -1.64626,1.35228 -2.93974,2.38119 l -2.35181,1.91084 -0.0882,30.27938 -0.0588,30.27938 7.52576,5.99708 c 4.14503,3.29252 7.70212,6.14407 7.8785,6.29106 0.17639,0.17639 1.58746,1.29349 3.11614,2.49878 1.52867,1.2053 3.11613,2.49879 3.52769,2.82216 0.58795,0.49975 26.6341,21.31315 39.09862,31.24949 1.52866,1.2347 2.93974,2.3518 3.11613,2.52819 0.17638,0.14698 0.85253,0.67613 1.46988,1.1759 2.14601,1.67564 5.55612,4.40961 5.7031,4.5566 0.0882,0.0882 0.61735,0.49975 1.1759,0.91132 0.55855,0.44097 1.35228,1.0583 1.73445,1.41107 0.38217,0.32338 0.76433,0.61736 0.85252,0.61736 0.1176,0 2.05783,-1.49928 3.29252,-2.52819 0.41156,-0.35276 4.17444,-3.3807 8.37828,-6.73201 4.20383,-3.32191 7.90792,-6.29106 8.23128,-6.55563 0.32337,-0.26458 2.85155,-2.29301 5.58552,-4.46842 2.76336,-2.17541 5.05636,-4.02745 5.14456,-4.11565 0.0882,-0.0882 3.52769,-2.85154 7.64333,-6.11466 4.11565,-3.29253 7.76093,-6.20287 8.0843,-6.46744 0.32338,-0.29398 6.9672,-5.61492 14.75753,-11.81779 l 14.19897,-11.31801 V 173.0722 l -11.08282,-8.87804 c -6.11467,-4.85058 -11.34742,-9.02501 -11.612,-9.2602 -0.26457,-0.23517 -3.73348,-2.99853 -7.70213,-6.17346 l -7.23178,-5.7913 -3.29251,2.61637 c -3.02794,2.4106 -22.10688,17.63848 -24.19411,19.31413 -0.47035,0.41157 -1.61686,1.29349 -2.49878,1.99903 -0.88192,0.67614 -1.67565,1.32289 -1.76385,1.41108 -0.0882,0.0882 -0.73493,0.61735 -1.46987,1.1759 -0.73494,0.55855 -1.38168,1.0877 -1.46988,1.17589 -0.0882,0.0882 -0.76433,0.64675 -1.55806,1.2641 l -1.38168,1.1465 -1.99903,-1.58747 c -1.0877,-0.85253 -3.4101,-2.73396 -5.20335,-4.14504 -3.61589,-2.91035 -3.23372,-2.58697 -6.61442,-5.29154 -1.38168,-1.11711 -2.70457,-2.17541 -2.93975,-2.3518 -3.29251,-2.58698 -7.61394,-6.05587 -8.0843,-6.43804 -2.3812,-1.96963 -11.67079,-9.37779 -12.22934,-9.73056 -0.70554,-0.47036 -0.79373,-0.41156 -8.64286,5.85009 z"
      id="path4133" />
</svg>