<svg id="Layer_1" data-name="Layer 1" xmlns="http://www.w3.org/2000/svg" viewBox="0 0 100 100"><defs><style>.cls-1{fill:#e8f4fa;}.cls-14,.cls-2{fill:#fff;}.cls-3{fill:none;}.cls-14,.cls-19,.cls-20,.cls-21,.cls-24,.cls-3,.cls-36,.cls-37,.cls-38,.cls-4,.cls-5{stroke:#45413c;stroke-linecap:round;stroke-linejoin:round;}.cls-4{fill:#dea47a;}.cls-5{fill:#bf8df2;}.cls-6{fill:#525252;}.cls-7{fill:#656769;}.cls-8{fill:#e0e0e0;}.cls-9{fill:#bdbec0;}.cls-10{fill:#ff6196;}.cls-11{fill:#ff87af;}.cls-12,.cls-20{fill:#ffe500;}.cls-13{fill:#fff48c;}.cls-15{fill:#00b8f0;}.cls-16{fill:#4acfff;}.cls-17,.cls-19{fill:#ff6242;}.cls-18{fill:#ff866e;}.cls-21{fill:#f7e5c6;}.cls-22,.cls-38{fill:#a86c4d;}.cls-23{fill:#de926a;}.cls-24,.cls-30{fill:#ffcebf;}.cls-25{fill:#45413c;}.cls-26{fill:#ffb59e;}.cls-27{fill:#ffaa54;}.cls-28{fill:#fc9;}.cls-29{fill:#020202;opacity:0.15;}.cls-31{fill:#9f5ae5;}.cls-32,.cls-37{fill:#ff8a14;}.cls-33{fill:#00dba8;}.cls-34{fill:#00f5bc;}.cls-35,.cls-36{fill:#00dfeb;}</style></defs><title>hippie-male</title><path class="cls-1" d="M90,50A40,40,0,1,0,13.56,66.5H86.44A39.85,39.85,0,0,0,90,50Z"/><path class="cls-2" d="M13.56,66.5a40,40,0,0,0,72.88,0Z"/><line class="cls-3" x1="11" y1="66.5" x2="89" y2="66.5"/><line class="cls-3" x1="6.5" y1="66.5" x2="9" y2="66.5"/><line class="cls-3" x1="91" y1="66.5" x2="93.5" y2="66.5"/><path class="cls-4" d="M57,34.5h7a2,2,0,0,1,2,2V39a0,0,0,0,1,0,0H55a0,0,0,0,1,0,0V36.5A2,2,0,0,1,57,34.5Z"/><path class="cls-5" d="M52,34h1a2,2,0,0,1,2,2v3a0,0,0,0,1,0,0H50a0,0,0,0,1,0,0V36A2,2,0,0,1,52,34Z"/><circle class="cls-6" cx="49.5" cy="62.5" r="4"/><path class="cls-7" d="M45.5,62.5a4,4,0,1,1,7.75,1.34l-1.15-.77a3.5,3.5,0,0,0-1.91-.57H48.81a3.5,3.5,0,0,0-1.91.57l-1.15.77A4,4,0,0,1,45.5,62.5Z"/><circle class="cls-3" cx="49.5" cy="62.5" r="4"/><circle class="cls-8" cx="49.5" cy="62.5" r="2"/><path class="cls-9" d="M49.5,62a2,2,0,0,0-1.85,1.25,1.86,1.86,0,0,1-.15-.75,2,2,0,0,1,4,0,1.86,1.86,0,0,1-.15.75A2,2,0,0,0,49.5,62Z"/><circle class="cls-3" cx="49.5" cy="62.5" r="2"/><path class="cls-2" d="M80,42H38.71a15.12,15.12,0,0,0-1.21,5.5V52H77a8.51,8.51,0,0,1,8.5,8.5h0v-9C85.5,49.66,82.71,45.18,80,42Z"/><path class="cls-8" d="M38.71,42H80c.4.48.8,1,1.19,1.5H38.18c.06-.2.13-.39.19-.58s.22-.62.34-.91Z"/><path class="cls-3" d="M80,42c2.67,3.18,5.46,7.66,5.46,9.5v9A8.51,8.51,0,0,0,77,52H37.5V47.5A15.12,15.12,0,0,1,38.71,42Z"/><path class="cls-7" d="M77.5,62.5l-2.11-4.21A3.21,3.21,0,0,0,72.5,56.5h-4a3.21,3.21,0,0,0-2.89,1.79L63.5,62.5Z"/><path class="cls-6" d="M76,59.5A3.22,3.22,0,0,0,73.26,58H67.74A3.21,3.21,0,0,0,65,59.5h0l.61-1.21A3.21,3.21,0,0,1,68.5,56.5h4a3.21,3.21,0,0,1,2.89,1.79L76,59.5Z"/><path class="cls-3" d="M77.5,62.5l-2.11-4.21A3.21,3.21,0,0,0,72.5,56.5h-4a3.21,3.21,0,0,0-2.89,1.79L63.5,62.5Z"/><circle class="cls-6" cx="70.5" cy="62.5" r="4"/><path class="cls-7" d="M70.5,60a4,4,0,0,0-3.92,3.25,3.67,3.67,0,0,1-.08-.75,4,4,0,0,1,8,0,3.67,3.67,0,0,1-.08.75A4,4,0,0,0,70.5,60Z"/><circle class="cls-3" cx="70.5" cy="62.5" r="4"/><circle class="cls-8" cx="70.5" cy="62.5" r="2"/><path class="cls-9" d="M70.5,62a2,2,0,0,0-1.85,1.25,1.86,1.86,0,0,1-.15-.75,2,2,0,0,1,4,0,1.86,1.86,0,0,1-.15.75A2,2,0,0,0,70.5,62Z"/><circle class="cls-3" cx="70.5" cy="62.5" r="2"/><path class="cls-10" d="M77.5,62.5l-2.11-4.23a3.23,3.23,0,0,0-2.87-1.77h-4a3.23,3.23,0,0,0-2.87,1.77L63.5,62.5h-10l-1.4-.93A3.5,3.5,0,0,0,50.19,61H48.81a3.5,3.5,0,0,0-1.91.57l-1.4.93h-8V52H77a8.51,8.51,0,0,1,8.5,8.5v2Z"/><path class="cls-11" d="M77,52H37.5v1.5H77A8.51,8.51,0,0,1,85.5,62V60.5A8.51,8.51,0,0,0,77,52Z"/><path class="cls-3" d="M77.5,62.5l-2.11-4.23a3.23,3.23,0,0,0-2.87-1.77h-4a3.23,3.23,0,0,0-2.87,1.77L63.5,62.5h-10l-1.4-.93A3.5,3.5,0,0,0,50.19,61H48.81a3.5,3.5,0,0,0-1.91.57l-1.4.93h-8V52H77a8.51,8.51,0,0,1,8.5,8.5v2Z"/><path class="cls-8" d="M37.5,60.5h5a1,1,0,0,1,0,2h-5a1,1,0,0,1,0-2Z"/><path class="cls-2" d="M42.5,61.5h-5a1,1,0,0,0-.85.5,1,1,0,0,1-.15-.5,1,1,0,0,1,1-1h5a1,1,0,0,1,1,1,1,1,0,0,1-.15.5A1,1,0,0,0,42.5,61.5Z"/><path class="cls-3" d="M37.5,60.5h5a1,1,0,0,1,0,2h-5a1,1,0,0,1,0-2Z"/><path class="cls-8" d="M80.5,60.5h5a1,1,0,0,1,0,2h-5a1,1,0,0,1,0-2Z"/><path class="cls-2" d="M85.5,61.5h-5a1,1,0,0,0-.85.5,1,1,0,0,1-.15-.5,1,1,0,0,1,1-1h5a1,1,0,0,1,1,1,1,1,0,0,1-.15.5A1,1,0,0,0,85.5,61.5Z"/><path class="cls-3" d="M80.5,60.5h5a1,1,0,0,1,0,2h-5a1,1,0,0,1,0-2Z"/><path class="cls-12" d="M85.5,58h1a1,1,0,0,0,1-1V56a1,1,0,0,0-1-1h-1Z"/><path class="cls-13" d="M86.5,55a1,1,0,0,1,1,1v1a1,1,0,0,1,0,.25,1,1,0,0,0-1-.75h-1V55Z"/><path class="cls-3" d="M85.5,58h1a1,1,0,0,0,1-1V56a1,1,0,0,0-1-1h-1Z"/><path class="cls-14" d="M78.93,40.73,80,42H38.71C39.5,40,41,38.5,48,38.5S77,38.48,78.93,40.73Z"/><path class="cls-15" d="M85.14,50H77a1,1,0,0,1-1-1V45a1,1,0,0,1,1-1h4.61A28.91,28.91,0,0,1,85.14,50Z"/><path class="cls-16" d="M81.5,44H77a1,1,0,0,0-1,1v4a1,1,0,0,0,.09.41Z"/><rect class="cls-15" x="61" y="44" width="13" height="6" rx="1" ry="1"/><path class="cls-16" d="M62,50h2.5l6-6H62a1,1,0,0,0-1,1v4A1,1,0,0,0,62,50Z"/><line class="cls-14" x1="44.5" y1="44" x2="41" y2="44"/><line class="cls-14" x1="44" y1="46" x2="40.5" y2="46"/><line class="cls-14" x1="43.5" y1="48" x2="40" y2="48"/><line class="cls-14" x1="43" y1="50" x2="39.5" y2="50"/><path class="cls-15" d="M58,44a1,1,0,0,1,1,1v4a1,1,0,0,1-1,1H47a.7.7,0,0,1-.58-.3.69.69,0,0,1-.1-.65L47.68,45a1.64,1.64,0,0,1,.82-1Z"/><path class="cls-16" d="M46.32,49.05a.69.69,0,0,0,.1.65A.7.7,0,0,0,47,50h2.5l6-6h-7a1.64,1.64,0,0,0-.82,1Z"/><path class="cls-3" d="M58,44a1,1,0,0,1,1,1v4a1,1,0,0,1-1,1H47a.7.7,0,0,1-.58-.3.69.69,0,0,1-.1-.65L47.68,45a1.64,1.64,0,0,1,.82-1Z"/><rect class="cls-3" x="61" y="44" width="13" height="6" rx="1" ry="1"/><path class="cls-3" d="M85.14,50H77a1,1,0,0,1-1-1V45a1,1,0,0,1,1-1h4.61A28.91,28.91,0,0,1,85.14,50Z"/><path class="cls-17" d="M35.5,57A1.5,1.5,0,0,0,37,58.5h.5V54H37a1.5,1.5,0,0,0-1.5,1.5h0Z"/><path class="cls-18" d="M37,54h.5v1.5H37A1.5,1.5,0,0,0,35.5,57V55.5A1.5,1.5,0,0,1,37,54Z"/><path class="cls-3" d="M35.5,57A1.5,1.5,0,0,0,37,58.5h.5V54H37a1.5,1.5,0,0,0-1.5,1.5h0Z"/><circle class="cls-19" cx="58" cy="57.5" r="1.5"/><ellipse class="cls-20" cx="58" cy="54.25" rx="1" ry="1.75"/><ellipse class="cls-20" cx="55.7" cy="55.2" rx="1" ry="1.75" transform="translate(-22.72 55.56) rotate(-45)"/><ellipse class="cls-20" cx="54.75" cy="57.5" rx="1.75" ry="1"/><ellipse class="cls-20" cx="55.7" cy="59.8" rx="1.75" ry="1" transform="translate(-25.97 56.9) rotate(-45)"/><ellipse class="cls-20" cx="58" cy="60.75" rx="1" ry="1.75"/><ellipse class="cls-20" cx="60.3" cy="59.8" rx="1" ry="1.75" transform="translate(-24.62 60.15) rotate(-45)"/><ellipse class="cls-20" cx="61.25" cy="57.5" rx="1.75" ry="1"/><ellipse class="cls-20" cx="60.3" cy="55.2" rx="1.75" ry="1" transform="translate(-21.37 58.81) rotate(-45)"/><path class="cls-21" d="M61,39a1,1,0,0,1-2,0V34.5a1,1,0,0,1,2,0Z"/><path class="cls-20" d="M82,56.55a3,3,0,1,1-2.4-3.5A3,3,0,0,1,82,56.55Z"/><line class="cls-3" x1="79.55" y1="53.05" x2="78.45" y2="58.95"/><polyline class="cls-3" points="80.98 58.26 79.09 55.51 76.34 57.39"/><path class="cls-20" d="M30.3,24.43A2.34,2.34,0,0,1,29,24.05S26.85,36.5,27.42,40s2.88,4,4,3.45-1.12-19-1.12-19Z"/><circle class="cls-20" cx="30.3" cy="22.13" r="2.3"/><path class="cls-22" d="M48.12,41.1a2.29,2.29,0,0,0,1-.23,1.15,1.15,0,0,0,.62-.87,1.13,1.13,0,0,0-.35-1,3,3,0,0,1-.71-1.92V26.15a9.2,9.2,0,0,0-18.4,0V37.08A3,3,0,0,1,29.59,39a1.13,1.13,0,0,0-.35,1,1.15,1.15,0,0,0,.62.87,2.28,2.28,0,0,0,1,.23Z"/><path class="cls-23" d="M39.5,19.83A9.19,9.19,0,0,1,48.7,29V26.15a9.2,9.2,0,0,0-18.4,0V29A9.19,9.19,0,0,1,39.5,19.83Z"/><path class="cls-3" d="M48.12,41.1a2.29,2.29,0,0,0,1-.23,1.15,1.15,0,0,0,.62-.87,1.13,1.13,0,0,0-.35-1,3,3,0,0,1-.71-1.92V26.15a9.2,9.2,0,0,0-18.4,0V37.08A3,3,0,0,1,29.59,39a1.13,1.13,0,0,0-.35,1,1.15,1.15,0,0,0,.62.87,2.28,2.28,0,0,0,1,.23Z"/><path class="cls-24" d="M46.4,27.07v-.92a7,7,0,0,0-.4-2.3H33a7,7,0,0,0-.4,2.3v.92a1.41,1.41,0,0,0,.14,2.79,6.91,6.91,0,0,0,13.52,0,1.41,1.41,0,0,0,.14-2.79Z"/><path class="cls-25" d="M36.91,26.15a.87.87,0,1,0,.86.86.87.87,0,0,0-.86-.86Z"/><path class="cls-25" d="M42.09,26.15A.87.87,0,1,0,43,27a.87.87,0,0,0-.86-.86Z"/><circle class="cls-26" cx="35.76" cy="29.31" r="0.86"/><circle class="cls-26" cx="43.24" cy="29.31" r="0.86"/><path class="cls-3" d="M37.77,31.38a3.13,3.13,0,0,0,3.45,0"/><path class="cls-20" d="M30.37,25H48.63a9.27,9.27,0,0,0-1.16-3.45H31.53A9.27,9.27,0,0,0,30.37,25Z"/><circle class="cls-27" cx="36.05" cy="27.88" r="2.3"/><path class="cls-28" d="M34.42,29.5a2.3,2.3,0,1,1,3.26-3.25Z"/><circle class="cls-27" cx="42.95" cy="27.88" r="2.3"/><path class="cls-28" d="M41.32,29.5a2.3,2.3,0,0,1,3.26-3.25Z"/><path class="cls-3" d="M38.35,27.88a1.15,1.15,0,0,1,2.3,0"/><circle class="cls-3" cx="36.05" cy="27.88" r="2.3"/><circle class="cls-3" cx="42.95" cy="27.88" r="2.3"/><ellipse class="cls-29" cx="39.5" cy="80.77" rx="14.95" ry="1.73"/><path class="cls-30" d="M32,75.6v2a2.63,2.63,0,0,0,5.25.08l.07-2.05Z"/><polygon class="cls-26" points="37.29 77.33 37.35 75.6 32.02 75.6 32.02 77.33 37.29 77.33"/><path class="cls-3" d="M32,75.6v2a2.63,2.63,0,0,0,5.25.08l.07-2.05Z"/><path class="cls-30" d="M47,75.6v2a2.63,2.63,0,0,1-5.25.08l-.07-2.05Z"/><polygon class="cls-26" points="41.71 77.33 41.65 75.6 46.97 75.6 46.97 77.33 41.71 77.33"/><path class="cls-3" d="M47,75.6v2a2.63,2.63,0,0,1-5.25.08l-.07-2.05Z"/><path class="cls-11" d="M47,58.93l2.11,15.36A1.15,1.15,0,0,1,48,75.6H41.65l-.3-9.71a1.85,1.85,0,0,0-3.7,0l-.3,9.71H31a1.15,1.15,0,0,1-1.13-1.31L32,58.93Z"/><polygon class="cls-10" points="47.45 62.38 46.98 58.92 32.02 58.92 31.55 62.38 47.45 62.38"/><path class="cls-31" d="M29.91,74.29a1.15,1.15,0,0,0,1.14,1.31h6.3l.14-4.6H30.36Z"/><path class="cls-31" d="M41.65,75.6H48a1.16,1.16,0,0,0,1.14-1.31L48.64,71H41.51Z"/><polygon class="cls-32" points="41.4 67.55 41.51 71 48.64 71 48.16 67.55 41.4 67.55"/><polygon class="cls-32" points="30.84 67.55 30.36 71 37.49 71 37.6 67.55 30.84 67.55"/><path class="cls-3" d="M47,58.93l2.11,15.36A1.15,1.15,0,0,1,48,75.6H41.65l-.3-9.71a1.85,1.85,0,0,0-3.7,0l-.3,9.71H31a1.15,1.15,0,0,1-1.13-1.31L32,58.93Z"/><line class="cls-3" x1="48.17" y1="67.55" x2="41.4" y2="67.55"/><line class="cls-3" x1="41.51" y1="71" x2="48.64" y2="71"/><line class="cls-3" x1="37.6" y1="67.55" x2="30.84" y2="67.55"/><line class="cls-3" x1="30.36" y1="71" x2="37.49" y2="71"/><path class="cls-33" d="M47,60.08V58.93H32v1.15H28V49.15a11.5,11.5,0,0,1,23,0V60.08Z"/><path class="cls-34" d="M39.5,37.65A11.5,11.5,0,0,0,28,49.15V52a11.5,11.5,0,0,1,23,0V49.15A11.5,11.5,0,0,0,39.5,37.65Z"/><path class="cls-35" d="M46.87,40.32a11.51,11.51,0,0,0-14.74,0L38.9,53.19a.68.68,0,0,0,1.2,0Z"/><path class="cls-3" d="M46.87,40.32a11.51,11.51,0,0,0-14.74,0L38.9,53.19a.68.68,0,0,0,1.2,0Z"/><path class="cls-32" d="M46.39,40a11.43,11.43,0,0,0-13.78,0L39,48.42a.66.66,0,0,0,1.08,0Z"/><path class="cls-3" d="M32.61,40,39,48.42a.66.66,0,0,0,1.08,0L46.39,40"/><path class="cls-3" d="M47,60.08V58.93H32v1.15H28V49.15a11.5,11.5,0,0,1,23,0V60.08Z"/><path class="cls-24" d="M42.54,38.06a11.32,11.32,0,0,0-3-.41,11.75,11.75,0,0,0-3.27.47l2.63,5.63a.68.68,0,0,0,1.24,0Z"/><line class="cls-3" x1="46.97" y1="46.85" x2="46.98" y2="58.93"/><line class="cls-3" x1="32.03" y1="46.85" x2="32.03" y2="58.93"/><path class="cls-24" d="M28,62.09a2,2,0,0,0,4,0v-2H28Z"/><path class="cls-24" d="M47,62.09a2,2,0,0,0,4,0v-2H47Z"/><rect class="cls-36" x="28" y="57.78" width="4.02" height="2.3"/><rect class="cls-37" x="28" y="55.48" width="4.02" height="2.3"/><rect class="cls-36" x="46.97" y="57.78" width="4.02" height="2.3"/><rect class="cls-37" x="46.97" y="55.48" width="4.02" height="2.3"/><path class="cls-38" d="M46.4,25V37.65a3,3,0,0,0,.71,1.92,1.15,1.15,0,0,1,.35,1,1.17,1.17,0,0,1-.62.87,2.43,2.43,0,0,1-1,.23A1.69,1.69,0,0,1,44.1,40V25Z"/><path class="cls-38" d="M32.6,25V35.93a3,3,0,0,1-.71,1.92,1.13,1.13,0,0,0-.35,1,1.15,1.15,0,0,0,.62.87,2.28,2.28,0,0,0,1,.23,1.69,1.69,0,0,0,1.73-1.72V25Z"/></svg>