<svg id="Layer_1" data-name="Layer 1" xmlns="http://www.w3.org/2000/svg" viewBox="0 0 100 100"><defs><style>.cls-1,.cls-11{fill:#fff;}.cls-2{fill:#e8f4fa;}.cls-3,.cls-4{fill:none;}.cls-11,.cls-14,.cls-15,.cls-16,.cls-18,.cls-22,.cls-23,.cls-24,.cls-26,.cls-27,.cls-28,.cls-29,.cls-3,.cls-6,.cls-9{stroke:#45413c;stroke-linejoin:round;}.cls-11,.cls-14,.cls-15,.cls-16,.cls-18,.cls-22,.cls-23,.cls-24,.cls-26,.cls-27,.cls-28,.cls-29,.cls-3,.cls-4,.cls-6,.cls-9{stroke-linecap:round;}.cls-4{stroke:#c0dceb;stroke-miterlimit:10;}.cls-5{fill:#00b8f0;}.cls-6{fill:#d18660;}.cls-7{fill:#45413c;}.cls-8{fill:#bd704a;}.cls-9{fill:#b89558;}.cls-10{fill:#009fd9;}.cls-12,.cls-18{fill:#656769;}.cls-13,.cls-29{fill:#87898c;}.cls-14{fill:#f0d5a8;}.cls-15{fill:#947746;}.cls-16{fill:#ffcebf;}.cls-17{fill:#020202;opacity:0.15;}.cls-19{fill:#ffb59e;}.cls-20{fill:#00dfeb;}.cls-21{fill:#00c9d4;}.cls-22{fill:#ff6242;}.cls-23{fill:#ffc44d;}.cls-24{fill:#bdbec0;}.cls-25{fill:#f0f0f0;}.cls-26{fill:#ffda8f;}.cls-27{fill:#ff8a14;}.cls-28{fill:#915e3a;}</style></defs><title>huligans-gang</title><path class="cls-1" d="M46.32,90.4a39.94,39.94,0,0,0,34.61-20H11.72A39.93,39.93,0,0,0,46.32,90.4Z"/><path class="cls-1" d="M9.89,66.9a36.28,36.28,0,0,0,1.83,3.5H80.93a38.67,38.67,0,0,0,1.83-3.5Z"/><path class="cls-2" d="M86.39,50.4A40,40,0,1,0,10,66.9H82.82A39.7,39.7,0,0,0,86.39,50.4Z"/><line class="cls-3" x1="7.39" y1="66.9" x2="85.39" y2="66.9"/><line class="cls-3" x1="2.89" y1="66.9" x2="5.39" y2="66.9"/><line class="cls-3" x1="87.39" y1="66.9" x2="89.89" y2="66.9"/><line class="cls-4" x1="60.39" y1="77.4" x2="67.54" y2="77.4"/><line class="cls-4" x1="56.21" y1="77.4" x2="58" y2="77.4"/><line class="cls-4" x1="53.23" y1="77.4" x2="53.83" y2="77.4"/><line class="cls-4" x1="30.54" y1="73.9" x2="37.7" y2="73.9"/><line class="cls-4" x1="26.37" y1="73.9" x2="28.16" y2="73.9"/><line class="cls-4" x1="23.39" y1="73.9" x2="23.98" y2="73.9"/><line class="cls-4" x1="41.73" y1="84.9" x2="48.89" y2="84.9"/><line class="cls-4" x1="37.56" y1="84.9" x2="39.35" y2="84.9"/><line class="cls-4" x1="34.58" y1="84.9" x2="35.17" y2="84.9"/><path class="cls-5" d="M74.54,78.72a3,3,0,0,1,2.07-.85h.5a3,3,0,0,1,2,.78V62.37h-13V78.65a3,3,0,0,1,2-.78h.5a3,3,0,0,1,2.08.85l.37-10.35a1.56,1.56,0,0,1,3.11,0Z"/><path class="cls-6" d="M79.61,35.87a1.23,1.23,0,0,0-1-1.2v-.8a6,6,0,0,0-12,0v.8a1.23,1.23,0,0,0,.13,2.43,6,6,0,0,0,11.75,0A1.25,1.25,0,0,0,79.61,35.87Z"/><path class="cls-7" d="M70.36,33.87a.75.75,0,0,0,0,1.5.75.75,0,0,0,0-1.5Z"/><path class="cls-7" d="M74.86,33.87a.75.75,0,0,0,0,1.5.75.75,0,0,0,0-1.5Z"/><circle class="cls-8" cx="69.36" cy="36.62" r="0.75"/><circle class="cls-8" cx="75.86" cy="36.62" r="0.75"/><path class="cls-9" d="M78.84,80.87a1,1,0,0,0,.9-1.45,3,3,0,0,0-2.63-1.55h-.5A3,3,0,0,0,74,79.42a1,1,0,0,0,.89,1.45Z"/><rect class="cls-10" x="66.11" y="62.37" width="13" height="2.57"/><path class="cls-3" d="M74.54,78.72a3,3,0,0,1,2.07-.85h.5a3,3,0,0,1,2,.78V62.37h-13V78.65a3,3,0,0,1,2-.78h.5a3,3,0,0,1,2.08.85l.37-10.35a1.56,1.56,0,0,1,3.11,0Z"/><path class="cls-9" d="M70.34,80.87a1,1,0,0,0,.9-1.45,3,3,0,0,0-2.63-1.55h-.5a3,3,0,0,0-2.63,1.55,1,1,0,0,0,.9,1.45Z"/><path class="cls-6" d="M66.11,62.37h-4v2.51a2,2,0,0,0,4,0Z"/><path class="cls-11" d="M68.3,41.8a6.07,6.07,0,0,0,.86,2.41l.12.2c.93,1.4,1.9,2.59,2.56,3.42a1,1,0,0,0,1.54,0c.66-.83,1.63-2,2.56-3.42l.13-.2a6.05,6.05,0,0,0,.85-2.41,21.85,21.85,0,0,0,.19-2.93V37.08l-3.46-.87a4.31,4.31,0,0,0-2.08,0l-3.46.87v1.79A21.85,21.85,0,0,0,68.3,41.8Z"/><path class="cls-3" d="M68.15,40.21s1,1.66,4.46,1.16"/><path class="cls-3" d="M76.37,43.34s-1.05,1-3.76,1"/><path class="cls-3" d="M73.11,39.37s2.5,0,3.5-1"/><path class="cls-12" d="M62.11,62.37h17v-13c1.71.46,10-2.82,10-10.5v-.5a2,2,0,1,0-4,0v.5a6,6,0,0,1-6,6h-.92a27.28,27.28,0,0,0,1.42-8.69V32.87a7,7,0,1,0-14,0v3.31a27.42,27.42,0,0,0,1.59,9.19l-.07.05a9.85,9.85,0,0,0-2,1.62,10.41,10.41,0,0,0-3,7.33v8Zm15-23.5a21.85,21.85,0,0,1-.19,2.93,6.05,6.05,0,0,1-.85,2.41l-.13.2C75,45.81,74,47,73.38,47.83a1,1,0,0,1-1.54,0c-.66-.83-1.63-2-2.56-3.42l-.12-.2a6.07,6.07,0,0,1-.86-2.41,21.85,21.85,0,0,1-.19-2.93V35.56a4.64,4.64,0,0,1,4.07-4.67,4.5,4.5,0,0,1,4.93,4.48Z"/><path class="cls-13" d="M72.61,28.37a8,8,0,0,1,7,4.1,7,7,0,0,0-14,0A8,8,0,0,1,72.61,28.37Z"/><path class="cls-3" d="M62.11,62.37h17v-13c1.71.46,10-2.82,10-10.5v-.5a2,2,0,1,0-4,0v.5a6,6,0,0,1-6,6h-.92a27.28,27.28,0,0,0,1.42-8.69V32.87a7,7,0,1,0-14,0v3.31a27.42,27.42,0,0,0,1.59,9.19l-.07.05a9.85,9.85,0,0,0-2,1.62,10.41,10.41,0,0,0-3,7.33v8Zm15-23.5a21.85,21.85,0,0,1-.19,2.93,6.05,6.05,0,0,1-.85,2.41l-.13.2C75,45.81,74,47,73.38,47.83a1,1,0,0,1-1.54,0c-.66-.83-1.63-2-2.56-3.42l-.12-.2a6.07,6.07,0,0,1-.86-2.41,21.85,21.85,0,0,1-.19-2.93V35.56a4.64,4.64,0,0,1,4.07-4.67,4.5,4.5,0,0,1,4.93,4.48Z"/><line class="cls-3" x1="66.11" y1="52.37" x2="66.11" y2="62.37"/><path class="cls-14" d="M84.62,45.27l-1.8-.87,9.74-23.07a2.36,2.36,0,0,1,3.22-1.21,2.37,2.37,0,0,1,1,3.28Z"/><path class="cls-15" d="M86,44.81a1,1,0,0,1-1.33.46l-1.8-.87a1,1,0,1,1,.88-1.8l1.79.88A1,1,0,0,1,86,44.81Z"/><path class="cls-6" d="M88,36.42a1.75,1.75,0,0,0-2.51.9,1.8,1.8,0,0,0,.84,2.18l.57.33a1,1,0,0,0,1.38-.37L89,38.15a1,1,0,0,0-.36-1.36Z"/><path class="cls-16" d="M61.14,35.9a1.76,1.76,0,0,1,1.75,1.75v2a7.76,7.76,0,0,1-7.75,7.75H52.89v15h-13V46.3a10,10,0,0,1,6.5-2.4h8.75a4.26,4.26,0,0,0,4.25-4.25v-2A1.76,1.76,0,0,1,61.14,35.9Z"/><ellipse class="cls-17" cx="47.93" cy="81.07" rx="32.46" ry="1.5"/><path class="cls-18" d="M52.62,80.9a1,1,0,0,0,.9-1.45,3,3,0,0,0-2.63-1.55h-.5a3,3,0,0,0-2.63,1.55,1,1,0,0,0,.9,1.45Z"/><path class="cls-16" d="M53.39,35.9a1.24,1.24,0,0,0-1-1.2v-.8a6,6,0,1,0-12,0v.8a1.23,1.23,0,0,0-1,1.2,1.25,1.25,0,0,0,1.12,1.23,6,6,0,0,0,11.75,0A1.25,1.25,0,0,0,53.39,35.9Z"/><path class="cls-7" d="M44.14,33.9a.75.75,0,1,0,.75.75.75.75,0,0,0-.75-.75Z"/><path class="cls-7" d="M48.64,33.9a.75.75,0,1,0,.75.75.75.75,0,0,0-.75-.75Z"/><circle class="cls-19" cx="43.14" cy="36.65" r="0.75"/><circle class="cls-19" cx="49.64" cy="36.65" r="0.75"/><path class="cls-3" d="M44.89,38.45a2.72,2.72,0,0,0,3,0"/><path class="cls-20" d="M48.31,78.75a3,3,0,0,1,2.08-.85h.5a3,3,0,0,1,2,.77V62.4h-13V78.67a3,3,0,0,1,2-.77h.5a3,3,0,0,1,2.08.85l.36-10.35a1.56,1.56,0,0,1,3.11,0Z"/><rect class="cls-21" x="39.89" y="62.4" width="13" height="2.5"/><path class="cls-18" d="M44.12,80.9A1,1,0,0,0,45,79.45a3,3,0,0,0-2.62-1.55h-.5a3,3,0,0,0-2.63,1.55,1,1,0,0,0,.9,1.45Z"/><path class="cls-11" d="M52.89,43.9V62.4h-13V46.3a10,10,0,0,1,3.54-1.95,3,3,0,0,0,6-.45Z"/><path class="cls-22" d="M40.39,37.4c0,4,3.57,8.39,5.22,10.45a1,1,0,0,0,1.56,0c1.64-2.06,5.22-6.42,5.22-10.45l-5-1.26a4.24,4.24,0,0,0-1.94,0Z"/><path class="cls-23" d="M46.39,26.9a7,7,0,0,0-7,7v1.5l.21-.11a1,1,0,0,1,.73-.39,5.07,5.07,0,0,0,2.25-2.35,2,2,0,0,1,1.81-1.15h4a2,2,0,0,1,1.78,1.09,7.08,7.08,0,0,0,1.74,2.18l.3.25.18,0a1,1,0,0,1,1,1v-2A7,7,0,0,0,46.39,26.9Z"/><path class="cls-3" d="M40.62,39.27a6.84,6.84,0,0,0,5.77,2.13"/><path class="cls-3" d="M50.58,43a6.5,6.5,0,0,1-4.19,1.36"/><path class="cls-3" d="M46.89,39.4s2.5,0,3.5-1"/><path class="cls-3" d="M48.31,78.75a3,3,0,0,1,2.08-.85h.5a3,3,0,0,1,2,.77V62.4h-13V78.67a3,3,0,0,1,2-.77h.5a3,3,0,0,1,2.08.85l.36-10.35a1.56,1.56,0,0,1,3.11,0Z"/><path class="cls-16" d="M41.48,63.07a5.35,5.35,0,0,1-1.59-3.77v-13a10,10,0,0,0-3.5,7.6v5.4a8.42,8.42,0,0,0,2.71,6.19,1,1,0,0,0,1.39,0l1-1A1,1,0,0,0,41.48,63.07Z"/><path class="cls-24" d="M58.19,27.71l-1.84.79,6,14.07a1,1,0,1,0,1.84-.78Z"/><rect class="cls-25" x="43.63" y="12.43" width="20.96" height="16.3" rx="2" ry="2" transform="translate(-3.74 22.89) rotate(-23.11)"/><path class="cls-1" d="M42.73,20.63,62,12.4l-.67-1.59a2,2,0,0,0-2.63-1.05l-15.6,6.66A2,2,0,0,0,42.05,19Z"/><rect class="cls-3" x="43.63" y="12.43" width="20.96" height="16.3" rx="2" ry="2" transform="translate(-3.74 22.89) rotate(-23.11)"/><path class="cls-11" d="M58.17,18.22A4.66,4.66,0,0,0,51.64,16a4.78,4.78,0,0,0-2,6.09l.39.93a1,1,0,0,0,.74.59l1.54.29.75,1.76a1,1,0,0,0,1.31.53l3.52-1.5a1,1,0,0,0,.52-1.32l-.75-1.75.86-1.31a1,1,0,0,0,.08-.94Z"/><path class="cls-1" d="M52.58,20a.58.58,0,1,1-1.07.46.57.57,0,0,1,.31-.76A.58.58,0,0,1,52.58,20Z"/><path class="cls-7" d="M52.05,19.62a.46.46,0,0,0-.23.05.57.57,0,0,0-.31.76.59.59,0,0,0,.54.35.57.57,0,0,0,.22,0,.58.58,0,0,0,.31-.77.57.57,0,0,0-.53-.35Z"/><path class="cls-1" d="M55.26,18.91a.08.08,0,0,1-.08-.05.11.11,0,0,1,0-.11l.1.05,0,.11Z"/><path class="cls-7" d="M55.26,18.25a.62.62,0,0,0-.23,0,.6.6,0,0,0-.31.77.59.59,0,0,0,.54.35.62.62,0,0,0,.23,0,.6.6,0,0,0,.31-.77.59.59,0,0,0-.54-.35Z"/><line class="cls-3" x1="54.34" y1="21.12" x2="54.57" y2="21.66"/><line class="cls-3" x1="54.41" y1="24.26" x2="55.1" y2="25.86"/><line class="cls-3" x1="56.55" y1="23.34" x2="57.24" y2="24.95"/><path class="cls-16" d="M60.54,35a1.74,1.74,0,0,0-.93,2.5,1.82,1.82,0,0,0,2.2.76l.63-.23a1,1,0,0,0,.6-1.29l-.52-1.4a1,1,0,0,0-1.28-.59Z"/><path class="cls-12" d="M30.05,46.3a10,10,0,0,0-6.5-2.4H15.3a4.17,4.17,0,0,1-2.54-.85L10.82,46A7.73,7.73,0,0,0,15.3,47.4h1.75v15h13V55.9h3.5v-2A10,10,0,0,0,30.05,46.3Z"/><path class="cls-13" d="M25.48,78.75a3,3,0,0,1,2.08-.85h.5a3,3,0,0,1,2,.77V62.4h-13V78.67a3,3,0,0,1,2-.77h.5a3,3,0,0,1,2.08.85L22,68.4a1.56,1.56,0,0,1,3.11,0Z"/><path class="cls-13" d="M30.05,46.3a10,10,0,0,0-6.5-2.4H15.3a4.17,4.17,0,0,1-2.54-.85s1.59,2.67,2.54,2.67h8.25a10,10,0,0,1,10,10V53.9A10,10,0,0,0,30.05,46.3Z"/><path class="cls-3" d="M30.05,46.3a10,10,0,0,0-6.5-2.4H15.3a4.17,4.17,0,0,1-2.54-.85L10.82,46A7.73,7.73,0,0,0,15.3,47.4h1.75v15h13V55.9h3.5v-2A10,10,0,0,0,30.05,46.3Z"/><path class="cls-12" d="M30.55,33.9a7,7,0,0,0-14,0v1a7,7,0,0,0,14,0Z"/><path class="cls-13" d="M23.55,26.9a7,7,0,0,0-7,7v1a6,6,0,0,0,.05.75,7,7,0,0,1,13.91,0,6.06,6.06,0,0,0,0-.75v-1A7,7,0,0,0,23.55,26.9Z"/><path class="cls-3" d="M30.55,33.9a7,7,0,0,0-14,0v1a7,7,0,0,0,14,0Z"/><path class="cls-13" d="M17.05,62.4V80.9h4.5L22,68.4a1.56,1.56,0,0,1,3.11,0l.44,12.5h4.5V62.4Z"/><path class="cls-11" d="M29.79,80.9a1,1,0,0,0,.89-1.45,3,3,0,0,0-2.62-1.55h-.5a3,3,0,0,0-2.63,1.55,1,1,0,0,0,.9,1.45Z"/><path class="cls-13" d="M25.48,78.74a3,3,0,0,1,2.08-.84h.5a3,3,0,0,1,2,.77V62.4h-13V78.67a3,3,0,0,1,2-.77h.5a3,3,0,0,1,2.08.84L22,68.4a1.56,1.56,0,0,1,3.11,0Z"/><path class="cls-11" d="M21.28,80.9a1,1,0,0,0,.9-1.45,3,3,0,0,0-2.63-1.55h-.5a3,3,0,0,0-2.62,1.55,1,1,0,0,0,.89,1.45Z"/><rect class="cls-12" x="17.05" y="62.4" width="13" height="2.5"/><path class="cls-3" d="M25.48,78.74a3,3,0,0,1,2.08-.84h.5a3,3,0,0,1,2,.77V62.4h-13V78.67a3,3,0,0,1,2-.77h.5a3,3,0,0,1,2.08.84L22,68.4a1.56,1.56,0,0,1,3.11,0Z"/><ellipse class="cls-26" cx="23.55" cy="34.65" rx="7" ry="2.25"/><path class="cls-7" d="M21.3,33.9a.75.75,0,0,0,0,1.5.75.75,0,1,0,0-1.5Z"/><path class="cls-7" d="M25.8,33.9a.75.75,0,0,0,0,1.5.75.75,0,1,0,0-1.5Z"/><path class="cls-26" d="M31.8,66.9a1.75,1.75,0,0,0,1.75-1.75V55.9h-3.5v9.25A1.75,1.75,0,0,0,31.8,66.9Z"/><path class="cls-26" d="M11.05,39.65v-2a1.57,1.57,0,0,0-.08-.49s0,0,0,0L11,37s0,0,0-.07a1.57,1.57,0,0,0,0-.53,1.68,1.68,0,0,0-.92-1.28L9.83,35l-.62-.23a1,1,0,0,0-1.29.59L7.4,36.75h0a1,1,0,0,0,.13.93l0,.19v1.77A7.75,7.75,0,0,0,10.82,46l1.94-2.92A4.22,4.22,0,0,1,11.05,39.65Z"/><path class="cls-26" d="M23.55,46.9a3,3,0,0,0,3-2.55,10,10,0,0,0-3-.45h-3A3,3,0,0,0,23.55,46.9Z"/><line class="cls-3" x1="30.05" y1="55.9" x2="30.05" y2="52.4"/><path class="cls-27" d="M16.86,22.07a3,3,0,0,1-4.18,1.81A3.11,3.11,0,0,1,11.24,20a5.44,5.44,0,0,1,3.9-3.51.5.5,0,0,1,.45.87,4.3,4.3,0,0,0-1.78,2.75c.52.5,1.17.39,1.91-.2a.49.49,0,0,1,.69.1A2.29,2.29,0,0,1,16.86,22.07Z"/><path class="cls-28" d="M13.11,24.05a3.2,3.2,0,0,1-.9-.47l-6,19.27a1,1,0,0,0,.66,1.26h0a1,1,0,0,0,1.25-.66l6-19.28A3.14,3.14,0,0,1,13.11,24.05Z"/><path class="cls-26" d="M8.68,38.31A1.75,1.75,0,0,0,11,37a1.83,1.83,0,0,0-1.18-2l-.62-.23a1,1,0,0,0-1.3.59l-.52,1.4A1,1,0,0,0,8,38Z"/><rect class="cls-29" x="28.55" y="69.4" width="2.5" height="4" rx="1" ry="1"/><rect class="cls-29" x="16.05" y="69.4" width="2.5" height="4" rx="1" ry="1"/></svg>