<svg id="Layer_1" data-name="Layer 1" xmlns="http://www.w3.org/2000/svg" xmlns:xlink="http://www.w3.org/1999/xlink" viewBox="0 0 100 100"><defs><style>.cls-1,.cls-5,.cls-6,.cls-8{fill:none;}.cls-2{fill:#e8f4fa;}.cls-3{fill:#cdf7ad;}.cls-4{fill:#adc4d9;}.cls-13,.cls-14,.cls-15,.cls-16,.cls-20,.cls-5,.cls-8{stroke:#45413c;}.cls-13,.cls-14,.cls-15,.cls-16,.cls-20,.cls-5,.cls-6{stroke-linecap:round;}.cls-13,.cls-14,.cls-15,.cls-16,.cls-20,.cls-5{stroke-linejoin:round;}.cls-6{stroke:#c0dceb;}.cls-6,.cls-8{stroke-miterlimit:10;}.cls-7{clip-path:url(#clip-path);}.cls-16,.cls-9{fill:#dea47a;}.cls-10{fill:#f0c2a1;}.cls-11,.cls-15{fill:#bf8256;}.cls-12{fill:#8ca4b8;}.cls-13{fill:#915e3a;}.cls-14,.cls-17{fill:#00b8f0;}.cls-18{fill:#4acfff;}.cls-19{fill:#020202;opacity:0.15;}.cls-20{fill:#fff;}.cls-21{fill:#ff6242;}.cls-22{fill:#ffe500;}</style><clipPath id="clip-path"><circle class="cls-1" cx="51.5" cy="51.5" r="40"/></clipPath></defs><title>hospital</title><circle class="cls-2" cx="51.5" cy="51.5" r="40"/><path class="cls-3" d="M15.05,68A40.11,40.11,0,0,0,26.22,82.5H76.78A40.11,40.11,0,0,0,88,68Z"/><path class="cls-4" d="M51.5,91.5a39.81,39.81,0,0,0,25.28-9H26.22A39.81,39.81,0,0,0,51.5,91.5Z"/><line class="cls-5" x1="12.5" y1="68" x2="90.5" y2="68"/><line class="cls-5" x1="8" y1="68" x2="10.5" y2="68"/><line class="cls-5" x1="92.5" y1="68" x2="95" y2="68"/><line class="cls-6" x1="48.66" y1="86.5" x2="55.81" y2="86.5"/><line class="cls-6" x1="44.48" y1="86.5" x2="46.27" y2="86.5"/><line class="cls-6" x1="41.5" y1="86.5" x2="42.1" y2="86.5"/><g class="cls-7"><line class="cls-8" x1="24.4" y1="82.5" x2="78.9" y2="82.5"/></g><path class="cls-9" d="M35.23,28.1h9.45a0,0,0,0,1,0,0v4.77a1,1,0,0,1-1,1H35.23a0,0,0,0,1,0,0V28.1A0,0,0,0,1,35.23,28.1Z" transform="translate(79.9 61.98) rotate(180)"/><path class="cls-10" d="M36.23,28.1h8.44v1.7H36.23a1,1,0,0,0-1,1V29.1A1,1,0,0,1,36.23,28.1Z"/><rect class="cls-11" x="35.23" y="36.5" width="9.45" height="31.5"/><rect class="cls-9" x="35.23" y="41.77" width="9.45" height="26.23"/><polygon class="cls-4" points="77.75 19.18 39.95 19.18 36.27 28.1 81.42 28.1 77.75 19.18"/><polygon class="cls-12" points="38 23.9 36.27 28.1 81.42 28.1 79.7 23.9 38 23.9"/><polygon class="cls-5" points="77.75 19.18 39.95 19.18 36.27 28.1 81.42 28.1 77.75 19.18"/><path class="cls-9" d="M73,33.88H44.67V28.1l12.88-11a2,2,0,0,1,2.6,0L73,28.1Z"/><path class="cls-10" d="M60.15,17.13a2,2,0,0,0-2.6,0l-12.88,11v2l12.88-11a2,2,0,0,1,2.6,0L73,30.12v-2Z"/><path class="cls-5" d="M73,33.88H44.67V28.1l12.88-11a2,2,0,0,1,2.6,0L73,28.1Z"/><rect class="cls-10" x="44.67" y="55.4" width="28.35" height="12.6"/><rect class="cls-5" x="44.67" y="55.4" width="28.35" height="12.6"/><rect class="cls-9" x="44.67" y="58.02" width="28.35" height="1.79"/><rect class="cls-11" x="44.67" y="33.88" width="28.35" height="21.52"/><rect class="cls-11" x="35.23" y="58.02" width="9.45" height="1.79"/><polygon class="cls-9" points="73.03 55.4 44.67 55.4 44.67 41.75 52.55 41.75 65.15 41.75 73.03 41.75 73.03 55.4"/><rect class="cls-5" x="44.67" y="33.88" width="28.35" height="21.52"/><rect class="cls-13" x="44.67" y="55.4" width="28.35" height="2.63"/><path class="cls-10" d="M58.85,22.33a6.3,6.3,0,0,0-6.3,6.29v5.26h12.6V28.62A6.3,6.3,0,0,0,58.85,22.33Z"/><path class="cls-9" d="M58.85,22.33a6.3,6.3,0,0,0-6.3,6.29v2.71a6.3,6.3,0,0,1,12.6,0V28.62A6.3,6.3,0,0,0,58.85,22.33Z"/><path class="cls-5" d="M58.85,22.33a6.3,6.3,0,0,0-6.3,6.29v5.26h12.6V28.62A6.3,6.3,0,0,0,58.85,22.33Z"/><path class="cls-5" d="M36.23,28.1h8.45a0,0,0,0,1,0,0V68a0,0,0,0,1,0,0H35.23a0,0,0,0,1,0,0V29.1A1,1,0,0,1,36.23,28.1Z"/><rect class="cls-13" x="35.23" y="55.4" width="9.45" height="2.63"/><rect class="cls-13" x="44.67" y="33.88" width="28.35" height="2.63"/><rect class="cls-13" x="35.23" y="33.88" width="9.45" height="2.63"/><path class="cls-14" d="M40,30.2h0a1,1,0,0,0-1.05,1.05v2.63H41V31.25A1,1,0,0,0,40,30.2Z"/><path class="cls-14" d="M48.35,30.2h0a1,1,0,0,0-1.05,1.05v2.63h2.1V31.25A1,1,0,0,0,48.35,30.2Z"/><path class="cls-14" d="M69.35,30.2h0a1,1,0,0,0-1,1.05v2.63h2.1V31.25A1,1,0,0,0,69.35,30.2Z"/><rect class="cls-14" x="38.9" y="38.6" width="2.1" height="4.2"/><rect class="cls-14" x="38.9" y="44.9" width="2.1" height="4.2"/><rect class="cls-14" x="38.9" y="51.2" width="2.1" height="4.2"/><rect class="cls-14" x="38.9" y="60.13" width="2.1" height="4.2"/><rect class="cls-11" x="73.02" y="36.5" width="9.45" height="31.5"/><path class="cls-9" d="M73,28.1h8.45a1,1,0,0,1,1,1v4.77a0,0,0,0,1,0,0H73a0,0,0,0,1,0,0V28.1A0,0,0,0,1,73,28.1Z"/><path class="cls-10" d="M81.48,28.1H73v1.7h8.46a1,1,0,0,1,1,1V29.1A1,1,0,0,0,81.48,28.1Z"/><rect class="cls-9" x="73.02" y="41.77" width="9.45" height="26.23"/><rect class="cls-11" x="73.02" y="58.02" width="9.45" height="1.79"/><path class="cls-5" d="M73,28.1h8.45a1,1,0,0,1,1,1V68a0,0,0,0,1,0,0H73a0,0,0,0,1,0,0V28.1A0,0,0,0,1,73,28.1Z"/><rect class="cls-13" x="73.02" y="55.4" width="9.45" height="2.63"/><rect class="cls-13" x="73.02" y="33.88" width="9.45" height="2.63"/><path class="cls-14" d="M77.75,30.2h0a1,1,0,0,0-1,1.05v2.63h2.1V31.25A1,1,0,0,0,77.75,30.2Z"/><rect class="cls-14" x="76.7" y="38.6" width="2.1" height="4.2"/><rect class="cls-14" x="76.7" y="44.9" width="2.1" height="4.2"/><rect class="cls-14" x="76.7" y="51.2" width="2.1" height="4.2"/><rect class="cls-14" x="76.7" y="60.13" width="2.1" height="4.2"/><rect class="cls-14" x="47.3" y="38.6" width="2.1" height="4.2"/><rect class="cls-14" x="47.3" y="44.9" width="2.1" height="4.2"/><rect class="cls-14" x="47.3" y="51.2" width="2.1" height="4.2"/><rect class="cls-14" x="68.3" y="38.6" width="2.1" height="4.2"/><rect class="cls-14" x="68.3" y="44.9" width="2.1" height="4.2"/><rect class="cls-14" x="60.42" y="39.65" width="2.1" height="4.2"/><rect class="cls-14" x="60.42" y="45.95" width="2.1" height="4.2"/><rect class="cls-14" x="55.17" y="39.65" width="2.1" height="4.2"/><rect class="cls-14" x="55.17" y="45.95" width="2.1" height="4.2"/><rect class="cls-14" x="68.3" y="51.2" width="2.1" height="4.2"/><rect class="cls-15" x="39.95" y="16.02" width="3.67" height="3.15"/><path class="cls-16" d="M43.62,16H40l-.37-.53a1,1,0,0,1,.83-1.57h2.74A1,1,0,0,1,44,15.47Z"/><rect class="cls-15" x="74.08" y="16.02" width="3.67" height="3.15"/><path class="cls-16" d="M77.75,16H74.08l-.38-.5a1,1,0,0,1,.8-1.6h2.74a1,1,0,0,1,.86,1.52Z"/><line class="cls-5" x1="52.55" y1="36.5" x2="52.55" y2="50.15"/><line class="cls-5" x1="65.15" y1="36.5" x2="65.15" y2="50.15"/><rect class="cls-13" x="53.08" y="55.4" width="11.55" height="12.6"/><rect class="cls-9" x="53.08" y="58.02" width="2.1" height="9.98"/><rect class="cls-11" x="53.08" y="58.02" width="2.1" height="1.79"/><rect class="cls-5" x="53.08" y="58.02" width="2.1" height="9.98"/><rect class="cls-9" x="62.52" y="58.02" width="2.1" height="9.98"/><rect class="cls-11" x="62.52" y="58.02" width="2.1" height="1.79"/><rect class="cls-5" x="62.52" y="58.02" width="2.1" height="9.98"/><rect class="cls-17" x="55.17" y="58.02" width="7.35" height="9.98"/><polygon class="cls-18" points="61.48 58.02 55.17 58.02 55.17 68 57.4 68 61.48 58.02"/><rect class="cls-5" x="58.85" y="58.02" width="3.67" height="9.98"/><line class="cls-5" x1="44.67" y1="55.4" x2="34.23" y2="55.4"/><line class="cls-5" x1="44.67" y1="33.88" x2="34.23" y2="33.88"/><line class="cls-5" x1="83.48" y1="55.4" x2="73.02" y2="55.4"/><line class="cls-5" x1="83.48" y1="33.88" x2="73.02" y2="33.88"/><rect class="cls-5" x="55.17" y="58.02" width="3.68" height="9.98"/><path class="cls-19" d="M52,79.79c0,1-5.71,1.74-12.75,1.74S26.5,80.75,26.5,79.79s5.71-1.74,12.75-1.74S52,78.83,52,79.79Z"/><path class="cls-20" d="M50.84,78.63H48V60.68a1.59,1.59,0,0,1,2.83,0Z"/><rect class="cls-17" x="31.03" y="61.82" width="16.98" height="16.81"/><rect class="cls-18" x="31.03" y="61.82" width="16.98" height="3.18"/><rect class="cls-5" x="31.03" y="61.82" width="16.98" height="16.81"/><path class="cls-20" d="M48.38,60.62h2.1a2.14,2.14,0,0,0,1.11-1.87,2.17,2.17,0,1,0-4.33,0A2.13,2.13,0,0,0,48.38,60.62Z"/><path class="cls-20" d="M31.05,78.63H28.22V60.68a1.59,1.59,0,0,1,2.83,0Z"/><path class="cls-20" d="M28.58,60.62h2.1a2.16,2.16,0,1,0-2.1,0Z"/><path class="cls-21" d="M39.47,64.4a.36.36,0,0,0-.44,0,8.68,8.68,0,0,1-4,1.67.37.37,0,0,0-.32.36v3.2a7.11,7.11,0,0,0,4.43,6.59.34.34,0,0,0,.28,0,7.11,7.11,0,0,0,4.43-6.59v-3.2a.37.37,0,0,0-.32-.36A8.68,8.68,0,0,1,39.47,64.4Z"/><path class="cls-8" d="M39.47,64.4a.36.36,0,0,0-.44,0,8.68,8.68,0,0,1-4,1.67.37.37,0,0,0-.32.36v3.2a7.11,7.11,0,0,0,4.43,6.59.34.34,0,0,0,.28,0,7.11,7.11,0,0,0,4.43-6.59v-3.2a.37.37,0,0,0-.32-.36A8.68,8.68,0,0,1,39.47,64.4Z"/><path class="cls-22" d="M39.65,64.52l-5,5v.14A6.91,6.91,0,0,0,35.12,72l6.47-6.48A9,9,0,0,1,39.65,64.52Z"/><path class="cls-22" d="M43.82,66.44,36.23,74a7,7,0,0,0,1.54,1.44l6-6Z"/><path class="cls-1" d="M39.47,64.4a.36.36,0,0,0-.44,0,8.68,8.68,0,0,1-4,1.67.37.37,0,0,0-.32.36v3.2a7.11,7.11,0,0,0,4.43,6.59.34.34,0,0,0,.28,0,7.11,7.11,0,0,0,4.43-6.59v-3.2a.37.37,0,0,0-.32-.36A8.68,8.68,0,0,1,39.47,64.4Z"/><path class="cls-8" d="M39.47,64.4a.36.36,0,0,0-.44,0,8.68,8.68,0,0,1-4,1.67.37.37,0,0,0-.32.36v3.2a7.11,7.11,0,0,0,4.43,6.59.34.34,0,0,0,.28,0,7.11,7.11,0,0,0,4.43-6.59v-3.2a.37.37,0,0,0-.32-.36A8.68,8.68,0,0,1,39.47,64.4Z"/></svg>