<svg id="Layer_1" data-name="Layer 1" xmlns="http://www.w3.org/2000/svg" viewBox="0 0 100 100"><defs><style>.cls-1{fill:#e8f4fa;}.cls-2{fill:#fff;}.cls-10,.cls-11,.cls-3,.cls-8,.cls-9{fill:none;stroke-linecap:round;stroke-linejoin:round;}.cls-3{stroke:#45413c;}.cls-4{fill:#020202;opacity:0.15;}.cls-5{fill:#c0dceb;}.cls-6{fill:#4acfff;}.cls-7{fill:#80ddff;}.cls-8{stroke:#48cf3e;}.cls-9{stroke:#ff4064;}.cls-10{stroke:#ffb700;}.cls-11{stroke:#00aed9;}</style></defs><title>ipod</title><g id="_Group_" data-name="&lt;Group&gt;"><path class="cls-1" d="M94.5,43.71a40,40,0,1,0-76.44,16.5H90.94A39.88,39.88,0,0,0,94.5,43.71Z"/><path class="cls-2" d="M18.06,60.21a40,40,0,0,0,72.88,0Z"/><line class="cls-3" x1="15" y1="60.21" x2="93" y2="60.21"/><line class="cls-3" x1="10.5" y1="60.21" x2="13" y2="60.21"/><line class="cls-3" x1="95" y1="60.21" x2="97.5" y2="60.21"/></g><ellipse class="cls-4" cx="53.56" cy="76.25" rx="19.32" ry="1.73"/><rect class="cls-1" x="39.07" y="29.22" width="28.98" height="45.54" rx="2" ry="2"/><path class="cls-2" d="M68.05,31.52a2.3,2.3,0,0,0-2.3-2.3H41.37a2.3,2.3,0,0,0-2.3,2.3v4.14a2.3,2.3,0,0,1,2.3-2.3H65.75a2.3,2.3,0,0,1,2.3,2.3Z"/><path class="cls-5" d="M62.53,64.17a9,9,0,1,1-9-9A9,9,0,0,1,62.53,64.17Z"/><path class="cls-2" d="M62.53,61.65a9,9,0,1,1-9-9A9,9,0,0,1,62.53,61.65Z"/><circle class="cls-1" cx="53.56" cy="61.65" r="3.45"/><rect class="cls-3" x="39.07" y="29.22" width="28.98" height="45.54" rx="2" ry="2"/><path class="cls-3" d="M62.53,61.65a9,9,0,1,1-9-9A9,9,0,0,1,62.53,61.65Z"/><circle class="cls-3" cx="53.56" cy="61.65" r="3.45"/><rect class="cls-6" x="43.21" y="33.36" width="20.7" height="15.18" rx="1" ry="1"/><path class="cls-7" d="M43.21,47,56.84,33.36H44.36a1.16,1.16,0,0,0-1.15,1.15Z"/><path class="cls-2" d="M52.53,37.52a.71.71,0,0,0-.69,0,.7.7,0,0,0-.35.6V44a.69.69,0,0,0,.36.6.68.68,0,0,0,.7,0l4.86-3a.65.65,0,0,0,.33-.59.68.68,0,0,0-.34-.59Z"/><rect class="cls-3" x="43.21" y="33.36" width="20.7" height="15.18" rx="1" ry="1"/><path class="cls-3" d="M52.53,37.52a.71.71,0,0,0-.69,0,.7.7,0,0,0-.35.6V44a.69.69,0,0,0,.36.6.68.68,0,0,0,.7,0l4.86-3a.65.65,0,0,0,.33-.59.68.68,0,0,0-.34-.59Z"/><path class="cls-8" d="M50.56,19.16A2.58,2.58,0,1,1,48,16.58,2.58,2.58,0,0,1,50.56,19.16Z"/><path class="cls-8" d="M63.44,16.58A2.58,2.58,0,1,1,60.86,14,2.57,2.57,0,0,1,63.44,16.58Z"/><path class="cls-8" d="M50.56,19.16V8.5a1.38,1.38,0,0,1,.87-1.28l10.12-4a1.38,1.38,0,0,1,1.89,1.29V16.58"/><circle class="cls-9" cx="26.66" cy="37.52" r="2.16"/><polyline class="cls-9" points="28.81 37.52 28.81 27.82 32.05 29.97"/><path class="cls-10" d="M78.3,37.61a1.38,1.38,0,1,1-1.38-1.38A1.38,1.38,0,0,1,78.3,37.61Z"/><polyline class="cls-10" points="78.3 37.61 78.3 31.4 80.37 32.78"/><line class="cls-11" x1="79.68" y1="47.61" x2="79.68" y2="46.58"/><line class="cls-11" x1="81.87" y1="48.52" x2="82.61" y2="47.79"/><line class="cls-11" x1="82.78" y1="50.72" x2="83.82" y2="50.72"/><line class="cls-11" x1="81.87" y1="52.91" x2="82.61" y2="53.64"/><line class="cls-11" x1="79.68" y1="53.82" x2="79.68" y2="54.86"/><line class="cls-11" x1="77.48" y1="52.91" x2="76.75" y2="53.64"/><line class="cls-11" x1="76.57" y1="50.72" x2="75.54" y2="50.72"/><line class="cls-11" x1="77.48" y1="48.52" x2="76.75" y2="47.79"/><line class="cls-11" x1="72.78" y1="21.74" x2="72.78" y2="18.98"/><line class="cls-11" x1="71.4" y1="20.36" x2="74.16" y2="20.36"/><line class="cls-11" x1="34.83" y1="21.74" x2="34.83" y2="16.22"/><line class="cls-11" x1="32.07" y1="18.98" x2="37.59" y2="18.98"/><line class="cls-11" x1="25.96" y1="51.41" x2="25.96" y2="48.65"/><line class="cls-11" x1="24.58" y1="50.03" x2="27.34" y2="50.03"/></svg>