<svg id="join-svg" data-name="Layer 1" xmlns="http://www.w3.org/2000/svg" width="1108.94671" height="696"
  viewBox="0 0 1108.94671 696">
  <path
    d="M945.87038,128.00347c-14.6514-24.75633-43.638-25.91008-43.638-25.91008s-28.24581-3.612-46.36532,34.09214c-16.88883,35.1434-40.19756,69.07508-3.75252,77.30189l6.583-20.48934,4.07683,22.01475a142.6006,142.6006,0,0,0,15.59348.26651c39.0297-1.26012,76.19959.36867,75.00278-13.63683C951.77969,183.02418,959.968,151.824,945.87038,128.00347Z"
    transform="translate(-45.52665 -102)" fill="#2f2e41" />
  <ellipse cx="825.55747" cy="650" rx="224" ry="13" fill="#3f3d56" />
  <ellipse cx="290.55747" cy="653" rx="284" ry="13" fill="#3f3d56" />
  <ellipse cx="633.55747" cy="683" rx="253" ry="13" fill="#3f3d56" />
  <path
    d="M784.34585,699.12922c.92163,31.55822-17.51768,43.1236-40.65849,43.79941q-.8063.02355-1.60531.02886-1.60972.01229-3.18817-.0536c-20.92855-.86883-37.49471-11.97817-38.35183-41.32724-.887-30.37265,36.812-69.836,39.64043-72.75513l.005-.00273c.10744-.11124.16247-.16689.16247-.16689S783.42429,667.57356,784.34585,699.12922Z"
    transform="translate(-45.52665 -102)" fill="#eb7260" />
  <path
    d="M742.02131,738.146l14.69985-21.86015-14.66979,24.21188.03068,2.45981q-1.60972.01229-3.18817-.0536l.72908-31.61931-.02-.24393.02691-.04713.06978-2.98784L723.6016,684.63316l16.07907,21.1363.05706.63154.55069-23.88963L726.384,658.27943l13.944,20.03522-.14554-49.49313.00031-.16473.00473.162.923,39.00726,12.6722-15.84477L741.152,671.18643l.27658,21.36872,11.661-20.85506-11.61816,23.99662.154,11.88208L758.58368,678.528l-16.90672,33.196Z"
    transform="translate(-45.52665 -102)" fill="#3f3d56" />
  <path
    d="M129.34585,710.12922c.92163,31.55822-17.51768,43.1236-40.65849,43.79941q-.8063.02355-1.60531.02886-1.60972.01229-3.18817-.0536c-20.92855-.86883-37.49471-11.97817-38.35183-41.32724-.887-30.37265,36.812-69.836,39.64043-72.75513l.005-.00273c.10744-.11124.16247-.16689.16247-.16689S128.42429,678.57356,129.34585,710.12922Z"
    transform="translate(-45.52665 -102)" fill="#eb7260" />
  <path
    d="M87.02131,749.146l14.69985-21.86015L87.05137,751.49768l.03068,2.45981q-1.60972.01229-3.18817-.0536l.72908-31.61931-.02-.24393.02691-.04713.06978-2.98784L68.6016,695.63316l16.07907,21.1363.05706.63154.55069-23.88963L71.384,669.27943l13.944,20.03522-.14554-49.49313.00031-.16473.00473.162.923,39.00726,12.6722-15.84477L86.152,682.18643l.27658,21.36872,11.661-20.85506L86.47145,706.69671l.154,11.88208L103.58368,689.528,86.677,722.72394Z"
    transform="translate(-45.52665 -102)" fill="#3f3d56" />
  <path
    d="M1071.02078,728.90184l74.0679-110.14639-73.91642,121.996.15457,12.39424q-8.11087.06185-16.06418-.27012l3.6736-159.31974-.10065-1.22909.13556-.23748.35161-15.05475L978.20968,459.26776l81.01738,106.49915.28751,3.18211,2.77474-120.37228L992.22946,326.47958l70.25938,100.95121-.73336-249.38034.00157-.83.02384.8163,4.65073,196.54526,63.85119-79.83679-63.64215,96.76873,1.39359,107.67021,58.75622-105.082-58.54028,120.91141.77576,59.87,85.4474-146.378-85.18764,167.26414Z"
    transform="translate(-45.52665 -102)" fill="#3f3d56" />
  <path
    d="M859.05268,362.46932s-17.16248,45.99547-6.17849,87.18544,39.817,139.3594,39.817,139.3594l38.444,76.20144s21.968,15.103,35.01147-15.78949l-35.01147-65.904L965.406,464.44556a153.617,153.617,0,0,0,4.05095-68.5972c-1.954-11.30636-5.284-22.61816-10.8618-31.31954C958.59511,364.52882,869.35018,350.79883,859.05268,362.46932Z"
    transform="translate(-45.52665 -102)" fill="#2f2e41" />
  <path d="M894.75066,580.77616l-20.595,107.09392s21.28149,15.103,33.63848,10.29749l20.595-78.94744Z"
    transform="translate(-45.52665 -102)" fill="#2f2e41" />
  <path
    d="M876.90167,685.81058l-21.968,44.62247-8.9245,17.849s-48.74146,46.682-10.29749,41.87647,41.19-11.6705,41.19-11.6705l7.55149-10.984,2.0595,4.119s10.984-8.92449,10.984-11.67049-4.119-30.89248-4.119-30.89248l5.492-32.952Z"
    transform="translate(-45.52665 -102)" fill="#2f2e41" />
  <path
    d="M939.37312,664.5291l11.67049,31.579-6.865,27.46s-26.77348,36.38447.6865,34.325,32.26548-21.968,32.26548-21.968l4.119-13.04349,3.4325,1.373,10.29749-18.53548-19.222-30.89248-13.04349-22.65448Z"
    transform="translate(-45.52665 -102)" fill="#2f2e41" />
  <path
    d="M1012.14207,400.9133l4.119,21.28148s17.16248,38.444,0,39.817-17.16249-37.75747-17.16249-37.75747l1.373-15.78949Z"
    transform="translate(-45.52665 -102)" fill="#ffb8b8" />
  <path
    d="M716.26079,290.38688l-24.02748-4.119s-47.36847-24.714-46.682-6.865,44.62247,26.087,44.62247,26.087l13.04349,4.80549Z"
    transform="translate(-45.52665 -102)" fill="#ffb8b8" />
  <circle cx="854.71601" cy="56.57898" r="31.57898" fill="#ffb8b8" />
  <path
    d="M886.51266,179.86046s6.865,26.087-5.492,31.579-13.73,9.611-13.73,9.611,82.37994,26.087,88.55843-4.8055l-28.14648-15.78948s-2.746-21.968-5.492-23.341S886.51266,179.86046,886.51266,179.86046Z"
    transform="translate(-45.52665 -102)" fill="#ffb8b8" />
  <path
    d="M984.75733,234.56136a8.2381,8.2381,0,0,0-3.55665-5.03081c-7.16879-4.6176-25.8261-16.343-28.37049-14.97916-3.15957,1.69354-27.39309,13.29406-75.345-1.43069,0,0-36.28145,9.98923-46.57895,16.85422S799.08412,259,799.08412,259s-97.6865,15.762-97,24-7,28-7,28,64,13,129-14c0,0,20.55207,47.62034,18.49258,56.54483s-2.0595,15.103,14.41648,13.73,41.87647-5.492,54.92-3.4325,61.785,5.492,61.785,2.0595V344.62034s15.103,74.14194,24.714,74.14194,24.49354-5.7943,30.672-27.76228l-30-96Z"
    transform="translate(-45.52665 -102)" fill="#d0cde1" />
  <rect x="828.09426" y="509.49986" width="147.97973" height="3.00028"
    transform="translate(245.56659 1246.5959) rotate(-83.42091)" opacity="0.2" />
  <polygon
    points="893.866 24.746 865.229 9.745 825.682 15.882 817.5 52.02 837.867 51.236 843.557 37.96 843.557 51.017 852.956 50.656 858.41 29.519 861.82 52.02 895.23 51.338 893.866 24.746"
    fill="#2f2e41" />
  <path
    d="M634.50985,226.50513a12.077,12.077,0,1,0-17.07939,17.0794l17.07939,17.07939,17.0794-17.07939a12.077,12.077,0,0,0-17.0794-17.0794Z"
    transform="translate(-45.52665 -102)" fill="#ff6584" />
  <path
    d="M679.50985,166.50513a12.077,12.077,0,1,0-17.07939,17.0794l17.07939,17.07939,17.0794-17.07939a12.077,12.077,0,0,0-17.0794-17.0794Z"
    transform="translate(-45.52665 -102)" fill="#ff6584" />
  <path
    d="M613.50985,110.50513a17.73381,17.73381,0,1,0-25.07939,25.07939l25.07939,25.0794,25.07939-25.0794a17.73381,17.73381,0,1,0-25.07939-25.07939Z"
    transform="translate(-45.52665 -102)" fill="#ff6584" />
  <rect x="68.55747" y="251" width="452" height="400" fill="#3f3d56" />
  <rect x="105.55747" y="291" width="379" height="238" fill="#fff" />
  <path
    d="M372.50412,632.42c.45-.14.89-.28,1.34-.42a86.42933,86.42933,0,0,0,59.89-85.57,85.27327,85.27327,0,0,0-5.26-26.47,86.32485,86.32485,0,0,0-167.26,27.77,86.24036,86.24036,0,0,0,58.61,83.82c.45.16.91.31,1.36.45h24.75Z"
    transform="translate(-45.52665 -102)" fill="#2f2e41" />
  <polygon points="277.007 512.11 274.297 529.55 274.227 530 247.697 530 249.787 516.56 251.207 507.44 277.007 512.11"
    fill="#2f2e41" />
  <polygon points="326.977 530.42 327.047 530 328.597 521.45 302.797 516.78 300.407 530 326.977 530.42"
    fill="#2f2e41" />
  <circle cx="308.00706" cy="426.70029" r="29.49229" fill="#fff" />
  <circle cx="320.1283" cy="416.12889" r="9.83076" fill="#3f3d56" />
  <path
    d="M279.42,455.93114c-1.29769-31.94668,26.23574-59.00572,61.49764-60.43808s64.89929,23.3044,66.197,55.25107-23.21382,39.20523-58.47571,40.63758S280.71765,487.87781,279.42,455.93114Z"
    transform="translate(-45.52665 -102)" fill="#eb7260" />
  <ellipse cx="427.17146" cy="534.08686" rx="43.14613" ry="13.5449"
    transform="translate(-154.05526 6.94023) rotate(-12.9101)" fill="#2f2e41" />
  <ellipse cx="257.78302" cy="562.2559" rx="43.14613" ry="13.5449"
    transform="translate(-164.63068 -30.19281) rotate(-12.9101)" fill="#2f2e41" />
  <path
    d="M323.7923,583.81456a19.66153,19.66153,0,1,0,38.69413,7.00476c1.93431-10.68509-6.32706-14.46612-17.01215-16.40042S325.7266,573.12947,323.7923,583.81456Z"
    transform="translate(-45.52665 -102)" fill="#fff" />
  <rect x="105.55747" y="565" width="232" height="14" fill="#eb7260" />
  <rect x="105.55747" y="595" width="379" height="14" fill="#eb7260" />
</svg>