<svg id="Layer_1" data-name="Layer 1" xmlns="http://www.w3.org/2000/svg" viewBox="0 0 100 100"><defs><style>.cls-1{fill:#e8f4fa;}.cls-2,.cls-5{fill:#fff;}.cls-12,.cls-3{fill:none;}.cls-11,.cls-12,.cls-13,.cls-15,.cls-16,.cls-17,.cls-3,.cls-5,.cls-6,.cls-7{stroke:#45413c;stroke-linejoin:round;}.cls-11,.cls-13,.cls-15,.cls-16,.cls-17,.cls-3,.cls-5,.cls-6,.cls-7{stroke-linecap:round;}.cls-4{fill:#f0f0f0;}.cls-6{fill:#b8ecff;}.cls-7{fill:#ffcebf;}.cls-8{fill:#ffb59e;}.cls-9{fill:#614b44;}.cls-10{fill:#947063;}.cls-11,.cls-20{fill:#ff6242;}.cls-13,.cls-19{fill:#a6fbff;}.cls-14{fill:#020202;opacity:0.15;}.cls-15{fill:#debb7e;}.cls-16{fill:#9ceb60;}.cls-17{fill:#ff6196;}.cls-18{fill:#4aeff7;}.cls-21{fill:#ff866e;}.cls-22{fill:#00dba8;}.cls-23{fill:#00f5bc;}</style></defs><title>lab-scientist</title><path class="cls-1" d="M90,50A40,40,0,1,0,13.56,66.5H86.44A39.85,39.85,0,0,0,90,50Z"/><path class="cls-2" d="M13.56,66.5a40,40,0,0,0,72.88,0Z"/><line class="cls-3" x1="11" y1="66.5" x2="89" y2="66.5"/><line class="cls-3" x1="6.5" y1="66.5" x2="9" y2="66.5"/><line class="cls-3" x1="91" y1="66.5" x2="93.5" y2="66.5"/><path class="cls-4" d="M84,66H80.92A2.92,2.92,0,0,1,78,63.08V59a15.5,15.5,0,0,0-31,0v7.5H72.68A8.92,8.92,0,0,0,80.92,72H84Z"/><path class="cls-2" d="M62.5,43.5A15.5,15.5,0,0,0,47,59v4.5a15.5,15.5,0,0,1,31,0V59A15.5,15.5,0,0,0,62.5,43.5Z"/><path class="cls-3" d="M84,66H80.92A2.92,2.92,0,0,1,78,63.08V59a15.5,15.5,0,0,0-31,0v7.5H72.68A8.92,8.92,0,0,0,80.92,72H84Z"/><path class="cls-5" d="M72,49c0-1.42-3.5-6.5-6-6.5H59c-2.5,0-6,5.08-6,6.5l3,1-1.5,2.5,8,11.5,8-11.5L69,50Z"/><path class="cls-6" d="M66.66,45.37,66,42.5H59l-.66,2.87a13.2,13.2,0,0,0,.34,7.16L62.5,64l3.82-11.47A13.2,13.2,0,0,0,66.66,45.37Z"/><line class="cls-3" x1="62.5" y1="64" x2="62.5" y2="66.5"/><path class="cls-6" d="M62.5,49.5l4,2.5a13.18,13.18,0,0,0,.17-6.63L66,42.5C65.47,45.18,64.6,47.68,62.5,49.5Z"/><path class="cls-7" d="M59,40.5v2c.53,2.68,1.4,5.18,3.5,7,2.1-1.82,3-4.32,3.5-7v-2Z"/><path class="cls-8" d="M65.63,44.09c.14-.52.26-1.05.37-1.59v-2H59V44a12.24,12.24,0,0,0,3.5.51A12.43,12.43,0,0,0,65.63,44.09Z"/><path class="cls-3" d="M59,40.5v2c.53,2.68,1.4,5.18,3.5,7,2.1-1.82,3-4.32,3.5-7v-2Z"/><path class="cls-7" d="M72.5,30V27.5a10,10,0,0,0-20,0V30a2,2,0,0,0,0,4h.12a10,10,0,0,0,19.76,0h.12a2,2,0,0,0,0-4Z"/><path class="cls-3" d="M59.48,36.8a4.38,4.38,0,0,0,6,0"/><circle class="cls-8" cx="56.75" cy="34.25" r="1.25"/><circle class="cls-8" cx="68.25" cy="34.25" r="1.25"/><line class="cls-3" x1="53" y1="57.5" x2="53" y2="66.5"/><path class="cls-9" d="M69.5,16.5c0-.87-1.54-2-3.5-2H59.5C54,14.5,50,19,50,24.5a10.35,10.35,0,0,0,1.44,5.81A2,2,0,0,1,52.5,30a2,2,0,0,1,1.5.7,24.21,24.21,0,0,0,.09-5.54,11.64,11.64,0,0,0,3.6.51c5,0,10.94-2.34,10.94-5.05a15.54,15.54,0,0,0,2.68,9.78A2,2,0,0,1,72.5,30a2,2,0,0,1,1.3.5l.08,0C74.68,31.35,77.42,18.26,69.5,16.5Z"/><path class="cls-10" d="M59.5,18H66c2,0,3.5,1.13,3.5,2,3.68.82,5.06,4.09,5.4,7.28.38-3.79-.29-9.64-5.4-10.78,0-.87-1.54-2-3.5-2H59.5C54,14.5,50,19,50,24.5a15.87,15.87,0,0,0,.11,2A9.52,9.52,0,0,1,59.5,18Z"/><path class="cls-6" d="M62.5,49.5l4,2.5a13.18,13.18,0,0,0,.17-6.63L66,42.5C65.47,45.18,64.6,47.68,62.5,49.5Z"/><path class="cls-6" d="M62.5,49.5l-4,2.5a13.18,13.18,0,0,1-.17-6.63L59,42.5C59.53,45.18,60.4,47.68,62.5,49.5Z"/><path class="cls-6" d="M62.5,49.5l-4,2.5a13.18,13.18,0,0,1-.17-6.63L59,42.5C59.53,45.18,60.4,47.68,62.5,49.5Z"/><polygon class="cls-11" points="62.5 49.5 60.69 50.63 61.5 52.5 63.5 52.5 64.31 50.63 62.5 49.5"/><path class="cls-11" d="M63.5,52.5h-2a32.63,32.63,0,0,0-.83,6L62.5,64l1.83-5.5A32.63,32.63,0,0,0,63.5,52.5Z"/><path class="cls-12" d="M69.5,16.5c0-.87-1.54-2-3.5-2H59.5C54,14.5,50,19,50,24.5a10.35,10.35,0,0,0,1.44,5.81A2,2,0,0,1,52.5,30a2,2,0,0,1,1.5.7,24.21,24.21,0,0,0,.09-5.54,11.64,11.64,0,0,0,3.6.51c5,0,10.94-2.34,10.94-5.05a15.54,15.54,0,0,0,2.68,9.78A2,2,0,0,1,72.5,30a2,2,0,0,1,1.3.5l.08,0C74.68,31.35,77.42,18.26,69.5,16.5Z"/><path class="cls-2" d="M62.5,28h-10v4c0,1.5,3.5,2.5,5.5,2.5a3.38,3.38,0,0,0,3.24-2.17,1.37,1.37,0,0,1,2.52,0A3.38,3.38,0,0,0,67,34.5c2,0,5.5-1,5.5-2.5V28Z"/><path class="cls-3" d="M68,31a1.63,1.63,0,0,0-3,0"/><path class="cls-3" d="M60,31a1.63,1.63,0,0,0-3,0"/><path class="cls-3" d="M62.5,28h-10v4c0,1.5,3.5,2.5,5.5,2.5a3.38,3.38,0,0,0,3.24-2.17,1.37,1.37,0,0,1,2.52,0A3.38,3.38,0,0,0,67,34.5c2,0,5.5-1,5.5-2.5V28Z"/><path class="cls-5" d="M74.81,28H72.5v2h1.85A10.15,10.15,0,0,0,74.81,28Z"/><path class="cls-5" d="M50.19,28H52.5v2H50.65A10.15,10.15,0,0,1,50.19,28Z"/><circle class="cls-11" cx="85" cy="57.5" r="1.5"/><circle class="cls-11" cx="89.5" cy="56.5" r="1"/><circle class="cls-11" cx="87" cy="50" r="1"/><path class="cls-13" d="M30.5,67.5a2,2,0,0,1-4,0V52a1,1,0,0,1,1-1h2a1,1,0,0,1,1,1Z"/><ellipse class="cls-14" cx="35.5" cy="73" rx="15" ry="1.5"/><path class="cls-15" d="M22.5,57.5H23a1,1,0,0,1,1,1V72a0,0,0,0,1,0,0H22.5a1,1,0,0,1-1-1V58.5A1,1,0,0,1,22.5,57.5Z"/><path class="cls-15" d="M48,57.5h.5a1,1,0,0,1,1,1V71a1,1,0,0,1-1,1H47a0,0,0,0,1,0,0V58.5A1,1,0,0,1,48,57.5Z"/><rect class="cls-15" x="24" y="69.5" width="23" height="2.5"/><path class="cls-16" d="M30.5,67.5a2,2,0,0,1-4,0V55h4Z"/><path class="cls-13" d="M37.5,67.5a2,2,0,0,1-4,0V52a1,1,0,0,1,1-1h2a1,1,0,0,1,1,1Z"/><path class="cls-17" d="M37.5,67.5a2,2,0,0,1-4,0V55h4Z"/><path class="cls-13" d="M44.5,67.5a2,2,0,0,1-4,0V52a1,1,0,0,1,1-1h2a1,1,0,0,1,1,1Z"/><path class="cls-11" d="M44.5,67.5a2,2,0,0,1-4,0V55h4Z"/><rect class="cls-15" x="24" y="60" width="23" height="2"/><path class="cls-3" d="M72,57.5v5.58a8.84,8.84,0,0,0,.68,3.42"/><path class="cls-18" d="M84.57,68.29,87,64.53a1,1,0,0,0-.29-1.39l-1.68-1.09a1,1,0,0,0-1.38.29L81.22,66.1l-6.36,4.51a2,2,0,0,0,0,3.32l5,3.28a2,2,0,0,0,3-1.28Z"/><path class="cls-19" d="M76.36,72.11l6.36-4.51,3.26-5-.92-.59a1,1,0,0,0-.75-.14,1,1,0,0,0-.63.43L81.22,66.1l-6.36,4.51a2,2,0,0,0,0,3.32l.71.46A2,2,0,0,1,76.36,72.11Z"/><path class="cls-20" d="M74.15,71.5a2,2,0,0,0,.76,2.43l5,3.28a2,2,0,0,0,3-1.28l.92-4.43Z"/><path class="cls-21" d="M74.15,71.5a2,2,0,0,0,.76,2.43l.71.46a2,2,0,0,1,.74-2.28l.86-.61Z"/><path class="cls-3" d="M84.57,68.29,87,64.53a1,1,0,0,0-.29-1.39l-1.68-1.09a1,1,0,0,0-1.38.29L81.22,66.1l-6.36,4.51a2,2,0,0,0,0,3.32l5,3.28a2,2,0,0,0,3-1.28Z"/><path class="cls-22" d="M84.11,73.11l-2.23-1a1.5,1.5,0,0,1-.75-2l1.24-2.74a1.5,1.5,0,0,1,2-.75l2.23,1A2,2,0,0,1,87.69,70a10.67,10.67,0,0,1-1.09,2.41A2,2,0,0,1,84.11,73.11Z"/><path class="cls-23" d="M82.7,68.23l3.66,1.66a5.06,5.06,0,0,1,1.13.68c.07-.2.14-.4.2-.59a2,2,0,0,0-1.11-2.34l-2.23-1a1.5,1.5,0,0,0-2,.75l-.29.63A4.57,4.57,0,0,1,82.7,68.23Z"/><path class="cls-3" d="M84.11,73.11l-2.23-1a1.5,1.5,0,0,1-.75-2l1.24-2.74a1.5,1.5,0,0,1,2-.75l2.23,1A2,2,0,0,1,87.69,70a10.67,10.67,0,0,1-1.09,2.41A2,2,0,0,1,84.11,73.11Z"/></svg>