<?xml version="1.0" encoding="UTF-8"?>
<svg width="790.52" height="730.49" data-name="Layer 1" version="1.1" viewBox="0 0 790.52 730.49" xmlns="http://www.w3.org/2000/svg" xmlns:cc="http://creativecommons.org/ns#" xmlns:dc="http://purl.org/dc/elements/1.1/" xmlns:rdf="http://www.w3.org/1999/02/22-rdf-syntax-ns#">
 <metadata>
  <rdf:RDF>
   <cc:Work rdf:about="">
    <dc:format>image/svg+xml</dc:format>
    <dc:type rdf:resource="http://purl.org/dc/dcmitype/StillImage"/>
    <dc:title>contract</dc:title>
   </cc:Work>
  </rdf:RDF>
 </metadata>
 <title>contract</title>
 <path transform="translate(-204.74 -84.754)" d="m252.65 143.09a47.968 47.968 0 0 0-47.913 47.913v551.99a47.968 47.968 0 0 0 47.913 47.913h404.92a47.968 47.968 0 0 0 47.913-47.913v-551.99a47.968 47.968 0 0 0-47.913-47.913z" fill="#14171a"/>
 <rect x="24.916" y="92.371" width="450.92" height="579.75" fill="#fff"/>
 <g fill="#eb7260">
  <rect x="83.864" y="196.29" width="333.02" height="21.877"/>
  <rect x="83.864" y="254.63" width="333.02" height="21.877"/>
  <rect x="83.864" y="312.97" width="333.02" height="21.877"/>
  <rect x="83.864" y="371.31" width="333.02" height="21.877"/>
  <rect x="83.864" y="429.65" width="333.02" height="21.877"/>
  <rect x="83.864" y="487.99" width="333.02" height="21.877"/>
  <rect x="83.864" y="546.33" width="333.02" height="21.877"/>
 </g>
 <rect transform="translate(-265.49 11.516) rotate(-10.371)" x="332.2" y="167.06" width="335.71" height="431.62" fill="#f5f5f5"/>
 <g fill="#eb7260">
  <rect transform="translate(-242.8 5.1999) rotate(-10.371)" x="352.63" y="246.55" width="247.94" height="16.288"/>
  <rect transform="translate(-250.36 7.3053) rotate(-10.371)" x="360.45" y="289.28" width="247.94" height="16.288"/>
  <rect transform="translate(-257.93 9.4107) rotate(-10.371)" x="368.26" y="332" width="247.94" height="16.288"/>
  <rect transform="translate(-265.49 11.516) rotate(-10.371)" x="376.08" y="374.72" width="247.94" height="16.288"/>
  <rect transform="matrix(.98366 -.18001 .18001 .98366 -273.05 13.621)" x="383.9" y="417.45" width="247.94" height="16.288"/>
  <rect transform="translate(-280.62 15.727) rotate(-10.371)" x="391.72" y="460.17" width="247.94" height="16.288"/>
  <rect transform="translate(-288.18 17.832) rotate(-10.371)" x="399.54" y="502.9" width="247.94" height="16.288"/>
 </g>
 <rect transform="translate(-312.5 74.636) rotate(-10.371)" x="776.83" y="612.37" width="94.99" height="122.13" fill="#657786"/>
 <g fill="#fff">
  <rect transform="translate(-306.08 72.849) rotate(-10.371)" x="782.61" y="634.86" width="70.154" height="4.6087"/>
  <rect transform="translate(-308.22 73.445) rotate(-10.371)" x="784.82" y="646.95" width="70.154" height="4.6087"/>
  <rect transform="translate(-310.36 74.04) rotate(-10.371)" x="787.03" y="659.04" width="70.154" height="4.6087"/>
  <rect transform="translate(-312.5 74.636) rotate(-10.371)" x="789.25" y="671.13" width="70.154" height="4.6087"/>
  <rect transform="translate(-314.64 75.232) rotate(-10.371)" x="791.46" y="683.22" width="70.154" height="4.6087"/>
  <rect transform="translate(-316.78 75.828) rotate(-10.371)" x="793.67" y="695.31" width="70.154" height="4.6087"/>
  <rect transform="translate(-318.92 76.423) rotate(-10.371)" x="795.88" y="707.4" width="70.154" height="4.6087"/>
 </g>
 <path transform="translate(-204.74 -84.754)" d="m538.6 115.14h-39.735v-8.1347a22.251 22.251 0 0 0-22.251-22.251h-43.008a22.251 22.251 0 0 0-22.251 22.251v8.1347h-39.735a22.251 22.251 0 0 0-22.251 22.251v61.613h211.48v-61.613a22.251 22.251 0 0 0-22.251-22.251z" fill="#14171a"/>
 <path transform="translate(-204.74 -84.754)" d="m440.85 714.72c6.5698-4.4961 13.322-9.1722 21.124-11.216 7.1182-1.8646 15.292-1.3714 20.922 3.8406 4.5436 4.2062 6.4619 10.671 3.0955 16.205a10.298 10.298 0 0 1-6.8225 4.9641 8.2186 8.2186 0 0 1-7.3887-2.8866c-1.7651-1.9504-2.8212-4.8332-1.8832-7.4042 0.98627-2.7034 3.6246-4.3568 6.2159-5.2795a46.004 46.004 0 0 1 9.2702-1.915l124.43-17.034a1.8359 1.8359 0 0 0 1.2733-2.2426 1.8701 1.8701 0 0 0-2.2426-1.2733l-116.93 16.008c-4.2295 0.579-8.5186 0.99359-12.704 1.8443a21.363 21.363 0 0 0-9.1218 3.7888c-5.6014 4.4347-5.2012 12.279-0.04661 16.918 5.2181 4.6965 12.784 3.888 17.363-1.2992a15.743 15.743 0 0 0 1.1938-19.291c-4.9986-7.5372-14.107-10.433-22.81-9.364-10.065 1.2363-18.598 6.8939-26.773 12.489-1.9248 1.3172-0.103 4.4784 1.8403 3.1484z" fill="#14171a"/>
 <path transform="translate(-204.74 -84.754)" d="m851.14 579.59 1.2154 12.154s-7.2925 26.739 8.5079 26.739 3.6462-26.739 3.6462-26.739l1.2154-9.7233z" fill="#a0616a"/>
 <path transform="translate(-204.74 -84.754)" d="m961.54 539.1-5.5768 10.867s-20.639 18.498-7.3694 27.075 17.577-20.477 17.577-20.477l6.2988-7.5063z" fill="#a0616a"/>
 <g>
  <path transform="translate(-204.74 -84.754)" d="m870.59 590.53 17.016 115.46 8.5079 82.648s7.2925 18.231 31.601 2.4308l-3.6462-47.401-2.4308-42.54s-2.4308-41.324-4.8616-48.617 1.2154-31.601 1.2154-31.601l9.7233-40.109z" fill="#f5f5f5"/>
  <path transform="translate(-204.74 -84.754)" d="m898.55 786.21-9.7233 10.939s-14.585-4.8617-18.231 4.8616 27.955 12.154 27.955 12.154 32.816 2.4308 32.816 0-0.8793-21.022-5.3013-22.057-27.515-5.8972-27.515-5.8972z" fill="#14171a"/>
  <path transform="translate(-204.74 -84.754)" d="m916.78 584.45 17.016 121.54 8.5079 82.648s7.2925 18.231 31.601 2.4308l-3.6462-47.401-2.4308-42.54s-2.4308-41.324-4.8617-48.617 1.2154-31.601 1.2154-31.601l-2.4308-44.97z" fill="#f5f5f5"/>
  <path transform="translate(-204.74 -84.754)" d="m944.73 786.21-9.7233 10.939s-14.585-4.8617-18.231 4.8616 27.955 12.154 27.955 12.154 32.816 2.4308 32.816 0-0.8793-21.022-5.3013-22.057-27.515-5.8972-27.515-5.8972z" fill="#14171a"/>
 </g>
 <circle cx="675.58" cy="282.14" r="25.524" fill="#a0616a"/>
 <polygon points="694.42 293.68 705.35 311.92 677.4 324.07 673.75 302.19" fill="#a0616a"/>
 <g fill="#29aba4">
  <path transform="translate(-204.74 -84.754)" d="m913.13 394.85s-25.524-2.4308-35.247 13.37l-23.99 18.232a13.829 13.829 0 0 0-5.3416 12.824l20.824 157.33 30.385-1.2154 49.832-9.7233 14.585-3.6462-7.2925-64.417s-8.5079-25.524 1.2154-42.54l-4.8616-59.555-34.032-13.37z"/>
  <path transform="translate(-204.74 -84.754)" d="m856.01 431.31-1.8231-3.0385s-2.4308 0-2.4308 4.8617-4.254 110-4.254 110l-1.2154 40.109 23.093 2.4308 8.5079-75.356-3.6462-49.832z"/>
  <path transform="translate(-204.74 -84.754)" d="m936.22 413.08 17.016 2.4308a112.95 112.95 0 0 1 17.016 23.093c7.2925 13.37 29.17 38.893 24.308 58.34s-19.447 54.694-19.447 54.694l-23.093-9.7233s18.231-42.54 17.016-46.186-15.8-25.524-15.8-25.524z"/>
 </g>
 <path transform="translate(-204.74 -84.754)" d="m862.69 352.92s-20.662-1.2154-7.2925-14.585c0 0 10.939-4.8617 15.8-2.4308 0 0 7.2925-4.8617 7.2925-2.4308 0 0 25.524-7.2925 29.17 18.231s-2.4308 37.678-2.4308 37.678l-17.016-1.2154s3.6462-20.662-9.7233-18.231c0 0-10.939 3.6462-12.154 0s-3.6462-17.016-3.6462-17.016z" fill="#14171a"/>
 <polygon points="667.68 499.09 678.62 426.17 671.32 381.2 673.75 430.11 666.46 499.09" opacity=".2"/>
</svg>
