<svg id="Layer_1" data-name="Layer 1" xmlns="http://www.w3.org/2000/svg" viewBox="0 0 100 100"><defs><style>.cls-1{fill:#e8f4fa;}.cls-2,.cls-5{fill:#fff;}.cls-14,.cls-3{fill:none;}.cls-14,.cls-15,.cls-3,.cls-5,.cls-6{stroke:#45413c;}.cls-15,.cls-3,.cls-5{stroke-linecap:round;}.cls-15,.cls-3,.cls-5,.cls-6{stroke-linejoin:round;}.cls-4{fill:#020202;opacity:0.15;}.cls-6{fill:#6dd627;}.cls-7{fill:#c8ffa1;}.cls-8{fill:#ffa694;}.cls-9{fill:#ffcabf;}.cls-10{fill:#ff6242;}.cls-11{fill:#ff866e;}.cls-12{fill:#ffe500;}.cls-13{fill:#fffacf;}.cls-14{stroke-miterlimit:10;}.cls-15{fill:#ffec60;}</style></defs><title>lucky-cat-money</title><g id="_Group_" data-name="&lt;Group&gt;"><path class="cls-1" d="M90,50A40,40,0,1,0,13.56,66.5H86.44A39.85,39.85,0,0,0,90,50Z"/><path class="cls-2" d="M13.56,66.5a40,40,0,0,0,72.88,0Z"/><line class="cls-3" x1="11" y1="66.5" x2="89" y2="66.5"/><line class="cls-3" x1="6.5" y1="66.5" x2="9" y2="66.5"/><line class="cls-3" x1="91" y1="66.5" x2="93.5" y2="66.5"/></g><ellipse class="cls-4" cx="38.55" cy="71.33" rx="9.08" ry="1.65"/><ellipse class="cls-4" cx="65.26" cy="70.23" rx="9.07" ry="1.65"/><path class="cls-2" d="M33.91,59V44.69a6.6,6.6,0,0,0-6.6,6.6V59Z"/><path class="cls-1" d="M33.91,44.69a6.58,6.58,0,0,0-2.87.66,15.48,15.48,0,0,0-.75,1.82A22.68,22.68,0,0,0,29.76,59h4.15Z"/><path class="cls-3" d="M33.91,59V44.69a6.6,6.6,0,0,0-6.6,6.6V59Z"/><path class="cls-2" d="M35,64.49H30.06a2.75,2.75,0,0,1-2.75-2.75V59H35Z"/><path class="cls-1" d="M32.27,64.49H35V59H29.76A14.19,14.19,0,0,0,32.27,64.49Z"/><path class="cls-3" d="M35,64.49H30.06a2.75,2.75,0,0,1-2.75-2.75V59H35Z"/><path class="cls-2" d="M66.36,37l-2.75,14.3h1.65a6.6,6.6,0,0,0,6.6-6.6V37Z"/><polygon class="cls-1" points="71.86 38.64 71.86 36.99 66.36 36.99 66.04 38.64 71.86 38.64"/><path class="cls-1" d="M68.05,50.66a19.85,19.85,0,0,0-.83-3.49,13,13,0,0,0-2.07-3.94l-1.54,8.06h1.65A6.56,6.56,0,0,0,68.05,50.66Z"/><path class="cls-3" d="M66.36,37l-2.75,14.3h1.65a6.6,6.6,0,0,0,6.6-6.6V37Z"/><path class="cls-5" d="M69.11,31.49H66.36a2.75,2.75,0,1,0,0,5.5h5.5V34.24A2.75,2.75,0,0,0,69.11,31.49Z"/><path class="cls-1" d="M65.43,47.17c-1.68-4.87-3.86-4.84-4.72-8.34l-.84-4.14c-1.06-6.64-6.49-7-11.11-7s-10.06.41-11.12,7l-.84,4.14c-.85,3.5-3,3.47-4.72,8.34-2.46,7.13-1.32,21.17,10.33,21.17H55.1C66.75,68.34,67.89,54.3,65.43,47.17Z"/><path class="cls-1" d="M65.43,47.17c-1.68-4.87-3.86-4.84-4.72-8.34l-.84-4.14c-1.06-6.64-6.49-7-11.11-7s-10.06.41-11.12,7l-.84,4.14c-.85,3.5-3,3.47-4.72,8.34-2.46,7.13-1.32,21.17,10.33,21.17H55.1C66.75,68.34,67.89,54.3,65.43,47.17Z"/><path class="cls-2" d="M65.43,47.17a13.37,13.37,0,0,0-1.82-3.6h0c-1.93.79-6.52,2.22-14.85,2.22S35.83,44.36,33.9,43.57h0a13.66,13.66,0,0,0-1.82,3.6,20,20,0,0,0-.93,4.35c1.92,3.39,6.75,9.12,17.61,9.12s15.69-5.73,17.6-9.12A20,20,0,0,0,65.43,47.17Z"/><circle class="cls-1" cx="48.76" cy="50.74" r="4.4"/><path class="cls-2" d="M48.76,29.84c3.85,0,8.83.3,11,4.26-1.29-6.05-6.52-6.46-11-6.46s-9.71.41-11,6.46C39.92,30.14,44.9,29.84,48.76,29.84Z"/><path class="cls-3" d="M65.43,47.17c-1.68-4.87-3.86-4.84-4.72-8.34l-.84-4.14c-1.06-6.64-6.49-7-11.11-7s-10.06.41-11.12,7l-.84,4.14c-.85,3.5-3,3.47-4.72,8.34-2.46,7.13-1.32,21.17,10.33,21.17H55.1C66.75,68.34,67.89,54.3,65.43,47.17Z"/><path class="cls-6" d="M59.4,61.62a1.5,1.5,0,0,0-2.46-.5,14.32,14.32,0,0,1-7.88,3.74,1.5,1.5,0,0,0-1.14.71,1.48,1.48,0,0,0-.11,1.34L49,69.82a1.5,1.5,0,0,0,1.63.93,21.94,21.94,0,0,0,8.85-3.67,2.63,2.63,0,0,0,.9-3.12Z"/><path class="cls-7" d="M55.41,66.34a1.13,1.13,0,1,1-1.14-1.13A1.14,1.14,0,0,1,55.41,66.34Z"/><path class="cls-8" d="M37.64,34.69c.88-5.48,4.73-6.71,8.64-7C45,26.28,41.67,23,38.93,24.1s-2.07,8.14-1.52,11.72Z"/><path class="cls-9" d="M38.56,25.64c2-.83,4.42.79,6,2.27.56-.09,1.13-.16,1.7-.2C45,26.28,41.67,23,38.93,24.1c-1,.43-1.61,1.71-1.86,3.33A2.84,2.84,0,0,1,38.56,25.64Z"/><path class="cls-3" d="M37.64,34.69c.88-5.48,4.73-6.71,8.64-7C45,26.28,41.67,23,38.93,24.1s-2.07,8.14-1.52,11.72Z"/><path class="cls-8" d="M59.87,34.69c-.88-5.48-4.73-6.71-8.64-7,1.28-1.43,4.61-4.73,7.35-3.61s2.08,8.14,1.52,11.72Z"/><path class="cls-9" d="M59,25.64c-2-.83-4.41.79-6,2.27-.56-.09-1.13-.16-1.7-.2,1.28-1.43,4.61-4.73,7.35-3.61,1.06.43,1.61,1.71,1.86,3.33A2.84,2.84,0,0,0,59,25.64Z"/><path class="cls-3" d="M59.87,34.69c-.88-5.48-4.73-6.71-8.64-7,1.28-1.43,4.61-4.73,7.35-3.61s2.08,8.14,1.52,11.72Z"/><polygon class="cls-3" points="48.76 36.66 47.44 35.34 50.08 35.34 48.76 36.66"/><line class="cls-3" x1="40.84" y1="35.34" x2="44.14" y2="36"/><line class="cls-3" x1="40.84" y1="39.3" x2="44.14" y2="38.64"/><path class="cls-3" d="M46.12,33.36a3.77,3.77,0,0,0-3.3-2"/><line class="cls-3" x1="56.68" y1="35.34" x2="53.38" y2="36"/><line class="cls-3" x1="56.68" y1="39.3" x2="53.38" y2="38.64"/><path class="cls-3" d="M51.4,33.36a3.76,3.76,0,0,1,3.3-2"/><path class="cls-10" d="M35.91,41c-.57.91-1.28,1.6-2,2.61,1.93.79,6.52,2.22,14.86,2.22s12.92-1.43,14.85-2.22c-.73-1-1.44-1.7-2-2.61a45.66,45.66,0,0,1-12.84,1.53A45.74,45.74,0,0,1,35.91,41Z"/><path class="cls-11" d="M48.76,44.14a68.64,68.64,0,0,0,14-1.7A14.38,14.38,0,0,1,61.6,41a45.66,45.66,0,0,1-12.84,1.53A45.74,45.74,0,0,1,35.91,41a14.38,14.38,0,0,1-1.12,1.48A68.74,68.74,0,0,0,48.76,44.14Z"/><path class="cls-3" d="M35.91,41c-.57.91-1.28,1.6-2,2.61,1.93.79,6.52,2.22,14.86,2.22s12.92-1.43,14.85-2.22c-.73-1-1.44-1.7-2-2.61a45.66,45.66,0,0,1-12.84,1.53A45.74,45.74,0,0,1,35.91,41Z"/><circle class="cls-12" cx="48.76" cy="49.64" r="3.85"/><path class="cls-13" d="M48.76,47.44a3.85,3.85,0,0,1,3.75,3,3.85,3.85,0,1,0-7.51,0A3.85,3.85,0,0,1,48.76,47.44Z"/><circle class="cls-14" cx="48.76" cy="49.64" r="3.85"/><line class="cls-3" x1="43.81" y1="49.64" x2="53.71" y2="49.64"/><path class="cls-12" d="M37.48,60.09H33.63a1.38,1.38,0,0,0,0,2.75h3.85a1.38,1.38,0,1,0,0-2.75Z"/><path class="cls-13" d="M33.63,61.47h3.85a1.37,1.37,0,0,1,1.17.68,1.33,1.33,0,0,0,.21-.68,1.38,1.38,0,0,0-1.38-1.38H33.63a1.37,1.37,0,0,0-1.37,1.38,1.24,1.24,0,0,0,.21.68A1.35,1.35,0,0,1,33.63,61.47Z"/><path class="cls-14" d="M37.48,60.09H33.63a1.38,1.38,0,0,0,0,2.75h3.85a1.38,1.38,0,1,0,0-2.75Z"/><path class="cls-12" d="M35.28,62.84H31.43a1.38,1.38,0,0,0,0,2.75h3.85a1.38,1.38,0,1,0,0-2.75Z"/><path class="cls-13" d="M31.43,64.22h3.85a1.34,1.34,0,0,1,1.16.68,1.25,1.25,0,0,0,.22-.68,1.38,1.38,0,0,0-1.38-1.38H31.43a1.37,1.37,0,0,0-1.37,1.38,1.24,1.24,0,0,0,.21.68A1.35,1.35,0,0,1,31.43,64.22Z"/><path class="cls-14" d="M35.28,62.84H31.43a1.38,1.38,0,0,0,0,2.75h3.85a1.38,1.38,0,1,0,0-2.75Z"/><path class="cls-12" d="M37.48,65.59H33.63a1.38,1.38,0,0,0,0,2.75h3.85a1.38,1.38,0,1,0,0-2.75Z"/><path class="cls-13" d="M33.63,67h3.85a1.37,1.37,0,0,1,1.17.68,1.33,1.33,0,0,0,.21-.68,1.38,1.38,0,0,0-1.38-1.38H33.63A1.37,1.37,0,0,0,32.26,67a1.24,1.24,0,0,0,.21.68A1.35,1.35,0,0,1,33.63,67Z"/><path class="cls-14" d="M37.48,65.59H33.63a1.38,1.38,0,0,0,0,2.75h3.85a1.38,1.38,0,1,0,0-2.75Z"/><path class="cls-12" d="M37.48,68.34H33.63a1.38,1.38,0,0,0,0,2.75h3.85a1.38,1.38,0,1,0,0-2.75Z"/><path class="cls-13" d="M33.63,69.72h3.85a1.37,1.37,0,0,1,1.17.68,1.33,1.33,0,0,0,.21-.68,1.38,1.38,0,0,0-1.38-1.38H33.63a1.37,1.37,0,0,0-1.37,1.38,1.24,1.24,0,0,0,.21.68A1.35,1.35,0,0,1,33.63,69.72Z"/><path class="cls-14" d="M37.48,68.34H33.63a1.38,1.38,0,0,0,0,2.75h3.85a1.38,1.38,0,1,0,0-2.75Z"/><path class="cls-12" d="M44.08,65.59H40.23a1.38,1.38,0,0,0,0,2.75h3.85a1.38,1.38,0,1,0,0-2.75Z"/><path class="cls-13" d="M40.23,67h3.85a1.34,1.34,0,0,1,1.16.68,1.25,1.25,0,0,0,.22-.68,1.38,1.38,0,0,0-1.38-1.38H40.23A1.37,1.37,0,0,0,38.86,67a1.24,1.24,0,0,0,.21.68A1.35,1.35,0,0,1,40.23,67Z"/><path class="cls-14" d="M44.08,65.59H40.23a1.38,1.38,0,0,0,0,2.75h3.85a1.38,1.38,0,1,0,0-2.75Z"/><path class="cls-12" d="M44.08,68.34H40.23a1.38,1.38,0,0,0,0,2.75h3.85a1.38,1.38,0,1,0,0-2.75Z"/><path class="cls-13" d="M40.23,69.72h3.85a1.34,1.34,0,0,1,1.16.68,1.25,1.25,0,0,0,.22-.68,1.38,1.38,0,0,0-1.38-1.38H40.23a1.37,1.37,0,0,0-1.37,1.38,1.24,1.24,0,0,0,.21.68A1.35,1.35,0,0,1,40.23,69.72Z"/><path class="cls-14" d="M44.08,68.34H40.23a1.38,1.38,0,0,0,0,2.75h3.85a1.38,1.38,0,1,0,0-2.75Z"/><path class="cls-12" d="M63.88,64.49H60a1.38,1.38,0,0,0,0,2.75h3.85a1.38,1.38,0,1,0,0-2.75Z"/><path class="cls-13" d="M60,65.87h3.85a1.37,1.37,0,0,1,1.17.68,1.33,1.33,0,0,0,.21-.68,1.38,1.38,0,0,0-1.38-1.38H60a1.37,1.37,0,0,0-1.37,1.38,1.24,1.24,0,0,0,.21.68A1.35,1.35,0,0,1,60,65.87Z"/><path class="cls-14" d="M63.88,64.49H60a1.38,1.38,0,0,0,0,2.75h3.85a1.38,1.38,0,1,0,0-2.75Z"/><path class="cls-12" d="M63.88,67.24H60A1.38,1.38,0,0,0,60,70h3.85a1.38,1.38,0,1,0,0-2.75Z"/><path class="cls-13" d="M60,68.62h3.85a1.37,1.37,0,0,1,1.17.68,1.33,1.33,0,0,0,.21-.68,1.38,1.38,0,0,0-1.38-1.38H60a1.37,1.37,0,0,0-1.37,1.38,1.24,1.24,0,0,0,.21.68A1.35,1.35,0,0,1,60,68.62Z"/><path class="cls-14" d="M63.88,67.24H60A1.38,1.38,0,0,0,60,70h3.85a1.38,1.38,0,1,0,0-2.75Z"/><path class="cls-12" d="M70.48,64.49H66.63a1.38,1.38,0,0,0,0,2.75h3.85a1.38,1.38,0,1,0,0-2.75Z"/><path class="cls-13" d="M66.63,65.87h3.85a1.37,1.37,0,0,1,1.17.68,1.33,1.33,0,0,0,.21-.68,1.38,1.38,0,0,0-1.38-1.38H66.63a1.37,1.37,0,0,0-1.37,1.38,1.24,1.24,0,0,0,.21.68A1.35,1.35,0,0,1,66.63,65.87Z"/><path class="cls-14" d="M70.48,64.49H66.63a1.38,1.38,0,0,0,0,2.75h3.85a1.38,1.38,0,1,0,0-2.75Z"/><path class="cls-12" d="M73.78,61.74H69.93a1.38,1.38,0,0,0,0,2.75h3.85a1.38,1.38,0,1,0,0-2.75Z"/><path class="cls-13" d="M69.93,63.12h3.85a1.34,1.34,0,0,1,1.16.68,1.25,1.25,0,0,0,.22-.68,1.38,1.38,0,0,0-1.38-1.38H69.93a1.37,1.37,0,0,0-1.37,1.38,1.24,1.24,0,0,0,.21.68A1.35,1.35,0,0,1,69.93,63.12Z"/><path class="cls-14" d="M73.78,61.74H69.93a1.38,1.38,0,0,0,0,2.75h3.85a1.38,1.38,0,1,0,0-2.75Z"/><path class="cls-12" d="M70.84,59H67a1.38,1.38,0,0,0,0,2.75h3.85a1.38,1.38,0,1,0,0-2.75Z"/><path class="cls-13" d="M67,60.37h3.85a1.37,1.37,0,0,1,1.17.68,1.33,1.33,0,0,0,.21-.68A1.38,1.38,0,0,0,70.84,59H67a1.37,1.37,0,0,0-1.37,1.38,1.24,1.24,0,0,0,.21.68A1.35,1.35,0,0,1,67,60.37Z"/><path class="cls-14" d="M70.84,59H67a1.38,1.38,0,0,0,0,2.75h3.85a1.38,1.38,0,1,0,0-2.75Z"/><path class="cls-12" d="M70.48,67.24H66.63a1.38,1.38,0,0,0,0,2.75h3.85a1.38,1.38,0,1,0,0-2.75Z"/><path class="cls-13" d="M66.63,68.62h3.85a1.37,1.37,0,0,1,1.17.68,1.33,1.33,0,0,0,.21-.68,1.38,1.38,0,0,0-1.38-1.38H66.63a1.37,1.37,0,0,0-1.37,1.38,1.24,1.24,0,0,0,.21.68A1.35,1.35,0,0,1,66.63,68.62Z"/><path class="cls-14" d="M70.48,67.24H66.63a1.38,1.38,0,0,0,0,2.75h3.85a1.38,1.38,0,1,0,0-2.75Z"/><path class="cls-15" d="M84.79,48.89a2.66,2.66,0,0,1,2-2l4-.91a.33.33,0,0,0,0-.65l-4-.91a2.66,2.66,0,0,1-2-2l-.92-4a.31.31,0,0,0-.32-.25.33.33,0,0,0-.32.25l-.91,4a2.66,2.66,0,0,1-2,2l-4,.91a.33.33,0,0,0,0,.65l4,.91a2.64,2.64,0,0,1,2,2l.92,4a.34.34,0,0,0,.32.26.32.32,0,0,0,.32-.26Z"/><path class="cls-15" d="M17.78,60.56l3.11-1a.29.29,0,0,0,.2-.27.29.29,0,0,0-.2-.28l-2.55-.85a1.16,1.16,0,0,1-.74-.74l-.85-2.55a.3.3,0,0,0-.28-.2.29.29,0,0,0-.28.2l-.85,2.55a1.16,1.16,0,0,1-.74.74L12.05,59a.29.29,0,0,0-.2.28.29.29,0,0,0,.2.27l2.55.86a1.12,1.12,0,0,1,.74.73l.85,2.56a.29.29,0,0,0,.28.2.3.3,0,0,0,.28-.2Z"/></svg>