<svg id="Layer_1" data-name="Layer 1" xmlns="http://www.w3.org/2000/svg" viewBox="0 0 100 100"><defs><style>.cls-1{fill:#e8f4fa;}.cls-2,.cls-7{fill:#fff;}.cls-3{fill:none;}.cls-13,.cls-15,.cls-18,.cls-3,.cls-5,.cls-6,.cls-7{stroke:#45413c;stroke-linejoin:round;}.cls-13,.cls-18,.cls-3,.cls-5,.cls-6,.cls-7{stroke-linecap:round;}.cls-4{fill:#020202;opacity:0.15;}.cls-11,.cls-5{fill:#656769;}.cls-15,.cls-6,.cls-9{fill:#ff6242;}.cls-8{fill:#45413c;}.cls-10{fill:#e04122;}.cls-12,.cls-13{fill:#525252;}.cls-14{fill:#87898c;}.cls-16{fill:#614b44;}.cls-17{fill:#947063;}.cls-18{fill:#ffcebf;}.cls-19{fill:#ffb59e;}</style></defs><title>magician-male</title><path class="cls-1" d="M90.5,50A40,40,0,1,0,14.06,66.5H86.94A39.85,39.85,0,0,0,90.5,50Z"/><path class="cls-2" d="M14.06,66.5a40,40,0,0,0,72.88,0Z"/><line class="cls-3" x1="11" y1="66.5" x2="89" y2="66.5"/><line class="cls-3" x1="6.5" y1="66.5" x2="9" y2="66.5"/><line class="cls-3" x1="91" y1="66.5" x2="93.5" y2="66.5"/><ellipse class="cls-4" cx="39.7" cy="81.52" rx="11.5" ry="1.73"/><path class="cls-5" d="M57.21,56.1a1.19,1.19,0,0,0,1.14.37A27.41,27.41,0,0,1,61.13,56l-.65,11.89a1.38,1.38,0,0,0,1.38,1.45h9.51a1.37,1.37,0,0,0,1.37-1.45L72.1,56a27.91,27.91,0,0,1,2.78.48A1.2,1.2,0,0,0,76,56.1a.82.82,0,0,0,.25-.57c0-.86-1.68-1.63-4.31-2.13a20,20,0,0,0-5.35-.63,20,20,0,0,0-5.34.63c-2.63.5-4.32,1.27-4.32,2.13A.83.83,0,0,0,57.21,56.1Z"/><path class="cls-6" d="M72.1,56a24.21,24.21,0,0,0-5.49-.46,24.08,24.08,0,0,0-5.48.46L61,58.29H72.22Z"/><path class="cls-7" d="M65,39.81a2.07,2.07,0,0,0-4,1.25l2.95,7,2.63-.84Z"/><path class="cls-7" d="M68.25,39.81a2.07,2.07,0,0,1,4,1.25l-3,7-2.63-.84Z"/><circle class="cls-7" cx="66.61" cy="48.63" r="4.14"/><path class="cls-8" d="M66.61,49.32a.69.69,0,1,0,.69.69.69.69,0,0,0-.69-.69Z"/><path class="cls-9" d="M43.84,39,56.31,69.16a1.16,1.16,0,0,1-1,1.59c-8.1.52-5.53,6.61-15.6,6.17-10.06.44-7.5-5.65-15.59-6.17a1.16,1.16,0,0,1-1-1.59L35.56,39Z"/><path class="cls-10" d="M35.56,39,28.84,55.25A9.54,9.54,0,0,0,31,57.62a1.21,1.21,0,0,1,.46.84l1.06,16.87c1.45,1,3.44,1.76,7.18,1.59,3.74.17,5.74-.57,7.18-1.59l1-15.55a1.15,1.15,0,0,1,1.61-1,10.15,10.15,0,0,0,2.88.8L43.84,39Z"/><path class="cls-3" d="M43.84,39,56.31,69.16a1.16,1.16,0,0,1-1,1.59c-8.1.52-5.53,6.61-15.6,6.17-10.06.44-7.5-5.65-15.59-6.17a1.16,1.16,0,0,1-1-1.59L35.56,39Z"/><polygon class="cls-11" points="33.49 57.6 34.87 79.69 44.53 79.69 45.91 57.6 33.49 57.6"/><polygon class="cls-12" points="45.35 66.58 45.91 57.6 33.49 57.6 34.05 66.58 45.35 66.58"/><line class="cls-3" x1="39.7" y1="57.6" x2="39.7" y2="79.68"/><polygon class="cls-3" points="33.49 57.6 34.87 79.69 44.53 79.69 45.91 57.6 33.49 57.6"/><path class="cls-11" d="M53.5,53.46A3.45,3.45,0,0,1,50.05,50V47.94a10.35,10.35,0,1,0-20.7,0V50a7.6,7.6,0,0,0,4.14,6.76v6.35H45.91V50A7.6,7.6,0,0,0,53.5,57.6h2.07V53.46Z"/><path class="cls-13" d="M35,80.37a1.15,1.15,0,0,1-1-.57,1.18,1.18,0,0,1,0-1.15,3.47,3.47,0,0,1,3-1.73,2.76,2.76,0,0,1,2.76,2.76v.69Z"/><path class="cls-13" d="M44.45,80.37a1.15,1.15,0,0,0,1-1.72,3.46,3.46,0,0,0-3-1.73,2.77,2.77,0,0,0-2.76,2.76v.69Z"/><path class="cls-14" d="M39.7,37.59A10.36,10.36,0,0,0,29.35,47.94V50h0A10.35,10.35,0,0,1,50,50h0V47.94A10.35,10.35,0,0,0,39.7,37.59Z"/><path class="cls-3" d="M53.5,53.46A3.45,3.45,0,0,1,50.05,50V47.94a10.35,10.35,0,1,0-20.7,0V50a7.6,7.6,0,0,0,4.14,6.76v6.35H45.91V50A7.6,7.6,0,0,0,53.5,57.6h2.07V53.46Z"/><path class="cls-7" d="M35.12,38.66v0l4,14.78h.56v2.07h0l4.58-16.85v0a10.36,10.36,0,0,0-9.17,0Z"/><line class="cls-3" x1="39.7" y1="37.59" x2="39.7" y2="63.12"/><path class="cls-3" d="M31.9,41.14l2.28,2.28v3.45l4.2,6.59h.76l-4-14.79A10.22,10.22,0,0,0,31.9,41.14Z"/><path class="cls-3" d="M44.29,38.66,39.71,55.53l5.52-8.66V43.42l2.27-2.28A10.4,10.4,0,0,0,44.29,38.66Z"/><path class="cls-3" d="M33.49,56.77a7.57,7.57,0,0,0,3.45.83H39.7V53.46H36.94A3.45,3.45,0,0,1,33.49,50v-.69"/><path class="cls-7" d="M41.77,57.6a2.07,2.07,0,1,0,0-4.14H39.7V57.6Z"/><line class="cls-5" x1="45.91" y1="50.01" x2="45.91" y2="49.32"/><path class="cls-7" d="M57.64,57.6a2.07,2.07,0,0,0,0-4.14H55.57V57.6Z"/><path class="cls-15" d="M39.7,39,39,38.4A6.1,6.1,0,0,0,36.25,37a1.15,1.15,0,0,0-1.38,1.13v1.61a1.17,1.17,0,0,0,.42.89,1.15,1.15,0,0,0,1,.24A6.1,6.1,0,0,0,39,39.55Z"/><path class="cls-15" d="M39.7,39l.67-.57A6.15,6.15,0,0,1,43.15,37a1.15,1.15,0,0,1,1,.24,1.12,1.12,0,0,1,.42.89v1.61a1.13,1.13,0,0,1-.42.89,1.15,1.15,0,0,1-1,.24,6.15,6.15,0,0,1-2.78-1.36Z"/><path class="cls-15" d="M41.08,39a1.38,1.38,0,1,1-1.38-1.38A1.38,1.38,0,0,1,41.08,39Z"/><path class="cls-16" d="M49.72,26.46c.66-.39.72-1.5.14-2.48a2.77,2.77,0,0,0-1-1,1.16,1.16,0,0,0,.87-.53c.36-.66-.16-1.65-1.16-2.2A2.39,2.39,0,0,0,46.67,20l-.3-.34a1.25,1.25,0,0,0,.86-.89c.13-.76-.67-1.52-1.8-1.72a2.31,2.31,0,0,0-2,.46l0,0a1.09,1.09,0,0,0,.41-.82c0-.76-.92-1.38-2.07-1.38s-2.07.62-2.07,1.38c0-.76-.92-1.38-2.07-1.38s-2.07.62-2.07,1.38a1.13,1.13,0,0,0,.41.82l0,0A2.31,2.31,0,0,0,34,17c-1.13.2-1.94,1-1.81,1.72a1.27,1.27,0,0,0,.87.89c-.1.11-.21.22-.3.34a2.39,2.39,0,0,0-1.86.23c-1,.55-1.52,1.54-1.16,2.2a1.12,1.12,0,0,0,.87.53,2.77,2.77,0,0,0-1,1c-.58,1-.52,2.09.13,2.48a1.1,1.1,0,0,0,.8.1,2.2,2.2,0,0,0-.5,2.06c.22,1.12,1,1.91,1.75,1.76a1,1,0,0,0,.3-.11,9,9,0,0,0,15.34,0,1.21,1.21,0,0,0,.3.11c.75.15,1.53-.64,1.75-1.76a2.18,2.18,0,0,0-.5-2.06A1.09,1.09,0,0,0,49.72,26.46Z"/><path class="cls-17" d="M49.86,24a2.77,2.77,0,0,0-1-1,1.16,1.16,0,0,0,.87-.53c.36-.66-.16-1.65-1.16-2.2A2.39,2.39,0,0,0,46.67,20l-.3-.34a1.25,1.25,0,0,0,.86-.89c.13-.76-.67-1.52-1.8-1.72a2.31,2.31,0,0,0-2,.46l0,0a1.09,1.09,0,0,0,.41-.82c0-.76-.92-1.38-2.07-1.38s-2.07.62-2.07,1.38c0-.76-.92-1.38-2.07-1.38s-2.07.62-2.07,1.38a1.13,1.13,0,0,0,.41.82l0,0A2.31,2.31,0,0,0,34,17c-1.13.2-1.94,1-1.81,1.72a1.27,1.27,0,0,0,.87.89c-.1.11-.21.22-.3.34a2.39,2.39,0,0,0-1.86.23c-1,.55-1.52,1.54-1.16,2.2a1.12,1.12,0,0,0,.87.53,2.77,2.77,0,0,0-1,1c-.58,1-.52,2.09.13,2.48a.91.91,0,0,0,.54.11,9.66,9.66,0,0,1,19,0,.88.88,0,0,0,.53-.11C50.38,26.07,50.44,25,49.86,24Z"/><path class="cls-3" d="M49.72,26.46c.66-.39.72-1.5.14-2.48a2.77,2.77,0,0,0-1-1,1.16,1.16,0,0,0,.87-.53c.36-.66-.16-1.65-1.16-2.2A2.39,2.39,0,0,0,46.67,20l-.3-.34a1.25,1.25,0,0,0,.86-.89c.13-.76-.67-1.52-1.8-1.72a2.31,2.31,0,0,0-2,.46l0,0a1.09,1.09,0,0,0,.41-.82c0-.76-.92-1.38-2.07-1.38s-2.07.62-2.07,1.38c0-.76-.92-1.38-2.07-1.38s-2.07.62-2.07,1.38a1.13,1.13,0,0,0,.41.82l0,0A2.31,2.31,0,0,0,34,17c-1.13.2-1.94,1-1.81,1.72a1.27,1.27,0,0,0,.87.89c-.1.11-.21.22-.3.34a2.39,2.39,0,0,0-1.86.23c-1,.55-1.52,1.54-1.16,2.2a1.12,1.12,0,0,0,.87.53,2.77,2.77,0,0,0-1,1c-.58,1-.52,2.09.13,2.48a1.1,1.1,0,0,0,.8.1,2.2,2.2,0,0,0-.5,2.06c.22,1.12,1,1.91,1.75,1.76a1,1,0,0,0,.3-.11,9,9,0,0,0,15.34,0,1.21,1.21,0,0,0,.3.11c.75.15,1.53-.64,1.75-1.76a2.18,2.18,0,0,0-.5-2.06A1.09,1.09,0,0,0,49.72,26.46Z"/><path class="cls-18" d="M46.61,27l-1-2.93a1.39,1.39,0,0,0-1.64-.9l-2.28.57a8.29,8.29,0,0,1-4,0l-2.27-.56a1.37,1.37,0,0,0-1.64.9l-1,2.92c-2,0-1.83,3.45.35,3.45h0a6.86,6.86,0,0,0,13.1,0h0C48.45,30.46,48.58,27,46.61,27Z"/><circle class="cls-19" cx="36.26" cy="29.36" r="0.69"/><circle class="cls-19" cx="43.16" cy="29.36" r="0.69"/><path class="cls-3" d="M38,31.32a3.1,3.1,0,0,0,3.45,0"/><path class="cls-8" d="M37.47,26.43a.86.86,0,1,0,.86.86.87.87,0,0,0-.86-.86Z"/><path class="cls-8" d="M42,26.43a.86.86,0,1,0,.86.86.86.86,0,0,0-.86-.86Z"/></svg>