<?xml version="1.0" encoding="UTF-8" standalone="no"?>
<svg
   xmlns:dc="http://purl.org/dc/elements/1.1/"
   xmlns:cc="http://creativecommons.org/ns#"
   xmlns:rdf="http://www.w3.org/1999/02/22-rdf-syntax-ns#"
   xmlns:svg="http://www.w3.org/2000/svg"
   xmlns="http://www.w3.org/2000/svg"
   xmlns:sodipodi="http://sodipodi.sourceforge.net/DTD/sodipodi-0.dtd"
   xmlns:inkscape="http://www.inkscape.org/namespaces/inkscape"
   inkscape:version="1.0 (4035a4f, 2020-05-01)"
   sodipodi:docname="undraw_profile_pic_ic5t.svg"
   version="1.1"
   viewBox="0 0 698 698"
   height="698"
   width="698"
   data-name="Layer 1"
   id="457bf273-24a3-4fd8-a857-e9b918267d6a">
  <metadata
     id="metadata875">
    <rdf:RDF>
      <cc:Work
         rdf:about="">
        <dc:format>image/svg+xml</dc:format>
        <dc:type
           rdf:resource="http://purl.org/dc/dcmitype/StillImage" />
      </cc:Work>
    </rdf:RDF>
  </metadata>
  <sodipodi:namedview
     inkscape:current-layer="457bf273-24a3-4fd8-a857-e9b918267d6a"
     inkscape:window-maximized="1"
     inkscape:window-y="23"
     inkscape:window-x="0"
     inkscape:cy="317.30577"
     inkscape:cx="494.09002"
     inkscape:zoom="1.1751345"
     showgrid="false"
     id="namedview873"
     inkscape:window-height="1322"
     inkscape:window-width="2560"
     inkscape:pageshadow="2"
     inkscape:pageopacity="0"
     guidetolerance="10"
     gridtolerance="10"
     objecttolerance="10"
     borderopacity="1"
     bordercolor="#666666"
     pagecolor="#ffffff" />
  <defs
     id="defs840">
    <linearGradient
       gradientTransform="translate(339.37241,-221.43448)"
       gradientUnits="userSpaceOnUse"
       x2="349"
       y1="698"
       x1="349"
       id="b247946c-c62f-4d08-994a-4c3d64e1e98f">
      <stop
         id="stop833"
         stop-opacity="0.25"
         stop-color="gray"
         offset="0" />
      <stop
         id="stop835"
         stop-opacity="0.12"
         stop-color="gray"
         offset="0.54" />
      <stop
         id="stop837"
         stop-opacity="0.1"
         stop-color="gray"
         offset="1" />
    </linearGradient>
  </defs>
  <title
     id="title842">profile pic</title>
  <path
     d="m 414.07477,628.83691 c 1.08,-0.25 2.15,-0.52 3.22,-0.79 0.95,-0.24 1.89,-0.49 2.84,-0.74 0.05,-1.99 0.12006,-4.18 0.19,-6.55 0.59,-18.56 1.98,-48.44 5.26,-84.44 q 0.27,-2.895 0.54,-5.83 c 1.17,-12.2 2.54,-25.03 4.18,-38.33 0.05,-0.44 0.11,-0.87 0.16,-1.31 1.33,-10.78 2.84,-21.85 4.54,-33.13 q 1.78491,-11.835 3.86,-23.93 c 0.1,-0.56 0.2,-1.13 0.3,-1.69 0.4,-2.33 0.81,-4.65 1.23,-6.99 1.17,-6.51 2.42,-13.06 3.73,-19.61 4.61,-23.04 10.1,-46.22 16.65,-68.77 a 550.90913,550.90913 0 0 1 24.53,-68.61 338.80588,338.80588 0 0 1 26.74,-49.82999 c 0.15,-0.23 0.3,-0.45 0.45,-0.68 13.15,-19.81001 28.18,-36.62001 45.34,-49.19001 l -3.56,-4.86 q -24.66,18.075 -45.24,48.10001 c -0.07,0.1 -0.13,0.19 -0.2,0.29 a 327.43692,327.43692 0 0 0 -26.92,48.25999 527.39526,527.39526 0 0 0 -25.68,69.37 q -9.84,33.03 -17.65,71.57 -2.74494,13.575 -5.24,27.82 c -0.28,1.62 -0.56,3.24 -0.84,4.87 0,0.02 -0.01,0.05 -0.01,0.07 -0.43,2.5 -0.84,5 -1.26,7.53 q -1.56006,9.555 -2.94,18.96 -2.13,14.49 -3.85,28.48 -0.56991,4.62 -1.1,9.17 -0.75,6.42 -1.42,12.67 -0.945,8.7 -1.73,17.03 l -0.15,1.53 c -0.08,0.88 -0.16,1.76 -0.24,2.63 -4.06,43.79 -5.33,79.16 -5.73,96.93 z"
     opacity="0.2"
     id="path879" />
  <path
     d="m 490.73477,600.11691 c 0.11,-0.06 0.23,-0.12 0.34,-0.18 2.06,-1.07 4.1,-2.16 6.14,-3.28 0.67,-7.98 1.57,-16.75 2.75,-25.97 0.25,-1.9 0.5,-3.83 0.78,-5.77 0.13995,-1.04 0.29,-2.09 0.44,-3.15 1.18,-8.12 2.58,-16.5 4.26,-24.92 6.83,-34.36 18.17,-69.48 37,-91.16 1.01,-1.17 2.04,-2.29 3.11005,-3.38 a 67.66245,67.66245 0 0 1 8.61,-7.55 l -3.56,-4.85 a 77.071,77.071 0 0 0 -11.8,10.79 q -1.875,2.085 -3.66,4.34 c -17.33,21.81 -28.15,54.1 -34.88995,86.07 -1.76,8.34 -3.24,16.67005 -4.5,24.78 q -0.48,3.18 -0.92,6.3 c -1.9501,13.74 -3.2401,26.72 -4.1001,37.93 z"
     opacity="0.2"
     id="path881" />
  <circle
     cx="591.46301"
     cy="138.18858"
     r="30.08857"
     opacity="0.2"
     id="circle883" />
  <circle
     cx="581.77332"
     cy="397.19775"
     r="30.08857"
     opacity="0.2"
     id="circle885" />
  <path
     d="m 572.00711,274.17813 c -34.33494,12.555 -68.83676,4.498 -68.83676,4.498 0,0 21.16612,-28.41279 55.50106,-40.96783 34.33494,-12.55505 68.83675,-4.498 68.83675,-4.498 0,0 -21.16611,28.41278 -55.50105,40.96783 z"
     opacity="0.2"
     id="path889" />
  <path
     d="m 577.82943,503.53991 c -24.066,8.80008 -48.28314,3.0594 -48.28314,3.0594 0,0 14.80161,-20.00841 38.86762,-28.80849 24.06601,-8.80008 48.28314,-3.0594 48.28314,-3.0594 0,0 -14.80161,20.00841 -38.86762,28.80849 z"
     opacity="0.2"
     id="path891" />
  <path
     id="path850"
     fill="#eb7260"
     transform="translate(-251 -101)"
     d="M601,790.76a340,340,0,0,0,187.79-56.2c-12.59-68.8-60.5-72.72-60.5-72.72H464.09s-45.21,3.71-59.33,67A340.07,340.07,0,0,0,601,790.76Z" />
  <circle
     style="fill:#999999;fill-opacity:1"
     id="circle852"
     fill="#333"
     r="164.9"
     cy="339.57"
     cx="346.37" />
  <path
     id="path854"
     opacity="0.1"
     d="M293.15,476.92H398.81a0,0,0,0,1,0,0v84.53A52.83,52.83,0,0,1,346,614.28h0a52.83,52.83,0,0,1-52.83-52.83V476.92a0,0,0,0,1,0,0Z" />
  <path
     id="path856"
     fill="#fdb797"
     d="M296.5,473h99a3.35,3.35,0,0,1,3.35,3.35v81.18A52.83,52.83,0,0,1,346,610.37h0a52.83,52.83,0,0,1-52.83-52.83V476.35A3.35,3.35,0,0,1,296.5,473Z" />
  <path
     id="path858"
     opacity="0.1"
     transform="translate(-251 -101)"
     d="M544.34,617.82a152.07,152.07,0,0,0,105.66.29v-13H544.34Z" />
  <circle
     id="circle860"
     fill="#fdb797"
     r="151.45"
     cy="372.44"
     cx="346.37" />
  <path
     id="path862"
     opacity="0.1"
     transform="translate(-251 -101)"
     d="M489.49,335.68S553.32,465.24,733.37,390l-41.92-65.73-74.31-26.67Z" />
  <path
     style="fill:#999999;fill-opacity:1"
     id="path864"
     fill="#333"
     transform="translate(-251 -101)"
     d="M489.49,333.78s63.83,129.56,243.88,54.3l-41.92-65.73-74.31-26.67Z" />
  <path
     style="fill:#999999;fill-opacity:1"
     id="path866"
     fill="#333"
     transform="translate(-251 -101)"
     d="M488.93,325a87.49,87.49,0,0,1,21.69-35.27c29.79-29.45,78.63-35.66,103.68-69.24,6,9.32,1.36,23.65-9,27.65,24-.16,51.81-2.26,65.38-22a44.89,44.89,0,0,1-7.57,47.4c21.27,1,44,15.4,45.34,36.65.92,14.16-8,27.56-19.59,35.68s-25.71,11.85-39.56,14.9C608.86,369.7,462.54,407.07,488.93,325Z" />
  <ellipse
     id="ellipse868"
     fill="#fdb797"
     ry="26.42"
     rx="14.09"
     cy="372.3"
     cx="194.86" />
  <ellipse
     id="ellipse870"
     fill="#fdb797"
     ry="26.42"
     rx="14.09"
     cy="372.3"
     cx="497.8" />
</svg>
