<svg id="Layer_1" data-name="Layer 1" xmlns="http://www.w3.org/2000/svg" viewBox="0 0 100 100"><defs><style>.cls-1{fill:#e8f4fa;}.cls-17,.cls-2,.cls-7{fill:#fff;}.cls-3{fill:none;}.cls-10,.cls-11,.cls-12,.cls-13,.cls-14,.cls-15,.cls-16,.cls-17,.cls-3,.cls-7{stroke:#45413c;stroke-linejoin:round;}.cls-10,.cls-11,.cls-12,.cls-13,.cls-14,.cls-15,.cls-3,.cls-7{stroke-linecap:round;}.cls-15,.cls-16,.cls-4{fill:#00b8f0;}.cls-5{fill:#4acfff;}.cls-6{fill:#009fd9;}.cls-8{fill:#e0e0e0;}.cls-9{fill:#87898c;}.cls-10{fill:#daedf7;}.cls-11{fill:#ff6242;}.cls-12{fill:#fff48c;}.cls-13{fill:#6dd627;}.cls-14{fill:#ffe500;}</style></defs><title>monitor-window</title><g id="_Group_" data-name="&lt;Group&gt;"><path class="cls-1" d="M90,50A40,40,0,1,0,13.56,66.5H86.44A39.85,39.85,0,0,0,90,50Z"/><path class="cls-2" d="M13.56,66.5a40,40,0,0,0,72.88,0Z"/><line class="cls-3" x1="11" y1="66.5" x2="89" y2="66.5"/><line class="cls-3" x1="6.5" y1="66.5" x2="9" y2="66.5"/><line class="cls-3" x1="91" y1="66.5" x2="93.5" y2="66.5"/></g><rect class="cls-4" x="23.15" y="35.36" width="48.3" height="34.5" rx="3.6" ry="3.6"/><path class="cls-5" d="M52.36,35.36H27.29a4.14,4.14,0,0,0-4.14,4.15V64.58Z"/><path class="cls-6" d="M37,56.76A2.77,2.77,0,0,1,34.19,54v-.45L31.43,56.3v.46a2.77,2.77,0,0,0,2.76,2.76h34.5a2.77,2.77,0,0,0,2.76-2.76Z"/><polygon class="cls-6" points="34.19 35.37 31.43 35.37 31.43 56.3 34.19 53.54 34.19 35.37"/><rect class="cls-3" x="23.15" y="35.36" width="48.3" height="34.5" rx="3.6" ry="3.6"/><path class="cls-7" d="M67.31,69.86a4.14,4.14,0,0,0,4.14-4.13V64.35H23.15v1.38a4.13,4.13,0,0,0,4.14,4.13Z"/><polygon class="cls-8" points="51.44 75.39 43.16 75.39 43.85 69.86 50.75 69.86 51.44 75.39"/><polygon class="cls-9" points="51.01 71.94 43.59 71.94 43.85 69.86 50.75 69.86 51.01 71.94"/><polygon class="cls-3" points="51.44 75.39 43.16 75.39 43.85 69.86 50.75 69.86 51.44 75.39"/><path class="cls-7" d="M56.27,78.15H38.33a2.75,2.75,0,0,1,2.76-2.76H53.51A2.76,2.76,0,0,1,56.27,78.15Z"/><path class="cls-10" d="M34.19,30.54h40a0,0,0,0,1,0,0V54.36a2.4,2.4,0,0,1-2.4,2.4H36.59a2.4,2.4,0,0,1-2.4-2.4V30.54A0,0,0,0,1,34.19,30.54Z"/><path class="cls-7" d="M36.59,22.26H71.81a2.4,2.4,0,0,1,2.4,2.4v5.88a0,0,0,0,1,0,0h-40a0,0,0,0,1,0,0V24.65A2.4,2.4,0,0,1,36.59,22.26Z"/><circle class="cls-11" cx="38.33" cy="26.4" r="1.38"/><circle class="cls-12" cx="43.85" cy="26.4" r="1.38"/><circle class="cls-13" cx="49.37" cy="26.4" r="1.38"/><rect class="cls-13" x="46.61" y="38.81" width="5.52" height="5.52" rx="1" ry="1"/><rect class="cls-11" x="55.58" y="38.81" width="5.52" height="5.52" rx="1" ry="1"/><rect class="cls-13" x="64.55" y="38.81" width="5.52" height="5.52" rx="1" ry="1"/><rect class="cls-11" x="46.61" y="47.1" width="5.52" height="5.52" rx="1" ry="1"/><rect class="cls-13" x="55.58" y="47.1" width="5.52" height="5.52" rx="1" ry="1"/><rect class="cls-14" x="64.55" y="47.1" width="5.52" height="5.52" rx="1" ry="1"/><rect class="cls-15" x="38.33" y="33.3" width="5.52" height="2.76" rx="1" ry="1"/><rect class="cls-16" x="46.61" y="33.3" width="23.46" height="2.76" rx="1" ry="1"/><line class="cls-3" x1="38.33" y1="38.81" x2="43.85" y2="38.81"/><line class="cls-3" x1="38.33" y1="41.57" x2="43.85" y2="41.57"/><line class="cls-3" x1="38.33" y1="44.34" x2="43.85" y2="44.34"/><line class="cls-3" x1="38.33" y1="47.1" x2="43.85" y2="47.1"/><line class="cls-3" x1="38.33" y1="49.85" x2="43.85" y2="49.85"/><line class="cls-3" x1="38.33" y1="52.61" x2="41.78" y2="52.61"/><path class="cls-17" d="M83.18,67.72c-.2.73-.6.76-.89.06L77.76,56.91c-.29-.7,0-1,.75-.74L89.37,60.7c.7.29.67.69-.06.89l-3.48.95a2.7,2.7,0,0,0-1.7,1.69Z"/><circle class="cls-10" cx="47.3" cy="67.1" r="0.58"/></svg>