<svg id="Layer_1" data-name="Layer 1" xmlns="http://www.w3.org/2000/svg" viewBox="0 0 100 100"><defs><style>.cls-1{fill:#e8f4fa;}.cls-2,.cls-7{fill:#fff;}.cls-19,.cls-3{fill:none;}.cls-19,.cls-3,.cls-7,.cls-8,.cls-9{stroke:#45413c;}.cls-3,.cls-7,.cls-8,.cls-9{stroke-linecap:round;stroke-linejoin:round;}.cls-4{fill:#020202;opacity:0.15;}.cls-5{fill:#00b8f0;}.cls-6{fill:#4acfff;}.cls-16,.cls-8{fill:#525252;}.cls-15,.cls-9{fill:#daedf7;}.cls-10{fill:#f0ffe5;}.cls-11{fill:#6dd627;}.cls-12{fill:#9ceb60;}.cls-13{fill:#c8ffa1;}.cls-14{fill:#e4ffd1;}.cls-17{fill:#ffe500;}.cls-18{fill:#fff48c;}.cls-19{stroke-miterlimit:10;}</style></defs><title>monitor-cash-credit-card</title><g id="_Group_" data-name="&lt;Group&gt;"><path class="cls-1" d="M89.87,50A40,40,0,1,0,13.44,66.5H86.31A39.85,39.85,0,0,0,89.87,50Z"/><path class="cls-2" d="M13.44,66.5a40,40,0,0,0,72.87,0Z"/><line class="cls-3" x1="10.87" y1="66.5" x2="88.87" y2="66.5"/><line class="cls-3" x1="6.37" y1="66.5" x2="8.87" y2="66.5"/><line class="cls-3" x1="90.87" y1="66.5" x2="93.37" y2="66.5"/></g><ellipse class="cls-4" cx="50.11" cy="81.52" rx="15.75" ry="1.57"/><path class="cls-5" d="M69.63,67.66V47.5A2.52,2.52,0,0,0,67.11,45h-34a2.52,2.52,0,0,0-2.52,2.52V67.66Z"/><path class="cls-6" d="M35.62,67.66,58.3,45H33.1a2.52,2.52,0,0,0-2.52,2.52V67.66Z"/><path class="cls-7" d="M69.63,67.66v5a2.52,2.52,0,0,1-2.52,2.52h-34a2.52,2.52,0,0,1-2.52-2.52v-5Z"/><path class="cls-8" d="M51.37,71.44a1.26,1.26,0,0,1-2.52,0,1.26,1.26,0,0,1,2.52,0Z"/><polygon class="cls-9" points="56.41 80.26 43.8 80.26 44.44 75.22 55.78 75.22 56.41 80.26"/><line class="cls-3" x1="40.03" y1="80.26" x2="60.18" y2="80.26"/><path class="cls-3" d="M69.63,67.66V47.5A2.52,2.52,0,0,0,67.11,45h-34a2.52,2.52,0,0,0-2.52,2.52V67.66Z"/><path class="cls-2" d="M57.67,56.32a7.56,7.56,0,1,1-7.56-7.56A7.57,7.57,0,0,1,57.67,56.32Z"/><path class="cls-10" d="M53.64,49.64a7.55,7.55,0,0,0-11.09,6.68,7.62,7.62,0,0,0,.87,3.53Z"/><path class="cls-3" d="M57.67,56.32a7.56,7.56,0,1,1-7.56-7.56A7.57,7.57,0,0,1,57.67,56.32Z"/><path class="cls-11" d="M48.85,60.73a1.89,1.89,0,0,1-1.34-.56L45,57.65A1.89,1.89,0,0,1,47.66,55l1.19,1.18,3.07-3.07a1.89,1.89,0,1,1,2.67,2.67l-4.41,4.41A1.88,1.88,0,0,1,48.85,60.73Z"/><path class="cls-12" d="M45.3,58,48,55.3,47.66,55A1.89,1.89,0,0,0,45,57.65Z"/><path class="cls-3" d="M48.85,60.73a1.89,1.89,0,0,1-1.34-.56L45,57.65A1.89,1.89,0,0,1,47.66,55l1.19,1.18,3.07-3.07a1.89,1.89,0,1,1,2.67,2.67l-4.41,4.41A1.88,1.88,0,0,1,48.85,60.73Z"/><rect class="cls-11" x="2.84" y="28.6" width="25.2" height="15.12" rx="1.05" ry="1.05" transform="translate(-9.28 5.58) rotate(-15.83)"/><path class="cls-12" d="M26.87,30.3,2.63,37.17,1.54,33.33A1,1,0,0,1,2.26,32l22.23-6.3a1.06,1.06,0,0,1,1.29.73Z"/><path class="cls-13" d="M25.82,35.83,24.45,31a2.52,2.52,0,0,1-3.12-1.73L6.79,33.37a2.52,2.52,0,0,1-1.74,3.11l1.37,4.85a2.53,2.53,0,0,1,3.12,1.74l14.54-4.13A2.52,2.52,0,0,1,25.82,35.83Z"/><path class="cls-14" d="M21.33,29.25,6.79,33.37a2.52,2.52,0,0,1-1.74,3.11L24.45,31A2.52,2.52,0,0,1,21.33,29.25Z"/><path class="cls-12" d="M17.86,35.47a2.52,2.52,0,1,1-3.11-1.74A2.52,2.52,0,0,1,17.86,35.47Z"/><path class="cls-3" d="M17.86,35.47a2.52,2.52,0,1,1-3.11-1.74A2.52,2.52,0,0,1,17.86,35.47Z"/><path class="cls-3" d="M25.82,35.83,24.45,31a2.52,2.52,0,0,1-3.12-1.73L6.79,33.37a2.52,2.52,0,0,1-1.74,3.11l1.37,4.85a2.53,2.53,0,0,1,3.12,1.74l14.54-4.13A2.52,2.52,0,0,1,25.82,35.83Z"/><rect class="cls-3" x="2.84" y="28.6" width="25.2" height="15.12" rx="1.05" ry="1.05" transform="translate(-9.28 5.58) rotate(-15.83)"/><path class="cls-15" d="M92.82,46.29,75.05,41.2a2.1,2.1,0,0,1-1.44-2.6l3-10.49a2.09,2.09,0,0,1,2.59-1.44L97,31.75a2.11,2.11,0,0,1,1.44,2.6l-3,10.5A2.1,2.1,0,0,1,92.82,46.29Z"/><rect class="cls-16" x="75.72" y="31.58" width="22.68" height="2.52" transform="translate(12.41 -22.7) rotate(15.98)"/><line class="cls-3" x1="76.15" y1="38.89" x2="82.21" y2="40.63"/><rect class="cls-1" x="76.85" y="36.43" width="17.64" height="2.52" transform="translate(13.69 -22.13) rotate(15.98)"/><path class="cls-3" d="M92.82,46.29,75.05,41.2a2.1,2.1,0,0,1-1.44-2.6l3-10.49a2.09,2.09,0,0,1,2.59-1.44L97,31.75a2.11,2.11,0,0,1,1.44,2.6l-3,10.5A2.1,2.1,0,0,1,92.82,46.29Z"/><rect class="cls-3" x="75.72" y="31.58" width="22.68" height="2.52" transform="translate(12.41 -22.7) rotate(15.98)"/><rect class="cls-3" x="76.85" y="36.43" width="17.64" height="2.52" transform="translate(13.69 -22.13) rotate(15.98)"/><circle class="cls-17" cx="50.11" cy="26.44" r="8.4"/><path class="cls-18" d="M50.11,18a8.4,8.4,0,0,0-5.94,14.34L56.05,20.5A8.39,8.39,0,0,0,50.11,18Z"/><circle class="cls-19" cx="50.11" cy="26.44" r="8.4"/><line class="cls-3" x1="50.11" y1="30.64" x2="50.11" y2="31.69"/><line class="cls-3" x1="50.11" y1="21.19" x2="50.11" y2="22.24"/><path class="cls-3" d="M48,28.54a2.1,2.1,0,1,0,2.1-2.1,2.1,2.1,0,1,1,2.1-2.1"/></svg>