<svg id="Layer_1" data-name="Layer 1" xmlns="http://www.w3.org/2000/svg" viewBox="0 0 100 100"><defs><style>.cls-1,.cls-9{fill:#e8f4fa;}.cls-2{fill:#fff;}.cls-13,.cls-3{fill:none;}.cls-10,.cls-11,.cls-13,.cls-3,.cls-9{stroke:#45413c;stroke-linejoin:round;}.cls-3,.cls-9{stroke-linecap:round;}.cls-4{fill:#020202;opacity:0.15;}.cls-5{fill:#00b8f0;}.cls-6{fill:#4acfff;}.cls-7{fill:#daedf7;}.cls-8{fill:#c0dceb;}.cls-10{fill:#45413c;}.cls-11,.cls-14{fill:#6dd627;}.cls-12{fill:#9ceb60;}</style></defs><title>monitor-loading-progress</title><path class="cls-1" d="M90,50A40,40,0,1,0,13.56,66.5H86.44A39.85,39.85,0,0,0,90,50Z"/><path class="cls-2" d="M13.56,66.5a40,40,0,0,0,72.88,0Z"/><line class="cls-3" x1="11" y1="66.5" x2="89" y2="66.5"/><line class="cls-3" x1="6.5" y1="66.5" x2="9" y2="66.5"/><line class="cls-3" x1="91" y1="66.5" x2="93.5" y2="66.5"/><path class="cls-4" d="M64.29,77.8c0,1-6.65,1.72-14.85,1.72s-14.85-.77-14.85-1.72,6.65-1.71,14.85-1.71S64.29,76.86,64.29,77.8Z"/><path class="cls-5" d="M72.29,37.86a3.63,3.63,0,0,0-3.62-3.63H31.36a3.64,3.64,0,0,0-3.63,3.63V62.59H72.29Z"/><path class="cls-6" d="M57.5,34.23H31.36a3.64,3.64,0,0,0-3.63,3.63V62.59h1.42Z"/><polygon class="cls-7" points="55.41 73.39 44.61 73.39 45.28 67.99 54.74 67.99 55.41 73.39"/><polygon class="cls-8" points="54.99 70.01 45.03 70.01 45.28 67.99 54.74 67.99 54.99 70.01"/><polygon class="cls-3" points="55.41 73.39 44.61 73.39 45.28 67.99 54.74 67.99 55.41 73.39"/><path class="cls-9" d="M57.74,76.09H42.28a.84.84,0,0,1-.78-1.17,2.7,2.7,0,0,1,2.44-1.53H56.09a2.68,2.68,0,0,1,2.43,1.53A.84.84,0,0,1,57.74,76.09Z"/><path class="cls-9" d="M68.67,68a3.62,3.62,0,0,0,3.62-3.63V62.59H27.73v1.77A3.63,3.63,0,0,0,31.36,68Z"/><path class="cls-3" d="M72.29,37.86a3.63,3.63,0,0,0-3.62-3.63H31.36a3.64,3.64,0,0,0-3.63,3.63V62.59H72.29Z"/><path class="cls-3" d="M50.61,65.29a.6.6,0,1,1-.6-.61A.6.6,0,0,1,50.61,65.29Z"/><path class="cls-10" d="M63.4,53A2.42,2.42,0,0,1,61,55.37H39a2.42,2.42,0,0,1,0-4.83H61A2.41,2.41,0,0,1,63.4,53Z"/><path class="cls-11" d="M55.15,50.54H39a2.42,2.42,0,0,0,0,4.83H55.15Z"/><path class="cls-12" d="M55.15,50.54H39A2.41,2.41,0,0,0,36.62,53H55.15Z"/><path class="cls-13" d="M55.15,50.54H39a2.42,2.42,0,0,0,0,4.83H55.15Z"/><path class="cls-14" d="M42.22,18.1a1.2,1.2,0,0,0-1.08.67A1.17,1.17,0,0,0,41.27,20l7.78,10.1a1.21,1.21,0,0,0,1,.47,1.2,1.2,0,0,0,1-.47L58.76,20a1.21,1.21,0,0,0-1-1.94h-3V12.5a2.42,2.42,0,0,0-2.41-2.42H47.6a2.42,2.42,0,0,0-2.42,2.42v5.6Z"/><path class="cls-12" d="M47.6,13.48h4.83a2.41,2.41,0,0,1,2.41,2.42V12.5a2.42,2.42,0,0,0-2.41-2.42H47.6a2.42,2.42,0,0,0-2.42,2.42v3.4A2.42,2.42,0,0,1,47.6,13.48Z"/><path class="cls-13" d="M42.22,18.1a1.2,1.2,0,0,0-1.08.67A1.17,1.17,0,0,0,41.27,20l7.78,10.1a1.21,1.21,0,0,0,1,.47,1.2,1.2,0,0,0,1-.47L58.76,20a1.21,1.21,0,0,0-1-1.94h-3V12.5a2.42,2.42,0,0,0-2.41-2.42H47.6a2.42,2.42,0,0,0-2.42,2.42v5.6Z"/></svg>