<svg id="Layer_1" data-name="Layer 1" xmlns="http://www.w3.org/2000/svg" viewBox="0 0 100 100"><defs><style>.cls-1,.cls-10,.cls-5{fill:#fff;}.cls-1{stroke:#fff;stroke-miterlimit:10;}.cls-2{fill:#e8f4fa;}.cls-3{fill:none;}.cls-12,.cls-13,.cls-3,.cls-5{stroke:#45413c;stroke-linejoin:round;}.cls-12,.cls-13,.cls-3{stroke-linecap:round;}.cls-4{fill:#00b8f0;}.cls-6{fill:#ff6242;}.cls-7{fill:#ff866e;}.cls-8{fill:#f0f0f0;}.cls-9{fill:#bdbec0;}.cls-11{fill:#4acfff;}.cls-12{fill:#bf8256;}.cls-13{fill:#fff5e3;}</style></defs><title>netherlands-windmill</title><path class="cls-1" d="M50.5,91.4a39.94,39.94,0,0,0,34.61-20H15.89A39.94,39.94,0,0,0,50.5,91.4Z"/><path class="cls-1" d="M14.06,67.9c.55,1.21,1.17,2.36,1.83,3.5H85.11c.66-1.14,1.28-2.29,1.83-3.5Z"/><path class="cls-2" d="M90.5,51.4A40,40,0,1,0,14.06,67.9H86.94A39.85,39.85,0,0,0,90.5,51.4Z"/><line class="cls-3" x1="11" y1="67.9" x2="89" y2="67.9"/><line class="cls-3" x1="6.5" y1="67.9" x2="9" y2="67.9"/><line class="cls-3" x1="91" y1="67.9" x2="93.5" y2="67.9"/><rect class="cls-4" x="43.03" y="49.9" width="6" height="7.5" rx="1" ry="1"/><path class="cls-5" d="M29.29,24a2.15,2.15,0,0,0-.8.15,3.68,3.68,0,0,0-7.26,0,2.06,2.06,0,0,0-.79-.15,2.21,2.21,0,0,0,0,4.42h8.85a2.21,2.21,0,0,0,0-4.42Z"/><path class="cls-6" d="M64.48,37.06a1,1,0,0,0,.93-1.36l-1.56-4.05a11,11,0,0,0-4.51-5.5l-6-3.68a1,1,0,0,0-1,0l-6,3.68a11.09,11.09,0,0,0-4.52,5.5L40.15,35.7a1,1,0,0,0,.93,1.36Z"/><path class="cls-7" d="M52.78,28.1a16.15,16.15,0,0,1,11.43,4.49l-.36-.94a11,11,0,0,0-4.51-5.5l-6-3.68a1,1,0,0,0-1,0l-6,3.68a11.09,11.09,0,0,0-4.52,5.5l-.36.94A16.17,16.17,0,0,1,52.78,28.1Z"/><path class="cls-3" d="M64.48,37.06a1,1,0,0,0,.93-1.36l-1.56-4.05a11,11,0,0,0-4.51-5.5l-6-3.68a1,1,0,0,0-1,0l-6,3.68a11.09,11.09,0,0,0-4.52,5.5L40.15,35.7a1,1,0,0,0,.93,1.36Z"/><rect class="cls-8" x="41.01" y="37.06" width="23.54" height="3.75"/><rect class="cls-9" x="41.01" y="37.06" width="23.54" height="1.88"/><rect class="cls-3" x="41.01" y="37.06" width="23.54" height="3.75"/><path class="cls-7" d="M66,46.15c0-.58,0-1.16,0-1.75V41.81a1,1,0,0,0-1-1H40.62a1,1,0,0,0-1,1V44.4c0,.59,0,1.17,0,1.75Z"/><path class="cls-6" d="M69,61.06a1,1,0,0,0,.87-1.48A31,31,0,0,1,65.93,44.4V41.81a1,1,0,0,0-1-1H40.62a1,1,0,0,0-1,1V44.4a30.87,30.87,0,0,1-3.95,15.18,1,1,0,0,0,.87,1.48Z"/><path class="cls-3" d="M69,61.06a1,1,0,0,0,.87-1.48A31,31,0,0,1,65.93,44.4V41.81a1,1,0,0,0-1-1H40.62a1,1,0,0,0-1,1V44.4a30.87,30.87,0,0,1-3.95,15.18,1,1,0,0,0,.87,1.48Z"/><rect class="cls-10" x="37.55" y="61.06" width="30.46" height="6.84"/><rect class="cls-2" x="37.55" y="61.06" width="30.46" height="3.09"/><rect class="cls-3" x="37.55" y="61.06" width="30.46" height="6.84"/><rect class="cls-4" x="43.03" y="49.9" width="6" height="7.5" rx="1" ry="1"/><path class="cls-11" d="M48.05,49.9H44a1,1,0,0,0-1,1v5.5a1,1,0,0,0,.58.91Z"/><rect class="cls-3" x="43.03" y="49.9" width="6" height="7.5" rx="1" ry="1"/><line class="cls-3" x1="43.03" y1="53.65" x2="49.03" y2="53.65"/><line class="cls-3" x1="46.03" y1="49.9" x2="46.03" y2="57.4"/><path class="cls-12" d="M61,67.9h-4.5v-3a2.25,2.25,0,0,1,2.25-2.25h0A2.25,2.25,0,0,1,61,64.9Z"/><line class="cls-3" x1="43.53" y1="67.9" x2="43.53" y2="64.15"/><line class="cls-3" x1="50.53" y1="67.9" x2="50.53" y2="64.15"/><path class="cls-3" d="M49.23,27.13l5.21-5.21a1,1,0,0,0,0-1.42L42.83,8.89a1,1,0,0,0-1.42,0l-3.94,3.94a1.81,1.81,0,0,0,0,2.55L68.08,46a1.79,1.79,0,0,1,0,2.55l-3.94,3.94a1,1,0,0,1-1.41,0L51.12,40.87a1,1,0,0,1,0-1.42l5.21-5.21"/><path class="cls-3" d="M49.23,34.24,44,29a1,1,0,0,0-1.41,0L31,40.64a1,1,0,0,0,0,1.41L34.93,46a1.8,1.8,0,0,0,2.54,0L68.08,15.38a1.81,1.81,0,0,1,2.55,0l3.94,3.94a1,1,0,0,1,.29.71,1,1,0,0,1-.29.7L63,32.35a1,1,0,0,1-1.42,0l-5.21-5.22"/><path class="cls-13" d="M68.08,48.54l-1.25,1.25-13-13,2.53-2.53L68.08,46A1.79,1.79,0,0,1,68.08,48.54Z"/><path class="cls-13" d="M51.76,24.61l-2.53,2.53L37.48,15.39a1.79,1.79,0,0,1,0-2.55l1.26-1.26Z"/><path class="cls-13" d="M34.93,46l-1.26-1.26,13-13,2.54,2.53L37.47,46A1.8,1.8,0,0,1,34.93,46Z"/><path class="cls-13" d="M58.86,29.66l-2.53-2.53L68.08,15.38a1.81,1.81,0,0,1,2.55,0l1.26,1.26Z"/><line class="cls-3" x1="56.98" y1="46.73" x2="60.37" y2="43.34"/><line class="cls-3" x1="60.36" y1="50.11" x2="63.75" y2="46.72"/><line class="cls-3" x1="53.61" y1="43.36" x2="57" y2="39.97"/><line class="cls-3" x1="45.18" y1="18.03" x2="48.57" y2="14.64"/><line class="cls-3" x1="48.56" y1="21.4" x2="51.95" y2="18.01"/><line class="cls-3" x1="41.81" y1="14.65" x2="45.2" y2="11.26"/><line class="cls-3" x1="68.82" y1="26.48" x2="65.43" y2="23.09"/><line class="cls-3" x1="65.45" y1="29.86" x2="62.06" y2="26.47"/><line class="cls-3" x1="72.2" y1="23.11" x2="68.81" y2="19.72"/><line class="cls-3" x1="39.93" y1="38.47" x2="36.54" y2="35.08"/><line class="cls-3" x1="36.56" y1="41.84" x2="33.17" y2="38.45"/><line class="cls-3" x1="43.31" y1="35.09" x2="39.93" y2="31.72"/><rect class="cls-12" x="50.53" y="28.43" width="4.5" height="4.5" rx="1" ry="1"/></svg>