<?xml version="1.0" encoding="UTF-8"?>
<svg id="bc84ef63-1585-4f95-93d0-835fb734c22a" width="1113.6" height="789.42" data-name="Layer 1" version="1.1" viewBox="0 0 1113.6 789.42" xmlns="http://www.w3.org/2000/svg" xmlns:cc="http://creativecommons.org/ns#" xmlns:dc="http://purl.org/dc/elements/1.1/" xmlns:rdf="http://www.w3.org/1999/02/22-rdf-syntax-ns#" xmlns:xlink="http://www.w3.org/1999/xlink">
 <metadata>
  <rdf:RDF>
   <cc:Work rdf:about="">
    <dc:format>image/svg+xml</dc:format>
    <dc:type rdf:resource="http://purl.org/dc/dcmitype/StillImage"/>
    <dc:title>segmentation</dc:title>
   </cc:Work>
  </rdf:RDF>
 </metadata>
 <defs>
  <linearGradient id="107a1a39-95ac-41fb-b953-4f2009584ec5" x1="578" x2="578" y1="679" y2="135" gradientUnits="userSpaceOnUse">
   <stop stop-color="gray" stop-opacity=".25" offset="0"/>
   <stop stop-color="gray" stop-opacity=".12" offset=".54"/>
   <stop stop-color="gray" stop-opacity=".1" offset="1"/>
  </linearGradient>
  <linearGradient id="67bc0fa3-d0f5-4760-a2c4-a2c72c43dbed" x1="806" x2="806" y1="467.16" y2="337.16" xlink:href="#107a1a39-95ac-41fb-b953-4f2009584ec5"/>
  <linearGradient id="395a0587-675e-40ff-8527-ba4e6064d500" x1="956.92" x2="956.92" y1="706.81" y2="214.37" xlink:href="#107a1a39-95ac-41fb-b953-4f2009584ec5"/>
 </defs>
 <title>segmentation</title>
 <path transform="translate(-43.2 -53.53)" d="M1090.2,515.28C1051,569,1064,645.68,1086.6,706.77c7.58,20.45,16.19,42.08,12.26,64.33-4.8,27.2-27.36,47.58-50.81,58.68-42.75,20.23-93.25,17-131.49-8.49-33-22-56.23-58.56-89.87-79.51-56.3-35.05-129.39-19.39-192.05,7.37-44.33,18.93-92.89,43.31-136.09,25.83-30.4-12.3-50.87-43.61-61.64-77.08-5.2-16.16-8.84-33.7-19.2-46.35-6.16-7.52-14.3-12.76-22.67-17.14-76.39-40-174.65-15-248.71-59.63-50-30.14-81.12-88.63-94.05-150.12s-9.73-126.4-4.58-190.2c3.66-45.34,9.45-93.79,36.71-129.42,28.83-37.68,77.15-52.66,120.36-46.75s81.94,29.94,115.84,58.54C363,152.59,402,197.46,454.72,211c35.91,9.24,74.06,2.7,111.39-.19,62.4-4.82,124.58.73,186.38,7,59.16,6,118.73,12.7,174.76,32.37,39.65,13.92,71.08,40.23,108.41,58.21,24.33,11.72,51.1,14.44,74,29.58,28.26,18.65,53.8,51.69,45.51,91.34C1147.34,467,1111,486.77,1090.2,515.28Z" fill="#2d2c2c"/>
 <path transform="translate(-43.2 -53.53)" d="m181.52 636.79c-4.54 9.21 2 19.15-0.29 28.66-2.84 12-19.13 21.34-36.68 27.3s-37.15 9.58-54.26 16c-7.4 2.77-15.11 7.88-11.26 12.58 1.33 1.63 3.83 2.77 6.26 3.84 49.82 21.76 111.41 33.58 173 33.2 65.08-0.41 128.82-14 193.85-12.44 83.88 2 165 29.06 247.93 21.26 35.21-3.31 67.92-12.75 102.19-18.64 50.42-8.67 103.45-9.54 155.66-12.39 39.21-2.14 84-7.69 102.75-28.55 13.54-15.08 7.86-35-11.22-47.77s-49.56-18.23-77.73-15.75c-15.14 1.33-30.19 4.78-45.32 3.41-8.79-0.8-16.93-3.18-24.92-5.52-62-18.2-126.29-36.36-195.15-39-112.05-4.33-215.81 32.55-324.92 48.5-17 2.48-35.44 4.39-51.49 0.23-16.92-4.39-28-14.76-44.93-19.13-8-2.08-17-2.68-24.91-4.94-21.73-6.22-11.67-14.77-41.78-9-15.8 3.01-31.71 7.87-36.78 18.15z" fill="#2d2c2c"/>
 <path transform="translate(-43.2 -53.53)" d="M759.52,329.61S834,212.53,843,162.53s26-96,26-96" fill="none" stroke="#535461" stroke-miterlimit="10" stroke-width="2"/>
 <path transform="translate(-43.2 -53.53)" d="m886 166.53-47 4s25 43 47-4z" fill="#6c63ff"/>
 <path transform="translate(-43.2 -53.53)" d="M804,140.53l37.22,29.81S793,189.53,804,140.53Z" fill="#6c63ff"/>
 <g fill="#92b06a">
  <path transform="translate(-43.2 -53.53)" d="m892 125.53-42.32 5.67s37.32 30.33 42.32-5.67z"/>
  <path transform="translate(-43.2 -53.53)" d="M822,110.53l27.94,19.61S816,144.53,822,110.53Z"/>
  <path transform="translate(-43.2 -53.53)" d="m860.31 92.72s34.69-9.19 39.69-7.19 2 24-12 25-27.69-17.81-27.69-17.81z"/>
  <path transform="translate(-43.2 -53.53)" d="m837 66.53s22 21 23 26-18 17-28 0 5-26 5-26z"/>
 </g>
 <circle cx="834.8" cy="15" r="10" fill="#e19d29"/>
 <circle cx="816.8" cy="10" r="10" fill="#e19d29"/>
 <path transform="translate(-43.2 -53.53)" d="M206.26,672.09s-31.82-83.52-6.81-148.75c10.5-27.38,12.36-57.34,4.34-85.55A227.74,227.74,0,0,0,188.71,399" fill="none" stroke="#535461" stroke-miterlimit="10" stroke-width="2"/>
 <g fill="#6c63ff">
  <path transform="translate(-43.2 -53.53)" d="M204.22,357.76c.81,10.48-15.79,42.33-15.79,42.33s-21.33-28.9-22.14-39.38a19,19,0,0,1,37.94-2.95Z"/>
  <path transform="translate(-43.2 -53.53)" d="m240.08 413.35c-5 9.24-36.26 26.95-36.26 26.95s-2.19-35.85 2.82-45.09a19 19 0 0 1 33.45 18.14z"/>
  <path transform="translate(-43.2 -53.53)" d="m246.42 512.61c-9 5.44-44.9 5-44.9 5s16.21-32.06 25.19-37.5a19 19 0 0 1 19.71 32.55z"/>
  <path transform="translate(-43.2 -53.53)" d="m234.3 588.8c-7.94 6.88-43.42 12.47-43.42 12.47s10.56-34.34 18.49-41.22a19 19 0 1 1 24.93 28.75z"/>
  <path transform="translate(-43.2 -53.53)" d="m164.15 445.42c8.08 6.72 43.67 11.56 43.67 11.56s-11.27-34.11-19.36-40.82a19 19 0 0 0-24.32 29.26z"/>
  <path transform="translate(-43.2 -53.53)" d="m151.11 534.7c9.72 4 45.13-2 45.13-2s-21-29.17-30.68-33.16a19 19 0 0 0-14.45 35.2z"/>
  <path transform="translate(-43.2 -53.53)" d="m150.34 623.21c8.91 5.57 44.83 5.62 44.83 5.62s-15.74-32.3-24.64-37.83a19 19 0 0 0-20.19 32.25z"/>
 </g>
 <g fill="#92b06a">
  <path d="m161.02 304.23c0.81 10.48-15.79 42.33-15.79 42.33s-21.33-28.9-22.14-39.38a19.027 19.027 0 0 1 37.94-2.95z"/>
  <path transform="translate(-43.2 -53.53)" d="M204.22,357.76c.81,10.48-15.79,42.33-15.79,42.33s-21.33-28.9-22.14-39.38a19,19,0,0,1,37.94-2.95Z"/>
  <path d="m196.88 359.82c-5 9.24-36.26 26.95-36.26 26.95s-2.19-35.85 2.82-45.09a19.026 19.026 0 0 1 33.45 18.14z"/>
  <path transform="translate(-43.2 -53.53)" d="m240.08 413.35c-5 9.24-36.26 26.95-36.26 26.95s-2.19-35.85 2.82-45.09a19 19 0 0 1 33.45 18.14z"/>
  <path d="m203.22 459.08c-9 5.44-44.9 5-44.9 5s16.21-32.06 25.19-37.5a19.026 19.026 0 0 1 19.71 32.55z"/>
  <path transform="translate(-43.2 -53.53)" d="m246.42 512.61c-9 5.44-44.9 5-44.9 5s16.21-32.06 25.19-37.5a19 19 0 0 1 19.71 32.55z"/>
  <path d="m191.1 535.27c-7.94 6.88-43.42 12.47-43.42 12.47s10.56-34.34 18.49-41.22a19.027 19.027 0 1 1 24.93 28.75z"/>
  <path transform="translate(-43.2 -53.53)" d="m234.3 588.8c-7.94 6.88-43.42 12.47-43.42 12.47s10.56-34.34 18.49-41.22a19 19 0 1 1 24.93 28.75z"/>
  <path d="m120.95 391.89c8.08 6.72 43.67 11.56 43.67 11.56s-11.27-34.11-19.36-40.82a19.024 19.024 0 0 0-24.32 29.26z"/>
  <path transform="translate(-43.2 -53.53)" d="m164.15 445.42c8.08 6.72 43.67 11.56 43.67 11.56s-11.27-34.11-19.36-40.82a19 19 0 0 0-24.32 29.26z"/>
  <path d="m107.91 481.17c9.72 4 45.13-2 45.13-2s-21-29.17-30.68-33.16a19.025 19.025 0 0 0-14.45 35.2z"/>
  <path transform="translate(-43.2 -53.53)" d="m151.11 534.7c9.72 4 45.13-2 45.13-2s-21-29.17-30.68-33.16a19 19 0 0 0-14.45 35.2z"/>
  <path d="m107.14 569.68c8.91 5.57 44.83 5.62 44.83 5.62s-15.74-32.3-24.64-37.83a19.024 19.024 0 0 0-20.19 32.25z"/>
  <path transform="translate(-43.2 -53.53)" d="m150.34 623.21c8.91 5.57 44.83 5.62 44.83 5.62s-15.74-32.3-24.64-37.83a19 19 0 0 0-20.19 32.25z"/>
 </g>
 <path transform="translate(-43.2 -53.53)" d="m269 657.05s-24.14-2.91-31-8.75-36.21-14.72-38.77-6.55-40.07 38.18-12.77 40.85 63.91 1.4 71.54-2.38 11-23.17 11-23.17z" fill="#a8a8a8"/>
 <path transform="translate(-43.2 -53.53)" d="m186.27 679.65c27.31 2.66 63.87 1.41 71.55-2.37 5.85-2.88 9.14-14.8 10.38-20.33l0.81 0.1s-3.28 19.38-11 23.17-44.24 5-71.55 2.37c-7.88-0.77-10.36-3.82-9.84-8 0.91 2.65 3.78 4.49 9.65 5.06z" opacity=".2"/>
 <path transform="translate(-43.2 -53.53)" d="M904.45,135H251.55A25.53,25.53,0,0,0,226,160.5V541a25.53,25.53,0,0,0,25.55,25.5H514.47v93.77H489.73a6.1,6.1,0,0,0-6.1,6.09V679H675.51V666.34a6.1,6.1,0,0,0-6.1-6.09H637.82V566.47H904.45A25.53,25.53,0,0,0,930,541V160.5A25.53,25.53,0,0,0,904.45,135Z" fill="url(#107a1a39-95ac-41fb-b953-4f2009584ec5)"/>
 <g>
  <rect x="472.88" y="495.18" width="121.27" height="117.02" fill="#2d2c2c"/>
  <rect x="490.57" y="502.2" width="121.27" height="117.02" fill="#3e3e3e"/>
  <rect x="461.32" y="504.54" width="121.27" height="117.02" fill="#3e3e3e"/>
 </g>
 <rect x="472.88" y="601.82" width="121.27" height="10.38" opacity=".1"/>
 <path d="m448.56 603h176.65a6 6 0 0 1 6 6v12.48h-188.65v-12.48a6 6 0 0 1 6-6z" fill="#3e3e3e"/>
 <rect x="189.27" y="85.47" width="692.15" height="425.1" rx="25.12" ry="25.12" fill="#3e3e3e"/>
 <rect x="203.84" y="135.12" width="661.55" height="347.28" fill="#fff"/>
 <ellipse cx="534.62" cy="117.18" rx="5.83" ry="5.76" fill="#fff"/>
 <rect x="473.14" y="510.86" width="120.89" height="2.28" opacity=".1"/>
 <path transform="translate(-43.2 -53.53)" d="M617.94,269.75a138,138,0,0,0,49.5,238.79L706,376Z" fill="#d6d6e3"/>
 <path transform="translate(-43.2 -53.53)" d="M709,238a137.43,137.43,0,0,0-88.06,31.75L709,376l72.92-117.17A137.34,137.34,0,0,0,709,238Z" fill="#d6d6e3"/>
 <g>
  <path transform="translate(-43.2 -53.53)" d="M709,376,670.44,508.53A138.08,138.08,0,0,0,847,378.43Z" fill="#eb7260" opacity=".8"/>
  <rect x="262.8" y="255.47" width="50" height="30" fill="#29aba4"/>
  <rect x="262.8" y="307.47" width="50" height="30" fill="#eb7260"/>
  <rect x="262.8" y="359.47" width="50" height="30" fill="#3a9ad9"/>
 </g>
 <g fill="#d6d6e3">
  <rect x="339.8" y="264.47" width="94" height="12"/>
  <rect x="339.8" y="316.47" width="94" height="12"/>
  <rect x="339.8" y="368.47" width="94" height="12"/>
  <rect x="203.8" y="134.47" width="662" height="12"/>
 </g>
 <circle cx="211.8" cy="140.47" r="3" fill="#fc6681"/>
 <circle cx="219.8" cy="140.47" r="3" fill="#ffc74c"/>
 <circle cx="227.8" cy="140.47" r="3" fill="#85d459"/>
 <path transform="translate(-43.2 -53.53)" d="m954.93 594.55s4.77 6.24-2.2 15.66-12.72 17.37-10.4 23.25c0 0 10.52-17.5 19.09-17.74s2.94-10.65-6.49-21.17z" fill="#92b06a"/>
 <path transform="translate(-43.2 -53.53)" d="m954.93 594.55a7.73 7.73 0 0 1 1 2c8.36 9.82 12.81 19 4.78 19.21-7.48 0.21-16.46 13.59-18.61 17a7.25 7.25 0 0 0 0.25 0.77s10.52-17.5 19.09-17.74 2.92-10.72-6.51-21.24z" opacity=".1"/>
 <g>
  <path transform="translate(-43.2 -53.53)" d="M963.8,602.5c0,2.2-.25,4-.55,4s-.55-1.78-.55-4,.31-1.16.61-1.16S963.8,600.3,963.8,602.5Z" fill="#e19d29"/>
  <path transform="translate(-43.2 -53.53)" d="m966.85 605.12c-1.93 1.05-3.61 1.69-3.75 1.42s1.3-1.34 3.23-2.39 1.17-0.29 1.31 0 1.14-0.08-0.79 0.97z" fill="#e19d29"/>
  <path transform="translate(-43.2 -53.53)" d="m929.73 594.55s-4.77 6.24 2.2 15.66 12.72 17.37 10.4 23.25c0 0-10.52-17.5-19.09-17.74s-2.93-10.65 6.49-21.17z" fill="#92b06a"/>
 </g>
 <path transform="translate(-43.2 -53.53)" d="m929.73 594.55a7.73 7.73 0 0 0-1 2c-8.36 9.82-12.81 19-4.78 19.21 7.48 0.21 16.46 13.59 18.61 17a7.25 7.25 0 0 1-0.25 0.77s-10.52-17.5-19.09-17.74-2.91-10.72 6.51-21.24z" opacity=".1"/>
 <path transform="translate(-43.2 -53.53)" d="M920.86,602.5c0,2.2.25,4,.55,4s.55-1.78.55-4-.31-1.16-.61-1.16S920.86,600.3,920.86,602.5Z" fill="#e19d29"/>
 <path transform="translate(-43.2 -53.53)" d="m917.82 605.12c1.93 1.05 3.61 1.69 3.75 1.42s-1.3-1.34-3.23-2.39-1.17-0.29-1.31 0-1.14-0.08 0.79 0.97z" fill="#e19d29"/>
 <path transform="translate(-43.2 -53.53)" d="m975 634.88s-13.12-2.62-16.62-6.12-19.25-9.62-21-5.25-23.62 19.25-8.75 21.87 35 3.5 39.37 1.75 7-12.25 7-12.25z" fill="#a8a8a8"/>
 <path transform="translate(-43.2 -53.53)" d="m928.63 643.75c14.87 2.62 35 3.5 39.37 1.75 3.33-1.33 5.65-7.73 6.56-10.71l0.44 0.09s-2.62 10.5-7 12.25-24.5 0.87-39.37-1.75c-4.29-0.76-5.52-2.54-5.06-4.79 0.37 1.46 1.87 2.6 5.06 3.16z" opacity=".2"/>
 <path transform="translate(-43.2 -53.53)" d="m881 464.51a149.89 149.89 0 0 0-70.74-127.36l-79.26 127.36 150 2.64v-2.64z" fill="url(#67bc0fa3-d0f5-4760-a2c4-a2c72c43dbed)"/>
 <path transform="translate(-43.2 -53.53)" d="m875 459.53a137.9 137.9 0 0 0-65.08-117.17l-72.92 117.17 138 2.47v-2.47z" fill="#eb7260"/>
 <path transform="translate(-43.2 -53.53)" d="M1076,314.66q0-.58-.11-1.11t-.2-1.22q-.22-1.2-.49-2.32-.14-.56-.29-1.1a29.76,29.76,0,0,0-5.79-11.28l-.47-.54q-.47-.52-.92-1t-.89-.86c-.29-.27-.58-.52-.85-.75-.55-.46-1.06-.84-1.52-1.16s-.65-.44-.92-.6a5.11,5.11,0,0,0-2.16-.72l-4.76-.48h0l-6.44-.64-23.26-9.18-.92.33a55.33,55.33,0,0,1-1.72-5.81,5.18,5.18,0,0,0,1.84-1.36,4.26,4.26,0,0,0,1.26-1.65c.58-1.37-.54-4.31-.31-6,.37-2.69,1.75-5.29,2.86-7.73,2.39-5.24,4.13-10.92,3.85-16.67s-2.86-11.59-7.64-14.8c-2.47-1.66-5.38-2.55-7.94-4.07-2-1.18-3.76-2.72-5.67-4.05a32.08,32.08,0,0,0-32-2.33c-4.83,2.42-8.95,6-13.51,8.94s-9.93,5.13-15.26,4.28a3.52,3.52,0,0,0-.16.67l-.45-.06c-.92,2.55,1.33,5.06,3.41,6.8,3.94,3.3,8.4,6.59,13.54,6.71,2,0,4.08-.38,5.89.45a5.25,5.25,0,0,1,1.1.7A26.31,26.31,0,0,0,983.06,272l-11.87-4.34s-.5.26-1.26.75l-16.49-11.15S920.39,245,911.21,264,951,273.15,951,273.15L961.48,279a9.86,9.86,0,0,0,1.15,6.38l28.57,17.95c-5.77,1.81-15.26,4.7-16.94,4.7-2.45,0-9.18,2.45-13.47,12.24s-19.59,57.54-33.05,65.49-49,61.21-49,61.21l.16.42q-.95.25-1.86.56c-8.88,2.94-14.86,9.13-18.45,14.15a6,6,0,0,0,4.14,9.46c14,1.8,21.67-4.76,25.35-9.72.24-.32.46-.64.67-.94a4.85,4.85,0,0,0,3.46.16L909.37,447S896,460.4,903.82,472.63l-.6.85A196.33,196.33,0,0,0,874.48,537s-7.35,5.51-8,27.54-8,57.54-8,57.54-4.9,42.23-1.84,55.09c0,0,.35.51,1,1.29-.23.28-.48.57-.76.88-2.67,2.93-7.49,7-13.1,5.78-8.57-1.84-8.57,13.47,3.67,14.69,7.88.79,23.38,4.37,33.41,6.82a7.08,7.08,0,0,0,8.73-7.63c-.6-5.48-1.69-12.12-3.67-16.84-.12-.29-.25-.58-.38-.86.36-.34.72-.69,1.08-1.07,0,0,0-26.93,4.28-34.28,0,0,11.63-55.7,11-69.78-.48-11,30.17-53.91,43.51-72l-.11-.69C948.83,498.8,951,496,951,496l10.41,66.72s4.9,14.69,11,22.65c0,0,26.32,50.8,29.38,66.72,2.32,12.07,7.1,19.2,9.28,21.95-.25.26-.52.52-.8.78-2.78,2.6-6.9,5.2-11.54,4.21-8.57-1.84-8.57,13.47,3.67,14.69,7.88.79,23.38,4.37,33.41,6.82a7.08,7.08,0,0,0,8.73-7.63c-.69-6.37-2.06-14.29-4.7-19q-.34-.59-.7-1.11a6.47,6.47,0,0,0,2.43-1.74s-15.91-38.56-15.91-49c0,0-6.73-39.79-29.38-54.48,0,0,2.14-49.76,8.59-77.45q.24-1,.49-2a179.34,179.34,0,0,0,17.86-3.78l.61-18.36,3.06,14.69,34.28-21.42s-.3-3.86-.88-9.78c-.29-3-.65-6.43-1.08-10.2-.34-3-.73-6.21-1.16-9.48q-.16-1.23-.33-2.46c-.45-3.3-.94-6.64-1.47-9.9q-.3-1.84-.62-3.64c-.28-1.6-.57-3.17-.87-4.69q-.23-1.14-.46-2.25t-.47-2.18q-.24-1.07-.49-2.09l-.25-1q-.25-1-.51-1.94a35.59,35.59,0,0,1-1.24-8q-.06-1.62,0-3.23t.3-3.22q.11-.8.26-1.6a36.87,36.87,0,0,1,1.74-6.25q.57-1.53,1.28-3c1.11-2.31,2.3-4.82,3.52-7.46q.92-2,1.86-4.05t1.88-4.2c6-13.49,11.84-28.53,13.41-38.41.17-1,.28-2,.35-2.94A20,20,0,0,0,1076,314.66Z" fill="url(#395a0587-675e-40ff-8527-ba4e6064d500)"/>
 <path transform="translate(-43.2 -53.53)" d="m973.73 277-20.19-13.66s-32.06-11.87-41 6.53 38.59 8.91 38.59 8.91l20.19 11.28z" fill="#f7bbc3"/>
 <path transform="translate(-43.2 -53.53)" d="m1033.4 693.27c-9.74-2.37-24.76-5.85-32.41-6.61-11.87-1.19-11.87-16-3.56-14.25 4.51 1 8.5-1.56 11.2-4.08a26.22 26.22 0 0 0 2.36-2.52 6.86 6.86 0 0 1 3.84-2.35c4.45-1 13.72-2.44 19.42 0.63a8.38 8.38 0 0 1 3.07 3.37c2.56 4.54 3.89 12.22 4.56 18.4a6.87 6.87 0 0 1-8.48 7.41z" fill="#9b539c"/>
 <path transform="translate(-43.2 -53.53)" d="M883.25,699.21c-9.74-2.37-24.76-5.85-32.41-6.61-11.87-1.19-11.87-16-3.56-14.25,5.44,1.17,10.12-2.76,12.71-5.6.31-.35.6-.68.85-1a6.86,6.86,0,0,1,3.84-2.35c4.45-1,13.72-2.44,19.42.63,1.67.9,3,2.88,4.07,5.43,1.92,4.58,3,11,3.56,16.34A6.87,6.87,0,0,1,883.25,699.21Z" fill="#9b539c"/>
 <path transform="translate(-43.2 -53.53)" d="m888.15 675.46c-14.18 14.61-26.33-0.27-28.17-2.73 0.31-0.35 0.6-0.68 0.85-1a6.86 6.86 0 0 1 3.84-2.35c4.45-1 13.72-2.44 19.42 0.63 1.66 0.92 3 2.9 4.06 5.45z" opacity=".1"/>
 <path transform="translate(-43.2 -53.53)" d="m1037.4 667.46c-6.14 4.2-26.82 3.16-26.82 3.16a20.34 20.34 0 0 1-1.86-2.3 26.22 26.22 0 0 0 2.36-2.52 6.86 6.86 0 0 1 3.84-2.35c4.45-1 13.72-2.44 19.42 0.63a8.38 8.38 0 0 1 3.06 3.38z" opacity=".1"/>
 <path transform="translate(-43.2 -53.53)" d="m1038.4 664.69c-4.16 5.34-27.9 4.16-27.9 4.16s-7.12-7.12-10.09-22.56-28.45-64.72-28.45-64.72c-5.94-7.72-10.69-22-10.69-22l-10.09-64.71s-48.73 64.14-48.14 77.81-10.69 67.68-10.69 67.68c-4.16 7.12-4.16 33.25-4.16 33.25-15.44 16-28.5-3-28.5-3-3-12.47 1.78-53.43 1.78-53.43s7.12-34.43 7.72-55.81 7.77-26.69 7.77-26.69a190.43 190.43 0 0 1 27.88-61.58c3.59-5.14 6-7.88 6-7.88l96.12 11.28a60.73 60.73 0 0 0-4.14 12.74c-6.25 26.86-8.33 75.13-8.33 75.13 22 14.25 28.5 52.84 28.5 52.84-0.03 10.09 15.41 47.49 15.41 47.49z" fill="#657786"/>
 <g opacity=".05">
  <path transform="translate(-43.2 -53.53)" d="m945.87 502.8-1.23-7.91s-48.64 64.11-48.09 77.78-10.69 67.68-10.69 67.68c-4.16 7.12-4.16 33.25-4.16 33.25a20.37 20.37 0 0 1-9.29 6c4.68 1.23 10.36 0.33 16.42-6 0 0 0-26.12 4.16-33.25 0 0 11.28-54 10.69-67.68-0.47-10.67 29.26-52.3 42.19-69.87z"/>
  <path transform="translate(-43.2 -53.53)" d="m1023.6 617.19s-6.53-38.59-28.5-52.84c0 0 2.08-48.26 8.33-75.13a60.73 60.73 0 0 1 4.14-12.74l-96.18-11.28-0.63 0.76 89.69 10.52a60.73 60.73 0 0 0-4.14 12.74c-6.25 26.86-8.33 75.13-8.33 75.13 22 14.25 28.5 52.84 28.5 52.84 0 10.09 15.44 47.5 15.44 47.5-2.45 3.15-11.71 4-18.89 4.22 5.7 0.15 22.58 0.2 26-4.22-0.03 0-15.43-37.4-15.43-47.5z"/>
 </g>
 <path transform="translate(-43.2 -53.53)" d="m893 456.89a21.5 21.5 0 0 1-2.81 4.92c-3.57 4.81-11 11.17-24.59 9.43a5.84 5.84 0 0 1-4-9.18c3.49-4.86 9.29-10.87 17.9-13.72a32.25 32.25 0 0 1 7.58-1.54z" fill="#f7bbc3"/>
 <path transform="translate(-43.2 -53.53)" d="m1018.4 290.86-47.61-17.41s-13.66 7.12-8.31 17.22l46.31 29.09z" fill="#d9d9ea"/>
 <path transform="translate(-43.2 -53.53)" d="m1018.4 290.86-47.61-17.41s-13.66 7.12-8.31 17.22l46.31 29.09z" fill="#3e3e3e"/>
 <path transform="translate(-43.2 -53.53)" d="m1020 262.16s-0.59 27.9 11.87 37.4-36.22 14.84-36.22 14.84 7.72-28.5 0-43.34 24.35-8.9 24.35-8.9z" fill="#f7bbc3"/>
 <path transform="translate(-43.2 -53.53)" d="M1007,476.49a60.73,60.73,0,0,0-4.14,12.74c-57.42,8.77-97.38-15.12-97.38-15.12-.22-.34-.43-.69-.62-1,3.59-5.14,6-7.88,6-7.88Z" opacity=".1"/>
 <path transform="translate(-43.2 -53.53)" d="M893,456.89a21.5,21.5,0,0,1-2.81,4.92c-5.5-.91-9.89-11.42-10.7-13.47a32.25,32.25,0,0,1,7.58-1.54Z" opacity=".1"/>
 <path transform="translate(-43.2 -53.53)" d="m1024.8 287.1-21.37 7.72-8.91 11.87s-18.4 5.94-20.78 5.94-8.91 2.37-13.06 11.87-19 55.81-32.06 63.53-47.5 59.37-47.5 59.37 5.94 16 13.06 13.66l16.63-13.66s-13.06 13.06-5.34 24.94c0 0 48.68 29.09 115.77 11.28l0.59-17.81 3 14.25 33.18-20.79s-3-38.32-8.34-57.83a35.24 35.24 0 0 1 2.29-24.57c8.62-18 21.92-48 20.3-58.91-1.91-12.89-9.2-18.49-12-20.19a5 5 0 0 0-2.09-0.69l-10.81-1.08z" fill="#3e3e3e"/>
 <path transform="translate(-43.2 -53.53)" d="m988.28 346.76s-11.88 55.24-24.94 64.12-48.09 37.4-49.28 42.15" opacity=".05"/>
 <path transform="translate(-43.2 -53.53)" d="m982.93 345s-11.87 55.2-24.93 64.1-48.09 37.4-49.28 42.15" fill="#2d2c2c"/>
 <path transform="translate(-43.2 -53.53)" d="m994.21 306.39s41-13.66 52.84-10.09" opacity=".1"/>
 <g opacity=".05">
  <path transform="translate(-43.2 -53.53)" d="M1052,376.88c8.62-18,21.92-48,20.3-58.91-1.91-12.89-9.2-18.49-12-20.19a5,5,0,0,0-2.09-.69l-4.62-.46a4.88,4.88,0,0,1,1.37.56c2.78,1.7,10.07,7.29,12,20.19,1.62,10.94-11.68,40.94-20.3,58.91a35.24,35.24,0,0,0-2.29,24.57c5.36,19.5,8.34,57.83,8.34,57.83l-28.63,17.89.73,3.48L1058,459.27s-3-38.32-8.34-57.83A35.24,35.24,0,0,1,1052,376.88Z"/>
  <polygon points="998.81 241.88 1004 242.4 981.59 233.57 979.59 234.29"/>
 </g>
 <path transform="translate(-43.2 -53.53)" d="M982.93,402.57s18.4-10.09,24.34-7.72,27.9-.59,27.9-.59" opacity=".05"/>
 <path transform="translate(-43.2 -53.53)" d="m1018 269.58c-0.68-6 2.08-5 2.08-5s-32.08-5.98-24.38 8.86a34.2 34.2 0 0 1 3.3 13.06h0.3c8.9 0 14.1-9.96 18.7-16.92z" opacity=".05"/>
 <circle cx="956.06" cy="205.07" r="25.53" fill="#f7bbc3"/>
 <path transform="translate(-43.2 -53.53)" d="M1027.12,266.15c2.32-5.08,4-10.59,3.73-16.17s-2.78-11.24-7.41-14.36c-2.4-1.61-5.22-2.48-7.7-3.95-1.94-1.15-3.65-2.64-5.5-3.93a31.12,31.12,0,0,0-31.08-2.26c-4.69,2.35-8.68,5.85-13.1,8.67s-9.63,5-14.81,4.15c-.89,2.47,1.29,4.91,3.31,6.6,3.82,3.2,8.15,6.4,13.13,6.51,1.93,0,4-.37,5.71.44a8.2,8.2,0,0,1,2.92,2.71,53.06,53.06,0,0,1,6.05,10.27c.67,1.49,1.34,3.11,2.71,4,2.29,1.47,5.27.25,8,.14,4.23-.16,8,2.5,11.16,5.34s6.11,6.1,10.06,7.6c3,1.12,8.85,1.08,10.35-2.44.57-1.33-.52-4.18-.3-5.8C1024.7,271,1026,268.52,1027.12,266.15Z" opacity=".1"/>
 <path transform="translate(-43.2 -53.53)" d="m1027.7 265.56c2.32-5.08 4-10.59 3.73-16.17s-2.78-11.24-7.41-14.36c-2.4-1.61-5.22-2.48-7.7-3.95-1.94-1.15-3.65-2.64-5.5-3.93a31.12 31.12 0 0 0-31.08-2.26c-4.69 2.35-8.68 5.85-13.1 8.67s-9.63 5-14.81 4.15c-0.89 2.47 1.29 4.91 3.31 6.6 3.82 3.2 8.15 6.4 13.13 6.51 1.93 0 4-0.37 5.71 0.44a8.2 8.2 0 0 1 2.92 2.71 53.06 53.06 0 0 1 6.09 10.26c0.67 1.49 1.34 3.11 2.71 4 2.29 1.47 5.27 0.25 8 0.14 4.23-0.16 8 2.5 11.16 5.34s6.11 6.1 10.06 7.6c3 1.12 8.85 1.08 10.35-2.44 0.57-1.33-0.52-4.18-0.3-5.8 0.31-2.63 1.65-5.15 2.73-7.51z" fill="#2d2c2c"/>
</svg>
