<svg id="Layer_1" data-name="Layer 1" xmlns="http://www.w3.org/2000/svg" viewBox="0 0 100 100"><defs><style>.cls-1{fill:#f0f2ff;}.cls-11,.cls-2,.cls-6,.cls-8{fill:none;}.cls-2{stroke:#4550e5;}.cls-14,.cls-15,.cls-18,.cls-19,.cls-2,.cls-20,.cls-21,.cls-22,.cls-24,.cls-25,.cls-26,.cls-6,.cls-8,.cls-9{stroke-linecap:round;}.cls-11,.cls-14,.cls-15,.cls-18,.cls-19,.cls-2,.cls-20,.cls-21,.cls-22,.cls-24,.cls-25,.cls-26,.cls-8,.cls-9{stroke-linejoin:round;}.cls-3{fill:#e8f4fa;}.cls-19,.cls-4{fill:#adc4d9;}.cls-5{opacity:0.5;}.cls-6{stroke:#8ca4b8;stroke-miterlimit:10;}.cls-22,.cls-7{fill:#c0dceb;}.cls-11,.cls-14,.cls-15,.cls-18,.cls-19,.cls-20,.cls-21,.cls-22,.cls-24,.cls-25,.cls-26,.cls-8,.cls-9{stroke:#45413c;}.cls-9{fill:#bdbec0;}.cls-10{fill:#fff;}.cls-12{fill:#fff2e8;}.cls-13{fill:#ffe3cf;}.cls-14{fill:#daedf7;}.cls-15{fill:#e0e0e0;}.cls-16{fill:#00b8f0;}.cls-17{fill:#4acfff;}.cls-18{fill:#f0f0f0;}.cls-20{fill:#6dd627;}.cls-21{fill:#ffe500;}.cls-23{fill:#020202;opacity:0.15;}.cls-24{fill:#ff6242;}.cls-25{fill:#656769;}.cls-26{fill:#e04122;}</style></defs><title>notre-dame</title><path class="cls-1" d="M90,50A40,40,0,1,0,13.56,66.5H86.44A39.85,39.85,0,0,0,90,50Z"/><line class="cls-2" x1="11" y1="66.5" x2="89" y2="66.5"/><line class="cls-2" x1="6.5" y1="66.5" x2="9" y2="66.5"/><line class="cls-2" x1="91" y1="66.5" x2="93.5" y2="66.5"/><g id="_Group_" data-name="&lt;Group&gt;"><circle class="cls-3" cx="50" cy="50" r="40"/><path class="cls-4" d="M13.56,66.5a40,40,0,0,0,72.88,0Z"/><g class="cls-5"><path class="cls-6" d="M80,73.61a3.79,3.79,0,0,0-6,0"/><path class="cls-6" d="M74,73.61a3.78,3.78,0,0,0-5.94,0"/><path class="cls-6" d="M68,73.61a3.79,3.79,0,0,0-5.95,0"/><path class="cls-6" d="M62,73.61a3.78,3.78,0,0,0-5.94,0"/><path class="cls-6" d="M56,73.61a3.79,3.79,0,0,0-5.95,0"/><path class="cls-6" d="M50,73.61a3.79,3.79,0,0,0-5.95,0"/><path class="cls-6" d="M44,73.61a3.78,3.78,0,0,0-5.94,0"/><path class="cls-6" d="M38,73.61a3.79,3.79,0,0,0-6,0"/><path class="cls-6" d="M32,73.61a3.78,3.78,0,0,0-5.94,0"/><path class="cls-6" d="M26,73.61a3.79,3.79,0,0,0-5.95,0"/><path class="cls-6" d="M74,77.46a3.78,3.78,0,0,0-5.94,0"/><path class="cls-6" d="M68,77.46a3.79,3.79,0,0,0-5.95,0"/><path class="cls-6" d="M62,77.46a3.78,3.78,0,0,0-5.94,0"/><path class="cls-6" d="M56,77.46a3.79,3.79,0,0,0-5.95,0"/><path class="cls-6" d="M50,77.46a3.79,3.79,0,0,0-5.95,0"/><path class="cls-6" d="M44,77.46a3.78,3.78,0,0,0-5.94,0"/><path class="cls-6" d="M38,77.46a3.79,3.79,0,0,0-6,0"/><path class="cls-6" d="M32,77.46a3.78,3.78,0,0,0-5.94,0"/><path class="cls-6" d="M68,81.31a3.79,3.79,0,0,0-5.95,0"/><path class="cls-6" d="M62,81.31a3.78,3.78,0,0,0-5.94,0"/><path class="cls-6" d="M56,81.31a3.79,3.79,0,0,0-5.95,0"/><path class="cls-6" d="M50,81.31a3.79,3.79,0,0,0-5.95,0"/><path class="cls-6" d="M44,81.31a3.78,3.78,0,0,0-5.94,0"/><path class="cls-6" d="M38,81.31a3.79,3.79,0,0,0-6,0"/><path class="cls-6" d="M62,85.17a3.77,3.77,0,0,0-5.94,0"/><path class="cls-6" d="M56,85.17a3.78,3.78,0,0,0-5.95,0"/><path class="cls-6" d="M50,85.17a3.78,3.78,0,0,0-5.95,0"/><path class="cls-6" d="M44,85.17a3.77,3.77,0,0,0-5.94,0"/></g><path class="cls-7" d="M86.44,66.5H13.56c.49,1.08,1,2.14,1.61,3.17H84.83C85.41,68.64,86,67.58,86.44,66.5Z"/><line class="cls-8" x1="11" y1="66.5" x2="89" y2="66.5"/><line class="cls-8" x1="6.5" y1="66.5" x2="9" y2="66.5"/><line class="cls-8" x1="91" y1="66.5" x2="93.5" y2="66.5"/></g><path class="cls-9" d="M64.13,39.94l3.59,6.58a5,5,0,0,1,.61,2.39v12l.81.81a2,2,0,0,1,.59,1.41v3.38h-5.6Z"/><line class="cls-8" x1="65.53" y1="58.84" x2="69.03" y2="58.84"/><path class="cls-9" d="M27.73,39.94l-3.59,6.58a5,5,0,0,0-.61,2.39v12l-.82.81a2,2,0,0,0-.58,1.41v3.38h5.6Z"/><path class="cls-10" d="M79,18.67a1.73,1.73,0,0,0-.6.12,2.79,2.79,0,0,0-5.52,0,1.73,1.73,0,0,0-.6-.12,1.69,1.69,0,0,0,0,3.37H79a1.69,1.69,0,1,0,0-3.37Z"/><path class="cls-10" d="M79,18.67a1.73,1.73,0,0,0-.6.12,2.79,2.79,0,0,0-5.52,0,1.73,1.73,0,0,0-.6-.12,1.69,1.69,0,0,0,0,3.37H79a1.69,1.69,0,1,0,0-3.37Z"/><path class="cls-11" d="M79,18.67a1.73,1.73,0,0,0-.6.12,2.79,2.79,0,0,0-5.52,0,1.73,1.73,0,0,0-.6-.12,1.69,1.69,0,0,0,0,3.37H79a1.69,1.69,0,1,0,0-3.37Z"/><polygon class="cls-12" points="52.93 13.34 52.93 30.84 38.93 30.84 38.93 13.34 26.33 13.34 26.33 58.84 27.03 59.53 27.03 62.34 26.33 63.03 26.33 66.53 65.53 66.53 65.53 62.34 64.83 61.63 64.83 59.53 65.53 58.84 65.53 13.34 52.93 13.34"/><path class="cls-11" d="M79,18.67a1.73,1.73,0,0,0-.6.12,2.79,2.79,0,0,0-5.52,0,1.73,1.73,0,0,0-.6-.12,1.69,1.69,0,0,0,0,3.37H79a1.69,1.69,0,1,0,0-3.37Z"/><rect class="cls-13" x="26.33" y="13.33" width="12.6" height="7"/><rect class="cls-13" x="26.33" y="50.05" width="39.2" height="5.75"/><rect class="cls-13" x="26.33" y="36.43" width="39.2" height="2.8"/><rect class="cls-13" x="52.93" y="13.33" width="12.6" height="7"/><polygon class="cls-8" points="52.93 13.34 52.93 30.84 38.93 30.84 38.93 13.34 26.33 13.34 26.33 58.84 27.03 59.53 27.03 62.34 26.33 63.03 26.33 66.53 65.53 66.53 65.53 62.34 64.83 61.63 64.83 59.53 65.53 58.84 65.53 13.34 52.93 13.34"/><rect class="cls-14" x="26.33" y="49.04" width="39.2" height="4.2"/><path class="cls-14" d="M66.28,30.84H25.57a.34.34,0,0,0-.29.53h0a6.22,6.22,0,0,1,1,3.44v1.63h39.2V34.81a6.21,6.21,0,0,1,1-3.44h0A.34.34,0,0,0,66.28,30.84Z"/><path class="cls-15" d="M45.93,56h0a5.55,5.55,0,0,0-3.5,5.16v5.34h7V61.2A5.56,5.56,0,0,0,45.93,56Z"/><path class="cls-9" d="M32.63,57.44h0a5.67,5.67,0,0,0-2.8,5.16v3.94h5.6V62.6A5.69,5.69,0,0,0,32.63,57.44Z"/><path class="cls-9" d="M32.63,39.94h0a5.67,5.67,0,0,0-2.8,5.16V49h5.6V45.1A5.69,5.69,0,0,0,32.63,39.94Z"/><path class="cls-9" d="M59.23,39.94h0a5.67,5.67,0,0,0-2.8,5.16V49H62V45.1A5.69,5.69,0,0,0,59.23,39.94Z"/><path class="cls-9" d="M59.23,57.44h0a5.67,5.67,0,0,0-2.8,5.16v3.94H62V62.6A5.69,5.69,0,0,0,59.23,57.44Z"/><line class="cls-8" x1="38.93" y1="49.04" x2="38.93" y2="58.14"/><line class="cls-8" x1="52.93" y1="49.04" x2="52.93" y2="58.14"/><line class="cls-8" x1="38.93" y1="36.44" x2="38.93" y2="39.94"/><line class="cls-8" x1="52.93" y1="36.44" x2="52.93" y2="39.94"/><path class="cls-15" d="M45.93,38.54h0a5.59,5.59,0,0,0-5.6,5.6V49h11.2v-4.9A5.6,5.6,0,0,0,45.93,38.54Z"/><circle class="cls-16" cx="45.93" cy="44.14" r="3.5"/><path class="cls-17" d="M48.43,41.7a3.44,3.44,0,0,0-2.5-1.06,3.49,3.49,0,0,0-1,6.84Z"/><circle class="cls-8" cx="45.93" cy="44.14" r="3.5"/><line class="cls-8" x1="38.93" y1="60.24" x2="38.93" y2="61.64"/><line class="cls-8" x1="52.93" y1="60.24" x2="52.93" y2="61.64"/><line class="cls-8" x1="32.63" y1="53.24" x2="32.63" y2="49.04"/><line class="cls-8" x1="29.13" y1="53.24" x2="29.13" y2="51.14"/><line class="cls-8" x1="36.13" y1="53.24" x2="36.13" y2="51.14"/><line class="cls-8" x1="45.93" y1="53.24" x2="45.93" y2="49.04"/><line class="cls-8" x1="42.43" y1="53.24" x2="42.43" y2="51.14"/><line class="cls-8" x1="49.43" y1="53.24" x2="49.43" y2="51.14"/><line class="cls-8" x1="59.23" y1="53.24" x2="59.23" y2="49.04"/><line class="cls-8" x1="55.73" y1="53.24" x2="55.73" y2="51.14"/><line class="cls-8" x1="62.73" y1="53.24" x2="62.73" y2="51.14"/><path class="cls-18" d="M31.83,32.13l-.6-.59-.6.59a2.72,2.72,0,0,0-.8,1.94v2.37h2.8V34.07A2.76,2.76,0,0,0,31.83,32.13Z"/><path class="cls-18" d="M39.18,32.13l-.6-.59-.6.59a2.72,2.72,0,0,0-.8,1.94v2.37H40V34.07A2.76,2.76,0,0,0,39.18,32.13Z"/><path class="cls-18" d="M46.53,32.13l-.6-.59-.6.59a2.72,2.72,0,0,0-.8,1.94v2.37h2.8V34.07A2.76,2.76,0,0,0,46.53,32.13Z"/><path class="cls-18" d="M53.88,32.13l-.6-.59-.6.59a2.72,2.72,0,0,0-.8,1.94v2.37h2.8V34.07A2.76,2.76,0,0,0,53.88,32.13Z"/><path class="cls-18" d="M60,32.13l.6-.59.6.59a2.76,2.76,0,0,1,.8,1.94v2.37h-2.8V34.07A2.72,2.72,0,0,1,60,32.13Z"/><line class="cls-8" x1="35.43" y1="30.84" x2="35.43" y2="32.24"/><line class="cls-8" x1="28.43" y1="30.84" x2="28.43" y2="32.24"/><line class="cls-8" x1="42.43" y1="30.84" x2="42.43" y2="32.24"/><line class="cls-8" x1="49.43" y1="30.84" x2="49.43" y2="32.24"/><line class="cls-8" x1="56.43" y1="30.84" x2="56.43" y2="32.24"/><line class="cls-8" x1="63.43" y1="30.84" x2="63.43" y2="32.24"/><path class="cls-16" d="M45.54,61.64h.8a1,1,0,0,1,1,1v3.9a0,0,0,0,1,0,0h-2.8a0,0,0,0,1,0,0v-3.9A1,1,0,0,1,45.54,61.64Z"/><path class="cls-17" d="M46.34,61.64h-.8a1,1,0,0,0-1,1v3.9h.2l2.54-4.24A1,1,0,0,0,46.34,61.64Z"/><path class="cls-8" d="M45.54,61.64h.8a1,1,0,0,1,1,1v3.9a0,0,0,0,1,0,0h-2.8a0,0,0,0,1,0,0v-3.9A1,1,0,0,1,45.54,61.64Z"/><path class="cls-16" d="M29.83,18.94h0a4.75,4.75,0,0,0-1.4,3.38v8.52h2.8V22.32A4.79,4.79,0,0,0,29.83,18.94Z"/><path class="cls-17" d="M31.23,23.63V22.32a4.79,4.79,0,0,0-1.4-3.38h0a4.75,4.75,0,0,0-1.4,3.38v6Z"/><path class="cls-8" d="M29.83,18.94h0a4.75,4.75,0,0,0-1.4,3.38v8.52h2.8V22.32A4.79,4.79,0,0,0,29.83,18.94Z"/><path class="cls-16" d="M35.43,18.94h0A4.75,4.75,0,0,0,34,22.32v8.52h2.8V22.32A4.79,4.79,0,0,0,35.43,18.94Z"/><path class="cls-17" d="M36.83,23.63V22.32a4.79,4.79,0,0,0-1.4-3.38h0A4.75,4.75,0,0,0,34,22.32v6Z"/><path class="cls-8" d="M35.43,18.94h0A4.75,4.75,0,0,0,34,22.32v8.52h2.8V22.32A4.79,4.79,0,0,0,35.43,18.94Z"/><path class="cls-16" d="M56.43,18.94h0A4.75,4.75,0,0,0,55,22.32v8.52h2.8V22.32A4.79,4.79,0,0,0,56.43,18.94Z"/><path class="cls-17" d="M57.83,23.63V22.32a4.79,4.79,0,0,0-1.4-3.38h0A4.75,4.75,0,0,0,55,22.32v6Z"/><path class="cls-8" d="M56.43,18.94h0A4.75,4.75,0,0,0,55,22.32v8.52h2.8V22.32A4.79,4.79,0,0,0,56.43,18.94Z"/><path class="cls-16" d="M62,18.94h0a4.75,4.75,0,0,0-1.4,3.38v8.52h2.8V22.32A4.79,4.79,0,0,0,62,18.94Z"/><path class="cls-17" d="M63.43,23.63V22.32A4.79,4.79,0,0,0,62,18.94h0a4.75,4.75,0,0,0-1.4,3.38v6Z"/><path class="cls-8" d="M62,18.94h0a4.75,4.75,0,0,0-1.4,3.38v8.52h2.8V22.32A4.79,4.79,0,0,0,62,18.94Z"/><line class="cls-8" x1="25.63" y1="16.14" x2="39.63" y2="16.14"/><line class="cls-8" x1="25.63" y1="13.34" x2="39.63" y2="13.34"/><line class="cls-8" x1="52.23" y1="16.14" x2="66.23" y2="16.14"/><line class="cls-8" x1="52.23" y1="13.34" x2="66.23" y2="13.34"/><line class="cls-8" x1="25.63" y1="36.44" x2="66.23" y2="36.44"/><line class="cls-8" x1="22.83" y1="49.04" x2="69.03" y2="49.04"/><line class="cls-8" x1="26.33" y1="58.84" x2="22.83" y2="58.84"/><rect class="cls-19" x="26.33" y="13.34" width="12.6" height="2.8"/><rect class="cls-19" x="52.93" y="13.34" width="12.6" height="2.8"/><line class="cls-8" x1="45.93" y1="40.64" x2="45.93" y2="47.64"/><line class="cls-8" x1="42.43" y1="44.14" x2="49.43" y2="44.14"/><rect class="cls-16" x="29.83" y="44.84" width="5.6" height="4.2"/><polygon class="cls-17" points="29.83 44.84 29.83 49.03 31.93 49.03 34.45 44.84 29.83 44.84"/><rect class="cls-8" x="29.83" y="44.84" width="5.6" height="4.2"/><rect class="cls-16" x="56.43" y="44.84" width="5.6" height="4.2"/><polygon class="cls-17" points="56.43 44.84 56.43 49.03 58.53 49.03 61.05 44.84 56.43 44.84"/><rect class="cls-8" x="56.43" y="44.84" width="5.6" height="4.2"/><rect class="cls-16" x="29.83" y="62.34" width="5.6" height="4.2"/><polygon class="cls-17" points="29.83 62.34 29.83 66.53 31.93 66.53 34.45 62.34 29.83 62.34"/><rect class="cls-8" x="29.83" y="62.34" width="5.6" height="4.2"/><rect class="cls-16" x="56.43" y="62.34" width="5.6" height="4.2"/><polygon class="cls-17" points="56.43 62.34 56.43 66.53 58.53 66.53 61.05 62.34 56.43 62.34"/><rect class="cls-8" x="56.43" y="62.34" width="5.6" height="4.2"/><path class="cls-20" d="M79,58.59c0,2.33-.83,4.33-1.76,4.33s-1.76-2-1.76-4.33,1.76-8.42,1.76-8.42S79,56.26,79,58.59Z"/><line class="cls-8" x1="77.27" y1="62.92" x2="77.27" y2="66.54"/><path class="cls-8" d="M17.2,52.31a2.74,2.74,0,1,1-5.47,0"/><path class="cls-21" d="M12.75,51.3h-2a.53.53,0,0,1-.32-.12.42.42,0,0,0,0,.16l.2,1.49a.51.51,0,0,0,.5.43h1.29a.49.49,0,0,0,.49-.43l.2-1.49a.42.42,0,0,0,0-.16A.48.48,0,0,1,12.75,51.3Z"/><path class="cls-22" d="M11.73,49.17a1.51,1.51,0,0,0-1.51,1.51c0,.44.22.62.5.62h2c.28,0,.5-.18.5-.62A1.51,1.51,0,0,0,11.73,49.17Z"/><path class="cls-21" d="M18.22,51.3h-2a.48.48,0,0,1-.31-.12.78.78,0,0,0,0,.16l.2,1.49a.51.51,0,0,0,.5.43h1.29a.49.49,0,0,0,.49-.43l.21-1.49a.78.78,0,0,0,0-.16A.48.48,0,0,1,18.22,51.3Z"/><path class="cls-22" d="M17.2,49.17a1.51,1.51,0,0,0-1.51,1.51c0,.44.22.62.5.62h2c.28,0,.5-.18.5-.62A1.51,1.51,0,0,0,17.2,49.17Z"/><line class="cls-8" x1="14.47" y1="55.05" x2="14.47" y2="66.53"/><ellipse class="cls-23" cx="32.97" cy="81.14" rx="13.5" ry="1.5"/><path class="cls-24" d="M38.2,65v3.51H21.48a1,1,0,0,0-1,1V77.7a1,1,0,0,0,.85,1l2.39.37h20.2a1,1,0,0,0,1-1V70.29a15.11,15.11,0,0,0-.15-2.12l-.36-2.49a2,2,0,0,0-2-1.71H39.2A1,1,0,0,0,38.2,65Z"/><path class="cls-25" d="M27.83,79.06A1.83,1.83,0,1,1,26,77.23,1.83,1.83,0,0,1,27.83,79.06Z"/><path class="cls-25" d="M40.93,79.06a1.83,1.83,0,1,1-1.83-1.83A1.83,1.83,0,0,1,40.93,79.06Z"/><rect class="cls-26" x="30.26" y="72.43" width="3.5" height="6.63"/><rect class="cls-16" x="22.72" y="72.43" width="5.52" height="3.04"/><polygon class="cls-17" points="22.72 72.43 22.72 75.47 24.61 75.47 26.43 72.43 22.72 72.43"/><rect class="cls-8" x="22.72" y="72.43" width="5.52" height="3.04"/><rect class="cls-16" x="35.74" y="72.43" width="3.5" height="3.04"/><polygon class="cls-17" points="35.74 72.43 35.74 75.47 36.76 75.47 38.58 72.43 35.74 72.43"/><rect class="cls-8" x="35.74" y="72.43" width="3.5" height="3.04"/><rect class="cls-16" x="41.42" y="72.43" width="3.5" height="3.04"/><polygon class="cls-17" points="41.42 72.43 41.42 75.47 42.44 75.47 44.26 72.43 41.42 72.43"/><rect class="cls-8" x="41.42" y="72.43" width="3.5" height="3.04"/><path class="cls-16" d="M41.36,68.55h3.46l-.35-2.49H41.36a1,1,0,0,0-1,1v.5A1,1,0,0,0,41.36,68.55Z"/><path class="cls-17" d="M43,66.05H41.36a1,1,0,0,0-1,1v.5a1,1,0,0,0,1,1h.18Z"/><path class="cls-8" d="M41.36,68.55h3.46l-.35-2.49H41.36a1,1,0,0,0-1,1v.5A1,1,0,0,0,41.36,68.55Z"/><path class="cls-8" d="M22.84,66.53H38.2a0,0,0,0,1,0,0v1.95a0,0,0,0,1,0,0H21.84a0,0,0,0,1,0,0v-.95A1,1,0,0,1,22.84,66.53Z"/><rect class="cls-8" x="24.63" y="66.53" width="2.33" height="1.95"/><rect class="cls-8" x="29.17" y="66.53" width="2.33" height="1.95"/><rect class="cls-8" x="33.76" y="66.53" width="2.33" height="1.95"/><rect class="cls-16" x="30.26" y="72.43" width="3.5" height="3.04"/><polygon class="cls-17" points="30.26 72.43 30.26 75.47 31.28 75.47 33.1 72.43 30.26 72.43"/><rect class="cls-8" x="30.26" y="72.43" width="3.5" height="3.04"/><line class="cls-8" x1="22.91" y1="70.47" x2="42.86" y2="70.47"/></svg>