<svg id="Layer_1" data-name="Layer 1" xmlns="http://www.w3.org/2000/svg" xmlns:xlink="http://www.w3.org/1999/xlink" viewBox="0 0 100 100"><defs><style>.cls-1,.cls-7{fill:none;}.cls-2{fill:#e8f4fa;}.cls-3{clip-path:url(#clip-path);}.cls-4{fill:#fff;}.cls-11,.cls-4,.cls-7,.cls-9{stroke:#45413c;stroke-linejoin:round;}.cls-5{fill:#4acfff;}.cls-6{fill:#80ddff;}.cls-11,.cls-7,.cls-9{stroke-linecap:round;}.cls-8{fill:#009fd9;}.cls-10,.cls-9{fill:#adc4d9;}.cls-11{fill:#bdbec0;}</style><clipPath id="clip-path"><circle class="cls-1" cx="50" cy="50" r="40"/></clipPath></defs><title>one-world-trade-center</title><circle class="cls-2" cx="50" cy="50" r="40"/><g class="cls-3"><path class="cls-4" d="M79,47.21a1.75,1.75,0,0,0-.65.12,3,3,0,0,0-5.93,0,1.75,1.75,0,0,0-.65-.12,1.81,1.81,0,1,0,0,3.61H79a1.81,1.81,0,1,0,0-3.61Z"/><path class="cls-4" d="M29.63,33.32a1.62,1.62,0,0,0-.54.1,2.5,2.5,0,0,0-4.93,0,1.53,1.53,0,0,0-.54-.1,1.5,1.5,0,1,0,0,3h6a1.5,1.5,0,1,0,0-3Z"/><path class="cls-5" d="M59.55,86.72H40.46L43,36a1.39,1.39,0,0,1,1.39-1.32H55.62A1.39,1.39,0,0,1,57,36Z"/><path class="cls-6" d="M44.38,34.66A1.38,1.38,0,0,0,43,36L40.72,81.52,57.53,46.37,57,36a1.39,1.39,0,0,0-1.39-1.32Z"/><path class="cls-7" d="M59.55,86.72H40.46L43,36a1.39,1.39,0,0,1,1.39-1.32H55.62A1.39,1.39,0,0,1,57,36Z"/><polygon class="cls-8" points="44.8 34.66 50 86.72 55.21 34.66 44.8 34.66"/><polygon class="cls-5" points="47.58 62.51 53.85 48.19 55.21 34.66 44.8 34.66 47.58 62.51"/><polygon class="cls-7" points="44.8 34.66 50 86.72 55.21 34.66 44.8 34.66"/><path class="cls-9" d="M54.76,32.66H45.24a1,1,0,0,1-1-1h0a1,1,0,0,1,1-1h9.52a1,1,0,0,1,1,1h0A1,1,0,0,1,54.76,32.66Z"/><path class="cls-9" d="M54.76,34.66H45.24a1,1,0,0,1-1-1h0a1,1,0,0,1,1-1h9.52a1,1,0,0,1,1,1h0A1,1,0,0,1,54.76,34.66Z"/><line class="cls-7" x1="50" y1="28.66" x2="50" y2="11.31"/><path class="cls-10" d="M40.46,88.85a40.19,40.19,0,0,0,19.09,0V86.72H40.46Z"/><polyline class="cls-7" points="59.55 88.84 59.55 86.72 40.46 86.72 40.46 88.84"/><path class="cls-11" d="M46.24,28.66h7.51a1,1,0,0,1,1,1v1a0,0,0,0,1,0,0H45.24a0,0,0,0,1,0,0v-1A1,1,0,0,1,46.24,28.66Z"/><polygon class="cls-11" points="48.89 28.66 48.89 26.85 49.52 25.36 50.48 25.36 51.11 26.85 51.11 28.66 48.89 28.66"/><polyline class="cls-7" points="53.76 28.66 50.48 18.84 49.52 18.84 46.24 28.66"/><line class="cls-7" x1="48.89" y1="18.84" x2="51.1" y2="18.84"/><line class="cls-7" x1="50" y1="41.66" x2="50" y2="45.82"/><line class="cls-7" x1="51.63" y1="41.66" x2="51.63" y2="45.82"/><line class="cls-7" x1="48.38" y1="41.66" x2="48.38" y2="45.82"/></g></svg>