<?xml version="1.0" encoding="UTF-8" standalone="no"?>
<svg
   xmlns:dc="http://purl.org/dc/elements/1.1/"
   xmlns:cc="http://creativecommons.org/ns#"
   xmlns:rdf="http://www.w3.org/1999/02/22-rdf-syntax-ns#"
   xmlns:svg="http://www.w3.org/2000/svg"
   xmlns="http://www.w3.org/2000/svg"
   xmlns:sodipodi="http://sodipodi.sourceforge.net/DTD/sodipodi-0.dtd"
   xmlns:inkscape="http://www.inkscape.org/namespaces/inkscape"
   inkscape:version="1.0 (4035a4f, 2020-05-01)"
   sodipodi:docname="password_dark.svg"
   viewBox="0 0 960 794.98"
   version="1.1"
   data-name="Layer 1"
   height="794.98"
   width="960"
   id="f7dcc58f-beb5-4050-9d04-9a029c12a87b">
  <defs
     id="defs1158" />
  <sodipodi:namedview
     inkscape:current-layer="f7dcc58f-beb5-4050-9d04-9a029c12a87b"
     inkscape:window-maximized="1"
     inkscape:window-y="563"
     inkscape:window-x="0"
     inkscape:cy="627.34008"
     inkscape:cx="646.67912"
     inkscape:zoom="4.2623157"
     showgrid="false"
     id="namedview1156"
     inkscape:window-height="785"
     inkscape:window-width="1440"
     inkscape:pageshadow="2"
     inkscape:pageopacity="0"
     guidetolerance="10"
     gridtolerance="10"
     objecttolerance="10"
     borderopacity="1"
     bordercolor="#666666"
     pagecolor="#ffffff" />
  <metadata
     id="metadata1065">
    <rdf:RDF>
      <cc:Work
         rdf:about="">
        <dc:format>image/svg+xml</dc:format>
        <dc:type
           rdf:resource="http://purl.org/dc/dcmitype/StillImage" />
        <dc:title>my password</dc:title>
      </cc:Work>
    </rdf:RDF>
  </metadata>
  <title
     id="title1067">my password</title>
  <path
     style="fill:#2d2c2c;fill-opacity:1"
     d="m 848.81,454.441 c -5.27,45.15 -16.22,81.4 -31.25,110.31 -20,38.52 -54.21,54.04 -84.77,70.28 a 193.28,193.28 0 0 1 -27.46,11.94 c -55.61,19.3 -117.85,14.18 -166.74,3.99 A 657.3,657.3 0 0 0 434.5,637.801 q -14.97,-0.67493 -29.97,-0.67 c -15.42,0.02 -293.07,5.29 -360.67,-131.57 -16.69,-33.76 -28.13,-75 -32.24,-125.27 -11.63,-142.12 52.29,-235.46 134.74,-296.47 155.97,-115.41 369.76,-110.57 523.43,7.88 102.36,78.9 198.2,198.31 179.02,362.74 z"
     fill="#f5f5f5"
     id="path1069" />
  <path
     d="m 300,413.301 c 0,112.97 -67.157,152.41 -150,152.41 -82.843,0 -150,-39.444 -150,-152.41 0,-112.966 150,-256.68 150,-256.68 0,0 150,143.71 150,256.68 z"
     fill="#92b06a"
     id="path1071" />
  <polygon
     style="fill:#14171a;fill-opacity:1"
     points="210.01,336.92 146.31,439.05 147,396.54 191.07,311.92 147.19,385.29 147.19,385.29 148.43,308.84 195.61,241.47 148.62,296.81 149.4,156.62 144.52,342.21 144.92,334.56 96.951,261.13 144.15,349.25 139.68,434.64 139.55,432.38 84.248,355.1 139.38,440.38 138.82,451.06 138.72,451.22 138.77,452.1 127.43,668.74 142.58,668.74 144.4,556.84 199.4,471.77 144.54,548.43 146.07,453.88 "
     fill="#3e3e3e"
     id="polygon1073" />
  <path
     d="m 960,420.301 c 0,112.97 -67.157,152.41 -150,152.41 -82.843,0 -150,-39.444 -150,-152.41 0,-112.966 150,-256.68 150,-256.68 0,0 150,143.71 150,256.68 z"
     fill="#92b06a"
     id="path1075" />
  <polygon
     style="fill:#14171a;fill-opacity:1"
     points="870.01,343.92 806.31,446.05 807,403.54 851.07,318.92 807.19,392.29 807.19,392.29 808.43,315.84 855.61,248.47 808.62,303.81 809.4,163.62 804.52,349.21 804.92,341.56 756.95,268.13 804.15,356.25 799.68,441.64 799.55,439.38 744.25,362.1 799.38,447.38 798.82,458.06 798.72,458.22 798.77,459.1 787.43,675.74 802.58,675.74 804.4,563.84 859.4,478.77 804.54,555.43 806.07,460.88 "
     fill="#3e3e3e"
     id="polygon1077" />
  <path
     d="m 648,324.351 c 0,123.51 -73.425,166.64 -164,166.64 -90.575,0 -164,-43.125 -164,-166.64 0,-123.515 164,-280.64 164,-280.64 0,0 164,157.13 164,280.64 z"
     fill="#ffffff"
     id="path1079" />
  <polygon
     style="fill:#14171a;fill-opacity:1"
     points="549.61,240.85 479.97,352.52 480.72,306.04 528.9,213.52 480.92,293.74 480.92,293.74 482.28,210.14 533.87,136.49 482.5,197 483.34,43.719 478.01,246.63 478.45,238.26 426,157.98 477.61,254.33 472.72,347.69 472.58,345.21 412.11,260.73 472.39,353.97 471.78,365.64 471.67,365.82 471.72,366.78 459.32,603.64 475.89,603.64 477.88,481.3 538.01,388.28 478.03,472.1 479.7,368.73 "
     fill="#3e3e3e"
     id="polygon1081" />
  <path
     d="m 574.43,553.061 c 0,38.029 23.857,68.802 53.341,68.802"
     fill="#657786"
     id="path1083" />
  <path
     id="path1087"
     fill="#eb7260"
     d="m747.77 674.37c0-38.456 26.624-69.575 59.525-69.575"
     transform="translate(-120 -52.509)" />
  <path
     id="path1089"
     fill="#eb7260"
     d="m713.76 609.02c0 36.124 15.213 65.354 34.014 65.354"
     transform="translate(-120 -52.509)" />
  <path
     d="m 627.77,621.861 c 0,-49.139 30.773,-88.901 68.802,-88.901"
     fill="#657786"
     id="path1091" />
  <path
     style="fill:#14171a;fill-opacity:1"
     d="m 616.55,622.351 c 0,0 7.5646,-0.233 9.8443,-1.8564 2.2797,-1.6234 11.636,-3.5618 12.202,-0.95825 0.566,2.60355 11.368,12.949 2.8278,13.018 -8.5402,0.069 -19.844,-1.3303 -22.119,-2.7163 -2.275,-1.386 -2.7545,-7.4869 -2.7545,-7.4869 z"
     fill="#3e3e3e"
     id="path1093" />
  <path
     style="fill:#000000;fill-opacity:1"
     d="m 641.57,631.641 c -8.5404,0.0689 -19.844,-1.3303 -22.119,-2.7163 -1.7328,-1.0555 -2.4233,-4.843 -2.6544,-6.5905 -0.16,0.007 -0.25254,0.01 -0.25254,0.01 0,0 0.47912,6.1009 2.7545,7.4869 2.27538,1.386 13.579,2.7852 22.119,2.7163 2.4653,-0.0199 3.3168,-0.897 3.2701,-2.196 -0.34248,0.78486 -1.2827,1.275 -3.1176,1.2898 z"
     fill="#14171a"
     id="path1095" />
  <ellipse
     style="fill:#2d2c2c;fill-opacity:1"
     cx="449"
     cy="680.97998"
     rx="132"
     ry="21"
     fill="#f5f5f5"
     id="ellipse1097" />
  <rect
     x="494"
     y="633.97998"
     width="13"
     height="30"
     fill="#a0616a"
     id="rect1099" />
  <rect
     x="458"
     y="228.98"
     width="50"
     height="90"
     fill="#14171a"
     id="rect1101" />
  <polygon
     points="500.88,427 495.11,401.62 544.72,399.31 546.45,413.16 "
     fill="#a0616a"
     id="polygon1103" />
  <path
     id="path1107"
     fill="#ffb9b9"
     d="m597.23 318.57s-1.1537 10.383-3.4611 10.383-10.383 4.038-10.383 4.038l-2.3074 10.96 16.152 9.8065 26.535-2.8843 7.4991-11.537-7.4991-7.4991s-6.3454-13.844-4.038-16.729-22.497 3.4611-22.497 3.4611z"
     transform="translate(-120 -52.509)" />
  <g
     id="g1117">
    <path
       id="path1109"
       opacity=".9"
       fill="#a0616a"
       d="m597.23 318.57s-1.1537 10.383-3.4611 10.383-10.383 4.038-10.383 4.038l-2.3074 10.96 16.152 9.8065 26.535-2.8843 7.4991-11.537-7.4991-7.4991s-6.3454-13.844-4.038-16.729-22.497 3.4611-22.497 3.4611z"
       transform="translate(-120 -52.509)" />
    <path
       id="path1111"
       fill="#a0616a"
       d="m525.12 677.95s-5.1917 34.611-11.537 36.919 24.228 6.3454 24.228 6.3454l2.3074-12.691s0.57685-23.074 2.8843-26.535-17.882-4.038-17.882-4.038z"
       transform="translate(-120 -52.509)" />
    <path
       id="path1113"
       fill="#3e3e3e"
       d="m583.96 476.63s83.644-14.998 84.221-17.882 17.306 21.92 6.9222 70.376-36.342 162.67-36.342 162.67-26.535 8.076-25.958 1.7306 9.2297-116.52 9.2297-116.52l-5.7685-46.725-9.8065 5.7685-40.957 80.759-20.767 69.799s-26.535 4.6148-22.497-5.1917 17.306-85.951 17.306-85.951l36.342-107.29s-1.1537-11.537 8.076-11.537z"
       transform="translate(-120 -52.509)" />
    <circle
       id="circle1115"
       fill="#a0616a"
       r="24.228"
       cy="249.62"
       cx="485.02" />
  </g>
  <path
     id="path1119"
     fill="#f2f2f2"
     d="m630.11 332.41s-11.537 10.96-38.649 8.076 7.4991 61.723 7.4991 61.723l10.96 65.184s48.456-5.7685 50.186-16.729-29.996-118.26-29.996-118.26z"
     transform="translate(-120 -52.509)" />
  <g
     id="g1133">
    <path
       id="path1121"
       fill="#eb7260"
       d="m618.57 394.14s-13.844-6.9222-19.036-25.958-9.8065-38.649-12.691-38.072c-2.4353 0.48705-25.021 9.1988-32.341 15.024-1.3496 1.074-2.1803 2.05-2.2701 2.8582-0.57685 5.1917 20.767 57.108 20.767 57.108s16.729 37.495 9.8065 49.609-7.4991 27.689 5.1917 26.535 54.801-3.4611 49.033-35.765c0 0 10.96 22.497 41.533 6.3454 0 0 18.459-2.8843 17.882-9.2297s-29.419-61.146-29.419-61.146-4.6148-24.228 4.038-33.458l-19.613-23.074s-4.6148-6.9222-9.2297-3.4611-14.998 9.2296-16.729 9.8065-2.8683-2.0733-2.8683-2.0733a50.154 50.154 0 0 0-4.6308 26.878c1.7305 14.998 0.57678 38.072 0.57678 38.072z"
       transform="translate(-120 -52.509)" />
    <path
       id="path1123"
       fill="#14171a"
       d="m526.85 707.94s-1.2879-4.038-8.7199 0c0 0 2.3745-12.691-5.7014-12.691s-10.96 14.998-10.96 14.998-2.3074 9.8065-17.882 13.844-3.4611 17.882 7.4991 17.882 25.382-8.6528 25.382-8.6528 29.996 0.57686 30.573-5.1917-2.8843-23.074-5.1917-23.074-6.9222 8.076-6.9222 8.076z"
       transform="translate(-120 -52.509)" />
    <path
       id="path1125"
       fill="#14171a"
       d="m624.92 697.79s-8.0759-8.6528-12.691 5.7685-8.076 20.19-5.1917 22.497 5.1917 1.1537 4.038 5.7685 3.4611 14.421 13.844 14.421 13.268-7.4991 12.691-12.691-5.1917-11.537-5.1917-11.537l-4.6148-16.152z"
       transform="translate(-120 -52.509)" />
    <path
       id="path1127"
       fill="#a0616a"
       d="m670.49 292.03-30.573 10.383s-27.689 16.152-15.575 19.613 22.497-10.383 22.497-10.383l26.535-6.9222z"
       transform="translate(-120 -52.509)" />
    <path
       id="path1129"
       fill="#14171a"
       d="m588.53 264.66c-3.6299 2.4867-6.5195 5.8927-9.267 9.3294-5.5825 6.9831-11.052 15.323-9.6768 24.157 0.52241 3.3552 2.0135 6.4778 2.853 9.7679 1.133 4.4403 1.0583 9.0874 0.9765 13.669a18.459 18.459 0 0 1-0.715 5.7637 37.991 37.991 0 0 1-2.8424 5.2545c-2.7783 5.1747-2.8464 11.323-2.8488 17.197a14.666 14.666 0 0 0 0.79084 5.8316c0.7586 1.766 2.1708 3.1507 3.342 4.6746a20.165 20.165 0 0 1 3.1082 18.269 7.9139 7.9139 0 0 0 7.19-4.5336 10.024 10.024 0 0 1-2.5631 8.1524c6.6034-1.9624 13.682-5.2711 16.092-11.724a24.847 24.847 0 0 0 1.1851-6.7759c1.2821-16.188 2.0142-32.981-3.7913-48.146-1.8574-4.8519-4.3853-9.5482-5.008-14.706s1.2808-11.118 6.0193-13.248a5.4638 5.4638 0 0 0 1.6502 3.476c1.0547 0.78308 3.0051 0.2919 3.0242-1.0216l2.2888 3.1868a5.5916 5.5916 0 0 0 2.1735-1.8961l1.5691 1.9208 3.3374-2.4277 2.8978 3.1252a6.1662 6.1662 0 0 0 2.5443-2.7689c0.62282 0.93147 1.3937 1.9552 2.5097 2.056 2.4301 0.21961 2.9316-3.6368 5.0545-4.8397a3.5826 3.5826 0 0 1 4.4715 1.3553 7.2992 7.2992 0 0 1 0.90012 4.9426c-0.87852 7.9321-7.6466 15.17-5.6399 22.894 1.1284 4.3434 4.9288 7.8261 5.2154 12.305 0.2291 3.579-1.8748 6.9648-1.8426 10.551 0.03768 4.2027 2.9414 7.7724 5.7762 10.875q7.5676 8.284 15.931 15.792l-1.7223-3.0132a5.5924 5.5924 0 0 1 4.3859 1.613c0.49508-1.732-0.32558-3.5366-1.1001-5.163-4.6377-9.7387-8.3818-20.108-8.9411-30.88-0.7774-14.973 4.6064-30.18 1.1945-44.78a38.655 38.655 0 0 0-13.029-20.828c-3.1557-2.5977-5.5484-4.1537-9.635-4.44a72.721 72.721 0 0 0-13.725 0.10768 31.418 31.418 0 0 0-14.134 4.9264z"
       transform="translate(-120 -52.509)" />
    <path
       id="path1131"
       fill="#eb7260"
       d="m646.84 325.49s6.3454 0.57686 9.2296 0 6.9222-3.4611 6.9222-3.4611l21.92-16.152-19.036 2.8843s3.4611-26.535 2.3074-27.112 55.955-11.537 54.801 6.3454-33.458 53.071-51.917 59.993l-12.114 1.7306z"
       transform="translate(-120 -52.509)" />
  </g>
  <rect
     id="rect1135"
     fill="#fff"
     height="64"
     width="272"
     y="477.49"
     x="317" />
  <rect
     id="rect1137"
     fill="#3e3e3e"
     height="34"
     width="202"
     y="491.99"
     x="351.5" />
  <g
     id="g1149"
     fill="#fff">
    <path
       id="path1139"
       d="m518.44 560.75c-0.08081-0.87183-3.937-1.2598-9.2279-1.0415 3.0659-4.3174 4.8417-7.7624 4.1547-8.3052-0.64807-0.512-3.3002 1.7015-6.5293 5.2963-0.30517-4.8226-1.0139-8.2036-1.8398-8.2036-0.90088 0-1.6624 4.0226-1.9126 9.5513-4.4932-3.2312-8.1216-5.1276-8.6802-4.4206-0.53321 0.675 1.8953 3.5256 5.7559 6.9358-5.0952 0.75592-8.6848 1.8229-8.6055 2.6794 0.08081 0.87183 3.937 1.2599 9.2279 1.0416-3.0659 4.3174-4.8417 7.7624-4.1547 8.3052 0.64807 0.512 3.3002-1.7014 6.5293-5.2963 0.30517 4.8226 1.0139 8.2036 1.8398 8.2036 0.90088 0 1.6624-4.0227 1.9126-9.5514 4.4932 3.2312 8.1216 5.1276 8.6802 4.4206 0.53321-0.675-1.8953-3.5256-5.7559-6.9358 5.0952-0.75598 8.6848-1.8229 8.6055-2.6794z"
       transform="translate(-120 -52.509)" />
    <path
       id="path1141"
       d="m552.44 560.75c-0.08081-0.87183-3.937-1.2598-9.2279-1.0415 3.0659-4.3174 4.8417-7.7624 4.1547-8.3052-0.64807-0.512-3.3002 1.7015-6.5293 5.2963-0.30517-4.8226-1.0139-8.2036-1.8398-8.2036-0.90088 0-1.6624 4.0226-1.9126 9.5513-4.4932-3.2312-8.1216-5.1276-8.6802-4.4206-0.53321 0.675 1.8953 3.5256 5.7559 6.9358-5.0952 0.75592-8.6848 1.8229-8.6055 2.6794 0.08081 0.87183 3.937 1.2599 9.2279 1.0416-3.0659 4.3174-4.8417 7.7624-4.1547 8.3052 0.64807 0.512 3.3002-1.7014 6.5293-5.2963 0.30517 4.8226 1.0139 8.2036 1.8398 8.2036 0.90088 0 1.6624-4.0227 1.9126-9.5514 4.4932 3.2312 8.1216 5.1276 8.6802 4.4206 0.53321-0.675-1.8953-3.5256-5.7559-6.9358 5.0952-0.75598 8.6848-1.8229 8.6055-2.6794z"
       transform="translate(-120 -52.509)" />
    <path
       id="path1143"
       d="m586.44 560.75c-0.08081-0.87183-3.937-1.2598-9.2279-1.0415 3.0659-4.3174 4.8417-7.7624 4.1547-8.3052-0.64807-0.512-3.3002 1.7015-6.5293 5.2963-0.30517-4.8226-1.0139-8.2036-1.8398-8.2036-0.90088 0-1.6624 4.0226-1.9126 9.5513-4.4932-3.2312-8.1216-5.1276-8.6802-4.4206-0.53321 0.675 1.8953 3.5256 5.7559 6.9358-5.0952 0.75592-8.6848 1.8229-8.6055 2.6794 0.08081 0.87183 3.937 1.2599 9.2279 1.0416-3.0659 4.3174-4.8417 7.7624-4.1547 8.3052 0.64807 0.512 3.3002-1.7014 6.5293-5.2963 0.30517 4.8226 1.0139 8.2036 1.8398 8.2036 0.90088 0 1.6624-4.0227 1.9126-9.5514 4.4932 3.2312 8.1216 5.1276 8.6802 4.4206 0.53321-0.675-1.8953-3.5256-5.7559-6.9358 5.0952-0.75598 8.6848-1.8229 8.6055-2.6794z"
       transform="translate(-120 -52.509)" />
    <path
       id="path1145"
       d="m620.44 560.75c-0.08081-0.87183-3.937-1.2598-9.2279-1.0415 3.0659-4.3174 4.8417-7.7624 4.1547-8.3052-0.64807-0.512-3.3002 1.7015-6.5293 5.2963-0.30517-4.8226-1.0139-8.2036-1.8398-8.2036-0.90088 0-1.6624 4.0226-1.9126 9.5513-4.4932-3.2312-8.1216-5.1276-8.6802-4.4206-0.53321 0.675 1.8953 3.5256 5.7559 6.9358-5.0952 0.75592-8.6848 1.8229-8.6055 2.6794 0.08081 0.87183 3.937 1.2599 9.2279 1.0416-3.0659 4.3174-4.8417 7.7624-4.1547 8.3052 0.64807 0.512 3.3002-1.7014 6.5293-5.2963 0.30517 4.8226 1.0139 8.2036 1.8398 8.2036 0.90088 0 1.6624-4.0227 1.9126-9.5514 4.4932 3.2312 8.1216 5.1276 8.6802 4.4206 0.53321-0.675-1.8953-3.5256-5.7559-6.9358 5.0952-0.75598 8.6848-1.8229 8.6055-2.6794z"
       transform="translate(-120 -52.509)" />
    <path
       id="path1147"
       d="m654.44 560.75c-0.08081-0.87183-3.937-1.2598-9.2279-1.0415 3.0659-4.3174 4.8417-7.7624 4.1547-8.3052-0.64807-0.512-3.3002 1.7015-6.5293 5.2963-0.30517-4.8226-1.0139-8.2036-1.8398-8.2036-0.90088 0-1.6624 4.0226-1.9126 9.5513-4.4932-3.2312-8.1216-5.1276-8.6802-4.4206-0.53321 0.675 1.8953 3.5256 5.7559 6.9358-5.0952 0.75592-8.6848 1.8229-8.6055 2.6794 0.08081 0.87183 3.937 1.2599 9.2279 1.0416-3.0659 4.3174-4.8417 7.7624-4.1547 8.3052 0.64807 0.512 3.3002-1.7014 6.5293-5.2963 0.30517 4.8226 1.0139 8.2036 1.8398 8.2036 0.90088 0 1.6624-4.0227 1.9126-9.5514 4.4932 3.2312 8.1216 5.1276 8.6802 4.4206 0.53321-0.675-1.8953-3.5256-5.7559-6.9358 5.0952-0.75598 8.6848-1.8229 8.6055-2.6794z"
       transform="translate(-120 -52.509)" />
  </g>
  <path
     id="path1151"
     fill="#a0616a"
     d="m548.77 502.58s-2.8843 38.072 10.96 39.803 1.1537-43.264 1.1537-43.264z"
     transform="translate(-120 -52.509)" />
  <path
     id="path1153"
     fill="#eb7260"
     d="m556.27 346.83-4.038 1.1537s-16.729 133.83-5.7685 159.79c0 0 11.537-6.3454 17.306-5.1917l9.2297-109.03z"
     transform="translate(-120 -52.509)" />
</svg>
