<svg id="Layer_1" data-name="Layer 1" xmlns="http://www.w3.org/2000/svg" viewBox="0 0 100 100"><defs><style>.cls-1{fill:#e8f4fa;}.cls-2,.cls-4{fill:#fff;}.cls-3,.cls-7{fill:none;}.cls-3{stroke:#4f4a45;}.cls-10,.cls-11,.cls-12,.cls-15,.cls-16,.cls-22,.cls-3,.cls-4,.cls-7{stroke-linecap:round;stroke-linejoin:round;}.cls-10,.cls-11,.cls-12,.cls-15,.cls-16,.cls-22,.cls-4,.cls-7{stroke:#45413c;}.cls-5{fill:#00dba8;}.cls-6{fill:#00f5bc;}.cls-16,.cls-8{fill:#d18660;}.cls-9{fill:#bd704a;}.cls-10,.cls-23{fill:#e0e0e0;}.cls-11,.cls-21{fill:#656769;}.cls-12,.cls-25{fill:#bdbec0;}.cls-13{fill:#00b8f0;}.cls-14{fill:#4acfff;}.cls-15{fill:#debb7e;}.cls-17{fill:#724f3d;}.cls-18{fill:#a86c4d;}.cls-19{fill:#020202;opacity:0.15;}.cls-20{fill:#87898c;}.cls-22{fill:#ff6242;}.cls-24{fill:#f0f0f0;}</style></defs><title>photographer-male</title><path class="cls-1" d="M90,50A40,40,0,1,0,13.56,66.5H86.44A39.85,39.85,0,0,0,90,50Z"/><path class="cls-2" d="M13.56,66.5a40,40,0,0,0,72.88,0Z"/><line class="cls-3" x1="11" y1="66.5" x2="89" y2="66.5"/><line class="cls-3" x1="6.5" y1="66.5" x2="9" y2="66.5"/><line class="cls-3" x1="91" y1="66.5" x2="93.5" y2="66.5"/><path class="cls-4" d="M63.5,43.5A15.5,15.5,0,0,0,48,59v7.5H79V59A15.5,15.5,0,0,0,63.5,43.5Z"/><path class="cls-5" d="M58.5,44.32A15.51,15.51,0,0,0,48,59v7.5H58.5Z"/><path class="cls-6" d="M58.5,49.32v-5A15.51,15.51,0,0,0,48,59v5A15.51,15.51,0,0,1,58.5,49.32Z"/><line class="cls-7" x1="53.5" y1="59.3" x2="53.5" y2="66.5"/><path class="cls-5" d="M68.5,44.32A15.51,15.51,0,0,1,79,59v7.5H68.5Z"/><path class="cls-6" d="M68.5,44.32v5A15.51,15.51,0,0,1,79,64V59A15.51,15.51,0,0,0,68.5,44.32Z"/><line class="cls-7" x1="73.5" y1="59.3" x2="73.5" y2="66.5"/><path class="cls-7" d="M58.5,44.32A15.51,15.51,0,0,0,48,59v7.5H58.5Z"/><path class="cls-7" d="M68.5,44.32A15.51,15.51,0,0,1,79,59v7.5H68.5Z"/><path class="cls-8" d="M63.5,48.5a6.5,6.5,0,0,0,5.93-3.83A15.27,15.27,0,0,0,67,43.9V40.5H60v3.4a15.27,15.27,0,0,0-2.43.77A6.5,6.5,0,0,0,63.5,48.5Z"/><path class="cls-9" d="M67,44.48v-4H60v4a6.51,6.51,0,0,0,7,0Z"/><path class="cls-7" d="M63.5,48.5a6.5,6.5,0,0,0,5.93-3.83A15.27,15.27,0,0,0,67,43.9V40.5H60v3.4a15.27,15.27,0,0,0-2.43.77A6.5,6.5,0,0,0,63.5,48.5Z"/><rect class="cls-10" x="55" y="53.5" width="17" height="10.5" rx="1" ry="1"/><rect class="cls-11" x="55" y="55.5" width="17" height="6.5"/><path class="cls-12" d="M67.13,52.16a1.21,1.21,0,0,0-1.07-.66H60.94a1.21,1.21,0,0,0-1.07.66A5.35,5.35,0,0,0,59,55v9h9V55A5.35,5.35,0,0,0,67.13,52.16Z"/><circle class="cls-11" cx="63.5" cy="58" r="4.5"/><circle class="cls-13" cx="63.5" cy="58" r="2.5"/><path class="cls-14" d="M63.5,55.5A2.5,2.5,0,0,0,61,58a2.46,2.46,0,0,0,.72,1.75l3.53-3.53A2.46,2.46,0,0,0,63.5,55.5Z"/><circle class="cls-7" cx="63.5" cy="58" r="2.5"/><path class="cls-15" d="M70.5,48.7v4.8H68V48.7a5.16,5.16,0,0,0-1-3.34V42.17A7.93,7.93,0,0,1,70.5,48.7Z"/><path class="cls-15" d="M56.5,48.7v4.8H59V48.7a5.16,5.16,0,0,1,1-3.34V42.17A7.93,7.93,0,0,0,56.5,48.7Z"/><path class="cls-16" d="M73.5,30V27.5a10,10,0,0,0-20,0V30a2,2,0,0,0,0,4h.12a10,10,0,0,0,19.76,0h.12a2,2,0,0,0,0-4Z"/><circle class="cls-9" cx="57.75" cy="34.25" r="1.25"/><circle class="cls-9" cx="69.25" cy="34.25" r="1.25"/><path class="cls-7" d="M66.5,36.79a4.32,4.32,0,0,1-6,0"/><path class="cls-7" d="M61,31a1.63,1.63,0,0,0-3,0"/><path class="cls-7" d="M69,31a1.63,1.63,0,0,0-3,0"/><path class="cls-17" d="M76.87,25.9a8.66,8.66,0,0,0-1.78-1.25c1.86.08,3.33-.43,3.45-1.27s-1.6-2.05-3.9-2.38a9.54,9.54,0,0,0-3,.09s1.15-.19,1.76-.27c2.3-.29,4.06-1.33,3.94-2.31S75.27,17,73,17.25a7.84,7.84,0,0,0-2.8.86c.18-.14.36-.28.53-.44,1.72-1.55,2.58-3.4,1.92-4.14S70,13.45,68.28,15a7.24,7.24,0,0,0-2,2.67l-.8-.19a9,9,0,0,0,1-1.53c1.07-2.06,1.22-4.1.34-4.56s-2.31.72-3.37,2.6c-1.06-1.88-2.53-3-3.37-2.6s-.73,2.5.34,4.56a9,9,0,0,0,1,1.53l-.8.19a7.24,7.24,0,0,0-2-2.67c-1.72-1.55-3.66-2.21-4.33-1.47s.2,2.59,1.92,4.14c.17.16.35.3.53.44a7.84,7.84,0,0,0-2.8-.86c-2.31-.29-4.27.27-4.4,1.26s1.64,2,3.94,2.31c.7.09,1.76.27,1.76.27a14,14,0,0,0-3-.09c-2.3.33-4,1.39-3.9,2.38s1.59,1.35,3.45,1.27a8.66,8.66,0,0,0-1.78,1.25c-1.72,1.56-2.57,3.42-1.9,4.16.53.58,1.86.27,3.24-.65a8.66,8.66,0,0,0-.51.91c-1,2.09-1.1,4.13-.2,4.56.55.27,1.35-.14,2.11-1A2,2,0,0,1,53.5,30c1,0,1.48.68,1.48,1.7a10.24,10.24,0,0,0,.22-4.25c1,.35,2.78-1.15,2.78-1.15V23.9A27.8,27.8,0,0,0,63.5,25,27.8,27.8,0,0,0,69,23.9v2.4s1.73,1.5,2.78,1.15A10.24,10.24,0,0,0,72,31.7c0-1,.48-1.7,1.48-1.7a2,2,0,0,1,.63,3.9c.76.84,1.56,1.25,2.11,1,.9-.43.81-2.47-.2-4.56a8.66,8.66,0,0,0-.51-.91c1.38.92,2.71,1.23,3.24.65C79.44,29.32,78.59,27.46,76.87,25.9Z"/><path class="cls-18" d="M51,25.2a9,9,0,0,0-.88.7c-1.72,1.56-2.57,3.42-1.9,4.16a1.23,1.23,0,0,0,1.17.26,6.15,6.15,0,0,1,1.84-3.91,7.75,7.75,0,0,1,1.63-1.15C52.46,25.27,51.72,25.25,51,25.2Z"/><path class="cls-18" d="M60.62,17.51A7.56,7.56,0,0,0,58.72,15c-1.72-1.55-3.66-2.21-4.33-1.47-.35.39-.27,1.11.15,1.93.66-.63,3-.44,4.57.95A7,7,0,0,0,60.62,17.51Z"/><path class="cls-18" d="M56.9,18.87a8.23,8.23,0,0,1-1.11-1.22,9,9,0,0,0-1.75-.4c-2.31-.29-4.27.27-4.4,1.26a1.29,1.29,0,0,0,.58,1.08c.68-.74,2.81-1.34,4.59-1.11a7.36,7.36,0,0,1,2.57.78Q57.14,19.08,56.9,18.87Z"/><path class="cls-18" d="M76,25.2a9,9,0,0,1,.88.7c1.72,1.56,2.57,3.42,1.9,4.16a1.23,1.23,0,0,1-1.17.26,6.15,6.15,0,0,0-1.84-3.91,7.75,7.75,0,0,0-1.63-1.15C74.54,25.27,75.28,25.25,76,25.2Z"/><path class="cls-18" d="M71.66,21.09a9.44,9.44,0,0,1,3-.09c2.3.3,4.06,1.4,3.92,2.39-.06.44-.51.79-1.19,1,0-.17,0-.29,0-.3.13-.9-1.47-1.88-3.58-2.18A4.39,4.39,0,0,1,71.66,21.09Z"/><path class="cls-18" d="M55.34,21.09a12.4,12.4,0,0,0-3-.09c-2.3.3-4.06,1.4-3.92,2.39.06.44.51.79,1.19,1l.05-.3c-.13-.9,1.47-1.88,3.58-2.18A4.39,4.39,0,0,0,55.34,21.09Z"/><path class="cls-18" d="M66.87,11.39C66,11,64.56,12.11,63.5,14c-1.06-1.88-2.53-3-3.37-2.6-.5.27-.67,1-.52,2.06.86-.29,3,.4,3.89,2.05.93-1.65,3-2.34,3.89-2.05C67.54,12.44,67.37,11.66,66.87,11.39Z"/><path class="cls-18" d="M66.38,17.51A7.56,7.56,0,0,1,68.28,15c1.72-1.55,3.66-2.21,4.33-1.47.35.39.27,1.11-.15,1.93-.66-.63-3-.44-4.57.95A7,7,0,0,1,66.38,17.51Z"/><path class="cls-18" d="M70.1,18.87a8.23,8.23,0,0,0,1.11-1.22,9,9,0,0,1,1.75-.4c2.31-.29,4.27.27,4.4,1.26a1.29,1.29,0,0,1-.58,1.08c-.68-.74-2.81-1.34-4.59-1.11a7.36,7.36,0,0,0-2.57.78Q69.86,19.08,70.1,18.87Z"/><path class="cls-7" d="M76.87,25.9a8.66,8.66,0,0,0-1.78-1.25c1.86.08,3.33-.43,3.45-1.27s-1.6-2.05-3.9-2.38a9.54,9.54,0,0,0-3,.09s1.15-.19,1.76-.27c2.3-.29,4.06-1.33,3.94-2.31S75.27,17,73,17.25a7.84,7.84,0,0,0-2.8.86c.18-.14.36-.28.53-.44,1.72-1.55,2.58-3.4,1.92-4.14S70,13.45,68.28,15a7.24,7.24,0,0,0-2,2.67l-.8-.19a9,9,0,0,0,1-1.53c1.07-2.06,1.22-4.1.34-4.56s-2.31.72-3.37,2.6c-1.06-1.88-2.53-3-3.37-2.6s-.73,2.5.34,4.56a9,9,0,0,0,1,1.53l-.8.19a7.24,7.24,0,0,0-2-2.67c-1.72-1.55-3.66-2.21-4.33-1.47s.2,2.59,1.92,4.14c.17.16.35.3.53.44a7.84,7.84,0,0,0-2.8-.86c-2.31-.29-4.27.27-4.4,1.26s1.64,2,3.94,2.31c.7.09,1.76.27,1.76.27a14,14,0,0,0-3-.09c-2.3.33-4,1.39-3.9,2.38s1.59,1.35,3.45,1.27a8.66,8.66,0,0,0-1.78,1.25c-1.72,1.56-2.57,3.42-1.9,4.16.53.58,1.86.27,3.24-.65a8.66,8.66,0,0,0-.51.91c-1,2.09-1.1,4.13-.2,4.56.55.27,1.35-.14,2.11-1A2,2,0,0,1,53.5,30c1,0,1.48.68,1.48,1.7a10.24,10.24,0,0,0,.22-4.25c1,.35,2.78-1.15,2.78-1.15V23.9A27.8,27.8,0,0,0,63.5,25,27.8,27.8,0,0,0,69,23.9v2.4s1.73,1.5,2.78,1.15A10.24,10.24,0,0,0,72,31.7c0-1,.48-1.7,1.48-1.7a2,2,0,0,1,.63,3.9c.76.84,1.56,1.25,2.11,1,.9-.43.81-2.47-.2-4.56a8.66,8.66,0,0,0-.51-.91c1.38.92,2.71,1.23,3.24.65C79.44,29.32,78.59,27.46,76.87,25.9Z"/><path class="cls-19" d="M23,76.58c0,.83,6.94,1.5,15.5,1.5S54,77.41,54,76.58s-6.94-1.5-15.5-1.5S23,75.75,23,76.58Z"/><rect class="cls-20" x="34.5" y="42" width="9" height="8"/><rect class="cls-21" x="34.5" y="42" width="9" height="5"/><rect class="cls-7" x="34.5" y="42" width="9" height="8"/><rect class="cls-11" x="32" y="36.5" width="14" height="9" rx="1" ry="1"/><rect class="cls-11" x="33" y="50" width="12" height="8" rx="1" ry="1"/><rect class="cls-13" x="34" y="38.5" width="10" height="5" rx="0.5" ry="0.5"/><path class="cls-14" d="M37,43.5H34.5A.5.5,0,0,1,34,43V39a.5.5,0,0,1,.5-.5H42Z"/><rect class="cls-7" x="34" y="38.5" width="10" height="5" rx="0.5" ry="0.5"/><path class="cls-22" d="M41,54H37a1,1,0,0,0-1,1v3h6V55A1,1,0,0,0,41,54Z"/><rect class="cls-23" x="25" y="61" width="26" height="15" rx="1" ry="1"/><path class="cls-24" d="M50,61H26a1,1,0,0,0-1,1v2a1,1,0,0,1,1-1H50a1,1,0,0,1,1,1V62A1,1,0,0,0,50,61Z"/><rect class="cls-21" x="25" y="65" width="26" height="8"/><rect class="cls-20" x="25" y="65" width="26" height="1.5"/><rect class="cls-7" x="25" y="65" width="26" height="8"/><path class="cls-11" d="M48,59H47a1,1,0,0,0-1,1v1h3V60A1,1,0,0,0,48,59Z"/><path class="cls-11" d="M30,59H28a1,1,0,0,0-1,1v1h4V60A1,1,0,0,0,30,59Z"/><rect class="cls-7" x="25" y="61" width="26" height="15" rx="1" ry="1"/><path class="cls-11" d="M46.5,70a1.5,1.5,0,0,0,0-3H45v3Z"/><path class="cls-25" d="M42.38,58H35.62a1,1,0,0,0-.9.55l-1,2A7,7,0,0,0,33,63.65V76H45V63.65a7,7,0,0,0-.74-3.13l-1-2A1,1,0,0,0,42.38,58Z"/><path class="cls-23" d="M44.26,60.52l-1-2a1,1,0,0,0-.9-.55H35.62a1,1,0,0,0-.9.55l-1,2A7,7,0,0,0,33,63.65v2a7,7,0,0,1,.74-3.13l1-2a1,1,0,0,1,.9-.55h6.76a1,1,0,0,1,.9.55l1,2A7,7,0,0,1,45,65.65v-2A7,7,0,0,0,44.26,60.52Z"/><path class="cls-7" d="M42.38,58H35.62a1,1,0,0,0-.9.55l-1,2A7,7,0,0,0,33,63.65V76H45V63.65a7,7,0,0,0-.74-3.13l-1-2A1,1,0,0,0,42.38,58Z"/><circle class="cls-21" cx="39" cy="69" r="6"/><path class="cls-20" d="M39,65a6,6,0,0,1,5.91,5A5.55,5.55,0,0,0,45,69a6,6,0,0,0-12,0,6.64,6.64,0,0,0,.09,1A6,6,0,0,1,39,65Z"/><circle class="cls-13" cx="39" cy="69" r="4"/><path class="cls-14" d="M36.17,71.83a4,4,0,0,1,5.66-5.66Z"/><circle class="cls-7" cx="39" cy="69" r="6"/><circle class="cls-7" cx="39" cy="69" r="4"/><line class="cls-7" x1="36" y1="61" x2="42" y2="61"/><line class="cls-7" x1="29" y1="65" x2="29" y2="73"/><line class="cls-7" x1="28" y1="63" x2="31" y2="63"/></svg>