<?xml version="1.0" encoding="UTF-8" standalone="no"?>
<svg
   xmlns:dc="http://purl.org/dc/elements/1.1/"
   xmlns:cc="http://creativecommons.org/ns#"
   xmlns:rdf="http://www.w3.org/1999/02/22-rdf-syntax-ns#"
   xmlns:svg="http://www.w3.org/2000/svg"
   xmlns="http://www.w3.org/2000/svg"
   xmlns:sodipodi="http://sodipodi.sourceforge.net/DTD/sodipodi-0.dtd"
   xmlns:inkscape="http://www.inkscape.org/namespaces/inkscape"
   sodipodi:docname="plant.svg"
   inkscape:version="1.0 (4035a4f, 2020-05-01)"
   id="svg7006"
   version="1.1"
   viewBox="0 0 45.46867 51.513885"
   height="51.513885mm"
   width="45.46867mm">
  <defs
     id="defs7000" />
  <sodipodi:namedview
     inkscape:window-maximized="0"
     inkscape:window-y="563"
     inkscape:window-x="0"
     inkscape:window-height="785"
     inkscape:window-width="1248"
     fit-margin-bottom="0"
     fit-margin-right="0"
     fit-margin-left="0"
     fit-margin-top="0"
     showgrid="false"
     inkscape:document-rotation="0"
     inkscape:current-layer="layer1"
     inkscape:document-units="mm"
     inkscape:cy="200.20622"
     inkscape:cx="51.639332"
     inkscape:zoom="0.35"
     inkscape:pageshadow="2"
     inkscape:pageopacity="0.0"
     borderopacity="1.0"
     bordercolor="#666666"
     pagecolor="#ffffff"
     id="base" />
  <metadata
     id="metadata7003">
    <rdf:RDF>
      <cc:Work
         rdf:about="">
        <dc:format>image/svg+xml</dc:format>
        <dc:type
           rdf:resource="http://purl.org/dc/dcmitype/StillImage" />
        <dc:title></dc:title>
      </cc:Work>
    </rdf:RDF>
  </metadata>
  <g
     transform="translate(-92.170427,-95.195438)"
     id="layer1"
     inkscape:groupmode="layer"
     inkscape:label="Ebene 1">
    <g
       transform="matrix(0.26458333,0,0,0.26458333,-17.620564,82.03682)"
       id="db976b58-83c4-4bad-bfc1-713fe8b9d2f6"
       data-name="flowers">
      <path
         style="stroke:#cccccc;stroke-opacity:1"
         d="m 626,388.09 c 0,0 -27.48,-48.69 -68.88,-62.72 a 84.75,84.75 0 0 1 -42.91,-32.1 142.27,142.27 0 0 1 -12.66,-22.77"
         transform="translate(-56.96,-144.15)"
         fill="none"
         stroke="#535461"
         stroke-miterlimit="10"
         stroke-width="2"
         id="path2871" />
      <path
         d="m 475.53,261.5 c 4.71,4.58 26.68,9.31 26.68,9.31 0,0 -5.39,-21.81 -10.1,-26.39 a 11.90192,11.90192 0 0 0 -16.58,17.08 z"
         transform="translate(-56.96,-144.15)"
         fill="#eb7260"
         id="path2873" />
      <path
         d="m 488,301 c 6.45,1.28 27.47,-6.69 27.47,-6.69 0,0 -16.47,-15.4 -22.88,-16.68 A 11.908243,11.908243 0 0 0 488,301 Z"
         transform="translate(-56.96,-144.15)"
         fill="#eb7260"
         id="path2875" />
      <path
         d="m 533.2,343.69 c 6.21,-2.15 20.33,-19.63 20.33,-19.63 0,0 -21.9,-5 -28.11,-2.86 a 11.9,11.9 0 1 0 7.78,22.49 z"
         transform="translate(-56.96,-144.15)"
         fill="#eb7260"
         id="path2877" />
      <path
         d="m 574.72,368.31 c 6.48,-1.07 23.35,-15.92 23.35,-15.92 0,0 -20.74,-8.64 -27.23,-7.57 a 11.904143,11.904143 0 0 0 3.88,23.49 z"
         transform="translate(-56.96,-144.15)"
         fill="#eb7260"
         id="path2879" />
      <path
         d="m 533.73,277.24 c 0,6.58 -11.89,25.64 -11.89,25.64 0,0 -11.91,-19.05 -11.91,-25.63 a 11.9,11.9 0 0 1 23.8,0 z"
         transform="translate(-56.96,-144.15)"
         fill="#eb7260"
         id="path2881" />
      <path
         d="m 581.92,306.64 c -2,6.28 -19,20.91 -19,20.91 0,0 -5.66,-21.75 -3.7,-28 a 11.903261,11.903261 0 0 1 22.72,7.11 z"
         transform="translate(-56.96,-144.15)"
         fill="#eb7260"
         id="path2883" />
      <path
         d="m 624.83,341.64 c -0.87,6.52 -15.21,23.83 -15.21,23.83 0,0 -9.25,-20.48 -8.38,-27 a 11.901019,11.901019 0 1 1 23.59,3.17 z"
         transform="translate(-56.96,-144.15)"
         fill="#eb7260"
         id="path2885" />
      <path
         d="m 475.53,261.5 c 4.71,4.58 26.68,9.31 26.68,9.31 0,0 -5.39,-21.81 -10.1,-26.39 a 11.90192,11.90192 0 0 0 -16.58,17.08 z"
         transform="translate(-56.96,-144.15)"
         opacity="0.25"
         id="path2887" />
      <path
         d="m 488,301 c 6.45,1.28 27.47,-6.69 27.47,-6.69 0,0 -16.47,-15.4 -22.88,-16.68 A 11.908243,11.908243 0 0 0 488,301 Z"
         transform="translate(-56.96,-144.15)"
         opacity="0.25"
         id="path2889" />
      <path
         d="m 533.2,343.69 c 6.21,-2.15 20.33,-19.63 20.33,-19.63 0,0 -21.9,-5 -28.11,-2.86 a 11.9,11.9 0 1 0 7.78,22.49 z"
         transform="translate(-56.96,-144.15)"
         opacity="0.25"
         id="path2891" />
      <path
         d="m 574.72,368.31 c 6.48,-1.07 23.35,-15.92 23.35,-15.92 0,0 -20.74,-8.64 -27.23,-7.57 a 11.904143,11.904143 0 0 0 3.88,23.49 z"
         transform="translate(-56.96,-144.15)"
         opacity="0.25"
         id="path2893" />
      <path
         d="m 533.73,277.24 c 0,6.58 -11.89,25.64 -11.89,25.64 0,0 -11.91,-19.05 -11.91,-25.63 a 11.9,11.9 0 0 1 23.8,0 z"
         transform="translate(-56.96,-144.15)"
         opacity="0.25"
         id="path2895" />
      <path
         d="m 581.92,306.64 c -2,6.28 -19,20.91 -19,20.91 0,0 -5.66,-21.75 -3.7,-28 a 11.903261,11.903261 0 0 1 22.72,7.11 z"
         transform="translate(-56.96,-144.15)"
         opacity="0.25"
         id="path2897" />
      <path
         d="m 624.83,341.64 c -0.87,6.52 -15.21,23.83 -15.21,23.83 0,0 -9.25,-20.48 -8.38,-27 a 11.901019,11.901019 0 1 1 23.59,3.17 z"
         transform="translate(-56.96,-144.15)"
         opacity="0.25"
         id="path2899" />
      <path
         style="fill:none;fill-opacity:1;stroke:#cccccc;stroke-opacity:1"
         d="m 624.43,387.13 c 0,0 -5.4,-55.66 -37.55,-85.26 a 84.72,84.72 0 0 1 -26.23,-46.73 142.25,142.25 0 0 1 -2.34,-25.95"
         transform="translate(-56.96,-144.15)"
         fill="none"
         stroke="#535461"
         stroke-miterlimit="10"
         stroke-width="2"
         id="path2901" />
      <path
         d="m 538.16,210.41 c 2.45,6.1 20.62,19.33 20.62,19.33 0,0 3.91,-22.13 1.45,-28.23 a 11.9,11.9 0 1 0 -22.07,8.9 z"
         transform="translate(-56.96,-144.15)"
         fill="#eb7260"
         id="path2903" />
      <path
         d="m 533.52,251.54 c 5.38,3.78 27.81,5 27.81,5 0,0 -8.74,-20.7 -14.11,-24.48 a 11.903475,11.903475 0 1 0 -13.7,19.47 z"
         transform="translate(-56.96,-144.15)"
         fill="#eb7260"
         id="path2905" />
      <path
         d="m 557.58,308.93 c 6.55,0.55 26.54,-9.72 26.54,-9.72 0,0 -18,-13.45 -24.55,-14 a 11.902084,11.902084 0 1 0 -2,23.72 z"
         transform="translate(-56.96,-144.15)"
         fill="#eb7260"
         id="path2907" />
      <path
         d="m 585.56,348.25 c 6.36,1.65 27.8,-5.09 27.8,-5.09 0,0 -15.47,-16.3 -21.83,-18 a 11.9,11.9 0 1 0 -6,23 z"
         transform="translate(-56.96,-144.15)"
         fill="#eb7260"
         id="path2909" />
      <path
         d="m 585,248.39 c -2.66,6 -21.26,18.62 -21.26,18.62 0,0 -3.17,-22.24 -0.51,-28.25 a 11.902414,11.902414 0 0 1 21.77,9.63 z"
         transform="translate(-56.96,-144.15)"
         fill="#eb7260"
         id="path2911" />
      <path
         d="m 617.13,294.8 c -4.34,4.93 -25.86,11.4 -25.86,11.4 0,0 3.63,-22.17 8,-27.11 a 11.904371,11.904371 0 1 1 17.89,15.71 z"
         transform="translate(-56.96,-144.15)"
         fill="#eb7260"
         id="path2913" />
      <path
         d="m 642.18,344.18 c -3.44,5.6 -23.56,15.62 -23.56,15.62 0,0 -0.17,-22.47 3.27,-28.08 a 11.91,11.91 0 0 1 20.29,12.46 z"
         transform="translate(-56.96,-144.15)"
         fill="#eb7260"
         id="path2915" />
    </g>
  </g>
</svg>
