<svg id="Layer_1" data-name="Layer 1" xmlns="http://www.w3.org/2000/svg" viewBox="0 0 100 100"><defs><style>.cls-1{fill:#e8f4fa;}.cls-2{fill:#fff;}.cls-3{fill:#ff866e;}.cls-4{fill:#ffa694;}.cls-5{fill:#4acfff;}.cls-6{fill:#80ddff;}.cls-7{fill:#fff48c;}.cls-8{fill:#fffacf;}.cls-9{fill:#020202;opacity:0.15;}.cls-10{fill:#daedf7;}.cls-11{fill:#c0dceb;}.cls-12,.cls-19{fill:none;}.cls-12,.cls-13,.cls-19{stroke:#45413c;}.cls-12,.cls-13{stroke-linejoin:round;}.cls-13{fill:#525252;}.cls-14{fill:#ff6242;}.cls-15{fill:#8ca4b8;}.cls-16{fill:#adc4d9;}.cls-17{fill:#00b8f0;}.cls-18{fill:#ffe500;}.cls-19{stroke-miterlimit:10;}</style></defs><title>polaroid</title><g id="_Group_" data-name="&lt;Group&gt;"><circle class="cls-1" cx="50" cy="50" r="40"/></g><polygon class="cls-1" points="74.37 55.73 28.55 55.73 31.54 48.26 71.38 48.26 74.37 55.73"/><polygon class="cls-2" points="72.16 50.2 71.38 48.26 31.54 48.26 30.76 50.2 72.16 50.2"/><polygon class="cls-3" points="46.99 48.26 50.17 48.26 49.35 55.73 45.05 55.73 46.99 48.26"/><polygon class="cls-4" points="49.96 50.2 50.17 48.26 46.99 48.26 46.49 50.2 49.96 50.2"/><polygon class="cls-5" points="56.52 48.26 53.35 48.26 54.17 55.73 58.47 55.73 56.52 48.26"/><polygon class="cls-6" points="57.03 50.2 56.52 48.26 53.35 48.26 53.56 50.2 57.03 50.2"/><polygon class="cls-7" points="53.35 48.26 50.17 48.26 49.35 55.73 54.17 55.73 53.35 48.26"/><polygon class="cls-8" points="53.56 50.2 53.35 48.26 50.17 48.26 49.96 50.2 53.56 50.2"/><path class="cls-9" d="M71.49,81.45c0,1-9.27,1.73-20.7,1.73s-20.7-.77-20.7-1.73,9.26-1.72,20.7-1.72S71.49,80.5,71.49,81.45Z"/><path class="cls-10" d="M72.62,67.41a2,2,0,0,1-2,1.71H32.27a2,2,0,0,1-2-1.71L28.55,55.73H74.37Z"/><polygon class="cls-11" points="74.11 57.51 74.37 55.73 28.55 55.73 28.82 57.51 74.11 57.51"/><path class="cls-12" d="M72.62,67.41a2,2,0,0,1-2,1.71H32.27a2,2,0,0,1-2-1.71L28.55,55.73H74.37Z"/><path class="cls-13" d="M34,62.2H68.92a0,0,0,0,1,0,0v2.62a1,1,0,0,1-1,1H35a1,1,0,0,1-1-1V62.2A0,0,0,0,1,34,62.2Z"/><rect class="cls-10" x="32.53" y="59.08" width="37.85" height="3.12" rx="1" ry="1"/><path class="cls-2" d="M69.24,59.08H33.68a1.15,1.15,0,0,0-1.15,1.15v.54a1.17,1.17,0,0,0,.08.37,1.13,1.13,0,0,1,1.07-.79H69.24a1.13,1.13,0,0,1,1.07.79,1.17,1.17,0,0,0,.08-.37v-.54A1.15,1.15,0,0,0,69.24,59.08Z"/><rect class="cls-12" x="32.53" y="59.08" width="37.85" height="3.12" rx="1" ry="1"/><polygon class="cls-12" points="74.37 55.73 28.55 55.73 31.54 48.26 71.38 48.26 74.37 55.73"/><path class="cls-1" d="M34.12,27.34H68.8a2.58,2.58,0,0,1,2.58,2.58V48.26a0,0,0,0,1,0,0H31.54a0,0,0,0,1,0,0V29.92A2.58,2.58,0,0,1,34.12,27.34Z"/><path class="cls-2" d="M68.41,27.34H34.51a3,3,0,0,0-3,3v2.3a3,3,0,0,1,3-3h33.9a3,3,0,0,1,3,3v-2.3A3,3,0,0,0,68.41,27.34Z"/><path class="cls-12" d="M34.12,27.34H68.8a2.58,2.58,0,0,1,2.58,2.58V48.26a0,0,0,0,1,0,0H31.54a0,0,0,0,1,0,0V29.92A2.58,2.58,0,0,1,34.12,27.34Z"/><path class="cls-14" d="M40.5,41.83a3,3,0,1,1-3-3A3,3,0,0,1,40.5,41.83Z"/><path class="cls-3" d="M37.51,40.42a3,3,0,0,1,2.87,2.2,2.9,2.9,0,0,0,.12-.79,3,3,0,1,0-6,0,3.35,3.35,0,0,0,.11.79A3,3,0,0,1,37.51,40.42Z"/><path class="cls-12" d="M40.5,41.83a3,3,0,1,1-3-3A3,3,0,0,1,40.5,41.83Z"/><path class="cls-15" d="M66.9,43.77a2,2,0,1,1-2-2A2,2,0,0,1,66.9,43.77Z"/><path class="cls-16" d="M64.91,43.34a2,2,0,0,1,1.83,1.21,2,2,0,0,0,.16-.78,2,2,0,1,0-3.83.78A2,2,0,0,1,64.91,43.34Z"/><path class="cls-12" d="M66.9,43.77a2,2,0,1,1-2-2A2,2,0,0,1,66.9,43.77Z"/><rect class="cls-17" x="61.78" y="31.39" width="6.35" height="6.35" rx="1" ry="1"/><path class="cls-5" d="M67,31.38h-4a1.15,1.15,0,0,0-1.15,1.15v4a1.13,1.13,0,0,0,.3.76l5.66-5.65A1.13,1.13,0,0,0,67,31.38Z"/><rect class="cls-12" x="61.78" y="31.39" width="6.35" height="6.35" rx="1" ry="1"/><rect class="cls-14" x="46.99" y="27.34" width="3.17" height="20.92"/><rect class="cls-3" x="46.99" y="27.34" width="3.17" height="2.3"/><rect class="cls-18" x="50.17" y="27.34" width="3.17" height="20.92"/><rect class="cls-7" x="50.17" y="27.34" width="3.17" height="2.3"/><rect class="cls-17" x="53.35" y="27.34" width="3.17" height="20.92"/><rect class="cls-5" x="53.35" y="27.34" width="3.17" height="2.3"/><rect class="cls-19" x="46.99" y="27.34" width="3.17" height="20.92"/><rect class="cls-19" x="50.17" y="27.34" width="3.17" height="20.92"/><rect class="cls-19" x="53.35" y="27.34" width="3.17" height="20.92"/><path class="cls-17" d="M59.1,38.29A7.14,7.14,0,1,1,52,31.15,7.15,7.15,0,0,1,59.1,38.29Z"/><path class="cls-5" d="M34.77,74.16a1.15,1.15,0,0,1-.93-1.84A17.27,17.27,0,0,0,36.69,62.2h29c0,3.56.79,7.34,2.85,10.12a1.15,1.15,0,0,1,.1,1.21,1.17,1.17,0,0,1-1,.63Z"/><path class="cls-6" d="M54.47,62.2H36.69a17.27,17.27,0,0,1-2.85,10.12,1.15,1.15,0,0,0,.92,1.84h7.76Z"/><path class="cls-2" d="M33.84,72.32a1.15,1.15,0,0,0,.92,1.84h32.8a1.15,1.15,0,0,0,.93-1.84,13,13,0,0,1-1.69-3.2H35.53A13,13,0,0,1,33.84,72.32Z"/><path class="cls-12" d="M34.77,74.16a1.15,1.15,0,0,1-.93-1.84A17.27,17.27,0,0,0,36.69,62.2h29c0,3.56.79,7.34,2.85,10.12a1.15,1.15,0,0,1,.1,1.21,1.17,1.17,0,0,1-1,.63Z"/><path class="cls-5" d="M56.82,33.09A7.12,7.12,0,0,0,46.75,43.15Z"/><path class="cls-19" d="M59.1,38.29A7.14,7.14,0,1,1,52,31.15,7.15,7.15,0,0,1,59.1,38.29Z"/><polygon class="cls-19" points="46.99 48.26 50.17 48.26 49.35 55.73 45.05 55.73 46.99 48.26"/><polygon class="cls-19" points="56.52 48.26 53.35 48.26 54.17 55.73 58.47 55.73 56.52 48.26"/><polygon class="cls-19" points="53.35 48.26 50.17 48.26 49.35 55.73 54.17 55.73 53.35 48.26"/></svg>