<svg id="Layer_1" data-name="Layer 1" xmlns="http://www.w3.org/2000/svg" viewBox="0 0 100 100"><defs><style>.cls-1{fill:#e8f4fa;}.cls-2,.cls-31{fill:#fff;}.cls-12,.cls-13,.cls-15,.cls-16,.cls-17,.cls-18,.cls-19,.cls-2,.cls-20,.cls-21,.cls-22,.cls-32,.cls-5,.cls-7,.cls-9{stroke:#45413c;}.cls-12,.cls-13,.cls-15,.cls-16,.cls-17,.cls-18,.cls-19,.cls-2,.cls-20,.cls-21,.cls-22,.cls-5,.cls-7,.cls-9{stroke-linejoin:round;}.cls-3,.cls-7{fill:#d18660;}.cls-4{fill:#bd704a;}.cls-5{fill:none;}.cls-12,.cls-15,.cls-16,.cls-17,.cls-18,.cls-19,.cls-20,.cls-21,.cls-22,.cls-5,.cls-7,.cls-9{stroke-linecap:round;}.cls-20,.cls-6{fill:#dea47a;}.cls-8{fill:#45413c;}.cls-9{fill:#87898c;}.cls-10,.cls-16{fill:#f0c2a1;}.cls-11{fill:#020202;opacity:0.15;}.cls-12,.cls-13{fill:#915e3a;}.cls-14{fill:#bf8256;}.cls-15,.cls-25{fill:#00b8f0;}.cls-17,.cls-32{fill:#ffcebf;}.cls-18{fill:#a86c4d;}.cls-19,.cls-28{fill:#ffe500;}.cls-21{fill:#debb7e;}.cls-22,.cls-23{fill:#f7e5c6;}.cls-24{fill:#f0d5a8;}.cls-26{fill:#009fd9;}.cls-27{fill:#ffb59e;}.cls-29{fill:#fff48c;}.cls-30{fill:#f0f0f0;}.cls-32{stroke-miterlimit:10;}</style></defs><title>postman-receive-letter</title><circle class="cls-1" cx="50" cy="56.03" r="40"/><path class="cls-2" d="M63.12,6.5A2.53,2.53,0,0,0,60.59,4H39.11A2.53,2.53,0,0,0,36.58,6.5V26.08a2.53,2.53,0,0,0,2.53,2.53h4.64a1,1,0,0,1,1,1.05v2.73a1.05,1.05,0,0,0,1.79.75l4.22-4.22a1,1,0,0,1,.74-.31h9a2.53,2.53,0,0,0,2.53-2.53Z"/><polygon class="cls-3" points="27.78 85.93 28.05 80.09 23.99 80.09 23.99 85.93 27.78 85.93"/><polygon class="cls-4" points="27.91 83.01 28.05 80.09 23.99 80.09 23.99 83.01 27.91 83.01"/><polygon class="cls-5" points="27.78 85.93 28.05 80.09 23.99 80.09 23.99 85.93 27.78 85.93"/><polygon class="cls-3" points="32.83 85.93 32.56 80.09 36.62 80.09 36.62 85.93 32.83 85.93"/><polygon class="cls-4" points="32.7 83.01 32.56 80.09 36.62 80.09 36.62 83.01 32.7 83.01"/><polygon class="cls-5" points="32.83 85.93 32.56 80.09 36.62 80.09 36.62 85.93 32.83 85.93"/><path class="cls-6" d="M39.78,59.64a10.11,10.11,0,1,0-20.22,0V60.9h3.79v8.21h13.9V60.9h2.53Z"/><path class="cls-7" d="M30.94,32.27a6.31,6.31,0,0,0-6.32,6.31v1.27c-1.81,0-1.68,3.16.31,3.16h0a6.3,6.3,0,0,0,12.31-1.89V38.58A6.31,6.31,0,0,0,30.94,32.27Z"/><path class="cls-8" d="M29.83,39.85a.79.79,0,1,0,.79.79.79.79,0,0,0-.79-.79Z"/><path class="cls-8" d="M34.57,39.85a.79.79,0,1,0,0,1.58.79.79,0,1,0,0-1.58Z"/><path class="cls-4" d="M29,42.53a.63.63,0,1,1-.63-.63A.63.63,0,0,1,29,42.53Z"/><path class="cls-5" d="M30.94,44.33a1.92,1.92,0,0,0,2.23.21,1.94,1.94,0,0,0,.29-.21"/><path class="cls-9" d="M23.35,41.27h0V34.16h3.16v4A3.16,3.16,0,0,1,23.35,41.27Z"/><path class="cls-10" d="M29.67,49.53A10.11,10.11,0,0,0,19.56,59.64V60.9h.18a10.1,10.1,0,0,1,19.86,0h.18V59.64A10.11,10.11,0,0,0,29.67,49.53Z"/><path class="cls-5" d="M39.78,59.64a10.11,10.11,0,1,0-20.22,0V60.9h3.79v8.21h13.9V60.9h2.53Z"/><ellipse class="cls-11" cx="31.11" cy="89.22" rx="10.5" ry="1.57"/><path class="cls-12" d="M26.35,30.37h7.9a3,3,0,0,1,3,3v2.69a0,0,0,0,1,0,0H23.35a0,0,0,0,1,0,0V33.37A3,3,0,0,1,26.35,30.37Z"/><path class="cls-13" d="M30.3,30.37s-3.79,1.9-3.79,5.05"/><path class="cls-13" d="M30.3,30.37s3.79,1.9,3.79,5.05"/><path class="cls-6" d="M27.68,80.48a1,1,0,0,0,1.05-1L29,74.8a1.32,1.32,0,0,1,2.63,0l.25,4.69a1,1,0,0,0,1.05,1H36.2a1,1,0,0,0,1-1V67.85H23.35V79.43a1,1,0,0,0,1,1Z"/><rect class="cls-14" x="23.35" y="69.11" width="13.9" height="2.53"/><path class="cls-5" d="M29,74.8a1.32,1.32,0,0,1,2.63,0l.25,4.69a1,1,0,0,0,1.05,1H36.2a1,1,0,0,0,1-1V67.85H23.35V79.43a1,1,0,0,0,1,1h3.28a1,1,0,0,0,1.05-1Z"/><path class="cls-9" d="M39.15,88.7c0-2.27-2.21-3.16-4.17-3.16H33.25a1,1,0,0,0-1,1v1.06a1,1,0,0,0,1,1Z"/><path class="cls-9" d="M30.3,88.7c0-2.27-2.21-3.16-4.16-3.16H24.4a1,1,0,0,0-1,1v1.06a1,1,0,0,0,1,1Z"/><path class="cls-7" d="M23.35,72.27a1.9,1.9,0,1,1-3.79,0V60.9h3.79Z"/><line class="cls-15" x1="37.25" y1="60.9" x2="37.25" y2="57.11"/><line class="cls-15" x1="23.35" y1="60.9" x2="23.35" y2="57.11"/><path class="cls-7" d="M29.67,49.53a10.11,10.11,0,0,0-2.82.4l3.45,5.92,3.24-5.55A10,10,0,0,0,29.67,49.53Z"/><path class="cls-16" d="M35.3,51.24a9.59,9.59,0,0,0-1.76-.94L30.3,55.85a10.73,10.73,0,0,1,5.08-2.44.51.51,0,0,0,.41-.68Z"/><path class="cls-16" d="M30.3,55.85l-3.45-5.92a11.15,11.15,0,0,0-1.26.46l-.78,2.34a.52.52,0,0,0,.42.68A10.7,10.7,0,0,1,30.3,55.85Z"/><line class="cls-17" x1="30.3" y1="55.85" x2="30.3" y2="59"/><rect class="cls-18" x="23.35" y="67.22" width="13.9" height="2.53"/><rect class="cls-19" x="28.41" y="67.22" width="3.79" height="2.53"/><path class="cls-20" d="M23.35,36.06,24.79,38a1.05,1.05,0,0,0,1.15.37,21.92,21.92,0,0,1,10.61,0A1.05,1.05,0,0,0,37.7,36.8l-.45-.74C34.73,34.79,28.41,34.79,23.35,36.06Z"/><rect class="cls-21" x="32.2" y="57.11" width="12.63" height="12.64" rx="1" ry="1"/><path class="cls-7" d="M44,67a1.9,1.9,0,0,0-3.38,1.72L41.28,70a1.1,1.1,0,0,0,.61.53,1.13,1.13,0,0,0,.81-.06l1.5-.77a1,1,0,0,0,.47-1.41Z"/><path class="cls-22" d="M36.62,57.11h3.79a0,0,0,0,1,0,0v5.19a.5.5,0,0,1-.5.5H37.12a.5.5,0,0,1-.5-.5V57.11A0,0,0,0,1,36.62,57.11Z"/><rect class="cls-23" x="40.37" y="10.92" width="18.95" height="11.37" rx="1" ry="1"/><path class="cls-24" d="M48.77,17.85a2.09,2.09,0,0,0,2.16,0l8.4-5V12a1,1,0,0,0-1-1.05H41.42A1,1,0,0,0,40.37,12v.85Z"/><path class="cls-22" d="M58.28,10.92H41.42a1,1,0,0,0-.64.24l8,4.8a2.09,2.09,0,0,0,2.16,0l8-4.8A1.05,1.05,0,0,0,58.28,10.92Z"/><rect class="cls-5" x="40.37" y="10.92" width="18.95" height="11.37" rx="1" ry="1"/><path class="cls-17" d="M61,72.27a1.9,1.9,0,1,0,3.79,0V60.9H61Z"/><ellipse class="cls-11" cx="69.44" cy="89.22" rx="10.5" ry="1.57"/><path class="cls-25" d="M72.49,87,71.83,74.8a1.32,1.32,0,0,0-2.63,0L68.54,87h-5V67.85H77.46V87Z"/><rect class="cls-26" x="63.57" y="69.11" width="13.9" height="2.53" transform="translate(141.03 140.75) rotate(180)"/><path class="cls-5" d="M72.49,87,71.83,74.8a1.32,1.32,0,0,0-2.63,0L68.54,87h-5V67.85H77.46V87Z"/><path class="cls-21" d="M61.67,88.7c0-2.27,2.21-3.16,4.17-3.16h2.78v2.11a1,1,0,0,1-1.05,1Z"/><path class="cls-21" d="M70.51,88.7c0-2.27,2.22-3.16,4.17-3.16h2.78v2.11a1,1,0,0,1-1,1Z"/><path class="cls-17" d="M70.51,32.27a6.31,6.31,0,0,1,6.32,6.31v1.27c1.81,0,1.68,3.16-.31,3.16h0A6.3,6.3,0,0,1,64.2,41.11V38.58A6.31,6.31,0,0,1,70.51,32.27Z"/><path class="cls-8" d="M71.62,39.21a.79.79,0,1,0,.79.79.79.79,0,0,0-.79-.79Z"/><path class="cls-8" d="M66.88,39.21a.79.79,0,0,0,0,1.58.79.79,0,0,0,0-1.58Z"/><path class="cls-27" d="M72.41,42.53A.63.63,0,1,0,73,41.9.63.63,0,0,0,72.41,42.53Z"/><path class="cls-5" d="M70.83,43.58a2.39,2.39,0,0,1-2.79.26,4.17,4.17,0,0,1-.37-.26"/><path class="cls-28" d="M64.2,38c-1.27-.63-.52-3.89.63-4.42L64,32.87A1,1,0,0,1,64.66,31h7.75a5.05,5.05,0,0,1,5,5.06v3.79c-3.79,0-3.71-3-6.95-3.79-.08.73-1,1.43-2.52,1.89a1.86,1.86,0,0,0-1.9-1.89Z"/><path class="cls-29" d="M77.43,35.47a5.06,5.06,0,0,0-5-4.47H64.66A1,1,0,0,0,64,32.87l.82.66h7.48A7.73,7.73,0,0,1,77.43,35.47Z"/><path class="cls-5" d="M64.2,38c-1.27-.63-.52-3.89.63-4.42L64,32.87A1,1,0,0,1,64.66,31h7.75a5.05,5.05,0,0,1,5,5.06v3.79c-3.79,0-3.71-3-6.95-3.79-.08.73-1,1.43-2.52,1.89a1.86,1.86,0,0,0-1.9-1.89Z"/><path class="cls-30" d="M61,59.64a10.11,10.11,0,1,1,20.21,0V60.9H77.46v8.21H63.57V60.9H61Z"/><path class="cls-31" d="M71.15,49.53A10.1,10.1,0,0,0,61,59.64V60.9h.18a10.1,10.1,0,0,1,19.86,0h.17V59.64A10.1,10.1,0,0,0,71.15,49.53Z"/><path class="cls-5" d="M61,59.64a10.11,10.11,0,1,1,20.21,0V60.9H77.46v8.21H63.57V60.9H61Z"/><line class="cls-15" x1="63.57" y1="60.9" x2="63.57" y2="57.11"/><line class="cls-15" x1="77.46" y1="60.9" x2="77.46" y2="57.11"/><path class="cls-17" d="M70.51,53.32a3.14,3.14,0,0,1-3.12-3.06,10,10,0,0,1,3.76-.73,10.22,10.22,0,0,1,2.48.32A3.14,3.14,0,0,1,70.51,53.32Z"/><path class="cls-32" d="M77.46,60.9v.63a5.68,5.68,0,0,1-5,5.69H71.15a1.9,1.9,0,1,0,0,3.79h1.26c4.18,0,8.84-4.05,8.84-9.48V60.9Z"/></svg>