<?xml version="1.0" encoding="UTF-8"?>
<svg id="bcdff026-9b21-4da7-924c-007c0e295dcb" width="921.67" height="831.3" data-name="Layer 1" version="1.1"
  viewBox="0 0 921.67 831.3" xmlns="http://www.w3.org/2000/svg" xmlns:cc="http://creativecommons.org/ns#"
  xmlns:dc="http://purl.org/dc/elements/1.1/" xmlns:rdf="http://www.w3.org/1999/02/22-rdf-syntax-ns#">
  <style>
    .signal1,
    .signal2,
    .signal3 {
      opacity: 0;
    }

    .signal1 {
      animation: 4s linear infinite blink;
    }

    .signal2 {
      animation: 4s linear 0.5s infinite blink;
    }

    .signal3 {
      animation: 4s linear 1s infinite blink;
    }

    @keyframes blink {
      0% {
        opacity: 0;
      }

      10% {
        opacity: 1;
      }

      60% {
        opacity: 1;
      }

      70% {
        opacity: 0;
      }

      100% {
        opacity: 0;
      }
    }
  </style>
  <g>
    <circle cx="436.47" cy="576.56" r="216.46" fill="#f5f5f5" />
    <ellipse cx="405.89" cy="803.23" rx="205.41" ry="28.061" fill="#3e3e3e" />
    <ellipse transform="translate(-194.03 154.86) rotate(-18.58)" cx="550.94" cy="262.31" rx="14.54" ry="7.0581"
      fill="#2d2c2c" />
  </g>
  <path transform="translate(-139.16 -34.352)"
    d="m521.46 294.48 76.275-34.754s129.22-48.844 239.77 70.385c0 0-49.542-31.803-87.094 10.207 0 0-70.662-19.117-129.96 51.124 0 0-92.747 14.045-131.38 63.265 0 0-43.064-6.6228-60.205 47.97a1.6372 1.6372 0 0 1-2.7087 0.67441 1.6266 1.6266 0 0 1-0.46047-0.85878c-1.6094-8.4373-20.549-120.99 95.764-208.01z"
    fill="#eb7260" />
  <path transform="translate(-139.16 -34.352)"
    d="m521.46 294.48 76.275-34.754s129.22-48.844 239.77 70.385c0 0-49.542-31.803-87.094 10.207 0 0-70.662-19.117-129.96 51.124 0 0-92.747 14.045-131.38 63.265 0 0-43.064-6.6228-60.205 47.97a1.6372 1.6372 0 0 1-2.7087 0.67441 1.6266 1.6266 0 0 1-0.46047-0.85878c-1.6094-8.4373-20.549-120.99 95.764-208.01z"
    opacity=".2" />
  <polygon points="405.52 404.12 437.28 409.42 447.87 359.13 422.29 348.54" fill="#2d2c2c" />
  <g fill="#a0616a">
    <circle cx="449.2" cy="366.63" r="27.35" />
    <path transform="translate(-139.16 -34.352)"
      d="m576.45 416.42s2.6468 33.526-17.645 36.173 17.645 62.64 27.35 61.758 27.35-65.287 27.35-65.287-22.939-15.881-14.998-29.997z" />
    <path transform="translate(-139.16 -34.352)"
      d="m542.48 538.61s3.529 25.585 14.116 25.585-7.0581-29.114-7.0581-29.114z" />
    <path transform="translate(-139.16 -34.352)"
      d="m696.88 564.2s26.468 22.056 22.939 29.114-26.468-7.9403-28.232-25.585z" />
    <path transform="translate(-139.16 -34.352)"
      d="m537.19 648.9-16.763 62.64-18.527 75.874h17.645s6.1758-23.821 17.645-36.173c0 0 11.469-19.41 11.469-32.644l27.35-64.405z" />
    <path transform="translate(-139.16 -34.352)"
      d="m609.53 652.42 5.2936 59.111s-0.88226 42.348 0 52.053 0 23.821 0 23.821h15.881s14.998-52.053 10.587-80.285l6.1758-66.169z" />
  </g>
  <g fill="#3e3e3e">
    <path transform="translate(-139.16 -34.352)"
      d="m588.36 490.09s-23.77-18.837-17.62-45.15c0 0-23.846 1.0373-33.551 10.742s2.6468 42.348 2.6468 42.348 21.174 35.29 17.645 51.171-41.466 99.695-29.114 104.99 87.343 23.821 125.28-7.0581c0 0 9.7048-87.343-29.114-115.58v-22.056s7.058-6.1758 3.529-22.056c0 0 14.998-27.35 6.1758-32.644s-29.089-13.051-29.089-13.051 1.7387 39.519-16.789 48.341z" />
    <path transform="translate(-139.16 -34.352)"
      d="m542.48 455.68s-11.469-1.7645-22.939 14.998-41.466 43.231-27.35 56.464 52.053 22.056 52.053 22.056l8.8226-15.881-37.937-18.527 31.761-23.821z" />
    <path transform="translate(-139.16 -34.352)"
      d="m629.83 455.68s12.352 0 17.645 14.998 36.173 66.169 36.173 66.169l17.645 27.35-12.352 14.116-34.408-38.819-32.644-53.818z" />
  </g>
  <g fill="#2d2c2c">
    <path transform="translate(-139.16 -34.352)"
      d="m523.07 785.65h-24.703l-5.2936 43.231s-14.116 22.939 7.0581 20.292 14.116-26.468 14.116-26.468l5.2935-8.8226 1.7645 18.527 1.7645-0.88226v-20.292s9.7048-8.8226 0-25.585z" />
    <path transform="translate(-139.16 -34.352)"
      d="m635.12 785.65-22.939-1.7645-4.4113 49.406s-2.6468 18.527 13.234 15.881 10.587-17.645 10.587-17.645v-27.35z" />
    <path transform="translate(-139.16 -34.352)"
      d="m568.51 373.19s-12.853 4.2844-13.506 21.204a30.011 30.011 0 0 0 0.89217 8.0344c0.72373 3.0672 1.189 9.6668-4.4198 18.291a181.06 181.06 0 0 0-10.276 17.677l-0.04021 0.08042 14.116 1.7645 3.0016-23.398a116.52 116.52 0 0 1 9.2524-32.848l0.09768-0.21785s6.1758 11.469 18.527 11.469l-4.4113-4.4113s19.41 7.9403 26.468 7.9403c0 0 5.2935 3.529 0 8.8226s-15.881 17.645-9.7048 27.35 0.88225 12.352 0.88225 12.352l9.7048-5.2935 4.4113-2.6468v3.529l22.939-2.6468s6.1758-0.88226-7.0581-15.881c0 0-3.4946-5.8244-1.9657-10.848a25.339 25.339 0 0 0 0.96317-11.85c-2.9647-16.539-14.597-49.422-59.873-28.473z" />
    <path transform="translate(-139.16 -34.352)"
      d="m706.47 591.75c8.7296-8.8774-0.939-27.263-1.6946-28.661l-99.702-203.59a2.596 2.596 0 0 0-4.6629 2.2834l99.752 203.69 0.028 0.051c0.099 0.182 9.7256 18.466 1.1518 23.705-9.2336 5.6458-20.002-3.5004-20.109-3.5934a2.5956 2.5956 0 1 0-3.3936 3.9283c0.5565 0.4811 13.78 11.696 26.211 4.0943a12.575 12.575 0 0 0 2.4197-1.9082z" />
  </g>
  <path transform="translate(-139.16 -34.352)"
    d="m514.33 279.88 73.873-33.66s125.15-47.306 232.22 68.169c0 0-47.983-30.801-84.352 9.8856 0 0-68.437-18.515-125.87 49.515 0 0-89.827 13.603-127.24 61.274 0 0-43.007-6.6141-59.061 48.954l-2.221-2.184s-24.454-114.33 92.652-201.95z"
    fill="#eb7260" />
  <g fill="#2d2c2c">
    <path transform="translate(-139.16 -34.352)" d="m514.69 279.67s-36.173 121.75-31.761 155.28" />
    <path transform="translate(-139.16 -34.352)" d="m552.92 262.3s45.585 102.95 57.054 111.78" />
    <path transform="translate(-139.16 -34.352)" d="m587.92 246.15s117.34 70.581 148.22 78.521" />
    <path transform="translate(-139.16 -34.352)"
      d="m411.51 832.9c-0.212-0.34649-5.2118-8.6947-6.9451-26.03-1.5899-15.904-0.56756-42.712 13.335-80.106 26.338-70.841-6.0698-128-6.401-128.57l1.5989-0.92757c0.08392 0.14437 8.4465 14.718 13.387 37.923a165.45 165.45 0 0 1-6.8522 92.218c-26.293 70.72-6.7457 104.2-6.5454 104.53z" />
  </g>
  <g>
    <circle cx="262.04" cy="547.67" r="12.012" fill="#657786" />
    <circle cx="299.93" cy="592.02" r="12.012" fill="#657786" />
    <circle cx="274.05" cy="621.59" r="12.012" fill="#92b06a" />
    <circle cx="305.47" cy="646.53" r="12.012" fill="#92b06a" />
    <circle cx="264.81" cy="685.34" r="12.012" fill="#657786" />
    <path transform="translate(-139.16 -34.352)" d="m418.76 833.34s-12.012-29.567 24.023-51.742z" fill="#2d2c2c" />
    <path transform="translate(-139.16 -34.352)" d="m403.99 832.8s-5.4666-31.442-47.777-31.172z" fill="#2d2c2c" />
    <polygon points="191.76 0 234.04 23.132 152.12 77.386 112.94 51.535" fill="#3e3e3e" />
    <polygon points="90.089 73.493 0 131.57 41.837 156.44 131.89 96.318" fill="#3e3e3e" />
    <path transform="translate(-139.16 -34.352)"
      d="m245.83 79.02a35.508 35.508 0 0 0-19.113 24.204 10.494 10.494 0 0 0 3.4418 10.497l26.044 21.995a12.072 12.072 0 0 0 13.651 1.3169c10.589-5.872 27.594-18.199 20.001-33.809a10.792 10.792 0 0 0-3.7598-4.27l-29.026-19.194a11.331 11.331 0 0 0-11.239-0.73994z"
      fill="#657786" />
    <ellipse transform="translate(-122.83 260.15) rotate(-53.33)" cx="301.39" cy="130.98" rx="42.841" ry="29.094"
      fill="#3e3e3e" />
  </g>
  <path transform="translate(-139.16 -34.352)"
    d="m288.13 164.86c5.2805 3.934 17.84-3.8212 29.129-17.579q1.4999-1.8244 2.9654-3.7886 1.0734-1.443 2.0691-2.8855c10.468-15.126 14.606-29.962 9.1992-33.987-5.4465-4.0575-18.625 4.3114-30.178 18.871q-0.96769 1.2236-1.9165 2.4962a98.897 98.897 0 0 0-6.0572 9.1396c-7.4461 12.782-9.8664 24.265-5.2111 27.733z"
    opacity=".2" />
  <path transform="translate(-139.16 -34.352)"
    d="m293.34 137.13 23.918 10.155 17.113 7.2646 2.5308-3.4158-14.61-10.523-20.979-15.116q-0.96769 1.2236-1.9165 2.4962a98.897 98.897 0 0 0-6.0573 9.1396z"
    fill="#657786" />
  <circle cx="199.84" cy="120.82" r="5.1989" fill="#657786" />
  <g fill="#eb7260">
    <path class="signal2" transform="translate(-139.16 -34.352)"
      d="m340.53 210.09a2.4818 2.4818 0 0 1 1.1762-0.59983c28.002-5.7858 45.622-21.909 53.865-49.289a2.4911 2.4911 0 0 1 4.7708 1.4359c-8.6965 28.887-28.085 46.628-57.628 52.732a2.4914 2.4914 0 0 1-2.184-4.2793z" />
    <path class="signal1" transform="translate(-139.16 -34.352)"
      d="m333.64 188.41a2.4769 2.4769 0 0 1 1.1762-0.59983c20.996-4.3386 34.207-16.427 40.388-36.957a2.4911 2.4911 0 0 1 4.7708 1.4359c-6.6629 22.131-21.517 35.723-44.151 40.4a2.4914 2.4914 0 0 1-2.184-4.2793z" />
    <path class="signal3" transform="translate(-139.16 -34.352)"
      d="m350.72 232.29a2.4768 2.4768 0 0 1 1.1762-0.59983c27.945-5.774 58.504-33.737 66.73-61.061a2.4911 2.4911 0 0 1 4.7708 1.4359c-8.6898 28.865-40.972 58.404-70.493 64.504a2.4914 2.4914 0 0 1-2.184-4.2793z" />
  </g>
  <g>
    <polygon points="729.91 0 687.63 23.132 769.55 77.386 808.73 51.535" fill="#3e3e3e" />
    <polygon points="831.58 73.493 921.67 131.57 879.83 156.44 789.78 96.318" fill="#3e3e3e" />
    <path transform="translate(-139.16 -34.352)"
      d="m954.17 79.02a35.508 35.508 0 0 1 19.113 24.204 10.494 10.494 0 0 1-3.4418 10.497l-26.044 21.995a12.072 12.072 0 0 1-13.651 1.3169c-10.589-5.872-27.594-18.199-20.001-33.809a10.792 10.792 0 0 1 3.7598-4.27l29.026-19.194a11.331 11.331 0 0 1 11.239-0.73989z"
      fill="#657786" />
    <ellipse transform="translate(-39.546 528.22) rotate(-36.67)" cx="898.61" cy="130.98" rx="29.094" ry="42.841"
      fill="#3e3e3e" />
  </g>
  <path transform="translate(-139.16 -34.352)"
    d="m911.87 164.86c-5.2805 3.934-17.84-3.8212-29.129-17.579q-1.4999-1.8244-2.9654-3.7886-1.0734-1.443-2.0691-2.8855c-10.468-15.126-14.606-29.962-9.1992-33.987 5.4465-4.0575 18.625 4.3114 30.178 18.871q0.96769 1.2236 1.9165 2.4962a98.897 98.897 0 0 1 6.0572 9.1396c7.4461 12.782 9.8664 24.265 5.2111 27.733z"
    opacity=".2" />
  <path transform="translate(-139.16 -34.352)"
    d="m906.66 137.13-23.918 10.155-17.113 7.2646-2.5308-3.4158 14.61-10.523 20.979-15.116q0.96769 1.2236 1.9165 2.4962a98.897 98.897 0 0 1 6.0573 9.1397z"
    fill="#657786" />
  <circle cx="721.83" cy="120.82" r="5.1989" fill="#657786" />
  <g fill="#eb7260">
    <path class="signal2" transform="translate(-139.16 -34.352)"
      d="m859.47 210.09a2.4818 2.4818 0 0 0-1.1762-0.59983c-28.002-5.7858-45.622-21.909-53.865-49.289a2.4911 2.4911 0 0 0-4.7708 1.4359c8.6965 28.887 28.085 46.628 57.628 52.732a2.4914 2.4914 0 0 0 2.184-4.2793z" />
    <path class="signal1" transform="translate(-139.16 -34.352)"
      d="m866.36 188.41a2.4769 2.4769 0 0 0-1.1762-0.59983c-20.996-4.3386-34.207-16.427-40.388-36.957a2.4911 2.4911 0 0 0-4.7708 1.4359c6.6629 22.131 21.517 35.723 44.151 40.4a2.4914 2.4914 0 0 0 2.184-4.2793z" />
    <path class="signal3" transform="translate(-139.16 -34.352)"
      d="m849.28 232.29a2.4768 2.4768 0 0 0-1.1762-0.59983c-27.945-5.774-58.504-33.737-66.73-61.061a2.4911 2.4911 0 0 0-4.7708 1.4359c8.6898 28.865 40.972 58.404 70.493 64.504a2.4914 2.4914 0 0 0 2.184-4.2793z" />
  </g>
</svg>