<svg id="Layer_1" data-name="Layer 1" xmlns="http://www.w3.org/2000/svg" viewBox="0 0 100 100"><defs><style>.cls-1{fill:#e8f4fa;}.cls-2,.cls-5{fill:#fff;}.cls-3,.cls-7{fill:none;}.cls-3{stroke:#4f4a45;}.cls-10,.cls-11,.cls-19,.cls-20,.cls-21,.cls-22,.cls-28,.cls-3,.cls-5,.cls-6,.cls-7,.cls-8,.cls-9{stroke-linecap:round;stroke-linejoin:round;}.cls-4{fill:#020202;opacity:0.15;}.cls-10,.cls-11,.cls-19,.cls-20,.cls-21,.cls-22,.cls-28,.cls-5,.cls-6,.cls-7,.cls-8,.cls-9{stroke:#45413c;}.cls-6{fill:#ff6242;}.cls-8{fill:#ffe500;}.cls-9{fill:#2ac3f2;}.cls-10{fill:#debb7e;}.cls-11{fill:#ffcebf;}.cls-12{fill:#ffb59e;}.cls-13{fill:#45413c;}.cls-14{fill:#ffdf3d;}.cls-15{fill:#ffef9e;}.cls-16,.cls-19{fill:#87898c;}.cls-17{fill:#bdbec0;}.cls-18{fill:#656769;}.cls-20{fill:#00b8f0;}.cls-21,.cls-23{fill:#adc4d9;}.cls-22,.cls-25{fill:#bf8256;}.cls-24{fill:#8ca4b8;}.cls-26{fill:#dea47a;}.cls-27{fill:#915e3a;}.cls-28{fill:#ebcb00;}</style></defs><title>public-speaker</title><g id="_Group_" data-name="&lt;Group&gt;"><path class="cls-1" d="M90,50A40,40,0,1,0,13.56,66.5H86.44A39.85,39.85,0,0,0,90,50Z"/><path class="cls-2" d="M13.56,66.5a40,40,0,0,0,72.88,0Z"/><line class="cls-3" x1="11" y1="66.5" x2="89" y2="66.5"/><line class="cls-3" x1="6.5" y1="66.5" x2="9" y2="66.5"/><line class="cls-3" x1="91" y1="66.5" x2="93.5" y2="66.5"/></g><path class="cls-4" d="M67.17,81.37c0,1-7.46,1.73-16.66,1.73s-16.67-.77-16.67-1.73,7.46-1.72,16.67-1.72S67.17,80.42,67.17,81.37Z"/><path class="cls-5" d="M23.1,24.5,16.32,44.26a2.41,2.41,0,0,0,.39,2.27l6.52,8.25a2.39,2.39,0,0,0,3.58.21L28.5,53.3Z"/><path class="cls-6" d="M16.71,46.53l6.52,8.25a2.39,2.39,0,0,0,3.58.21l0,0L16.94,42.45l-.62,1.81A2.41,2.41,0,0,0,16.71,46.53Z"/><polygon class="cls-6" points="17.88 39.72 28.47 53.13 27.5 47.99 18.82 36.99 17.88 39.72"/><polygon class="cls-6" points="23.1 24.5 19.75 34.26 26.54 42.85 23.1 24.5"/><line class="cls-7" x1="23" y1="54.49" x2="23" y2="62.9"/><path class="cls-8" d="M24.3,23.3a1.2,1.2,0,1,1-1.2-1.2A1.2,1.2,0,0,1,24.3,23.3Z"/><polygon class="cls-9" points="21.84 40.81 25.04 34.83 23.1 24.5 18.82 36.99 21.84 40.81"/><path class="cls-8" d="M25.92,65.11A3.25,3.25,0,0,0,23,62.9a3.25,3.25,0,0,0-2.92,2.21A1,1,0,0,0,21,66.5h4a1,1,0,0,0,.92-1.39Z"/><path class="cls-5" d="M77.9,24.5l6.78,19.76a2.41,2.41,0,0,1-.39,2.27l-6.52,8.25a2.39,2.39,0,0,1-3.58.21L72.5,53.3Z"/><path class="cls-6" d="M84.29,46.53l-6.52,8.25a2.39,2.39,0,0,1-3.58.21l0,0,9.89-12.52.62,1.81A2.41,2.41,0,0,1,84.29,46.53Z"/><polygon class="cls-6" points="83.12 39.72 72.53 53.13 73.5 47.99 82.18 36.99 83.12 39.72"/><polygon class="cls-6" points="77.9 24.5 81.25 34.26 74.46 42.85 77.9 24.5"/><line class="cls-7" x1="78" y1="54.49" x2="78" y2="62.9"/><path class="cls-8" d="M76.7,23.3a1.2,1.2,0,1,0,1.2-1.2A1.2,1.2,0,0,0,76.7,23.3Z"/><polygon class="cls-9" points="79.16 40.81 75.96 34.83 77.9 24.5 82.18 36.99 79.16 40.81"/><path class="cls-8" d="M75.08,65.11a3,3,0,0,1,5.84,0A1,1,0,0,1,80,66.5H76a1,1,0,0,1-.92-1.39Z"/><path class="cls-10" d="M41.54,80.57h7.59C49.13,75.73,41.54,76.21,41.54,80.57Z"/><path class="cls-10" d="M59.48,80.57H51.89C51.89,75.73,59.48,76.21,59.48,80.57Z"/><g id="_Group_2" data-name="&lt;Group&gt;"><path class="cls-11" d="M58.56,28.36A1.42,1.42,0,0,0,57.41,27v-.92a6.9,6.9,0,1,0-13.8,0V27a1.41,1.41,0,0,0,.14,2.79,6.9,6.9,0,0,0,13.51,0A1.44,1.44,0,0,0,58.56,28.36Z"/><circle class="cls-12" cx="46.77" cy="29.22" r="0.86"/><circle class="cls-12" cx="54.24" cy="29.22" r="0.86"/><path class="cls-7" d="M48.78,31.29a3.13,3.13,0,0,0,3.45,0"/><path class="cls-13" d="M47.92,26.11a.86.86,0,1,0,.86.86.85.85,0,0,0-.86-.86Z"/><path class="cls-13" d="M53.09,26.11A.86.86,0,1,0,54,27a.86.86,0,0,0-.87-.86Z"/><path class="cls-14" d="M50.28,16.63a7.8,7.8,0,0,0-7.35,7.91v1.27a.57.57,0,0,0,.79.53c1.11-.45,3-1.51,3-3.52,2.75,2.66,7.3,2.51,10.47,1.66A1.15,1.15,0,0,0,58,23.21,7.59,7.59,0,0,0,50.28,16.63Z"/><path class="cls-15" d="M50.28,19.49a7.58,7.58,0,0,1,7.3,4.81A1.17,1.17,0,0,0,58,23.21a7.59,7.59,0,0,0-7.76-6.58,7.8,7.8,0,0,0-7.35,7.91v1.27a.52.52,0,0,0,.11.32A7.72,7.72,0,0,1,50.28,19.49Z"/><path class="cls-7" d="M50.28,16.63a7.8,7.8,0,0,0-7.35,7.91v1.27a.57.57,0,0,0,.79.53c1.11-.45,3-1.51,3-3.52,2.75,2.66,7.3,2.51,10.47,1.66A1.15,1.15,0,0,0,58,23.21,7.59,7.59,0,0,0,50.28,16.63Z"/></g><path class="cls-11" d="M35,58.84H31.52a2.29,2.29,0,0,1-2.29-2.3h0a2.29,2.29,0,0,1,2.29-2.3H35Z"/><path class="cls-11" d="M66,58.84h3.46a2.29,2.29,0,0,0,2.29-2.3h0a2.29,2.29,0,0,0-2.29-2.3H66Z"/><path class="cls-16" d="M50.51,63.09A8,8,0,0,0,52.87,65a4.63,4.63,0,0,0,2.19.56H58V51.68c.72,2.44,2.64,4.2,4,5.42a8.44,8.44,0,0,0,5.81,2.19,7.83,7.83,0,0,1,0-5.52c-4.35,0-4.78-5.31-7-9.85-1.65-3.4-4.28-6.36-10.27-6.36s-8.63,3-10.27,6.36c-2.2,4.54-2.63,9.85-7,9.85a7.94,7.94,0,0,1,0,5.52,8.41,8.41,0,0,0,5.8-2.19c1.33-1.22,3.24-3,4-5.42V65.51H46A4.57,4.57,0,0,0,48.14,65,8,8,0,0,0,50.51,63.09Z"/><path class="cls-17" d="M38.53,48.59c1.92-3.39,5-6.36,12-6.36s10.06,3,12,6.36c.27.47.51.95.73,1.42-.8-1.81-1.43-4-2.43-6.09-1.65-3.4-4.28-6.36-10.27-6.36s-8.63,3-10.27,6.36C39.24,46,38.6,48.19,37.8,50,38,49.53,38.27,49.05,38.53,48.59Z"/><path class="cls-17" d="M67.3,57.34a7.79,7.79,0,0,1,.46-3.57c-2.14,0-3.33-1.29-4.26-3.13C64.71,53.3,65.54,55.92,67.3,57.34Z"/><path class="cls-17" d="M33.71,57.34c1.75-1.42,2.59-4,3.8-6.7-.92,1.85-2.11,3.13-4.25,3.13A7.92,7.92,0,0,1,33.71,57.34Z"/><path class="cls-7" d="M50.51,63.09A8,8,0,0,0,52.87,65a4.63,4.63,0,0,0,2.19.56H58V51.68c.72,2.44,2.64,4.2,4,5.42a8.44,8.44,0,0,0,5.81,2.19,7.83,7.83,0,0,1,0-5.52c-4.35,0-4.78-5.31-7-9.85-1.65-3.4-4.28-6.36-10.27-6.36s-8.63,3-10.27,6.36c-2.2,4.54-2.63,9.85-7,9.85a7.94,7.94,0,0,1,0,5.52,8.41,8.41,0,0,0,5.8-2.19c1.33-1.22,3.24-3,4-5.42V65.51H46A4.57,4.57,0,0,0,48.14,65,8,8,0,0,0,50.51,63.09Z"/><path class="cls-16" d="M43,58.26V80.11h5.42l.63-14.72a1.43,1.43,0,0,1,2.86,0l.63,14.72H58V58.26Z"/><path class="cls-18" d="M43,58.26v8.05h6l0-.92a1.43,1.43,0,0,1,2.86,0l0,.92h6V58.26Z"/><path class="cls-7" d="M43,58.26V80.11h5.42l.63-14.72a1.43,1.43,0,0,1,2.86,0l.63,14.72H58V58.26Z"/><path class="cls-5" d="M50.51,55.46l4.92-17a12.59,12.59,0,0,0-4.92-.88,12.64,12.64,0,0,0-4.93.88Z"/><path class="cls-19" d="M50.51,55.46l-4.93-17a9.32,9.32,0,0,0-3.73,2.84l3.48,3.14v3.45Z"/><path class="cls-19" d="M50.51,55.46l4.92-17a9.32,9.32,0,0,1,3.73,2.84l-3.49,3.14v3.45Z"/><polygon class="cls-6" points="52.56 48.37 50.51 37.56 48.46 48.37 50.51 55.46 52.56 48.37"/><polyline class="cls-7" points="54.2 42.69 50.51 37.56 46.81 42.69"/><line class="cls-20" x1="57.98" y1="60.29" x2="57.98" y2="47.64"/><line class="cls-20" x1="43.02" y1="60.29" x2="43.02" y2="47.64"/><path class="cls-7" d="M66.26,49.06l-.9-8.53a3.83,3.83,0,0,0-3.92-3.43"/><path class="cls-21" d="M58.44,35.84h2.42a.57.57,0,0,1,.58.57v1.15a.58.58,0,0,1-.58.58H58.44a1.16,1.16,0,0,1,0-2.3Z"/><path class="cls-7" d="M34.74,49.06l.91-8.53a3.84,3.84,0,0,1,3.93-3.43"/><path class="cls-21" d="M42.57,35.84H40.15a.56.56,0,0,0-.57.57v1.15a.57.57,0,0,0,.57.58h2.42a1.16,1.16,0,0,0,0-2.3Z"/><rect class="cls-22" x="37.27" y="77.24" width="26.45" height="4.02" rx="1.15" ry="1.15"/><path class="cls-23" d="M35.31,53.09l2.5,7.83a1.16,1.16,0,0,0,1.09.79H62.1a1.16,1.16,0,0,0,1.09-.79l2.5-7.83Z"/><polygon class="cls-24" points="64.4 57.11 65.69 53.09 35.31 53.09 36.6 57.11 64.4 57.11"/><path class="cls-7" d="M35.31,53.09l2.5,7.83a1.16,1.16,0,0,0,1.09.79H62.1a1.16,1.16,0,0,0,1.09-.79l2.5-7.83Z"/><path class="cls-22" d="M58,74.36H43a1.14,1.14,0,0,0-1.14,1.15v1.73H59.12V75.51A1.14,1.14,0,0,0,58,74.36Z"/><path class="cls-25" d="M66.26,49.06H34.74a2,2,0,1,0,0,4H66.26a2,2,0,1,0,0-4Z"/><path class="cls-26" d="M34.74,50.79H66.26a2.09,2.09,0,0,1,1.87,1.15,2.13,2.13,0,0,0,.2-.87,2,2,0,0,0-2.07-2H34.74a2,2,0,0,0-2.07,2,2.13,2.13,0,0,0,.2.87A2.09,2.09,0,0,1,34.74,50.79Z"/><path class="cls-7" d="M66.26,49.06H34.74a2,2,0,1,0,0,4H66.26a2,2,0,1,0,0-4Z"/><polygon class="cls-25" points="45.66 61.13 46.87 74.36 54.13 74.36 55.34 61.13 45.66 61.13"/><path class="cls-27" d="M54.86,66.31l.48-5.17H45.66l.48,5.17A10.89,10.89,0,0,0,54.86,66.31Z"/><polygon class="cls-7" points="45.66 61.13 46.87 74.36 54.13 74.36 55.34 61.13 45.66 61.13"/><circle class="cls-28" cx="50.5" cy="58.84" r="5.75"/><circle class="cls-20" cx="50.5" cy="58.84" r="2.88"/></svg>