<svg id="Layer_1" data-name="Layer 1" xmlns="http://www.w3.org/2000/svg" viewBox="0 0 100 100"><defs><style>.cls-1{fill:#e8f4fa;}.cls-2,.cls-4{fill:#fff;}.cls-17,.cls-3,.cls-7{fill:none;}.cls-10,.cls-11,.cls-14,.cls-16,.cls-3,.cls-4,.cls-5,.cls-7{stroke:#45413c;}.cls-16,.cls-17,.cls-3{stroke-linecap:round;}.cls-10,.cls-11,.cls-14,.cls-16,.cls-17,.cls-3,.cls-4,.cls-5,.cls-7{stroke-linejoin:round;}.cls-5{fill:#fff2e8;}.cls-6{fill:#f0f0f0;}.cls-14,.cls-8{fill:#ff6242;}.cls-9{fill:#ff866e;}.cls-10{fill:#ffa694;}.cls-11{fill:#debb7e;}.cls-12{fill:#00b8f0;}.cls-13{fill:#4acfff;}.cls-15{fill:#020202;opacity:0.15;}.cls-16{fill:#6dd627;}.cls-17{stroke:#fff;}</style></defs><title>real-estate-house</title><g id="_Group_" data-name="&lt;Group&gt;"><path class="cls-1" d="M90,51.4A40,40,0,1,0,13.56,67.9H86.44A39.85,39.85,0,0,0,90,51.4Z"/><path class="cls-2" d="M13.56,67.9a40,40,0,0,0,72.88,0Z"/><line class="cls-3" x1="11" y1="67.9" x2="89" y2="67.9"/><line class="cls-3" x1="6.5" y1="67.9" x2="9" y2="67.9"/><line class="cls-3" x1="91" y1="67.9" x2="93.5" y2="67.9"/></g><path class="cls-4" d="M54,15.31a2.87,2.87,0,0,0-2.87-2.87,2.75,2.75,0,0,0-1,.2,4.78,4.78,0,0,0-9.44,0,2.74,2.74,0,0,0-1-.2,2.88,2.88,0,1,0,0,5.75H51.15A2.87,2.87,0,0,0,54,15.31Z"/><path class="cls-4" d="M54,15.31a2.87,2.87,0,0,0-2.87-2.87,2.75,2.75,0,0,0-1,.2,4.78,4.78,0,0,0-9.44,0,2.74,2.74,0,0,0-1-.2,2.88,2.88,0,1,0,0,5.75H51.15A2.87,2.87,0,0,0,54,15.31Z"/><path class="cls-5" d="M85.24,43.89V36.05a1.2,1.2,0,0,0-1.2-1.2H80.68a1.2,1.2,0,0,0-1.2,1.2v2.86Z"/><polygon class="cls-2" points="86.72 67.94 57.94 67.94 57.94 50.88 72.33 38.4 86.72 50.88 86.72 67.94"/><path class="cls-6" d="M72.33,38.4,57.94,50.88v2.88l13-11.25a2.18,2.18,0,0,1,2.84,0l13,11.25V50.88Z"/><polygon class="cls-7" points="86.72 67.94 57.94 67.94 57.94 50.88 72.33 38.4 86.72 50.88 86.72 67.94"/><path class="cls-8" d="M56.54,51.39a2.13,2.13,0,0,1-1.64-.76,2.19,2.19,0,0,1-.51-1.57,2.16,2.16,0,0,1,.76-1.47L70.93,33.92a2.18,2.18,0,0,1,2.8,0L89.51,47.59a2.16,2.16,0,0,1,.76,1.47,2.19,2.19,0,0,1-.51,1.57,2.13,2.13,0,0,1-1.64.76,2.15,2.15,0,0,1-1.4-.51L72.33,38.4,57.94,50.88A2.15,2.15,0,0,1,56.54,51.39Z"/><path class="cls-9" d="M55.15,50,70.93,36.32a2.14,2.14,0,0,1,2.8,0L89.51,50a2,2,0,0,1,.39.44,2.14,2.14,0,0,0,.37-1.37,2.16,2.16,0,0,0-.76-1.47L73.73,33.92a2.18,2.18,0,0,0-2.8,0L55.15,47.59a2.16,2.16,0,0,0-.76,1.47,2.14,2.14,0,0,0,.37,1.37A2,2,0,0,1,55.15,50Z"/><path class="cls-7" d="M56.54,51.39a2.13,2.13,0,0,1-1.64-.76,2.19,2.19,0,0,1-.51-1.57,2.16,2.16,0,0,1,.76-1.47L70.93,33.92a2.18,2.18,0,0,1,2.8,0L89.51,47.59a2.16,2.16,0,0,1,.76,1.47,2.19,2.19,0,0,1-.51,1.57,2.13,2.13,0,0,1-1.64.76,2.15,2.15,0,0,1-1.4-.51L72.33,38.4,57.94,50.88A2.15,2.15,0,0,1,56.54,51.39Z"/><path class="cls-10" d="M80.92,34.85H83.8V33.17A1.2,1.2,0,0,0,82.6,32h-.48a1.2,1.2,0,0,0-1.2,1.2Z"/><path class="cls-4" d="M61.78,65.06h9.51a1,1,0,0,1,1,1v1.88a0,0,0,0,1,0,0H60.78a0,0,0,0,1,0,0V66.06A1,1,0,0,1,61.78,65.06Z"/><path class="cls-11" d="M70.85,65.06H62.22V58.59a4.32,4.32,0,1,1,8.63,0Z"/><line class="cls-3" x1="67.97" y1="61.46" x2="67.97" y2="60.03"/><circle class="cls-12" cx="72.29" cy="47.08" r="2.88"/><path class="cls-13" d="M74.32,45a2.88,2.88,0,0,0-4.91,2,2.83,2.83,0,0,0,.85,2Z"/><circle class="cls-3" cx="72.29" cy="47.08" r="2.88"/><rect class="cls-12" x="76.61" y="54.99" width="5.76" height="8.63" rx="1" ry="1"/><path class="cls-13" d="M82.34,56.1A1.19,1.19,0,0,0,81.16,55H77.81a1.2,1.2,0,0,0-1.2,1.2v5.65Z"/><rect class="cls-3" x="76.61" y="54.99" width="5.76" height="8.63" rx="1" ry="1"/><rect class="cls-14" x="29.99" y="44.27" width="20.14" height="14.39" rx="2" ry="2"/><path class="cls-4" d="M30,47.87v-1.2a2.39,2.39,0,0,1,2.39-2.4H47.73a2.4,2.4,0,0,1,2.4,2.4v1.2Z"/><path class="cls-4" d="M51.73,38.25a1.42,1.42,0,0,1-1.36,1H14.88a1.44,1.44,0,0,1-1.37-1L13,36.81a1.44,1.44,0,0,1,1.37-1.89H50.85a1.42,1.42,0,0,1,1.16.6,1.39,1.39,0,0,1,.2,1.29Z"/><path class="cls-4" d="M25.67,30.84a1.42,1.42,0,0,0-.29-.86l-.72-1a1.43,1.43,0,0,0-2.3,0l-.72,1a1.42,1.42,0,0,0-.29.86v45.8h4.32Z"/><ellipse class="cls-15" cx="30.7" cy="79.16" rx="18.7" ry="1.8"/><path class="cls-16" d="M35.74,75.43a2.66,2.66,0,0,0-2.66-2.66,2.77,2.77,0,0,0-1.21.3,3.5,3.5,0,0,0-4.66-1.75,5.29,5.29,0,0,0-10,2.15,2.63,2.63,0,0,0-1.78-.7,2.66,2.66,0,1,0,0,5.31h17.7A2.54,2.54,0,0,0,35.74,75.43Z"/><line class="cls-4" x1="32.86" y1="44.27" x2="32.86" y2="39.23"/><line class="cls-4" x1="46.53" y1="44.27" x2="46.53" y2="39.23"/><line class="cls-17" x1="36.46" y1="51.46" x2="43.65" y2="51.46"/><line class="cls-17" x1="34.3" y1="55.06" x2="45.81" y2="55.06"/></svg>