<svg id="Layer_1" data-name="Layer 1" xmlns="http://www.w3.org/2000/svg" viewBox="0 0 100 100"><defs><style>.cls-1{fill:#e8f4fa;}.cls-2,.cls-7{fill:#fff;}.cls-11,.cls-12,.cls-3{fill:none;}.cls-11,.cls-12,.cls-15,.cls-16,.cls-19,.cls-23,.cls-25,.cls-3,.cls-4,.cls-5,.cls-7,.cls-8{stroke:#45413c;}.cls-23,.cls-3{stroke-linecap:round;}.cls-11,.cls-15,.cls-16,.cls-19,.cls-23,.cls-25,.cls-3,.cls-5,.cls-7,.cls-8{stroke-linejoin:round;}.cls-4,.cls-5{fill:#724f3d;}.cls-12,.cls-4{stroke-miterlimit:10;}.cls-23,.cls-6{fill:#d18660;}.cls-8,.cls-9{fill:#ebcb00;}.cls-10{fill:#ffe500;}.cls-13{fill:#020202;opacity:0.15;}.cls-14,.cls-16{fill:#c0dceb;}.cls-15{fill:#f0f0f0;}.cls-17{fill:#bdbec0;}.cls-18{fill:#e0e0e0;}.cls-19{fill:#ff8a14;}.cls-20{fill:#656769;}.cls-21{fill:#525252;}.cls-22{fill:#87898c;}.cls-24{fill:#bd704a;}.cls-25,.cls-26{fill:#ff6242;}.cls-27{fill:#ff866e;}</style></defs><title>reggae-male</title><path class="cls-1" d="M90,50A40,40,0,1,0,13.56,66.5H86.44A39.85,39.85,0,0,0,90,50Z"/><path class="cls-2" d="M13.56,66.5a40,40,0,0,0,72.88,0Z"/><line class="cls-3" x1="11" y1="66.5" x2="89" y2="66.5"/><line class="cls-3" x1="6.5" y1="66.5" x2="9" y2="66.5"/><line class="cls-3" x1="91" y1="66.5" x2="93.5" y2="66.5"/><path class="cls-4" d="M74.08,46a.91.91,0,0,0,.33-.1,1,1,0,0,0,.46-1.33A10.73,10.73,0,0,1,73.6,38a1,1,0,0,0-2-.11,12.64,12.64,0,0,0,1.47,7.57A1,1,0,0,0,74.08,46Z"/><path class="cls-4" d="M77.35,44.59h.06a1,1,0,0,0,.9-1.09c-.52-5.38-1.11-9.39-4-12.07A1,1,0,1,0,73,32.88c2.17,2,2.79,5,3.35,10.8A1,1,0,0,0,77.35,44.59Z"/><path class="cls-5" d="M79,31.5a2,2,0,0,0-2-2V27a10.54,10.54,0,0,0-.16-1.79c1.33,2.88,3.94,8.65,4.56,10.85a41.11,41.11,0,0,1,1.13,7.11,1,1,0,0,1-.92,1.07h-.07a1,1,0,0,1-1-.93,39.76,39.76,0,0,0-1.06-6.7c-.22-.77-.71-2-1.31-3.48A2,2,0,0,0,79,31.5Z"/><path class="cls-4" d="M59.92,46a1,1,0,0,1-.33-.1,1,1,0,0,1-.46-1.33A10.73,10.73,0,0,0,60.4,38a1,1,0,0,1,2-.11,12.64,12.64,0,0,1-1.47,7.57A1,1,0,0,1,59.92,46Z"/><path class="cls-4" d="M56.65,44.59h-.06a1,1,0,0,1-.9-1.09c.52-5.38,1.11-9.39,4-12.07A1,1,0,0,1,61,32.88c-2.17,2-2.79,5-3.35,10.8A1,1,0,0,1,56.65,44.59Z"/><path class="cls-5" d="M55,31.5a2,2,0,0,1,2-2V27a10.54,10.54,0,0,1,.16-1.79c-1.33,2.88-3.94,8.65-4.56,10.85a41.11,41.11,0,0,0-1.13,7.11,1,1,0,0,0,.92,1.07h.07a1,1,0,0,0,1-.93,39.76,39.76,0,0,1,1.06-6.7c.22-.77.71-2,1.31-3.48A2,2,0,0,1,55,31.5Z"/><path class="cls-6" d="M70.5,43.91V40.52h-7v3.39A15.5,15.5,0,0,0,51.5,59v7.5h31V59A15.5,15.5,0,0,0,70.5,43.91Z"/><path class="cls-7" d="M76.5,61c-3.45-5.75-1.93-10.57-1.08-15a15,15,0,0,0-3.84-1.81L70.48,51a3.53,3.53,0,0,1-7,0l-1.1-6.85A15,15,0,0,0,58.58,46c.84,4.4,2.37,9.25-1.08,15v5.5h19Z"/><line class="cls-3" x1="57.5" y1="57.5" x2="57.5" y2="66.5"/><line class="cls-3" x1="76.5" y1="57.5" x2="76.5" y2="66.5"/><path class="cls-3" d="M70.5,43.91V40.52h-7v3.39A15.5,15.5,0,0,0,51.5,59v7.5h31V59A15.5,15.5,0,0,0,70.5,43.91Z"/><path class="cls-8" d="M70.5,41.89v2c.83,1.28.67,2.13.67,3.48,0,7-2.87,13-4.17,13s-4.17-6-4.17-13c0-1.35-.16-2.2.67-3.48v-2c-2.24,0-2.67,3.27-2.67,5.5,0,6.44,2.7,15,6.17,15s6.17-8.55,6.17-15C73.17,45.16,72.74,41.89,70.5,41.89Z"/><circle class="cls-9" cx="67" cy="62.5" r="2.5"/><path class="cls-10" d="M67,61.5a2.51,2.51,0,0,1,2.39,1.75,2.67,2.67,0,0,0,.11-.75,2.5,2.5,0,0,0-5,0,2.67,2.67,0,0,0,.11.75A2.51,2.51,0,0,1,67,61.5Z"/><circle class="cls-11" cx="67" cy="62.5" r="2.5"/><path class="cls-12" d="M82.4,57.25a4.08,4.08,0,0,1-1.4.25,4.77,4.77,0,0,1-4.5-5,5.19,5.19,0,0,1,1.85-4"/><path class="cls-12" d="M82.05,55.26a2.35,2.35,0,0,1-1,.24,2.86,2.86,0,0,1-2.7-3A3.09,3.09,0,0,1,79.57,50"/><line class="cls-3" x1="51.5" y1="62.5" x2="57.5" y2="62.5"/><line class="cls-3" x1="51.5" y1="64.5" x2="57.5" y2="64.5"/><ellipse class="cls-13" cx="33.55" cy="73.72" rx="19.5" ry="1.5"/><path class="cls-14" d="M51.5,54.5h-36V51a2,2,0,0,1,2-2h32a2,2,0,0,1,2,2Z"/><path class="cls-15" d="M51.5,71a2,2,0,0,1-2,2h-32a2,2,0,0,1-2-2V54.5h36Z"/><rect class="cls-16" x="29.5" y="54.5" width="8" height="18.5"/><rect class="cls-17" x="29.5" y="58.5" width="8" height="4.5"/><polygon class="cls-18" points="29.5 58.5 29.5 63 30.1 63 34.6 58.5 29.5 58.5"/><path class="cls-1" d="M51.5,51a2,2,0,0,0-2-2h-32a2,2,0,0,0-2,2v2a2,2,0,0,1,2-2h32a2,2,0,0,1,2,2Z"/><path class="cls-11" d="M51.5,54.5h-36V51a2,2,0,0,1,2-2h32a2,2,0,0,1,2,2Z"/><path class="cls-19" d="M49,54.5H18v-2a1,1,0,0,1,1-1H48a1,1,0,0,1,1,1Z"/><circle class="cls-20" cx="22.5" cy="64.5" r="5"/><path class="cls-21" d="M22.5,61a5,5,0,0,1,4.94,4.25,4.65,4.65,0,0,0,.06-.75,5,5,0,0,0-10,0,4.65,4.65,0,0,0,.06.75A5,5,0,0,1,22.5,61Z"/><circle class="cls-11" cx="22.5" cy="64.5" r="5"/><circle class="cls-21" cx="22.5" cy="65.5" r="2.5"/><circle class="cls-22" cx="22.5" cy="64.5" r="2"/><path class="cls-17" d="M22.5,64a2,2,0,0,1,1.85,1.25,1.86,1.86,0,0,0,.15-.75,2,2,0,0,0-4,0,1.86,1.86,0,0,0,.15.75A2,2,0,0,1,22.5,64Z"/><circle class="cls-11" cx="22.5" cy="64.5" r="2"/><circle class="cls-20" cx="44.5" cy="64.5" r="5"/><path class="cls-21" d="M44.5,61a5,5,0,0,1,4.94,4.25,4.65,4.65,0,0,0,.06-.75,5,5,0,0,0-10,0,4.65,4.65,0,0,0,.06.75A5,5,0,0,1,44.5,61Z"/><circle class="cls-11" cx="44.5" cy="64.5" r="5"/><circle class="cls-21" cx="44.5" cy="65.5" r="2.5"/><circle class="cls-22" cx="44.5" cy="64.5" r="2"/><path class="cls-17" d="M44.5,64a2,2,0,0,1,1.85,1.25,1.86,1.86,0,0,0,.15-.75,2,2,0,0,0-4,0,1.86,1.86,0,0,0,.15.75A2,2,0,0,1,44.5,64Z"/><circle class="cls-11" cx="44.5" cy="64.5" r="2"/><rect class="cls-11" x="29.5" y="58.5" width="8" height="4.5"/><line class="cls-3" x1="31.5" y1="66" x2="35.5" y2="66"/><line class="cls-3" x1="31.5" y1="68" x2="35.5" y2="68"/><line class="cls-3" x1="31.5" y1="70" x2="35.5" y2="70"/><path class="cls-11" d="M19,49V44.5a1,1,0,0,1,1-1h.5"/><path class="cls-11" d="M48,49V44.5a1,1,0,0,0-1-1h-.5"/><path class="cls-20" d="M47,43.25a1.25,1.25,0,0,1-1.25,1.25H21.25a1.25,1.25,0,0,1,0-2.5h24.5A1.25,1.25,0,0,1,47,43.25Z"/><path class="cls-22" d="M21.25,43.25h24.5a1.23,1.23,0,0,1,1.08.63A1.25,1.25,0,0,0,45.75,42H21.25a1.25,1.25,0,0,0-1.08,1.88A1.23,1.23,0,0,1,21.25,43.25Z"/><path class="cls-11" d="M47,43.25a1.25,1.25,0,0,1-1.25,1.25H21.25a1.25,1.25,0,0,1,0-2.5h24.5A1.25,1.25,0,0,1,47,43.25Z"/><path class="cls-16" d="M46,49H41.5V48a1,1,0,0,1,1-1H45a1,1,0,0,1,1,1Z"/><path class="cls-16" d="M24,49H22V48a1,1,0,0,1,2,0Z"/><path class="cls-16" d="M28,49H26V48a1,1,0,0,1,2,0Z"/><path class="cls-16" d="M32,49H30V48a1,1,0,0,1,2,0Z"/><line class="cls-3" x1="42" y1="53.17" x2="42" y2="54.5"/><rect class="cls-16" x="15.5" y="54.5" width="36" height="2"/><path class="cls-23" d="M77,29.5V27a10,10,0,0,0-20,0v2.5a2,2,0,0,0,0,4h.12a10,10,0,0,0,19.76,0H77a2,2,0,0,0,0-4Z"/><circle class="cls-24" cx="61.25" cy="33.75" r="1.25"/><circle class="cls-24" cx="72.75" cy="33.75" r="1.25"/><path class="cls-5" d="M75.83,36.64a15.73,15.73,0,0,1-4.38,2.74,8.29,8.29,0,0,0-.24-3.09A1.73,1.73,0,0,0,69.52,35h-5a1.73,1.73,0,0,0-1.69,1.29,8.29,8.29,0,0,0-.24,3.09,15.73,15.73,0,0,1-4.38-2.74v0a10,10,0,0,0,17.68,0Zm-7.69,3.67c-.37.07-.75.13-1.14.17s-.77-.1-1.14-.17a2,2,0,0,1-1.6-2c0-.35.12-1.29.49-1.29h4.5c.37,0,.48.94.49,1.29A2,2,0,0,1,68.14,40.31Z"/><line class="cls-3" x1="65.93" y1="27.53" x2="68.07" y2="27.53"/><line class="cls-3" x1="65.67" y1="29.03" x2="68.33" y2="29.03"/><path class="cls-21" d="M61.19,33A3,3,0,0,1,58,29.74,3,3,0,0,1,61,27h5C65.75,28.48,65.57,33,61.19,33Z"/><path class="cls-20" d="M61,27a3,3,0,0,0-2.58,4.58L63,27Z"/><path class="cls-3" d="M61.19,33A3,3,0,0,1,58,29.74,3,3,0,0,1,61,27h5C65.75,28.48,65.57,33,61.19,33Z"/><path class="cls-21" d="M72.81,33A3,3,0,0,0,76,29.74,3,3,0,0,0,73,27H68C68.25,28.48,68.43,33,72.81,33Z"/><path class="cls-20" d="M73,27H68a11.25,11.25,0,0,0,1.07,4l4-4Z"/><path class="cls-3" d="M72.81,33A3,3,0,0,0,76,29.74,3,3,0,0,0,73,27H68C68.25,28.48,68.43,33,72.81,33Z"/><circle class="cls-7" cx="77.5" cy="33.48" r="1"/><rect class="cls-5" x="66" y="18" width="2" height="4"/><rect class="cls-5" x="62.25" y="18.12" width="2" height="4" transform="translate(-2.04 8.19) rotate(-7.29)"/><rect class="cls-5" x="68.75" y="19.12" width="4" height="2" transform="translate(41.81 87.74) rotate(-82.71)"/><rect class="cls-25" x="61" y="22" width="12" height="3" rx="1.04" ry="1.04"/><path class="cls-26" d="M77.65,23.88a10.74,10.74,0,0,0-21.3,0,1,1,0,0,0,1,1.12h4.82c0-4,2.21-5.91,4.83-6,2.61.08,4.83,2,4.83,6h4.82A1,1,0,0,0,77.65,23.88Z"/><path class="cls-27" d="M67,16.51a10.38,10.38,0,0,1,10.44,8.11,1,1,0,0,0,.21-.74,10.74,10.74,0,0,0-21.3,0,1,1,0,0,0,.21.74A10.38,10.38,0,0,1,67,16.51Z"/><path class="cls-3" d="M77.65,23.88a10.74,10.74,0,0,0-21.3,0,1,1,0,0,0,1,1.12h4.82c0-4,2.21-5.91,4.83-6,2.61.08,4.83,2,4.83,6h4.82A1,1,0,0,0,77.65,23.88Z"/></svg>