<svg id="Layer_1" data-name="Layer 1" xmlns="http://www.w3.org/2000/svg" viewBox="0 0 100 100"><defs><style>.cls-1,.cls-9{fill:#e8f4fa;}.cls-2{fill:#ffcebf;}.cls-3{fill:#fff;}.cls-4{fill:none;}.cls-10,.cls-4,.cls-6,.cls-7,.cls-8,.cls-9{stroke:#45413c;stroke-linecap:round;stroke-linejoin:round;}.cls-5{fill:#020202;opacity:0.15;}.cls-6{fill:#00f5bc;}.cls-7{fill:#8ca4b8;}.cls-8{fill:#c0dceb;}.cls-10{fill:#adc4d9;}.cls-11{fill:#45413c;}.cls-12{fill:#ffdcd1;}</style></defs><title>robot-hand</title><circle class="cls-1" cx="50" cy="50" r="40"/><path class="cls-2" d="M59.59,63.59a3.49,3.49,0,0,0-3.47-3.14H41.52a3.49,3.49,0,0,0-3.47,3.14L36.73,76.86a1.34,1.34,0,0,0,.87,1.38,33.37,33.37,0,0,0,22.44,0,1.34,1.34,0,0,0,.87-1.38Z"/><path class="cls-1" d="M61.11,37.25a2.92,2.92,0,0,0-.94-3c-2.09-1.29-24.11-2-23,5.3l1.64,11a3.49,3.49,0,0,0,3.45,3H55.45a3.49,3.49,0,0,0,3.44-2.91Z"/><path class="cls-3" d="M37.42,41.38c2.63-5.27,20.85-4.61,22.75-3.45a1.9,1.9,0,0,1,.68.83l.26-1.51a2.92,2.92,0,0,0-.94-3c-2.09-1.29-24.11-2-23,5.3Z"/><path class="cls-4" d="M61.11,37.25a2.92,2.92,0,0,0-.94-3c-2.09-1.29-24.11-2-23,5.3l1.64,11a3.49,3.49,0,0,0,3.45,3H55.45a3.49,3.49,0,0,0,3.44-2.91Z"/><path class="cls-5" d="M62.47,87.39c0,1.2-6.5,2.18-14.52,2.18s-14.52-1-14.52-2.18,6.5-2.18,14.52-2.18S62.47,86.19,62.47,87.39Z"/><path class="cls-6" d="M56.66,60.45A3.48,3.48,0,0,0,53.18,57H44.47A3.48,3.48,0,0,0,41,60.45Z"/><path class="cls-6" d="M55,46.43a7,7,0,0,0,3.06,5.84,3.59,3.59,0,0,0,.83-1.87l1.76-10.71A7,7,0,0,0,55,46.43Z"/><path class="cls-7" d="M53.18,52.61a4.36,4.36,0,1,1-4.36-4.36A4.36,4.36,0,0,1,53.18,52.61Z"/><rect class="cls-8" x="54.92" y="20.38" width="5.23" height="6.97"/><path class="cls-9" d="M60.14,20.38H54.92V17.77a2.61,2.61,0,1,1,5.22,0Z"/><rect class="cls-8" x="45.96" y="18.76" width="5.23" height="6.97" transform="translate(-1.94 4.86) rotate(-5.61)"/><path class="cls-9" d="M50.83,18.52l-5.2.51-.26-2.6a2.62,2.62,0,0,1,5.21-.51Z"/><polygon class="cls-8" points="37.99 32.75 33.44 35.31 31.36 31.51 35.91 28.95 37.99 32.75"/><path class="cls-9" d="M35.91,29l-4.55,2.56-1.28-2.28a2.61,2.61,0,1,1,4.55-2.56Z"/><rect class="cls-8" x="38.07" y="22.21" width="5.23" height="5.86" transform="matrix(0.97, -0.25, 0.25, 0.97, -5.06, 11.17)"/><path class="cls-9" d="M42.46,21.64,37.41,23l-.67-2.52a2.62,2.62,0,1,1,5.06-1.33Z"/><path class="cls-10" d="M60.14,34.23V27.35H54.92v6.13A16.71,16.71,0,0,1,60.14,34.23Z"/><path class="cls-11" d="M41.85,38.67a.88.88,0,1,0,.87.87.87.87,0,0,0-.87-.87Z"/><path class="cls-11" d="M55.79,36.06a.87.87,0,1,0,.87.87.87.87,0,0,0-.87-.87Z"/><path class="cls-11" d="M41.85,45.64a.87.87,0,1,0,.87.87.87.87,0,0,0-.87-.87Z"/><path class="cls-10" d="M62.76,42.16a4.29,4.29,0,0,0-4.36,4.35,4.36,4.36,0,0,0,4.36,4.36c2.23,0,5.29-2.63,8.65-5.77l-4.28-4.28A9.93,9.93,0,0,1,62.76,42.16Z"/><path class="cls-9" d="M77.65,39.38a1.74,1.74,0,0,0-.48-2.94A5.21,5.21,0,0,0,72,37.2c-.26.27-.54.53-.82.78L75,41.79C75.84,41,76.74,40.15,77.65,39.38Z"/><path class="cls-6" d="M71.14,38a19,19,0,0,1-4,2.84l4.28,4.28C72.56,44,73.75,42.9,75,41.79Z"/><path class="cls-10" d="M52.51,33.44l-1-8-5.2.51L47,33.74A49.11,49.11,0,0,1,52.51,33.44Z"/><path class="cls-10" d="M45.9,33.89,44,27.31,38.9,28.64l2,6.45A23.35,23.35,0,0,1,45.9,33.89Z"/><path class="cls-10" d="M37.15,39.55c-.26-1.72.79-3,2.55-3.92L38,32.75l-4.55,2.56,4.14,7.13Z"/><path class="cls-12" d="M40.59,64.17H57.05a4.24,4.24,0,0,1,2.69.94l-.15-1.52a3.49,3.49,0,0,0-3.47-3.14H41.52a3.49,3.49,0,0,0-3.47,3.14l-.15,1.52A4.24,4.24,0,0,1,40.59,64.17Z"/><path class="cls-4" d="M59.59,63.59a3.49,3.49,0,0,0-3.47-3.14H41.52a3.49,3.49,0,0,0-3.47,3.14L36.73,76.86a1.34,1.34,0,0,0,.87,1.38,33.37,33.37,0,0,0,22.44,0,1.34,1.34,0,0,0,.87-1.38Z"/><path class="cls-4" d="M49.48,52.61a.66.66,0,1,1-.66-.66A.65.65,0,0,1,49.48,52.61Z"/></svg>