<?xml version="1.0" encoding="UTF-8"?>
<svg id="a3021eee-13c5-481a-ad89-41ba2f75e20a" width="759.61" height="659" data-name="Layer 1" version="1.1" viewBox="0 0 759.61 659" xmlns="http://www.w3.org/2000/svg" xmlns:cc="http://creativecommons.org/ns#" xmlns:dc="http://purl.org/dc/elements/1.1/" xmlns:rdf="http://www.w3.org/1999/02/22-rdf-syntax-ns#">
 <metadata>
  <rdf:RDF>
   <cc:Work rdf:about="">
    <dc:format>image/svg+xml</dc:format>
    <dc:type rdf:resource="http://purl.org/dc/dcmitype/StillImage"/>
    <dc:title>social_notifications</dc:title>
   </cc:Work>
  </rdf:RDF>
 </metadata>
 <title>social_notifications</title>
 <circle cx="220.35" cy="157.92" r="37.049" fill="#f5f5f5"/>
 <circle cx="109.93" cy="262.6" r="37.049" fill="#f5f5f5"/>
 <path transform="translate(-220.2 -120.5)" d="m532.31 552.3c1.9202-1.2047 3.8548-2.4645 5.7494-3.7434l1.2864 1.9058c-1.916 1.2933-3.8713 2.5664-5.8133 3.7852z" fill="#e6e6e6"/>
 <path transform="translate(-220.2 -120.5)" d="m310.36 211.24c2.5618-1.7292 5.1839-3.4152 7.7944-5.0121l1.1995 1.9617c-3.9088 2.3906-7.8211 4.9705-11.579 7.6345l-1.3292-1.8769q1.9352-1.3713 3.9144-2.7073zm-15.076 11.199 1.4544 1.7815c-3.5741 2.9164-7.0844 5.9876-10.437 9.1282l-1.5716-1.678c3.3898-3.1754 6.9402-6.2817 10.554-9.2317zm35.071-23.122c4.1346-2.1583 8.3892-4.1972 12.646-6.0601l0.92074 2.1065c-4.2074 1.8418-8.4139 3.8576-12.502 5.9926zm-55.522 42.288 1.6836 1.5672c-3.135 3.3704-6.1921 6.8942-9.0861 10.473l-1.7882-1.4451c2.928-3.6208 6.0198-7.1856 9.1906-10.595zm81.202-53.524c4.3815-1.5678 8.8772-3.0027 13.36-4.2653l0.62366 2.2122c-4.4338 1.2496-8.8778 2.6686-13.211 4.2184zm-98.829 75.322 1.884 1.3182c-2.6391 3.7699-5.1796 7.6778-7.55 11.613l-1.9692-1.1875c2.3975-3.9793 4.9658-7.9303 7.6352-11.744zm125.83-82.926c4.5696-0.95111 9.2248-1.7542 13.837-2.386l0.31235 2.2788c-4.5596 0.62472-9.1629 1.4185-13.681 2.359zm-140.28 106.91 2.0462 1.0488c-2.097 4.0974-4.0796 8.3182-5.8893 12.544l-2.1145-0.90518c1.8313-4.2743 3.836-8.5425 5.9576-12.688zm168.08-110.73c4.6543-0.31481 9.3728-0.47243 14.026-0.46713l-3e-3 2.2993c-4.6004-0.00467-9.2666 0.15015-13.869 0.46124zm-179.11 136.48 2.1704 0.75912c-1.5201 4.346-2.9088 8.7984-4.1279 13.235l-2.2174-0.60814c1.2331-4.4882 2.6374-8.9918 4.175-13.386zm207.16-136.46c4.6431 0.32266 9.3375 0.80975 13.954 1.4483l-0.31572 2.2774c-4.5639-0.63077-9.206-1.1126-13.798-1.4318zm-214.59 163.48 2.2533 0.45661c-0.91443 4.5129-1.686 9.1149-2.2919 13.68l-2.2798-0.30325c0.61334-4.6157 1.3934-9.2695 2.3184-13.833zm242.37-159.64c4.5603 0.95151 9.1442 2.0726 13.624 3.3307l-0.62187 2.2132c-4.4295-1.2444-8.9615-2.3517-13.471-3.2929zm-246.05 187.44 2.2939 0.14748c-0.29307 4.5906-0.43094 9.2566-0.41 13.867l-2.2986 0.01011c-0.02219-4.6622 0.11787-9.3812 0.41469-14.024zm273.04-179.86c4.3869 1.5616 8.7736 3.2954 13.038 5.151l-0.917 2.109c-4.2166-1.835-8.5541-3.5492-12.893-5.0945zm-272.91 207.91 2.2921-0.16825c0.33721 4.5972 0.83879 9.2393 1.4912 13.8l-2.2756 0.3251c-0.66021-4.6122-1.1677-9.3071-1.5077-13.957zm298.6-196.73c4.1295 2.1444 8.2363 4.4599 12.206 6.8815l-1.1975 1.9624c-3.9251-2.3935-7.9855-4.6834-12.068-6.8038zm-294.63 224.51 2.2479-0.4825c0.96664 4.5083 2.1025 9.0405 3.377 13.471l-2.2097 0.63549c-1.2898-4.4812-2.439-9.0653-3.4152-13.624zm318.53-209.92c3.8002 2.6931 7.5535 5.5534 11.156 8.5002l-1.4564 1.7795c-3.5617-2.9137-7.2721-5.7406-11.03-8.4044zm-310.77 236.89 2.1615-0.78717c1.5759 4.3273 3.3228 8.653 5.191 12.857l-2.1008 0.93317c-1.8897-4.2523-3.6561-8.6271-5.2516-13.003zm332.47-219.14c3.3906 3.189 6.7147 6.5382 9.8785 9.9541l-1.6868 1.5626c-3.1285-3.3775-6.4146-6.6886-9.767-9.841zm-321.09 244.75 2.0321-1.0751c2.1504 4.0627 4.4724 8.1086 6.9004 12.027l-1.9541 1.2107c-2.4556-3.961-4.8034-8.0531-6.9784-12.162zm340.14-224.19c2.918 3.6185 5.7538 7.3892 8.4288 11.208l-1.8838 1.319c-2.6447-3.7765-5.4492-7.5048-8.335-11.083zm-323.5 246.67c2.6858 3.7461 5.531 7.4435 8.4566 10.989l-1.7727 1.4634c-2.9595-3.5857-5.8367-7.3245-8.5532-11.112zm17.643 21.376c3.1726 3.3456 6.4959 6.6194 9.8796 9.7299l-1.5559 1.6923c-3.4222-3.1454-6.7839-6.4562-9.9923-9.8407zm20.406 18.755c3.5931 2.8708 7.3311 5.6534 11.111 8.2689l-1.3082 1.8908c-3.8232-2.6458-7.604-5.4597-11.237-8.3638zm22.769 15.754c3.9588 2.3531 8.0465 4.5962 12.148 6.6677l-1.0363 2.0527c-4.1491-2.0953-8.2828-4.3642-12.287-6.7438zm24.729 12.488c4.247 1.7908 8.6051 3.4551 12.95 4.948l-0.746 2.1737c-4.3952-1.5086-8.8026-3.1918-13.098-5.0026zm26.212 9.0005c4.4451 1.1952 8.9893 2.2524 13.507 3.1423l-0.44413 2.2557c-4.5695-0.89992-9.1651-1.9691-13.661-3.1769zm27.199 5.3561c4.5742 0.5798 9.2219 1.0097 13.814 1.2768l-0.13315 2.2951c-4.644-0.26987-9.3447-0.704-13.97-1.2908zm27.683 1.6096c4.6129-0.04912 9.2769-0.25734 13.862-0.61986l0.182 2.2923c-4.6385 0.36641-9.3548 0.57742-14.021 0.62637zm27.652-2.1903c4.5607-0.67828 9.1528-1.5247 13.65-2.5153l0.49432 2.2454c-4.5482 1.0017-9.1936 1.8577-13.807 2.5448zm27.096-5.9674c4.417-1.2985 8.8446-2.768 13.161-4.3679l0.79959 2.1558c-4.3663 1.6185-8.8448 3.1048-13.312 4.4179zm25.99-9.6336c4.1922-1.8924 8.3759-3.9559 12.436-6.1344l1.0866 2.0271c-4.106 2.2027-8.3376 4.2897-12.576 6.2034z" fill="#f5f5f5"/>
 <path transform="translate(-220.2 -120.5)" d="m598.29 276.63 1.9695-1.1859c1.1975 1.9888 2.3673 4.0078 3.4774 6.0014l-2.0082 1.1185c-1.0979-1.9706-2.2547-3.9673-3.4387-5.9341z" fill="#e6e6e6"/>
 <ellipse cx="477.61" cy="642" rx="282" ry="17" fill="#2d2c2c"/>
 <path transform="translate(-220.2 -120.5)" d="m748.35 275.3s7.9014 102.72-3.1606 105.88-50.569 26.865-113.78 20.544c0 0-61.631 33.186-52.149 1.5803s52.149-23.704 52.149-23.704 75.853-15.803 79.014-26.865-9.4817-56.89-4.7408-58.47 42.668-18.963 42.668-18.963z" fill="#a0616a"/>
 <path transform="translate(-220.2 -120.5)" d="m588.36 377.74 21.219-4.9143a4.6301 4.6301 0 0 1 5.2152 2.4996l21.735 45.073a3.7422 3.7422 0 0 1-2.348 5.2251l-21.564 6.1267a4.9438 4.9438 0 0 1-5.892-2.8006l-13.869-32.214-0.42252 0.23406-2.6396-6.1032 0.43878-0.22431-3.8713-8.9921a2.8508 2.8508 0 0 1 1.9982-3.9097z" fill="#3f3d56"/>
 <path transform="translate(-220.2 -120.5)" d="m607.02 374.5 2.4769-0.57365a3.1998 3.1998 0 0 1 3.6137 1.7474l21.215 44.785a1.9827 1.9827 0 0 1-1.2191 2.747l-21.413 6.4606a2.5678 2.5678 0 0 1-3.101-1.4447l-20.073-46.719a2.249 2.249 0 0 1 1.559-3.0789l2.3497-0.5442a1.0614 1.0614 0 0 1 1.1757 0.534 0.937 0.937 0 0 0 1.038 0.47141l11.155-2.5835a1.6018 1.6018 0 0 0 1.2221-1.8011z" fill="#eb7260"/>
 <g>
  <path transform="translate(-220.2 -120.5)" d="m653.7 454.39s6.1606 148.4 15.642 170.52c7.8979 18.428 12.506 78.522 13.826 98.083 0.26455 3.9226 0.39682 6.2154 0.39682 6.2154s25.284 0 26.865-6.3211 6.3211-75.853 0-97.977 8.062-175.26 8.062-175.26z"/>
  <path transform="translate(-220.2 -120.5)" d="m689.88 721.31s-15.803 4.7408-18.963 11.062-55.31 17.383-39.507 25.284 63.211-6.3211 63.211-6.3211 25.284-1.5803 23.704-11.062-7.3352-21.165-7.3352-21.165z"/>
  <path transform="translate(-220.2 -120.5)" d="m734.13 738.32s-15.803 4.7408-18.963 11.062-55.31 17.383-39.507 25.284 63.211-6.3211 63.211-6.3211 25.284-1.5803 23.704-11.062-7.3352-21.165-7.3352-21.165z"/>
  <path transform="translate(-220.2 -120.5)" d="m667.76 450.71 22.124 37.927 36.923 131.86s-3.7374 120.98 1.0035 120.98 30.025 7.9014 31.606 0c1.3349-6.6744 19.034-70.611 10.212-113.17a544.18 544.18 0 0 1-11.043-81.643l-3.9103-73.838s15.803-28.445-1.5803-33.186-85.335 11.062-85.335 11.062z"/>
 </g>
 <circle cx="468.11" cy="48.919" r="37.927" fill="#a0616a"/>
 <path transform="translate(-220.2 -120.5)" d="m683.56 194.7s6.3211 50.569 4.7408 53.73 37.927-34.766 37.927-34.766-14.223-22.124-11.062-33.186z" fill="#a0616a"/>
 <path transform="translate(-220.2 -120.5)" d="m772.06 245.27s-44.248-31.606-45.828-37.927l-33.186 28.445-5.639-6.7123s-25.967 25.676-25.967 36.738-1.5803 44.248 3.1606 53.73-14.223 129.58-14.223 129.58 15.803 14.223 17.383 15.803 64.792-9.4817 64.792-9.4817 31.606-3.1606 31.606-7.9014-9.4817-75.853-6.3211-94.817 14.223-107.46 14.223-107.46z" fill="#f5f5f5"/>
 <path transform="translate(-220.2 -120.5)" d="m781.54 289.52s7.9014 102.72-3.1606 105.88-50.569 26.865-113.78 20.544c0 0-61.631 33.186-52.149 1.5803s52.149-23.704 52.149-23.704 75.853-15.803 79.014-26.865-9.4817-56.89-4.7408-58.47 42.668-18.963 42.668-18.963z" fill="#a0616a"/>
 <g>
  <path transform="translate(-220.2 -120.5)" d="m672.1 150.47c5.1843-1.8452 10.904-2.7928 16.19-1.2631 7.4813 2.1649 12.663 8.7227 18.251 14.147s13.426 10.231 20.784 7.6803a12.186 12.186 0 0 1 2.3278-8.9995c0.819-1.0784 1.8598-2.1018 2.0669-3.44 0.31439-2.0313-1.3937-3.7833-1.906-5.774-0.89763-3.4885 1.563-8.2641-1.4623-10.219-0.79858-0.5161-1.8097-0.63377-2.589-1.1785-3.0586-2.1378 0.3379-7.4547-1.6844-10.591a6.4679 6.4679 0 0 0-2.298-1.917c-14.664-8.5563-32.597-8.5798-49.573-8.3643-2.3633 0.03-5.6535 1.2038-4.9869 3.4713-3.2083-2.3029-7.4094 0.93078-9.9954 3.9156l-5.293 6.1093a47.065 47.065 0 0 0-6.4685 8.7499c-1.6169 3.092-1.9744 7.8457 1.2435 9.1938-2.3924-1.0022-5.2946 13.169 5.7345 10.837 6.4081-1.3546 12.689-9.8773 19.659-12.358z"/>
  <path transform="translate(-220.2 -120.5)" d="m746.77 248.43 25.284-3.1606s25.284 48.989 11.062 56.89-50.569 14.223-50.569 11.062 14.223-64.792 14.223-64.792z" fill="#f5f5f5"/>
  <path transform="translate(-220.2 -120.5)" d="m878.23 752.59c-0.26384-0.43112-6.4847-10.818-8.6414-32.388-1.9782-19.789-0.70617-53.144 16.592-99.672 32.772-88.144-7.5524-159.26-7.9644-159.97l1.9894-1.1541c0.10441 0.17963 10.51 18.312 16.656 47.186a205.86 205.86 0 0 1-8.5258 114.74c-32.715 87.994-8.3933 129.65-8.144 130.06z"/>
 </g>
 <g fill="#92b06a">
  <circle cx="645.22" cy="319.94" r="14.945"/>
  <circle cx="692.35" cy="375.12" r="14.945"/>
  <circle cx="660.16" cy="411.91" r="14.945"/>
  <circle cx="699.25" cy="442.95" r="14.945"/>
  <circle cx="648.67" cy="491.24" r="14.945"/>
 </g>
 <g>
  <path transform="translate(-220.2 -120.5)" d="m887.26 753.14s-14.945-36.789 29.891-64.38z"/>
  <path transform="translate(-220.2 -120.5)" d="m868.88 752.48s-6.8018-39.122-59.446-38.786z"/>
  <path transform="translate(-220.2 -120.5)" d="m448.96 447.5a37 37 0 1 0 37 37 37 37 0 0 0-37-37zm18.286 27.616c0.01947 0.39953 0.02924 0.80877 0.02924 1.2181 0 12.483-9.4913 26.876-26.866 26.876a26.371 26.371 0 0 1-14.442-4.2682 19.123 19.123 0 0 0 2.251 0.13641 18.915 18.915 0 0 0 11.723-4.044 9.4494 9.4494 0 0 1-8.8189-6.5582 8.9004 8.9004 0 0 0 1.7736 0.17541 9.4983 9.4983 0 0 0 2.4849-0.33129 9.4426 9.4426 0 0 1-7.5716-9.2574v-0.11694a9.2148 9.2148 0 0 0 4.2877 1.1791 9.4531 9.4531 0 0 1-2.9332-12.61 26.737 26.737 0 0 0 19.45 9.8713 9.237 9.237 0 0 1-0.24359-2.1536 9.4316 9.4316 0 0 1 16.322-6.451 18.746 18.746 0 0 0 5.993-2.29 9.4679 9.4679 0 0 1-4.1512 5.2232 19.073 19.073 0 0 0 5.418-1.491 19.205 19.205 0 0 1-4.7066 4.8919z" fill="#f5f5f5"/>
 </g>
 <ellipse cx="231.14" cy="200.74" rx="19.474" ry="19.688" fill="#3f3d56"/>
 <path transform="translate(-220.2 -120.5)" d="m455.23 331.74h-3.9648v-15.108a13.645 13.645 0 0 1-5.1235 3.0378v-3.6376a11.44 11.44 0 0 0 3.3722-1.9471 7.3836 7.3836 0 0 0 2.4978-3.3456h3.2183z" fill="#3f3d56"/>
 <ellipse cx="231.14" cy="200.74" rx="19.474" ry="19.688" fill="#eb7260"/>
 <path transform="translate(-220.2 -120.5)" d="m455.23 331.74h-3.9648v-15.108a13.645 13.645 0 0 1-5.1235 3.0378v-3.6376a11.44 11.44 0 0 0 3.3722-1.9471 7.3836 7.3836 0 0 0 2.4978-3.3456h3.2183z" fill="#fff"/>
 <circle cx="110.75" cy="307.99" r="19.688" fill="#3f3d56"/>
 <path transform="translate(-220.2 -120.5)" d="m328.61 431.7a4.61 4.61 0 0 0 0.84461 2.9669 2.4479 2.4479 0 0 0 1.93 1.0461 2.1613 2.1613 0 0 0 1.743-0.85642 4.4658 4.4658 0 0 0 0.69757-2.8055 4.6712 4.6712 0 0 0-0.7514-2.9393 2.349 2.349 0 0 0-3.7138-0.04266 3.9938 3.9938 0 0 0-0.75003 2.6309zm8.5398-8.5988-3.6475 0.422a2.8344 2.8344 0 0 0-0.69758-1.7391 1.9793 1.9793 0 0 0-1.4608-0.56109 2.4382 2.4382 0 0 0-2.018 1.1216q-0.82488 1.1232-1.0395 4.6732a4.3301 4.3301 0 0 1 3.4998-1.7417 5.2388 5.2388 0 0 1 4.0412 1.8815 7.0002 7.0002 0 0 1 1.6826 4.853 7.1487 7.1487 0 0 1-1.7692 5.0642 6.253 6.253 0 0 1-9.4369-0.51318q-1.9176-2.4186-1.9175-7.9321 0-5.6542 1.9976-8.1506a6.3353 6.3353 0 0 1 5.1883-2.497 5.3564 5.3564 0 0 1 3.7065 1.3112 6.2506 6.2506 0 0 1 1.871 3.8082z" fill="#3f3d56"/>
 <circle cx="110.75" cy="307.99" r="19.688" fill="#eb7260"/>
 <path transform="translate(-220.2 -120.5)" d="m328.61 431.7a4.61 4.61 0 0 0 0.84461 2.9669 2.4479 2.4479 0 0 0 1.93 1.0461 2.1613 2.1613 0 0 0 1.743-0.85642 4.4658 4.4658 0 0 0 0.69757-2.8055 4.6712 4.6712 0 0 0-0.7514-2.9393 2.349 2.349 0 0 0-3.7138-0.04266 3.9938 3.9938 0 0 0-0.75003 2.6309zm8.5398-8.5988-3.6475 0.422a2.8344 2.8344 0 0 0-0.69758-1.7391 1.9793 1.9793 0 0 0-1.4608-0.56109 2.4382 2.4382 0 0 0-2.018 1.1216q-0.82488 1.1232-1.0395 4.6732a4.3301 4.3301 0 0 1 3.4998-1.7417 5.2388 5.2388 0 0 1 4.0412 1.8815 7.0002 7.0002 0 0 1 1.6826 4.853 7.1487 7.1487 0 0 1-1.7692 5.0642 6.253 6.253 0 0 1-9.4369-0.51318q-1.9176-2.4186-1.9175-7.9321 0-5.6542 1.9976-8.1506a6.3353 6.3353 0 0 1 5.1883-2.497 5.3564 5.3564 0 0 1 3.7065 1.3112 6.2506 6.2506 0 0 1 1.871 3.8082z" fill="#fff"/>
 <circle cx="228.51" cy="408.67" r="19.688" fill="#3f3d56"/>
 <path transform="translate(-220.2 -120.5)" d="m446.26 524.25a2.5025 2.5025 0 0 0 0.6471 1.8355 2.2987 2.2987 0 0 0 1.7213 0.65888 2.3288 2.3288 0 0 0 1.7424-0.66544 2.5183 2.5183 0 0 0 0.65363-1.8434 2.4418 2.4418 0 0 0-0.64576-1.7738 2.2757 2.2757 0 0 0-1.7089-0.66543 2.3357 2.3357 0 0 0-1.7561 0.67264 2.4497 2.4497 0 0 0-0.65363 1.7811zm-0.3537 8.8043a3.6855 3.6855 0 0 0 0.81043 2.5364 2.5968 2.5968 0 0 0 2.0213 0.91153 2.5051 2.5051 0 0 0 1.9602-0.87674 3.6978 3.6978 0 0 0 0.7757-2.5298 3.3255 3.3255 0 0 0-0.78882-2.3185 2.5734 2.5734 0 0 0-2.0016-0.87805 2.3671 2.3671 0 0 0-2.0902 0.99615 3.7266 3.7266 0 0 0-0.68707 2.1591zm-0.43512-4.8372a4.4866 4.4866 0 0 1-2.1584-1.7738 4.722 4.722 0 0 1-0.67334-2.4728 5.0472 5.0472 0 0 1 1.558-3.8003 7.2788 7.2788 0 0 1 8.8502 0 5.0259 5.0259 0 0 1 1.5724 3.8004 4.5075 4.5075 0 0 1-2.751 4.2466 5.2111 5.2111 0 0 1 3.3909 5.0459 6.0843 6.0843 0 0 1-6.4536 6.4076 6.9587 6.9587 0 0 1-4.5341-1.4713 5.8161 5.8161 0 0 1-2.1374-4.7683 6.0191 6.0191 0 0 1 0.80322-3.0607 5.2086 5.2086 0 0 1 2.5331-2.1532z" fill="#3f3d56"/>
 <circle cx="228.51" cy="408.67" r="19.688" fill="#eb7260"/>
 <path transform="translate(-220.2 -120.5)" d="m446.26 524.25a2.5025 2.5025 0 0 0 0.6471 1.8355 2.2987 2.2987 0 0 0 1.7213 0.65888 2.3288 2.3288 0 0 0 1.7424-0.66544 2.5183 2.5183 0 0 0 0.65363-1.8434 2.4418 2.4418 0 0 0-0.64576-1.7738 2.2757 2.2757 0 0 0-1.7089-0.66543 2.3357 2.3357 0 0 0-1.7561 0.67264 2.4497 2.4497 0 0 0-0.65363 1.7811zm-0.3537 8.8043a3.6855 3.6855 0 0 0 0.81043 2.5364 2.5968 2.5968 0 0 0 2.0213 0.91153 2.5051 2.5051 0 0 0 1.9602-0.87674 3.6978 3.6978 0 0 0 0.7757-2.5298 3.3255 3.3255 0 0 0-0.78882-2.3185 2.5734 2.5734 0 0 0-2.0016-0.87805 2.3671 2.3671 0 0 0-2.0902 0.99615 3.7266 3.7266 0 0 0-0.68707 2.1591zm-0.43512-4.8372a4.4866 4.4866 0 0 1-2.1584-1.7738 4.722 4.722 0 0 1-0.67334-2.4728 5.0472 5.0472 0 0 1 1.558-3.8003 7.2788 7.2788 0 0 1 8.8502 0 5.0259 5.0259 0 0 1 1.5724 3.8004 4.5075 4.5075 0 0 1-2.751 4.2466 5.2111 5.2111 0 0 1 3.3909 5.0459 6.0843 6.0843 0 0 1-6.4536 6.4076 6.9587 6.9587 0 0 1-4.5341-1.4713 5.8161 5.8161 0 0 1-2.1374-4.7683 6.0191 6.0191 0 0 1 0.80322-3.0607 5.2086 5.2086 0 0 1 2.5331-2.1532z" fill="#fff"/>
 <g transform="matrix(2.8253 0 0 2.8253 -2.5384 -1226.4)" fill="#2d2c2c">
  <path d="m73.093 484.73c-0.138 0-0.256 0.05-0.316 0.144-0.059 0.1-0.05 0.225 0.013 0.353l1.559 2.7c3e-3 6e-3 3e-3 9e-3 0 0.013l-2.45 4.331c-0.063 0.128-0.059 0.256 0 0.353 0.059 0.094 0.163 0.156 0.3 0.156h2.306c0.344 0 0.513-0.234 0.628-0.447 0 0 2.397-4.241 2.491-4.406-9e-3 -0.016-1.588-2.766-1.588-2.766-0.116-0.203-0.287-0.431-0.644-0.431h-2.3z"/>
  <path d="m82.787 481.57c-0.344 0-0.494 0.216-0.619 0.441 0 0-4.972 8.816-5.134 9.106 9e-3 0.016 3.278 6.016 3.278 6.016 0.116 0.203 0.291 0.441 0.644 0.441h2.306c0.137 0 0.247-0.053 0.306-0.147 0.063-0.1 0.059-0.228-6e-3 -0.356l-3.25-5.947c-3e-3 -6e-3 -3e-3 -9e-3 0-0.016l5.109-9.034c0.063-0.128 0.066-0.256 6e-3 -0.356-0.059-0.094-0.169-0.147-0.306-0.147h-2.334z"/>
 </g>
 <path d="m113.73 248.57h6.4747v-7.7697h-6.4747c-4.9985 0-9.0646 4.0661-9.0646 9.0646v3.8848h-5.1798v7.7697h5.1798v20.719h7.7697v-20.719h6.4747l1.2949-7.7697h-7.7697v-3.8848c0-0.70187 0.59309-1.295 1.295-1.295z" fill="#2d2c2c" stroke-width="2.5899"/>
</svg>
