<svg id="Layer_1" data-name="Layer 1" xmlns="http://www.w3.org/2000/svg" viewBox="0 0 100 100"><defs><style>.cls-1{fill:#e8f4fa;}.cls-11,.cls-2{fill:#ff6242;}.cls-10,.cls-15,.cls-19,.cls-2,.cls-21,.cls-22,.cls-3,.cls-6{stroke:#45413c;}.cls-10,.cls-15,.cls-19,.cls-2,.cls-21,.cls-22,.cls-24,.cls-3,.cls-6{stroke-linecap:round;stroke-linejoin:round;}.cls-3,.cls-4{fill:#6dd627;}.cls-5{fill:#9ceb60;}.cls-24,.cls-6{fill:none;}.cls-7{fill:#adc4d9;}.cls-8{fill:#f0f0f0;}.cls-19,.cls-9{fill:#fff;}.cls-10,.cls-13{fill:#ffe500;}.cls-12,.cls-15{fill:#ff866e;}.cls-14{fill:#fff48c;}.cls-16{fill:#ffa694;}.cls-17{fill:#00b8f0;}.cls-18{fill:#4acfff;}.cls-20{fill:#c0dceb;}.cls-21{fill:#daedf7;}.cls-22{fill:#ffaa54;}.cls-23{fill:#4aeff7;}.cls-24{stroke:#a6fbff;}</style></defs><title>ship</title><circle class="cls-1" cx="50" cy="50" r="40"/><rect class="cls-2" x="32" y="53.5" width="7.5" height="3.5"/><rect class="cls-3" x="32" y="50" width="7.5" height="3.5"/><path class="cls-4" d="M32.5,46.5H39a.5.5,0,0,1,.5.5v3a0,0,0,0,1,0,0H32a0,0,0,0,1,0,0V47A.5.5,0,0,1,32.5,46.5Z"/><path class="cls-5" d="M39,46.5H32.5a.5.5,0,0,0-.5.5v2a.5.5,0,0,1,.5-.5H39a.5.5,0,0,1,.5.5V47A.5.5,0,0,0,39,46.5Z"/><path class="cls-6" d="M32.5,46.5H39a.5.5,0,0,1,.5.5v3a0,0,0,0,1,0,0H32a0,0,0,0,1,0,0V47A.5.5,0,0,1,32.5,46.5Z"/><path class="cls-7" d="M69.53,68H26.07a1,1,0,0,1-.86-.49l-3-5a37.26,37.26,0,0,0-2.6-3.78l-2.81-3.57a1,1,0,0,1,.79-1.62H34.37a2.06,2.06,0,0,1,1.15.36L40,57H80v4.76a2,2,0,0,1-1.11,1.79l-8.47,4.24A2,2,0,0,1,69.53,68Z"/><path class="cls-8" d="M70.5,57h-12V39h9a1,1,0,0,1,.77.36L70.5,42Z"/><path class="cls-9" d="M68.3,39.36a1,1,0,0,0-.77-.36h-9v3h9a1,1,0,0,1,.77.36L70.5,45V42Z"/><path class="cls-6" d="M70.5,57h-12V39h9a1,1,0,0,1,.77.36L70.5,42Z"/><rect class="cls-3" x="70.5" y="53.5" width="7.5" height="3.5"/><rect class="cls-2" x="70.5" y="50" width="7.5" height="3.5"/><rect class="cls-10" x="70.5" y="46.5" width="7.5" height="3.5"/><path class="cls-11" d="M70.5,43h7a.5.5,0,0,1,.5.5v3a0,0,0,0,1,0,0H70.5a0,0,0,0,1,0,0V43A0,0,0,0,1,70.5,43Z"/><path class="cls-12" d="M77.5,43h-7v2h7a.5.5,0,0,1,.5.5v-2A.5.5,0,0,0,77.5,43Z"/><path class="cls-6" d="M70.5,43h7a.5.5,0,0,1,.5.5v3a0,0,0,0,1,0,0H70.5a0,0,0,0,1,0,0V43A0,0,0,0,1,70.5,43Z"/><rect class="cls-10" x="49" y="53.5" width="7.5" height="3.5"/><rect class="cls-3" x="49" y="50" width="7.5" height="3.5"/><rect class="cls-3" x="49" y="46.5" width="7.5" height="3.5"/><path class="cls-11" d="M49.5,43H56a.5.5,0,0,1,.5.5v3a0,0,0,0,1,0,0H49a0,0,0,0,1,0,0v-3A.5.5,0,0,1,49.5,43Z"/><path class="cls-12" d="M56,43H49.5a.5.5,0,0,0-.5.5v2a.5.5,0,0,1,.5-.5H56a.5.5,0,0,1,.5.5v-2A.5.5,0,0,0,56,43Z"/><path class="cls-6" d="M49.5,43H56a.5.5,0,0,1,.5.5v3a0,0,0,0,1,0,0H49a0,0,0,0,1,0,0v-3A.5.5,0,0,1,49.5,43Z"/><rect class="cls-3" x="41.5" y="53.5" width="7.5" height="3.5"/><rect class="cls-2" x="41.5" y="50" width="7.5" height="3.5"/><path class="cls-13" d="M42,46.5h7a0,0,0,0,1,0,0V50a0,0,0,0,1,0,0H41.5a0,0,0,0,1,0,0V47A.5.5,0,0,1,42,46.5Z"/><path class="cls-14" d="M42,46.5a.5.5,0,0,0-.5.5v2a.5.5,0,0,1,.5-.5h7v-2Z"/><path class="cls-6" d="M42,46.5h7a0,0,0,0,1,0,0V50a0,0,0,0,1,0,0H41.5a0,0,0,0,1,0,0V47A.5.5,0,0,1,42,46.5Z"/><rect class="cls-15" x="26" y="47" width="2" height="6.5"/><path class="cls-12" d="M78,45h1a1,1,0,0,1,1,1V57a0,0,0,0,1,0,0H78a0,0,0,0,1,0,0V45A0,0,0,0,1,78,45Z"/><path class="cls-16" d="M79,45H78v2.5h1a1,1,0,0,1,1,1V46A1,1,0,0,0,79,45Z"/><path class="cls-15" d="M28,53.5V50h1.09a1,1,0,0,1,.7.29L33,53.5Z"/><path class="cls-15" d="M28,45H26a1,1,0,0,0-1,1h0a1,1,0,0,0,1,1h2a1,1,0,0,0,1-1h0A1,1,0,0,0,28,45Z"/><rect class="cls-17" x="56.5" y="36" width="10" height="3"/><polygon class="cls-18" points="66 36 60.5 39 56.5 39 56.5 36 66 36"/><rect class="cls-6" x="56.5" y="36" width="10" height="3"/><path class="cls-2" d="M63.43,31.5H61.5a1,1,0,0,0-1,1V34h5l-1.21-2A1,1,0,0,0,63.43,31.5Z"/><path class="cls-19" d="M56.5,39h2a0,0,0,0,1,0,0v2a0,0,0,0,1,0,0h-1a1,1,0,0,1-1-1V39A0,0,0,0,1,56.5,39Z"/><path class="cls-19" d="M57.5,34h8a1,1,0,0,1,1,1v1a0,0,0,0,1,0,0h-10a0,0,0,0,1,0,0V35A1,1,0,0,1,57.5,34Z"/><path class="cls-20" d="M40,57l-4.48-3.14a2.06,2.06,0,0,0-1.15-.36H17.56a1,1,0,0,0-.79,1.62l.38.48a.92.92,0,0,1,.41-.1H34.37a2.06,2.06,0,0,1,1.15.36L40,59H80V57Z"/><path class="cls-6" d="M69.53,68H26.07a1,1,0,0,1-.86-.49l-3-5a37.26,37.26,0,0,0-2.6-3.78l-2.81-3.57a1,1,0,0,1,.79-1.62H34.37a2.06,2.06,0,0,1,1.15.36L40,57H80v4.76a2,2,0,0,1-1.11,1.79l-8.47,4.24A2,2,0,0,1,69.53,68Z"/><line class="cls-6" x1="70.5" y1="42" x2="70.5" y2="35"/><line class="cls-6" x1="61.5" y1="31.5" x2="61.5" y2="28"/><line class="cls-6" x1="25" y1="46" x2="17.5" y2="53.5"/><polygon class="cls-21" points="61 51.5 70.5 46 70.5 43.5 61 49 61 51.5"/><polygon class="cls-21" points="61 57 70.5 51.5 70.5 49 61 54.5 61 57"/><rect class="cls-22" x="61" y="43.5" width="9.5" height="2.5"/><rect class="cls-22" x="61" y="49" width="9.5" height="2.5"/><rect class="cls-22" x="61" y="54.5" width="9.5" height="2.5"/><path class="cls-2" d="M70.37,67.79,77.94,64H40l-5.25-3.43a2,2,0,0,0-1.09-.32h-13c.51.73,1,1.46,1.46,2.22l3,5A1,1,0,0,0,26,68H69.47A2,2,0,0,0,70.37,67.79Z"/><line class="cls-6" x1="60" y1="36" x2="60" y2="39"/><line class="cls-6" x1="63.5" y1="36" x2="63.5" y2="39"/><path class="cls-23" d="M79.24,66.1c-2.44,0-2.44,1.56-4.88,1.56s-2.44-1.56-4.88-1.56S67,67.66,64.61,67.66s-2.44-1.56-4.88-1.56-2.44,1.56-4.87,1.56S52.42,66.1,50,66.1s-2.43,1.56-4.87,1.56-2.44-1.56-4.87-1.56-2.44,1.56-4.88,1.56-2.43-1.56-4.87-1.56-2.43,1.56-4.87,1.56-2.44-1.56-4.87-1.56-2.44,1.56-4.88,1.56a3.7,3.7,0,0,1-2-.53,40,40,0,0,0,72.3,0,3.65,3.65,0,0,1-2,.54C81.68,67.66,81.68,66.1,79.24,66.1Z"/><path class="cls-6" d="M11,66.09c2.44,0,2.44,1.57,4.87,1.57s2.44-1.57,4.88-1.57,2.43,1.57,4.87,1.57,2.44-1.57,4.87-1.57,2.44,1.57,4.87,1.57,2.44-1.57,4.88-1.57,2.43,1.57,4.87,1.57,2.44-1.57,4.87-1.57,2.44,1.57,4.88,1.57,2.43-1.57,4.87-1.57,2.44,1.57,4.88,1.57,2.43-1.57,4.87-1.57,2.44,1.57,4.88,1.57,2.44-1.57,4.88-1.57,2.44,1.57,4.88,1.57,2.44-1.57,4.88-1.57"/><path class="cls-24" d="M24.66,73.56c2.44,0,2.44-1.56,4.87-1.56s2.44,1.56,4.88,1.56S36.84,72,39.28,72s2.44,1.56,4.87,1.56S46.59,72,49,72s2.44,1.56,4.87,1.56"/><path class="cls-24" d="M39.17,82.73c2.44,0,2.44-1.56,4.87-1.56s2.44,1.56,4.87,1.56,2.44-1.56,4.88-1.56,2.43,1.56,4.87,1.56"/><path class="cls-24" d="M74.78,76c-2.43,0-2.43,1.56-4.87,1.56S67.48,76,65,76s-2.44,1.56-4.87,1.56"/><path class="cls-6" d="M78,45h1a1,1,0,0,1,1,1V57a0,0,0,0,1,0,0H78a0,0,0,0,1,0,0V45A0,0,0,0,1,78,45Z"/></svg>