<svg id="Layer_1" data-name="Layer 1" xmlns="http://www.w3.org/2000/svg" xmlns:xlink="http://www.w3.org/1999/xlink" viewBox="0 0 100 100"><defs><style>.cls-1,.cls-4{fill:none;}.cls-2{fill:#e8f4fa;}.cls-3,.cls-9{fill:#fff;}.cls-10,.cls-11,.cls-12,.cls-13,.cls-14,.cls-15,.cls-16,.cls-17,.cls-22,.cls-26,.cls-27,.cls-28,.cls-4,.cls-5,.cls-8,.cls-9{stroke:#45413c;stroke-linecap:round;stroke-linejoin:round;}.cls-5{fill:#ffcebf;}.cls-6{fill:#020202;opacity:0.15;}.cls-7{clip-path:url(#clip-path);}.cls-8{fill:#ff87af;}.cls-10{fill:#9f5ae5;}.cls-11{fill:#bf8df2;}.cls-12{fill:#ff6242;}.cls-13,.cls-20{fill:#656769;}.cls-14{fill:#ff8a14;}.cls-15{fill:#ffaa54;}.cls-16{fill:#fc9;}.cls-17{fill:#ffb0ca;}.cls-18,.cls-22{fill:#ffda8f;}.cls-19{fill:#ffe9bd;}.cls-21{fill:#525252;}.cls-23{fill:#ffbe3d;}.cls-24{fill:#bd704a;}.cls-25{fill:#d18660;}.cls-26{fill:#f7e5c6;}.cls-27{fill:#ffe500;}.cls-28{fill:#00b8f0;}</style><clipPath id="clip-path"><circle class="cls-1" cx="50" cy="50" r="40"/></clipPath></defs><title>shopping-shoes-woman</title><path class="cls-2" d="M90,50A40,40,0,1,0,13.56,66.5H86.44A39.85,39.85,0,0,0,90,50Z"/><path class="cls-3" d="M13.56,66.5a40,40,0,0,0,72.88,0Z"/><line class="cls-4" x1="11" y1="66.5" x2="89" y2="66.5"/><line class="cls-4" x1="6.5" y1="66.5" x2="9" y2="66.5"/><line class="cls-4" x1="91" y1="66.5" x2="93.5" y2="66.5"/><line class="cls-5" x1="18.81" y1="52.39" x2="15.94" y2="60.15"/><ellipse class="cls-6" cx="32.41" cy="80.27" rx="17.54" ry="1.72"/><g class="cls-7"><path class="cls-8" d="M57.5,54.05v1a2,2,0,0,0,2,2h9V56a2,2,0,0,0-2-2H65l-1.57-2a.51.51,0,0,0-.81,0L62,53a5.39,5.39,0,0,1-3.25.08A1,1,0,0,0,57.5,54.05Z"/><path class="cls-9" d="M94,31.5H49.25a1.25,1.25,0,0,1,0-2.5H94Z"/><path class="cls-9" d="M94,45.5H49.25a1.25,1.25,0,0,1,0-2.5H94Z"/><path class="cls-9" d="M94,59.5H49.25a1.25,1.25,0,0,1,0-2.5H94Z"/><path class="cls-10" d="M70,24.5h7a.5.5,0,0,1,.5.5v3a1,1,0,0,1-1,1h-6a1,1,0,0,1-1-1V25A.5.5,0,0,1,70,24.5Z"/><path class="cls-11" d="M77.5,25a2,2,0,0,1-2,2h-4a2,2,0,0,1-2-2h0a.5.5,0,0,1,.5-.5h7a.5.5,0,0,1,.5.5Z"/><path class="cls-12" d="M59,40h1.5c2,1,2.5,1.5,2.5,3H59.91C57,43,57,40.5,54.5,40.5A2.5,2.5,0,0,1,52,38l.33-1.32a.5.5,0,0,1,.75-.3C54.12,37.06,56.43,38.53,59,40Z"/><line class="cls-4" x1="53.5" y1="40.29" x2="53.5" y2="43"/><path class="cls-13" d="M73.5,40H75c2,1,2.5,1.5,2.5,3H74.41C71.5,43,71.5,40.5,69,40.5A2.5,2.5,0,0,1,66.5,38l.33-1.32a.5.5,0,0,1,.75-.3C68.62,37.06,70.93,38.53,73.5,40Z"/><line class="cls-4" x1="68" y1="40.29" x2="68" y2="43"/><path class="cls-14" d="M88,40h1.5c2,1,2.5,1.5,2.5,3H88.91C86,43,86,40.5,83.5,40.5A2.5,2.5,0,0,1,81,38l.33-1.32a.5.5,0,0,1,.75-.3C83.12,37.06,85.43,38.53,88,40Z"/><line class="cls-4" x1="82.5" y1="40.29" x2="82.5" y2="43"/><path class="cls-15" d="M64.7,26.41A2,2,0,0,1,62.79,29H56.71a2,2,0,0,1-1.91-2.59L56,22.5h7.5Z"/><path class="cls-4" d="M56,22.5v-.75a3.75,3.75,0,0,1,7.5,0v.75"/><path class="cls-14" d="M61,25.25a1.25,1.25,0,0,1-2.5,0V22.5H61Z"/><path class="cls-9" d="M68.5,57V56a2,2,0,0,0-2-2H65v3Z"/><path class="cls-9" d="M58,54.5h-.5V55a2,2,0,0,0,2,2H60v-.5A2,2,0,0,0,58,54.5Z"/><path class="cls-16" d="M75.5,54.5H87a1,1,0,0,1,1,1V57a0,0,0,0,1,0,0H75.5a0,0,0,0,1,0,0V54.5A0,0,0,0,1,75.5,54.5Z"/><path class="cls-17" d="M75.5,52H86a1,1,0,0,1,1,1v1.5a0,0,0,0,1,0,0H75.5a1,1,0,0,1-1-1V53A1,1,0,0,1,75.5,52Z"/></g><path class="cls-18" d="M52.16,45.64a2.08,2.08,0,0,0-.78-.15,2,2,0,0,0-1.85,1.24l-1.7,4.07a2.59,2.59,0,0,1-2.39,1.59h-.38a2.59,2.59,0,0,1-2.59-2.59V48.08a10.35,10.35,0,0,0-20.7,0V49.8a2.59,2.59,0,0,1-2.58,2.59H18.8a2.61,2.61,0,0,1-2.39-1.59l-1.69-4.07a2,2,0,0,0-1.86-1.24,2.07,2.07,0,0,0-.77.15A2,2,0,0,0,11,48.27l1.7,4.07a6.59,6.59,0,0,0,6.1,4.07h.42a6.61,6.61,0,0,0,6.58-6V55H38.45v-4.6a6.61,6.61,0,0,0,6.58,6h.41a6.59,6.59,0,0,0,6.11-4.07l1.69-4.07A2,2,0,0,0,52.16,45.64Z"/><path class="cls-19" d="M32.12,37.73A10.35,10.35,0,0,0,21.77,48.08V49.8a10.37,10.37,0,0,1,20.7,0V48.08A10.35,10.35,0,0,0,32.12,37.73Z"/><path class="cls-4" d="M38.45,55v-4.6a6.61,6.61,0,0,0,6.58,6h.41a6.59,6.59,0,0,0,6.11-4.07l1.69-4.07a2,2,0,0,0-1.08-2.63,2.08,2.08,0,0,0-.78-.15,2,2,0,0,0-1.85,1.24l-1.7,4.07a2.59,2.59,0,0,1-2.39,1.59h-.38a2.59,2.59,0,0,1-2.59-2.59V48.08a10.35,10.35,0,0,0-20.7,0V49.8a2.59,2.59,0,0,1-2.58,2.59H18.8a2.61,2.61,0,0,1-2.39-1.59l-1.69-4.07a2,2,0,0,0-1.86-1.24,2.07,2.07,0,0,0-.77.15A2,2,0,0,0,11,48.27l1.7,4.07a6.59,6.59,0,0,0,6.1,4.07h.42a6.61,6.61,0,0,0,6.58-6V55Z"/><path class="cls-20" d="M38.45,79.12V55H25.8V79.12A1.15,1.15,0,0,0,27,80.27H37.3A1.14,1.14,0,0,0,38.45,79.12Z"/><polygon class="cls-21" points="38.45 57.85 38.45 54.98 25.8 54.98 25.8 57.85 38.45 57.85"/><path class="cls-4" d="M38.45,79.12V55H25.8V79.12A1.15,1.15,0,0,0,27,80.27H37.3A1.14,1.14,0,0,0,38.45,79.12Z"/><line class="cls-4" x1="32.13" y1="63.6" x2="32.13" y2="80.27"/><path class="cls-12" d="M32.13,80.27a3.46,3.46,0,0,0-3.45-3.45H28.1a3.44,3.44,0,0,0-3,1.79,1.14,1.14,0,0,0,1,1.66Z"/><path class="cls-12" d="M38.14,80.27a1.14,1.14,0,0,0,1-1.66,3.44,3.44,0,0,0-3-1.79h-.57a3.45,3.45,0,0,0-3.45,3.45Z"/><path class="cls-2" d="M37.87,43.48v-4a10.24,10.24,0,0,0-2.34-1.17c-.35,1.72-1.48,4.77-3.41,5.75-1.92-1-3-4-3.41-5.75a10.45,10.45,0,0,0-2.34,1.17v4c-1.45,2.88-2.26,3.78-1.16,5.33a5.14,5.14,0,0,1,.59,1.57V55H38.45v-4.6A5.39,5.39,0,0,1,39,48.81C40.14,47.26,39.32,46.36,37.87,43.48Z"/><path class="cls-3" d="M29.35,40.4a14.52,14.52,0,0,1-.64-2.1,10.45,10.45,0,0,0-2.34,1.17v2.3A10.35,10.35,0,0,1,29.35,40.4Z"/><path class="cls-3" d="M37.87,41.77v-2.3a10.24,10.24,0,0,0-2.34-1.17,12.38,12.38,0,0,1-.64,2.1A10.11,10.11,0,0,1,37.87,41.77Z"/><path class="cls-4" d="M37.87,43.48v-4a10.24,10.24,0,0,0-2.34-1.17c-.35,1.72-1.48,4.77-3.41,5.75-1.92-1-3-4-3.41-5.75a10.45,10.45,0,0,0-2.34,1.17v4c-1.45,2.88-2.26,3.78-1.16,5.33a5.14,5.14,0,0,1,.59,1.57V55H38.45v-4.6A5.39,5.39,0,0,1,39,48.81C40.14,47.26,39.32,46.36,37.87,43.48Z"/><line class="cls-5" x1="18.81" y1="52.39" x2="21.68" y2="60.15"/><path class="cls-10" d="M14.8,60.15H23a.5.5,0,0,1,.5.5v3.68a1,1,0,0,1-1,1H15.3a1,1,0,0,1-1-1V60.65A.5.5,0,0,1,14.8,60.15Z"/><path class="cls-11" d="M23.5,60.73A2.3,2.3,0,0,1,21.2,63H16.6a2.3,2.3,0,0,1-2.3-2.3h0a.58.58,0,0,1,.58-.58h8a.58.58,0,0,1,.57.58Z"/><path class="cls-22" d="M24.07,28.53a1.41,1.41,0,0,1,1.15-1.38v-.92a6.9,6.9,0,0,1,13.8,0v.92a1.4,1.4,0,0,1-.15,2.78,6.9,6.9,0,0,1-13.51,0A1.41,1.41,0,0,1,24.07,28.53Z"/><circle class="cls-23" cx="35.86" cy="29.39" r="0.86"/><path class="cls-24" d="M40.17,28.53a1.41,1.41,0,0,1-1.29,1.4A6.94,6.94,0,0,1,35,34.81a5.24,5.24,0,0,1,.48,3.48,10.4,10.4,0,0,1,5.15,3.88,7.32,7.32,0,0,0,.71-3.31V26.23A9.07,9.07,0,0,0,37.82,19a7.47,7.47,0,0,0-8-.8A3.93,3.93,0,0,0,27.07,17a4.16,4.16,0,0,0-4.15,4.12V38.86c0,4,2,5.38,5.25,7.17a1.15,1.15,0,0,0,1.63-.56c2.4-6-2.87-5.17-.54-10.66a6.94,6.94,0,0,1-3.9-4.88,1.4,1.4,0,0,1-.14-2.78,5.11,5.11,0,0,0,2.33-4.24,2.29,2.29,0,0,1,2.3-2.43,1.73,1.73,0,0,1,1.62,1.13,1,1,0,0,0,.66.68c2.11.66,4.78,4.58,6.91,4.86A1.42,1.42,0,0,1,40.17,28.53Z"/><circle class="cls-23" cx="28.38" cy="29.39" r="0.86"/><path class="cls-4" d="M33.84,31.45a3.1,3.1,0,0,1-3.45,0"/><path class="cls-25" d="M27.07,19.33a3.93,3.93,0,0,1,2.78,1.15,7.47,7.47,0,0,1,8,.8,9.09,9.09,0,0,1,3.5,7.17V26.23A9.07,9.07,0,0,0,37.82,19a7.47,7.47,0,0,0-8-.8A3.93,3.93,0,0,0,27.07,17a4.16,4.16,0,0,0-4.15,4.12v2.3A4.16,4.16,0,0,1,27.07,19.33Z"/><path class="cls-4" d="M35.23,27.38a1,1,0,0,0-1.38,0"/><path class="cls-4" d="M30.4,27.38a1,1,0,0,0-1.39,0"/><path class="cls-4" d="M40.17,28.53a1.41,1.41,0,0,1-1.29,1.4A6.94,6.94,0,0,1,35,34.81a5.24,5.24,0,0,1,.48,3.48,10.4,10.4,0,0,1,5.15,3.88,7.32,7.32,0,0,0,.71-3.31V26.23A9.07,9.07,0,0,0,37.82,19a7.47,7.47,0,0,0-8-.8A3.93,3.93,0,0,0,27.07,17a4.16,4.16,0,0,0-4.15,4.12V38.86c0,4,2,5.38,5.25,7.17a1.15,1.15,0,0,0,1.63-.56c2.4-6-2.87-5.17-.54-10.66a6.94,6.94,0,0,1-3.9-4.88,1.4,1.4,0,0,1-.14-2.78,5.11,5.11,0,0,0,2.33-4.24,2.29,2.29,0,0,1,2.3-2.43,1.73,1.73,0,0,1,1.62,1.13,1,1,0,0,0,.66.68c2.11.66,4.78,4.58,6.91,4.86A1.42,1.42,0,0,1,40.17,28.53Z"/><path class="cls-26" d="M46.55,72.43H44.34a1.16,1.16,0,0,1-1.15-1.2l.48-11.5a1.15,1.15,0,0,1,1.15-1.1h1.25a1.14,1.14,0,0,1,1.14,1.1l.48,11.5A1.15,1.15,0,0,1,46.55,72.43Z"/><line class="cls-4" x1="45.44" y1="58.63" x2="45.44" y2="51.15"/><path class="cls-27" d="M41.31,72.21l-2.16-.41a1.15,1.15,0,0,1-.91-1.39l2.6-11.21a1.15,1.15,0,0,1,1.34-.87l1.22.23a1.13,1.13,0,0,1,.92,1.29L42.66,71.24A1.15,1.15,0,0,1,41.31,72.21Z"/><line class="cls-4" x1="42.79" y1="58.44" x2="44.17" y2="51.1"/><path class="cls-28" d="M49.58,72.21l2.16-.41a1.15,1.15,0,0,0,.91-1.39L50,59.2a1.14,1.14,0,0,0-1.33-.87l-1.22.23a1.15,1.15,0,0,0-.93,1.29l1.67,11.39A1.15,1.15,0,0,0,49.58,72.21Z"/><line class="cls-4" x1="48.1" y1="58.44" x2="46.71" y2="51.1"/></svg>