<?xml version="1.0" encoding="UTF-8"?>
<svg width="1012" height="794" data-name="Layer 1" version="1.1" viewBox="0 0 1012 794"
  xmlns="http://www.w3.org/2000/svg" xmlns:cc="http://creativecommons.org/ns#"
  xmlns:dc="http://purl.org/dc/elements/1.1/" xmlns:rdf="http://www.w3.org/1999/02/22-rdf-syntax-ns#">
  <style>
    .needle {
      transform: rotate(-204deg);
      transform-origin: 229px 622px;
      animation: 3s ease-out infinite spin;
    }

    @keyframes spin {
      0% {
        transform: rotate(-204deg);
      }

      15% {
        transform: rotate(0deg);
      }

      40% {
        transform: rotate(-17deg);
      }

      65% {
        transform: rotate(0deg);
      }

      100% {
        transform: rotate(-204deg);
      }
    }
  </style>
  <g fill="#f5f5f5">
    <path transform="translate(-94 -53)"
      d="m423.31 249.14-119.93 99.458a54.313 54.313 0 1 1-83.525 69.268l-107.52 89.169 172.36 207.83 310.98-257.9z" />
    <path
      d="m958.32 387.9c0 122.84-73.026 165.73-163.11 165.73s-163.11-42.891-163.11-165.73 163.11-279.11 163.11-279.11 163.11 156.27 163.11 279.11z" />
    <path
      d="m958.32 387.24c0 122.84-73.026 165.73-163.11 165.73s-163.11-42.891-163.11-165.73 163.11-279.11 163.11-279.11 163.11 156.27 163.11 279.11z" />
    <path
      d="m958.32 387.24c0 122.84-73.026 165.73-163.11 165.73s-163.11-42.891-163.11-165.73 163.11-279.11 163.11-279.11 163.11 156.27 163.11 279.11z" />
    <path
      d="m958.32 387.9c0 122.84-73.026 165.73-163.11 165.73s-163.11-42.891-163.11-165.73 163.11-279.11 163.11-279.11 163.11 156.27 163.11 279.11z" />
    <path
      d="m958.32 387.9c0 122.84-73.026 165.73-163.11 165.73s-163.11-42.891-163.11-165.73 163.11-279.11 163.11-279.11 163.11 156.27 163.11 279.11z" />
    <path
      d="m958.32 387.9c0 122.84-73.026 165.73-163.11 165.73s-163.11-42.891-163.11-165.73 163.11-279.11 163.11-279.11 163.11 156.27 163.11 279.11z" />
    <path
      d="m958.32 387.9c0 122.84-73.026 165.73-163.11 165.73s-163.11-42.891-163.11-165.73 163.11-279.11 163.11-279.11 163.11 156.27 163.11 279.11z" />
    <path
      d="m958.32 387.9c0 122.84-73.026 165.73-163.11 165.73s-163.11-42.891-163.11-165.73 163.11-279.11 163.11-279.11 163.11 156.27 163.11 279.11z" />
    <path
      d="m958.32 387.9c0 122.84-73.026 165.73-163.11 165.73s-163.11-42.891-163.11-165.73 163.11-279.11 163.11-279.11 163.11 156.27 163.11 279.11z" />
    <path
      d="m958.32 387.9c0 122.84-73.026 165.73-163.11 165.73s-163.11-42.891-163.11-165.73 163.11-279.11 163.11-279.11 163.11 156.27 163.11 279.11z" />
    <path
      d="m958.32 387.9c0 122.84-73.026 165.73-163.11 165.73s-163.11-42.891-163.11-165.73 163.11-279.11 163.11-279.11 163.11 156.27 163.11 279.11z" />
    <path
      d="m958.32 387.9c0 122.84-73.026 165.73-163.11 165.73s-163.11-42.891-163.11-165.73 163.11-279.11 163.11-279.11 163.11 156.27 163.11 279.11z" />
    <path
      d="m958.32 387.9c0 122.84-73.026 165.73-163.11 165.73s-163.11-42.891-163.11-165.73 163.11-279.11 163.11-279.11 163.11 156.27 163.11 279.11z" />
    <path
      d="m958.32 387.9c0 122.84-73.026 165.73-163.11 165.73s-163.11-42.891-163.11-165.73 163.11-279.11 163.11-279.11 163.11 156.27 163.11 279.11z" />
    <path
      d="m958.32 387.9c0 122.84-73.026 165.73-163.11 165.73s-163.11-42.891-163.11-165.73 163.11-279.11 163.11-279.11 163.11 156.27 163.11 279.11z" />
    <path transform="translate(-94 -53)"
      d="m1106 550.26c0 122.84-73.026 165.73-163.11 165.73s-163.11-42.891-163.11-165.73 163.11-279.11 163.11-279.11 163.11 156.27 163.11 279.11z" />
  </g>
  <g>
    <polygon
      points="842.95 644.2 844.62 541.4 914.14 414.21 844.88 525.27 845.63 479.04 893.55 387.03 845.83 466.81 845.83 466.81 847.18 383.67 898.49 310.42 847.4 370.6 848.24 218.15 842.94 419.96 843.37 411.64 791.21 331.79 842.54 427.62 837.67 520.47 837.53 518.01 777.39 433.98 837.35 526.71 836.74 538.33 836.63 538.5 836.68 539.45 824.35 775.03 840.82 775.03 842.8 653.35 902.61 560.84"
      fill="#2d2c2c" />
    <ellipse cx="707" cy="777" rx="228" ry="17" fill="#3e3e3e" />
    <rect x="692" width="36" height="782" fill="#3e3e3e" />
    <path transform="translate(-94 -53)"
      d="m1008.5 802.11c0 22.469-13.356 30.314-29.834 30.314q-0.57257 0-1.1433-0.01273c-0.76345-0.01636-1.5196-0.05271-2.2667-0.10361-14.871-1.0524-26.424-9.3012-26.424-30.197 0-21.625 27.634-48.912 29.71-50.932l0.00364-0.00363c0.08-0.07816 0.12-0.11633 0.12-0.11633s29.834 28.583 29.834 51.052z"
      fill="#92b06a" />
  </g>
  <path transform="translate(-94 -53)"
    d="m977.55 828.99 10.912-15.247-10.939 16.921-0.02906 1.7504c-0.76345-0.01636-1.5196-0.05271-2.2667-0.10361l1.1761-22.479-0.0091-0.1745 0.02-0.03272 0.11088-2.1231-10.966-16.963 11.001 15.37 0.02548 0.45079 0.88883-16.985-9.3884-17.528 9.5029 14.547 0.9252-35.212 0.00364-0.12v0.11633l-0.1545 27.767 9.3466-11.008-9.3848 13.4-0.2472 15.207 8.7268-14.594-8.7631 16.832-0.13814 8.4541 12.669-20.313-12.717 23.263z"
    fill="#3f3d56" />
  <g fill="#2d2c2c">
    <path transform="translate(-94 -53)"
      d="m743.23 785.29-6.3818-4.7412s-4.2244 23.597 0.48949 27.132 22.391 9.4277 22.391 16.498 40.068 16.498 41.246 5.8923-3.5354-16.498-3.5354-16.498-18.855-18.855-21.212-22.391-8.2492-10.606-8.2492-10.606z" />
    <path transform="translate(-94 -53)"
      d="m837.5 491.85s-0.17679 1.037-0.48306 2.9344c-0.283 1.6852-0.6718 4.0657-1.1432 7.0001-4.9496 30.204-19.386 119.12-18.408 122.05 1.1785 3.5354 9.4277 16.498 0 20.034-0.90744 0.34172-1.8855 1.4495-2.9344 3.1936a68.494 68.494 0 0 0-4.9849 11.761c-5.6213 16.31-11.632 42.413-15.108 60.49-1.5203 7.9429-2.5572 14.33-2.8636 17.677a9.6118 9.6118 0 0 0-0.03539 2.3334c1.1785 4.7138-7.0708 21.212-10.606 25.926s-9.4277 9.4277-8.2492 14.142-29.462 17.677-32.997 9.4277-3.5354-12.963-4.7138-15.32-2.3569-18.855 3.5354-21.212 2.3569-43.603 8.2492-51.852c1.9679-2.7458 4.9731-12.044 8.1196-23.228 1.2373-4.3838 2.4865-9.0506 3.7122-13.729 4.9731-19.174 9.3805-38.465 9.3805-38.465l-1.1784-137.88 64.815-8.2492 1.6615 3.665 3.3115 7.2711z" />
    <path transform="translate(-94 -53)"
      d="m841.04 718.12s9.4277-9.4277 14.142 0 9.4277 45.96 17.677 54.209 18.855 49.495 7.0708 51.852-24.748-3.5354-25.926-10.606-25.926-43.603-25.926-47.138 16.498-16.498 16.498-16.498z" />
    <path transform="translate(-94 -53)"
      d="m696.09 427.04s15.32 137.88 18.855 150.84 22.391 62.458 28.283 70.708 43.603 75.422 48.317 78.957 14.142 12.963 14.142 12.963 17.677 17.677 20.034 21.212 22.391-7.0708 23.569-14.142-1.1785-18.855-2.3569-23.569 2.3569-11.785-1.1785-15.32-21.212-21.212-21.212-29.462-30.64-56.566-42.425-67.172-9.4277-28.283-9.4277-28.283v-71.886l64.815-20.034s-3.5354-56.566-11.785-56.566-116.67-18.855-129.63-8.2492z" />
  </g>
  <circle cx="697.54" cy="138.35" r="38.889" fill="#9f616a" />
  <path transform="translate(-94 -53)"
    d="m778.58 221.99s-4.7138 17.677-10.606 22.391 15.32 24.748 15.32 24.748l40.068 2.3569 7.0708-22.391s-12.963-25.926-9.4277-42.425-42.425 15.32-42.425 15.32z"
    fill="#9f616a" />
  <g>
    <path transform="translate(-94 -53)"
      d="m762.08 242.02s10.606 1.1785 12.963 4.7138 18.855 14.142 31.818 11.785 21.212-5.8923 23.569-4.7138 7.0708 25.926 7.0708 25.926l-12.963 37.711 2.3569 103.7 3.5354 28.283s7.0708-9.4277-21.212-3.5354-64.815-4.7138-76.6-5.8923-31.818-4.7138-32.997-11.785 3.5354-32.997 3.5354-32.997l18.855-78.957 11.785-42.425z"
      fill="#3e3e3e" />
    <path transform="translate(-94 -53)"
      d="m773.23 236.7s-9.9685-5.2873-13.504-0.57343-48.317 11.785-48.317 15.32-9.4277 98.991-7.0708 107.24-4.7138 17.677-4.7138 17.677l-8.2492 35.354s-22.391 67.172-12.963 69.529 17.677 0 21.212 0 2.3569-44.782 11.785-56.566 22.391-41.246 24.748-47.138 31.818-87.206 30.64-96.634 6.4331-44.208 6.4331-44.208z"
      fill="#657786" />
    <path transform="translate(-94 -53)"
      d="m822.18 242.02s9.4277 0 10.606 2.3569 12.963 17.677 17.677 21.212 21.212 18.855 21.212 22.391-34.175 29.462-34.175 29.462-14.142 69.529-7.0708 93.098 17.677 80.135 12.963 83.671-15.32 4.7138-15.32 0-7.0708-55.388-12.963-65.994-23.569-77.778-16.498-96.634 23.569-89.563 23.569-89.563z"
      fill="#657786" />
  </g>
  <path transform="translate(-94 -53)"
    d="m666.63 358.69s-1.1785 36.532 11.785 55.388 21.212 40.068 21.212 40.068 21.212-5.8923 24.748-12.963 25.926-1.1785 25.926-3.5354-27.105-14.142-29.462-16.498-10.606-2.3569-15.32-7.0708-5.8923-15.32-5.8923-15.32l-4.7138-30.64z"
    fill="#9f616a" />
  <path transform="translate(-94 -53)"
    d="m764.76 167.37c-2.9918-0.27176-6.0774-0.57079-8.7215-1.9968-5.9246-3.1951-7.4956-12.294-2.9855-17.291a22.344 22.344 0 0 1 4.1431-3.3314l8.9578-6.0972c3.9619-2.6966 8.0174-5.4375 12.638-6.7087 4.1794-1.1498 8.5936-1.0316 12.92-0.76273 8.3986 0.522 16.849 1.6003 24.749 4.5s15.268 7.7509 20.052 14.673c7.5845 10.974 7.6888 25.775 3.5114 38.444s-12.112 23.701-19.931 34.51l-4.0569-19.795c-0.36135-1.7631-0.82864-3.6954-2.295-4.7389-3.6445-2.5935-8.1027 2.7314-12.576 2.6969-2.8741-0.02218-5.2871-2.3861-6.3762-5.0459s-1.1609-5.6053-1.4129-8.4684c-0.53374-6.0642-2.6534-14.502-8.3962-17.847-5.3514-3.1165-14.206-2.1959-20.221-2.7423z"
    fill="#2d2c2c" />
  <path transform="translate(-94 -53)" d="m766.94 492.8s3.9802 115.13 6.3371 118.66 0-119.02 0-119.02z" opacity=".1" />
  <path transform="translate(-94 -53)"
    d="m720.84 251.45h-9.4277s-40.068 54.209-35.354 57.745 0 12.963 0 12.963l-9.4277 17.677s-11.785 10.606-8.2492 12.963 8.2492 11.785 8.2492 11.785 23.569-3.5354 30.64 10.606l15.284-19.296z"
    fill="#657786" />
  <path transform="translate(-94 -53)"
    d="m828.08 352.79s-25.926 1.1785-55.388-17.677l-29.462-12.963s-25.926-40.068-28.283-32.997 3.5354 21.212 3.5354 21.212-35.555 16.455-36.479 18.63 19.981-3.3097 19.981-3.3097-3.5354 22.391 16.498 23.569 25.926-3.5354 25.926-3.5354 84.849 70.708 98.991 48.317-15.32-41.246-15.32-41.246z"
    fill="#9f616a" />
  <g>
    <path transform="translate(-94 -53)"
      d="m858.72 283.27 12.963 4.7138v35.354l4.7138 7.0708s-1.1785 14.142-4.7138 17.677-10.606 2.3569-8.2492 10.606a44.667 44.667 0 0 1 1.1785 16.498s-21.212 27.105-22.391 23.569-17.677-47.138-20.034-47.138 23.569-68.351 23.569-68.351z"
      fill="#657786" />
    <path transform="translate(-94 -53)"
      d="m703.75 461.8s-12.185-11.785-6.0925-12.374 27.305-12.374 30.84-6.4815-24.748 18.855-24.748 18.855z"
      fill="#2d2c2c" />
    <path transform="translate(-94 -53)"
      d="m517.72 808a226.92 226.92 0 0 0 32.283-117c0-125.92-102.08-228-228-228s-228 102.08-228 228a226.92 226.92 0 0 0 32.283 117z"
      fill="#3e3e3e" />
  </g>
  <g fill="#eb7260">
    <circle cx="228" cy="623" r="22" />
    <circle cx="53" cy="659" r="11" />
    <circle cx="59.454" cy="563.73" r="11" />
    <circle cx="114.06" cy="485.39" r="11" />
    <circle cx="201.21" cy="446.36" r="11" />
    <circle cx="296.01" cy="457.79" r="11" />
    <circle cx="371.39" cy="516.41" r="11" />
    <circle cx="405.8" cy="605.49" r="11" />
    <circle cx="389.43" cy="699.57" r="11" />
  </g>
  <line x1="231.66" x2="362.52" y1="623.75" y2="647.27" fill="none" stroke="#eb7260" stroke-miterlimit="10"
    stroke-width="3.428" class="needle" />
  <circle cx="332.54" cy="198.35" r="14.756" fill="none" stroke="#3f3d56" stroke-miterlimit="10" stroke-width="2" />
  <circle cx="416.54" cy="370.35" r="14.756" fill="#3e3e3e" />
  <circle cx="168.22" cy="331.17" r="42.777" fill="#f5f5f5" />
</svg>