<svg id="Layer_1" data-name="Layer 1" xmlns="http://www.w3.org/2000/svg" viewBox="0 0 100 100"><defs><style>.cls-1{fill:#e8f4fa;}.cls-2,.cls-9{fill:#fff;}.cls-3,.cls-6,.cls-7,.cls-8{fill:none;}.cls-3,.cls-6,.cls-9{stroke:#45413c;}.cls-3,.cls-8{stroke-linecap:round;}.cls-3,.cls-6,.cls-8,.cls-9{stroke-linejoin:round;}.cls-4{fill:#020202;opacity:0.15;}.cls-5{fill:#f0f0f0;}.cls-7,.cls-8{stroke:#46b000;}.cls-7{stroke-miterlimit:10;}.cls-10{fill:#ff6242;}.cls-11{fill:#ff866e;}.cls-12{fill:#e04122;}.cls-13{fill:#656769;}</style></defs><title>stamp-document</title><path class="cls-1" d="M90.5,50A40,40,0,1,0,14.06,66.5H86.94A39.85,39.85,0,0,0,90.5,50Z"/><path class="cls-2" d="M14.06,66.5a40,40,0,0,0,72.88,0Z"/><line class="cls-3" x1="11" y1="66.5" x2="89" y2="66.5"/><line class="cls-3" x1="6.5" y1="66.5" x2="9" y2="66.5"/><line class="cls-3" x1="91" y1="66.5" x2="93.5" y2="66.5"/><path class="cls-4" d="M74.93,75.9c0,1-11,1.9-24.67,1.9S25.6,77,25.6,75.9s11-1.9,24.66-1.9S74.93,74.85,74.93,75.9Z"/><path class="cls-5" d="M77.46,73.37a1.25,1.25,0,0,1-1.26,1.26H44.05a1.26,1.26,0,0,1-1.27-1.26V29.09a1.26,1.26,0,0,1,1.27-1.26H70.61a1.26,1.26,0,0,1,.9.37l5.58,5.58a1.26,1.26,0,0,1,.37.9Z"/><path class="cls-2" d="M42.78,32.89a1.27,1.27,0,0,1,1.27-1.27H74.93L71.51,28.2a1.26,1.26,0,0,0-.9-.37H44.05a1.26,1.26,0,0,0-1.27,1.26Z"/><path class="cls-6" d="M77.46,73.37a1.25,1.25,0,0,1-1.26,1.26H44.05a1.26,1.26,0,0,1-1.27-1.26V29.09a1.26,1.26,0,0,1,1.27-1.26H70.61a1.26,1.26,0,0,1,.9.37l5.58,5.58a1.26,1.26,0,0,1,.37.9Z"/><circle class="cls-7" cx="68.08" cy="63.25" r="6.33"/><polyline class="cls-8" points="64.92 63.25 67.45 65.78 71.56 61.03"/><line class="cls-3" x1="51.01" y1="43.01" x2="70.61" y2="43.01"/><line class="cls-3" x1="52.79" y1="39.21" x2="61.2" y2="39.21"/><line class="cls-3" x1="51.01" y1="46.8" x2="70.61" y2="46.8"/><line class="cls-3" x1="51.01" y1="50.6" x2="70.61" y2="50.6"/><path class="cls-9" d="M71.14,33a1.14,1.14,0,0,0,1.15,1.15h5a1.27,1.27,0,0,0-.25-.37L71.51,28.2a1.27,1.27,0,0,0-.37-.25Z"/><path class="cls-10" d="M24.54,62H55.75a4,4,0,0,1,4,4v3.85a1,1,0,0,1-1,1H21.54a1,1,0,0,1-1-1V66A4,4,0,0,1,24.54,62Z"/><path class="cls-11" d="M59.75,66.58a4.6,4.6,0,0,0-4.6-4.6h-30a4.6,4.6,0,0,0-4.6,4.6v3.11a1.85,1.85,0,0,0,0,.23,4.59,4.59,0,0,1,4.56-4.14h30a4.6,4.6,0,0,1,4.56,4.14,1.85,1.85,0,0,0,0-.23Z"/><path class="cls-10" d="M46.07,45.54H34.22a2.25,2.25,0,0,1-.81-.16c.62,1.29,2.31,5.8,2.31,16.6h8.85c0-10.8,1.69-15.31,2.31-16.6A2.25,2.25,0,0,1,46.07,45.54Z"/><path class="cls-12" d="M34.22,45.54a2.25,2.25,0,0,1-.81-.16,12.86,12.86,0,0,1,.69,1.84H46.19a12.86,12.86,0,0,1,.69-1.84,2.25,2.25,0,0,1-.81.16Z"/><path class="cls-13" d="M56.85,73.85a1.13,1.13,0,0,1-1.09.78H24.53a1.13,1.13,0,0,1-1.09-.78l-1-3H57.86Z"/><path class="cls-6" d="M24.54,62H55.75a4,4,0,0,1,4,4v3.85a1,1,0,0,1-1,1H21.54a1,1,0,0,1-1-1V66A4,4,0,0,1,24.54,62Z"/><path class="cls-6" d="M46.07,45.54H34.22a2.25,2.25,0,0,1-.81-.16c.62,1.29,2.31,5.8,2.31,16.6h8.85c0-10.8,1.69-15.31,2.31-16.6A2.25,2.25,0,0,1,46.07,45.54Z"/><path class="cls-6" d="M56.85,73.85a1.13,1.13,0,0,1-1.09.78H24.53a1.13,1.13,0,0,1-1.09-.78l-1-3H57.86Z"/><line class="cls-6" x1="35.64" y1="58.19" x2="44.65" y2="58.19"/><rect class="cls-10" x="31.92" y="35.42" width="16.45" height="10.12" rx="2" ry="2"/><path class="cls-11" d="M46.07,35.42H34.22a2.3,2.3,0,0,0-2.3,2.3v3.16a2.3,2.3,0,0,1,2.3-2.3H46.07a2.3,2.3,0,0,1,2.3,2.3V37.72A2.3,2.3,0,0,0,46.07,35.42Z"/><rect class="cls-6" x="31.92" y="35.42" width="16.45" height="10.12" rx="2" ry="2"/></svg>