<svg id="Layer_1" data-name="Layer 1" xmlns="http://www.w3.org/2000/svg" viewBox="0 0 100 100"><defs><style>.cls-1{fill:#e8f4fa;}.cls-2{fill:#f0f0f0;}.cls-10,.cls-11,.cls-12,.cls-13,.cls-14,.cls-2,.cls-3,.cls-6{stroke:#45413c;}.cls-10,.cls-11,.cls-13,.cls-14,.cls-16,.cls-2,.cls-3,.cls-6{stroke-linecap:round;}.cls-10,.cls-11,.cls-12,.cls-13,.cls-14,.cls-16,.cls-2,.cls-3,.cls-6{stroke-linejoin:round;}.cls-3,.cls-4{fill:#8cffe4;}.cls-5{fill:#00f5bc;}.cls-16,.cls-6{fill:none;}.cls-14,.cls-7{fill:#ccfff3;}.cls-8{fill:#ffe500;}.cls-9{fill:#fff48c;}.cls-10{fill:#dea47a;}.cls-11{fill:#87898c;}.cls-12{fill:#fff;}.cls-13{fill:#daedf7;}.cls-15{fill:#4aeff7;}.cls-16{stroke:#a6fbff;}</style></defs><title>statue-of-liberty</title><circle class="cls-1" cx="50" cy="51.07" r="40"/><path class="cls-2" d="M63.13,45.87h2.69a1,1,0,0,1,1,1v5.57a0,0,0,0,1,0,0H62.13a0,0,0,0,1,0,0V46.87A1,1,0,0,1,63.13,45.87Z"/><path class="cls-3" d="M41.76,19.13l-3,1.58-.93-3.26a.31.31,0,0,0-.6,0l-1,3.24L33.4,19a.31.31,0,0,0-.45.38l1.44,3.59a3.19,3.19,0,0,1,5.88.14l1.91-3.53A.31.31,0,0,0,41.76,19.13Z"/><polygon class="cls-3" points="28.45 17.8 24.5 17.8 25.11 22.49 27.84 22.49 28.45 17.8"/><path class="cls-4" d="M47.76,44.07V36.2l-5.24,4.44a1,1,0,0,0-.11,1.41L45,45.1a1,1,0,0,0,1.4.12Z"/><path class="cls-4" d="M26.8,33.35l.22.22a2.92,2.92,0,0,1,.17-.36L30,28.27l-1.39-7.53a1,1,0,0,0-1-.82H26.39a2.69,2.69,0,0,0-1.09,5.14v4.69A5.07,5.07,0,0,0,26.8,33.35Z"/><path class="cls-5" d="M26.55,22.49h1.53a1.56,1.56,0,0,1,.91.28l-.37-2a1,1,0,0,0-1-.82H26.39a2.68,2.68,0,0,0-2.68,2.69,2.65,2.65,0,0,0,.13.85A4.06,4.06,0,0,1,26.55,22.49Z"/><path class="cls-6" d="M26.79,33.35l.22.22c.06-.12.11-.24.18-.36L30,28.27c-.58-3.14-1.14-6.14-1.4-7.53a1,1,0,0,0-1-.82H26.39a2.68,2.68,0,0,0-1.09,5.14v4.69A5.1,5.1,0,0,0,26.79,33.35Z"/><path class="cls-1" d="M40.91,31.41h-7.2l.4-7.36a3.2,3.2,0,0,1,3.2-3h0a3.2,3.2,0,0,1,3.19,3Z"/><path class="cls-4" d="M40.91,31.41h-7.2l.4-7.36a3.2,3.2,0,0,1,3.2-3h0a3.2,3.2,0,0,1,3.19,3Z"/><path class="cls-5" d="M38.05,29.37a1.69,1.69,0,0,1-1.52,0A4.75,4.75,0,0,1,34,25.17l-.33,6.24h7.2l-.34-6.24A4.78,4.78,0,0,1,38.05,29.37Z"/><path class="cls-7" d="M37.31,22.4a3.38,3.38,0,0,1,3.24,2.45l0-.8a3.2,3.2,0,0,0-6.39,0l0,.8A3.38,3.38,0,0,1,37.31,22.4Z"/><path class="cls-6" d="M40.91,31.41h-7.2l.4-7.36a3.2,3.2,0,0,1,3.2-3h0a3.2,3.2,0,0,1,3.19,3Z"/><path class="cls-4" d="M47.31,36.58l-2.87-3.1a4.58,4.58,0,0,0-1.36-1L40.9,31.41l-4.76-.18A3.74,3.74,0,0,1,33.38,30l-2-2.2a.72.72,0,0,0-1.17.13l-3,5.28A3.1,3.1,0,0,0,27,35.82l3.94,7.94v18.1H43.84v-15l4.91-5Z"/><path class="cls-5" d="M42,53l-11,8.66v.18h4l8.88-6.63V50.76A4.94,4.94,0,0,1,42,53Z"/><path class="cls-5" d="M47.31,36.58l-2.87-3.1a4.58,4.58,0,0,0-1.36-1L40.9,31.41l-4.76-.18A3.74,3.74,0,0,1,33.38,30l-2-2.2a.72.72,0,0,0-1.17.13l-.48.84,2.82,3.1a3.74,3.74,0,0,0,2.76,1.23l4.76.18,2.18,1a4.58,4.58,0,0,1,1.36,1l4.78,5.16Z"/><path class="cls-6" d="M47.31,36.58l-2.87-3.1a4.58,4.58,0,0,0-1.36-1L40.9,31.41l-4.76-.18A3.74,3.74,0,0,1,33.38,30l-2-2.2a.72.72,0,0,0-1.17.13l-3,5.28A3.1,3.1,0,0,0,27,35.82l3.94,7.94v18.1H43.84v-15l4.91-5Z"/><path class="cls-6" d="M40.57,25.06a4.79,4.79,0,0,1-2.52,4.31h0a1.69,1.69,0,0,1-1.52,0h0A4.77,4.77,0,0,1,34,25.06"/><line class="cls-6" x1="25.31" y1="25.06" x2="26.99" y2="25.06"/><path class="cls-8" d="M28,14.19a1.85,1.85,0,0,0,.38-.67L29,12.08l-1.16-.36.42-2.79L25.18,11.5h0a2,2,0,0,0-.61,1.42,2,2,0,0,0,2,1.95A1.93,1.93,0,0,0,28,14.22h0Z"/><path class="cls-9" d="M25.78,14a1.9,1.9,0,0,1,.61-1.41h0l1.52-1.27.35-2.34L25.18,11.5h0a1.95,1.95,0,0,0,.8,3.29A1.83,1.83,0,0,1,25.78,14Z"/><path class="cls-6" d="M28,14.19a1.85,1.85,0,0,0,.38-.67L29,12.08l-1.16-.36.42-2.79L25.18,11.5h0a2,2,0,0,0-.61,1.42,2,2,0,0,0,2,1.95A1.93,1.93,0,0,0,28,14.22h0Z"/><rect class="cls-1" x="44.5" y="35.37" width="6" height="9.97" rx="1" ry="1" transform="translate(47.55 -21.98) rotate(49.7)"/><rect class="cls-7" x="44.5" y="35.37" width="6" height="9.97" rx="1" ry="1" transform="translate(47.55 -21.98) rotate(49.7)"/><path class="cls-6" d="M34.07,24.65a5.9,5.9,0,0,1,3.24-1.14,6.59,6.59,0,0,1,3.21.92"/><rect class="cls-6" x="44.5" y="35.37" width="6" height="9.97" rx="1" ry="1" transform="translate(47.55 -21.98) rotate(49.7)"/><line class="cls-6" x1="32.64" y1="29.19" x2="29.77" y2="34.24"/><line class="cls-6" x1="34.54" y1="30.86" x2="32.53" y2="34.38"/><line class="cls-6" x1="29.77" y1="37.84" x2="28.93" y2="39.31"/><line class="cls-6" x1="41.56" y1="61.86" x2="41.56" y2="56.01"/><line class="cls-6" x1="37.26" y1="61.86" x2="37.26" y2="59.09"/><path class="cls-10" d="M26.52,61.86H46.44a1,1,0,0,1,1,1v5.85a0,0,0,0,1,0,0H25.52a0,0,0,0,1,0,0V62.86A1,1,0,0,1,26.52,61.86Z"/><path class="cls-10" d="M24.26,64.6H48.71a1,1,0,0,1,1,1v3.11a0,0,0,0,1,0,0H23.26a0,0,0,0,1,0,0V65.6A1,1,0,0,1,24.26,64.6Z"/><path class="cls-11" d="M58.3,64.6H77a1,1,0,0,1,1,1v3.11a0,0,0,0,1,0,0H57.3a0,0,0,0,1,0,0V65.6A1,1,0,0,1,58.3,64.6Z"/><path class="cls-12" d="M67.58,30.69A1.73,1.73,0,0,0,65.85,29a1.64,1.64,0,0,0-.63.12,2.88,2.88,0,0,0-5.69,0A1.68,1.68,0,0,0,58.9,29a1.74,1.74,0,0,0,0,3.47h6.95A1.74,1.74,0,0,0,67.58,30.69Z"/><path class="cls-2" d="M61.41,48.91h1.45a.5.5,0,0,1,.5.5v3a0,0,0,0,1,0,0H60.91a0,0,0,0,1,0,0v-3A.5.5,0,0,1,61.41,48.91Z"/><path class="cls-2" d="M66.1,48.91h1.45a.5.5,0,0,1,.5.5v3a0,0,0,0,1,0,0H65.6a0,0,0,0,1,0,0v-3A.5.5,0,0,1,66.1,48.91Z"/><path class="cls-2" d="M61.27,52.43H67.7a1,1,0,0,1,1,1V64.6a0,0,0,0,1,0,0H60.27a0,0,0,0,1,0,0V53.43A1,1,0,0,1,61.27,52.43Z"/><path class="cls-13" d="M76.41,64.6H70.48L71,51.35a1,1,0,0,1,1-1h2.81a1,1,0,0,1,1,1Z"/><path class="cls-14" d="M51.55,43l-1.87,1.43a1.49,1.49,0,0,1-2.1-.28h0a1.5,1.5,0,0,1,.28-2.1l1.87-1.43a1.5,1.5,0,0,1,2.1.28h0A1.5,1.5,0,0,1,51.55,43Z"/><path class="cls-4" d="M30.87,42.69a1.86,1.86,0,0,0-.46,1.17l-.11,3.78A2.4,2.4,0,0,0,30,49.12v12c0,.52.46.86.84.63L42,53a5.53,5.53,0,0,0,2.38-4.71V39.76c0-1-.05-1.93-.13-2.9l-.29-3.15A1.57,1.57,0,0,0,43,32.44l-2.13-1Z"/><path class="cls-5" d="M43,32.44l-2.13-1-1.63,1.84.8,0,2.18,1a4.58,4.58,0,0,1,1.36,1l.51.55-.2-2.19A1.57,1.57,0,0,0,43,32.44Z"/><path class="cls-6" d="M30.87,42.69a1.86,1.86,0,0,0-.46,1.17l-.11,3.78A2.4,2.4,0,0,0,30,49.12v12c0,.52.46.86.84.63L42,53a5.53,5.53,0,0,0,2.38-4.71V39.76c0-1-.05-1.93-.13-2.9l-.29-3.15A1.57,1.57,0,0,0,43,32.44l-2.13-1Z"/><line class="cls-6" x1="39.97" y1="36.14" x2="43.21" y2="32.52"/><line class="cls-6" x1="32.96" y1="50.14" x2="38.16" y2="44.69"/><path class="cls-6" d="M39.25,55.12a5.53,5.53,0,0,0,2.38-4.71V38.89"/><line class="cls-6" x1="32.04" y1="57" x2="35.97" y2="53.54"/><polygon class="cls-2" points="63.35 45.87 64.49 39.73 65.62 45.87 63.35 45.87"/><line class="cls-6" x1="64.48" y1="52.43" x2="64.48" y2="61.15"/><line class="cls-6" x1="64.49" y1="39.74" x2="64.49" y2="37.66"/><line class="cls-6" x1="60.27" y1="55.01" x2="62.05" y2="55.01"/><line class="cls-6" x1="60.27" y1="57.61" x2="62.05" y2="57.61"/><line class="cls-6" x1="66.93" y1="55.01" x2="68.7" y2="55.01"/><line class="cls-6" x1="66.93" y1="57.61" x2="68.7" y2="57.61"/><polyline class="cls-6" points="71.17 50.9 73.45 64.6 75.73 50.9"/><path class="cls-13" d="M72.64,48.21h1.53a1,1,0,0,1,1,1v1.18a0,0,0,0,1,0,0H71.64a0,0,0,0,1,0,0V49.21A1,1,0,0,1,72.64,48.21Z"/><line class="cls-6" x1="73.4" y1="48.21" x2="73.4" y2="45.17"/><path class="cls-2" d="M68,60.06h1.44a1,1,0,0,1,1,1V64.6a0,0,0,0,1,0,0H67a0,0,0,0,1,0,0V61.06A1,1,0,0,1,68,60.06Z"/><path class="cls-2" d="M59.55,60.06H61a1,1,0,0,1,1,1V64.6a0,0,0,0,1,0,0H58.55a0,0,0,0,1,0,0V61.06A1,1,0,0,1,59.55,60.06Z"/><path class="cls-3" d="M23.5,14.87h6a1,1,0,0,1,1,1v.51A1.42,1.42,0,0,1,29,17.8H23.92a1.42,1.42,0,0,1-1.42-1.42v-.51A1,1,0,0,1,23.5,14.87Z"/><path class="cls-15" d="M79.24,67.15c-2.44,0-2.44,1.56-4.88,1.56s-2.44-1.56-4.88-1.56S67,68.71,64.61,68.71s-2.44-1.56-4.88-1.56-2.44,1.56-4.87,1.56S52.42,67.15,50,67.15s-2.43,1.56-4.87,1.56-2.44-1.56-4.87-1.56-2.44,1.56-4.88,1.56-2.43-1.56-4.87-1.56-2.43,1.56-4.87,1.56-2.44-1.56-4.87-1.56-2.44,1.56-4.88,1.56a3.7,3.7,0,0,1-2-.52,40,40,0,0,0,72.3,0,3.74,3.74,0,0,1-2,.53C81.68,68.71,81.68,67.15,79.24,67.15Z"/><path class="cls-6" d="M11,67.15c2.44,0,2.44,1.56,4.87,1.56s2.44-1.56,4.88-1.56,2.43,1.56,4.87,1.56,2.44-1.56,4.87-1.56,2.44,1.56,4.87,1.56,2.44-1.56,4.88-1.56,2.43,1.56,4.87,1.56,2.44-1.56,4.87-1.56,2.44,1.56,4.88,1.56,2.43-1.56,4.87-1.56,2.44,1.56,4.88,1.56,2.43-1.56,4.87-1.56,2.44,1.56,4.88,1.56,2.44-1.56,4.88-1.56,2.44,1.56,4.88,1.56,2.44-1.56,4.88-1.56"/><path class="cls-16" d="M24.66,74.62c2.44,0,2.44-1.56,4.87-1.56s2.44,1.56,4.88,1.56,2.43-1.56,4.87-1.56,2.44,1.56,4.87,1.56,2.44-1.56,4.87-1.56,2.44,1.56,4.87,1.56"/><path class="cls-16" d="M39.17,83.79c2.44,0,2.44-1.56,4.87-1.56s2.44,1.56,4.87,1.56,2.44-1.56,4.88-1.56,2.43,1.56,4.87,1.56"/><path class="cls-16" d="M74.78,77c-2.43,0-2.43,1.56-4.87,1.56S67.48,77,65,77,62.6,78.6,60.17,78.6"/><path class="cls-6" d="M30,49.12a2.39,2.39,0,0,1,.55-1.78l6.34-7.08"/></svg>