<svg id="Layer_1" data-name="Layer 1" xmlns="http://www.w3.org/2000/svg" viewBox="0 0 100 100"><defs><style>.cls-1{fill:#e8f4fa;}.cls-18,.cls-2,.cls-26{fill:#fff;}.cls-15,.cls-22,.cls-3{fill:none;}.cls-11,.cls-13,.cls-15,.cls-17,.cls-18,.cls-19,.cls-22,.cls-25,.cls-26,.cls-3,.cls-5,.cls-8{stroke:#45413c;}.cls-11,.cls-17,.cls-18,.cls-19,.cls-3,.cls-5,.cls-8{stroke-linecap:round;}.cls-11,.cls-17,.cls-18,.cls-19,.cls-22,.cls-25,.cls-26,.cls-3,.cls-5,.cls-8{stroke-linejoin:round;}.cls-4{fill:#020202;opacity:0.15;}.cls-5{fill:#ffcebf;}.cls-17,.cls-6{fill:#00b8f0;}.cls-7{fill:#009fd9;}.cls-8{fill:#debb7e;}.cls-9{fill:#45413c;}.cls-10{fill:#ffb59e;}.cls-11{fill:#ffc44d;}.cls-12{fill:#ffdb94;}.cls-13{fill:#c0dceb;}.cls-13,.cls-15{stroke-miterlimit:10;}.cls-14{fill:#daedf7;}.cls-16{fill:#4acfff;}.cls-19,.cls-23{fill:#ff6242;}.cls-20,.cls-25{fill:#6dd627;}.cls-21{fill:#46b000;}.cls-24{fill:#ff866e;}.cls-27{fill:#f0f0f0;}</style></defs><title>success-goal-businessman</title><path class="cls-1" d="M90,50A40,40,0,1,0,13.56,66.5H86.44A39.85,39.85,0,0,0,90,50Z"/><path class="cls-2" d="M13.56,66.5a40,40,0,0,0,72.88,0Z"/><line class="cls-3" x1="11" y1="66.5" x2="89" y2="66.5"/><line class="cls-3" x1="6.5" y1="66.5" x2="9" y2="66.5"/><line class="cls-3" x1="91" y1="66.5" x2="93.5" y2="66.5"/><ellipse class="cls-4" cx="35.45" cy="81.56" rx="11.5" ry="1.72"/><path class="cls-5" d="M44.7,63.74a2.07,2.07,0,0,1-4.14,0V61H44.7Z"/><path class="cls-6" d="M39.33,77.54a6.29,6.29,0,0,1,2.61.54V58.22H26.76V77.54h3a6.3,6.3,0,0,1,2.58.52l.53-12.26a1.44,1.44,0,0,1,2.88,0l.51,11.74Z"/><path class="cls-7" d="M41.94,61.67H26.76v6.9h6l.12-2.77a1.44,1.44,0,0,1,2.88,0l.12,2.77h6Z"/><path class="cls-3" d="M39.33,77.54a6.29,6.29,0,0,1,2.61.54V58.22H26.76V77.54h3a6.3,6.3,0,0,1,2.58.52l.53-12.26a1.44,1.44,0,0,1,2.88,0l.51,11.74Z"/><path class="cls-8" d="M43.88,81c0-2.47-2.42-3.45-4.55-3.45h-3v2.3A1.15,1.15,0,0,0,37.44,81Z"/><path class="cls-8" d="M34.35,81c0-2.47-2.41-3.45-4.55-3.45h-3v2.3A1.16,1.16,0,0,0,27.91,81Z"/><path class="cls-5" d="M34.36,19.35a6.89,6.89,0,0,0-6.9,6.9v1.38c-2,0-1.83,3.45.35,3.45h0A6.88,6.88,0,0,0,41.26,29V26.25A6.89,6.89,0,0,0,34.36,19.35Z"/><path class="cls-9" d="M33.15,26.94a.86.86,0,1,0,.87.86.86.86,0,0,0-.87-.86Z"/><path class="cls-9" d="M38.33,26.94a.86.86,0,1,0,.86.86.85.85,0,0,0-.86-.86Z"/><path class="cls-10" d="M32.29,30.56a.69.69,0,1,1-.69-.69A.69.69,0,0,1,32.29,30.56Z"/><path class="cls-3" d="M34,31.7a2.59,2.59,0,0,0,3,.29,3.81,3.81,0,0,0,.41-.29"/><path class="cls-11" d="M30.57,23.47c3,2.93,8.24,2.45,11.38,1.39a7.59,7.59,0,0,0-15.18,0v2.39s3.8-1,3.8-3.79"/><path class="cls-12" d="M34.36,20.62a7.58,7.58,0,0,1,6.89,4.44l.7-.2a7.59,7.59,0,0,0-15.18,0v2.39l.1,0A7.57,7.57,0,0,1,34.36,20.62Z"/><path class="cls-3" d="M30.57,23.47c3,2.93,8.24,2.45,11.38,1.39a7.59,7.59,0,0,0-15.18,0v2.39s3.8-1,3.8-3.79"/><path class="cls-3" d="M30.57,23.47a3.16,3.16,0,0,1-.69-.72"/><rect class="cls-13" x="17.1" y="67.88" width="15.18" height="11.04" rx="1.38" ry="1.38"/><path class="cls-14" d="M30.9,67.88H18.48a1.38,1.38,0,0,0-1.38,1.38v3.45a1.38,1.38,0,0,1,1.38-1.38H30.9a1.38,1.38,0,0,1,1.38,1.38V69.26A1.38,1.38,0,0,0,30.9,67.88Z"/><line class="cls-15" x1="20.55" y1="67.88" x2="20.55" y2="78.86"/><line class="cls-15" x1="28.83" y1="67.93" x2="28.83" y2="78.92"/><path class="cls-15" d="M21.93,67.81V66.12a1.69,1.69,0,0,1,1.69-1.69h2.14a1.69,1.69,0,0,1,1.69,1.69v1.69"/><rect class="cls-15" x="17.1" y="67.88" width="15.18" height="11.04" rx="1.38" ry="1.38"/><path class="cls-5" d="M26.76,63.74a2.07,2.07,0,1,1-4.14,0V61h4.14Z"/><path class="cls-6" d="M45.39,49.94a11.73,11.73,0,0,0-23.46,0v9.89A1.16,1.16,0,0,0,23.08,61h3.68v5.17h3.72a4.65,4.65,0,0,0,3.87-2.07,4.65,4.65,0,0,0,3.87,2.07h3.72V61h2.3a1.15,1.15,0,0,0,1.15-1.15Z"/><path class="cls-16" d="M33.66,38.21A11.73,11.73,0,0,0,21.93,49.94v4.25a11.73,11.73,0,0,1,23.46,0V49.94A11.73,11.73,0,0,0,33.66,38.21Z"/><path class="cls-3" d="M45.39,49.94a11.73,11.73,0,0,0-23.46,0v9.89A1.16,1.16,0,0,0,23.08,61h3.68v5.17h3.72a4.65,4.65,0,0,0,3.87-2.07,4.65,4.65,0,0,0,3.87,2.07h3.72V61h2.3a1.15,1.15,0,0,0,1.15-1.15Z"/><line class="cls-17" x1="41.94" y1="60.98" x2="41.94" y2="49.25"/><line class="cls-17" x1="26.76" y1="60.98" x2="26.76" y2="49.25"/><path class="cls-18" d="M34.35,56.15l4.8-16.58A11.69,11.69,0,0,0,29.4,39Z"/><path class="cls-17" d="M39.15,39.57l-4.8,16.58,5.52-7.59V45.11l2.74-2.75A11.85,11.85,0,0,0,39.15,39.57Z"/><polygon class="cls-19" points="34.35 38.23 32.3 49.06 34.35 56.15 36.4 49.06 34.35 38.23"/><line class="cls-17" x1="34.35" y1="63.74" x2="34.35" y2="56.15"/><polyline class="cls-3" points="38.04 43.38 34.36 38.23 30.66 43.37"/><path class="cls-17" d="M34.35,56.15,29.39,39a11.65,11.65,0,0,0-4,2.64l3.48,3.46v3.45Z"/><path class="cls-20" d="M66.65,32.3a2.4,2.4,0,0,0-2.24,1.54L52,66.5H81.8L69.19,33.84A2.38,2.38,0,0,0,67,32.3Z"/><polygon class="cls-21" points="51.95 66.5 66.8 66.5 58.38 49.65 51.95 66.5"/><path class="cls-22" d="M66.65,32.3a2.4,2.4,0,0,0-2.24,1.54L52,66.5H81.8L69.19,33.84A2.38,2.38,0,0,0,67,32.3Z"/><line class="cls-3" x1="66.8" y1="32.3" x2="66.8" y2="22.7"/><path class="cls-23" d="M66.8,11.7a1,1,0,0,1,1-1H82.25a.6.6,0,0,1,.55.36.58.58,0,0,1-.1.64L78.8,16a1,1,0,0,0,0,1.34l3.9,4.33a.58.58,0,0,1,.1.64.6.6,0,0,1-.55.36H66.8Z"/><path class="cls-24" d="M82.7,11.7a.58.58,0,0,0,.1-.64.6.6,0,0,0-.55-.36H67.8a1,1,0,0,0-1,1v1.4H81.44Z"/><path class="cls-22" d="M66.8,11.7a1,1,0,0,1,1-1H82.25a.6.6,0,0,1,.55.36.58.58,0,0,1-.1.64L78.8,16a1,1,0,0,0,0,1.34l3.9,4.33a.58.58,0,0,1,.1.64.6.6,0,0,1-.55.36H66.8Z"/><path class="cls-25" d="M55,48.85a1.19,1.19,0,0,0-2.14,0L44,66.5H63.8Z"/><path class="cls-26" d="M50.72,53.05,53,55.75a1.19,1.19,0,0,0,.92.42,1.21,1.21,0,0,0,.92-.42l2.26-2.7L55,48.85a1.19,1.19,0,0,0-2.14,0Z"/><path class="cls-27" d="M62.41,47.17a1.22,1.22,0,0,0,.88.58,1.19,1.19,0,0,0,1-.34L66,45.75a1.2,1.2,0,0,1,1.7,0l1.66,1.66a1.2,1.2,0,0,0,1.88-.24L73.1,44,69.19,33.84A2.38,2.38,0,0,0,67,32.3h-.3a2.4,2.4,0,0,0-2.24,1.54L60.53,44Z"/><path class="cls-2" d="M63.54,37.83a3.4,3.4,0,0,1,3.05-1.55H67a3.41,3.41,0,0,1,3.06,1.54l2.53,4.81-3.4-8.79A2.38,2.38,0,0,0,67,32.3h-.3a2.4,2.4,0,0,0-2.24,1.54L61.1,42.51Z"/><path class="cls-22" d="M62.41,47.17a1.22,1.22,0,0,0,.88.58,1.19,1.19,0,0,0,1-.34L66,45.75a1.2,1.2,0,0,1,1.7,0l1.66,1.66a1.2,1.2,0,0,0,1.88-.24L73.1,44,69.19,33.84A2.38,2.38,0,0,0,67,32.3h-.3a2.4,2.4,0,0,0-2.24,1.54L60.53,44Z"/></svg>