<?xml version="1.0" encoding="UTF-8"?>
<svg width="902.57" height="748.96" version="1.1" viewBox="0 0 902.57 748.96" xmlns="http://www.w3.org/2000/svg" xmlns:cc="http://creativecommons.org/ns#" xmlns:dc="http://purl.org/dc/elements/1.1/" xmlns:rdf="http://www.w3.org/1999/02/22-rdf-syntax-ns#">
 <metadata>
  <rdf:RDF>
   <cc:Work rdf:about="">
    <dc:format>image/svg+xml</dc:format>
    <dc:type rdf:resource="http://purl.org/dc/dcmitype/StillImage"/>
    <dc:title/>
   </cc:Work>
  </rdf:RDF>
 </metadata>
 <defs>
  <linearGradient id="linear-gradient" x1="183.97" x2="183.97" y1="976.5" y2="975.9" gradientTransform="matrix(2.055 0 0 .48661 -168.72 -90.97)" gradientUnits="userSpaceOnUse">
   <stop stop-color="gray" stop-opacity=".251" offset="0"/>
   <stop stop-color="gray" stop-opacity=".122" offset=".54"/>
   <stop stop-color="gray" stop-opacity=".102" offset="1"/>
  </linearGradient>
 </defs>
 <rect x="636.09" y="169.56" width="10.994" height="90.604" rx="2.29" fill="#3e3e3e" data-name="Rectangle 76"/>
 <rect x="274.25" width="367.78" height="747.46" rx="38.99" fill="#3e3e3e" data-name="Rectangle 80"/>
 <path d="m590.84 19.469h-42.188v5.075a24.047 24.047 0 0 1-24.06 24.047h-134.17a24.047 24.047 0 0 1-24.06-24.047v-5.075h-39.5a29.209 29.209 0 0 0-29.209 29.209v650.15a29.209 29.209 0 0 0 29.209 29.209h263.98a29.209 29.209 0 0 0 29.209-29.209v-650.1a29.209 29.209 0 0 0-29.209-29.259z" fill="#fff" data-name="Path 176"/>
 <rect x="422.66" y="22.322" width="51.357" height="10.423" rx="3.87" fill="#f5f5f5" data-name="Rectangle 81"/>
 <circle cx="487.71" cy="27.534" r="5.919" fill="#f5f5f5" data-name="Ellipse 5"/>
 <circle cx="460.38" cy="382.9" r="69.573" fill="#fff" data-name="Ellipse 11"/>
 <path d="m551.89 373.19a92.987 92.987 0 1 1-92.984-92.99 92.987 92.987 0 0 1 92.984 92.99zm-103.73 49.22 68.977-68.977a5.993 5.993 0 0 0 0-8.487l-8.487-8.425a5.981 5.981 0 0 0-8.475 0l-56.258 56.259-26.268-26.33a6.018 6.018 0 0 0-8.487 0l-8.487 8.537a6.018 6.018 0 0 0 0 8.487l39 38.986a5.993 5.993 0 0 0 8.487 0z" fill="#eb7260" data-name="Path 222"/>
 <g fill="#3f3d56">
  <rect x="282.51" y="147.36" width="5.543" height="26.813" rx="2.29" data-name="Rectangle 77"/>
  <rect x="282.31" y="196.45" width="6.246" height="46.666" rx="2.29" data-name="Rectangle 78"/>
  <rect x="282.41" y="259.45" width="5.945" height="47.067" rx="2.29" data-name="Rectangle 79"/>
 </g>
 <path d="m208.74 383.91a1.026 1.026 0 0 0 1.216 0.156 4.305 4.305 0 0 1-1.216-0.156z" fill="url(#linear-gradient)" data-name="Path 190"/>
 <path d="m254.7 401.89-1.2 6.536-0.926 5-1.684 9.146-16.329 11.432s-1.472-1.26-3.9-3.246c-6.692-5.51-20.757-16.73-31.085-22.753a34.786 34.786 0 0 0-8.544-3.937z" fill="#fcdb96" data-name="Path 192"/>
 <path d="m242.72 406.75s19.039 3.268 20.154-4.863-9.8-12.525-19.05-13.072-64.768 3.268-64.768 3.268-9.793 13.061 25.575 15.247z" fill="#657786" data-name="Path 194"/>
 <rect x="184.76" y="138.45" width="99.6" height="118.1" fill="#2f2e41" data-name="Rectangle 82"/>
 <rect x="184.76" y="138.98" width="99.6" height="118.1" opacity=".1" data-name="Rectangle 83"/>
 <g fill="#fcdb96">
  <path d="m68.03 340.62c-1.64 0.413-3.736 2-6.067 4.294-10.038 9.938-24.415 33.26-24.415 33.26-18.381-21.895 1.959-39.194 10.629-45.139 2.108-1.439 3.524-2.231 3.524-2.231z" data-name="Path 198"/>
  <path d="m253.61 175.72s4.9 34.286 21.771 42.45-21.771 23.422-21.771 23.422l-52.789-19.608s29.936-9.8 23.946-38.647z" opacity=".95" data-name="Path 199"/>
  <path d="m197.01 381.99-1.194 6.514-0.97 5.019-1.684 9.146-16.329 11.421s-1.472-1.249-3.9-3.234c-6.692-5.51-20.756-16.73-31.1-22.753a34.572 34.572 0 0 0-8.544-3.937z" data-name="Path 200"/>
 </g>
 <path d="m182.88 390.02s17.087 0.121 18.115-8.033-9.312-12.525-18.115-13.072-62.289 3.522-62.289 3.522-7.588 15.4 26.055 17.582z" fill="#657786" data-name="Path 202"/>
 <path d="m302.69 518.12c-0.747-0.368-1.495-0.747-2.231-1.115l-2.008-2.532-26.333-33.393v0.58c-0.178 5.577-2.074 49.767-16.864 53.849-15.782 4.35-34.821 5.443-43.5-23.946s-24.537-93.611-40.822-97.425l24.225-19.864s16.039 18.76 22.574 36.717c-0.245-1.115-11.321-52.867-2.231-62.024h79.475s12.269 34.944 20.678 52.254c6.547 13.44 16.373 45.216 22.7 66.72 6.263 21.234-15.743 39.983-35.663 30.179z" fill="#2d2c2c" data-name="Path 204"/>
 <path d="m300.42 378.72c-12.269 7.261-66.129 4.305-83.651 3.123l-4.774-0.346c-0.513 0 0.078-0.29 0.078-0.29l0.491-4.941 13.061-33.193 69.932-40.554c-1.417 4.272-1.885 10.808-1.773 18.292 0.323 24.047 6.636 57.909 6.636 57.909z" opacity=".1" data-name="Path 205"/>
 <path d="m300.42 377.08c-12.269 7.261-66.129 4.305-83.651 3.123l-4.774-0.335-0.792-0.067 0.87-0.223 4.305-1.115 9.246-37.007 69.932-40.543c-1.416 4.272-1.885 10.808-1.773 18.292 0.324 24.024 6.637 57.875 6.637 57.875z" fill="#f5f5f5" data-name="Path 206"/>
 <path d="m293.74 319.19c-14.221 3.279-45.517 12.9-57.541 36.137-8.019 15.47-14.767 22.106-19.474 24.883l-4.774-0.335a2.749 2.749 0 0 0 0.078-0.29l4.305-1.115 9.246-37.007 69.932-40.542c-1.4 4.249-1.884 10.785-1.772 18.269z" opacity=".1" data-name="Path 207"/>
 <path d="m51.701 330.83 16.329 9.793c-1.64 0.413-3.736 2-6.067 4.294-1.361-3.971-9.9-9.514-13.786-11.878 2.107-1.417 3.524-2.209 3.524-2.209z" opacity=".1" data-name="Path 208"/>
 <path d="m209.04 380.51a0.97 0.97 0 0 1-1.115-0.156 3.87 3.87 0 0 0 1.115 0.156z" opacity=".1" data-name="Path 209"/>
 <path d="m245.99 216s-14.7 1.628-25.039-9.257c0 0-43.5 12.525-58.232 40.821s-114.88 83.818-114.88 83.818 17.422 9.793 15.782 14.689l65.861-38.1s23.422-16.864 29.925-20.678 42.461-27.214 50.079 36.461 0 56.057 0 56.057 10.886 3.815 26.668-26.668 64.757-37.554 64.757-37.554l2.721-32.1s9.715-21.281 2.231-30.114a18.961 18.961 0 0 1-4.361-9.213c-1.238-8.153 0-21.738 17.332-33.025 26.668-17.422 37.007-31.564 37.007-31.564s0.546-10.35-15.782-15.247-82.725-31.564-82.725-31.564l-2.231 9.257 52.388 36.974s-26.121 21.191-46.844 20.678c-1e-3 0 3.847 15.782-14.656 16.329z" fill="#eb7260" data-name="Path 210"/>
 <path d="m256.08 190.64a106.3 106.3 0 0 1-3.011-13.295l-28.843 7.62a31.621 31.621 0 0 1-0.658 16.641 31.018 31.018 0 0 0 32.512-10.966z" fill="#fcdb96" data-name="Path 211"/>
 <circle cx="232.12" cy="170.01" r="31.018" fill="#fcdb96" data-name="Ellipse 10"/>
 <path d="m265.86 419.81s17.957 35.379 12.514 46.253" opacity=".1" data-name="Path 213"/>
 <g>
  <path d="m248.61 98.371c8.61 0.982 16.786 4.673 25.263 6.692a12.537 12.537 0 0 0 6.536 0.245c3.29-1.015 5.967-4.461 9.38-4.361 2.1 0.067 3.959 1.495 5.688 2.866a69.968 69.968 0 0 1 7.807 6.96c5.844 6.346 9.469 14.89 14.8 21.794s12.934 15 20.507 11.834c-5.152 20.076-21.221 32.635-39.478 33.885-7.283 0.5-14.745-1.015-21.794 1.115a18.884 18.884 0 0 1-5.5 1.338c-4.06 0-7.328-3.725-9.86-7.35-5.934-8.521-10.629-18.191-17.31-25.965-2.231-2.576-4.807-5.019-7.93-5.487s-5.989 1.026-8.766 2.465c-4.584 2.376-9.268 4.829-12.826 8.923s-5.8 10.138-4.328 15.615c0.792 2.967 2.6 5.644 2.632 8.744 0.067 4.952-4.305 8.566-5.164 13.384a50.184 50.184 0 0 0-0.212 6.09c-0.379 6.6-4.7 12-9.2 16.161-1.762 1.606-3.7 3.346-4.216 5.833-0.346 1.706 0 3.5-0.223 5.231-0.658 4.283-4.93 6.458-8.711 7.016a25.128 25.128 0 0 1-13.072-1.55c5.287-2.5 8.544-9.614 7.317-15.983-1.684-8.834-10.562-15.18-9.8-24.169a28 28 0 0 1 2.454-7.952 72.856 72.856 0 0 0 4.194-15.068c0.669-3.982 0.993-8.209-0.257-12.012-1.115-3.458-3.446-6.212-5.421-9.135a51.942 51.942 0 0 1-6.279-12.86 9.046 9.046 0 0 1-0.6-4.261 8.79 8.79 0 0 1 2.733-4.406c4.852-5.1 10.038-10.395 16.541-11.856a37.232 37.232 0 0 1 9.391-0.357 110.84 110.84 0 0 0 16.317-0.692c4.461-0.524 12-0.457 15.782-3.346 3.524-2.7 5.51-6.09 9.848-7.807a29 29 0 0 1 13.763-1.573z" fill="#2d2c2c" data-name="Path 221"/>
  <ellipse cx="824.96" cy="737.99" rx="44.995" ry="7.609" fill="#f5f5f5" data-name="Ellipse 9"/>
  <path d="m843.57 725.55a13.1 13.1 0 0 0 4.286-6.479c0.559-2.562-0.537-5.6-3-6.591-2.753-1.052-5.7 0.862-7.923 2.786s-4.789 4.129-7.71 3.715a11.727 11.727 0 0 0 3.641-10.977 4.622 4.622 0 0 0-1.018-2.238c-1.522-1.634-4.3-0.94-6.121 0.358-5.819 4.084-7.441 12-7.475 19.1-0.593-2.562-0.09-5.237-0.112-7.833s-0.727-5.6-2.954-6.971a8.885 8.885 0 0 0-4.476-1.052c-2.618-0.1-5.528 0.168-7.318 2.081-2.238 2.372-1.634 6.356 0.291 8.952s4.868 4.263 7.576 6.065a16.786 16.786 0 0 1 5.4 5.159 4.656 4.656 0 0 1 0.4 0.929h16.349a45.945 45.945 0 0 0 10.161-7z" fill="#92b06a" data-name="Path 179"/>
 </g>
 <g fill="#f5f5f5">
  <ellipse cx="213.21" cy="743.93" rx="29.694" ry="5.022" data-name="Ellipse 9"/>
  <path d="m225.49 735.72a8.648 8.648 0 0 0 2.828-4.276 3.813 3.813 0 0 0-1.979-4.35c-1.817-0.694-3.759 0.569-5.228 1.839s-3.161 2.725-5.088 2.452a7.739 7.739 0 0 0 2.4-7.244 3.05 3.05 0 0 0-0.672-1.477c-1-1.078-2.836-0.62-4.039 0.236-3.84 2.7-4.911 7.916-4.933 12.606-0.391-1.691-0.059-3.456-0.074-5.169s-0.48-3.692-1.95-4.6a5.864 5.864 0 0 0-2.954-0.694c-1.728-0.066-3.648 0.111-4.83 1.374-1.477 1.566-1.078 4.195 0.192 5.908s3.212 2.814 5 4a11.077 11.077 0 0 1 3.567 3.4 3.078 3.078 0 0 1 0.266 0.613h10.789a30.322 30.322 0 0 0 6.705-4.623z" data-name="Path 179"/>
  <ellipse cx="45.28" cy="743.93" rx="29.694" ry="5.022" data-name="Ellipse 12"/>
  <path d="m57.561 735.72a8.648 8.648 0 0 0 2.828-4.276 3.813 3.813 0 0 0-1.979-4.35c-1.817-0.694-3.759 0.569-5.228 1.839s-3.161 2.725-5.088 2.452a7.739 7.739 0 0 0 2.4-7.244 3.05 3.05 0 0 0-0.672-1.477c-1-1.078-2.836-0.62-4.039 0.236-3.84 2.7-4.911 7.916-4.933 12.606-0.391-1.691-0.059-3.456-0.074-5.169s-0.48-3.692-1.95-4.6a5.864 5.864 0 0 0-2.954-0.694c-1.728-0.066-3.648 0.111-4.83 1.374-1.477 1.566-1.078 4.195 0.192 5.908s3.212 2.814 5 4a11.077 11.077 0 0 1 3.567 3.4 3.078 3.078 0 0 1 0.266 0.613h10.789a30.322 30.322 0 0 0 6.705-4.623z" data-name="Path 223"/>
 </g>
 <g>
  <rect y="746.09" width="902.57" height="1.821" fill="#3e3e3e" data-name="Rectangle 22"/>
  <path d="m858.51 50.524s-94.221-5.685-83.12 60.337c0 0-2.238 11.671 8.37 16.964 0 0 0.168-4.89 9.668-3.223a44.2 44.2 0 0 0 10.239 0.492 21.329 21.329 0 0 0 12.51-5.114s26.487-10.944 36.782-54.227c0 0 7.62-9.444 7.318-11.873l-15.9 6.792s5.438 11.47 1.119 21c0 0-0.515-20.59-3.57-20.142-0.615 0.09-8.258 3.972-8.258 3.972s9.344 19.974 2.294 34.5c0 0 2.674-24.618-5.215-33.056l-11.19 6.535s10.922 20.635 3.514 37.476c0 0 1.9-25.827-5.875-35.887l-10.138 7.911s10.261 20.332 4.006 34.3c0 0-0.817-30.057-6.2-32.328 0 0-8.874 7.833-10.228 11.033 0 0 7.027 14.771 2.663 22.559 0 0-2.674-20.03-4.868-20.142 0 0-8.84 13.271-9.758 22.38 0 0 0.381-13.529 7.62-23.633 0 0-8.549 1.466-13.54 7 0 0 1.376-9.377 15.722-10.205 0 0 7.307-10.071 9.254-10.675 0 0-14.256-1.2-22.906 2.641 0 0 7.609-8.851 25.525-4.823l10.015-8.18s-18.777-2.563-26.744 0.269c0 0 9.165-7.833 29.441-2.126l10.9-6.513s-16.013-3.447-25.547-2.238c0 0 10.071-5.427 28.747 0.459l7.833-3.5s-11.727-2.305-15.163-2.674-3.614-1.309-3.614-1.309a40.676 40.676 0 0 1 22.033 2.451s16.541-6.162 16.261-7.203z" fill="#92b06a" data-name="Path 177"/>
  <path d="m729.41 15.571s-42.522-2.563-37.554 27.27c0 0-1 5.271 3.782 7.665 0 0 0.078-2.238 4.375-1.466a19.593 19.593 0 0 0 4.621 0.224 9.579 9.579 0 0 0 5.651-2.328s11.973-4.946 16.628-24.506c0 0 3.435-4.263 3.3-5.36l-7.184 3.066s2.451 5.181 0.526 9.489c0 0-0.235-9.3-1.611-9.086-0.28 0-3.738 1.8-3.738 1.8s4.23 9.03 1.041 15.588c0 0 1.208-11.123-2.361-14.939l-5.058 3s4.935 9.321 1.589 16.931c0 0 0.862-11.671-2.652-16.214l-4.577 3.581s4.633 9.187 1.813 15.5c0 0-0.38-13.585-2.809-14.614 0 0-4.006 3.536-4.622 4.991 0 0 3.178 6.714 1.209 10.194 0 0-1.209-9.053-2.238-9.1 0 0-3.995 6-4.409 10.071a21.842 21.842 0 0 1 3.447-10.675 12.04 12.04 0 0 0-6.121 3.167s0.627-4.241 7.106-4.61c0 0 3.357-4.554 4.185-4.834 0 0-6.445-0.537-10.351 1.2 0 0 3.435-3.995 11.526-2.182l4.476-3.693s-8.49-1.13-12.09 0.116c0 0 4.14-3.536 13.305-0.962l4.924-2.943s-7.24-1.555-11.548-1c0 0 4.554-2.451 12.992 0.2l3.525-1.578s-5.3-1.041-6.86-1.209-1.634-0.593-1.634-0.593a18.34 18.34 0 0 1 9.959 1.119s7.568-2.814 7.437-3.28z" fill="#657786" data-name="Path 178"/>
  <path d="m73.672 471.01s-42.522-2.563-37.554 27.27c0 0-1 5.271 3.782 7.665 0 0 0.078-2.238 4.375-1.466a19.593 19.593 0 0 0 4.621 0.224 9.579 9.579 0 0 0 5.651-2.328s11.973-4.946 16.628-24.506c0 0 3.435-4.263 3.3-5.36l-7.184 3.066s2.451 5.181 0.526 9.489c0 0-0.235-9.3-1.611-9.086-0.28 0-3.738 1.8-3.738 1.8s4.23 9.03 1.041 15.588c0 0 1.208-11.123-2.361-14.939l-5.058 3s4.935 9.321 1.589 16.931c0 0 0.862-11.671-2.652-16.214l-4.577 3.581s4.633 9.187 1.813 15.5c0 0-0.38-13.585-2.809-14.614 0 0-4.006 3.536-4.622 4.991 0 0 3.178 6.714 1.209 10.194 0 0-1.209-9.053-2.238-9.1 0 0-3.995 6-4.409 10.071a21.842 21.842 0 0 1 3.447-10.675 12.04 12.04 0 0 0-6.121 3.167s0.627-4.241 7.106-4.61c0 0 3.357-4.554 4.185-4.834 0 0-6.445-0.537-10.351 1.2 0 0 3.435-3.995 11.526-2.182l4.476-3.693s-8.49-1.13-12.09 0.116c0 0 4.14-3.536 13.305-0.962l4.924-2.943s-7.24-1.555-11.548-1c0 0 4.554-2.451 12.992 0.2l3.525-1.578s-5.3-1.041-6.86-1.209-1.634-0.593-1.634-0.593a18.34 18.34 0 0 1 9.959 1.119s7.568-2.814 7.437-3.28z" fill="#92b06a" data-name="Path 224"/>
 </g>
</svg>
