<?xml version="1.0" encoding="UTF-8" standalone="no"?>
<svg
   xmlns:dc="http://purl.org/dc/elements/1.1/"
   xmlns:cc="http://creativecommons.org/ns#"
   xmlns:rdf="http://www.w3.org/1999/02/22-rdf-syntax-ns#"
   xmlns:svg="http://www.w3.org/2000/svg"
   xmlns="http://www.w3.org/2000/svg"
   xmlns:xlink="http://www.w3.org/1999/xlink"
   xmlns:sodipodi="http://sodipodi.sourceforge.net/DTD/sodipodi-0.dtd"
   xmlns:inkscape="http://www.inkscape.org/namespaces/inkscape"
   width="535.003"
   height="340.502"
   viewBox="0 0 535.003 340.502"
   version="1.1"
   id="svg928"
   sodipodi:docname="supporter-success_dark.svg"
   inkscape:version="1.0 (4035a4f, 2020-05-01)">
  <metadata
     id="metadata932">
    <rdf:RDF>
      <cc:Work
         rdf:about="">
        <dc:format>image/svg+xml</dc:format>
        <dc:type
           rdf:resource="http://purl.org/dc/dcmitype/StillImage" />
      </cc:Work>
    </rdf:RDF>
  </metadata>
  <sodipodi:namedview
     inkscape:document-rotation="0"
     pagecolor="#ffffff"
     bordercolor="#666666"
     borderopacity="1"
     objecttolerance="10"
     gridtolerance="10"
     guidetolerance="10"
     inkscape:pageopacity="0"
     inkscape:pageshadow="2"
     inkscape:window-width="2560"
     inkscape:window-height="1322"
     id="namedview930"
     showgrid="false"
     inkscape:zoom="2.1682122"
     inkscape:cx="341.9835"
     inkscape:cy="138.20822"
     inkscape:window-x="0"
     inkscape:window-y="23"
     inkscape:window-maximized="1"
     inkscape:current-layer="svg928" />
  <defs
     id="defs841">
    <linearGradient
       id="linear-gradient"
       x1="0.5"
       y1="1"
       x2="0.5"
       gradientUnits="objectBoundingBox">
      <stop
         offset="0"
         stop-color="gray"
         stop-opacity="0.251"
         id="stop833" />
      <stop
         offset="0.54"
         stop-color="gray"
         stop-opacity="0.122"
         id="stop835" />
      <stop
         offset="1"
         stop-color="gray"
         stop-opacity="0.102"
         id="stop837" />
    </linearGradient>
    <linearGradient
       id="linear-gradient-2"
       x1="259.05816"
       y1="298.00207"
       x2="439.4224"
       y2="298.00207"
       xlink:href="#linear-gradient"
       gradientTransform="scale(0.68934339,1.4506558)"
       gradientUnits="userSpaceOnUse" />
    <linearGradient
       inkscape:collect="always"
       xlink:href="#linear-gradient"
       id="linearGradient934"
       gradientUnits="userSpaceOnUse"
       x1="974.66843"
       y1="361.08107"
       x2="974.66843"
       gradientTransform="scale(0.80002853,1.2499554)"
       y2="181.01233" />
  </defs>
  <g
     transform="translate(0,34.094)"
     id="BG">
    <path
       opacity="0.1"
       fill="#37af4e"
       transform="translate(-28.554,-158.451)"
       d="m 350.177,362.633 c 10.335,-0.589 23.158,-7.6 33.128,-10.7 q 17.7,-5.49 35.542,-10.564 62.108,-17.669 125.553,-30.117 5.921,-1.164 11.86,-2.273 a 83.949,83.949 0 0 0 -27.717,-33.279 85.139,85.139 0 0 0 0.468,-8.782 c 0,-46.363 -37.052,-83.948 -82.774,-83.948 a 81.455,81.455 0 0 0 -40.171,10.546 c -32.361,-21.287 -74.6,-34.171 -120.813,-34.171 -65.668,0 -123.315,26.015 -155.98,65.191 l 153.521,25.936 94.157,15.9 c -107.34,3.2 -215.012,6.388 -322.043,-1.132 A 84.841,84.841 0 0 0 42.691,372.327 v 0 c 0,1.679 0.07,3.344 0.2,4.994 2.726,0.781 5.359,1.539 7.721,2.034 q 56.868,12.015 114.468,20.11 c -28.3,17.448 -62.759,19.917 -95.4,27.306 15.807,13.047 37.272,21.044 60.926,21.044 H 482.8 c 38.137,0 69.049,-26.549 69.049,-59.3 v 0 A 84.264,84.264 0 0 0 563.075,357.7 c -70.569,6.813 -142.016,0.9 -212.898,4.933 z"
       data-name="Pfad 441"
       id="Pfad_441"
       style="fill:#2d2c2c;fill-opacity:1;opacity:1" />
  </g>
  <g
     transform="translate(265.857)"
     id="dude">
    <path
       style="fill:url(#linearGradient934)"
       fill="url(#linear-gradient)"
       transform="translate(-707.748,-226.257)"
       d="m 850.131,347.885 a 6.231,6.231 0 0 0 -2.73,-1.2 c -1.046,-0.241 -2.115,-0.392 -3.177,-0.559 l -13.772,-1.986 a 16.221,16.221 0 0 0 -4.218,-0.224 5.353,5.353 0 0 0 -3.67,1.9 2.859,2.859 0 0 0 -0.638,1.79 4.722,4.722 0 0 0 0.627,1.857 6.217,6.217 0 0 1 0.341,0.822 18.821,18.821 0 0 0 0.492,1.874 1.589,1.589 0 0 0 0.235,0.369 0.619,0.619 0 0 1 0,0.1 c -0.151,0.772 0.336,1.577 0.117,2.321 -0.19,0.638 -0.811,1.024 -1.2,1.555 a 2.338,2.338 0 0 0 -0.056,2.579 c 0.419,0.649 1.18,1.091 1.4,1.835 0.285,0.979 -0.487,1.924 -1.175,2.679 a 41.532,41.532 0 0 0 -3.5,4.414 2.736,2.736 0 0 0 -0.559,1.315 c -0.062,0.973 0.873,1.829 0.71,2.8 -0.129,0.761 -0.873,1.225 -1.516,1.678 a 9.433,9.433 0 0 0 -4.475,6.931 24.277,24.277 0 0 0 -5.415,-12.306 8.8,8.8 0 0 1 -2.008,-3.149 c -0.123,-0.487 -0.146,-1.007 -0.313,-1.477 -0.559,-1.482 -2.338,-2.12 -3.116,-3.485 -0.559,-0.962 -0.559,-2.2 -1.253,-3.043 -0.694,-0.843 -1.784,-1.035 -2.383,-1.852 a 11.835,11.835 0 0 1 -0.761,-1.723 3.766,3.766 0 0 0 -1.035,-1.242 3.028,3.028 0 0 0 -0.257,-0.185 0.889,0.889 0 0 0 0.3,-0.66 c 0,-0.655 -0.649,-1.085 -1.214,-1.41 -0.727,-0.414 -1.438,-0.861 -2.131,-1.326 a 4.983,4.983 0 0 0 1.907,-1.561 5.13,5.13 0 0 0 0.727,-3.356 4.234,4.234 0 0 0 -1,-2.568 c -0.352,-0.375 -0.794,-0.643 -1.164,-1 a 8.163,8.163 0 0 1 -1.678,-3.591 7.307,7.307 0 0 0 -2.881,-4.33 c -0.738,-0.431 -1.6,-0.632 -2.321,-1.085 a 2.026,2.026 0 0 1 -1.074,-2.131 c 0.168,-0.559 0.688,-0.945 1.04,-1.421 a 2.831,2.831 0 0 0 -0.71,-3.916 c -0.414,-0.263 -0.923,-0.492 -1.007,-0.973 a 1.779,1.779 0 0 1 -1.3,-1.376 5.3,5.3 0 0 1 0,-1.991 q 0.218,-1.561 0.431,-3.11 a 2.025,2.025 0 0 0 1.555,0 13.687,13.687 0 0 0 1.678,2.193 21.908,21.908 0 0 1 3.916,6.8 4.093,4.093 0 0 0 1.471,2.372 c 0.285,0.162 0.61,0.246 0.889,0.42 a 3.322,3.322 0 0 1 0.873,0.895 c 0.671,0.889 1.342,1.773 2.008,2.663 l 0.033,0.134 a 0.788,0.788 0 0 0 0.09,0.224 0.744,0.744 0 0 0 0.481,0.246 c 2.059,0.475 4.369,0.912 6.153,-0.213 1.611,-1.007 2.316,-3 3.681,-4.33 0.968,-0.945 2.338,-1.678 2.612,-3.009 a 9.907,9.907 0 0 1 -0.962,-0.352 c 0.28,-0.28 0.559,-0.6 0.94,-0.973 a 11.841,11.841 0 0 0 1.488,-1.773 11.424,11.424 0 0 0 1.119,-2.506 q 1.617,-4.609 3.245,-9.224 c 0.515,-1.454 1.029,-2.92 1.678,-4.335 0.671,-1.533 1.466,-3 2.2,-4.509 a 59.85,59.85 0 0 0 4.352,-12.25 4.474,4.474 0 0 0 0.173,-1.784 4.7,4.7 0 0 0 -1.589,-2.417 11.66,11.66 0 0 0 -2.383,-1.975 3.915,3.915 0 0 0 -2.987,-0.481 4.315,4.315 0 0 0 -2.663,3.356 35.21,35.21 0 0 0 -0.347,4.475 c -0.2,2.154 -0.94,4.234 -1.119,6.394 -0.1,1.247 0,2.512 -0.151,3.759 a 13.718,13.718 0 0 1 -1.685,4.632 29.983,29.983 0 0 1 -7.233,8.917 c -0.341,0.285 -0.694,0.559 -1.029,0.867 a 5.336,5.336 0 0 1 0.073,-0.727 4.388,4.388 0 0 0 -0.71,0.252 2.13,2.13 0 0 0 -0.084,-0.839 c -0.448,-1.337 -2.439,-1.678 -2.8,-3.037 a 6.21,6.21 0 0 1 -0.1,-1.018 c -0.118,-1.191 -0.929,-2.2 -1.208,-3.356 -0.257,-1.068 -0.062,-2.238 -0.559,-3.228 a 9.024,9.024 0 0 0 -1.488,-1.678 6.584,6.584 0 0 1 -1.415,-2.668 c -0.073,-0.274 -0.14,-0.559 -0.218,-0.833 a 3.816,3.816 0 0 0 -0.2,-1.84 c -0.509,-1.264 -1.824,-2.075 -2.3,-3.356 -0.369,-1 -0.207,-2.238 -0.906,-3.009 a 3.273,3.273 0 0 0 -1.326,-0.8 29.5,29.5 0 0 0 -7.982,-1.885 c -1.533,-0.14 -3.222,-0.218 -4.318,-1.3 -1.281,-1.253 -1.343,-3.507 -2.842,-4.475 -1.32,-0.856 -3.188,-0.224 -4.212,0.979 a 5.33,5.33 0 0 0 -0.425,0.559 5.985,5.985 0 0 1 -0.117,-2.293 c 0,-0.19 0.039,-0.386 0.056,-0.559 a 11.188,11.188 0 0 0 6.064,-4.788 v 0.034 l 0.067,0.173 c 0.162,0.408 0.419,0.8 0.8,0.845 v 0 a 1.119,1.119 0 0 0 0.694,-0.252 5.738,5.738 0 0 0 0.929,-0.805 q 0.213,-0.235 0.4,-0.487 a 6.333,6.333 0 0 0 0.66,-1.119 6.65,6.65 0 0 0 0.559,-1.874 c 0.1,-0.649 0.112,-1.315 0.224,-1.963 a 12.109,12.109 0 0 1 0.408,-1.482 c 0.056,-0.162 0.112,-0.324 0.162,-0.487 0.05,-0.163 0.123,-0.38 0.179,-0.559 a 12.959,12.959 0 0 0 0.559,-3.546 v -0.6 a 5.9,5.9 0 0 0 -1.88,-4.167 c -0.962,-0.789 -2.237,-1.119 -2.942,-2.187 a 10.413,10.413 0 0 1 -0.828,-2.478 5.594,5.594 0 0 0 -4.4,-3.955 4.895,4.895 0 0 0 -3.479,0.957 v 0 l -0.078,0.061 v 0 a 5.6,5.6 0 0 0 -1.387,1.544 4.615,4.615 0 0 1 -1.969,-1.119 c -0.559,-0.52 -0.99,-1.175 -1.555,-1.678 a 4,4 0 0 0 -3.983,-0.839 4.76,4.76 0 0 0 -2.847,3.261 c -0.308,1.152 -0.252,2.478 -0.9,3.44 -0.5,0.75 -1.315,1.119 -1.885,1.8 a 3.39,3.39 0 0 0 -0.7,1.494 v 0 a 4.05,4.05 0 0 0 -0.1,0.934 v 0 a 1.7,1.7 0 0 0 0.034,0.414 v 0.067 a 2.95,2.95 0 0 0 0.1,0.453 v 0 a 3.914,3.914 0 0 0 0.833,1.533 3.681,3.681 0 0 0 1.348,0.973 5.458,5.458 0 0 0 0.649,0.207 l 0.666,0.151 0.235,0.056 a 11.154,11.154 0 0 0 -0.313,9.851 4.5,4.5 0 0 1 -0.056,0.47 38.683,38.683 0 0 0 0.291,6.6 3.539,3.539 0 0 1 -0.408,2.512 4.764,4.764 0 0 1 -0.811,0.722 c 0.3,-0.392 0.61,-0.778 0.923,-1.164 a 3.989,3.989 0 0 0 -3.155,-0.817 14.617,14.617 0 0 0 -6.153,1.88 c -1.253,0.722 -2.54,1.678 -3.972,1.51 -0.845,-0.1 -1.678,-0.559 -2.5,-0.336 a 5.069,5.069 0 0 0 -1.281,0.761 1.734,1.734 0 0 1 -1.052,0.324 22.706,22.706 0 0 0 -3.289,-2.691 25.915,25.915 0 0 1 -3.272,-3.507 c -1.812,-2.187 -3.619,-4.38 -5.4,-6.589 -1.5,-1.857 -3.037,-3.865 -3.3,-6.243 a 6.113,6.113 0 0 1 -0.039,-0.71 18.077,18.077 0 0 1 0.425,-3.356 1.679,1.679 0 0 0 0,-0.811 c -0.168,-0.559 -0.811,-0.766 -1.365,-0.889 v 0 c 0.073,-0.431 0.123,-0.873 0.151,-1.292 0.313,-4.811 -0.028,-9.7 0.99,-14.41 a 9.8,9.8 0 0 1 2.321,-4.962 c 2.042,-2.064 5.46,-2.562 7.026,-5.006 a 5.71,5.71 0 0 0 -0.856,-6.713 8.472,8.472 0 0 0 -6.59,-2.439 3.4,3.4 0 0 0 -1.919,0.515 4.077,4.077 0 0 0 -1.164,1.768 l -2.4,5.834 a 35.29,35.29 0 0 0 -1.756,4.688 c -0.671,2.45 -0.822,5.034 -1.354,7.507 0,1.9 -1.225,4.274 -1.9,6.025 -0.75,1.969 -1.561,3.916 -2.238,5.924 -0.168,0.5 -0.755,2 -1.119,3.356 a 2.048,2.048 0 0 0 -0.38,0.285 10.127,10.127 0 0 0 -0.794,1.18 c -0.509,0.671 -1.337,1.029 -1.9,1.678 -0.563,0.649 -0.677,1.84 0.1,2.165 a 2.281,2.281 0 0 0 0.487,0.106 1.588,1.588 0 0 1 1.348,2.215 c -0.123,0.873 -0.559,1.678 -0.632,2.551 -0.151,1.544 0.755,2.982 1.628,4.279 a 36.882,36.882 0 0 0 2.987,4.022 c 0.789,0.884 1.678,1.678 2.472,2.528 3.026,3.11 5.432,6.746 8.15,10.125 a 22.451,22.451 0 0 0 3.317,3.479 24.98,24.98 0 0 0 2.512,1.728 l 4.676,2.965 a 5.124,5.124 0 0 0 1.768,0.833 2.351,2.351 0 0 0 0.627,0 c 0.028,0.14 0.05,0.274 0.084,0.414 0.364,1.466 1.164,2.8 1.253,4.29 0.089,1.49 -0.045,3.021 0.062,4.531 0.1,1.393 0.408,2.8 0.487,4.167 a 26.782,26.782 0 0 1 -1.119,7.831 c -0.945,3.781 -1.516,7.641 -3.356,11.07 a 6.509,6.509 0 0 0 -1.119,2.987 1.548,1.548 0 0 0 0.034,0.392 v 0 l -0.839,0.475 c -0.246,0.14 -0.492,0.28 -0.716,0.425 a 5.987,5.987 0 0 0 -2.635,2.657 c -0.352,0.968 -0.19,2.075 -0.615,3.015 a 1.336,1.336 0 0 1 -0.067,0.123 c -0.448,0.873 -1.337,1.522 -1.538,2.478 v 0 c -0.151,0.733 0.14,1.51 0,2.238 v 0.028 a 8.111,8.111 0 0 0 -0.3,1.119 1.334,1.334 0 0 0 0.034,0.369 2.131,2.131 0 0 0 0.671,1.091 4.473,4.473 0 0 0 0.655,0.52 q 0.358,0.235 0.738,0.436 l 0.145,0.078 c 0.213,0.112 0.425,0.218 0.643,0.319 l 0.145,0.062 c 0.252,0.112 0.509,0.213 0.766,0.3 l 0.179,0.056 c 0.2,0.067 0.408,0.129 0.615,0.179 l 0.14,0.045 0.129,0.028 0.559,0.117 0.207,0.039 q 0.369,0.062 0.755,0.1 h 0.224 c 0.19,0 0.375,0.028 0.559,0.034 h 1.024 a 6.271,6.271 0 0 0 0.789,-0.073 h 0.084 c 0.235,-0.034 0.47,-0.073 0.7,-0.123 l 0.179,-0.039 c 0.218,-0.05 0.436,-0.1 0.654,-0.168 l 0.117,-0.034 c 0.263,-0.078 0.526,-0.162 0.783,-0.263 a 20.56,20.56 0 0 0 2.584,-1.281 c 0.559,-0.308 1.119,-0.621 1.678,-0.906 a 13.027,13.027 0 0 1 1.275,-0.559 7.2,7.2 0 0 1 3.356,-0.559 13.141,13.141 0 0 1 1.678,0.341 v 0.185 q 0.683,4.028 1.348,8.055 a 16.4,16.4 0 0 1 2.316,-1.393 5.149,5.149 0 0 0 -0.3,1.259 4.99,4.99 0 0 0 0,1 2.173,2.173 0 0 1 -0.157,1.538 c -0.2,0.257 -0.559,0.4 -0.666,0.694 a 2.368,2.368 0 0 0 -0.056,0.912 1.454,1.454 0 0 1 -1.331,1.354 2.126,2.126 0 0 1 -0.845,2.495 2.956,2.956 0 0 0 -0.649,0.425 1.936,1.936 0 0 0 -0.375,0.845 14.948,14.948 0 0 1 -4.38,7.2 14.085,14.085 0 0 0 -2.165,2.114 9.617,9.617 0 0 0 -0.979,1.93 q -2.238,5.471 -4.542,10.947 a 24.291,24.291 0 0 0 -1.947,6.315 c -0.671,6.03 -6.041,11.143 -5.034,17.128 a 8.391,8.391 0 0 0 1.745,4.089 10.294,10.294 0 0 0 4.475,2.747 81.471,81.471 0 0 0 13.392,3.518 l 7.115,1.46 a 31.1,31.1 0 0 0 4.24,0.671 27.751,27.751 0 0 1 5.152,0.392 15.992,15.992 0 0 0 3.093,0.822 c 0.917,0.05 2.047,-0.145 2.59,0.6 0.543,0.745 0.123,1.74 0.638,2.405 0.828,1.057 2.847,0 3.748,1 a 4.64,4.64 0 0 1 0.559,1.236 2.238,2.238 0 0 0 0.559,0.7 4.725,4.725 0 0 1 0.067,0.957 16.489,16.489 0 0 1 -0.806,3.815 q -1.007,3.407 -2.008,6.819 a 15.093,15.093 0 0 0 -0.559,2.461 5.909,5.909 0 0 0 0,1.219 3.349,3.349 0 0 0 2.008,2.914 3.68,3.68 0 0 0 2.719,-0.336 12.015,12.015 0 0 0 2.238,-1.51 15.28,15.28 0 0 0 3.228,-3.323 c 2.8,-4.184 1.891,-9.845 3.854,-14.471 1.3,-3.088 3.843,-5.594 4.688,-8.849 a 3.539,3.539 0 0 0 0.067,-1.913 3.964,3.964 0 0 0 -2.657,-2.159 h -0.05 a 22.935,22.935 0 0 0 -2.8,-0.8 c -0.235,-0.05 -0.475,-0.089 -0.716,-0.129 a 4.391,4.391 0 0 1 -1.236,-1.611 3.752,3.752 0 0 0 -0.263,-0.968 1.007,1.007 0 0 0 -0.805,-0.447 c -0.559,-0.056 -1.309,0.145 -1.919,0.1 -1.247,-0.089 -2.075,-1.315 -3.194,-1.88 a 6.523,6.523 0 0 0 -3.524,-0.341 3.261,3.261 0 0 1 -1.275,-0.078 4.794,4.794 0 0 1 -1.343,-0.923 5.627,5.627 0 0 0 -4.928,-0.99 5.371,5.371 0 0 1 -1.678,0.38 c -1.091,-0.062 -1.863,-1.035 -2.668,-1.773 -2.2,-2.019 -5.342,-2.551 -8.016,-3.876 a 1.829,1.829 0 0 1 -0.962,-0.828 c -0.308,-0.761 0.386,-1.521 1.013,-2.042 l 4.6,-3.821 c 5.034,-4.184 11.327,-7.333 13.666,-13.47 a 7.789,7.789 0 0 1 1.119,-2.3 3.123,3.123 0 0 1 0.621,-0.559 4.7,4.7 0 0 1 3.44,-0.671 11.619,11.619 0 0 1 4.05,1.768 q 3,1.818 5.846,3.916 a 51.723,51.723 0 0 1 5.342,4.386 c 2.937,2.8 5.381,6.114 8.117,9.129 2.736,3.015 5.862,5.829 9.661,7.272 3.799,1.443 8.391,1.382 11.652,-1.04 3.765,-2.8 4.973,-7.8 5.924,-12.385 2.1,-2.025 2.73,-5.107 3.753,-7.831 0.643,-1.729 1.466,-3.356 2.159,-5.079 0.828,-2.025 1.477,-4.117 2.126,-6.2 a 29.832,29.832 0 0 0 1.488,-6.472 c 0.269,-3.485 -0.666,-7.194 0.313,-10.466 a 38.6,38.6 0 0 0 3.737,-1.438 18.515,18.515 0 0 1 5.918,-0.509 h 0.129 a 3.054,3.054 0 0 0 1.969,-0.464 3.135,3.135 0 0 0 0.811,-2.383 c 0.104,-2.152 -0.03,-4.557 -1.635,-5.944 z m -81.049,-95.419 a 4.155,4.155 0 0 1 -1.415,0.1 z"
       data-name="Pfad 350"
       id="Pfad_350" />
    <path
       fill="#be6f72"
       transform="translate(-741.469,-261.961)"
       d="m 805.006,323.556 a 6.152,6.152 0 0 1 -2.327,1.236 l -3.966,1.421 c -2.154,0.772 -4.4,1.549 -6.673,1.27 -1.27,-0.157 -6.713,-0.957 -7.535,-1.947 -1.253,-1.533 3.138,-3.787 4.637,-5.079 a 6.34,6.34 0 0 0 0.94,-0.828 3.373,3.373 0 0 0 0.408,-2.5 38.59,38.59 0 0 1 -0.291,-6.584 13.291,13.291 0 0 1 0.224,-1.561 c 0.559,-2.573 2.953,-1.633 4.844,-0.951 a 37.879,37.879 0 0 1 6.573,2.847 4.715,4.715 0 0 1 1.622,1.376 c 0.828,1.253 0.5,2.9 0.364,4.475 a 4.192,4.192 0 0 0 0.654,3.289 8.471,8.471 0 0 1 1.057,1.119 2.1,2.1 0 0 1 -0.531,2.417 z"
       data-name="Pfad 351"
       id="Pfad_351" />
    <path
       fill="#be6f72"
       transform="translate(-710.288,-227.107)"
       d="m 719.04,248.388 c 0.559,-2.478 0.682,-5.034 1.354,-7.49 a 35.056,35.056 0 0 1 1.756,-4.671 l 2.467,-5.756 a 4.061,4.061 0 0 1 1.163,-1.762 3.446,3.446 0 0 1 1.919,-0.515 8.548,8.548 0 0 1 6.589,2.433 5.648,5.648 0 0 1 0.856,6.673 c -1.566,2.445 -4.984,2.937 -7.026,5 a 9.781,9.781 0 0 0 -2.321,4.951 c -1.018,4.7 -0.677,9.571 -0.99,14.37 -0.1,1.494 -0.392,3.2 -1.678,3.972 a 4.895,4.895 0 0 1 -2.506,0.487 l -3.669,0.062 c -0.615,0 -2.847,0.386 -3.256,-0.078 -0.716,-0.811 0.917,-4.85 1.214,-5.75 0.66,-2 1.471,-3.944 2.237,-5.907 0.666,-1.757 1.891,-4.123 1.891,-6.019 z"
       data-name="Pfad 352"
       id="Pfad_352" />
    <path
       fill="#3f3d56"
       transform="translate(-759.539,-377.471)"
       d="m 844.059,574.487 c -0.845,3.233 -3.384,5.75 -4.688,8.833 -1.963,4.615 -1.08,10.259 -3.854,14.432 a 15.248,15.248 0 0 1 -3.228,3.328 11.987,11.987 0 0 1 -2.238,1.5 3.681,3.681 0 0 1 -2.719,0.336 3.348,3.348 0 0 1 -2.008,-2.909 5.864,5.864 0 0 1 0,-1.214 15.039,15.039 0 0 1 0.559,-2.456 q 1.007,-3.4 2.008,-6.8 a 16.471,16.471 0 0 0 0.806,-3.8 c 0.073,-1.41 -0.822,-3.244 -0.442,-4.559 0.173,-0.593 0.822,-1.119 1.119,-1.617 a 9.359,9.359 0 0 0 0.962,-2.288 14.222,14.222 0 0 1 1.734,-4.542 10.659,10.659 0 0 1 2.182,-2.042 5.785,5.785 0 0 1 2.081,-1.169 5.1,5.1 0 0 1 2.238,0.106 21.976,21.976 0 0 1 2.8,0.794 h 0.05 a 3.916,3.916 0 0 1 2.657,2.154 3.518,3.518 0 0 1 -0.019,1.913 z"
       data-name="Pfad 353"
       id="Pfad_353" />
    <path
       fill="#3f3d56"
       transform="translate(-797.668,-319.486)"
       d="m 941.707,447.731 a 3.1,3.1 0 0 1 -0.811,2.377 3.053,3.053 0 0 1 -1.969,0.464 h -0.151 a 18.854,18.854 0 0 0 -5.918,0.509 c -1.437,0.475 -2.758,1.348 -4.257,1.522 -2.064,0.235 -4.005,-0.9 -5.834,-1.88 a 58.051,58.051 0 0 0 -5.3,-2.517 c -1.186,-0.487 -3.608,-0.8 -4.179,-2.1 a 19.115,19.115 0 0 1 -0.492,-1.868 6.2,6.2 0 0 0 -0.341,-0.822 4.728,4.728 0 0 1 -0.626,-1.852 2.859,2.859 0 0 1 0.638,-1.79 5.365,5.365 0 0 1 3.664,-1.885 16.224,16.224 0 0 1 4.218,0.224 l 13.772,1.98 c 1.063,0.151 2.131,0.3 3.177,0.559 a 6.231,6.231 0 0 1 2.73,1.2 c 1.628,1.365 1.762,3.765 1.679,5.879 z"
       data-name="Pfad 354"
       id="Pfad_354" />
    <path
       fill="#65617d"
       transform="translate(-724.809,-323.282)"
       d="m 856.742,455.107 c -1.678,3.541 -0.47,7.731 -0.772,11.646 a 29.689,29.689 0 0 1 -1.488,6.455 c -0.649,2.081 -1.3,4.167 -2.126,6.187 -0.694,1.678 -1.516,3.356 -2.159,5.068 -1.024,2.73 -1.678,5.8 -3.753,7.831 -0.951,4.576 -2.159,9.577 -5.924,12.351 -3.272,2.417 -7.831,2.5 -11.652,1.04 -3.821,-1.46 -6.925,-4.257 -9.661,-7.272 -2.736,-3.015 -5.18,-6.3 -8.117,-9.107 a 50.9,50.9 0 0 0 -5.353,-4.38 q -2.842,-2.064 -5.846,-3.882 a 11.708,11.708 0 0 0 -4.05,-1.762 4.7,4.7 0 0 0 -3.44,0.671 3.121,3.121 0 0 0 -0.621,0.559 7.7,7.7 0 0 0 -1.119,2.293 c -2.349,6.12 -8.654,9.263 -13.688,13.436 l -4.6,3.809 c -0.626,0.52 -1.32,1.281 -1.012,2.036 a 1.829,1.829 0 0 0 0.962,0.828 c 2.674,1.32 5.812,1.852 8.016,3.865 0.805,0.738 1.577,1.712 2.668,1.768 a 5.358,5.358 0 0 0 1.678,-0.375 5.644,5.644 0 0 1 4.928,0.984 4.791,4.791 0 0 0 1.343,0.923 3.26,3.26 0 0 0 1.275,0.078 6.809,6.809 0 0 1 3.524,0.341 c 1.068,0.531 1.947,1.784 3.194,1.874 0.61,0.045 1.337,-0.157 1.919,-0.1 a 1.007,1.007 0 0 1 0.806,0.448 3.709,3.709 0 0 1 0.263,0.962 c 0.229,0.789 1,1.27 1.5,1.919 a 5.3,5.3 0 0 1 0.806,3.608 15.4,15.4 0 0 1 -4.9,10.3 6.064,6.064 0 0 1 -3.015,1.678 2.8,2.8 0 0 1 -2.987,-1.326 4.6,4.6 0 0 0 -0.559,-1.231 c -0.9,-0.99 -2.92,0.062 -3.748,-1 -0.515,-0.66 -0.145,-1.717 -0.638,-2.4 -0.493,-0.683 -1.678,-0.559 -2.59,-0.6 a 16.406,16.406 0 0 1 -3.093,-0.822 27.785,27.785 0 0 0 -5.152,-0.392 31.1,31.1 0 0 1 -4.24,-0.671 l -7.115,-1.454 a 84.328,84.328 0 0 1 -13.386,-3.491 10.776,10.776 0 0 1 -4.475,-2.741 8.391,8.391 0 0 1 -1.745,-4.083 c -1.013,-5.969 4.358,-11.07 5.034,-17.083 a 23.963,23.963 0 0 1 1.947,-6.3 q 2.277,-5.46 4.542,-10.925 a 9.73,9.73 0 0 1 0.951,-1.935 14.05,14.05 0 0 1 2.165,-2.109 14.9,14.9 0 0 0 4.38,-7.182 1.935,1.935 0 0 1 0.375,-0.845 3.145,3.145 0 0 1 0.649,-0.42 2.126,2.126 0 0 0 0.845,-2.489 1.454,1.454 0 0 0 1.331,-1.354 2.339,2.339 0 0 1 0.056,-0.906 c 0.134,-0.291 0.47,-0.436 0.666,-0.694 a 2.162,2.162 0 0 0 0.157,-1.533 4.981,4.981 0 0 1 0,-1 5.141,5.141 0 0 1 1.5,-3.127 c 1.337,-1.315 3.239,-0.973 5.085,-1.287 a 29.125,29.125 0 0 0 5.37,-1.717 52.755,52.755 0 0 1 15.165,-3.507 33.111,33.111 0 0 1 15.314,2.437 8.711,8.711 0 0 1 1.975,1.119 3.741,3.741 0 0 1 1.035,1.236 11.531,11.531 0 0 0 0.761,1.717 c 0.6,0.817 1.729,1.08 2.383,1.852 0.654,0.772 0.71,2.075 1.253,3.032 0.778,1.365 2.579,2 3.116,3.479 0.168,0.47 0.19,0.984 0.313,1.471 a 8.416,8.416 0 0 0 2.008,3.144 24.17,24.17 0 0 1 5.415,12.306 9.36,9.36 0 0 1 4.475,-6.914 c 0.643,-0.42 1.387,-0.884 1.516,-1.645 0.162,-0.962 -0.772,-1.818 -0.71,-2.8 a 2.741,2.741 0 0 1 0.559,-1.309 41.392,41.392 0 0 1 3.5,-4.4 c 0.688,-0.755 1.46,-1.678 1.175,-2.674 -0.218,-0.744 -0.979,-1.18 -1.4,-1.829 a 2.327,2.327 0 0 1 0.056,-2.573 c 0.392,-0.531 1.013,-0.917 1.2,-1.549 0.218,-0.744 -0.268,-1.549 -0.117,-2.316 a 2.864,2.864 0 0 1 1.152,-1.494 7.047,7.047 0 0 1 7.188,-1.779 c 2.618,0.364 5.555,0.923 7.031,3.116 a 5.306,5.306 0 0 1 0.726,4.917 z"
       data-name="Pfad 355"
       id="Pfad_355" />
    <path
       opacity="0.1"
       transform="translate(-797.655,-319.486)"
       d="m 941.693,447.731 a 3.1,3.1 0 0 1 -0.811,2.377 3.054,3.054 0 0 1 -1.969,0.464 h -0.151 c 0.229,-1.164 1.645,-1.829 1.891,-3.009 a 2.663,2.663 0 0 0 -0.615,-2.031 10.084,10.084 0 0 0 -5.038,-3.165 33.351,33.351 0 0 0 -16.815,-1.259 16.934,16.934 0 0 0 -4.419,1.359 14.392,14.392 0 0 0 -1.343,0.951 4.726,4.726 0 0 1 -0.626,-1.852 2.859,2.859 0 0 1 0.638,-1.79 5.365,5.365 0 0 1 3.664,-1.885 16.222,16.222 0 0 1 4.218,0.224 l 13.772,1.98 a 32.256,32.256 0 0 1 3.177,0.559 6.231,6.231 0 0 1 2.73,1.2 c 1.647,1.363 1.781,3.763 1.697,5.877 z"
       data-name="Pfad 356"
       id="Pfad_356" />
    <path
       opacity="0.1"
       transform="translate(-759.539,-378.255)"
       d="m 844.059,575.27 c -0.845,3.233 -3.384,5.75 -4.688,8.833 -1.963,4.615 -1.08,10.259 -3.854,14.432 a 15.248,15.248 0 0 1 -3.228,3.328 11.984,11.984 0 0 1 -2.238,1.5 3.681,3.681 0 0 1 -2.719,0.336 3.348,3.348 0 0 1 -2.008,-2.909 5.863,5.863 0 0 1 0,-1.214 l 0.034,0.09 c 0.487,1.175 1.281,2.405 2.534,2.612 a 3.43,3.43 0 0 0 2.584,-0.912 c 1.846,-1.482 2.92,-3.692 3.944,-5.823 a 24.223,24.223 0 0 0 1.891,-4.827 c 0.224,-0.951 0.33,-1.924 0.559,-2.875 1.063,-4.62 4.682,-8.391 5.482,-13.073 a 3.2,3.2 0 0 0 0.045,-0.979 4.946,4.946 0 0 0 -0.481,-1.219 6.041,6.041 0 0 1 -0.425,-1.354 3.916,3.916 0 0 1 2.657,2.154 3.519,3.519 0 0 1 -0.09,1.9 z"
       data-name="Pfad 357"
       id="Pfad_357" />
    <path
       opacity="0.1"
       transform="translate(-739.897,-349.372)"
       d="m 815.97,538.366 a 8.106,8.106 0 0 1 -2.523,3.446 12.306,12.306 0 0 1 -5.432,2.349 5.4,5.4 0 0 1 -2.8,-0.034 c -1.242,-0.431 -2.137,-1.594 -3.407,-1.93 a 23.3,23.3 0 0 0 -2.8,-0.162 c -1.65,-0.229 -2.931,-1.488 -4.263,-2.495 -4.078,-3.065 -9.431,-4.055 -13.509,-7.121 a 1.254,1.254 0 0 1 -0.436,-0.453 1.347,1.347 0 0 1 -0.084,-0.632 12.865,12.865 0 0 1 1.225,-5.376 18.755,18.755 0 0 1 2.3,-3.284 99.619,99.619 0 0 1 11.7,-12.759 17.723,17.723 0 0 1 6.153,-3.776 c 1.287,-0.4 3.826,-0.772 5.392,-0.1 a 3.12,3.12 0 0 0 -0.621,0.559 7.7,7.7 0 0 0 -1.119,2.293 c -2.355,6.125 -8.659,9.269 -13.694,13.442 l -4.6,3.809 c -0.626,0.52 -1.32,1.281 -1.012,2.036 a 1.829,1.829 0 0 0 0.962,0.828 c 2.674,1.32 5.812,1.852 8.016,3.865 0.805,0.738 1.577,1.712 2.668,1.768 a 5.36,5.36 0 0 0 1.678,-0.375 5.644,5.644 0 0 1 4.928,0.984 4.793,4.793 0 0 0 1.343,0.923 3.26,3.26 0 0 0 1.275,0.078 6.808,6.808 0 0 1 3.524,0.341 c 1.068,0.531 1.947,1.784 3.194,1.874 0.633,0.047 1.361,-0.164 1.942,-0.098 z"
       data-name="Pfad 358"
       id="Pfad_358" />
    <path
       fill="#3f3d56"
       transform="translate(-723.069,-299.212)"
       d="m 747.7,412.286 a 5.939,5.939 0 0 0 -2.629,2.64 c -0.358,0.968 -0.19,2.075 -0.621,3.015 -0.431,0.94 -1.4,1.594 -1.611,2.6 -0.151,0.733 0.145,1.5 0,2.237 a 9.64,9.64 0 0 0 -0.308,1.164 c -0.056,0.833 0.66,1.51 1.359,1.975 a 11.355,11.355 0 0 0 10.164,1.119 45.912,45.912 0 0 0 4.274,-2.187 8.452,8.452 0 0 1 4.6,-1.119 c 0.923,0.1 1.807,0.436 2.73,0.559 a 2.864,2.864 0 0 0 2.556,-0.761 3.19,3.19 0 0 0 0.559,-1.326 19.812,19.812 0 0 0 -0.313,-9.414 c -0.738,-3.088 -1.857,-6.058 -2.646,-9.129 a 41.887,41.887 0 0 0 -1.924,-6.763 8.873,8.873 0 0 0 -4.7,-4.978 0.878,0.878 0 0 0 -0.559,-0.073 0.951,0.951 0 0 0 -0.364,0.269 17.2,17.2 0 0 0 -3.837,6.455 c -0.878,2.679 -1.119,5.521 -1.924,8.212 a 8.408,8.408 0 0 1 -1.678,3.474 19.17,19.17 0 0 1 -3.128,2.031 z"
       data-name="Pfad 359"
       id="Pfad_359" />
    <path
       opacity="0.1"
       transform="translate(-723.078,-299.18)"
       d="m 768.8,422.156 a 3.261,3.261 0 0 1 -0.587,1.326 2.836,2.836 0 0 1 -2.556,0.755 c -0.917,-0.112 -1.8,-0.453 -2.724,-0.559 a 8.436,8.436 0 0 0 -4.6,1.119 c -1.432,0.716 -2.8,1.605 -4.279,2.182 a 11.294,11.294 0 0 1 -6.785,0.386 10.947,10.947 0 0 1 -3.356,-1.477 2.406,2.406 0 0 1 -1.359,-1.975 9.551,9.551 0 0 1 0.308,-1.158 c 0.145,-0.733 -0.146,-1.5 0,-2.238 0.213,-1.007 1.186,-1.678 1.611,-2.607 0.425,-0.929 0.263,-2.042 0.615,-3.009 a 5.964,5.964 0 0 1 2.635,-2.646 20.1,20.1 0 0 0 3.177,-2.047 3.156,3.156 0 0 0 0.3,-0.414 10.069,10.069 0 0 0 1.331,-3.082 c 0.822,-2.7 1.046,-5.532 1.919,-8.217 a 17.235,17.235 0 0 1 3.843,-6.45 0.845,0.845 0 0 1 0.358,-0.268 0.9,0.9 0 0 1 0.559,0.067 8.938,8.938 0 0 1 4.7,4.984 44.052,44.052 0 0 1 1.924,6.757 c 0.783,3.071 1.907,6.052 2.646,9.135 a 19.9,19.9 0 0 1 0.32,9.436 z"
       data-name="Pfad 360"
       id="Pfad_360" />
    <path
       opacity="0.1"
       transform="translate(-746.129,-261.974)"
       d="m 808.486,316.728 a 11.188,11.188 0 0 1 -13.626,-6.153 13.265,13.265 0 0 1 0.224,-1.561 c 0.559,-2.573 2.953,-1.633 4.844,-0.951 a 37.879,37.879 0 0 1 6.573,2.847 4.716,4.716 0 0 1 1.622,1.376 c 0.828,1.236 0.498,2.881 0.363,4.442 z"
       data-name="Pfad 361"
       id="Pfad_361" />
    <circle
       fill="#be6f72"
       transform="translate(47.791,32.345)"
       r="11.188"
       cy="11.188"
       cx="11.188"
       data-name="Ellipse 42"
       id="Ellipse_42" />
    <path
       opacity="0.1"
       transform="translate(-743.106,-323.293)"
       d="m 832.443,450.431 c 0,0.929 -1.259,1.225 -2.193,1.175 -3.356,-0.2 -6.64,-1.119 -9.963,-0.839 -4.2,0.38 -8.061,2.7 -12.273,2.914 a 37.2,37.2 0 0 0 -4.872,0.14 c -2.07,0.386 -3.916,1.645 -6.025,1.824 -1.829,0.157 -3.636,-0.531 -5.465,-0.459 a 8.782,8.782 0 0 0 -3.653,1.04 5.14,5.14 0 0 1 1.5,-3.127 c 1.337,-1.315 3.239,-0.973 5.085,-1.287 a 29.127,29.127 0 0 0 5.37,-1.717 52.756,52.756 0 0 1 15.165,-3.507 33.11,33.11 0 0 1 15.31,2.422 8.713,8.713 0 0 1 1.975,1.119 0.876,0.876 0 0 1 0.039,0.3 z"
       data-name="Pfad 362"
       id="Pfad_362" />
    <path
       fill="#e3e8f4"
       transform="translate(-735.796,-272.419)"
       d="m 789.6,336.38 -4.53,-1.68 -1.913,-0.7 a 9.251,9.251 0 0 0 -2.439,-0.649 6.209,6.209 0 0 0 -5.426,3.155 17.046,17.046 0 0 0 -1.986,6.248 q -0.772,4.441 -1.309,8.917 a 58.241,58.241 0 0 0 -0.587,8.133 c 0.129,6.925 1.594,13.755 3.205,20.5 a 72.1,72.1 0 0 1 1.784,9.09 c 0.134,1.264 0.2,2.534 0.33,3.8 0.145,1.426 0.38,2.836 0.615,4.251 l 1.348,8.038 a 10.626,10.626 0 0 1 5.65,-2.3 c 1.829,-0.067 3.642,0.615 5.465,0.459 2.1,-0.173 3.955,-1.432 6.025,-1.818 a 36.309,36.309 0 0 1 4.878,-0.14 c 4.207,-0.213 8.072,-2.54 12.267,-2.914 3.328,-0.3 6.634,0.638 9.968,0.833 0.929,0.056 2.187,-0.241 2.187,-1.175 0,-0.649 -0.649,-1.08 -1.214,-1.4 a 59.854,59.854 0 0 1 -7.58,-5.409 25.589,25.589 0 0 1 -5.957,-5.9 c -3.653,-5.678 -2.4,-13.358 -5.515,-19.349 -2.534,-4.867 0,-11.244 0,-16.731 a 25.452,25.452 0 0 0 -2.143,-12.525 l -2.176,-5.51 a 0.9,0.9 0 0 0 -0.257,-0.42 0.856,0.856 0 0 0 -0.5,-0.151 5.247,5.247 0 0 0 -3.614,1.158 c -1.024,0.833 -1.678,2.031 -2.685,2.9 -1.099,0.954 -2.52,1.793 -3.891,1.289 z"
       data-name="Pfad 363"
       id="Pfad_363" />
    <path
       fill="#3f3d56"
       transform="translate(-751.478,-269.652)"
       d="m 812.594,330.436 a 9.926,9.926 0 0 1 1.768,-4.324 c 1.024,-1.2 2.892,-1.829 4.212,-0.973 1.5,0.973 1.561,3.222 2.842,4.475 1.119,1.074 2.8,1.158 4.318,1.3 a 29.282,29.282 0 0 1 7.982,1.88 3.261,3.261 0 0 1 1.326,0.794 c 0.7,0.794 0.559,2.014 0.906,3 0.475,1.275 1.79,2.086 2.3,3.356 0.559,1.41 0,2.987 -0.47,4.436 -0.845,2.6 -1.376,5.3 -2.2,7.915 a 17.621,17.621 0 0 1 -3.916,7.154 c -0.85,0.873 -2.114,1.678 -3.233,1.158 l -0.431,3.1 a 5.274,5.274 0 0 0 0,1.986 1.779,1.779 0 0 0 1.3,1.376 c 0.084,0.481 0.593,0.71 1.007,0.973 a 2.8,2.8 0 0 1 0.71,3.916 c -0.352,0.475 -0.873,0.85 -1.04,1.415 a 2.011,2.011 0 0 0 1.074,2.126 c 0.727,0.448 1.583,0.654 2.321,1.085 a 7.219,7.219 0 0 1 2.881,4.313 7.994,7.994 0 0 0 1.678,3.586 c 0.369,0.352 0.811,0.621 1.164,0.99 a 4.246,4.246 0 0 1 1,2.568 5.1,5.1 0 0 1 -0.727,3.356 c -1.119,1.6 -3.205,2.075 -5.034,2.8 -2.97,1.219 -5.415,3.4 -8.033,5.258 a 8.57,8.57 0 0 1 -3.664,1.723 c -1.812,0.241 -3.6,-0.559 -5.42,-0.632 a 13.459,13.459 0 0 0 -3.233,0.425 l -3.356,0.727 c 0.179,-2.6 -1.253,-5.208 -2.053,-7.686 a 38.192,38.192 0 0 1 -1.432,-14.544 113.91,113.91 0 0 1 2.338,-14.51 c 0.688,-3.356 0.621,-6.864 1.678,-10.125 0.99,-3.138 2.405,-6.153 2.926,-9.42 0.849,-5.283 -2.683,-9.763 -1.489,-14.977 z"
       data-name="Pfad 364"
       id="Pfad_364" />
    <path
       fill="#3f3d56"
       transform="translate(-769.226,-281.658)"
       d="m 855.788,352.784 a 6.152,6.152 0 0 1 0.643,1.818 6.561,6.561 0 0 0 1.415,2.663 9.174,9.174 0 0 1 1.488,1.678 c 0.515,0.973 0.319,2.159 0.559,3.222 0.28,1.158 1.091,2.165 1.208,3.356 a 6.15,6.15 0 0 0 0.1,1.018 c 0.364,1.354 2.355,1.678 2.8,3.032 0.3,0.878 -0.213,1.835 -0.117,2.758 a 2.428,2.428 0 0 1 0.05,0.873 1.774,1.774 0 0 1 -0.638,0.817 12.865,12.865 0 0 0 -3.681,6.55 37.3,37.3 0 0 0 -0.845,7.568 l -2.187,-2.892 a 3.322,3.322 0 0 0 -0.873,-0.9 c -0.28,-0.168 -0.6,-0.252 -0.889,-0.42 a 4.047,4.047 0 0 1 -1.471,-2.361 21.814,21.814 0 0 0 -3.916,-6.78 c -0.889,-1.046 -1.924,-2.1 -2.12,-3.457 a 6.369,6.369 0 0 1 0.1,-1.868 c 0.559,-3.664 1.158,-7.417 2.942,-10.667 0.833,-1.521 1.913,-2.9 2.713,-4.441 0.531,-1.018 1.287,-3.681 2.719,-1.567 z"
       data-name="Pfad 365"
       id="Pfad_365" />
    <path
       fill="#3f3d56"
       transform="translate(-707.744,-254.088)"
       d="m 739.123,328.733 a 2.556,2.556 0 0 1 -0.347,1.343 1.768,1.768 0 0 1 -1.768,0.559 5.113,5.113 0 0 1 -1.768,-0.828 q -2.338,-1.477 -4.676,-2.959 a 25.89,25.89 0 0 1 -2.512,-1.723 22.419,22.419 0 0 1 -3.317,-3.474 c -2.719,-3.356 -5.124,-7 -8.15,-10.069 -0.822,-0.839 -1.678,-1.645 -2.472,-2.523 a 36.814,36.814 0 0 1 -2.987,-4.016 c -0.873,-1.292 -1.779,-2.724 -1.628,-4.268 0.089,-0.873 0.509,-1.678 0.632,-2.545 a 1.586,1.586 0 0 0 -1.348,-2.21 2.284,2.284 0 0 1 -0.487,-0.106 c -0.778,-0.324 -0.66,-1.527 -0.1,-2.159 0.56,-0.632 1.387,-0.984 1.9,-1.678 a 10.136,10.136 0 0 1 0.794,-1.18 3.026,3.026 0 0 1 1.3,-0.654 20.172,20.172 0 0 1 9.929,-0.375 c 0.559,0.123 1.2,0.347 1.365,0.889 a 1.639,1.639 0 0 1 0,0.805 18.009,18.009 0 0 0 -0.425,3.356 5.965,5.965 0 0 0 0.039,0.7 c 0.263,2.372 1.8,4.38 3.3,6.231 1.779,2.2 3.586,4.391 5.4,6.573 a 25.827,25.827 0 0 0 3.272,3.5 c 1.119,0.929 2.568,1.678 3.44,2.87 0.71,0.962 0.481,2.277 0.559,3.435 a 76.247,76.247 0 0 1 0.055,10.506 z"
       data-name="Pfad 366"
       id="Pfad_366" />
    <path
       fill="#be6f72"
       transform="translate(-781.083,-270.992)"
       d="m 883.5,368.975 a 11.747,11.747 0 0 0 1.488,-1.762 11.617,11.617 0 0 0 1.119,-2.5 l 3.244,-9.2 c 0.515,-1.454 1.029,-2.914 1.678,-4.33 0.671,-1.527 1.466,-3 2.2,-4.475 a 59.689,59.689 0 0 0 4.346,-12.167 4.51,4.51 0 0 0 0.173,-1.784 4.691,4.691 0 0 0 -1.589,-2.411 11.625,11.625 0 0 0 -2.383,-1.969 3.916,3.916 0 0 0 -2.987,-0.481 4.316,4.316 0 0 0 -2.663,3.356 35.053,35.053 0 0 0 -0.347,4.475 c -0.2,2.148 -0.94,4.223 -1.119,6.377 -0.1,1.247 0,2.506 -0.151,3.748 a 13.689,13.689 0 0 1 -1.678,4.626 30.034,30.034 0 0 1 -7.233,8.894 11.632,11.632 0 0 0 -2.17,2.086 6.808,6.808 0 0 0 -1.046,2.607 6,6 0 0 0 0.453,4.234 6.216,6.216 0 0 0 4.335,2.584 c 2.264,0.469 2.784,-0.303 4.33,-1.908 z"
       data-name="Pfad 367"
       id="Pfad_367" />
    <path
       fill="#3f3d56"
       transform="translate(-743.37,-244.615)"
       d="m 802.416,271.936 a 5.219,5.219 0 0 1 5.068,-2.747 5.594,5.594 0 0 1 4.4,3.949 10.209,10.209 0 0 0 0.828,2.472 c 0.694,1.08 1.98,1.393 2.942,2.176 a 5.89,5.89 0 0 1 1.88,4.162 12.59,12.59 0 0 1 -0.744,4.7 14.965,14.965 0 0 0 -0.559,1.969 c -0.112,0.649 -0.123,1.309 -0.224,1.958 a 6.377,6.377 0 0 1 -2.568,4.234 1.119,1.119 0 0 1 -0.694,0.252 c -0.436,-0.05 -0.7,-0.559 -0.867,-1.018 -0.889,-2.568 -0.677,-5.706 -2.316,-7.753 a 8.473,8.473 0 0 0 -2.651,-1.975 3.417,3.417 0 0 0 -1.354,-0.509 3.563,3.563 0 0 0 -1.958,0.716 12.19,12.19 0 0 1 -3.871,1.712 4.755,4.755 0 0 1 -4,-0.861 c -0.772,-0.638 -1.337,-1.594 -2.193,-2.092 a 16.885,16.885 0 0 0 -2.6,-0.811 3.843,3.843 0 0 1 -1.555,-5.862 c 0.559,-0.671 1.387,-1.052 1.885,-1.8 0.643,-0.962 0.587,-2.282 0.9,-3.435 a 4.727,4.727 0 0 1 2.847,-3.25 4,4 0 0 1 3.983,0.833 c 0.559,0.5 1.007,1.152 1.555,1.678 a 4.475,4.475 0 0 0 4.139,1.119"
       data-name="Pfad 368"
       id="Pfad_368" />
    <path
       opacity="0.1"
       transform="translate(-760.925,-311.05)"
       d="m 829.167,420.707 a 2.17,2.17 0 0 0 -0.593,2.372 c 0.123,0.263 5.9,-0.85 6.506,-0.934 1.521,-0.218 4.19,-0.112 5.213,-1.5 1.824,-2.467 -3.826,-1.919 -4.861,-1.829 -1.969,0.162 -4.766,0.431 -6.265,1.891 z"
       data-name="Pfad 369"
       id="Pfad_369" />
    <path
       fill="#3f3d56"
       transform="translate(-707.775,-254.088)"
       d="m 723.5,291.585 a 18,18 0 0 0 -0.425,3.356 9.775,9.775 0 0 1 -5.034,-0.778 l -4.626,-1.577 a 1.314,1.314 0 0 0 -1.768,0.33 39.163,39.163 0 0 1 -2.8,3.1 2.282,2.282 0 0 1 -0.487,-0.106 c -0.778,-0.324 -0.66,-1.527 -0.1,-2.159 0.56,-0.632 1.387,-0.984 1.9,-1.678 a 10.115,10.115 0 0 1 0.794,-1.18 3.026,3.026 0 0 1 1.3,-0.654 20.172,20.172 0 0 1 9.929,-0.375 c 0.559,0.123 1.2,0.347 1.365,0.889 a 1.639,1.639 0 0 1 -0.048,0.832 z"
       data-name="Pfad 370"
       id="Pfad_370" />
    <path
       opacity="0.1"
       transform="translate(-707.775,-254.088)"
       d="m 723.5,291.585 a 18,18 0 0 0 -0.425,3.356 9.775,9.775 0 0 1 -5.034,-0.778 l -4.626,-1.577 a 1.314,1.314 0 0 0 -1.768,0.33 39.163,39.163 0 0 1 -2.8,3.1 2.282,2.282 0 0 1 -0.487,-0.106 c -0.778,-0.324 -0.66,-1.527 -0.1,-2.159 0.56,-0.632 1.387,-0.984 1.9,-1.678 a 10.115,10.115 0 0 1 0.794,-1.18 3.026,3.026 0 0 1 1.3,-0.654 20.172,20.172 0 0 1 9.929,-0.375 c 0.559,0.123 1.2,0.347 1.365,0.889 a 1.639,1.639 0 0 1 -0.048,0.832 z"
       data-name="Pfad 371"
       id="Pfad_371" />
    <path
       opacity="0.1"
       transform="translate(-744.729,-337.72)"
       d="m 802.774,481.415 a 2.792,2.792 0 0 1 1.952,1.466 l -6.478,-1.645 -3.356,-0.856 c -0.593,-0.151 -2.719,-0.324 -3.11,-0.789 -0.559,-0.682 1.426,-0.213 1.784,-0.162 1.085,0.162 2.17,0.33 3.25,0.526 2.037,0.363 3.995,0.962 5.958,1.46 z"
       data-name="Pfad 372"
       id="Pfad_372" />
    <path
       opacity="0.1"
       transform="translate(-744.792,-340.407)"
       d="m 805.349,489.836 c -0.559,-0.375 -2.165,-0.33 -2.853,-0.492 -1.007,-0.241 -2,-0.559 -2.987,-0.867 -2.008,-0.655 -4,-1.4 -6.064,-1.88 -0.38,-0.084 -1.678,-0.106 -1.617,-0.587 0.061,-0.481 1.3,-0.649 1.605,-0.671 1.829,-0.134 4.111,0.722 5.812,1.331 a 25.617,25.617 0 0 1 6.104,3.166 z"
       data-name="Pfad 373"
       id="Pfad_373" />
    <path
       opacity="0.1"
       transform="translate(-745.856,-332.699)"
       d="m 802.306,471.281 c -2.053,-0.559 -3.916,-1.835 -6.03,-2.081 a 2.45,2.45 0 0 1 -1.538,-0.47 1.813,1.813 0 0 1 -0.5,-0.9 10.422,10.422 0 0 1 4.346,1.091 13.668,13.668 0 0 1 2.036,1.085 c 0.472,0.294 1.18,1.113 1.686,1.275 z"
       data-name="Pfad 374"
       id="Pfad_374" />
    <path
       fill="#3f3d56"
       transform="translate(-777.574,-295.964)"
       d="m 873.158,384.46 a 9.784,9.784 0 0 0 6.858,10.813 c -0.274,1.326 -1.645,2.059 -2.612,3 -1.365,1.326 -2.07,3.312 -3.681,4.318 -1.8,1.119 -4.106,0.682 -6.153,0.213 a 0.749,0.749 0 0 1 -0.481,-0.252 0.687,0.687 0 0 1 -0.089,-0.218 14.4,14.4 0 0 1 -0.425,-7.608 c 0.559,-2.114 1.9,-3.916 2.976,-5.784 1.076,-1.868 1.174,-3.867 3.607,-4.482 z"
       data-name="Pfad 375"
       id="Pfad_375" />
    <path
       fill="#3f3d56"
       transform="translate(-723.1,-270.685)"
       d="m 768.67,327.106 a 14.544,14.544 0 0 0 -6.153,1.874 c -1.253,0.716 -2.54,1.678 -3.972,1.5 -0.845,-0.1 -1.678,-0.559 -2.5,-0.336 a 4.9,4.9 0 0 0 -1.281,0.761 1.449,1.449 0 0 1 -1.41,0.224 l -0.559,7.742 a 28.382,28.382 0 0 0 0.285,8.816 c 0.364,1.466 1.164,2.8 1.253,4.285 0.089,1.485 -0.045,3.015 0.062,4.52 0.1,1.393 0.408,2.763 0.487,4.156 a 26.443,26.443 0 0 1 -1.119,7.792 c -0.945,3.77 -1.516,7.624 -3.356,11.037 a 6.511,6.511 0 0 0 -1.119,2.981 1.524,1.524 0 0 0 0.034,0.392 c -0.559,0.308 -1.08,0.6 -1.555,0.9 a 5.964,5.964 0 0 0 -2.635,2.646 c -0.352,0.968 -0.19,2.075 -0.615,3.009 -0.425,0.934 -1.4,1.6 -1.611,2.607 -0.151,0.733 0.14,1.5 0,2.237 a 9.566,9.566 0 0 0 -0.308,1.158 2.429,2.429 0 0 0 1.359,1.975 10.946,10.946 0 0 0 3.356,1.477 l 3.34,-13.257 v 0 a 106.9,106.9 0 0 0 7.568,-17.6 37.849,37.849 0 0 1 2.187,-5.8 27.24,27.24 0 0 0 1.678,-3.289 24.779,24.779 0 0 0 0.805,-4.425 30.972,30.972 0 0 1 1.315,-5.107 21.917,21.917 0 0 0 1.426,-5.471 c 0.185,-2.7 -0.794,-5.543 0.246,-8.038 a 10.687,10.687 0 0 1 1.706,-2.568 c 1.443,-1.768 2.758,-3.619 4.2,-5.387 a 3.881,3.881 0 0 0 -3.114,-0.811 z"
       data-name="Pfad 376"
       id="Pfad_376" />
    <g
       opacity="0.1"
       transform="translate(45.247,25.481)"
       data-name="Gruppe 162"
       id="Gruppe_162">
      <path
         transform="translate(-800.69,-271.81)"
         d="m 816.778,271.81 -0.7,0.05 -0.078,0.056 a 4.128,4.128 0 0 0 0.778,-0.106 z"
         data-name="Pfad 377"
         id="Pfad_377" />
      <path
         transform="translate(-788.631,-278.107)"
         d="m 817.517,289.719 a 15.069,15.069 0 0 1 -0.716,3.267 14.97,14.97 0 0 0 -0.559,1.969 c -0.112,0.649 -0.123,1.309 -0.224,1.958 a 6.377,6.377 0 0 1 -2.568,4.235 1.119,1.119 0 0 1 -0.694,0.252 c -0.436,-0.05 -0.7,-0.559 -0.867,-1.018 -0.889,-2.568 -0.677,-5.706 -2.316,-7.753 a 8.475,8.475 0 0 0 -2.651,-1.975 3.418,3.418 0 0 0 -1.354,-0.509 3.564,3.564 0 0 0 -1.958,0.716 12.186,12.186 0 0 1 -3.871,1.712 4.755,4.755 0 0 1 -4,-0.861 c -0.772,-0.638 -1.337,-1.594 -2.193,-2.092 a 16.887,16.887 0 0 0 -2.6,-0.811 3.821,3.821 0 0 1 -2.182,-2.495 1.6,1.6 0 0 1 -0.045,-0.213 3.916,3.916 0 0 0 0.045,1.891 3.82,3.82 0 0 0 2.182,2.495 18.869,18.869 0 0 1 2.6,0.811 21.168,21.168 0 0 1 2.193,2.092 4.755,4.755 0 0 0 4,0.861 12.189,12.189 0 0 0 3.871,-1.712 3.563,3.563 0 0 1 1.958,-0.716 3.418,3.418 0 0 1 1.354,0.509 8.474,8.474 0 0 1 2.612,1.991 c 1.639,2.047 1.426,5.185 2.316,7.753 0.162,0.464 0.431,0.968 0.867,1.018 a 1.119,1.119 0 0 0 0.733,-0.268 6.377,6.377 0 0 0 2.573,-4.251 c 0.1,-0.649 0.112,-1.309 0.224,-1.958 a 14.953,14.953 0 0 1 0.559,-1.969 12.59,12.59 0 0 0 0.744,-4.7 c -0.011,-0.072 -0.022,-0.148 -0.033,-0.229 z"
         data-name="Pfad 378"
         id="Pfad_378" />
    </g>
  </g>
  <g
     transform="translate(100.892,78.855)"
     id="Duderina">
    <path
       style="fill:url(#linear-gradient-2)"
       fill="url(#linear-gradient-2)"
       transform="translate(-178.583,-301.472)"
       d="m 302.338,393.707 c -1.292,-0.431 -8.9,-6.45 -9.476,-9.174 -0.576,-2.724 4.022,-28.1 4.022,-28.1 a 10.334,10.334 0 0 1 -1.119,-0.084 v -0.408 l 0.945,-33.339 c 0,0 3.876,-22.375 -3.446,-21.072 -7.322,1.303 -2.73,21.072 -2.73,21.072 0,0 -0.833,10.035 -1.421,13.045 -0.559,2.9 -3.121,14.728 -1.376,18.4 a 4.006,4.006 0 0 0 0.213,0.38 v 0 c 0,0 0.291,12.614 -2.87,14.337 -3.015,1.639 -4.268,9.89 -4.374,10.628 l -0.162,-0.067 v 0 a 8.766,8.766 0 0 1 -2.333,-2.131 c -0.067,-0.084 -0.117,-0.173 -0.179,-0.263 a 12.319,12.319 0 0 0 -3.793,-19.237 7.943,7.943 0 0 0 -0.744,-3.088 c -1.454,-3.11 -9.509,-7.177 -15.232,-7.272 -2.64,-0.078 -4.805,0.671 -5.594,2.735 a 15.782,15.782 0 0 0 -0.447,3.323 8.45,8.45 0 0 1 -3.619,5.381 22.692,22.692 0 0 0 -2.411,-2.321 c -1.868,-1.432 -5.594,-6.153 -5.594,-6.153 0,0 -11.63,-12.043 -12.491,-15.344 -0.861,-3.301 -12.48,-23.119 -15.064,-19.668 -2.584,3.451 8.9,18.493 8.9,18.493 0,0 2.182,5.465 3.86,7.311 1.678,1.846 14.544,20.529 14.544,20.529 l 0.615,1.275 c -2.719,1.432 -5.2,3.256 -6.08,6.1 -1.287,4.184 1.527,8.391 3.474,12.306 3.793,7.641 4.335,17.385 -0.559,24.367 -4.386,6.164 -11.993,9.1 -19.114,11.657 a 18.812,18.812 0 0 0 12.083,4.011 c -1.645,4.766 -7.473,6.343 -12.441,7.227 2.607,2.506 6.338,3.418 9.918,3.972 a 29.717,29.717 0 0 0 5.309,0.42 h 0.436 l 0.436,-0.034 a 15.186,15.186 0 0 0 1.807,-0.229 9.494,9.494 0 0 0 6.416,-4.218 c 1.119,-1.952 1.51,-4.615 3.541,-5.594 a 4.525,4.525 0 0 1 1.678,-0.4 h 1.091 l 8.463,0.084 h 1.08 c 2.389,-0.056 4.939,-0.47 6.153,-2.444 a 6.779,6.779 0 0 0 0.766,-3.1 c 0.179,-2.679 0,-5.437 0.073,-8.139 0.722,4.917 1.477,12.58 -0.319,15.411 a 26.289,26.289 0 0 1 -5.247,5.689 10.072,10.072 0 0 0 -1.387,1.421 c -0.274,0.2 -0.436,0.3 -0.436,0.3 l -0.173,0.52 a 9.851,9.851 0 0 0 -1.365,3.166 2.2,2.2 0 0 0 -0.106,0.9 c 0.2,0.4 -1.4,2.036 -0.934,2.724 -3.983,4.671 -4.738,11.747 -4.738,11.747 l -7.273,11.041 c -3.737,9.817 -9.33,10.824 -9.33,10.824 0,0 -13.14,-8.816 -13.5,-9.247 a 50.749,50.749 0 0 0 -5.381,-2.584 5.7,5.7 0 0 0 -2.584,-2.361 c -1.723,-0.716 -1.868,-3.356 -1.868,-3.356 -0.213,-6.237 -3.876,-6.713 -3.876,-6.713 a 11.9,11.9 0 0 0 -6.942,1.236 l -0.526,0.039 c -2.54,0.207 -5.594,0.436 -8.95,0.66 C 181.221,450.913 179,456.96 179,456.96 a 1.861,1.861 0 0 0 0.358,2.691 c 1.5,1.4 11.137,0 11.546,-0.034 a 6.254,6.254 0 0 1 -2.193,-0.151 c 1.516,-0.056 3.6,-0.112 5.381,-0.112 h 0.431 a 23.282,23.282 0 0 0 -0.162,2.842 c 0,1.79 4.951,2.937 4.951,2.937 l 15.075,13.425 c 0,0 9.476,4.235 15.506,10.326 6.03,6.091 11.361,0.834 11.361,0.834 6.383,-1.577 24.747,-23.779 24.764,-23.8 v 0 c 0,0.649 0.386,22.241 1.119,26.576 v 0 a 2.88,2.88 0 0 0 0.162,0.643 c 0.861,1.863 -0.291,6.953 -0.789,9.1 a 25.284,25.284 0 0 0 -0.364,5.448 c 0,0 -6.886,26.291 -6.315,28.6 0.571,2.309 -3.731,13.045 -3.731,13.045 v 8.95 l 0.75,-0.039 a 4.835,4.835 0 0 0 -0.268,0.448 l -0.05,0.1 a 31.832,31.832 0 0 0 7.68,0.716 c 3.088,-0.285 8.391,2.377 8.391,2.377 0,0 1.8,0.85 7.322,1.208 5.522,0.358 5.527,-2.439 5.527,-2.439 -0.632,-3.809 -9.364,-5.085 -9.633,-5.124 -0.7,-0.442 -1.365,-0.923 -1.908,-1.337 l -0.112,-0.089 a 2.4,2.4 0 0 0 0.1,-0.257 c 0.934,-3.8 -4.235,-5.454 -4.235,-5.454 v -0.929 c 3.356,-1.723 4.022,-13.548 4.022,-13.548 0,0 5.034,-14.622 5.739,-17.061 a 16.125,16.125 0 0 0 0,-6.092 l 0.5,-3.155 a 15.517,15.517 0 0 0 1.08,-2.579 6.371,6.371 0 0 1 1.219,-3.009 c 0.789,-0.934 -0.861,-3.155 -0.861,-3.155 l 1.438,-3.725 v -4.089 l 3.356,-14.835 c 0,0 3.518,-17.279 2.3,-22.935 -1.218,-5.656 1.438,-8.531 1.438,-8.531 a 7.069,7.069 0 0 1 -0.738,0.336 21.367,21.367 0 0 0 0.867,-2.383 l 7.552,0.934 v 0.112 h 2.724 c 0,0 -0.861,-10.628 -0.861,-14.913 0,-4.285 2.9,-19.662 2.9,-19.662 0,0 1.292,-15.033 -10e-4,-15.464 z M 268.815,381.3 c 0,0.42 -0.039,0.856 -0.067,1.3 l -0.151,0.229 -0.28,-0.235 -0.341,0.531 -0.1,0.05 c -0.738,-0.38 -1.119,-2.556 -1.65,-2.086 l -0.073,0.062 c -0.117,-0.134 -0.235,-0.173 -0.358,-0.062 l -0.112,0.1 v -0.5 a 12.585,12.585 0 0 0 3.133,0.4 c 0.004,0.071 -10e-4,0.144 -10e-4,0.211 z m 25.116,49.494 h 0.162 l -0.268,0.7 c 0.033,-0.23 0.067,-0.46 0.106,-0.7 z m -27.572,126.851 -1.029,-0.257 0.559,-0.1 0.52,0.341 0.062,0.045 z m 10.516,-1.5 c -0.341,-0.179 -0.688,-0.386 -1.024,-0.6 0.113,0.055 0.554,0.287 1.024,0.595 z"
       data-name="Pfad 393"
       id="Pfad_393" />
    <path
       fill="#f86d70"
       transform="translate(-235.308,-271.275)"
       d="m 354.371,390.03 -6.771,17.654 h 1.645 l -6.371,5.079 11.5,1.432 z"
       data-name="Pfad 394"
       id="Pfad_394" />
    <path
       opacity="0.1"
       transform="translate(-235.308,-271.275)"
       d="m 354.371,390.03 -6.771,17.654 -1.706,-0.459 -3.021,5.538 11.5,1.432 z"
       data-name="Pfad 395"
       id="Pfad_395" />
    <path
       fill="#f86d70"
       transform="translate(-236,-254.901)"
       d="m 344.44,384.95 h 10.623 l 3.9,-32.08 H 344.44 Z"
       data-name="Pfad 396"
       id="Pfad_396" />
    <path
       opacity="0.1"
       transform="translate(-236,-254.901)"
       d="m 344.44,384.95 h 10.623 l 3.9,-32.08 H 344.44 Z"
       data-name="Pfad 397"
       id="Pfad_397" />
    <path
       fill="#fbbebe"
       transform="translate(-246.806,-356.995)"
       d="m 334.5,462.56 2.293,-0.386 5.269,-0.895 c 0,0 15.825,-3.569 19.092,-3.86 a 20.4,20.4 0 0 0 5.728,-1.633 c 0.856,-0.369 1.4,-0.649 1.4,-0.649 l -5.7,-10.41 -8.844,-6.556 c 0,0 -5.594,-1.191 -7.96,-4.447 a 5.241,5.241 0 0 1 -0.733,-4.967 c 1.443,-4.475 -8.62,4.279 -8.62,4.279 0,0 0.1,2.1 0,4.772 0,0.526 -0.05,1.074 -0.09,1.633 a 11.016,11.016 0 0 1 -0.09,1.119 c -0.246,2.657 -0.75,5.392 -1.745,7.026 -2.435,3.993 0,14.974 0,14.974 z"
       data-name="Pfad 398"
       id="Pfad_398" />
    <path
       opacity="0.1"
       transform="translate(-249.173,-357.171)"
       d="m 338.79,438.207 h 0.224 c 0.4,0 0.727,-0.856 1.119,-0.9 3.149,-0.3 6.025,-0.962 8.022,-3.194 a 5.247,5.247 0 0 1 -0.733,-4.962 c 1.443,-4.475 -8.62,4.274 -8.62,4.274 0,0 0.105,2.108 -0.012,4.782 z"
       data-name="Pfad 399"
       id="Pfad_399" />
    <path
       fill="#fbbebe"
       transform="translate(-239.524,-345.654)"
       d="m 316.89,414 a 12.256,12.256 0 0 0 12.262,12.262 8.533,8.533 0 0 0 1.2,-0.056 A 12.262,12.262 0 1 0 316.89,414 Z"
       data-name="Pfad 400"
       id="Pfad_400" />
    <path
       fill="#3f3d56"
       transform="translate(-209.689,-338.502)"
       d="m 283.291,388.241 a 15.086,15.086 0 0 0 -0.442,3.306 c -0.6,3.977 -4.643,6.36 -8.3,8.027 -3.657,1.667 -7.787,3.642 -8.95,7.485 -1.275,4.156 1.51,8.324 3.446,12.222 3.77,7.6 4.307,17.285 -0.559,24.232 -4.324,6.153 -11.859,9.073 -18.952,11.635 a 18.683,18.683 0 0 0 12,3.994 c -1.628,4.738 -7.417,6.31 -12.351,7.182 2.59,2.495 6.3,3.4 9.851,3.949 a 22.336,22.336 0 0 0 7.831,0.145 9.408,9.408 0 0 0 6.366,-4.2 c 1.119,-1.941 1.5,-4.587 3.518,-5.566 a 6.367,6.367 0 0 1 2.87,-0.42 l 8.391,0.09 c 2.612,0 5.706,-0.2 7.054,-2.433 a 6.712,6.712 0 0 0 0.761,-3.088 c 0.364,-5.5 -0.694,-11.322 1.572,-16.345 0.682,-1.516 -3.7,-3.916 -3.239,-5.521 a 51.571,51.571 0 0 0 1.958,-15.612 c 0,-4.447 2.892,-8.279 5.281,-12.032 2.389,-3.753 4.386,-8.491 2.5,-12.519 -2.13,-4.486 -18.097,-11.014 -20.606,-4.531 z"
       data-name="Pfad 401"
       id="Pfad_401" />
    <path
       fill="#fbbebe"
       transform="translate(-245.357,-499.75)"
       d="m 330.13,754.312 2.137,1.415 0.33,0.218 0.062,0.039 2.534,1.678 5.918,1 5.2,-0.358 c 0,0 1.5,-3.132 -0.856,-3.06 a 4.9,4.9 0 0 1 -2.148,-0.621 l -0.324,-0.162 v 0 c -0.341,-0.179 -0.682,-0.38 -1.018,-0.593 v 0 c -0.7,-0.442 -1.359,-0.923 -1.891,-1.331 -0.783,-0.6 -1.3,-1.063 -1.3,-1.063 z"
       data-name="Pfad 402"
       id="Pfad_402" />
    <path
       opacity="0.1"
       transform="translate(-247.063,-502.231)"
       d="m 334,758.208 0.33,0.218 0.062,0.039 2.534,1.678 5.918,1 5.2,-0.358 c 0,0 1.5,-3.133 -0.856,-3.06 a 4.9,4.9 0 0 1 -2.148,-0.621 c 0.414,0.324 0.761,0.677 0.794,0.973 0.1,0.8 -3.849,2.237 -3.849,2.237 l -5.56,-1.471 c 0,0 -0.945,-0.268 -2.238,-0.6 l -0.123,-0.034 z"
       data-name="Pfad 403"
       id="Pfad_403" />
    <path
       fill="#3f3d56"
       transform="translate(-239.572,-501.614)"
       d="m 317,758.956 a 31.491,31.491 0 0 0 7.624,0.71 c 3.065,-0.285 8.346,2.355 8.346,2.355 0,0 1.784,0.839 7.272,1.2 5.488,0.361 5.488,-2.428 5.488,-2.428 -0.626,-3.787 -9.3,-5.034 -9.565,-5.09 v 0 a 10.65,10.65 0 0 1 1.018,0.593 v 0 c 0.615,0.4 1.281,0.929 1.331,1.354 0.1,0.794 -3.849,2.237 -3.849,2.237 l -5.56,-1.466 c 0,0 -0.945,-0.274 -2.238,-0.61 h -0.123 a 47.7,47.7 0 0 0 -5.829,-1.2 4.046,4.046 0 0 0 -3.871,2.238 0.667,0.667 0 0 0 -0.045,0.112 z"
       data-name="Pfad 404"
       id="Pfad_404" />
    <path
       fill="#fbbebe"
       transform="translate(-182.97,-419.905)"
       d="m 188.54,576.654 2.422,1.857 c 0,0 0.7,-0.034 1.756,-0.067 h 0.336 c 1.5,-0.056 3.58,-0.112 5.342,-0.112 a 16.961,16.961 0 0 1 3.407,0.19 c 1.208,0.425 3.356,-6.914 3.356,-6.914 l -2.428,-0.559 -0.806,-0.19 -0.559,-0.134 -1.975,-0.464 -5.985,0.682 -4.206,2.707 z"
       data-name="Pfad 405"
       id="Pfad_405" />
    <path
       opacity="0.1"
       transform="translate(-182.97,-419.905)"
       d="m 188.54,576.654 2.422,1.857 c 0,0 0.7,-0.034 1.756,-0.067 a 2.12,2.12 0 0 1 -1.119,-1 c -1.566,-4.346 6.2,-6.2 6.2,-6.2 l 3.619,-0.157 0.7,-0.034 h 0.559 l -0.805,-0.19 -0.559,-0.134 -1.975,-0.464 -5.985,0.682 -4.207,2.707 z"
       data-name="Pfad 406"
       id="Pfad_406" />
    <path
       fill="#3f3d56"
       transform="translate(-178.596,-418.152)"
       d="m 179.389,576.863 c 1.466,1.354 11.065,0 11.467,-0.034 a 6.04,6.04 0 0 1 -2.176,-0.151 2.4,2.4 0 0 1 -1.678,-1.2 c -1.566,-4.352 6.2,-6.2 6.2,-6.2 l 3.619,-0.157 0.7,-0.034 8.8,-0.38 0.425,-2.422 c 0,0 -2.858,0.268 -7.345,0.626 -2.523,0.207 -5.594,0.436 -8.911,0.654 -9.269,0.615 -11.473,6.629 -11.473,6.629 a 1.859,1.859 0 0 0 0.372,2.669 z"
       data-name="Pfad 407"
       id="Pfad_407" />
    <path
       fill="#fbbebe"
       transform="translate(-263.534,-302.584)"
       d="m 371.979,356.3 a 2.48,2.48 0 0 0 0.213,0.38 l 2.137,3.133 5.56,0.559 0.062,-2.2 0.934,-33.16 c 0,0 3.849,-22.241 -3.423,-20.96 -7.272,1.281 -2.707,20.96 -2.707,20.96 0,0 -0.828,9.979 -1.41,12.978 -0.566,2.893 -3.1,14.674 -1.366,18.31 z"
       data-name="Pfad 408"
       id="Pfad_408" />
    <path
       fill="#fbbebe"
       transform="translate(-254.174,-406.898)"
       d="m 350.14,542.977 1.583,2.707 3.541,6.058 c 0,0 6.422,2.355 8.066,0.559 0.9,-0.979 1.874,-4.4 2.556,-7.272 0.559,-2.327 0.934,-4.29 0.934,-4.29 z"
       data-name="Pfad 409"
       id="Pfad_409" />
    <path
       opacity="0.1"
       transform="translate(-254.174,-406.92)"
       d="m 350.14,543 1.583,2.707 a 1.861,1.861 0 0 0 0.269,-0.285 c 1.79,-2.282 9.672,-0.487 13.895,-0.341 0.559,-2.327 0.934,-4.29 0.934,-4.29 z"
       data-name="Pfad 410"
       id="Pfad_410" />
    <path
       opacity="0.1"
       transform="translate(-190.734,-418.152)"
       d="m 206.16,576.567 a 16.961,16.961 0 0 1 3.407,0.19 c 1.208,0.425 3.356,-6.914 3.356,-6.914 l -3.233,-0.761 8.8,-0.38 0.425,-2.422 c 0,0 -2.858,0.268 -7.345,0.626 a 9.231,9.231 0 0 0 -2.444,2.042 l -0.134,0.168 a 14.66,14.66 0 0 0 -2.832,7.451 z"
       data-name="Pfad 411"
       id="Pfad_411" />
    <path
       opacity="0.1"
       transform="translate(-245.357,-499.733)"
       d="m 330.13,754.294 2.467,1.633 c 3.681,-0.666 7.043,-1.712 7.44,-3.356 a 0.56,0.56 0 0 0 0,-0.078 c -0.783,-0.6 -1.3,-1.063 -1.3,-1.063 z"
       data-name="Pfad 412"
       id="Pfad_412" />
    <path
       opacity="0.1"
       transform="translate(-239.612,-502.31)"
       d="m 317.09,759.557 a 85.386,85.386 0 0 0 9.7,-1.04 47.7,47.7 0 0 0 -5.834,-1.214 4.024,4.024 0 0 0 -3.866,2.254 z"
       data-name="Pfad 413"
       id="Pfad_413" />
    <path
       fill="#3f3d56"
       transform="translate(-190.945,-406.893)"
       d="m 206.64,568.133 c 0,1.784 4.917,2.925 4.917,2.925 l 14.975,13.33 c 0,0 9.409,4.206 15.394,10.265 5.985,6.059 11.266,0.856 11.266,0.856 6.343,-1.566 24.613,-23.667 24.613,-23.667 0,0 0.425,25.239 1.281,27.091 0.856,1.852 -0.285,6.914 -0.783,9.056 a 25.173,25.173 0 0 0 -0.358,5.415 c 0,0 -6.841,26.162 -6.271,28.444 0.57,2.282 -3.709,12.978 -3.709,12.978 v 8.911 c 0,0 16.753,-0.643 17.676,-4.419 0.923,-3.776 -4.2,-5.42 -4.2,-5.42 v -0.929 c 3.356,-1.712 3.988,-13.47 3.988,-13.47 0,0 5,-14.544 5.706,-16.966 a 15.862,15.862 0 0 0 0,-6.064 l 0.5,-3.133 a 15.637,15.637 0 0 0 1.068,-2.568 6.344,6.344 0 0 1 1.214,-2.993 c 0.783,-0.928 -0.856,-3.138 -0.856,-3.138 l 1.426,-3.709 v -4.061 l 3.356,-14.756 c 0,0 3.5,-17.184 2.282,-22.817 -1.218,-5.633 1.426,-8.48 1.426,-8.48 -5.722,3 -8.609,-3.675 -9.554,-6.545 -0.241,-0.738 -0.358,-1.231 -0.358,-1.231 0,0 -7.859,-2.9 -15.176,-2.2 a 17.471,17.471 0 0 0 -4.358,0.923 c -8.128,2.926 -9.409,15.042 -9.409,15.042 l -7.2,10.981 c -3.709,9.767 -9.269,10.763 -9.269,10.763 0,0 -13.045,-8.766 -13.425,-9.2 a 52.257,52.257 0 0 0 -5.348,-2.568 5.65,5.65 0 0 0 -2.568,-2.349 c -1.712,-0.716 -1.852,-3.356 -1.852,-3.356 -0.213,-6.2 -3.849,-6.713 -3.849,-6.713 -12.618,-1.051 -12.545,11.993 -12.545,13.772 z"
       data-name="Pfad 414"
       id="Pfad_414" />
    <rect
       y="0"
       x="0"
       fill="#f86d70"
       transform="rotate(180,47.983,63.1925)"
       height="23.879999"
       width="7.697"
       data-name="Rechteck 73"
       id="Rechteck_73" />
    <rect
       y="0"
       x="0"
       opacity="0.1"
       transform="rotate(180,47.983,63.1925)"
       height="23.879999"
       width="7.697"
       data-name="Rechteck 74"
       id="Rechteck_74" />
    <path
       opacity="0.1"
       transform="translate(-263.999,-343.744)"
       d="m 372.439,397.41 a 0.356,0.356 0 0 0 0,0.05 2.476,2.476 0 0 0 0.213,0.38 l 2.137,3.133 5.56,0.559 0.061,-2.2 c -1.734,-0.138 -5.683,-0.613 -7.971,-1.922 z"
       data-name="Pfad 415"
       id="Pfad_415" />
    <path
       fill="#f86d70"
       transform="translate(-258.492,-344.083)"
       d="m 367.15,398.18 c 0,0 0.285,12.541 -2.853,14.253 -3.138,1.712 -4.358,10.628 -4.358,10.628 0,0 9.509,6.254 11.629,9.006 2.12,2.752 6.987,9.308 5.985,10.874 -1.002,1.566 2.428,8.7 2.428,8.7 0,0 -6.276,12.832 -4.85,17.682 1.426,4.85 1.569,17.677 1.569,17.677 h 2.713 c 0,0 -0.856,-10.55 -0.856,-14.829 0,-4.279 2.847,-19.534 2.847,-19.534 0,0 1.287,-14.969 0,-15.394 -1.287,-0.425 -8.838,-6.416 -9.409,-9.129 -0.571,-2.713 3.994,-27.969 3.994,-27.969 0,0 -5.846,-0.253 -8.839,-1.965 z"
       data-name="Pfad 416"
       id="Pfad_416" />
    <path
       opacity="0.1"
       transform="translate(-247.997,-363.581)"
       d="m 336.12,463.871 a 12.206,12.206 0 0 0 1.863,4.889 l 5.269,-0.9 c 0,0 15.825,-3.569 19.092,-3.86 a 20.4,20.4 0 0 0 5.728,-1.633 A 25.262,25.262 0 0 0 361,450.765 l -2.008,-1.863 a 33.646,33.646 0 0 0 -10.125,-6.472 c 0.235,0.2 16.837,14.37 13.2,17.151 -3.637,2.781 -13.425,-3.988 -13.425,-3.988 l -11.132,-9.565 -0.4,-0.347 -0.643,1 a 9.352,9.352 0 0 1 0.957,0.459 16.379,16.379 0 0 1 7.831,9.733 c 2.282,7.692 -9.135,6.998 -9.135,6.998 z"
       data-name="Pfad 417"
       id="Pfad_417" />
    <path
       fill="#444053"
       transform="translate(-245.3,-406.898)"
       d="m 330,542.831 c 0,0 10.55,5.846 13.112,2.568 0.559,-0.722 1.74,-1.035 3.211,-1.119 -0.241,-0.738 -0.358,-1.231 -0.358,-1.231 0,0 -7.859,-2.9 -15.176,-2.2 -0.481,1.205 -0.789,1.982 -0.789,1.982 z"
       data-name="Pfad 418"
       id="Pfad_418" />
    <path
       fill="#e8e8f0"
       transform="translate(-245.3,-363.594)"
       d="m 334.855,445.7 11.534,9.923 c 0,0 9.75,6.791 13.425,3.988 3.675,-2.803 -13.207,-17.156 -13.207,-17.156 v 0 a 34.124,34.124 0 0 1 10.119,6.455 l 2.008,1.863 c 5.281,4.895 6.472,4.895 6.651,12.088 0.045,1.773 -0.559,4.318 -1.024,4.777 -1.712,1.678 -2.909,13.867 -2.646,15.293 0.263,1.426 -3.188,13.738 -2.07,17.162 1.118,3.424 -13.984,-1.712 -16.541,1.572 C 340.547,504.949 330,499.1 330,499.1 c 0,0 5.846,-14.975 7.272,-15.97 1.426,-0.995 3.138,-8.7 0,-12.262 a 13.3,13.3 0 0 1 -3.418,-6.987 c 0,0 11.411,0.7 9.123,-6.987 a 16.144,16.144 0 0 0 -8.771,-10.192 z"
       data-name="Pfad 419"
       id="Pfad_419" />
    <path
       opacity="0.1"
       transform="translate(-251.82,-386.031)"
       d="m 356.769,493.38 c 0,0 -4.425,8.34 -10.147,10.505 -0.185,0.067 -0.364,0.129 -0.559,0.185 -5.975,1.818 11.154,-8.106 10.706,-10.69 z"
       data-name="Pfad 420"
       id="Pfad_420" />
    <path
       fill="#fbbebe"
       transform="translate(-205.243,-313.119)"
       d="m 248.314,346.681 c 0,0 2.137,5.42 3.849,7.272 1.712,1.852 14.4,20.389 14.4,20.389 l 1.074,2.237 0.923,1.908 8.128,-0.856 0.559,-3.278 -0.313,-0.38 a 38.405,38.405 0 0 0 -4.537,-4.755 c -1.852,-1.421 -5.56,-6.125 -5.56,-6.125 0,0 -11.546,-11.982 -12.4,-15.26 -0.854,-3.278 -12.41,-22.933 -14.972,-19.533 -2.562,3.4 8.849,18.381 8.849,18.381 z"
       data-name="Pfad 421"
       id="Pfad_421" />
    <g
       opacity="0.1"
       transform="translate(52.357,47.015)"
       data-name="Gruppe 163"
       id="Gruppe_163">
      <path
         transform="translate(-272.18,-444.36)"
         d="m 286.478,519.081 a 6.37,6.37 0 0 0 -2.87,0.414 c -2.014,0.979 -2.394,3.625 -3.513,5.566 a 9.407,9.407 0 0 1 -6.371,4.2 14.248,14.248 0 0 1 -1.544,0.213 17.529,17.529 0 0 0 4.9,-0.213 9.407,9.407 0 0 0 6.371,-4.2 c 1.119,-1.941 1.5,-4.587 3.513,-5.566 a 4.475,4.475 0 0 1 1.678,-0.392 z"
         data-name="Pfad 422"
         id="Pfad_422" />
      <path
         transform="translate(-291.171,-385.521)"
         d="m 325.338,417.332 c 0,-4.447 2.892,-8.279 5.275,-12.032 2.383,-3.753 4.386,-8.491 2.5,-12.519 -1.611,-3.44 -11.322,-8.055 -16.927,-7.143 5.488,0.71 12.25,4.324 13.571,7.143 1.885,4.028 -0.117,8.765 -2.5,12.519 -2.383,3.754 -5.286,7.585 -5.275,12.032 a 52.221,52.221 0 0 1 -1.963,15.612 c -0.453,1.594 3.916,4.005 3.244,5.515 -2.271,5.034 -1.208,10.841 -1.572,16.345 a 6.8,6.8 0 0 1 -0.766,3.088 c -1.119,1.84 -3.412,2.316 -5.644,2.417 h 1.952 c 2.607,0 5.7,-0.2 7.048,-2.433 a 6.8,6.8 0 0 0 0.766,-3.088 c 0.364,-5.5 -0.7,-11.316 1.572,-16.345 0.682,-1.51 -3.7,-3.916 -3.244,-5.515 a 51.6,51.6 0 0 0 1.963,-15.596 z"
         data-name="Pfad 423"
         id="Pfad_423" />
    </g>
    <path
       opacity="0.1"
       transform="translate(-227.728,-349.397)"
       d="m 290.12,412.847 0.923,1.907 8.128,-0.856 0.559,-3.278 -0.313,-0.38 c -0.867,0.425 -7.362,3.552 -9.297,2.607 z"
       data-name="Pfad 424"
       id="Pfad_424" />
    <path
       opacity="0.1"
       transform="translate(-228.094,-349.697)"
       d="m 320.5,434.587 c 0,0 -2,-3.133 -3.138,-2.282 -1.138,0.851 -1.583,-2.568 -2.237,-2 -0.654,0.568 -2.562,2.159 -3.356,-0.061 -0.621,-1.768 -7.378,-12.95 -10.119,-17.447 -0.7,-1.164 -1.147,-1.88 -1.147,-1.88 0,0 -7.7,3.849 -9.549,2.568 v 2.715 l 1.566,0.145 8.387,15.655 c 0,0 2.64,4.2 2.461,5.667 -0.179,1.467 3.384,7.882 3.955,8.307 0.571,0.425 6.713,7.557 6.713,7.557 0,0 3.138,15.4 0.425,19.679 a 29.2,29.2 0 0 1 -7.412,7.412 c 0,0 -1.415,4.134 -1.208,4.565 0.207,0.431 -1.645,2.282 -0.789,2.853 0.856,0.571 2,4.559 2,4.559 0,0 3.994,-6.416 6.153,-7.412 2.159,-0.996 4.923,-14.119 4.923,-14.119 0,0 0.789,-7.731 0.85,-12.72 0.061,-4.989 -0.193,-23.761 1.522,-23.761 z"
       data-name="Pfad 425"
       id="Pfad_425" />
    <path
       fill="#f86d70"
       transform="translate(-227.755,-349.697)"
       d="m 319.726,434.587 c 0,0 -1.991,-3.133 -3.133,-2.282 -1.142,0.851 -1.589,-2.568 -2.238,-2 -0.649,0.568 -2.556,2.159 -3.356,-0.061 -0.626,-1.768 -7.384,-12.95 -10.119,-17.447 l -1.147,-1.88 c 0,0 -7.7,3.849 -9.554,2.568 v 2.715 l 1.572,0.145 8.392,15.655 c 0,0 2.646,4.2 2.461,5.667 -0.185,1.467 3.356,7.882 3.955,8.307 0.599,0.425 6.713,7.557 6.713,7.557 0,0 3.138,15.4 0.431,19.679 a 26.224,26.224 0 0 1 -5.163,5.717 9.979,9.979 0 0 0 -3.356,5.381 2.125,2.125 0 0 0 -0.1,0.895 c 0.207,0.425 -1.645,2.282 -0.789,2.853 0.856,0.571 2.008,4.576 2.008,4.576 0,0 3.994,-6.416 6.153,-7.412 2.159,-0.996 4.928,-14.119 4.928,-14.119 0,0 0.783,-7.731 0.85,-12.72 0.067,-4.989 -0.186,-23.794 1.492,-23.794 z"
       data-name="Pfad 426"
       id="Pfad_426" />
    <path
       opacity="0.1"
       transform="translate(-235.064,-419.443)"
       d="m 307.5,569.21 c 0,0 5.991,1.119 8.391,2.847 2.4,1.728 -9.123,-2.707 -9.123,-2.707 z"
       data-name="Pfad 427"
       id="Pfad_427" />
    <path
       opacity="0.1"
       transform="translate(-246.988,-431.401)"
       d="m 333.83,596.35 c 0,0 6.248,5.208 5.13,9.912 -1.118,4.704 -4.005,16.541 -4.005,16.541 z"
       data-name="Pfad 428"
       id="Pfad_428" />
    <path
       opacity="0.1"
       transform="translate(-197.437,-423.514)"
       d="m 229.633,578.45 c 0,0 -8.8,0.962 -8.234,2.1 0.566,1.138 8.234,-1.052 8.234,-1.052 z"
       data-name="Pfad 429"
       id="Pfad_429" />
    <path
       opacity="0.1"
       transform="translate(-253.715,-455.34)"
       d="m 353.518,653.583 c 0,0 0.559,0.71 -2.707,0 -3.266,-0.71 -0.856,-2.9 -0.856,-2.9 z"
       data-name="Pfad 430"
       id="Pfad_430" />
    <path
       opacity="0.1"
       transform="translate(-250.588,-465.129)"
       d="m 349.272,673.211 c 0,0 -4.475,0.71 -6.875,0 -2.4,-0.71 6.875,0 6.875,0 z"
       data-name="Pfad 431"
       id="Pfad_431" />
    <path
       opacity="0.1"
       transform="translate(-240.078,-495.517)"
       d="m 329.555,742.1 c 0,0 -0.783,-0.856 -4.7,0.71 -3.917,1.566 -5.488,1.639 -6.629,1.119 -1.141,-0.52 11.329,-1.829 11.329,-1.829 z"
       data-name="Pfad 432"
       id="Pfad_432" />
    <path
       opacity="0.1"
       transform="translate(-248.111,-422.558)"
       d="m 341.94,576.28 -5.56,7.736 c 0,0 2.993,-6.774 5.56,-7.736 z"
       data-name="Pfad 433"
       id="Pfad_433" />
    <path
       opacity="0.1"
       transform="translate(-237.602,-366.542)"
       d="m 320.624,449.15 c 0,0 -0.241,2.568 -3.826,3.569 -3.585,1.001 -4.268,1.812 -4.268,1.812"
       data-name="Pfad 434"
       id="Pfad_434" />
    <path
       opacity="0.1"
       transform="translate(-229.019,-351.882)"
       d="m 302.722,415.88 c 0,0 -4.732,3.356 -9.672,2.646"
       data-name="Pfad 435"
       id="Pfad_435" />
    <path
       opacity="0.1"
       transform="translate(-239.475,-406.184)"
       d="m 316.78,542.046 c 0,0 1.382,0.867 4.7,-2.926"
       data-name="Pfad 436"
       id="Pfad_436" />
    <path
       opacity="0.1"
       transform="translate(-263.308,-373.213)"
       d="m 375.065,468.86 a 2.43,2.43 0 0 0 -0.8,-1.88 l -0.929,-1.119 a 4.307,4.307 0 0 0 -0.61,-0.627 c -0.559,-0.431 -1.275,-0.559 -1.857,-0.945"
       data-name="Pfad 437"
       id="Pfad_437" />
  </g>
</svg>
