<?xml version="1.0" encoding="UTF-8" standalone="no"?>
<svg
   xmlns:dc="http://purl.org/dc/elements/1.1/"
   xmlns:cc="http://creativecommons.org/ns#"
   xmlns:rdf="http://www.w3.org/1999/02/22-rdf-syntax-ns#"
   xmlns:svg="http://www.w3.org/2000/svg"
   xmlns="http://www.w3.org/2000/svg"
   xmlns:sodipodi="http://sodipodi.sourceforge.net/DTD/sodipodi-0.dtd"
   xmlns:inkscape="http://www.inkscape.org/namespaces/inkscape"
   inkscape:version="1.0 (4035a4f, 2020-05-01)"
   sodipodi:docname="Illu_support.svg"
   version="1.1"
   viewBox="0 0 454.427 467.027"
   height="467.027"
   width="454.427"
   data-name="Gruppe 107"
   id="Gruppe_107">
  <metadata
     id="metadata1030">
    <rdf:RDF>
      <cc:Work
         rdf:about="">
        <dc:format>image/svg+xml</dc:format>
        <dc:type
           rdf:resource="http://purl.org/dc/dcmitype/StillImage" />
      </cc:Work>
    </rdf:RDF>
  </metadata>
  <sodipodi:namedview
     inkscape:current-layer="Gruppe_107"
     inkscape:window-maximized="1"
     inkscape:window-y="23"
     inkscape:window-x="0"
     inkscape:cy="233.5135"
     inkscape:cx="227.2135"
     inkscape:zoom="1.5737848"
     showgrid="false"
     id="namedview1028"
     inkscape:window-height="1322"
     inkscape:window-width="2560"
     inkscape:pageshadow="2"
     inkscape:pageopacity="0"
     guidetolerance="10"
     gridtolerance="10"
     objecttolerance="10"
     borderopacity="1"
     bordercolor="#666666"
     pagecolor="#ffffff" />
  <defs
     id="defs978">
    <style
       id="style976">
      .cls-1 {
        fill: #fff;
      }

      .cls-2 {
        fill: #3f3d56;
      }

      .cls-3 {
        opacity: 0.1;
      }

      .cls-4 {
        fill: #eb7260;
      }

      .cls-5 {
        fill: #3e3e3e;
      }

      .cls-6 {
        fill: #f2f2f2;
      }

      .cls-7 {
        fill: #3a9ad9;
      }

      .cls-8 {
        fill: #529059;
      }

      .cls-9 {
        fill: none;
      }

      .cls-10 {
        fill: #ffb9b9;
      }

      .cls-11 {
        fill: #2480bc;
      }

      .cls-12 {
        fill: #2d2c2c;
      }

      .cls-13 {
        fill: #433107;
      }
    </style>
  </defs>
  <circle
     id="Ellipse_21"
     data-name="Ellipse 21"
     class="cls-1"
     cx="244.743"
     cy="209.57399"
     r="199.37" />
  <ellipse
     style="fill:#657786;fill-opacity:1"
     id="Ellipse_22"
     data-name="Ellipse 22"
     class="cls-2"
     cx="235.32399"
     cy="408.15799"
     rx="218.993"
     ry="11.774" />
  <ellipse
     id="Ellipse_23"
     data-name="Ellipse 23"
     class="cls-3"
     cx="191.36801"
     cy="408.564"
     rx="164.048"
     ry="8.1199999" />
  <ellipse
     style="fill:#657786;fill-opacity:1"
     id="Ellipse_26"
     data-name="Ellipse 26"
     class="cls-2"
     cx="314.677"
     cy="459.96301"
     rx="139.75"
     ry="7.0640001" />
  <ellipse
     style="fill:#657786;fill-opacity:1"
     id="Ellipse_27"
     data-name="Ellipse 27"
     class="cls-2"
     cx="67.427002"
     cy="436.41501"
     rx="67.427002"
     ry="3.408" />
  <circle
     id="Ellipse_20"
     data-name="Ellipse 20"
     class="cls-4"
     cx="108.166"
     cy="76.137001"
     r="76.137001" />
  <rect
     id="Rechteck_46"
     data-name="Rechteck 46"
     class="cls-5"
     width="274.72198"
     height="190.73599"
     x="50.867001"
     y="217.423" />
  <rect
     id="Rechteck_47"
     data-name="Rechteck 47"
     class="cls-6"
     width="36.105999"
     height="36.105999"
     x="72.845001"
     y="236.261" />
  <rect
     id="Rechteck_48"
     data-name="Rechteck 48"
     class="cls-7"
     width="36.105999"
     height="36.105999"
     x="72.845001"
     y="295.13" />
  <rect
     id="Rechteck_49"
     data-name="Rechteck 49"
     class="cls-6"
     width="36.105999"
     height="36.105999"
     x="72.845001"
     y="353.99899" />
  <rect
     id="Rechteck_50"
     data-name="Rechteck 50"
     class="cls-6"
     width="171.897"
     height="3.1400001"
     x="126.22"
     y="247.642" />
  <rect
     id="Rechteck_51"
     data-name="Rechteck 51"
     class="cls-6"
     width="53.375"
     height="3.1400001"
     x="126.22"
     y="257.84601" />
  <rect
     id="Rechteck_52"
     data-name="Rechteck 52"
     class="cls-6"
     width="171.897"
     height="3.1400001"
     x="126.22"
     y="306.51099" />
  <rect
     id="Rechteck_53"
     data-name="Rechteck 53"
     class="cls-6"
     width="53.375"
     height="3.1400001"
     x="126.22"
     y="316.715" />
  <rect
     id="Rechteck_54"
     data-name="Rechteck 54"
     class="cls-6"
     width="171.897"
     height="3.1400001"
     x="126.22"
     y="365.38" />
  <rect
     id="Rechteck_55"
     data-name="Rechteck 55"
     class="cls-6"
     width="53.375"
     height="3.1400001"
     x="126.22"
     y="375.58401" />
  <path
     style="fill:#92b06a;fill-opacity:1"
     id="Pfad_245"
     data-name="Pfad 245"
     class="cls-8"
     d="m 88.544,415.954 c 0,15.978 -9.5,21.557 -21.215,21.557 -0.271,0 -0.543,0 -0.812,-0.01 -0.543,-0.012 -1.082,-0.037 -1.613,-0.074 -10.575,-0.748 -18.79,-6.613 -18.79,-21.473 0,-15.375 19.647,-34.778 21.127,-36.217 v 0 c 0.057,-0.057 0.086,-0.084 0.086,-0.084 0,0 21.217,20.325 21.217,36.301 z" />
  <path
     id="Pfad_246"
     data-name="Pfad 246"
     class="cls-2"
     d="m 66.555,435.066 7.76,-10.841 -7.779,12.032 -0.02,1.244 c -0.543,-0.012 -1.082,-0.037 -1.613,-0.074 l 0.836,-15.984 -0.006,-0.125 0.014,-0.021 0.08,-1.511 -7.8,-12.061 7.822,10.929 0.02,0.32 0.631,-12.077 -6.676,-12.463 6.758,10.345 0.658,-25.04 v -0.086 0.084 l -0.109,19.745 6.647,-7.828 -6.674,9.529 -0.176,10.813 6.207,-10.378 -6.233,11.968 -0.1,6.012 9.007,-14.445 -9.042,16.542 z" />
  <g
     transform="translate(180.062 0)"
     data-name="Dude member"
     id="Dude_member">
    <rect
       transform="translate(0 0)"
       height="427.542"
       width="213.35"
       class="cls-9"
       data-name="Rechteck 12"
       id="Rechteck_12" />
    <g
       transform="translate(112.623 64.594)"
       data-name="Gruppe 5"
       id="Gruppe_5">
      <path
         transform="translate(-527.968 -192.698)"
         d="M527.968,195.333s4.4,15.156,1.888,19.768,4.4,14.5,15.726,9.884,11.952-9.884,11.952-9.884-4.4-7.248-5.661-22.4Z"
         class="cls-10"
         data-name="Pfad 17"
         id="Pfad_17" />
    </g>
    <g
       transform="translate(39.908 215.159)"
       data-name="Gruppe 6"
       id="Gruppe_6">
      <path
         transform="translate(-420.096 -405.924)"
         d="M435.255,406.583s-22.645,11.861-12.58,27.675c5.85,9.192,17.013,27.067,25.337,40.425a137.959,137.959,0,0,1,15.852,36.2l1.586,5.738,6.291,7.906,13.209-15.814s-19.5-37.56-19.5-44.807S449.723,433.6,449.723,433.6l15.726-10.543S447.835,401.971,435.255,406.583Z"
         class="cls-10"
         data-name="Pfad 18"
         id="Pfad_18" />
    </g>
    <g
       transform="translate(124.261 252.845)"
       data-name="Gruppe 7"
       id="Gruppe_7">
      <path
         transform="translate(-545.232 -459.293)"
         d="M549.635,463.121s.629,18.451,1.258,25.7c.519,5.979-4.528,22.723-2.778,41.35a183.365,183.365,0,0,1-.381,36.209l-2.5,23.916,18.871,1.977,6.291-54.032s3.774-38.218,1.887-50.738l.629-26.357S559.071,455.873,549.635,463.121Z"
         class="cls-10"
         data-name="Pfad 19"
         id="Pfad_19" />
    </g>
    <g
       transform="translate(50.349 173.976)"
       data-name="Gruppe 8"
       id="Gruppe_8">
      <path
         transform="translate(-435.585 -347.602)"
         d="M480.247,353.533s-44.032,29.652-44.662,38.877c0,0,25.162-2.636,25.79,20.427,0,0,15.1-5.931,18.871-7.248s23.9-15.156,23.9-15.156,8.177,6.59,8.177,17.132-.629,28.993,0,30.311,15.1-17.792,27.049-1.318l8.177-45.466s2.516-27.676-2.516-29.652L509.811,347.6Z"
         class="cls-11"
         data-name="Pfad 20"
         id="Pfad_20" />
    </g>
    <g
       transform="translate(102.873 35.929)"
       data-name="Gruppe 9"
       id="Gruppe_9">
      <ellipse
         ry="19.768"
         rx="18.871"
         cy="19.768"
         cx="18.871"
         class="cls-10"
         data-name="Ellipse 1"
         id="Ellipse_1" />
    </g>
    <g
       transform="translate(84.488 85)"
       data-name="Gruppe 10"
       id="Gruppe_10">
      <path
         transform="translate(-486.23 -221.596)"
         d="M518.769,226.888s21.285,5.889,24.167-5.292c0,0,26.156,5.292,30.559,23.083S562.8,305.3,562.8,306.62s12.58,9.225,6.919,13.178-10.694-.659-8.177,4.612,6.919,6.59,3.145,7.907-26.419-19.109-44.032-13.838-26.42,1.318-26.42,1.318l-7.9-71.5a16.93,16.93,0,0,1,5.606-14.659c3.942-3.4,9.172-7.071,14.243-8.067,10.065-1.977,10.483-3.059,10.483-3.059Z"
         class="cls-5"
         data-name="Pfad 21"
         id="Pfad_21" />
    </g>
    <g
       transform="translate(96.897 205.605)"
       data-name="Gruppe 11"
       id="Gruppe_11">
      <path
         transform="translate(-504.639 -392.394)"
         d="M504.639,392.394S510.3,426,517.849,421.387s-1.887-28.993-1.887-28.993Z"
         class="cls-10"
         data-name="Pfad 22"
         id="Pfad_22" />
    </g>
    <g
       transform="translate(118.477 209.955)"
       data-name="Gruppe 12"
       id="Gruppe_12">
      <path
         transform="translate(-536.652 -398.553)"
         d="M541.35,398.553s-9.809,32.541-1.081,32.106,11.121-26.624,11.121-26.624Z"
         class="cls-10"
         data-name="Pfad 23"
         id="Pfad_23" />
    </g>
    <g
       transform="translate(63.818 313.473)"
       data-name="Gruppe 13"
       id="Gruppe_13">
      <path
         transform="translate(-455.567 -545.152)"
         d="M480.154,556.223s-4.4-5.271-6.919,1.977-9.435,16.473-9.435,16.473-15.1,17.791-4.4,18.45,25.791-15.814,25.791-15.814L502.8,560.176s-5.838-14.892-8.58-15.024S492.106,562.812,480.154,556.223Z"
         class="cls-12"
         data-name="Pfad 24"
         id="Pfad_24" />
    </g>
    <g
       transform="translate(112.801 374.971)"
       data-name="Gruppe 14"
       id="Gruppe_14">
      <path
         transform="translate(-528.232 -632.244)"
         d="M544.724,636.508s-4.433,1.355-4.1-4.264c0,0-16.026,8.877-11.623,15.466s9.436,13.179,9.436,13.179,23.274,13.837,25.161,10.542,1.888-9.884.629-12.52-7.548-7.249-5.661-11.2-.629-14.5-3.774-14.5S544.724,636.508,544.724,636.508Z"
         class="cls-12"
         data-name="Pfad 25"
         id="Pfad_25" />
    </g>
    <g
       transform="translate(100.779 27.873)"
       data-name="Gruppe 15"
       id="Gruppe_15">
      <path
         transform="translate(-510.398 -140.694)"
         d="M514.895,151.77s6.07-13.779,17.706-10.6,18.212,7.949,18.718,12.718a71.282,71.282,0,0,1-.253,11.924s-1.265-9.8-9.358-7.684-20.742.53-20.742.53l-2.023,19.078s-2.276-3.445-4.805-1.325S506.8,156.009,514.895,151.77Z"
         class="cls-13"
         data-name="Pfad 26"
         id="Pfad_26" />
    </g>
    <g
       transform="translate(119.837 103.653)"
       data-name="Gruppe 16"
       id="Gruppe_16">
      <path
         transform="translate(-538.67 -248.013)"
         d="M579.891,251.784s-15.1,42.831-13.839,48.1,0,5.93-1.887,7.248-6.919,15.156-6.919,15.156-3.145,7.907-5.661,9.884-2.516,7.248-2.516,7.248-6.291,6.589-5.032,7.907,1.258,3.295-1.259,5.271-5.032,4.612-3.774,5.271,10.065,7.907,12.581,7.248-1.259-3.295,1.887-4.612,5.032-3.295,3.774-3.954-5.032-.659-1.258-1.977,16.984-9.884,21.387-20.427,25.5-74.33,12.751-83.29C590.126,250.86,584.924,243.876,579.891,251.784Z"
         class="cls-5"
         data-name="Pfad 27"
         id="Pfad_27" />
    </g>
    <g
       transform="translate(79.529 100.176)"
       data-name="Gruppe 17"
       id="Gruppe_17">
      <path
         transform="translate(-478.873 -243.088)"
         d="M490.58,243.088l-.255.112a16.446,16.446,0,0,0-9.411,11.932c-1.373,6.887-2.725,16.848-1.656,26.176,1.887,16.473,3.145,23.722,5.661,28.993s3.145,3.295,2.516,7.248-3.774.659-.629,5.93,5.032,3.954,3.774,6.59-3.145,2.635-.629,5.93a18.707,18.707,0,0,1,3.145,5.931c.629,1.318,2.516,11.2,2.516,11.2s10.065-3.294,15.726-1.977c0,0-5.032-9.225-3.774-11.2s3.145-2.635,1.259-4.612-5.033-1.318-1.887-3.295-2.516-22.4-2.516-22.4Z"
         class="cls-5"
         data-name="Pfad 28"
         id="Pfad_28" />
    </g>
  </g>
</svg>
