<svg xmlns="http://www.w3.org/2000/svg" xmlns:xlink="http://www.w3.org/1999/xlink" width="535.003" height="340.502" viewBox="0 0 535.003 340.502">
  <defs>
    <linearGradient id="linear-gradient" x1="0.5" y1="1" x2="0.5" gradientUnits="objectBoundingBox">
      <stop offset="0" stop-color="gray" stop-opacity="0.251"/>
      <stop offset="0.54" stop-color="gray" stop-opacity="0.122"/>
      <stop offset="1" stop-color="gray" stop-opacity="0.102"/>
    </linearGradient>
    <linearGradient id="linear-gradient-2" x1="0" y1="0.5" x2="1" y2="0.5" xlink:href="#linear-gradient"/>
  </defs>
  <g id="success_illu" data-name="success illu" transform="translate(-172.98 -72.517)">
    <g id="BG" transform="translate(172.98 106.611)">
      <path id="Pfad_441" data-name="Pfad 441" d="M350.177,362.633c10.335-.589,23.158-7.6,33.128-10.7q17.7-5.49,35.542-10.564Q480.955,323.7,544.4,311.252q5.921-1.164,11.86-2.273A83.949,83.949,0,0,0,528.543,275.7a85.139,85.139,0,0,0,.468-8.782c0-46.363-37.052-83.948-82.774-83.948a81.455,81.455,0,0,0-40.171,10.546c-32.361-21.287-74.6-34.171-120.813-34.171-65.668,0-123.315,26.015-155.98,65.191l153.521,25.936,94.157,15.9c-107.34,3.2-215.012,6.388-322.043-1.132A84.841,84.841,0,0,0,42.691,372.327h0c0,1.679.07,3.344.2,4.994,2.726.781,5.359,1.539,7.721,2.034Q107.48,391.37,165.08,399.465c-28.3,17.448-62.759,19.917-95.4,27.306,15.807,13.047,37.272,21.044,60.926,21.044H482.8c38.137,0,69.049-26.549,69.049-59.3h0A84.264,84.264,0,0,0,563.075,357.7C492.506,364.513,421.059,358.6,350.177,362.633Z" transform="translate(-28.554 -158.451)" fill="#37af4e" opacity="0.1"/>
      <path id="Pfad_442" data-name="Pfad 442" d="M562.982,342.737A84.177,84.177,0,0,0,527.44,273.8a86.372,86.372,0,0,0,.468-8.778c0-46.363-37.071-83.934-82.774-83.934a81.5,81.5,0,0,0-40.176,10.541c-32.361-21.3-74.6-34.185-120.818-34.185-75.17,0-139.874,34.115-168.569,83.036-1.595-.094-3.2-.145-4.817-.145-45.708,0-82.774,37.585-82.774,83.948A84.425,84.425,0,0,0,41.6,370.422h0c0,41.715,39.372,75.53,87.918,75.53H481.723c38.132,0,69.044-26.553,69.044-59.307h0a84.42,84.42,0,0,0,12.215-43.908Z" transform="translate(-27.98 -157.44)" fill="#73c668" opacity="0.1"/>
    </g>
    <g id="dude" transform="translate(438.837 72.517)">
      <path id="Pfad_350" data-name="Pfad 350" d="M850.131,347.885a6.231,6.231,0,0,0-2.73-1.2c-1.046-.241-2.115-.392-3.177-.559l-13.772-1.986a16.221,16.221,0,0,0-4.218-.224,5.353,5.353,0,0,0-3.67,1.9,2.859,2.859,0,0,0-.638,1.79,4.722,4.722,0,0,0,.627,1.857,6.217,6.217,0,0,1,.341.822,18.821,18.821,0,0,0,.492,1.874,1.589,1.589,0,0,0,.235.369.619.619,0,0,1,0,.1c-.151.772.336,1.577.117,2.321-.19.638-.811,1.024-1.2,1.555a2.338,2.338,0,0,0-.056,2.579c.419.649,1.18,1.091,1.4,1.835.285.979-.487,1.924-1.175,2.679a41.532,41.532,0,0,0-3.5,4.414,2.736,2.736,0,0,0-.559,1.315c-.062.973.873,1.829.71,2.8-.129.761-.873,1.225-1.516,1.678a9.433,9.433,0,0,0-4.475,6.931,24.277,24.277,0,0,0-5.415-12.306,8.8,8.8,0,0,1-2.008-3.149c-.123-.487-.146-1.007-.313-1.477-.559-1.482-2.338-2.12-3.116-3.485-.559-.962-.559-2.2-1.253-3.043s-1.784-1.035-2.383-1.852a11.835,11.835,0,0,1-.761-1.723,3.766,3.766,0,0,0-1.035-1.242,3.028,3.028,0,0,0-.257-.185.889.889,0,0,0,.3-.66c0-.655-.649-1.085-1.214-1.41-.727-.414-1.438-.861-2.131-1.326a4.983,4.983,0,0,0,1.907-1.561,5.13,5.13,0,0,0,.727-3.356,4.234,4.234,0,0,0-1-2.568c-.352-.375-.794-.643-1.164-1a8.163,8.163,0,0,1-1.678-3.591,7.307,7.307,0,0,0-2.881-4.33c-.738-.431-1.6-.632-2.321-1.085a2.026,2.026,0,0,1-1.074-2.131c.168-.559.688-.945,1.04-1.421a2.831,2.831,0,0,0-.71-3.916c-.414-.263-.923-.492-1.007-.973a1.779,1.779,0,0,1-1.3-1.376,5.3,5.3,0,0,1,0-1.991q.218-1.561.431-3.11a2.025,2.025,0,0,0,1.555,0,13.687,13.687,0,0,0,1.678,2.193,21.908,21.908,0,0,1,3.916,6.8,4.093,4.093,0,0,0,1.471,2.372c.285.162.61.246.889.42a3.322,3.322,0,0,1,.873.895c.671.889,1.342,1.773,2.008,2.663l.033.134a.788.788,0,0,0,.09.224.744.744,0,0,0,.481.246c2.059.475,4.369.912,6.153-.213,1.611-1.007,2.316-3,3.681-4.33.968-.945,2.338-1.678,2.612-3.009a9.907,9.907,0,0,1-.962-.352c.28-.28.559-.6.94-.973a11.841,11.841,0,0,0,1.488-1.773,11.424,11.424,0,0,0,1.119-2.506q1.617-4.609,3.245-9.224c.515-1.454,1.029-2.92,1.678-4.335.671-1.533,1.466-3,2.2-4.509a59.85,59.85,0,0,0,4.352-12.25,4.474,4.474,0,0,0,.173-1.784,4.7,4.7,0,0,0-1.589-2.417,11.66,11.66,0,0,0-2.383-1.975,3.915,3.915,0,0,0-2.987-.481,4.315,4.315,0,0,0-2.663,3.356,35.21,35.21,0,0,0-.347,4.475c-.2,2.154-.94,4.234-1.119,6.394-.1,1.247,0,2.512-.151,3.759A13.718,13.718,0,0,1,811.5,304.9a29.983,29.983,0,0,1-7.233,8.917c-.341.285-.694.559-1.029.867a5.336,5.336,0,0,1,.073-.727,4.388,4.388,0,0,0-.71.252,2.13,2.13,0,0,0-.084-.839c-.448-1.337-2.439-1.678-2.8-3.037a6.21,6.21,0,0,1-.1-1.018c-.118-1.191-.929-2.2-1.208-3.356-.257-1.068-.062-2.238-.559-3.228a9.024,9.024,0,0,0-1.488-1.678,6.584,6.584,0,0,1-1.415-2.668c-.073-.274-.14-.559-.218-.833a3.816,3.816,0,0,0-.2-1.84c-.509-1.264-1.824-2.075-2.3-3.356-.369-1-.207-2.238-.906-3.009a3.273,3.273,0,0,0-1.326-.8,29.5,29.5,0,0,0-7.982-1.885c-1.533-.14-3.222-.218-4.318-1.3-1.281-1.253-1.343-3.507-2.842-4.475-1.32-.856-3.188-.224-4.212.979a5.33,5.33,0,0,0-.425.559,5.985,5.985,0,0,1-.117-2.293c0-.19.039-.386.056-.559a11.188,11.188,0,0,0,6.064-4.788v.034l.067.173c.162.408.419.8.8.845h0a1.119,1.119,0,0,0,.694-.252,5.738,5.738,0,0,0,.929-.805q.213-.235.4-.487a6.333,6.333,0,0,0,.66-1.119,6.65,6.65,0,0,0,.559-1.874c.1-.649.112-1.315.224-1.963a12.109,12.109,0,0,1,.408-1.482c.056-.162.112-.324.162-.487s.123-.38.179-.559a12.959,12.959,0,0,0,.559-3.546v-.6a5.9,5.9,0,0,0-1.88-4.167c-.962-.789-2.237-1.119-2.942-2.187a10.413,10.413,0,0,1-.828-2.478,5.594,5.594,0,0,0-4.4-3.955,4.895,4.895,0,0,0-3.479.957h0l-.078.061h0a5.6,5.6,0,0,0-1.387,1.544,4.615,4.615,0,0,1-1.969-1.119c-.559-.52-.99-1.175-1.555-1.678a4,4,0,0,0-3.983-.839,4.76,4.76,0,0,0-2.847,3.261c-.308,1.152-.252,2.478-.9,3.44-.5.75-1.315,1.119-1.885,1.8a3.39,3.39,0,0,0-.7,1.494h0a4.05,4.05,0,0,0-.1.934h0a1.7,1.7,0,0,0,.034.414v.067a2.95,2.95,0,0,0,.1.453h0a3.914,3.914,0,0,0,.833,1.533,3.681,3.681,0,0,0,1.348.973,5.458,5.458,0,0,0,.649.207l.666.151.235.056a11.154,11.154,0,0,0-.313,9.851,4.5,4.5,0,0,1-.056.47,38.683,38.683,0,0,0,.291,6.6,3.539,3.539,0,0,1-.408,2.512,4.764,4.764,0,0,1-.811.722c.3-.392.61-.778.923-1.164a3.989,3.989,0,0,0-3.155-.817,14.617,14.617,0,0,0-6.153,1.88c-1.253.722-2.54,1.678-3.972,1.51-.845-.1-1.678-.559-2.5-.336a5.069,5.069,0,0,0-1.281.761,1.734,1.734,0,0,1-1.052.324,22.706,22.706,0,0,0-3.289-2.691,25.915,25.915,0,0,1-3.272-3.507c-1.812-2.187-3.619-4.38-5.4-6.589-1.5-1.857-3.037-3.865-3.3-6.243a6.113,6.113,0,0,1-.039-.71,18.077,18.077,0,0,1,.425-3.356,1.679,1.679,0,0,0,0-.811c-.168-.559-.811-.766-1.365-.889h0c.073-.431.123-.873.151-1.292.313-4.811-.028-9.7.99-14.41a9.8,9.8,0,0,1,2.321-4.962c2.042-2.064,5.46-2.562,7.026-5.006a5.71,5.71,0,0,0-.856-6.713,8.472,8.472,0,0,0-6.59-2.439,3.4,3.4,0,0,0-1.919.515,4.077,4.077,0,0,0-1.164,1.768l-2.4,5.834a35.29,35.29,0,0,0-1.756,4.688c-.671,2.45-.822,5.034-1.354,7.507,0,1.9-1.225,4.274-1.9,6.025-.75,1.969-1.561,3.916-2.238,5.924-.168.5-.755,2-1.119,3.356a2.048,2.048,0,0,0-.38.285,10.127,10.127,0,0,0-.794,1.18c-.509.671-1.337,1.029-1.9,1.678s-.677,1.84.1,2.165a2.281,2.281,0,0,0,.487.106,1.588,1.588,0,0,1,1.348,2.215c-.123.873-.559,1.678-.632,2.551-.151,1.544.755,2.982,1.628,4.279a36.882,36.882,0,0,0,2.987,4.022c.789.884,1.678,1.678,2.472,2.528,3.026,3.11,5.432,6.746,8.15,10.125a22.451,22.451,0,0,0,3.317,3.479,24.98,24.98,0,0,0,2.512,1.728l4.676,2.965a5.124,5.124,0,0,0,1.768.833,2.351,2.351,0,0,0,.627,0c.028.14.05.274.084.414.364,1.466,1.164,2.8,1.253,4.29s-.045,3.021.062,4.531c.1,1.393.408,2.8.487,4.167a26.782,26.782,0,0,1-1.119,7.831c-.945,3.781-1.516,7.641-3.356,11.07a6.509,6.509,0,0,0-1.119,2.987,1.548,1.548,0,0,0,.034.392h0l-.839.475c-.246.14-.492.28-.716.425a5.987,5.987,0,0,0-2.635,2.657c-.352.968-.19,2.075-.615,3.015a1.336,1.336,0,0,1-.067.123c-.448.873-1.337,1.522-1.538,2.478h0c-.151.733.14,1.51,0,2.238v.028a8.111,8.111,0,0,0-.3,1.119,1.334,1.334,0,0,0,.034.369,2.131,2.131,0,0,0,.671,1.091,4.473,4.473,0,0,0,.655.52q.358.235.738.436l.145.078c.213.112.425.218.643.319l.145.062c.252.112.509.213.766.3l.179.056c.2.067.408.129.615.179l.14.045.129.028.559.117.207.039q.369.062.755.1h.224c.19,0,.375.028.559.034h1.024a6.271,6.271,0,0,0,.789-.073h.084c.235-.034.47-.073.7-.123l.179-.039c.218-.05.436-.1.654-.168l.117-.034c.263-.078.526-.162.783-.263a20.56,20.56,0,0,0,2.584-1.281c.559-.308,1.119-.621,1.678-.906a13.027,13.027,0,0,1,1.275-.559,7.2,7.2,0,0,1,3.356-.559,13.141,13.141,0,0,1,1.678.341v.185q.683,4.028,1.348,8.055a16.4,16.4,0,0,1,2.316-1.393,5.149,5.149,0,0,0-.3,1.259,4.99,4.99,0,0,0,0,1,2.173,2.173,0,0,1-.157,1.538c-.2.257-.559.4-.666.694a2.368,2.368,0,0,0-.056.912,1.454,1.454,0,0,1-1.331,1.354,2.126,2.126,0,0,1-.845,2.495,2.956,2.956,0,0,0-.649.425,1.936,1.936,0,0,0-.375.845,14.948,14.948,0,0,1-4.38,7.2,14.085,14.085,0,0,0-2.165,2.114,9.617,9.617,0,0,0-.979,1.93q-2.238,5.471-4.542,10.947a24.291,24.291,0,0,0-1.947,6.315c-.671,6.03-6.041,11.143-5.034,17.128a8.391,8.391,0,0,0,1.745,4.089,10.294,10.294,0,0,0,4.475,2.747,81.471,81.471,0,0,0,13.392,3.518l7.115,1.46a31.1,31.1,0,0,0,4.24.671,27.751,27.751,0,0,1,5.152.392,15.992,15.992,0,0,0,3.093.822c.917.05,2.047-.145,2.59.6s.123,1.74.638,2.405c.828,1.057,2.847,0,3.748,1a4.64,4.64,0,0,1,.559,1.236,2.238,2.238,0,0,0,.559.7,4.725,4.725,0,0,1,.067.957,16.489,16.489,0,0,1-.806,3.815q-1.007,3.407-2.008,6.819a15.093,15.093,0,0,0-.559,2.461,5.909,5.909,0,0,0,0,1.219,3.349,3.349,0,0,0,2.008,2.914,3.68,3.68,0,0,0,2.719-.336,12.015,12.015,0,0,0,2.238-1.51,15.28,15.28,0,0,0,3.228-3.323c2.8-4.184,1.891-9.845,3.854-14.471,1.3-3.088,3.843-5.594,4.688-8.849a3.539,3.539,0,0,0,.067-1.913,3.964,3.964,0,0,0-2.657-2.159h-.05a22.935,22.935,0,0,0-2.8-.8c-.235-.05-.475-.089-.716-.129a4.391,4.391,0,0,1-1.236-1.611,3.752,3.752,0,0,0-.263-.968,1.007,1.007,0,0,0-.805-.447c-.559-.056-1.309.145-1.919.1-1.247-.089-2.075-1.315-3.194-1.88a6.523,6.523,0,0,0-3.524-.341,3.261,3.261,0,0,1-1.275-.078,4.794,4.794,0,0,1-1.343-.923,5.627,5.627,0,0,0-4.928-.99,5.371,5.371,0,0,1-1.678.38c-1.091-.062-1.863-1.035-2.668-1.773-2.2-2.019-5.342-2.551-8.016-3.876a1.829,1.829,0,0,1-.962-.828c-.308-.761.386-1.521,1.013-2.042l4.6-3.821c5.034-4.184,11.327-7.333,13.666-13.47a7.789,7.789,0,0,1,1.119-2.3,3.123,3.123,0,0,1,.621-.559,4.7,4.7,0,0,1,3.44-.671,11.619,11.619,0,0,1,4.05,1.768q3,1.818,5.846,3.916a51.723,51.723,0,0,1,5.342,4.386c2.937,2.8,5.381,6.114,8.117,9.129s5.862,5.829,9.661,7.272,8.391,1.382,11.652-1.04c3.765-2.8,4.973-7.8,5.924-12.385,2.1-2.025,2.73-5.107,3.753-7.831.643-1.729,1.466-3.356,2.159-5.079.828-2.025,1.477-4.117,2.126-6.2a29.832,29.832,0,0,0,1.488-6.472c.269-3.485-.666-7.194.313-10.466a38.6,38.6,0,0,0,3.737-1.438,18.515,18.515,0,0,1,5.918-.509h.129a3.054,3.054,0,0,0,1.969-.464,3.135,3.135,0,0,0,.811-2.383C851.87,351.677,851.736,349.272,850.131,347.885Zm-81.049-95.419a4.155,4.155,0,0,1-1.415.1Z" transform="translate(-707.748 -226.257)" fill="url(#linear-gradient)"/>
      <path id="Pfad_351" data-name="Pfad 351" d="M805.006,323.556a6.152,6.152,0,0,1-2.327,1.236l-3.966,1.421c-2.154.772-4.4,1.549-6.673,1.27-1.27-.157-6.713-.957-7.535-1.947-1.253-1.533,3.138-3.787,4.637-5.079a6.34,6.34,0,0,0,.94-.828,3.373,3.373,0,0,0,.408-2.5,38.59,38.59,0,0,1-.291-6.584,13.291,13.291,0,0,1,.224-1.561c.559-2.573,2.953-1.633,4.844-.951a37.879,37.879,0,0,1,6.573,2.847,4.715,4.715,0,0,1,1.622,1.376c.828,1.253.5,2.9.364,4.475a4.192,4.192,0,0,0,.654,3.289,8.471,8.471,0,0,1,1.057,1.119A2.1,2.1,0,0,1,805.006,323.556Z" transform="translate(-741.469 -261.961)" fill="#be6f72"/>
      <path id="Pfad_352" data-name="Pfad 352" d="M719.04,248.388c.559-2.478.682-5.034,1.354-7.49a35.056,35.056,0,0,1,1.756-4.671l2.467-5.756a4.061,4.061,0,0,1,1.163-1.762,3.446,3.446,0,0,1,1.919-.515,8.548,8.548,0,0,1,6.589,2.433,5.648,5.648,0,0,1,.856,6.673c-1.566,2.445-4.984,2.937-7.026,5a9.781,9.781,0,0,0-2.321,4.951c-1.018,4.7-.677,9.571-.99,14.37-.1,1.494-.392,3.2-1.678,3.972a4.895,4.895,0,0,1-2.506.487l-3.669.062c-.615,0-2.847.386-3.256-.078-.716-.811.917-4.85,1.214-5.75.66-2,1.471-3.944,2.237-5.907C717.815,252.65,719.04,250.284,719.04,248.388Z" transform="translate(-710.288 -227.107)" fill="#be6f72"/>
      <path id="Pfad_353" data-name="Pfad 353" d="M844.059,574.487c-.845,3.233-3.384,5.75-4.688,8.833-1.963,4.615-1.08,10.259-3.854,14.432a15.248,15.248,0,0,1-3.228,3.328,11.987,11.987,0,0,1-2.238,1.5,3.681,3.681,0,0,1-2.719.336,3.348,3.348,0,0,1-2.008-2.909,5.864,5.864,0,0,1,0-1.214,15.039,15.039,0,0,1,.559-2.456q1.007-3.4,2.008-6.8a16.471,16.471,0,0,0,.806-3.8c.073-1.41-.822-3.244-.442-4.559.173-.593.822-1.119,1.119-1.617a9.359,9.359,0,0,0,.962-2.288,14.222,14.222,0,0,1,1.734-4.542,10.659,10.659,0,0,1,2.182-2.042,5.785,5.785,0,0,1,2.081-1.169,5.1,5.1,0,0,1,2.238.106,21.976,21.976,0,0,1,2.8.794h.05a3.916,3.916,0,0,1,2.657,2.154A3.518,3.518,0,0,1,844.059,574.487Z" transform="translate(-759.539 -377.471)" fill="#3f3d56"/>
      <path id="Pfad_354" data-name="Pfad 354" d="M941.707,447.731a3.1,3.1,0,0,1-.811,2.377,3.053,3.053,0,0,1-1.969.464h-.151a18.854,18.854,0,0,0-5.918.509c-1.437.475-2.758,1.348-4.257,1.522-2.064.235-4.005-.9-5.834-1.88a58.051,58.051,0,0,0-5.3-2.517c-1.186-.487-3.608-.8-4.179-2.1a19.115,19.115,0,0,1-.492-1.868,6.2,6.2,0,0,0-.341-.822,4.728,4.728,0,0,1-.626-1.852,2.859,2.859,0,0,1,.638-1.79,5.365,5.365,0,0,1,3.664-1.885,16.224,16.224,0,0,1,4.218.224l13.772,1.98c1.063.151,2.131.3,3.177.559a6.231,6.231,0,0,1,2.73,1.2C941.656,443.217,941.79,445.617,941.707,447.731Z" transform="translate(-797.668 -319.486)" fill="#3f3d56"/>
      <path id="Pfad_355" data-name="Pfad 355" d="M856.742,455.107c-1.678,3.541-.47,7.731-.772,11.646a29.689,29.689,0,0,1-1.488,6.455c-.649,2.081-1.3,4.167-2.126,6.187-.694,1.678-1.516,3.356-2.159,5.068-1.024,2.73-1.678,5.8-3.753,7.831-.951,4.576-2.159,9.577-5.924,12.351-3.272,2.417-7.831,2.5-11.652,1.04s-6.925-4.257-9.661-7.272-5.18-6.3-8.117-9.107a50.9,50.9,0,0,0-5.353-4.38q-2.842-2.064-5.846-3.882a11.708,11.708,0,0,0-4.05-1.762,4.7,4.7,0,0,0-3.44.671,3.121,3.121,0,0,0-.621.559,7.7,7.7,0,0,0-1.119,2.293c-2.349,6.12-8.654,9.263-13.688,13.436l-4.6,3.809c-.626.52-1.32,1.281-1.012,2.036a1.829,1.829,0,0,0,.962.828c2.674,1.32,5.812,1.852,8.016,3.865.805.738,1.577,1.712,2.668,1.768a5.358,5.358,0,0,0,1.678-.375,5.644,5.644,0,0,1,4.928.984,4.791,4.791,0,0,0,1.343.923,3.26,3.26,0,0,0,1.275.078,6.809,6.809,0,0,1,3.524.341c1.068.531,1.947,1.784,3.194,1.874.61.045,1.337-.157,1.919-.1a1.007,1.007,0,0,1,.806.448,3.709,3.709,0,0,1,.263.962c.229.789,1,1.27,1.5,1.919a5.3,5.3,0,0,1,.806,3.608,15.4,15.4,0,0,1-4.9,10.3,6.064,6.064,0,0,1-3.015,1.678,2.8,2.8,0,0,1-2.987-1.326,4.6,4.6,0,0,0-.559-1.231c-.9-.99-2.92.062-3.748-1-.515-.66-.145-1.717-.638-2.4s-1.678-.559-2.59-.6a16.406,16.406,0,0,1-3.093-.822,27.785,27.785,0,0,0-5.152-.392,31.1,31.1,0,0,1-4.24-.671l-7.115-1.454A84.328,84.328,0,0,1,752.82,517.8a10.776,10.776,0,0,1-4.475-2.741,8.391,8.391,0,0,1-1.745-4.083c-1.013-5.969,4.358-11.07,5.034-17.083a23.963,23.963,0,0,1,1.947-6.3q2.277-5.46,4.542-10.925a9.73,9.73,0,0,1,.951-1.935,14.05,14.05,0,0,1,2.165-2.109,14.9,14.9,0,0,0,4.38-7.182,1.935,1.935,0,0,1,.375-.845,3.145,3.145,0,0,1,.649-.42,2.126,2.126,0,0,0,.845-2.489,1.454,1.454,0,0,0,1.331-1.354,2.339,2.339,0,0,1,.056-.906c.134-.291.47-.436.666-.694a2.162,2.162,0,0,0,.157-1.533,4.981,4.981,0,0,1,0-1,5.141,5.141,0,0,1,1.5-3.127c1.337-1.315,3.239-.973,5.085-1.287a29.125,29.125,0,0,0,5.37-1.717,52.755,52.755,0,0,1,15.165-3.507A33.111,33.111,0,0,1,812.132,449a8.711,8.711,0,0,1,1.975,1.119,3.741,3.741,0,0,1,1.035,1.236,11.531,11.531,0,0,0,.761,1.717c.6.817,1.729,1.08,2.383,1.852s.71,2.075,1.253,3.032c.778,1.365,2.579,2,3.116,3.479.168.47.19.984.313,1.471a8.416,8.416,0,0,0,2.008,3.144,24.17,24.17,0,0,1,5.415,12.306,9.36,9.36,0,0,1,4.475-6.914c.643-.42,1.387-.884,1.516-1.645.162-.962-.772-1.818-.71-2.8a2.741,2.741,0,0,1,.559-1.309,41.392,41.392,0,0,1,3.5-4.4c.688-.755,1.46-1.678,1.175-2.674-.218-.744-.979-1.18-1.4-1.829a2.327,2.327,0,0,1,.056-2.573c.392-.531,1.013-.917,1.2-1.549.218-.744-.268-1.549-.117-2.316a2.864,2.864,0,0,1,1.152-1.494,7.047,7.047,0,0,1,7.188-1.779c2.618.364,5.555.923,7.031,3.116A5.306,5.306,0,0,1,856.742,455.107Z" transform="translate(-724.809 -323.282)" fill="#65617d"/>
      <path id="Pfad_356" data-name="Pfad 356" d="M941.693,447.731a3.1,3.1,0,0,1-.811,2.377,3.054,3.054,0,0,1-1.969.464h-.151c.229-1.164,1.645-1.829,1.891-3.009a2.663,2.663,0,0,0-.615-2.031A10.084,10.084,0,0,0,935,442.367a33.351,33.351,0,0,0-16.815-1.259,16.934,16.934,0,0,0-4.419,1.359,14.392,14.392,0,0,0-1.343.951,4.726,4.726,0,0,1-.626-1.852,2.859,2.859,0,0,1,.638-1.79,5.365,5.365,0,0,1,3.664-1.885,16.222,16.222,0,0,1,4.218.224l13.772,1.98a32.256,32.256,0,0,1,3.177.559,6.231,6.231,0,0,1,2.73,1.2C941.643,443.217,941.777,445.617,941.693,447.731Z" transform="translate(-797.655 -319.486)" opacity="0.1"/>
      <path id="Pfad_357" data-name="Pfad 357" d="M844.059,575.27c-.845,3.233-3.384,5.75-4.688,8.833-1.963,4.615-1.08,10.259-3.854,14.432a15.248,15.248,0,0,1-3.228,3.328,11.984,11.984,0,0,1-2.238,1.5,3.681,3.681,0,0,1-2.719.336,3.348,3.348,0,0,1-2.008-2.909,5.863,5.863,0,0,1,0-1.214l.034.09c.487,1.175,1.281,2.405,2.534,2.612a3.43,3.43,0,0,0,2.584-.912c1.846-1.482,2.92-3.692,3.944-5.823a24.223,24.223,0,0,0,1.891-4.827c.224-.951.33-1.924.559-2.875,1.063-4.62,4.682-8.391,5.482-13.073a3.2,3.2,0,0,0,.045-.979,4.946,4.946,0,0,0-.481-1.219,6.041,6.041,0,0,1-.425-1.354,3.916,3.916,0,0,1,2.657,2.154,3.519,3.519,0,0,1-.09,1.9Z" transform="translate(-759.539 -378.255)" opacity="0.1"/>
      <path id="Pfad_358" data-name="Pfad 358" d="M815.97,538.366a8.106,8.106,0,0,1-2.523,3.446,12.306,12.306,0,0,1-5.432,2.349,5.4,5.4,0,0,1-2.8-.034c-1.242-.431-2.137-1.594-3.407-1.93a23.3,23.3,0,0,0-2.8-.162c-1.65-.229-2.931-1.488-4.263-2.495-4.078-3.065-9.431-4.055-13.509-7.121a1.254,1.254,0,0,1-.436-.453,1.347,1.347,0,0,1-.084-.632,12.865,12.865,0,0,1,1.225-5.376,18.755,18.755,0,0,1,2.3-3.284,99.619,99.619,0,0,1,11.7-12.759,17.723,17.723,0,0,1,6.153-3.776c1.287-.4,3.826-.772,5.392-.1a3.12,3.12,0,0,0-.621.559,7.7,7.7,0,0,0-1.119,2.293c-2.355,6.125-8.659,9.269-13.694,13.442l-4.6,3.809c-.626.52-1.32,1.281-1.012,2.036a1.829,1.829,0,0,0,.962.828c2.674,1.32,5.812,1.852,8.016,3.865.805.738,1.577,1.712,2.668,1.768a5.36,5.36,0,0,0,1.678-.375,5.644,5.644,0,0,1,4.928.984,4.793,4.793,0,0,0,1.343.923,3.26,3.26,0,0,0,1.275.078,6.808,6.808,0,0,1,3.524.341c1.068.531,1.947,1.784,3.194,1.874C814.661,538.511,815.389,538.3,815.97,538.366Z" transform="translate(-739.897 -349.372)" opacity="0.1"/>
      <path id="Pfad_359" data-name="Pfad 359" d="M747.7,412.286a5.939,5.939,0,0,0-2.629,2.64c-.358.968-.19,2.075-.621,3.015s-1.4,1.594-1.611,2.6c-.151.733.145,1.5,0,2.237a9.64,9.64,0,0,0-.308,1.164c-.056.833.66,1.51,1.359,1.975a11.355,11.355,0,0,0,10.164,1.119,45.912,45.912,0,0,0,4.274-2.187,8.452,8.452,0,0,1,4.6-1.119c.923.1,1.807.436,2.73.559a2.864,2.864,0,0,0,2.556-.761,3.19,3.19,0,0,0,.559-1.326,19.812,19.812,0,0,0-.313-9.414c-.738-3.088-1.857-6.058-2.646-9.129a41.887,41.887,0,0,0-1.924-6.763,8.873,8.873,0,0,0-4.7-4.978.878.878,0,0,0-.559-.073.951.951,0,0,0-.364.269,17.2,17.2,0,0,0-3.837,6.455c-.878,2.679-1.119,5.521-1.924,8.212a8.408,8.408,0,0,1-1.678,3.474A19.17,19.17,0,0,1,747.7,412.286Z" transform="translate(-723.069 -299.212)" fill="#3f3d56"/>
      <path id="Pfad_360" data-name="Pfad 360" d="M768.8,422.156a3.261,3.261,0,0,1-.587,1.326,2.836,2.836,0,0,1-2.556.755c-.917-.112-1.8-.453-2.724-.559a8.436,8.436,0,0,0-4.6,1.119c-1.432.716-2.8,1.605-4.279,2.182a11.294,11.294,0,0,1-6.785.386,10.947,10.947,0,0,1-3.356-1.477,2.406,2.406,0,0,1-1.359-1.975,9.551,9.551,0,0,1,.308-1.158c.145-.733-.146-1.5,0-2.238.213-1.007,1.186-1.678,1.611-2.607s.263-2.042.615-3.009a5.964,5.964,0,0,1,2.635-2.646,20.1,20.1,0,0,0,3.177-2.047,3.156,3.156,0,0,0,.3-.414,10.069,10.069,0,0,0,1.331-3.082c.822-2.7,1.046-5.532,1.919-8.217a17.235,17.235,0,0,1,3.843-6.45.845.845,0,0,1,.358-.268.9.9,0,0,1,.559.067,8.938,8.938,0,0,1,4.7,4.984,44.052,44.052,0,0,1,1.924,6.757c.783,3.071,1.907,6.052,2.646,9.135A19.9,19.9,0,0,1,768.8,422.156Z" transform="translate(-723.078 -299.18)" opacity="0.1"/>
      <path id="Pfad_361" data-name="Pfad 361" d="M808.486,316.728a11.188,11.188,0,0,1-13.626-6.153,13.265,13.265,0,0,1,.224-1.561c.559-2.573,2.953-1.633,4.844-.951a37.879,37.879,0,0,1,6.573,2.847,4.716,4.716,0,0,1,1.622,1.376C808.951,313.522,808.621,315.167,808.486,316.728Z" transform="translate(-746.129 -261.974)" opacity="0.1"/>
      <circle id="Ellipse_42" data-name="Ellipse 42" cx="11.188" cy="11.188" r="11.188" transform="translate(47.791 32.345)" fill="#be6f72"/>
      <path id="Pfad_362" data-name="Pfad 362" d="M832.443,450.431c0,.929-1.259,1.225-2.193,1.175-3.356-.2-6.64-1.119-9.963-.839-4.2.38-8.061,2.7-12.273,2.914a37.2,37.2,0,0,0-4.872.14c-2.07.386-3.916,1.645-6.025,1.824-1.829.157-3.636-.531-5.465-.459a8.782,8.782,0,0,0-3.653,1.04,5.14,5.14,0,0,1,1.5-3.127c1.337-1.315,3.239-.973,5.085-1.287a29.127,29.127,0,0,0,5.37-1.717,52.756,52.756,0,0,1,15.165-3.507,33.11,33.11,0,0,1,15.31,2.422,8.713,8.713,0,0,1,1.975,1.119.876.876,0,0,1,.039.3Z" transform="translate(-743.106 -323.293)" opacity="0.1"/>
      <path id="Pfad_363" data-name="Pfad 363" d="M789.6,336.38,785.07,334.7l-1.913-.7a9.251,9.251,0,0,0-2.439-.649,6.209,6.209,0,0,0-5.426,3.155,17.046,17.046,0,0,0-1.986,6.248q-.772,4.441-1.309,8.917a58.241,58.241,0,0,0-.587,8.133c.129,6.925,1.594,13.755,3.205,20.5a72.1,72.1,0,0,1,1.784,9.09c.134,1.264.2,2.534.33,3.8.145,1.426.38,2.836.615,4.251l1.348,8.038a10.626,10.626,0,0,1,5.65-2.3c1.829-.067,3.642.615,5.465.459,2.1-.173,3.955-1.432,6.025-1.818a36.309,36.309,0,0,1,4.878-.14c4.207-.213,8.072-2.54,12.267-2.914,3.328-.3,6.634.638,9.968.833.929.056,2.187-.241,2.187-1.175,0-.649-.649-1.08-1.214-1.4a59.854,59.854,0,0,1-7.58-5.409,25.589,25.589,0,0,1-5.957-5.9c-3.653-5.678-2.4-13.358-5.515-19.349-2.534-4.867,0-11.244,0-16.731a25.452,25.452,0,0,0-2.143-12.525l-2.176-5.51a.9.9,0,0,0-.257-.42.856.856,0,0,0-.5-.151,5.247,5.247,0,0,0-3.614,1.158c-1.024.833-1.678,2.031-2.685,2.9C792.392,336.045,790.971,336.884,789.6,336.38Z" transform="translate(-735.796 -272.419)" fill="#e3e8f4"/>
      <path id="Pfad_364" data-name="Pfad 364" d="M812.594,330.436a9.926,9.926,0,0,1,1.768-4.324c1.024-1.2,2.892-1.829,4.212-.973,1.5.973,1.561,3.222,2.842,4.475,1.119,1.074,2.8,1.158,4.318,1.3a29.282,29.282,0,0,1,7.982,1.88,3.261,3.261,0,0,1,1.326.794c.7.794.559,2.014.906,3,.475,1.275,1.79,2.086,2.3,3.356.559,1.41,0,2.987-.47,4.436-.845,2.6-1.376,5.3-2.2,7.915a17.621,17.621,0,0,1-3.916,7.154c-.85.873-2.114,1.678-3.233,1.158l-.431,3.1a5.274,5.274,0,0,0,0,1.986,1.779,1.779,0,0,0,1.3,1.376c.084.481.593.71,1.007.973a2.8,2.8,0,0,1,.71,3.916c-.352.475-.873.85-1.04,1.415a2.011,2.011,0,0,0,1.074,2.126c.727.448,1.583.654,2.321,1.085a7.219,7.219,0,0,1,2.881,4.313,7.994,7.994,0,0,0,1.678,3.586c.369.352.811.621,1.164.99a4.246,4.246,0,0,1,1,2.568,5.1,5.1,0,0,1-.727,3.356c-1.119,1.6-3.205,2.075-5.034,2.8-2.97,1.219-5.415,3.4-8.033,5.258a8.57,8.57,0,0,1-3.664,1.723c-1.812.241-3.6-.559-5.42-.632a13.459,13.459,0,0,0-3.233.425l-3.356.727c.179-2.6-1.253-5.208-2.053-7.686a38.192,38.192,0,0,1-1.432-14.544,113.91,113.91,0,0,1,2.338-14.51c.688-3.356.621-6.864,1.678-10.125.99-3.138,2.405-6.153,2.926-9.42C814.932,340.13,811.4,335.65,812.594,330.436Z" transform="translate(-751.478 -269.652)" fill="#3f3d56"/>
      <path id="Pfad_365" data-name="Pfad 365" d="M855.788,352.784a6.152,6.152,0,0,1,.643,1.818,6.561,6.561,0,0,0,1.415,2.663,9.174,9.174,0,0,1,1.488,1.678c.515.973.319,2.159.559,3.222.28,1.158,1.091,2.165,1.208,3.356a6.15,6.15,0,0,0,.1,1.018c.364,1.354,2.355,1.678,2.8,3.032.3.878-.213,1.835-.117,2.758a2.428,2.428,0,0,1,.05.873,1.774,1.774,0,0,1-.638.817,12.865,12.865,0,0,0-3.681,6.55,37.3,37.3,0,0,0-.845,7.568l-2.187-2.892a3.322,3.322,0,0,0-.873-.9c-.28-.168-.6-.252-.889-.42a4.047,4.047,0,0,1-1.471-2.361,21.814,21.814,0,0,0-3.916-6.78c-.889-1.046-1.924-2.1-2.12-3.457a6.369,6.369,0,0,1,.1-1.868c.559-3.664,1.158-7.417,2.942-10.667.833-1.521,1.913-2.9,2.713-4.441C853.6,353.333,854.356,350.67,855.788,352.784Z" transform="translate(-769.226 -281.658)" fill="#3f3d56"/>
      <path id="Pfad_366" data-name="Pfad 366" d="M739.123,328.733a2.556,2.556,0,0,1-.347,1.343,1.768,1.768,0,0,1-1.768.559,5.113,5.113,0,0,1-1.768-.828q-2.338-1.477-4.676-2.959a25.89,25.89,0,0,1-2.512-1.723,22.419,22.419,0,0,1-3.317-3.474c-2.719-3.356-5.124-7-8.15-10.069-.822-.839-1.678-1.645-2.472-2.523a36.814,36.814,0,0,1-2.987-4.016c-.873-1.292-1.779-2.724-1.628-4.268.089-.873.509-1.678.632-2.545a1.586,1.586,0,0,0-1.348-2.21,2.284,2.284,0,0,1-.487-.106c-.778-.324-.66-1.527-.1-2.159s1.387-.984,1.9-1.678a10.136,10.136,0,0,1,.794-1.18,3.026,3.026,0,0,1,1.3-.654,20.172,20.172,0,0,1,9.929-.375c.559.123,1.2.347,1.365.889a1.639,1.639,0,0,1,0,.805,18.009,18.009,0,0,0-.425,3.356,5.965,5.965,0,0,0,.039.7c.263,2.372,1.8,4.38,3.3,6.231,1.779,2.2,3.586,4.391,5.4,6.573a25.827,25.827,0,0,0,3.272,3.5c1.119.929,2.568,1.678,3.44,2.87.71.962.481,2.277.559,3.435A76.247,76.247,0,0,1,739.123,328.733Z" transform="translate(-707.744 -254.088)" fill="#3f3d56"/>
      <path id="Pfad_367" data-name="Pfad 367" d="M883.5,368.975a11.747,11.747,0,0,0,1.488-1.762,11.617,11.617,0,0,0,1.119-2.5l3.244-9.2c.515-1.454,1.029-2.914,1.678-4.33.671-1.527,1.466-3,2.2-4.475a59.689,59.689,0,0,0,4.346-12.167,4.51,4.51,0,0,0,.173-1.784,4.691,4.691,0,0,0-1.589-2.411,11.625,11.625,0,0,0-2.383-1.969,3.916,3.916,0,0,0-2.987-.481,4.316,4.316,0,0,0-2.663,3.356,35.053,35.053,0,0,0-.347,4.475c-.2,2.148-.94,4.223-1.119,6.377-.1,1.247,0,2.506-.151,3.748a13.689,13.689,0,0,1-1.678,4.626,30.034,30.034,0,0,1-7.233,8.894,11.632,11.632,0,0,0-2.17,2.086,6.808,6.808,0,0,0-1.046,2.607,6,6,0,0,0,.453,4.234,6.216,6.216,0,0,0,4.335,2.584C881.434,371.352,881.954,370.58,883.5,368.975Z" transform="translate(-781.083 -270.992)" fill="#be6f72"/>
      <path id="Pfad_368" data-name="Pfad 368" d="M802.416,271.936a5.219,5.219,0,0,1,5.068-2.747,5.594,5.594,0,0,1,4.4,3.949,10.209,10.209,0,0,0,.828,2.472c.694,1.08,1.98,1.393,2.942,2.176a5.89,5.89,0,0,1,1.88,4.162,12.59,12.59,0,0,1-.744,4.7,14.965,14.965,0,0,0-.559,1.969c-.112.649-.123,1.309-.224,1.958a6.377,6.377,0,0,1-2.568,4.234,1.119,1.119,0,0,1-.694.252c-.436-.05-.7-.559-.867-1.018-.889-2.568-.677-5.706-2.316-7.753a8.473,8.473,0,0,0-2.651-1.975,3.417,3.417,0,0,0-1.354-.509,3.563,3.563,0,0,0-1.958.716,12.19,12.19,0,0,1-3.871,1.712,4.755,4.755,0,0,1-4-.861c-.772-.638-1.337-1.594-2.193-2.092a16.885,16.885,0,0,0-2.6-.811,3.843,3.843,0,0,1-1.555-5.862c.559-.671,1.387-1.052,1.885-1.8.643-.962.587-2.282.9-3.435a4.727,4.727,0,0,1,2.847-3.25,4,4,0,0,1,3.983.833c.559.5,1.007,1.152,1.555,1.678a4.475,4.475,0,0,0,4.139,1.119" transform="translate(-743.37 -244.615)" fill="#3f3d56"/>
      <path id="Pfad_369" data-name="Pfad 369" d="M829.167,420.707a2.17,2.17,0,0,0-.593,2.372c.123.263,5.9-.85,6.506-.934,1.521-.218,4.19-.112,5.213-1.5,1.824-2.467-3.826-1.919-4.861-1.829C833.463,418.978,830.666,419.247,829.167,420.707Z" transform="translate(-760.925 -311.05)" opacity="0.1"/>
      <path id="Pfad_370" data-name="Pfad 370" d="M723.5,291.585a18,18,0,0,0-.425,3.356,9.775,9.775,0,0,1-5.034-.778l-4.626-1.577a1.314,1.314,0,0,0-1.768.33,39.163,39.163,0,0,1-2.8,3.1,2.282,2.282,0,0,1-.487-.106c-.778-.324-.66-1.527-.1-2.159s1.387-.984,1.9-1.678a10.115,10.115,0,0,1,.794-1.18,3.026,3.026,0,0,1,1.3-.654,20.172,20.172,0,0,1,9.929-.375c.559.123,1.2.347,1.365.889A1.639,1.639,0,0,1,723.5,291.585Z" transform="translate(-707.775 -254.088)" fill="#3f3d56"/>
      <path id="Pfad_371" data-name="Pfad 371" d="M723.5,291.585a18,18,0,0,0-.425,3.356,9.775,9.775,0,0,1-5.034-.778l-4.626-1.577a1.314,1.314,0,0,0-1.768.33,39.163,39.163,0,0,1-2.8,3.1,2.282,2.282,0,0,1-.487-.106c-.778-.324-.66-1.527-.1-2.159s1.387-.984,1.9-1.678a10.115,10.115,0,0,1,.794-1.18,3.026,3.026,0,0,1,1.3-.654,20.172,20.172,0,0,1,9.929-.375c.559.123,1.2.347,1.365.889A1.639,1.639,0,0,1,723.5,291.585Z" transform="translate(-707.775 -254.088)" opacity="0.1"/>
      <path id="Pfad_372" data-name="Pfad 372" d="M802.774,481.415a2.792,2.792,0,0,1,1.952,1.466l-6.478-1.645-3.356-.856c-.593-.151-2.719-.324-3.11-.789-.559-.682,1.426-.213,1.784-.162,1.085.162,2.17.33,3.25.526C798.853,480.318,800.811,480.917,802.774,481.415Z" transform="translate(-744.729 -337.72)" opacity="0.1"/>
      <path id="Pfad_373" data-name="Pfad 373" d="M805.349,489.836c-.559-.375-2.165-.33-2.853-.492-1.007-.241-2-.559-2.987-.867-2.008-.655-4-1.4-6.064-1.88-.38-.084-1.678-.106-1.617-.587s1.3-.649,1.605-.671c1.829-.134,4.111.722,5.812,1.331A25.617,25.617,0,0,1,805.349,489.836Z" transform="translate(-744.792 -340.407)" opacity="0.1"/>
      <path id="Pfad_374" data-name="Pfad 374" d="M802.306,471.281c-2.053-.559-3.916-1.835-6.03-2.081a2.45,2.45,0,0,1-1.538-.47,1.813,1.813,0,0,1-.5-.9,10.422,10.422,0,0,1,4.346,1.091,13.668,13.668,0,0,1,2.036,1.085C801.092,470.3,801.8,471.119,802.306,471.281Z" transform="translate(-745.856 -332.699)" opacity="0.1"/>
      <path id="Pfad_375" data-name="Pfad 375" d="M873.158,384.46a9.784,9.784,0,0,0,6.858,10.813c-.274,1.326-1.645,2.059-2.612,3-1.365,1.326-2.07,3.312-3.681,4.318-1.8,1.119-4.106.682-6.153.213a.749.749,0,0,1-.481-.252.687.687,0,0,1-.089-.218,14.4,14.4,0,0,1-.425-7.608c.559-2.114,1.9-3.916,2.976-5.784S870.725,385.075,873.158,384.46Z" transform="translate(-777.574 -295.964)" fill="#3f3d56"/>
      <path id="Pfad_376" data-name="Pfad 376" d="M768.67,327.106a14.544,14.544,0,0,0-6.153,1.874c-1.253.716-2.54,1.678-3.972,1.5-.845-.1-1.678-.559-2.5-.336a4.9,4.9,0,0,0-1.281.761,1.449,1.449,0,0,1-1.41.224l-.559,7.742a28.382,28.382,0,0,0,.285,8.816c.364,1.466,1.164,2.8,1.253,4.285s-.045,3.015.062,4.52c.1,1.393.408,2.763.487,4.156a26.443,26.443,0,0,1-1.119,7.792c-.945,3.77-1.516,7.624-3.356,11.037a6.511,6.511,0,0,0-1.119,2.981,1.524,1.524,0,0,0,.034.392c-.559.308-1.08.6-1.555.9a5.964,5.964,0,0,0-2.635,2.646c-.352.968-.19,2.075-.615,3.009s-1.4,1.6-1.611,2.607c-.151.733.14,1.5,0,2.237a9.566,9.566,0,0,0-.308,1.158,2.429,2.429,0,0,0,1.359,1.975,10.946,10.946,0,0,0,3.356,1.477l3.34-13.257h0a106.9,106.9,0,0,0,7.568-17.6,37.849,37.849,0,0,1,2.187-5.8,27.24,27.24,0,0,0,1.678-3.289,24.779,24.779,0,0,0,.805-4.425,30.972,30.972,0,0,1,1.315-5.107,21.917,21.917,0,0,0,1.426-5.471c.185-2.7-.794-5.543.246-8.038a10.687,10.687,0,0,1,1.706-2.568c1.443-1.768,2.758-3.619,4.2-5.387A3.881,3.881,0,0,0,768.67,327.106Z" transform="translate(-723.1 -270.685)" fill="#3f3d56"/>
      <g id="Gruppe_162" data-name="Gruppe 162" transform="translate(45.247 25.481)" opacity="0.1">
        <path id="Pfad_377" data-name="Pfad 377" d="M816.778,271.81l-.7.05-.078.056a4.128,4.128,0,0,0,.778-.106Z" transform="translate(-800.69 -271.81)"/>
        <path id="Pfad_378" data-name="Pfad 378" d="M817.517,289.719a15.069,15.069,0,0,1-.716,3.267,14.97,14.97,0,0,0-.559,1.969c-.112.649-.123,1.309-.224,1.958a6.377,6.377,0,0,1-2.568,4.235,1.119,1.119,0,0,1-.694.252c-.436-.05-.7-.559-.867-1.018-.889-2.568-.677-5.706-2.316-7.753a8.475,8.475,0,0,0-2.651-1.975,3.418,3.418,0,0,0-1.354-.509,3.564,3.564,0,0,0-1.958.716,12.186,12.186,0,0,1-3.871,1.712,4.755,4.755,0,0,1-4-.861c-.772-.638-1.337-1.594-2.193-2.092a16.887,16.887,0,0,0-2.6-.811,3.821,3.821,0,0,1-2.182-2.495,1.6,1.6,0,0,1-.045-.213,3.916,3.916,0,0,0,.045,1.891,3.82,3.82,0,0,0,2.182,2.495,18.869,18.869,0,0,1,2.6.811,21.168,21.168,0,0,1,2.193,2.092,4.755,4.755,0,0,0,4,.861,12.189,12.189,0,0,0,3.871-1.712,3.563,3.563,0,0,1,1.958-.716,3.418,3.418,0,0,1,1.354.509,8.474,8.474,0,0,1,2.612,1.991c1.639,2.047,1.426,5.185,2.316,7.753.162.464.431.968.867,1.018a1.119,1.119,0,0,0,.733-.268,6.377,6.377,0,0,0,2.573-4.251c.1-.649.112-1.309.224-1.958a14.953,14.953,0,0,1,.559-1.969,12.59,12.59,0,0,0,.744-4.7C817.539,289.876,817.528,289.8,817.517,289.719Z" transform="translate(-788.631 -278.107)"/>
      </g>
    </g>
    <g id="Duderina" transform="translate(273.872 151.372)">
      <path id="Pfad_393" data-name="Pfad 393" d="M302.338,393.707c-1.292-.431-8.9-6.45-9.476-9.174s4.022-28.1,4.022-28.1a10.334,10.334,0,0,1-1.119-.084v-.408l.945-33.339s3.876-22.375-3.446-21.072-2.73,21.072-2.73,21.072-.833,10.035-1.421,13.045c-.559,2.9-3.121,14.728-1.376,18.4a4.006,4.006,0,0,0,.213.38h0s.291,12.614-2.87,14.337c-3.015,1.639-4.268,9.89-4.374,10.628l-.162-.067h0a8.766,8.766,0,0,1-2.333-2.131c-.067-.084-.117-.173-.179-.263a12.319,12.319,0,0,0-3.793-19.237,7.943,7.943,0,0,0-.744-3.088c-1.454-3.11-9.509-7.177-15.232-7.272-2.64-.078-4.805.671-5.594,2.735a15.782,15.782,0,0,0-.447,3.323,8.45,8.45,0,0,1-3.619,5.381,22.692,22.692,0,0,0-2.411-2.321c-1.868-1.432-5.594-6.153-5.594-6.153s-11.63-12.043-12.491-15.344-12.48-23.119-15.064-19.668,8.9,18.493,8.9,18.493,2.182,5.465,3.86,7.311,14.544,20.529,14.544,20.529l.615,1.275c-2.719,1.432-5.2,3.256-6.08,6.1-1.287,4.184,1.527,8.391,3.474,12.306,3.793,7.641,4.335,17.385-.559,24.367-4.386,6.164-11.993,9.1-19.114,11.657a18.812,18.812,0,0,0,12.083,4.011c-1.645,4.766-7.473,6.343-12.441,7.227,2.607,2.506,6.338,3.418,9.918,3.972a29.717,29.717,0,0,0,5.309.42h.436l.436-.034a15.186,15.186,0,0,0,1.807-.229,9.494,9.494,0,0,0,6.416-4.218c1.119-1.952,1.51-4.615,3.541-5.594a4.525,4.525,0,0,1,1.678-.4h1.091l8.463.084h1.08c2.389-.056,4.939-.47,6.153-2.444a6.779,6.779,0,0,0,.766-3.1c.179-2.679,0-5.437.073-8.139.722,4.917,1.477,12.58-.319,15.411a26.289,26.289,0,0,1-5.247,5.689,10.072,10.072,0,0,0-1.387,1.421c-.274.2-.436.3-.436.3l-.173.52a9.851,9.851,0,0,0-1.365,3.166,2.2,2.2,0,0,0-.106.9c.2.4-1.4,2.036-.934,2.724-3.983,4.671-4.738,11.747-4.738,11.747L243.514,461.8c-3.737,9.817-9.33,10.824-9.33,10.824s-13.14-8.816-13.5-9.247a50.749,50.749,0,0,0-5.381-2.584,5.7,5.7,0,0,0-2.584-2.361c-1.723-.716-1.868-3.356-1.868-3.356-.213-6.237-3.876-6.713-3.876-6.713a11.9,11.9,0,0,0-6.942,1.236l-.526.039c-2.54.207-5.594.436-8.95.66-9.336.615-11.557,6.662-11.557,6.662a1.861,1.861,0,0,0,.358,2.691c1.5,1.4,11.137,0,11.546-.034a6.254,6.254,0,0,1-2.193-.151c1.516-.056,3.6-.112,5.381-.112h.431a23.282,23.282,0,0,0-.162,2.842c0,1.79,4.951,2.937,4.951,2.937l15.075,13.425s9.476,4.235,15.506,10.326,11.361.834,11.361.834c6.383-1.577,24.747-23.779,24.764-23.8h0c0,.649.386,22.241,1.119,26.576h0a2.88,2.88,0,0,0,.162.643c.861,1.863-.291,6.953-.789,9.1a25.284,25.284,0,0,0-.364,5.448s-6.886,26.291-6.315,28.6-3.731,13.045-3.731,13.045v8.95l.75-.039a4.835,4.835,0,0,0-.268.448l-.05.1a31.832,31.832,0,0,0,7.68.716c3.088-.285,8.391,2.377,8.391,2.377s1.8.85,7.322,1.208,5.527-2.439,5.527-2.439c-.632-3.809-9.364-5.085-9.633-5.124-.7-.442-1.365-.923-1.908-1.337l-.112-.089a2.4,2.4,0,0,0,.1-.257c.934-3.8-4.235-5.454-4.235-5.454v-.929c3.356-1.723,4.022-13.548,4.022-13.548s5.034-14.622,5.739-17.061a16.125,16.125,0,0,0,0-6.092l.5-3.155a15.517,15.517,0,0,0,1.08-2.579,6.371,6.371,0,0,1,1.219-3.009c.789-.934-.861-3.155-.861-3.155l1.438-3.725v-4.089l3.356-14.835s3.518-17.279,2.3-22.935,1.438-8.531,1.438-8.531a7.069,7.069,0,0,1-.738.336,21.367,21.367,0,0,0,.867-2.383l7.552.934v.112H300.3s-.861-10.628-.861-14.913,2.9-19.662,2.9-19.662S303.631,394.138,302.338,393.707ZM268.815,381.3c0,.42-.039.856-.067,1.3l-.151.229-.28-.235-.341.531-.1.05c-.738-.38-1.119-2.556-1.65-2.086l-.073.062c-.117-.134-.235-.173-.358-.062l-.112.1v-.5a12.585,12.585,0,0,0,3.133.4C268.82,381.16,268.815,381.233,268.815,381.3Zm25.116,49.494h.162l-.268.7C293.858,431.264,293.892,431.034,293.931,430.794ZM266.359,557.645l-1.029-.257.559-.1.52.341.062.045Zm10.516-1.5c-.341-.179-.688-.386-1.024-.6C275.964,555.6,276.405,555.832,276.875,556.14Z" transform="translate(-178.583 -301.472)" fill="url(#linear-gradient-2)"/>
      <path id="Pfad_394" data-name="Pfad 394" d="M354.371,390.03,347.6,407.684h1.645l-6.371,5.079,11.5,1.432Z" transform="translate(-235.308 -271.275)" fill="#f86d70"/>
      <path id="Pfad_395" data-name="Pfad 395" d="M354.371,390.03,347.6,407.684l-1.706-.459-3.021,5.538,11.5,1.432Z" transform="translate(-235.308 -271.275)" opacity="0.1"/>
      <path id="Pfad_396" data-name="Pfad 396" d="M344.44,384.95h10.623l3.9-32.08H344.44Z" transform="translate(-236 -254.901)" fill="#f86d70"/>
      <path id="Pfad_397" data-name="Pfad 397" d="M344.44,384.95h10.623l3.9-32.08H344.44Z" transform="translate(-236 -254.901)" opacity="0.1"/>
      <path id="Pfad_398" data-name="Pfad 398" d="M334.5,462.56l2.293-.386,5.269-.895s15.825-3.569,19.092-3.86a20.4,20.4,0,0,0,5.728-1.633c.856-.369,1.4-.649,1.4-.649l-5.7-10.41-8.844-6.556s-5.594-1.191-7.96-4.447a5.241,5.241,0,0,1-.733-4.967c1.443-4.475-8.62,4.279-8.62,4.279s.1,2.1,0,4.772c0,.526-.05,1.074-.09,1.633a11.016,11.016,0,0,1-.09,1.119c-.246,2.657-.75,5.392-1.745,7.026C332.065,451.579,334.5,462.56,334.5,462.56Z" transform="translate(-246.806 -356.995)" fill="#fbbebe"/>
      <path id="Pfad_399" data-name="Pfad 399" d="M338.79,438.207h.224c.4,0,.727-.856,1.119-.9,3.149-.3,6.025-.962,8.022-3.194a5.247,5.247,0,0,1-.733-4.962c1.443-4.475-8.62,4.274-8.62,4.274S338.907,435.533,338.79,438.207Z" transform="translate(-249.173 -357.171)" opacity="0.1"/>
      <path id="Pfad_400" data-name="Pfad 400" d="M316.89,414a12.256,12.256,0,0,0,12.262,12.262,8.533,8.533,0,0,0,1.2-.056A12.262,12.262,0,1,0,316.89,414Z" transform="translate(-239.524 -345.654)" fill="#fbbebe"/>
      <path id="Pfad_401" data-name="Pfad 401" d="M283.291,388.241a15.086,15.086,0,0,0-.442,3.306c-.6,3.977-4.643,6.36-8.3,8.027s-7.787,3.642-8.95,7.485c-1.275,4.156,1.51,8.324,3.446,12.222,3.77,7.6,4.307,17.285-.559,24.232-4.324,6.153-11.859,9.073-18.952,11.635a18.683,18.683,0,0,0,12,3.994c-1.628,4.738-7.417,6.31-12.351,7.182,2.59,2.495,6.3,3.4,9.851,3.949a22.336,22.336,0,0,0,7.831.145,9.408,9.408,0,0,0,6.366-4.2c1.119-1.941,1.5-4.587,3.518-5.566a6.367,6.367,0,0,1,2.87-.42l8.391.09c2.612,0,5.706-.2,7.054-2.433a6.712,6.712,0,0,0,.761-3.088c.364-5.5-.694-11.322,1.572-16.345.682-1.516-3.7-3.916-3.239-5.521a51.571,51.571,0,0,0,1.958-15.612c0-4.447,2.892-8.279,5.281-12.032s4.386-8.491,2.5-12.519C301.767,388.286,285.8,381.758,283.291,388.241Z" transform="translate(-209.689 -338.502)" fill="#3f3d56"/>
      <path id="Pfad_402" data-name="Pfad 402" d="M330.13,754.312l2.137,1.415.33.218.062.039,2.534,1.678,5.918,1,5.2-.358s1.5-3.132-.856-3.06a4.9,4.9,0,0,1-2.148-.621l-.324-.162h0c-.341-.179-.682-.38-1.018-.593h0c-.7-.442-1.359-.923-1.891-1.331-.783-.6-1.3-1.063-1.3-1.063Z" transform="translate(-245.357 -499.75)" fill="#fbbebe"/>
      <path id="Pfad_403" data-name="Pfad 403" d="M334,758.208l.33.218.062.039,2.534,1.678,5.918,1,5.2-.358s1.5-3.133-.856-3.06a4.9,4.9,0,0,1-2.148-.621c.414.324.761.677.794.973.1.8-3.849,2.237-3.849,2.237l-5.56-1.471s-.945-.268-2.238-.6l-.123-.034Z" transform="translate(-247.063 -502.231)" opacity="0.1"/>
      <path id="Pfad_404" data-name="Pfad 404" d="M317,758.956a31.491,31.491,0,0,0,7.624.71c3.065-.285,8.346,2.355,8.346,2.355s1.784.839,7.272,1.2,5.488-2.428,5.488-2.428c-.626-3.787-9.3-5.034-9.565-5.09h0a10.65,10.65,0,0,1,1.018.593h0c.615.4,1.281.929,1.331,1.354.1.794-3.849,2.237-3.849,2.237l-5.56-1.466s-.945-.274-2.238-.61h-.123a47.7,47.7,0,0,0-5.829-1.2,4.046,4.046,0,0,0-3.871,2.238.667.667,0,0,0-.045.112Z" transform="translate(-239.572 -501.614)" fill="#3f3d56"/>
      <path id="Pfad_405" data-name="Pfad 405" d="M188.54,576.654l2.422,1.857s.7-.034,1.756-.067h.336c1.5-.056,3.58-.112,5.342-.112a16.961,16.961,0,0,1,3.407.19c1.208.425,3.356-6.914,3.356-6.914l-2.428-.559-.806-.19-.559-.134-1.975-.464-5.985.682L189.2,573.65Z" transform="translate(-182.97 -419.905)" fill="#fbbebe"/>
      <path id="Pfad_406" data-name="Pfad 406" d="M188.54,576.654l2.422,1.857s.7-.034,1.756-.067a2.12,2.12,0,0,1-1.119-1c-1.566-4.346,6.2-6.2,6.2-6.2l3.619-.157.7-.034h.559l-.805-.19-.559-.134-1.975-.464-5.985.682-4.207,2.707Z" transform="translate(-182.97 -419.905)" opacity="0.1"/>
      <path id="Pfad_407" data-name="Pfad 407" d="M179.389,576.863c1.466,1.354,11.065,0,11.467-.034a6.04,6.04,0,0,1-2.176-.151,2.4,2.4,0,0,1-1.678-1.2c-1.566-4.352,6.2-6.2,6.2-6.2l3.619-.157.7-.034,8.8-.38.425-2.422s-2.858.268-7.345.626c-2.523.207-5.594.436-8.911.654-9.269.615-11.473,6.629-11.473,6.629A1.859,1.859,0,0,0,179.389,576.863Z" transform="translate(-178.596 -418.152)" fill="#3f3d56"/>
      <path id="Pfad_408" data-name="Pfad 408" d="M371.979,356.3a2.48,2.48,0,0,0,.213.38l2.137,3.133,5.56.559.062-2.2.934-33.16s3.849-22.241-3.423-20.96-2.707,20.96-2.707,20.96-.828,9.979-1.41,12.978C372.779,340.883,370.245,352.664,371.979,356.3Z" transform="translate(-263.534 -302.584)" fill="#fbbebe"/>
      <path id="Pfad_409" data-name="Pfad 409" d="M350.14,542.977l1.583,2.707,3.541,6.058s6.422,2.355,8.066.559c.9-.979,1.874-4.4,2.556-7.272.559-2.327.934-4.29.934-4.29Z" transform="translate(-254.174 -406.898)" fill="#fbbebe"/>
      <path id="Pfad_410" data-name="Pfad 410" d="M350.14,543l1.583,2.707a1.861,1.861,0,0,0,.269-.285c1.79-2.282,9.672-.487,13.895-.341.559-2.327.934-4.29.934-4.29Z" transform="translate(-254.174 -406.92)" opacity="0.1"/>
      <path id="Pfad_411" data-name="Pfad 411" d="M206.16,576.567a16.961,16.961,0,0,1,3.407.19c1.208.425,3.356-6.914,3.356-6.914l-3.233-.761,8.8-.38.425-2.422s-2.858.268-7.345.626a9.231,9.231,0,0,0-2.444,2.042l-.134.168A14.66,14.66,0,0,0,206.16,576.567Z" transform="translate(-190.734 -418.152)" opacity="0.1"/>
      <path id="Pfad_412" data-name="Pfad 412" d="M330.13,754.294l2.467,1.633c3.681-.666,7.043-1.712,7.44-3.356a.56.56,0,0,0,0-.078c-.783-.6-1.3-1.063-1.3-1.063Z" transform="translate(-245.357 -499.733)" opacity="0.1"/>
      <path id="Pfad_413" data-name="Pfad 413" d="M317.09,759.557a85.386,85.386,0,0,0,9.7-1.04,47.7,47.7,0,0,0-5.834-1.214A4.024,4.024,0,0,0,317.09,759.557Z" transform="translate(-239.612 -502.31)" opacity="0.1"/>
      <path id="Pfad_414" data-name="Pfad 414" d="M206.64,568.133c0,1.784,4.917,2.925,4.917,2.925l14.975,13.33s9.409,4.206,15.394,10.265,11.266.856,11.266.856c6.343-1.566,24.613-23.667,24.613-23.667s.425,25.239,1.281,27.091-.285,6.914-.783,9.056a25.173,25.173,0,0,0-.358,5.415s-6.841,26.162-6.271,28.444-3.709,12.978-3.709,12.978v8.911s16.753-.643,17.676-4.419-4.2-5.42-4.2-5.42v-.929c3.356-1.712,3.988-13.47,3.988-13.47s5-14.544,5.706-16.966a15.862,15.862,0,0,0,0-6.064l.5-3.133a15.637,15.637,0,0,0,1.068-2.568,6.344,6.344,0,0,1,1.214-2.993c.783-.928-.856-3.138-.856-3.138l1.426-3.709v-4.061l3.356-14.756s3.5-17.184,2.282-22.817,1.426-8.48,1.426-8.48c-5.722,3-8.609-3.675-9.554-6.545-.241-.738-.358-1.231-.358-1.231s-7.859-2.9-15.176-2.2a17.471,17.471,0,0,0-4.358.923c-8.128,2.926-9.409,15.042-9.409,15.042l-7.2,10.981c-3.709,9.767-9.269,10.763-9.269,10.763s-13.045-8.766-13.425-9.2a52.257,52.257,0,0,0-5.348-2.568,5.65,5.65,0,0,0-2.568-2.349c-1.712-.716-1.852-3.356-1.852-3.356-.213-6.2-3.849-6.713-3.849-6.713C206.567,553.31,206.64,566.354,206.64,568.133Z" transform="translate(-190.945 -406.893)" fill="#3f3d56"/>
      <rect id="Rechteck_73" data-name="Rechteck 73" width="7.697" height="23.88" transform="translate(95.966 126.385) rotate(180)" fill="#f86d70"/>
      <rect id="Rechteck_74" data-name="Rechteck 74" width="7.697" height="23.88" transform="translate(95.966 126.385) rotate(180)" opacity="0.1"/>
      <path id="Pfad_415" data-name="Pfad 415" d="M372.439,397.41a.356.356,0,0,0,0,.05,2.476,2.476,0,0,0,.213.38l2.137,3.133,5.56.559.061-2.2C378.676,399.194,374.727,398.719,372.439,397.41Z" transform="translate(-263.999 -343.744)" opacity="0.1"/>
      <path id="Pfad_416" data-name="Pfad 416" d="M367.15,398.18s.285,12.541-2.853,14.253-4.358,10.628-4.358,10.628,9.509,6.254,11.629,9.006,6.987,9.308,5.985,10.874,2.428,8.7,2.428,8.7-6.276,12.832-4.85,17.682S376.7,487,376.7,487h2.713s-.856-10.55-.856-14.829,2.847-19.534,2.847-19.534,1.287-14.969,0-15.394-8.838-6.416-9.409-9.129,3.994-27.969,3.994-27.969S370.143,399.892,367.15,398.18Z" transform="translate(-258.492 -344.083)" fill="#f86d70"/>
      <path id="Pfad_417" data-name="Pfad 417" d="M336.12,463.871a12.206,12.206,0,0,0,1.863,4.889l5.269-.9s15.825-3.569,19.092-3.86a20.4,20.4,0,0,0,5.728-1.633A25.262,25.262,0,0,0,361,450.765l-2.008-1.863a33.646,33.646,0,0,0-10.125-6.472c.235.2,16.837,14.37,13.2,17.151s-13.425-3.988-13.425-3.988l-11.132-9.565-.4-.347-.643,1a9.352,9.352,0,0,1,.957.459,16.379,16.379,0,0,1,7.831,9.733C347.537,464.565,336.12,463.871,336.12,463.871Z" transform="translate(-247.997 -363.581)" opacity="0.1"/>
      <path id="Pfad_418" data-name="Pfad 418" d="M330,542.831s10.55,5.846,13.112,2.568c.559-.722,1.74-1.035,3.211-1.119-.241-.738-.358-1.231-.358-1.231s-7.859-2.9-15.176-2.2C330.308,542.054,330,542.831,330,542.831Z" transform="translate(-245.3 -406.898)" fill="#444053"/>
      <path id="Pfad_419" data-name="Pfad 419" d="M334.855,445.7l11.534,9.923s9.75,6.791,13.425,3.988-13.207-17.156-13.207-17.156h0a34.124,34.124,0,0,1,10.119,6.455l2.008,1.863c5.281,4.895,6.472,4.895,6.651,12.088.045,1.773-.559,4.318-1.024,4.777-1.712,1.678-2.909,13.867-2.646,15.293s-3.188,13.738-2.07,17.162-13.984-1.712-16.541,1.572S330,499.1,330,499.1s5.846-14.975,7.272-15.97,3.138-8.7,0-12.262a13.3,13.3,0,0,1-3.418-6.987s11.411.7,9.123-6.987a16.144,16.144,0,0,0-8.771-10.192Z" transform="translate(-245.3 -363.594)" fill="#e8e8f0"/>
      <path id="Pfad_420" data-name="Pfad 420" d="M356.769,493.38s-4.425,8.34-10.147,10.505c-.185.067-.364.129-.559.185C340.088,505.888,357.217,495.964,356.769,493.38Z" transform="translate(-251.82 -386.031)" opacity="0.1"/>
      <path id="Pfad_421" data-name="Pfad 421" d="M248.314,346.681s2.137,5.42,3.849,7.272,14.4,20.389,14.4,20.389l1.074,2.237.923,1.908,8.128-.856.559-3.278-.313-.38a38.405,38.405,0,0,0-4.537-4.755c-1.852-1.421-5.56-6.125-5.56-6.125s-11.546-11.982-12.4-15.26S242.027,324.9,239.465,328.3,248.314,346.681,248.314,346.681Z" transform="translate(-205.243 -313.119)" fill="#fbbebe"/>
      <g id="Gruppe_163" data-name="Gruppe 163" transform="translate(52.357 47.015)" opacity="0.1">
        <path id="Pfad_422" data-name="Pfad 422" d="M286.478,519.081a6.37,6.37,0,0,0-2.87.414c-2.014.979-2.394,3.625-3.513,5.566a9.407,9.407,0,0,1-6.371,4.2,14.248,14.248,0,0,1-1.544.213,17.529,17.529,0,0,0,4.9-.213,9.407,9.407,0,0,0,6.371-4.2c1.119-1.941,1.5-4.587,3.513-5.566a4.475,4.475,0,0,1,1.678-.392Z" transform="translate(-272.18 -444.36)"/>
        <path id="Pfad_423" data-name="Pfad 423" d="M325.338,417.332c0-4.447,2.892-8.279,5.275-12.032s4.386-8.491,2.5-12.519c-1.611-3.44-11.322-8.055-16.927-7.143,5.488.71,12.25,4.324,13.571,7.143,1.885,4.028-.117,8.765-2.5,12.519s-5.286,7.585-5.275,12.032a52.221,52.221,0,0,1-1.963,15.612c-.453,1.594,3.916,4.005,3.244,5.515-2.271,5.034-1.208,10.841-1.572,16.345a6.8,6.8,0,0,1-.766,3.088c-1.119,1.84-3.412,2.316-5.644,2.417h1.952c2.607,0,5.7-.2,7.048-2.433a6.8,6.8,0,0,0,.766-3.088c.364-5.5-.7-11.316,1.572-16.345.682-1.51-3.7-3.916-3.244-5.515A51.6,51.6,0,0,0,325.338,417.332Z" transform="translate(-291.171 -385.521)"/>
      </g>
      <path id="Pfad_424" data-name="Pfad 424" d="M290.12,412.847l.923,1.907,8.128-.856.559-3.278-.313-.38C298.55,410.665,292.055,413.792,290.12,412.847Z" transform="translate(-227.728 -349.397)" opacity="0.1"/>
      <path id="Pfad_425" data-name="Pfad 425" d="M320.5,434.587s-2-3.133-3.138-2.282-1.583-2.568-2.237-2-2.562,2.159-3.356-.061c-.621-1.768-7.378-12.95-10.119-17.447-.7-1.164-1.147-1.88-1.147-1.88s-7.7,3.849-9.549,2.568V416.2l1.566.145L300.907,432s2.64,4.2,2.461,5.667,3.384,7.882,3.955,8.307,6.713,7.557,6.713,7.557,3.138,15.4.425,19.679a29.2,29.2,0,0,1-7.412,7.412s-1.415,4.134-1.208,4.565-1.645,2.282-.789,2.853,2,4.559,2,4.559,3.994-6.416,6.153-7.412,4.923-14.119,4.923-14.119.789-7.731.85-12.72S318.785,434.587,320.5,434.587Z" transform="translate(-228.094 -349.697)" opacity="0.1"/>
      <path id="Pfad_426" data-name="Pfad 426" d="M319.726,434.587s-1.991-3.133-3.133-2.282-1.589-2.568-2.238-2-2.556,2.159-3.356-.061c-.626-1.768-7.384-12.95-10.119-17.447l-1.147-1.88s-7.7,3.849-9.554,2.568V416.2l1.572.145L300.143,432s2.646,4.2,2.461,5.667,3.356,7.882,3.955,8.307,6.713,7.557,6.713,7.557,3.138,15.4.431,19.679a26.224,26.224,0,0,1-5.163,5.717,9.979,9.979,0,0,0-3.356,5.381,2.125,2.125,0,0,0-.1.895c.207.425-1.645,2.282-.789,2.853s2.008,4.576,2.008,4.576,3.994-6.416,6.153-7.412,4.928-14.119,4.928-14.119.783-7.731.85-12.72S318.048,434.587,319.726,434.587Z" transform="translate(-227.755 -349.697)" fill="#f86d70"/>
      <path id="Pfad_427" data-name="Pfad 427" d="M307.5,569.21s5.991,1.119,8.391,2.847-9.123-2.707-9.123-2.707Z" transform="translate(-235.064 -419.443)" opacity="0.1"/>
      <path id="Pfad_428" data-name="Pfad 428" d="M333.83,596.35s6.248,5.208,5.13,9.912-4.005,16.541-4.005,16.541Z" transform="translate(-246.988 -431.401)" opacity="0.1"/>
      <path id="Pfad_429" data-name="Pfad 429" d="M229.633,578.45s-8.8.962-8.234,2.1,8.234-1.052,8.234-1.052Z" transform="translate(-197.437 -423.514)" opacity="0.1"/>
      <path id="Pfad_430" data-name="Pfad 430" d="M353.518,653.583s.559.71-2.707,0-.856-2.9-.856-2.9Z" transform="translate(-253.715 -455.34)" opacity="0.1"/>
      <path id="Pfad_431" data-name="Pfad 431" d="M349.272,673.211s-4.475.71-6.875,0S349.272,673.211,349.272,673.211Z" transform="translate(-250.588 -465.129)" opacity="0.1"/>
      <path id="Pfad_432" data-name="Pfad 432" d="M329.555,742.1s-.783-.856-4.7.71-5.488,1.639-6.629,1.119S329.555,742.1,329.555,742.1Z" transform="translate(-240.078 -495.517)" opacity="0.1"/>
      <path id="Pfad_433" data-name="Pfad 433" d="M341.94,576.28l-5.56,7.736S339.373,577.242,341.94,576.28Z" transform="translate(-248.111 -422.558)" opacity="0.1"/>
      <path id="Pfad_434" data-name="Pfad 434" d="M320.624,449.15s-.241,2.568-3.826,3.569-4.268,1.812-4.268,1.812" transform="translate(-237.602 -366.542)" opacity="0.1"/>
      <path id="Pfad_435" data-name="Pfad 435" d="M302.722,415.88s-4.732,3.356-9.672,2.646" transform="translate(-229.019 -351.882)" opacity="0.1"/>
      <path id="Pfad_436" data-name="Pfad 436" d="M316.78,542.046s1.382.867,4.7-2.926" transform="translate(-239.475 -406.184)" opacity="0.1"/>
      <path id="Pfad_437" data-name="Pfad 437" d="M375.065,468.86a2.43,2.43,0,0,0-.8-1.88l-.929-1.119a4.307,4.307,0,0,0-.61-.627c-.559-.431-1.275-.559-1.857-.945" transform="translate(-263.308 -373.213)" opacity="0.1"/>
    </g>
  </g>
</svg>
