<svg id="Layer_1" data-name="Layer 1" xmlns="http://www.w3.org/2000/svg" viewBox="0 0 100 100"><defs><style>.cls-1,.cls-20{fill:#e8f4fa;}.cls-13,.cls-2{fill:#fff;}.cls-19,.cls-3,.cls-6{fill:none;}.cls-11,.cls-12,.cls-13,.cls-16,.cls-17,.cls-20,.cls-21,.cls-22,.cls-3,.cls-6,.cls-8{stroke:#45413c;}.cls-11,.cls-12,.cls-22,.cls-3,.cls-8{stroke-linecap:round;}.cls-11,.cls-12,.cls-13,.cls-16,.cls-17,.cls-19,.cls-20,.cls-21,.cls-22,.cls-3,.cls-6,.cls-8{stroke-linejoin:round;}.cls-4{fill:#00dba8;}.cls-5{fill:#00f5bc;}.cls-7{fill:#c0dceb;}.cls-8,.cls-9{fill:#ffcebf;}.cls-10{fill:#ffb59e;}.cls-11{fill:#656769;}.cls-12{fill:#ccfff3;}.cls-14{fill:#bdbec0;}.cls-15,.cls-21{fill:#87898c;}.cls-16{fill:#6dd627;}.cls-17{fill:#ffe500;}.cls-18{fill:#525252;}.cls-19{stroke:#6dd627;}.cls-22{fill:#fffacf;}.cls-23{fill:#fffef2;}</style></defs><title>surgeon</title><path class="cls-1" d="M90,50A40,40,0,1,0,13.56,66.5H86.44A39.85,39.85,0,0,0,90,50Z"/><path class="cls-2" d="M13.56,66.5a40,40,0,0,0,72.88,0Z"/><line class="cls-3" x1="11" y1="66.5" x2="89" y2="66.5"/><line class="cls-3" x1="6.5" y1="66.5" x2="9" y2="66.5"/><line class="cls-3" x1="91" y1="66.5" x2="93.5" y2="66.5"/><path class="cls-4" d="M86.26,67.36a3,3,0,0,0-4.13-1l-2,1.2a1.19,1.19,0,0,1-.64.18,1.23,1.23,0,0,1-1.23-1.23V58.76a15.65,15.65,0,0,0-31.29,0V66.5H72.24a7.24,7.24,0,0,0,11,6.18l2-1.2A3,3,0,0,0,86.26,67.36Z"/><path class="cls-5" d="M62.62,47.94A15.65,15.65,0,0,1,78.26,63.58V58.76a15.65,15.65,0,0,0-31.29,0v4.82A15.66,15.66,0,0,1,62.62,47.94Z"/><path class="cls-6" d="M86.26,67.36a3,3,0,0,0-4.13-1l-2,1.2a1.19,1.19,0,0,1-.64.18,1.23,1.23,0,0,1-1.23-1.23V58.76a15.65,15.65,0,0,0-31.29,0V66.5H72.24a7.24,7.24,0,0,0,11,6.18l2-1.2A3,3,0,0,0,86.26,67.36Z"/><path class="cls-7" d="M21.5,54.5H41.76a1,1,0,0,1,1,1v11a0,0,0,0,1,0,0H20.5a0,0,0,0,1,0,0v-11A1,1,0,0,1,21.5,54.5Z"/><path class="cls-8" d="M72.85,29.72V27.31a10.23,10.23,0,0,0-20.46,0v2.41a1.81,1.81,0,0,0-1.81,1.8v.61a1.81,1.81,0,0,0,1.81,1.8l.17,0a10.22,10.22,0,0,0,20.12,0l.17,0a1.81,1.81,0,0,0,1.8-1.8v-.61A1.81,1.81,0,0,0,72.85,29.72Z"/><line class="cls-3" x1="72.24" y1="66.5" x2="72.24" y2="57.17"/><line class="cls-3" x1="52.99" y1="66.5" x2="52.99" y2="57.17"/><path class="cls-9" d="M66.23,45.77a4.09,4.09,0,0,1-7.22,0V40.35h7.22Z"/><path class="cls-10" d="M59,43.56a9.28,9.28,0,0,0,7.22,0V40.35H59Z"/><path class="cls-3" d="M66.23,45.77a4.09,4.09,0,0,1-7.22,0V40.35h7.22Z"/><path class="cls-10" d="M57.8,33.93a1.2,1.2,0,0,1-2.4,0,1.2,1.2,0,1,1,2.4,0Z"/><path class="cls-10" d="M69.84,33.93a1.21,1.21,0,1,1-1.21-1.2A1.2,1.2,0,0,1,69.84,33.93Z"/><path class="cls-3" d="M68,30.72a1.63,1.63,0,0,0-3,0"/><path class="cls-3" d="M60.21,30.72a1.63,1.63,0,0,0-3,0"/><path class="cls-11" d="M51.19,27.39v2.3a3.14,3.14,0,0,1,3,2.41V26.88C52.38,27.15,51.19,27.39,51.19,27.39Z"/><path class="cls-11" d="M71,26.88V32.1a3.15,3.15,0,0,1,3-2.41v-2.3S72.85,27.15,71,26.88Z"/><path class="cls-4" d="M65,13.51a40.94,40.94,0,0,0-4.7,0,9.54,9.54,0,0,0-8.92,8.79c-.1,1.24-.16,3.83-.16,5.09a67.77,67.77,0,0,1,11.43-1.21,67.93,67.93,0,0,1,11.43,1.21c0-1.26-.07-3.85-.16-5.09A9.54,9.54,0,0,0,65,13.51Z"/><path class="cls-5" d="M51.35,25.33a9.55,9.55,0,0,1,8.92-8.79,46.05,46.05,0,0,1,4.7,0,9.55,9.55,0,0,1,8.92,8.79c0,.52.07,1.26.1,2.05h.06c0-1.26-.07-3.85-.16-5.09A9.54,9.54,0,0,0,65,13.51a40.94,40.94,0,0,0-4.7,0,9.54,9.54,0,0,0-8.92,8.79c-.1,1.24-.16,3.83-.16,5.09h.06C51.27,26.59,51.31,25.85,51.35,25.33Z"/><path class="cls-3" d="M65,13.51a40.94,40.94,0,0,0-4.7,0,9.54,9.54,0,0,0-8.92,8.79c-.1,1.24-.16,3.83-.16,5.09a67.77,67.77,0,0,1,11.43-1.21,67.93,67.93,0,0,1,11.43,1.21c0-1.26-.07-3.85-.16-5.09A9.54,9.54,0,0,0,65,13.51Z"/><path class="cls-12" d="M69.84,33.93a12.53,12.53,0,0,1-7.22-1.13,12.53,12.53,0,0,1-7.22,1.13,13.16,13.16,0,0,1,.47,5.87,10.21,10.21,0,0,0,13.5,0A13.16,13.16,0,0,1,69.84,33.93Z"/><line class="cls-3" x1="54.19" y1="32.1" x2="55.4" y2="33.93"/><line class="cls-3" x1="71.04" y1="32.1" x2="69.84" y2="33.93"/><polyline class="cls-12" points="56 37.01 62.62 35.81 69.24 37.01"/><polyline class="cls-12" points="56 38.82 62.62 40.02 69.24 38.82"/><path class="cls-1" d="M42.76,55.5a1,1,0,0,0-1-1H21.5a1,1,0,0,0-1,1v3.2a1.2,1.2,0,0,1,1.2-1.2H41.56a1.2,1.2,0,0,1,1.2,1.2Z"/><path class="cls-6" d="M21.5,54.5H41.76a1,1,0,0,1,1,1v11a0,0,0,0,1,0,0H20.5a0,0,0,0,1,0,0v-11A1,1,0,0,1,21.5,54.5Z"/><path class="cls-13" d="M22.7,51.45H40.56a1,1,0,0,1,1,1v2a0,0,0,0,1,0,0H21.7a0,0,0,0,1,0,0v-2A1,1,0,0,1,22.7,51.45Z"/><rect class="cls-14" x="28.32" y="48.45" width="6.62" height="3.01"/><rect class="cls-15" x="28.32" y="48.45" width="6.62" height="1.5"/><rect class="cls-6" x="28.32" y="48.45" width="6.62" height="3.01"/><rect class="cls-13" x="19.3" y="31" width="24.67" height="17.45" rx="2" ry="2"/><path class="cls-13" d="M25.92,66.5H23.51V61.08a4.23,4.23,0,0,1,2.9-4,1,1,0,0,1,1.31,1v.43a1,1,0,0,1-.64.94,1.8,1.8,0,0,0-1.16,1.68Z"/><path class="cls-13" d="M31.93,66.5h-2.4V61.08a4.22,4.22,0,0,1,2.89-4,1,1,0,0,1,.9.14,1,1,0,0,1,.42.81v.43a1,1,0,0,1-.65.94,1.82,1.82,0,0,0-1.16,1.68Z"/><path class="cls-16" d="M39.15,58.08A1.2,1.2,0,1,1,38,56.87,1.2,1.2,0,0,1,39.15,58.08Z"/><path class="cls-17" d="M39.15,62.29A1.2,1.2,0,1,1,38,61.08,1.2,1.2,0,0,1,39.15,62.29Z"/><rect class="cls-18" x="22.31" y="34.01" width="18.65" height="11.43" rx="1" ry="1"/><polyline class="cls-19" points="22.3 40.62 25.31 40.62 27.12 36.41 28.32 43.03 30.13 38.22 31.33 40.62 33.74 40.62 34.94 42.43 36.14 37.62 37.35 40.62 40.96 40.62"/><rect class="cls-6" x="22.31" y="34.01" width="18.65" height="11.43" rx="1" ry="1"/><line class="cls-6" x1="30.76" y1="58.11" x2="32.46" y2="59.81"/><line class="cls-6" x1="29.53" y1="61.08" x2="31.93" y2="61.69"/><line class="cls-6" x1="29.53" y1="64.09" x2="31.93" y2="64.09"/><line class="cls-6" x1="24.74" y1="58.11" x2="26.44" y2="59.81"/><line class="cls-6" x1="23.51" y1="61.08" x2="25.92" y2="61.69"/><line class="cls-6" x1="23.51" y1="64.09" x2="25.92" y2="64.09"/><path class="cls-20" d="M89.3,50.64a.69.69,0,0,0-1.18.21l-3,9.09L87,62.06,88,59l.33-.27A5.66,5.66,0,0,0,90.24,56,5.74,5.74,0,0,0,89.3,50.64Z"/><path class="cls-21" d="M83.63,74.24A1.56,1.56,0,0,1,82,75.33a1.5,1.5,0,0,1-1.21-2l4.41-13.44,1.94,2.25a.92.92,0,0,1,.18.91Z"/><line class="cls-6" x1="84.21" y1="62.8" x2="86.51" y2="65.45"/><path class="cls-22" d="M86.39,72.55a1.23,1.23,0,0,1-1.35.52l-2.68-.76a2.89,2.89,0,0,1-2-3.57l.39-1.39a2.9,2.9,0,0,1,3.57-2l2.67.76a1.22,1.22,0,0,1,.88,1.15A9.75,9.75,0,0,1,86.39,72.55Z"/><path class="cls-23" d="M80.94,71.38a2.28,2.28,0,0,1,.1-.57l.39-1.39a2.89,2.89,0,0,1,3.57-2l2.85.81c0-.32,0-.65,0-1A1.22,1.22,0,0,0,87,66.12l-2.67-.76a2.9,2.9,0,0,0-3.57,2l-.39,1.39A2.86,2.86,0,0,0,80.94,71.38Z"/><path class="cls-3" d="M86.39,72.55a1.21,1.21,0,0,1-1.35.52l-2.68-.76a2.89,2.89,0,0,1-2-3.57l.39-1.39a2.9,2.9,0,0,1,3.57-2l2.67.76a1.22,1.22,0,0,1,.88,1.15,9.81,9.81,0,0,1-.34,2.64A9.57,9.57,0,0,1,86.39,72.55Z"/></svg>