<svg id="Layer_1" data-name="Layer 1" xmlns="http://www.w3.org/2000/svg" viewBox="0 0 100 100"><defs><style>.cls-1{fill:#e8f4fa;}.cls-2,.cls-4{fill:#fff;}.cls-18,.cls-3{fill:none;}.cls-10,.cls-11,.cls-15,.cls-16,.cls-18,.cls-19,.cls-3,.cls-4,.cls-5,.cls-7{stroke:#45413c;stroke-linejoin:round;}.cls-10,.cls-11,.cls-16,.cls-19,.cls-3,.cls-4,.cls-5,.cls-7{stroke-linecap:round;}.cls-5{fill:#adc4d9;}.cls-6{font-size:10.83px;fill:#45413c;font-family:VAGRoundedStd-Bold, VAG Rounded Std;font-weight:700;}.cls-7,.cls-8{fill:#dea47a;}.cls-9{fill:#bf8256;}.cls-10{fill:#ff6242;}.cls-11{fill:#009fd9;}.cls-12{fill:#ff87af;}.cls-13{fill:#ffb0ca;}.cls-14{fill:#020202;opacity:0.15;}.cls-15{fill:#ff6196;}.cls-16{fill:#ffda8f;}.cls-17{fill:#e0366f;}.cls-19{fill:#00b8f0;}.cls-20{fill:#ffbe3d;}.cls-21{fill:#bf8df2;}.cls-22{fill:#dabff5;}</style></defs><title>teacher-maths-female</title><path class="cls-1" d="M90,50A40,40,0,1,0,13.56,66.5H86.44A39.85,39.85,0,0,0,90,50Z"/><path class="cls-2" d="M13.56,66.5a40,40,0,0,0,72.88,0Z"/><line class="cls-3" x1="11" y1="66.5" x2="89" y2="66.5"/><line class="cls-3" x1="6.5" y1="66.5" x2="9" y2="66.5"/><line class="cls-3" x1="91" y1="66.5" x2="93.5" y2="66.5"/><path class="cls-4" d="M47,29.5H82a2,2,0,0,1,2,2V51a0,0,0,0,1,0,0H45a0,0,0,0,1,0,0V31.5A2,2,0,0,1,47,29.5Z"/><path class="cls-5" d="M86.32,52.25a1.23,1.23,0,0,1-1.2,1.25H44.2a1.25,1.25,0,0,1,0-2.5H85.12A1.23,1.23,0,0,1,86.32,52.25Z"/><text class="cls-6" transform="translate(54.14 43.78)">1+1=</text><rect class="cls-7" x="52.5" y="56" width="27" height="3.01" rx="1" ry="1"/><rect class="cls-8" x="53.5" y="59.01" width="25" height="7.49"/><rect class="cls-9" x="53.5" y="59.01" width="25" height="2.41"/><rect class="cls-3" x="53.5" y="59.01" width="25" height="7.49"/><rect class="cls-10" x="76" y="48" width="2.5" height="8"/><rect class="cls-10" x="73.5" y="48" width="2.5" height="8"/><rect class="cls-11" x="69.62" y="48.02" width="2.41" height="7.82" transform="translate(26.82 -24.07) rotate(23.68)"/><path class="cls-12" d="M49.75,57h0l-.72.86a2.27,2.27,0,0,1-4-1.47V52.5a9,9,0,0,0-18,0v12h3.5v-3h11V56.39a5.8,5.8,0,0,0,5.77,5.91,5.89,5.89,0,0,0,4.53-2.13l.79-.94Z"/><path class="cls-13" d="M36,46.5a9,9,0,0,1,9,9v-3a9,9,0,0,0-18,0v3A9,9,0,0,1,36,46.5Z"/><path class="cls-3" d="M49.75,57h0l-.72.86a2.27,2.27,0,0,1-4-1.47V52.5a9,9,0,0,0-18,0v12h3.5v-3h11V56.39a5.8,5.8,0,0,0,5.77,5.91,5.89,5.89,0,0,0,4.53-2.13l.79-.94Z"/><ellipse class="cls-14" cx="36" cy="82" rx="10" ry="1.5"/><path class="cls-15" d="M36,80.8A1.2,1.2,0,0,1,34.8,82H32.13A1.21,1.21,0,0,1,31,80.5L32,77h4Z"/><path class="cls-16" d="M30.5,66.25a1.75,1.75,0,0,1-3.5,0V64.5h3.5Z"/><path class="cls-16" d="M34,79.33c-1.14,0-2-.67-2-2.33h4C36,78.66,35.15,79.33,34,79.33Z"/><path class="cls-15" d="M36,80.8A1.2,1.2,0,0,0,37.2,82h2.67A1.21,1.21,0,0,0,41,80.5L40,77H36Z"/><path class="cls-16" d="M38,79.33c1.14,0,2-.67,2-2.33H36C36,78.66,36.85,79.33,38,79.33Z"/><line class="cls-3" x1="36" y1="47.11" x2="36" y2="61.5"/><path class="cls-3" d="M30.5,63.5v-7c0-1.86-1.23-2.43-1.23-4.48"/><path class="cls-3" d="M41.5,61V56.48c0-1.86,1.23-2.43,1.23-4.48"/><path class="cls-16" d="M53.62,57.94l-1,1.3L49.75,57l1-1.3a1.81,1.81,0,0,1,2.54-.3h0A1.81,1.81,0,0,1,53.62,57.94Z"/><line class="cls-3" x1="52.39" y1="57.13" x2="61.99" y2="46.72"/><polygon class="cls-15" points="30.5 61.5 32 77 40 77 41.5 61.5 30.5 61.5"/><polygon class="cls-17" points="41.26 64 41.5 61.5 30.5 61.5 30.74 64 41.26 64"/><polygon class="cls-18" points="30.5 61.5 32 77 40 77 41.5 61.5 30.5 61.5"/><line class="cls-19" x1="36" y1="77" x2="36" y2="65.55"/><path class="cls-16" d="M43,35.5a1.23,1.23,0,0,0-1-1.2v-.8a6,6,0,0,0-12,0v.8a1.23,1.23,0,0,0-1,1.2,1.25,1.25,0,0,0,1.13,1.23,6,6,0,0,0,11.74,0A1.25,1.25,0,0,0,43,35.5Z"/><circle class="cls-20" cx="32.75" cy="36.25" r="0.75"/><circle class="cls-20" cx="39.25" cy="36.25" r="0.75"/><path class="cls-3" d="M38.7,34.5a.85.85,0,0,0-1.2,0"/><path class="cls-3" d="M33.3,34.5a.85.85,0,0,1,1.2,0"/><path class="cls-3" d="M37.5,38a2.5,2.5,0,0,1-3,0"/><path class="cls-21" d="M44.2,35.1c-1.26-3.79-3.63-9-8.2-9.16-4.57.13-6.94,5.37-8.2,9.16A6,6,0,0,0,31,42.43l2.79,1.29a8.33,8.33,0,0,0-3,1.48c.67,2,1.07,4.72,5.24,4.8,4.17-.08,4.57-2.8,5.24-4.8a8.33,8.33,0,0,0-3-1.48L41,42.43A6,6,0,0,0,44.2,35.1ZM36,41.57c-3.3-.08-4.76-2.64-5.56-4.21-1-1.9,2.22-7,5.56-7.21,3.34.18,6.53,5.31,5.56,7.21C40.76,38.93,39.3,41.49,36,41.57Z"/><path class="cls-3" d="M36,41.57c-3.3-.08-4.76-2.64-5.56-4.21-1-1.9,2.22-7,5.56-7.21,3.34.18,6.53,5.31,5.56,7.21C40.76,38.93,39.3,41.49,36,41.57Z"/><path class="cls-3" d="M33.69,46.39a4.75,4.75,0,0,0,4.62,0"/><path class="cls-22" d="M27.8,37.6c1.26-3.79,3.63-9,8.2-9.16,4.57.13,6.94,5.37,8.2,9.16.07.21.12.42.17.63a6.08,6.08,0,0,0-.17-3.13c-1.26-3.79-3.63-9-8.2-9.16-4.57.13-6.94,5.37-8.2,9.16a6.08,6.08,0,0,0-.17,3.13C27.68,38,27.73,37.81,27.8,37.6Z"/><path class="cls-3" d="M44.2,35.1c-1.26-3.79-3.63-9-8.2-9.16-4.57.13-6.94,5.37-8.2,9.16A6,6,0,0,0,31,42.43l2.79,1.29a8.33,8.33,0,0,0-3,1.48c.67,2,1.07,4.72,5.24,4.8,4.17-.08,4.57-2.8,5.24-4.8a8.33,8.33,0,0,0-3-1.48L41,42.43A6,6,0,0,0,44.2,35.1Z"/></svg>