<svg id="Layer_1" data-name="Layer 1" xmlns="http://www.w3.org/2000/svg" viewBox="0 0 100 100"><defs><style>.cls-1{fill:#e8f4fa;}.cls-2{fill:#fff;}.cls-3{fill:none;}.cls-3,.cls-6,.cls-9{stroke:#45413c;stroke-linecap:round;stroke-linejoin:round;}.cls-4{fill:#ffe500;}.cls-5{fill:#fff48c;}.cls-6{fill:#00dfeb;}.cls-7,.cls-9{fill:#d18660;}.cls-8{fill:#bd704a;}.cls-10{fill:#724f3d;}.cls-11{fill:#a86c4d;}.cls-12{fill:#020202;opacity:0.15;}.cls-13{fill:#6dd627;}.cls-14{fill:#9ceb60;}</style></defs><title>user-female-add</title><path class="cls-1" d="M90.5,50A40,40,0,1,0,14.06,66.5H86.94A39.85,39.85,0,0,0,90.5,50Z"/><path class="cls-2" d="M14.06,66.5a40,40,0,0,0,72.88,0Z"/><line class="cls-3" x1="11" y1="66.5" x2="89" y2="66.5"/><line class="cls-3" x1="6.5" y1="66.5" x2="9" y2="66.5"/><line class="cls-3" x1="91" y1="66.5" x2="93.5" y2="66.5"/><path class="cls-4" d="M46,49A14.76,14.76,0,0,0,31,63.74V67H61V63.74A14.76,14.76,0,0,0,46,49Z"/><path class="cls-5" d="M46,49A14.76,14.76,0,0,0,31,63.74V67h.05a14.76,14.76,0,0,1,15-13.5A14.76,14.76,0,0,1,61,67h0V63.74A14.76,14.76,0,0,0,46,49Z"/><path class="cls-3" d="M46,49A14.76,14.76,0,0,0,31,63.74V67H61V63.74A14.76,14.76,0,0,0,46,49Z"/><line class="cls-3" x1="36.5" y1="66.99" x2="36.5" y2="62.49"/><line class="cls-3" x1="55.5" y1="66.99" x2="55.5" y2="62.49"/><path class="cls-6" d="M46,55.5a6,6,0,0,0,5.84-5.42A14.91,14.91,0,0,0,46,49a14.91,14.91,0,0,0-5.84,1.09A6,6,0,0,0,46,55.5Z"/><path class="cls-7" d="M42.5,44.5v5.27a3.5,3.5,0,1,0,7,0V44.5Z"/><path class="cls-8" d="M42.5,44.5v4.07a8.87,8.87,0,0,0,7,0V44.5Z"/><path class="cls-3" d="M42.5,44.5v5.27a3.5,3.5,0,1,0,7,0V44.5Z"/><path class="cls-9" d="M56,35V32.5a10,10,0,0,0-20,0V35a2,2,0,0,0,0,4h.12a10,10,0,0,0,19.76,0H56a2,2,0,0,0,0-4Z"/><circle class="cls-8" cx="40.25" cy="38.76" r="1.25"/><circle class="cls-8" cx="51.75" cy="38.76" r="1.25"/><path class="cls-3" d="M43,41.3a4.38,4.38,0,0,0,6,0"/><path class="cls-3" d="M43.5,35.51a1.63,1.63,0,0,0-3,0"/><path class="cls-3" d="M51.51,35.51a1.63,1.63,0,0,0-3,0"/><path class="cls-10" d="M57.2,31.37a1.09,1.09,0,0,0-.5-.06l-.06-.07A1.78,1.78,0,0,0,57.9,30.1a1.79,1.79,0,0,0-2.27-2.3l-.09-.29a2.4,2.4,0,0,0-2.81-3.88l-.13-.13-.07,0a2.6,2.6,0,0,0,.07-.56,2.39,2.39,0,0,0-2.4-2.4,2.37,2.37,0,0,0-1.83.87A2.4,2.4,0,0,0,46,19.3h0a2.4,2.4,0,0,0-2.37,2.07,2.37,2.37,0,0,0-1.83-.87,2.4,2.4,0,0,0-2.4,2.4,2.6,2.6,0,0,0,.07.56l-.07,0-.13.13a2.4,2.4,0,0,0-2.81,3.88l-.09.29a1.79,1.79,0,0,0-2.27,2.3,1.78,1.78,0,0,0,1.26,1.14l-.06.07a1.09,1.09,0,0,0-.5.06,1.2,1.2,0,0,0-.12,2.21c.39,1.33,2.32,1.3,2.32,2.92,0-8.43,3.93-10,6.6-8.75a6.26,6.26,0,0,0,2.4.41h0a6.26,6.26,0,0,0,2.4-.41c2.67-1.23,6.6.32,6.6,8.75,0-1.62,1.93-1.59,2.32-2.92a1.2,1.2,0,0,0-.12-2.21Z"/><path class="cls-11" d="M56.5,28.6a2.4,2.4,0,0,1-1,1.91l.09.29a1.72,1.72,0,0,1,1.56.2,1.82,1.82,0,0,0,.71-.9,1.8,1.8,0,0,0-1.1-2.3,2,2,0,0,0-.47-.09A2.35,2.35,0,0,1,56.5,28.6Z"/><path class="cls-11" d="M34.81,31a1.72,1.72,0,0,1,1.56-.2l.09-.29a2.4,2.4,0,0,1-1-1.91,2.35,2.35,0,0,1,.17-.89,2,2,0,0,0-.47.09,1.8,1.8,0,0,0-1.1,2.3A1.82,1.82,0,0,0,34.81,31Z"/><path class="cls-11" d="M37.9,26.2a2.4,2.4,0,0,1,1.37.43l.13-.13.07,0a2.6,2.6,0,0,1-.07-.56,2.4,2.4,0,0,1,2.4-2.4,2.37,2.37,0,0,1,1.83.87A2.4,2.4,0,0,1,46,22.3h0a2.4,2.4,0,0,1,2.37,2.07,2.37,2.37,0,0,1,1.83-.87,2.39,2.39,0,0,1,2.4,2.4,2.6,2.6,0,0,1-.07.56l.07,0,.13.13a2.4,2.4,0,0,1,3.24.46,2.33,2.33,0,0,0,.53-1.49,2.4,2.4,0,0,0-3.77-2l-.13-.13-.07,0a2.6,2.6,0,0,0,.07-.56,2.39,2.39,0,0,0-2.4-2.4,2.37,2.37,0,0,0-1.83.87A2.4,2.4,0,0,0,46,19.3h0a2.4,2.4,0,0,0-2.37,2.07,2.37,2.37,0,0,0-1.83-.87,2.4,2.4,0,0,0-2.4,2.4,2.6,2.6,0,0,0,.07.56l-.07,0-.13.13a2.4,2.4,0,0,0-3.77,2A2.33,2.33,0,0,0,36,27.09,2.42,2.42,0,0,1,37.9,26.2Z"/><path class="cls-3" d="M57.2,31.37a1.09,1.09,0,0,0-.5-.06l-.06-.07A1.78,1.78,0,0,0,57.9,30.1a1.79,1.79,0,0,0-2.27-2.3l-.09-.29a2.4,2.4,0,0,0-2.81-3.88l-.13-.13-.07,0a2.6,2.6,0,0,0,.07-.56,2.39,2.39,0,0,0-2.4-2.4,2.37,2.37,0,0,0-1.83.87A2.4,2.4,0,0,0,46,19.3h0a2.4,2.4,0,0,0-2.37,2.07,2.37,2.37,0,0,0-1.83-.87,2.4,2.4,0,0,0-2.4,2.4,2.6,2.6,0,0,0,.07.56l-.07,0-.13.13a2.4,2.4,0,0,0-2.81,3.88l-.09.29a1.79,1.79,0,0,0-2.27,2.3,1.78,1.78,0,0,0,1.26,1.14l-.06.07a1.09,1.09,0,0,0-.5.06,1.2,1.2,0,0,0-.12,2.21c.39,1.33,2.32,1.3,2.32,2.92,0-8.43,3.93-10,6.6-8.75a6.26,6.26,0,0,0,2.4.41h0a6.26,6.26,0,0,0,2.4-.41c2.67-1.23,6.6.32,6.6,8.75,0-1.62,1.93-1.59,2.32-2.92a1.2,1.2,0,0,0-.12-2.21Z"/><ellipse class="cls-12" cx="64" cy="81.74" rx="8" ry="1"/><path class="cls-13" d="M76,64a1,1,0,0,0-1-1H68.5a1,1,0,0,1-1-1v-6.5a1,1,0,0,0-1-1h-5a1,1,0,0,0-1,1V62a1,1,0,0,1-1,1H53a1,1,0,0,0-1,1v5a1,1,0,0,0,1,1h6.5a1,1,0,0,1,1,1v6.5a1,1,0,0,0,1,1h5a1,1,0,0,0,1-1V71a1,1,0,0,1,1-1H75a1,1,0,0,0,1-1Z"/><path class="cls-14" d="M67.5,55.49a1,1,0,0,0-1-1h-5a1,1,0,0,0-1,1V62a1,1,0,0,1-1,1H53a1,1,0,0,0-1,1v5a1,1,0,0,0,1,1h5.67l8.83-8.83Z"/><path class="cls-3" d="M76,64a1,1,0,0,0-1-1H68.5a1,1,0,0,1-1-1v-6.5a1,1,0,0,0-1-1h-5a1,1,0,0,0-1,1V62a1,1,0,0,1-1,1H53a1,1,0,0,0-1,1v5a1,1,0,0,0,1,1h6.5a1,1,0,0,1,1,1v6.5a1,1,0,0,0,1,1h5a1,1,0,0,0,1-1V71a1,1,0,0,1,1-1H75a1,1,0,0,0,1-1Z"/></svg>