<svg id="Layer_1" data-name="Layer 1" xmlns="http://www.w3.org/2000/svg" viewBox="0 0 100 100"><defs><style>.cls-1{fill:#e8f4fa;}.cls-2,.cls-6{fill:#fff;}.cls-3{fill:none;}.cls-10,.cls-13,.cls-3,.cls-6,.cls-9{stroke:#45413c;stroke-linecap:round;stroke-linejoin:round;}.cls-13,.cls-4{fill:#00b8f0;}.cls-5{fill:#4acfff;}.cls-10,.cls-7{fill:#ffcebf;}.cls-8{fill:#ffb59e;}.cls-9{fill:#ff6242;}.cls-11{fill:#ffef9e;}.cls-12{fill:#ffdf3d;}.cls-14{fill:#020202;opacity:0.15;}.cls-15{fill:#6dd627;}.cls-16{fill:#9ceb60;}</style></defs><title>user-male-add</title><path class="cls-1" d="M90.5,50A40,40,0,1,0,14.06,66.5H86.94A39.85,39.85,0,0,0,90.5,50Z"/><path class="cls-2" d="M14.06,66.5a40,40,0,0,0,72.88,0Z"/><line class="cls-3" x1="11" y1="66.5" x2="89" y2="66.5"/><line class="cls-3" x1="6.5" y1="66.5" x2="9" y2="66.5"/><line class="cls-3" x1="91" y1="66.5" x2="93.5" y2="66.5"/><path class="cls-4" d="M44,48.5A14.76,14.76,0,0,0,29,63.25V66.5H59V63.25A14.76,14.76,0,0,0,44,48.5Z"/><path class="cls-5" d="M44,48.5A14.76,14.76,0,0,0,29,63.25V66.5h.05A14.76,14.76,0,0,1,44,53,14.76,14.76,0,0,1,59,66.5h0V63.25A14.76,14.76,0,0,0,44,48.5Z"/><path class="cls-3" d="M44,48.5A14.76,14.76,0,0,0,29,63.25V66.5H59V63.25A14.76,14.76,0,0,0,44,48.5Z"/><line class="cls-3" x1="34.5" y1="66.5" x2="34.5" y2="62"/><line class="cls-3" x1="53.5" y1="66.5" x2="53.5" y2="62"/><path class="cls-6" d="M47.59,48.91l0,0A15,15,0,0,0,44,48.5a14.61,14.61,0,0,0-3.58.38v0L39.3,53.7,44,66.5l4.7-12.8Z"/><polygon class="cls-7" points="44 46 40.5 46 40.5 51.3 44 53.64 47.5 51.3 47.5 46 44 46"/><path class="cls-8" d="M40.5,46v3a11.39,11.39,0,0,0,7,0V46h-7Z"/><polygon class="cls-3" points="44 46 40.5 46 40.5 51.3 44 53.64 47.5 51.3 47.5 46 44 46"/><polygon class="cls-9" points="44 54 41.49 63.5 44 66.5 46.51 63.5 44 54"/><polyline class="cls-3" points="47.67 56.44 44 54 40.33 56.44"/><path class="cls-10" d="M54,35V32.5a10,10,0,0,0-20,0V35a2,2,0,0,0,0,4h.12a10,10,0,0,0,19.76,0H54a2,2,0,0,0,0-4Z"/><circle class="cls-8" cx="38.25" cy="38.76" r="1.25"/><circle class="cls-8" cx="49.75" cy="38.76" r="1.25"/><path class="cls-3" d="M41,41.3a4.38,4.38,0,0,0,6,0"/><path class="cls-3" d="M41.5,35.51a1.63,1.63,0,0,0-3,0"/><path class="cls-3" d="M49.51,35.5a1.63,1.63,0,0,0-3,0"/><path class="cls-11" d="M36,33.5l0,0v0Z"/><path class="cls-12" d="M51.19,21.33c-1.91-2.54-12.47-2.54-14.38,0-7.91,1.76-5.16,15.3-4.35,14.49a1.91,1.91,0,0,1,2.21-.32c1.33-2,1.83-2,1.83-5,1.1.66,13.15.39,13.78-4.31-.22,3.71,1.29,6.44,3,9.31a1.91,1.91,0,0,1,2.21.32C56.35,36.63,59.1,23.09,51.19,21.33Z"/><path class="cls-11" d="M36.81,24.41c1.91-2.54,12.47-2.55,14.38,0,3.77.83,5.12,4.35,5.41,7.72.32-3.93-.43-9.69-5.41-10.8-1.91-2.54-12.47-2.54-14.38,0-5,1.11-5.73,6.87-5.41,10.8C31.69,28.76,33,25.24,36.81,24.41Z"/><path class="cls-3" d="M51.19,21.33c-1.91-2.54-12.47-2.54-14.38,0-7.91,1.76-5.16,15.3-4.35,14.49a1.91,1.91,0,0,1,2.21-.32c1.33-2,1.83-2,1.83-5,1.1.66,13.15.39,13.78-4.31-.22,3.71,1.29,6.44,3,9.31a1.91,1.91,0,0,1,2.21.32C56.35,36.63,59.1,23.09,51.19,21.33Z"/><path class="cls-13" d="M40.5,48.5l-1.2,5.2L44,66.5H41.5l-3.87-2.69a1,1,0,0,1-.32-1.29L38.7,59.9,35,56.74a1,1,0,0,1-.3-1.08C35.66,53,36.32,49.38,40.5,48.5Z"/><path class="cls-13" d="M47.5,48.5l1.2,5.2L44,66.5h2.5l3.87-2.69a1,1,0,0,0,.32-1.29L49.3,59.9,53,56.74a1,1,0,0,0,.3-1.08C52.34,53,51.68,49.38,47.5,48.5Z"/><ellipse class="cls-14" cx="62" cy="81.25" rx="8" ry="1"/><path class="cls-15" d="M74,63.5a1,1,0,0,0-1-1H66.5a1,1,0,0,1-1-1V55a1,1,0,0,0-1-1h-5a1,1,0,0,0-1,1v6.5a1,1,0,0,1-1,1H51a1,1,0,0,0-1,1v5a1,1,0,0,0,1,1h6.5a1,1,0,0,1,1,1V77a1,1,0,0,0,1,1h5a1,1,0,0,0,1-1V70.5a1,1,0,0,1,1-1H73a1,1,0,0,0,1-1Z"/><path class="cls-16" d="M65.5,55a1,1,0,0,0-1-1h-5a1,1,0,0,0-1,1v6.5a1,1,0,0,1-1,1H51a1,1,0,0,0-1,1v5a1,1,0,0,0,1,1h5.67l8.83-8.83Z"/><path class="cls-3" d="M74,63.5a1,1,0,0,0-1-1H66.5a1,1,0,0,1-1-1V55a1,1,0,0,0-1-1h-5a1,1,0,0,0-1,1v6.5a1,1,0,0,1-1,1H51a1,1,0,0,0-1,1v5a1,1,0,0,0,1,1h6.5a1,1,0,0,1,1,1V77a1,1,0,0,0,1,1h5a1,1,0,0,0,1-1V70.5a1,1,0,0,1,1-1H73a1,1,0,0,0,1-1Z"/></svg>