<svg xmlns="http://www.w3.org/2000/svg" width="348.839" height="336.011" viewBox="0 0 348.839 336.011">
  <g id="Gruppe_199" data-name="Gruppe 199" transform="translate(-403 -2646.446)">
    <g id="Gruppe_195" data-name="Gruppe 195" transform="translate(441.145 2633.642) rotate(7)">
      <path id="Pfad_99" data-name="Pfad 99" d="M189.108,86.658l-79.073,79.073a64.461,64.461,0,0,1-91.157,0c-1.067-1.067-2.1-2.166-3.073-3.3a62.246,62.246,0,0,1-4.493-5.785A63.49,63.49,0,0,1,1.131,132.224Q.582,129.36.3,126.439q-.3-3.114-.3-6.286a64.761,64.761,0,0,1,2.391-17.5q.82-2.941,1.922-5.785a64.318,64.318,0,0,1,14.565-22.3l34.5-34.5A9.64,9.64,0,0,1,67.008,53.71l-34.5,34.5a45.555,45.555,0,0,0-6.794,8.664,44.857,44.857,0,0,0-6.434,23.281,46.309,46.309,0,0,0,.431,6.286,43.981,43.981,0,0,0,1.2,5.785A45.167,45.167,0,0,0,96.4,152.1l19.874-19.874,35.352-35.352,23.847-23.847a45.252,45.252,0,0,0,5.059-57.862A9.644,9.644,0,1,1,196.352,4.127,64.57,64.57,0,0,1,189.108,86.658Z" transform="translate(0 128.391)" fill="#f5f5f5"/>
      <path id="Pfad_100" data-name="Pfad 100" d="M207.957,64.43q0,.713-.019,1.427a64.163,64.163,0,0,1-5.354,24.425,62.23,62.23,0,0,1-2.893,5.785,64.639,64.639,0,0,1-10.612,13.942l-34.5,34.5a9.64,9.64,0,0,1-13.633-13.633l34.5-34.5c.1-.1.206-.206.3-.309a44.913,44.913,0,0,0,12.9-30.21c.019-.476.026-.951.026-1.427q0-2.2-.206-4.358a45.127,45.127,0,0,0-13.022-27.587c-.688-.688-1.388-1.35-2.115-1.98a45.18,45.18,0,0,0-59.661,0c-.726.63-1.427,1.292-2.115,1.98L32.482,111.558a45.234,45.234,0,0,0,0,63.891,9.64,9.64,0,0,1-13.633,13.633,64.53,64.53,0,0,1,0-91.157L97.922,18.852A64.525,64.525,0,0,1,198.329,30.505a61.885,61.885,0,0,1,3.195,5.785,63.912,63.912,0,0,1,6.286,23.782Q207.954,62.242,207.957,64.43Z" transform="translate(105.069 0)" fill="#f5f5f5"/>
      <path id="Pfad_105" data-name="Pfad 105" d="M25.711,12.869a13.015,13.015,0,0,1-.257,2.571,12.881,12.881,0,1,1,.257-2.571Z" transform="translate(232.681 50.417)" fill="#f5f5f5"/>
      <path id="Pfad_106" data-name="Pfad 106" d="M25.711,12.869a13,13,0,0,1-.257,2.568,12.881,12.881,0,1,1,.257-2.568Z" transform="translate(43.065 245.175)" fill="#f5f5f5"/>
    </g>
    <g id="undraw_real_time_collaboration_c62i" transform="translate(458.697 2745.849)">
      <path id="Pfad_138" data-name="Pfad 138" d="M660.651,226.165c-6.187,3.711-17.211,8.36-28.476,3.582l-7.282-3.089L639.486,210.3a69.691,69.691,0,1,1,21.165,15.865Zm-27.959-62.794a57.914,57.914,0,0,0,18.439,42.61l4.025,3.782-9.182,10.293A30.655,30.655,0,0,0,657.036,215l2.9-2.062,3.117,1.713a58.471,58.471,0,1,0-30.359-51.276Z" transform="translate(-467.663 -93.788)" fill="#2d2c2c"/>
      <path id="Pfad_139" data-name="Pfad 139" d="M638.315,174.344a64.108,64.108,0,1,1,33.3,56.244c-4.433,3.154-15.248,9.446-25.932,4.914l12.861-14.417a63.951,63.951,0,0,1-20.226-46.741Z" transform="translate(-478.954 -104.761)" fill="#eb7260"/>
      <path id="Pfad_140" data-name="Pfad 140" d="M874.219,174.763a64.136,64.136,0,0,0-58.465-63.881c1.868-.164,3.758-.252,5.668-.252a64.133,64.133,0,0,1,0,128.267c-1.908,0-3.794-.09-5.659-.253A64.136,64.136,0,0,0,874.219,174.763Z" transform="translate(-597.517 -105.041)" opacity="0.1" style="isolation: isolate"/>
      <path id="Pfad_141" data-name="Pfad 141" d="M245.4,479.811a69.876,69.876,0,1,1,51.671-22.872L311.667,473.3l-7.282,3.089c-11.265,4.778-22.288.129-28.476-3.582A69.964,69.964,0,0,1,245.4,479.811Zm0-128.267a58.465,58.465,0,1,0,28.111,109.738l3.112-1.71,2.9,2.062a30.656,30.656,0,0,0,11.061,5.061L281.4,456.4l4.025-3.783a57.915,57.915,0,0,0,18.439-42.61A58.531,58.531,0,0,0,245.4,351.545Z" transform="translate(-169.697 -258.34)" fill="#2d2c2c"/>
      <path id="Pfad_142" data-name="Pfad 142" d="M321.181,421.736a64.108,64.108,0,1,0-33.3,56.244c4.433,3.154,15.248,9.446,25.932,4.914l-12.861-14.417A63.951,63.951,0,0,0,321.181,421.736Z" transform="translate(-181.342 -270.066)" fill="#3e3e3e"/>
      <path id="Pfad_143" data-name="Pfad 143" d="M204.251,420.759a64.136,64.136,0,0,1,58.465-63.881c-1.868-.164-3.758-.252-5.668-.252a64.133,64.133,0,1,0,0,128.267c1.908,0,3.794-.09,5.659-.253A64.136,64.136,0,0,1,204.251,420.759Z" transform="translate(-181.342 -269.414)" opacity="0.1" style="isolation: isolate"/>
      <path id="Pfad_144" data-name="Pfad 144" d="M811.769,227.09c-4.2-7.09-12.5-7.421-12.5-7.421s-8.09-1.035-13.279,9.764c-4.837,10.065-11.512,19.783-1.075,22.139L786.8,245.7l1.168,6.3a40.842,40.842,0,0,0,4.466.076c11.178-.361,21.824.106,21.481-3.906C813.461,242.848,815.806,233.913,811.769,227.09Z" transform="translate(-573.219 -177.883)" fill="#2d2c2c"/>
      <path id="Pfad_145" data-name="Pfad 145" d="M790.837,421.717a16.541,16.541,0,0,1-.535,2.3c-.263.738-.668,1.421-.908,2.167-.765,2.378.3,5.029,1.99,6.864a11.2,11.2,0,0,0,5.461,3.243,22.284,22.284,0,0,0,4.693.493c4.362.148,8.836.28,12.97-1.122a22.527,22.527,0,0,0,3.768-1.712,2.82,2.82,0,0,0,.978-.77,2.691,2.691,0,0,0,.353-1.579c-.009-1.849-.384-3.689-.3-5.536a21.943,21.943,0,0,0,.146-3.065,5.655,5.655,0,0,0-4.322-4.871,11.741,11.741,0,0,0-3.583,0,91.34,91.34,0,0,1-9.323.417c-3.18-.02-6.342-.506-9.506-.557-.936-.015-.917.274-1.215,1.179a22.071,22.071,0,0,0-.672,2.543Z" transform="translate(-579.734 -310.418)" fill="#2f2e41"/>
      <path id="Pfad_146" data-name="Pfad 146" d="M813.8,283.93a5.55,5.55,0,0,1-.8,2.288c-.553.757-1.456,1.189-2.051,1.913a6.256,6.256,0,0,0-.951,4.035,4.97,4.97,0,0,0,2.634,5.428c2.719,1.832,5.656,3.7,8.934,3.757A4.75,4.75,0,0,0,825.275,300a5.568,5.568,0,0,0,.9-1.6,21.266,21.266,0,0,0,1.505-6.474,7.6,7.6,0,0,0-.287-3.11,28.717,28.717,0,0,0-1.735-3.076,6.849,6.849,0,0,1-.659-4.052.438.438,0,0,0-.023-.294.428.428,0,0,0-.353-.143l-6.5-.468a14.148,14.148,0,0,1-1.8-.206c-.35-.071-1.276-.569-1.61-.436C814.09,280.386,813.928,283.266,813.8,283.93Z" transform="translate(-593.672 -218.292)" fill="#a0616a"/>
      <path id="Pfad_147" data-name="Pfad 147" d="M813.8,284.541a5.55,5.55,0,0,1-.8,2.288c-.553.757-1.456,1.189-2.051,1.913a6.256,6.256,0,0,0-.951,4.035,4.97,4.97,0,0,0,2.634,5.428c2.718,1.832,5.656,3.7,8.933,3.757a4.75,4.75,0,0,0,3.708-1.349,5.562,5.562,0,0,0,.9-1.6,21.266,21.266,0,0,0,1.505-6.474,7.6,7.6,0,0,0-.287-3.11,28.716,28.716,0,0,0-1.735-3.076A6.849,6.849,0,0,1,825,282.3a.437.437,0,0,0-.023-.294.427.427,0,0,0-.352-.143l-6.5-.468a14.143,14.143,0,0,1-1.8-.206c-.35-.071-1.276-.569-1.61-.436C814.09,281,813.928,283.878,813.8,284.541Z" transform="translate(-593.672 -218.701)" opacity="0.1"/>
      <circle id="Ellipse_14" data-name="Ellipse 14" cx="9.535" cy="9.535" r="9.535" transform="translate(216.809 47.44)" fill="#a0616a"/>
      <path id="Pfad_148" data-name="Pfad 148" d="M818.548,317.039a5.848,5.848,0,0,0,1.675,1.338,5.262,5.262,0,0,0,2.092.4,6.308,6.308,0,0,0,4.778-1.5c1.541-1.593,1.49-4.162,2.7-6.02a1.34,1.34,0,0,1,.389-.426,1.261,1.261,0,0,1,.662-.152c1.526-.014,2.855.975,4.054,1.918a5.339,5.339,0,0,1,1.427,1.454,4.924,4.924,0,0,1,.481,1.474,64.711,64.711,0,0,1,.979,8.836c.106,1.635.211,3.271.2,4.909-.026,5.4-1.28,10.7-2.528,15.955a2.493,2.493,0,0,1-1,1.757,2.454,2.454,0,0,1-.869.212,106.356,106.356,0,0,1-10.751.9q-2.106.032-4.21-.1a2.267,2.267,0,0,1-.709-.124,2,2,0,0,1-.773-.657c-1.946-2.452-2.061-5.842-2.048-8.972q.046-11.48.82-22.941a2.524,2.524,0,0,0-.4-1.893A23.7,23.7,0,0,0,818.548,317.039Z" transform="translate(-597.082 -238.709)" fill="#fff"/>
      <path id="Pfad_149" data-name="Pfad 149" d="M789.764,294.961c-.322.583-2.7,2.03-3.155,2.514-2.561,2.7-7.235,2.6-9.577,5.489a9.01,9.01,0,0,0-1.567,3.566,8.533,8.533,0,0,0,.063,5.452c.718,1.631,2.229,2.758,3.255,4.214a16.23,16.23,0,0,1,2.118,5.436,12.506,12.506,0,0,1,.58,4.271,25.818,25.818,0,0,1-1.417,4.705c-.467,1.574-.548,3.449.532,4.687a5.347,5.347,0,0,0,3.227,1.472,37.077,37.077,0,0,0,4.6.4c1.36.06,2.858.072,3.9-.8a3.925,3.925,0,0,0,1.229-2.876,18.557,18.557,0,0,0-.317-3.2c-.145-1.1-.2-2.217-.247-3.329q-.314-7.485-.086-14.98a12.742,12.742,0,0,0-.152-3.109,17.037,17.037,0,0,0-1.617-3.759,14.225,14.225,0,0,1-1.577-7.515C789.744,294.924,790.91,292.887,789.764,294.961Z" transform="translate(-570.318 -227.641)" fill="#fff"/>
      <path id="Pfad_150" data-name="Pfad 150" d="M853.115,293.291c.49.5,2.157.67,2.781,1a9.744,9.744,0,0,0,1.828.633,23.734,23.734,0,0,1,6.423,2.948,3.9,3.9,0,0,1,1.074.928,4.252,4.252,0,0,1,.594,1.678,14.28,14.28,0,0,1-.511,9.374l-1.828,5.844a62.685,62.685,0,0,0-3.122,13.322,31.342,31.342,0,0,0,.281,7.567.9.9,0,0,1-.092.733.722.722,0,0,1-.448.206,4.392,4.392,0,0,1-2.536-.71,28.076,28.076,0,0,0-7.74-2.533,17.991,17.991,0,0,0,2.4-4.956,30.028,30.028,0,0,0,.726-3.408l.85-4.918a48.3,48.3,0,0,0,.729-5.439,6.8,6.8,0,0,0-.118-2.049,9.931,9.931,0,0,0-.777-1.848,15.788,15.788,0,0,1-1.508-9.429,13.775,13.775,0,0,0,.515-4.194,29.511,29.511,0,0,0-.339-3.73C850.883,288.828,852.192,292.343,853.115,293.291Z" transform="translate(-620.279 -225.768)" fill="#fff"/>
      <path id="Pfad_151" data-name="Pfad 151" d="M776.386,326.852c-.639,1.326-1.707,2.455-2.071,3.882a8.479,8.479,0,0,0-.181,2.029,9.635,9.635,0,0,0,.3,3.051c.2.629.533,1.209.771,1.825a6.617,6.617,0,0,1,.434,2.7c-.064,1.277-.5,2.517-.532,3.8a12.282,12.282,0,0,0,1.784,5.695,4.186,4.186,0,0,1,6.085-1.992,1.249,1.249,0,0,0,.274-.91q.1-3.5.194-7a41.834,41.834,0,0,0-.638-10.774,10.165,10.165,0,0,0-2.026-4.395c-.563-.648-2.473-2.353-3.4-1.628-.415.326-.318,1.214-.384,1.664a7.059,7.059,0,0,1-.614,2.051Z" transform="translate(-569.695 -246.919)" fill="#fff"/>
      <path id="Pfad_152" data-name="Pfad 152" d="M877.872,316.34a9.757,9.757,0,0,1,.326,2.935q.018,3.024-.08,6.047a11.276,11.276,0,0,1-.393,3.062c-.206.649-.525,1.257-.738,1.9-.639,1.938-.29,4.04-.235,6.08a6.91,6.91,0,0,1-.167,1.967,16.2,16.2,0,0,1-1.875,3.432,33.746,33.746,0,0,1-1.68,3.323,3.169,3.169,0,0,1-3.161,1.508,3.49,3.49,0,0,1-2.007-1.871,9.178,9.178,0,0,1-.949-5.954c.45-2.476,1.9-4.672,2.428-7.133.72-3.379-.374-6.867-.342-10.322a4.988,4.988,0,0,1,.217-1.6,6.7,6.7,0,0,1,1.412-2.052,25.928,25.928,0,0,0,1.9-2.49c.391-.583.921-2.082,1.614-2.206C875.687,312.691,877.488,315.145,877.872,316.34Z" transform="translate(-631.605 -240.228)" fill="#fff"/>
      <path id="Pfad_153" data-name="Pfad 153" d="M739.066,424.118a9.415,9.415,0,0,0-2.618-.278,6.534,6.534,0,0,0-6.066,7.7,10.978,10.978,0,0,0,1.037,2.835,9.472,9.472,0,0,0,2.812,3.718,10.953,10.953,0,0,0,2.482,1.181l6.769,2.55c1,.375,1.992.75,3,1.1a58.631,58.631,0,0,0,15.656,3.113A16.949,16.949,0,0,0,767,445.79a1.582,1.582,0,0,0,1-.538,1.7,1.7,0,0,0,.222-.735l.417-2.916a2.441,2.441,0,0,0-.035-1.229,2.354,2.354,0,0,0-1.125-1.06c-4.45-2.556-9.647-3.966-13.393-7.474-.882-.826-1.62-2.135-2.691-2.7-1.215-.636-2.646-1-3.9-1.585A43.2,43.2,0,0,0,739.066,424.118Z" transform="translate(-540.401 -314.321)" fill="#2f2e41"/>
      <path id="Pfad_154" data-name="Pfad 154" d="M771.033,435.188c2.393.75,12.495,5.944,14.226,7.757-.232.084-8.107-4.329-8.343-4.4a47.578,47.578,0,0,1-6.347-2.237c-.41-.19-2.666-1.082-2.564-1.6C768.12,434.125,770.608,435.055,771.033,435.188Z" transform="translate(-565.609 -321.46)" opacity="0.1"/>
      <path id="Pfad_155" data-name="Pfad 155" d="M847.34,482.84a.562.562,0,0,0,.379-.112.585.585,0,0,0,.119-.436l-.011-3.973a12.212,12.212,0,0,0-3.674-.886l-5.852-.782c.134.018-.915,2.521-.754,2.855.284.589,2.451,1.111,3.063,1.389C842.736,481.861,844.945,482.924,847.34,482.84Z" transform="translate(-612.067 -349.613)" fill="#a0616a"/>
      <path id="Pfad_156" data-name="Pfad 156" d="M804.5,475.893a4.742,4.742,0,0,0-3.054,1.192c-.907,1.091-.521,2.717-.088,4.068a1.319,1.319,0,0,0,1.539,1.1,5.319,5.319,0,0,0,2.961-.38,12.983,12.983,0,0,0,1.15-.855,7.376,7.376,0,0,1,2.115-.967,21.385,21.385,0,0,1,4.244-.875,6.6,6.6,0,0,0,1.672-.295,1.853,1.853,0,0,0,1.178-1.143,2.724,2.724,0,0,0-.618-2.091,8.341,8.341,0,0,0-1.78-2.2c-1.09-.847-1.63-.2-2.728.345A23.147,23.147,0,0,1,804.5,475.893Z" transform="translate(-587.585 -347.2)" fill="#a0616a"/>
      <path id="Pfad_157" data-name="Pfad 157" d="M776.169,479.438l-7.016-2.074a9.287,9.287,0,0,0-2.611-.506,3.134,3.134,0,0,0-2.4.97,4.668,4.668,0,0,0-.835,2.339l-.29,1.771a8.891,8.891,0,0,0-.162,2.719,3.007,3.007,0,0,0,1.394,2.24,4.8,4.8,0,0,0,3.244.049,35.32,35.32,0,0,1,6.649-.713,5.336,5.336,0,0,0,2.463-.393,3.075,3.075,0,0,0,1.5-2.45C778.245,481.878,777.74,479.9,776.169,479.438Z" transform="translate(-562.145 -349.75)" fill="#2f2e41"/>
      <path id="Pfad_158" data-name="Pfad 158" d="M869.421,476.34a17.044,17.044,0,0,0,2.584-.981,11.491,11.491,0,0,1,3.856-.425,1.867,1.867,0,0,1,2.2,2.1l.587,4.108a6.442,6.442,0,0,1,.048,2.327,2.189,2.189,0,0,1-1.447,1.692c-.917.238-1.817-.348-2.683-.733-2.165-.962-4.682-.716-6.94-1.435a1.555,1.555,0,0,1-1.039-.743,1.691,1.691,0,0,1-.081-.71c.039-1.32-.24-3.123.158-4.385C867.022,476.021,868.406,476.34,869.421,476.34Z" transform="translate(-631.39 -348.459)" fill="#2f2e41"/>
      <path id="Pfad_159" data-name="Pfad 159" d="M861.266,418.97a12.183,12.183,0,0,1,4.292-.293,4.524,4.524,0,0,1,4.542,5.106,12.079,12.079,0,0,1-2.625,7.714,7,7,0,0,1-1.5,1.445,9.877,9.877,0,0,1-1.953.941l-15.16,5.979a97.936,97.936,0,0,1-12.15,4.188.947.947,0,0,1-1.274-.462,31.415,31.415,0,0,1-3.323-6.078.41.41,0,0,1,.181-.646l10.722-6.161a10.841,10.841,0,0,0,2.182-1.5,5.418,5.418,0,0,0,1.12-1.56c.222-.464.243-1.56.527-1.9s1.229-.363,1.668-.495a15.144,15.144,0,0,0,1.816-.686c2.4-1.073,4.534-2.632,6.834-3.889A17.534,17.534,0,0,1,861.266,418.97Z" transform="translate(-608.386 -310.827)" fill="#2f2e41"/>
      <path id="Pfad_160" data-name="Pfad 160" d="M867.179,431.208c-1.842,1.384-4.227,2.655-6.053,4.075-.623.485-11.011,6.325-11.157,7.1,1.7.287,12.554-7.3,14.106-8.061a25.068,25.068,0,0,0,4.292-2.886c.348-.27,1.82-1.082.823-1.384C868.628,429.882,867.594,430.931,867.179,431.208Z" transform="translate(-620.379 -318.464)" opacity="0.1"/>
      <path id="Pfad_161" data-name="Pfad 161" d="M825.731,297.692H809.56a2.477,2.477,0,0,0-2.477,2.477v.907h-.176v2.029h.176v1.42h-.176v1.217h.176v14.968a2.477,2.477,0,0,0,2.477,2.477h16.171a2.477,2.477,0,0,0,2.477-2.477V300.17A2.477,2.477,0,0,0,825.731,297.692Z" transform="translate(-591.606 -230.035)" fill="#d0cde1"/>
      <path id="Pfad_162" data-name="Pfad 162" d="M669.3,138.249l-8.2-4.3-11.326,1.758-2.343,10.35,5.833-.225,1.63-3.8v3.74l2.692-.1,1.562-6.054.976,6.444,9.569-.2Z" transform="translate(-432.608 -89.725)" fill="#2d2c2c"/>
      <path id="Pfad_163" data-name="Pfad 163" d="M784.146,362.517a4.262,4.262,0,0,0,1.531,1.523,2.994,2.994,0,0,0,2.632-.071,4.633,4.633,0,0,0,1.9-1.9,9.477,9.477,0,0,0,.965-5.263c-.111-1.805-.5-3.583-.667-5.384-.124-1.309-.134-2.626-.144-3.941a1.311,1.311,0,0,1,.166-.8,1.565,1.565,0,0,1,.879-.439c1.8-.534,2.993-2.221,3.849-3.891a6.745,6.745,0,0,0,.958-3.582,2.813,2.813,0,0,0-2.254-2.633,3.614,3.614,0,0,0-2.718,1.267,11.656,11.656,0,0,0-3.413,6.82,26.407,26.407,0,0,1-.461,3.805c-.737,2.631-3.043,4.244-4.193,6.611A7.974,7.974,0,0,0,784.146,362.517Z" transform="translate(-575.31 -255.714)" fill="#a0616a"/>
      <path id="Pfad_164" data-name="Pfad 164" d="M868.094,336.667a4.972,4.972,0,0,1-2.788,2.679,3.851,3.851,0,0,1-2.424.148,2.688,2.688,0,0,1-1.776-1.588,4.28,4.28,0,0,1-.2-1.193,12.291,12.291,0,0,1,.574-5.259c.249-.639.584-1.245.78-1.9a9.539,9.539,0,0,0,.294-2.322l.212-4.841a3.155,3.155,0,0,0-.072-1.05,3.316,3.316,0,0,0-1.467-1.573,9.64,9.64,0,0,1-3.587-3.807,2.671,2.671,0,0,1-.248-1.577,2.621,2.621,0,0,1,2.127-1.793,4.758,4.758,0,0,1,5.7,3.834c.095.546.094,1.1.149,1.656.118,1.17.489,2.3.722,3.451.572,2.84.276,5.776.842,8.615C867.409,332.52,869.193,334.069,868.094,336.667Z" transform="translate(-625.319 -239.915)" fill="#a0616a"/>
      <circle id="Ellipse_15" data-name="Ellipse 15" cx="2.029" cy="2.029" r="2.029" transform="translate(224.227 74.49)" fill="#2480bc"/>
      <ellipse id="Ellipse_16" data-name="Ellipse 16" cx="5.984" cy="5.984" rx="5.984" ry="5.984" transform="translate(0 137.46)" fill="#eb7260"/>
      <path id="Pfad_165" data-name="Pfad 165" d="M65.153,480.61l-3.014-2.93-6.053,1.88.581,7.008,12.445-.578L65.289,480.8Z" transform="translate(-37.477 -319.4)" fill="#fbbebe"/>
      <ellipse id="Ellipse_17" data-name="Ellipse 17" cx="9.675" cy="9.675" rx="9.675" ry="9.675" transform="translate(11.409 141.8)" fill="#fbbebe"/>
      <path id="Pfad_166" data-name="Pfad 166" d="M391.838,617.061s11.886,20.426,14.714,23.492a51.319,51.319,0,0,0,4.292,4.278s-1.33,4.411-3.448,4.253a9.972,9.972,0,0,1-3.494-.861,8.477,8.477,0,0,0-2.594-3.525c-1.649-1.075-15.12-14.328-14.805-18.563S391.838,617.061,391.838,617.061Z" transform="translate(-310.693 -443.434)" fill="#2f2e41"/>
      <path id="Pfad_167" data-name="Pfad 167" d="M275.023,678.5s12.673,9.836,29.9.594L306.4,678s-2.5,5.635-2.737,7.163c-.269,1.771-6.791,12.148-7.855,12.645a2.76,2.76,0,0,0-1.3.956l4.516,4.971,1.67-1.229s6.511-9.225,8.415-10.912,10.977-19.09,10.977-19.09,3.469-6.557-5.188-7.05-12.641,1.866-12.641,1.866L286.9,669.763Z" transform="translate(-236.206 -475.726)" fill="#2f2e41"/>
      <path id="Pfad_168" data-name="Pfad 168" d="M441.936,697.841l6.41,4.435s8.178,2.562,3.14,4.267-18.312,2.322-18.613-.031.524-6.055,1.186-5.853S439.318,702.056,441.936,697.841Z" transform="translate(-341.637 -497.41)" fill="#2f2e41"/>
      <path id="Pfad_169" data-name="Pfad 169" d="M332.409,766.357l1.186,6.515s3.374,6.452-.677,4.45-12.4-9.606-11.163-11.2,3.952-3.323,4.228-2.8A5.814,5.814,0,0,0,332.409,766.357Z" transform="translate(-267.35 -541.099)" fill="#2f2e41"/>
      <path id="Pfad_170" data-name="Pfad 170" d="M240.3,610.658s-8.615,10.058-13.845,7.615-26.627-30.742-24.184-35.972,3.262-4.117,3.262-4.117l11.048,1.022-3.179-5.1a2.15,2.15,0,0,1,2.9.441c1.414,1.533,7.093,5.363,9.071,10.771s7.786,5.139,7.786,5.139Z" transform="translate(-187.467 -414.482)" fill="#fff"/>
      <path id="Pfad_171" data-name="Pfad 171" d="M207.074,482.806l-14.933,15.852-13.377-23.618,12.717-15.365Z" transform="translate(-119.449 -307.369)" fill="#3f3d56"/>
      <path id="Pfad_172" data-name="Pfad 172" d="M208.915,485.278l-13.487,13.93-12.222-21.465,11.209-14.112Z" transform="translate(-122.417 -310.013)" fill="#fff"/>
      <path id="Pfad_173" data-name="Pfad 173" d="M174.956,575.336l.732.606-.469.917-20.881,6.215-.2-.715.95-.982Z" transform="translate(-102.995 -384.653)" fill="#b3b3b3"/>
      <path id="Pfad_174" data-name="Pfad 174" d="M149.551,529.463l-21.623,6.761-13.181-24.907,21.241-5.336Z" transform="translate(-76.673 -338.311)" fill="#d0cde1"/>
      <path id="Pfad_175" data-name="Pfad 175" d="M192.131,530.942l-.928.683-10.3-17.877,1.064-.5Z" transform="translate(-120.881 -343.168)" fill="#3f3d56"/>
      <path id="Pfad_176" data-name="Pfad 176" d="M168.988,533.84l-9.147,2.727-10.384-18.385,9.049-2.083Z" transform="translate(-99.866 -345.072)" fill="#3f3d56"/>
      <path id="Pfad_177" data-name="Pfad 177" d="M286.352,620.082l1.894-.536s10.561-1.194,10.716,2.124-12.133,1.779-12.133,1.779l-1.638-2.226Z" transform="translate(-242.999 -444.955)" fill="#fbbebe"/>
      <path id="Pfad_178" data-name="Pfad 178" d="M311.858,651.05l2.636-1.082s7.957-3.568,5.674-5.892-9.322,1.712-9.322,1.712l-1.348,1.278Z" transform="translate(-259.242 -461.003)" fill="#fbbebe"/>
      <path id="Pfad_179" data-name="Pfad 179" d="M238.738,625.98s4.292,4.278,3.315,5.282-16.992,14.22-20.961,9.992-23.312-25.459-15.786-27.28,9.515,2.436,9.515,2.436l9.936,17Z" transform="translate(-188.471 -441.069)" fill="#fff"/>
      <path id="Pfad_180" data-name="Pfad 180" d="M111.713,518.781l7.05,2.391-.115,5.09-7.456-.8Z" transform="translate(-74.298 -346.864)" fill="#fff"/>
      <path id="Pfad_181" data-name="Pfad 181" d="M99.14,547.961l-7.6,4.446L82.865,539.06l8.378,11Z" transform="translate(-55.37 -360.414)" opacity="0.2"/>
      <ellipse id="Ellipse_18" data-name="Ellipse 18" cx="11.518" cy="11.518" rx="11.518" ry="11.518" transform="translate(5.32 137.152)" fill="#eb7260"/>
      <path id="Pfad_182" data-name="Pfad 182" d="M227.131,486.741,212.7,465.26l1.41-1.794L228.666,485.2Z" transform="translate(-142.125 -309.903)" fill="#eb7260"/>
      <path id="Pfad_183" data-name="Pfad 183" d="M212.891,509.295l-12.278-17.849.606-.732,12.22,17.891Z" transform="translate(-131.394 -331.096)" fill="#e6e6e6"/>
      <path id="Pfad_184" data-name="Pfad 184" d="M208.123,514.528l-12.278-17.849.606-.732,12.22,17.892Z" transform="translate(-128.208 -334.592)" fill="#e6e6e6"/>
      <path id="Pfad_185" data-name="Pfad 185" d="M204.061,518.379,191.783,500.53l.606-.732,12.22,17.892Z" transform="translate(-125.494 -337.166)" fill="#e6e6e6"/>
      <path id="Pfad_186" data-name="Pfad 186" d="M66.117,425.544H69.68a6.8,6.8,0,0,1,6.8,6.8H66.117Z" transform="translate(-44.179 -284.564)" fill="#eb7260"/>
      <path id="Pfad_187" data-name="Pfad 187" d="M364.8,505.529l-.646-.048c-.025.336-.043.674-.064,1.011l-2.9-.1,3.041,5.7,3.416-5.483-2.91-.1C364.756,506.185,364.774,505.856,364.8,505.529Z" transform="translate(-293.781 -368.877)" fill="#f5f5f5"/>
      <path id="Pfad_188" data-name="Pfad 188" d="M423.317,359.536l.515.393c.772-1.012,1.579-2.022,2.4-3l-.5-.415C424.907,357.5,424.095,358.516,423.317,359.536Z" transform="translate(-335.294 -269.337)" fill="#f5f5f5"/>
      <path id="Pfad_189" data-name="Pfad 189" d="M438.272,342.091l.478.437c.859-.941,1.752-1.876,2.652-2.779l-.459-.457C440.036,340.2,439.138,341.143,438.272,342.091Z" transform="translate(-345.287 -257.831)" fill="#f5f5f5"/>
      <path id="Pfad_190" data-name="Pfad 190" d="M454.736,326.079l.438.477c.94-.863,1.91-1.716,2.884-2.534l-.417-.5C456.66,324.351,455.683,325.21,454.736,326.079Z" transform="translate(-356.288 -247.297)" fill="#f5f5f5"/>
      <path id="Pfad_191" data-name="Pfad 191" d="M409.991,378.28l.548.346c.681-1.077,1.4-2.155,2.125-3.2l-.532-.37C411.4,376.11,410.677,377.2,409.991,378.28Z" transform="translate(-326.39 -281.727)" fill="#f5f5f5"/>
      <path id="Pfad_192" data-name="Pfad 192" d="M472.579,311.622l.394.514c1.012-.777,2.053-1.541,3.095-2.27l-.371-.531C474.647,310.07,473.6,310.839,472.579,311.622Z" transform="translate(-368.211 -237.815)" fill="#f5f5f5"/>
      <path id="Pfad_193" data-name="Pfad 193" d="M398.406,398.185l.576.3c.584-1.135,1.2-2.272,1.834-3.38l-.562-.322C399.616,395.9,398.994,397.042,398.406,398.185Z" transform="translate(-318.649 -294.908)" fill="#f5f5f5"/>
      <path id="Pfad_194" data-name="Pfad 194" d="M376.537,459.672l-.627-.161c-.32,1.243-.617,2.51-.881,3.767l.634.133C375.926,462.164,376.22,460.906,376.537,459.672Z" transform="translate(-303.029 -338.16)" fill="#f5f5f5"/>
      <path id="Pfad_195" data-name="Pfad 195" d="M491.665,298.836l.348.547c1.074-.683,2.178-1.352,3.281-1.987l-.323-.561C493.858,297.474,492.746,298.148,491.665,298.836Z" transform="translate(-380.964 -229.461)" fill="#f5f5f5"/>
      <path id="Pfad_196" data-name="Pfad 196" d="M372.428,482.431l-.639-.105c-.208,1.265-.391,2.553-.543,3.83l.643.077C372.04,484.966,372.221,483.687,372.428,482.431Z" transform="translate(-300.501 -353.405)" fill="#f5f5f5"/>
      <path id="Pfad_197" data-name="Pfad 197" d="M388.661,419.1l.6.244c.48-1.182.994-2.37,1.527-3.531l-.589-.27C389.662,416.714,389.145,417.911,388.661,419.1Z" transform="translate(-312.138 -308.783)" fill="#f5f5f5"/>
      <path id="Pfad_198" data-name="Pfad 198" d="M380.841,440.87l.62.189c.374-1.222.78-2.452,1.207-3.655l-.61-.217C381.626,438.4,381.217,439.638,380.841,440.87Z" transform="translate(-306.912 -323.244)" fill="#f5f5f5"/>
      <path id="Pfad_199" data-name="Pfad 199" d="M623.688,262.542c1.27-.044,2.563-.061,3.842-.05l.006-.648c-1.288-.012-2.591.005-3.87.05Z" transform="translate(-469.165 -206.079)" fill="#f5f5f5"/>
      <path id="Pfad_200" data-name="Pfad 200" d="M511.845,287.824l.3.575c1.131-.586,2.289-1.154,3.442-1.688l-.272-.588C514.151,286.662,512.984,287.234,511.845,287.824Z" transform="translate(-394.448 -222.305)" fill="#f5f5f5"/>
      <path id="Pfad_201" data-name="Pfad 201" d="M669.93,265.1c1.264.179,2.539.388,3.791.623l.119-.637c-1.261-.236-2.546-.447-3.819-.627Z" transform="translate(-500.079 -207.826)" fill="#f5f5f5"/>
      <path id="Pfad_202" data-name="Pfad 202" d="M692.685,269.375c1.241.29,2.493.612,3.72.957l.175-.624c-1.237-.348-2.5-.672-3.748-.964Z" transform="translate(-515.284 -210.692)" fill="#f5f5f5"/>
      <path id="Pfad_203" data-name="Pfad 203" d="M714.969,275.672c1.21.4,2.428.831,3.62,1.284l.23-.605c-1.2-.457-2.429-.892-3.647-1.294Z" transform="translate(-530.173 -214.91)" fill="#f5f5f5"/>
      <path id="Pfad_204" data-name="Pfad 204" d="M646.886,262.857c1.276.067,2.565.163,3.832.285l.063-.645c-1.276-.124-2.575-.22-3.86-.288Z" transform="translate(-484.681 -206.326)" fill="#f5f5f5"/>
      <path id="Pfad_205" data-name="Pfad 205" d="M600.423,263.048l.079.643c1.262-.155,2.548-.285,3.82-.385l-.051-.646C602.99,262.761,601.695,262.892,600.423,263.048Z" transform="translate(-453.635 -206.627)" fill="#f5f5f5"/>
      <path id="Pfad_206" data-name="Pfad 206" d="M554.877,271.458l.192.619c1.217-.377,2.46-.731,3.693-1.054l-.164-.627C557.356,270.721,556.1,271.078,554.877,271.458Z" transform="translate(-423.202 -211.796)" fill="#f5f5f5"/>
      <path id="Pfad_207" data-name="Pfad 207" d="M532.961,278.678l.246.6c1.178-.483,2.381-.946,3.576-1.375l-.219-.61C535.359,277.725,534.147,278.191,532.961,278.678Z" transform="translate(-408.557 -216.404)" fill="#f5f5f5"/>
      <path id="Pfad_208" data-name="Pfad 208" d="M577.434,266.235l.136.634c1.245-.267,2.513-.51,3.772-.721l-.107-.639C579.966,265.722,578.688,265.966,577.434,266.235Z" transform="translate(-438.274 -208.53)" fill="#f5f5f5"/>
      <path id="Pfad_209" data-name="Pfad 209" d="M742.035,282.079l-3.62-5.35-1.273,2.62c-.308-.138-.615-.278-.922-.411l-.258.595c.3.13.6.266.9.4l-1.267,2.608Z" transform="translate(-543.953 -216.027)" fill="#f5f5f5"/>
    </g>
  </g>
</svg>
