<svg id="Layer_1" data-name="Layer 1" xmlns="http://www.w3.org/2000/svg" viewBox="0 0 100 100"><defs><style>.cls-1{fill:#e8f4fa;}.cls-2{fill:#020202;opacity:0.15;}.cls-3{fill:#fff5e3;}.cls-4{fill:#f7e5c6;}.cls-13,.cls-4,.cls-6,.cls-7,.cls-8{stroke:#45413c;stroke-linejoin:round;}.cls-5,.cls-7{fill:#fff;}.cls-6,.cls-8{fill:none;}.cls-8{stroke-linecap:round;}.cls-9{fill:#525252;}.cls-10{fill:#656769;}.cls-11,.cls-13{fill:#ffe500;}.cls-12{fill:#fff48c;}</style></defs><title>write-paper-ink</title><g id="_Group_" data-name="&lt;Group&gt;"><circle class="cls-1" cx="50" cy="50" r="40"/></g><path class="cls-2" d="M22.35,78.93c0,1,7.21,1.89,16.1,1.89s16.1-.85,16.1-1.89S47.34,77,38.45,77,22.35,77.88,22.35,78.93Z"/><path class="cls-3" d="M49.2,78.29h0a5.06,5.06,0,0,1-5.06-5.06V45.4a5.06,5.06,0,0,0-5.06-5.06H21.37a5.06,5.06,0,0,1,5.06,5.06V73.23a5.06,5.06,0,0,0,5.06,5.06Z"/><path class="cls-4" d="M26.43,45.4a5.06,5.06,0,1,0-10.12,0v5.81a1.15,1.15,0,0,0,1.15,1.15h9Z"/><path class="cls-5" d="M23.9,40.34H39.08a5,5,0,0,1,4.69,3.17H26.06a5,5,0,0,0-2.16-2.46Z"/><path class="cls-6" d="M49.2,78.29h0a5.06,5.06,0,0,1-5.06-5.06V45.4a5.06,5.06,0,0,0-5.06-5.06H21.37a5.06,5.06,0,0,1,5.06,5.06V73.23a5.06,5.06,0,0,0,5.06,5.06Z"/><path class="cls-7" d="M49.2,78.29a5.05,5.05,0,0,0,5-5.55A5.21,5.21,0,0,0,49,68.17H34.9a.58.58,0,0,0-.34,1,5.06,5.06,0,0,1-3.07,9.08Z"/><line class="cls-8" x1="40.35" y1="47.93" x2="30.86" y2="47.93"/><line class="cls-8" x1="40.35" y1="51.73" x2="30.86" y2="51.73"/><line class="cls-8" x1="38.68" y1="55.52" x2="33.62" y2="55.52"/><line class="cls-8" x1="38.68" y1="59.32" x2="34.89" y2="59.32"/><polygon class="cls-9" points="55.09 53.16 49.73 47.79 54.2 41.53 61.35 48.69 55.09 53.16"/><polygon class="cls-10" points="54.2 41.53 49.73 47.79 52.8 50.86 58.16 45.49 54.2 41.53"/><path class="cls-9" d="M61.36,48.69,54.2,41.53,74.43,23.69a3.66,3.66,0,0,1,5.12,5.22Z"/><path class="cls-10" d="M79.44,23.84a3.65,3.65,0,0,0-5-.15L54.2,41.53l4,4L79.62,24.05C79.56,24,79.51,23.91,79.44,23.84Z"/><path class="cls-11" d="M48.56,60.23a3.44,3.44,0,0,1-2.71,1.38c-1.68,0-4.28.26-6,1.39,1.12-1.69,1.36-4.28,1.38-6a3.45,3.45,0,0,1,1.39-2.71L48.39,50l4.47,4.47Z"/><path class="cls-12" d="M48.39,50l-5.73,4.3A3.45,3.45,0,0,0,41.27,57c0,1.68-.26,4.27-1.38,6L50.62,52.26Z"/><polygon class="cls-13" points="52.86 54.5 48.38 50.03 49.73 47.79 55.09 53.16 52.86 54.5"/><path class="cls-6" d="M48.56,60.23a3.44,3.44,0,0,1-2.71,1.38c-1.68,0-4.28.26-6,1.39,1.12-1.69,1.36-4.28,1.38-6a3.45,3.45,0,0,1,1.39-2.71L48.39,50l4.47,4.47Z"/><polygon class="cls-6" points="55.09 53.16 49.73 47.79 54.2 41.53 61.35 48.69 55.09 53.16"/><path class="cls-6" d="M46.6,58.08a1.27,1.27,0,0,1-1.79,0,1.26,1.26,0,0,1,0-1.79,1.27,1.27,0,0,1,1.79,1.79Z"/><line class="cls-6" x1="44.81" y1="58.08" x2="40.34" y2="62.55"/><path class="cls-8" d="M78.07,30.52l.81.8a2.54,2.54,0,0,1,.08,3.5l-7.77,8.5"/><polygon class="cls-13" points="56.1 39.85 54.2 41.53 61.35 48.69 63.07 46.82 56.1 39.85"/><path class="cls-6" d="M61.36,48.69,54.2,41.53,74.43,23.69a3.66,3.66,0,0,1,5.12,5.22Z"/></svg>