<?xml version="1.0" standalone="no"?>
<!DOCTYPE svg PUBLIC "-//W3C//DTD SVG 20010904//EN"
 "http://www.w3.org/TR/2001/REC-SVG-20010904/DTD/svg10.dtd">
<svg version="1.0" xmlns="http://www.w3.org/2000/svg"
 width="260.000000pt" height="260.000000pt" viewBox="0 0 260.000000 260.000000"
 preserveAspectRatio="xMidYMid meet">
<metadata>
Created by potrace 1.11, written by Peter Selinger 2001-2013
</metadata>
<g transform="translate(0.000000,260.000000) scale(0.100000,-0.100000)"
fill="#000000" stroke="none">
<path d="M510 2411 c-181 -46 -324 -169 -415 -356 -61 -124 -85 -230 -90 -390
-4 -154 10 -237 60 -341 80 -167 201 -282 473 -451 245 -152 284 -178 369
-245 149 -120 296 -284 366 -406 l30 -54 16 34 c39 82 103 160 246 303 130
130 231 208 461 356 220 142 281 187 365 271 154 155 209 298 205 527 -4 184
-41 322 -122 456 -122 201 -318 309 -544 300 -92 -3 -103 -5 -174 -29 -175
-60 -334 -204 -427 -389 l-31 -60 -18 41 c-61 136 -195 288 -317 361 -68 41
-89 49 -184 75 -66 18 -193 16 -269 -3z"/>
</g>
</svg>
