<svg version="1" xmlns="http://www.w3.org/2000/svg" width="682.667" height="682.667" viewBox="0 0 512.000000 512.000000"><path d="M100.5 21.6c-14.9 11.8-27.9 22.3-29 23.2-1.1.9-3.7 2.9-5.7 4.4-2 1.5-4.2 3.3-5 4.1-.7.7-10.1 8.2-20.8 16.7-10.7 8.5-20.4 16.2-21.5 17.1-1.1.9-5.6 4.6-10 8.1l-8 6.5-.3 103-.2 103 25.6 20.4c14.1 11.2 26.2 20.9 26.8 21.4.6.6 5.4 4.4 10.6 8.5 5.2 4.1 10.6 8.5 12 9.6 2 1.7 90.6 72.5 133 106.3 5.2 4.2 10 8 10.6 8.6.6.5 2.9 2.3 5 4 7.3 5.7 18.9 15 19.4 15.5.3.3 2.1 1.7 4 3.1 1.9 1.5 4.6 3.6 5.9 4.8 1.3 1.1 2.6 2.1 2.9 2.1.4 0 7-5.1 11.2-8.6 1.4-1.2 14.2-11.5 28.5-22.9 14.3-11.3 26.9-21.4 28-22.3 1.1-.9 9.7-7.8 19-15.2 9.4-7.4 17.2-13.7 17.5-14 .3-.3 12-9.7 26-20.8 14-11.2 26.4-21.1 27.5-22 1.1-1 23.7-19.1 50.2-40.2l48.3-38.5V102.2L474.3 72c-20.8-16.5-38.6-30.7-39.5-31.5-.9-.8-12.7-10.2-26.2-21L384-.2l-11.2 8.9c-10.3 8.2-75.2 60-82.3 65.7-1.6 1.4-5.5 4.4-8.5 6.8-3 2.3-5.7 4.5-6 4.8-.3.3-2.5 2.1-5 4s-4.7 3.7-5 4c-.3.3-2.6 2.2-5.3 4.3l-4.7 3.9-6.8-5.4c-3.7-2.9-11.6-9.3-17.7-14.1-12.3-9.9-11-8.8-22.5-18-4.7-3.8-9.2-7.4-10-8-11.2-8.8-25.9-20.6-27.5-21.9-8.1-6.7-39.7-31.9-41.6-33.1-2.4-1.6-2.7-1.4-29.4 19.9z"/></svg>