<svg viewBox="0 0 24 24" xmlns="http://www.w3.org/2000/svg"><path d="M22.5 3h-9.013C10.167 8.903 10 12.5 10 12.5h4s-.5 2.208-.5 4.5c0 1.57.248 2.93.541 4H22.5a.5.5 0 00.5-.5v-17a.5.5 0 00-.5-.5z" fill="#F2F2F2"/><linearGradient gradientUnits="userSpaceOnUse" id="a" x1="7.468" x2="7.53" y1="3.243" y2="23.993"><stop offset="0" stop-color="#15bef0"/><stop offset=".145" stop-color="#17b7eb"/><stop offset=".353" stop-color="#1ca4de"/><stop offset=".6" stop-color="#2585c7"/><stop offset=".873" stop-color="#305aa9"/><stop offset="1" stop-color="#374499"/></linearGradient><path d="M14 12.5h-4s.166-3.597 3.487-9.5H1.5a.5.5 0 00-.5.5v17a.5.5 0 00.5.5h12.541a15.128 15.128 0 01-.541-4c0-2.292.5-4.5.5-4.5z" fill="url(#a)"/><path d="M12 17.5c-2.677 0-5.274-.6-7.718-1.784a.5.5 0 01.436-.9 16.654 16.654 0 0014.564 0 .5.5 0 01.436.9A17.572 17.572 0 0112 17.5zM6.5 9a.5.5 0 01-.5-.5v-2a.5.5 0 111 0v2a.5.5 0 01-.5.5zM16.5 9a.5.5 0 01-.5-.5v-2a.5.5 0 111 0v2a.5.5 0 01-.5.5z" fill="#1A1A1A"/><path d="M22.5 3h-21a.5.5 0 00-.5.5v.25a.5.5 0 01.5-.5h21a.5.5 0 01.5.5V3.5a.5.5 0 00-.5-.5z" fill="#FFF" opacity=".2"/><path d="M22.5 20.75h-21a.5.5 0 01-.5-.5v.25a.5.5 0 00.5.5h21a.5.5 0 00.5-.5v-.25a.5.5 0 01-.5.5z" opacity=".1"/><linearGradient gradientUnits="userSpaceOnUse" id="b" x1="-.334" x2="24.334" y1="6.249" y2="17.751"><stop offset="0" stop-color="#fff" stop-opacity=".2"/><stop offset="1" stop-color="#fff" stop-opacity="0"/></linearGradient><path d="M22.5 3h-21a.5.5 0 00-.5.5v17a.5.5 0 00.5.5h21a.5.5 0 00.5-.5v-17a.5.5 0 00-.5-.5z" fill="url(#b)"/></svg>