<?xml version="1.0" encoding="UTF-8"?>
<svg width="1587.3" height="423.07" version="1.1" viewBox="-11.153 -13.144 207.02 55.183" xmlns="http://www.w3.org/2000/svg" xmlns:cc="http://creativecommons.org/ns#" xmlns:dc="http://purl.org/dc/elements/1.1/" xmlns:rdf="http://www.w3.org/1999/02/22-rdf-syntax-ns#" xmlns:xlink="http://www.w3.org/1999/xlink">
 <metadata>
  <rdf:RDF>
   <cc:Work rdf:about="">
    <dc:format>image/svg+xml</dc:format>
    <dc:type rdf:resource="http://purl.org/dc/dcmitype/StillImage"/>
    <dc:title/>
   </cc:Work>
  </rdf:RDF>
 </metadata>
 <g transform="matrix(2.0768 0 0 -2.0768 -113.27 57.731)">
  <defs>
   <path id="a" d="m-84.525-27.457h326.05v105.91h-326.05z"/>
  </defs>
  <clipPath id="b">
   <use width="100%" height="100%" overflow="visible" xlink:href="#a"/>
  </clipPath>
  <g clip-path="url(#b)">
   <path d="m117.33 26.863c-0.424-2.784-2.55-2.784-4.606-2.784h-1.17l0.821 5.198c0.05 0.314 0.32 0.545 0.638 0.545h0.537c1.4 0 2.722 0 3.404-0.797 0.407-0.477 0.53-1.185 0.376-2.162m-0.895 7.264h-7.756a1.08 1.08 0 0 1-1.066-0.91l-3.134-19.887a0.647 0.647 0 0 1 0.638-0.747h3.98c0.371 0 0.687 0.27 0.745 0.636l0.89 5.64c0.082 0.523 0.534 0.91 1.064 0.91h2.454c5.11 0 8.058 2.471 8.828 7.372 0.347 2.142 0.014 3.826-0.989 5.005-1.103 1.296-3.058 1.982-5.653 1.982" fill="#009cde"/>
   <path d="m62.011 26.863c-0.424-2.784-2.55-2.784-4.607-2.784h-1.17l0.821 5.198c0.05 0.314 0.32 0.545 0.638 0.545h0.537c1.4 0 2.722 0 3.404-0.797 0.408-0.477 0.531-1.185 0.377-2.162m-0.895 7.264h-7.756c-0.53 0-0.982-0.386-1.065-0.91l-3.135-19.887a0.646 0.646 0 0 1 0.638-0.747h3.704c0.53 0 0.981 0.386 1.064 0.91l0.847 5.365c0.082 0.524 0.534 0.91 1.064 0.91h2.454c5.11 0 8.058 2.472 8.828 7.373 0.347 2.142 0.014 3.826-0.989 5.005-1.103 1.296-3.058 1.982-5.653 1.982m18.006-14.405c-0.36-2.122-2.043-3.547-4.192-3.547-1.077 0-1.94 0.347-2.494 1.003-0.55 0.65-0.756 1.577-0.582 2.608 0.334 2.104 2.046 3.574 4.162 3.574 1.055 0 1.91-0.35 2.476-1.012 0.569-0.667 0.793-1.599 0.63-2.626m5.176 7.23h-3.714a0.647 0.647 0 0 1-0.64-0.547l-0.162-1.038-0.26 0.376c-0.804 1.167-2.597 1.558-4.387 1.558-4.103 0-7.608-3.11-8.29-7.47-0.355-2.177 0.149-4.256 1.383-5.707 1.133-1.333 2.75-1.888 4.677-1.888 3.308 0 5.142 2.124 5.142 2.124l-0.166-1.032a0.646 0.646 0 0 1 0.639-0.747h3.344c0.53 0 0.982 0.385 1.065 0.91l2.008 12.713a0.647 0.647 0 0 1-0.64 0.747" fill="#003087"/>
   <path d="m134.44 19.723c-0.36-2.122-2.043-3.547-4.192-3.547-1.077 0-1.94 0.347-2.494 1.003-0.55 0.65-0.756 1.577-0.582 2.608 0.334 2.104 2.045 3.574 4.162 3.574 1.055 0 1.91-0.35 2.476-1.012 0.569-0.667 0.793-1.599 0.63-2.626m5.176 7.23h-3.714a0.647 0.647 0 0 1-0.64-0.547l-0.162-1.038-0.26 0.376c-0.804 1.167-2.597 1.558-4.387 1.558-4.102 0-7.607-3.11-8.29-7.47-0.355-2.177 0.15-4.256 1.384-5.707 1.133-1.333 2.75-1.888 4.677-1.888 3.309 0 5.143 2.124 5.143 2.124l-0.166-1.032a0.644 0.644 0 0 1 0.637-0.747h3.343c0.53 0 0.982 0.385 1.066 0.91l2.008 12.713a0.647 0.647 0 0 1-0.64 0.747" fill="#009cde"/>
   <path d="m104.08 26.952h-3.734c-0.357 0-0.69-0.177-0.89-0.473l-5.15-7.584-2.183 7.288a1.08 1.08 0 0 1-1.033 0.77h-3.669a0.647 0.647 0 0 1-0.612-0.856l4.11-12.066-3.866-5.455a0.647 0.647 0 0 1 0.528-1.02h3.73c0.352 0 0.683 0.173 0.885 0.463l12.414 17.918a0.646 0.646 0 0 1-0.53 1.015" fill="#003087"/>
   <path d="m144 33.58-3.184-20.251a0.647 0.647 0 0 1 0.639-0.747h3.201c0.53 0 0.982 0.386 1.065 0.91l3.139 19.888a0.646 0.646 0 0 1-0.639 0.747h-3.582a0.645 0.645 0 0 1-0.639-0.546" fill="#009cde"/>
  </g>
 </g>
</svg>
