<?xml version="1.0" encoding="utf-8"?>
<!-- Generator: Adobe Illustrator 22.1.0, SVG Export Plug-In . SVG Version: 6.00 Build 0)  -->
<svg version="1.1" id="Layer_1" xmlns="http://www.w3.org/2000/svg" xmlns:xlink="http://www.w3.org/1999/xlink" x="0px" y="0px"
	 viewBox="0 0 230 73" style="enable-background:new 0 0 230 73;" xml:space="preserve">
<style type="text/css">
	.st0{fill:#DB6F26;}
	.st1{fill:#FFFFFF;}
</style>
<g>
	<polygon class="st0" points="50,73.5 25,60 0,73.5 0,0 50,0 	"/>
	<g>
		<g>
			<path class="st1" d="M11.6,51.4c0.1-2,0.2-4.8,0.2-7.4V9.5H17v17.9h0.1c1.8-3.2,5.1-5.2,9.7-5.2c7.1,0,12.1,5.9,12,14.5
				C38.9,47,32.4,52,26.1,52c-4.1,0-7.4-1.6-9.6-5.3h-0.1l-0.3,4.7H11.6z M17,40c0,0.6,0.1,1.3,0.2,1.9c1,3.6,4,6.1,7.8,6.1
				c5.5,0,8.7-4.4,8.7-11c0-5.7-3-10.6-8.5-10.6c-3.5,0-6.8,2.5-7.9,6.4C17.2,33.3,17,34,17,34.8V40z"/>
			<path d="M83.8,36.8c0,10.6-7.3,15.2-14.2,15.2c-7.7,0-13.7-5.6-13.7-14.7c0-9.5,6.3-15.1,14.2-15.1
				C78.3,22.2,83.8,28.2,83.8,36.8z M61.2,37.2c0,6.3,3.6,11,8.6,11c5,0,8.7-4.6,8.7-11.1c0-4.8-2.4-10.9-8.6-10.9
				C63.8,26.1,61.2,31.8,61.2,37.2z"/>
			<path d="M116.2,36.8c0,10.6-7.3,15.2-14.2,15.2c-7.7,0-13.7-5.6-13.7-14.7c0-9.5,6.3-15.1,14.2-15.1
				C110.7,22.2,116.2,28.2,116.2,36.8z M93.6,37.2c0,6.3,3.6,11,8.6,11c5,0,8.7-4.6,8.7-11.1c0-4.8-2.4-10.9-8.6-10.9
				C96.2,26.1,93.6,31.8,93.6,37.2z"/>
			<path d="M127.9,35.9h0.1c0.7-1,1.7-2.3,2.5-3.2l8.4-9.8h6.2l-11,11.7l12.6,16.8h-6.3l-9.8-13.7l-2.7,3v10.7h-5.2V9.5h5.2V35.9z"
				/>
			<path d="M152.3,22.9l6.2,16.9c0.7,1.9,1.4,4.1,1.8,5.8h0.1c0.5-1.7,1.1-3.9,1.8-5.9l5.6-16.8h5.5l-7.8,20.3
				c-3.7,9.8-6.2,14.8-9.8,17.9c-2.6,2.2-5.1,3.1-6.4,3.3l-1.3-4.3c1.3-0.4,3-1.2,4.5-2.5c1.4-1.1,3.1-3.1,4.3-5.8
				c0.3-0.5,0.4-0.9,0.4-1.3c0-0.3-0.1-0.7-0.4-1.3l-10.5-26.3H152.3z"/>
			<path d="M177,48.3c0-2.2,1.5-3.7,3.5-3.7c2.1,0,3.5,1.5,3.5,3.7c0,2.1-1.4,3.7-3.5,3.7C178.4,52,176.9,50.4,177,48.3z"/>
			<path d="M196.2,14.8c0,1.8-1.2,3.2-3.3,3.2c-1.9,0-3.1-1.5-3.1-3.2c0-1.8,1.3-3.2,3.2-3.2C194.9,11.6,196.2,13,196.2,14.8z
				 M190.4,51.4V22.9h5.2v28.5H190.4z"/>
			<path d="M230,36.8c0,10.6-7.3,15.2-14.2,15.2c-7.7,0-13.7-5.6-13.7-14.7c0-9.5,6.3-15.1,14.2-15.1C224.5,22.2,230,28.2,230,36.8z
				 M207.4,37.2c0,6.3,3.6,11,8.6,11c5,0,8.7-4.6,8.7-11.1c0-4.8-2.4-10.9-8.6-10.9C210,26.1,207.4,31.8,207.4,37.2z"/>
		</g>
	</g>
</g>
</svg>
