<?xml version="1.0" encoding="UTF-8"?>
<svg width="401px" height="291px" viewBox="0 0 401 291" version="1.1" xmlns="http://www.w3.org/2000/svg" xmlns:xlink="http://www.w3.org/1999/xlink">
    <!-- Generator: Sketch 51.1 (57501) - http://www.bohemiancoding.com/sketch -->
    <title>book_open_0001</title>
    <desc>Created with Sketch.</desc>
    <defs></defs>
    <g id="ALL" stroke="none" stroke-width="1" fill="none" fill-rule="evenodd">
        <g id="book_open_0001_DL" transform="translate(-205.000000, -310.000000)">
            <g id="book_open_0001" transform="translate(400.000000, 450.000000) rotate(5.000000) translate(-400.000000, -450.000000) translate(199.000000, 299.000000)">
                <path d="M12,73.5697307 C62.5625,56.6634807 100.606771,51.0280641 126.132812,56.6634807 C151.658854,62.2988974 177.341146,71.3379599 203.179688,83.7806682 C260.421875,31.8613974 323.765625,12.6660849 393.210938,26.1947307 C403.304687,48.0957724 401.195312,130.697335 386.882813,273.999418 C364.341146,263.020252 345.875,257.530668 331.484375,257.530668 C317.09375,257.530668 271.272135,269.374418 194.019531,293.061918 C116.157552,289.452543 66.1432292,287.647856 43.9765625,287.647856 C38.8697917,287.647856 28.2109375,216.288481 12,73.5697307 Z" id="Path-110" fill="#FFFFFF"></path>
                <path d="M190.239612,67.635623 C189.757047,68.2437215 189.274482,68.8518201 188.798416,69.4583309 C187.968144,70.8666427 187.548946,72.3797444 187.542447,74.0055744 C186.424585,82.3347782 185.358718,90.657631 185.118247,99.0678087 C184.863154,107.874918 184.718547,116.675675 184.539819,125.482784 C184.375715,134.053322 183.906148,142.574641 183.347217,151.127714 C182.757415,160.101533 182.292723,169.057888 182.052253,178.04441 C181.849153,185.592453 181.67205,193.127795 181.386085,200.669487 C181.10662,208.155609 180.516818,215.63538 180.211356,223.115151 C179.918892,230.315482 179.977385,237.503112 180.104119,244.703444 C180.167487,248.356798 180.217855,252.003802 180.287722,255.655568 C180.320218,257.089284 180.394958,258.521412 180.510319,259.953539 C180.74429,262.838435 181.14399,265.858287 182.864652,268.314497 C183.72742,269.735511 184.889151,270.869146 186.343345,271.707465 C188.582318,272.990347 191.30548,273.338058 193.806045,272.661688 C198.909537,271.291481 201.962533,265.994832 200.578205,261.014139 C200.409226,260.421918 200.287366,259.816995 200.180129,259.207309 C199.830797,255.950885 199.734934,252.675409 199.588702,249.404696 C199.411599,245.441736 199.239371,241.472424 199.156506,237.509463 C198.966405,228.764275 199.226372,220.044491 199.64557,211.305655 C200.05177,202.858959 200.407601,194.412264 200.578205,185.95763 C200.743934,177.634777 200.844672,169.286521 201.372731,160.97637 C201.803303,154.098346 202.381731,147.207621 202.654697,140.316896 C202.945536,133.054643 203.098267,125.792391 203.19413,118.517436 C203.294868,111.063069 203.340362,103.600763 203.733563,96.1527461 C204.133264,88.7221946 204.976534,81.3853188 205.961162,74.0055744 C206.2585,71.7906985 204.799431,69.1423737 203.263997,67.635623 C201.543335,65.9542225 199.182503,65 196.751804,65 C194.321106,65 191.960274,65.9542225 190.239612,67.635623" id="Fill-2" fill="#2C2C2C"></path>
                <path d="M327.675771,0.0316832693 C325.356541,0.11881226 323.037312,0.198020433 320.718083,0.285149424 C318.449651,0.372278414 316.147884,0.768319281 313.884214,1.00277547 C308.991768,1.52238109 304.156468,2.45703753 299.306882,3.28713919 C297.37816,3.62139768 295.468486,4.21545898 293.577862,4.67328222 C291.785658,5.10575885 289.993454,5.49546306 288.237761,6.05942525 C285.912182,6.80081376 283.581841,7.54378642 281.256262,8.29309574 C279.086251,8.98537517 276.971799,9.94537823 274.850998,10.7612224 C270.472878,12.4578615 266.194765,14.4745016 261.989674,16.5608449 C258.349706,18.3667912 254.709738,20.1933317 251.212639,22.2654175 C245.948735,25.390972 240.738803,28.6892004 235.871755,32.407232 C230.098287,36.8207114 224.450226,41.3498348 218.887885,46.0215328 C209.002984,54.3209652 199.39112,62.9277253 189.953873,71.7214167 C185.898,75.4964783 186.134526,82.2719454 189.953873,86.077106 C193.971648,90.0945446 200.284841,89.8521676 204.340714,86.077106 C216.448012,74.8073672 228.966452,64.0081248 241.988107,53.7934388 C248.047312,49.3688702 254.19065,45.0995497 260.737195,41.3989438 C267.169444,37.7601204 273.855682,34.6488233 280.59748,31.6389127 C282.802415,30.769207 285.008937,29.8456397 287.264669,29.1280136 C290.079175,28.2313771 292.895269,27.1668193 295.765335,26.4618665 C298.848116,25.7062205 301.948359,24.741465 305.074,24.1838395 C308.217104,23.6262139 311.355445,23.0685884 314.490611,22.5093787 C316.660622,22.2210609 318.840158,21.9184857 321.010169,21.8139309 C324.804117,21.6285838 328.567904,21.4796724 332.369789,21.4860091 C335.66211,21.4923457 338.949669,21.5351181 342.241991,21.4543258 C343.983397,21.4115534 345.73274,21.3244244 347.475734,21.2388796 C348.048795,21.2119488 348.621855,21.1691764 349.193329,21.1216515 C349.499702,21.2388796 349.810837,21.3434344 350.12991,21.4305634 C352.54121,22.0927437 355.690663,21.8883866 357.805114,20.4277879 C358.816305,19.7465976 359.795746,19.0162982 360.732328,18.2368898 C361.457781,17.4701547 362.084815,16.6289639 362.60549,15.7117332 C364.000838,13.3671713 364.359596,10.4459739 363.634142,7.82259919 C362.735659,4.56080662 359.908454,1.37505389 356.473264,0.668516982 C354.811229,0.334258491 353.161894,0.068119029 351.46811,0.068119029 C350.879175,0.068119029 350.264841,0.106138952 349.675906,0.125148914 C348.777423,0.142574712 347.87259,0.167921327 346.97252,0.186931289 C344.55487,0.236040356 342.129283,0.248713664 339.705284,0.255050318 C337.97499,0.266139462 336.244696,0.198020433 334.515989,0.129901404 C332.868241,0.0649507021 331.21573,0 329.571157,0 C328.939362,0 328.305979,0.00950498079 327.675771,0.0316832693" id="Fill-4" fill="#2C2C2C"></path>
                <path d="M357.167834,10.2994222 C355.071138,10.8711911 353.247716,12.2711489 352.148229,14.1505008 C351.86217,14.8162373 351.580906,15.4819738 351.299642,16.1477103 C350.900119,17.6336724 350.900119,19.1212271 351.299642,20.6024112 L351.345987,20.9400575 C351.77907,24.515604 352.16421,28.0911505 352.268086,31.6953651 C352.386344,36.0130964 352.485426,40.3053449 352.442277,44.6230761 C352.336803,54.1966218 352.092295,63.7590189 351.817424,73.3277866 C351.705557,77.3843197 351.731127,81.4535943 351.692773,85.5101275 C351.662409,89.0426719 351.574514,92.5831796 351.679988,96.1173167 C351.849386,101.76015 352.017185,107.396613 352.186583,113.039447 C352.292057,116.747185 352.654824,120.448552 352.916911,124.143549 C353.57852,133.4336 354.364781,142.702945 355.163827,151.978661 C355.80626,159.468993 356.394358,166.984808 356.755526,174.494252 C357.187011,183.483288 357.636075,192.467545 357.779903,201.469322 C357.855013,206.142219 357.923731,210.819894 357.973272,215.49279 C358.01642,219.5111 357.8662,223.586745 358.198603,227.593905 C358.22577,227.925181 358.262526,228.256456 358.302479,228.586139 C358.260928,230.103955 358.625293,231.636104 359.41475,232.980319 C360.15147,234.219417 361.143885,235.208465 362.3872,235.942687 C364.44714,237.143561 366.487903,237.167451 368.766781,236.769283 C368.803537,236.762912 368.835499,236.756542 368.872255,236.751764 C370.28337,236.358374 371.507508,235.649635 372.543071,234.623955 C372.974556,234.063335 373.404442,233.504307 373.842319,232.943687 C374.590226,231.655216 374.97217,230.261629 374.978562,228.762926 C375.058467,228.015963 374.890667,227.213257 374.87149,226.455145 C374.834734,225.365758 374.809165,224.277964 374.79638,223.194948 L374.72127,216.867266 C374.658944,212.20711 374.590226,207.554918 374.510322,202.894762 C374.360101,194.034733 373.973363,185.189038 373.554663,176.341751 C372.755617,159.680819 371.013698,143.082001 369.851885,126.446552 C369.565827,122.308792 369.121557,118.147143 369.003299,113.996642 C368.848284,108.615006 368.698063,103.234964 368.54145,97.8533282 C368.442369,94.4864215 368.453555,91.1465903 368.485517,87.7796837 C368.535058,83.1704937 368.498302,78.559711 368.629345,73.9568916 C368.88504,64.9360028 369.140734,55.9214846 369.241414,46.899003 C369.334104,38.2651332 369.241414,29.6663022 368.180282,21.0865832 C367.974128,19.4381687 367.748797,17.7897541 367.512279,16.1477103 C367.224623,14.1313887 365.332483,12.1230305 363.648094,11.1387598 C362.358435,10.3870191 360.8802,10 359.398769,10 C358.649264,10 357.896563,10.0987456 357.167834,10.2994222" id="Fill-6" fill="#2C2C2C"></path>
                <path d="M339.922121,224.200239 C336.25995,224.325188 332.554881,224.751295 328.911775,225.175801 C324.313804,225.714043 319.714244,226.258692 315.116272,226.803341 C306.775101,227.791718 298.414864,228.568644 290.073693,229.544207 C284.910111,230.144923 279.765594,230.771269 274.625844,231.559408 C270.548997,232.19056 266.453085,232.909818 262.487454,234.067998 C260.798565,234.561386 259.042947,234.961863 257.385835,235.562579 C255.517412,236.238584 253.655345,236.920997 251.793278,237.597003 C248.181948,238.910568 244.626226,240.499662 241.113401,242.071135 C238.190019,243.378292 235.253927,244.698265 232.436994,246.244108 C229.159311,248.039847 225.919759,249.904469 222.673852,251.75147 C217.051108,254.955288 211.360046,257.933237 205.942257,261.487873 C202.739247,263.589577 199.873061,266.211902 197.024353,268.765345 C195.862944,269.80979 194.690414,270.849429 193.54807,271.919504 C192.909375,272.513812 192.281801,273.120936 191.673293,273.752088 C190.060667,275.448509 189.471224,276.762075 188.621219,278.91504 C188.142992,280.110064 188.10486,281.404407 188,282.681128 C188.006355,284.539343 188.471872,286.279016 189.39655,287.887332 C190.737493,290.197285 192.952273,291.917735 195.508643,292.630585 C200.173344,293.926529 204.807857,291.699876 207.102077,287.71753 C208.412832,286.403965 209.895177,285.221756 211.266307,284.007509 C212.688278,282.748408 214.107072,281.489308 215.560819,280.268653 C221.393283,276.318346 227.659489,273.160983 233.769993,269.672026 C237.011134,267.826627 240.237975,265.968412 243.501359,264.166265 C246.656705,262.423388 249.982052,260.984874 253.259735,259.509515 C254.932736,258.806277 256.608914,258.107845 258.310513,257.476693 C261.313335,256.369774 264.274848,255.362173 267.333277,254.453891 C272.638262,252.871205 278.079883,251.994961 283.531037,251.125124 C295.655128,249.648164 307.798285,248.347414 319.925554,246.844823 C326.225124,246.069499 332.518339,245.367863 338.835386,244.767147 C344.464485,244.23211 350.114238,244.454775 355.730627,244.959377 C358.247278,245.396698 360.728975,245.901299 363.220204,246.500413 C368.576031,247.796357 374.155877,244.874475 375.657288,239.386335 C377.079259,234.167316 373.950923,228.148944 368.595096,226.853 C363.393383,225.589094 358.199614,224.794547 352.873974,224.249898 C351.03415,224.062474 349.18956,224 347.344969,224 C344.869628,224 342.394286,224.113736 339.922121,224.200239" id="Fill-8" fill="#2C2C2C"></path>
                <path d="M74.8294818,45.0127527 C71.8788115,45.0749219 68.9948052,45.286935 66.0568328,45.554741 C59.7507473,46.1333933 53.6192577,47.7083476 47.560781,49.4777801 C41.4911935,51.2519949 35.6946106,53.6367436 29.9964362,56.3642202 C27.6584387,57.4912372 25.3839307,58.7872269 23.0824396,59.993948 C21.7317025,60.7049092 20.3555696,61.3648597 18.9905473,62.0439392 C15.9525791,63.5567243 13.3987177,65.710331 11.086116,68.1700016 C7.07993431,72.442145 6.86407033,79.1675826 11.086116,83.4078444 C15.128804,87.4679747 22.2459667,87.6799878 26.2569101,83.4078444 C26.7886338,82.8371625 27.3203576,82.2744511 27.8774772,81.737245 C30.7773559,79.9518717 33.9962689,78.5713955 37.0024924,76.9996293 C39.1293876,75.8917414 41.2658061,74.8300818 43.4276205,73.7987099 C51.1638049,70.8082095 59.1285511,68.5477993 67.2980507,67.1481941 C71.051862,66.7974958 74.8120222,66.5185312 78.5864675,66.6763455 C82.8894622,66.8501006 87.1622993,67.1306592 91.4462471,67.5610617 C99.7506617,68.3915792 108.053489,69.1567392 116.332508,70.1657939 C120.189489,70.7842983 124.038535,71.4203375 127.884406,72.099417 C132.074707,72.8342895 136.30945,73.5388743 140.445785,74.5399587 C144.996388,75.6430643 149.48509,76.8625381 153.937284,78.3259066 C157.338729,79.4529236 160.675098,80.7409429 163.987658,82.0991019 C167.963682,83.898822 171.749238,86.0492405 175.817322,87.6544824 C177.522012,88.1151725 179.226703,88.1151725 180.932981,87.6544824 C183.337642,86.9945319 185.428031,85.3749432 186.686708,83.2149603 C187.988241,80.9784613 188.342195,78.2637374 187.659684,75.7674028 C186.953364,73.207305 185.35978,71.4585955 183.232885,69.9888507 C181.502798,68.7932882 179.847312,67.4925161 178.048974,66.3957868 C176.356982,65.3739794 174.571342,64.5147684 172.773005,63.7113504 C168.39541,61.7442516 163.968611,59.8759859 159.437054,58.3010315 C155.202311,56.837663 150.935823,55.5990602 146.60267,54.4959546 C142.429829,53.4311069 138.188737,52.6659469 133.966691,51.8497762 C125.062302,50.124978 116.134104,48.7429077 107.126544,47.733853 C103.250515,47.3034504 99.3697253,46.9001474 95.4952841,46.4697449 C91.458945,46.0281838 87.3845123,45.4670664 83.3291263,45.267806 C80.8958947,45.1450616 78.4769483,45 76.0484784,45 C75.6421462,45 75.235814,45.0047823 74.8294818,45.0127527" id="Fill-10" fill="#2C2C2C"></path>
                <path d="M51.3648303,283.670812 C51.3680125,283.693106 51.3711947,283.713809 51.3727858,283.737696 C51.3696036,283.713809 51.3680125,283.693106 51.3648303,283.670812 M69.7578308,281.548015 L69.4316574,281.968434 C69.5366693,281.825109 69.6464545,281.684969 69.7578308,281.548015 M51.0784341,281.433355 C51.0863896,281.522535 51.094345,281.6149 51.1038916,281.710449 C51.0927539,281.62127 51.0800252,281.530497 51.0672965,281.44291 C51.0720698,281.439725 51.075252,281.43654 51.0784341,281.433355 M6.34493859,78.2993892 C1.71327558,79.5749782 -0.88974767,84.4082024 0.278112395,88.9993674 C2.3783512,97.2978621 4.03149372,105.720572 6.45631489,113.937849 C9.09115994,122.863787 11.8692031,131.74832 14.4419956,140.699738 C19.0291081,156.667692 21.7641918,173.121357 25.9408031,189.202378 C28.1603737,197.736562 30.3974462,206.259599 33.1134369,214.656828 C34.512005,218.974084 35.9042087,223.291339 37.3027769,227.614965 C38.5645112,231.514987 39.8819338,235.440489 40.9622839,239.389878 C42.0378607,243.31538 43.1945832,247.221771 44.1142332,251.179123 C45.1023001,255.421531 46.0649095,259.65757 46.9113694,263.930236 C47.7005501,267.936955 48.4579089,271.950044 49.2852757,275.9488 C49.6575908,277.746728 50.0617276,279.538285 50.5406457,281.312325 C51.3425551,284.303032 52.4801844,287.718935 55.4873445,289.180846 C57.7132795,290.263743 59.9185302,290.760602 62.3735821,290.082199 C65.3075521,289.274804 67.8994377,286.84147 68.6202015,283.836431 C68.6949827,283.530672 68.7522619,283.221728 68.7984035,282.908006 C68.8461362,282.829974 68.89546,282.750349 68.9447838,282.672317 C70.7872661,280.55589 72.83659,278.617823 75.0100189,276.840598 C76.8302259,275.541121 78.7029388,274.400894 80.7061212,273.429472 C83.5589455,272.410275 86.4754135,271.703207 89.4618895,271.209533 C94.8763688,270.666492 100.260617,270.800262 105.660777,271.421335 C119.907397,273.647644 133.57486,278.437871 147.118218,283.264725 C152.370406,285.1375 157.640096,286.959315 162.947973,288.682395 C165.490534,289.510493 168.050598,290.306741 170.612253,291.096619 C172.203343,291.591885 173.811935,292.034599 175.418936,292.486867 C177.245507,295.192517 180.321084,297 183.800798,297 C186.478603,297 189.076853,295.923473 190.967068,294.026811 L192.551793,291.974084 C193.471443,290.394328 193.931268,288.688765 193.937633,286.85421 C194.292446,283.283835 193.129359,279.576505 190.550202,276.99507 C188.381546,274.822906 185.398253,273.803709 182.532699,272.932613 C180.456327,272.303578 178.375181,271.688874 176.298809,271.066209 C172.321084,269.878207 168.362452,268.615358 164.408593,267.358879 C155.943994,264.670746 147.597136,261.598822 139.162768,258.818325 C135.00525,257.448778 130.779315,256.316514 126.570882,255.122142 C122.52474,253.97236 118.37995,253.107635 114.23357,252.397382 C107.86921,251.309708 101.442797,250.631305 94.986154,250.811257 C89.3171003,250.967321 83.5557634,251.875044 78.1237821,253.512129 C75.3139171,254.364114 72.5549671,255.588743 69.9694458,256.969437 C68.0314982,258.004559 66.2224288,259.313591 64.4913229,260.708617 C64.2765257,259.667125 64.0585464,258.625633 63.8342027,257.585733 C62.0824126,249.381195 60.161967,241.187805 57.6448626,233.18233 C55.0275195,224.851985 52.1874239,216.58534 49.6703195,208.231108 C47.0593408,199.596597 44.4054026,190.962086 42.3481233,182.173102 C40.4785925,174.204254 38.6567945,166.229036 36.792037,158.260188 C34.8413606,149.905955 32.8954575,141.558093 30.5088225,133.321706 C28.0664994,124.918106 25.4061969,116.575022 22.9145499,108.184162 C20.5899674,100.352269 19.0418368,92.2894634 17.0338813,84.3763525 C16.0633164,80.5304756 12.379943,78.0015925 8.5724646,78 C7.82783448,78 7.08002218,78.0971422 6.34493859,78.2993892" id="Fill-12" fill="#2C2C2C"></path>
                <path d="M370.551967,34.8583486 C370.936016,43.8866154 371.26452,52.927616 371.56922,61.960658 C371.846941,70.4238622 371.897724,78.9236762 372.454753,87.3725549 C372.759453,92.0363105 373.087957,96.6873323 373.521202,101.344721 C373.911599,105.5039 374.363887,109.650344 374.817763,113.804748 C375.746145,122.347538 376.428545,130.890329 376.925269,139.471321 C377.401363,147.802412 377.407711,156.171704 377.755259,164.509162 C378.096459,172.598311 378.889948,180.681093 379.621544,188.746366 C381.083151,204.825977 383.558836,220.767107 385.821866,236.743255 C386.053565,238.720178 386.269394,240.692326 386.413809,242.667658 C383.928602,241.741273 381.410068,241.102991 378.796316,240.552254 C371.840593,239.095826 364.600801,238.997139 357.527641,238.928694 C354.334642,238.903227 351.14323,239.022606 347.956579,239.140394 C345.123824,239.251815 342.272025,239.283649 339.450378,239.493757 C332.751746,239.995151 326.116592,241.004304 319.47509,241.975257 C315.239447,242.438449 311.019673,242.801362 306.769747,243.087873 C304.630501,243.231128 302.491255,243.305939 300.353596,243.41736 C298.195306,243.524006 296.0513,243.765948 293.905706,243.971281 C289.454233,244.39468 284.998,245.02182 280.602072,245.84315 C276.306123,246.645379 271.929239,247.340964 267.695182,248.410603 C265.644807,248.932689 263.592845,249.448408 261.540883,249.972086 C260.549022,250.220395 259.56827,250.605592 258.589104,250.915979 C257.573439,251.239099 256.519686,251.512876 255.532585,251.90444 C251.230289,253.602811 246.878796,255.250247 242.768524,257.370426 C235.051052,261.362473 227.612887,265.814529 220.507988,270.818914 C217.848213,272.690783 215.239222,274.674073 212.741319,276.757642 C209.740344,279.256651 206.839349,282.440102 205.0905,285.927572 C204.092291,287.910862 203.67809,289.945087 204.279554,292.13371 C204.830236,294.142467 206.169645,295.88859 207.96769,296.939129 C211.581239,299.059307 216.943636,297.953058 218.940054,294.054922 C219.303472,293.345013 219.685934,292.698772 220.117592,292.068449 C221.756939,290.144053 223.543876,288.474333 225.505381,286.884199 C230.140943,283.419013 234.932028,280.249887 239.873877,277.230384 C242.316235,275.737346 244.783986,274.263408 247.326324,272.945459 C250.006729,271.555883 252.698243,270.260218 255.437367,268.994797 C258.122533,267.942666 260.79183,266.941471 263.54841,266.056471 C266.468449,265.12372 269.444032,264.30239 272.451355,263.67525 C276.163295,262.898488 279.876823,262.145602 283.615743,261.448426 C286.304083,260.951808 289.014641,260.550693 291.722025,260.143211 C294.808696,259.851926 297.898542,259.519255 300.997909,259.372816 C304.766981,259.19136 308.536053,258.987619 312.305125,258.750452 C319.079933,258.33342 325.769044,257.096649 332.513699,256.401065 C339.394834,255.691155 346.295013,255.72299 353.206301,255.697522 C359.698627,255.668871 366.21317,255.904446 372.668995,256.601622 C374.673348,256.916784 376.658657,257.276514 378.636031,257.76199 C380.337271,258.17743 381.984554,258.747268 383.61438,259.382367 C385.723474,260.385154 387.857959,261.596457 390.073379,262.244289 C391.195373,262.573776 393.520295,262.699522 394.642288,262.250656 C395.367537,261.95937 396.086438,261.660126 396.798991,261.343372 C397.419499,260.87063 398.032072,260.391521 398.646233,259.907636 C399.371482,259.334615 399.898358,258.414598 400.344299,257.594859 C401.045743,256.281685 401.429792,255.001938 401.634512,253.558243 C402.408957,248.143193 401.81384,242.77112 401.133027,237.379946 C399.879314,227.563775 398.312968,217.787397 396.905318,207.995102 C396.410181,203.732461 395.910283,199.463453 395.410385,195.199221 C394.883509,190.673945 394.591505,186.108877 394.189999,181.570868 C393.47586,173.550163 392.925178,165.48489 392.750611,157.433943 C392.564934,148.517097 392.30467,139.625718 391.833338,130.723198 C391.387397,122.21065 390.3146,113.710836 389.433827,105.23649 C388.243594,93.7330898 387.791305,82.1930803 387.488193,70.6355617 C387.178732,58.7087629 386.724856,46.7771888 386.223372,34.8583486 C386.044043,30.5750154 382.7955,27 378.386876,27 C374.252799,27 370.372638,30.5750154 370.551967,34.8583486" id="Fill-14" fill="#2C2C2C"></path>
                <path d="M128.126392,265.518426 C123.323335,265.926105 118.531385,266.702942 113.764822,267.462123 C106.838709,268.566387 100.38227,271.304576 93.9813674,274.102151 C91.9931841,273.914362 89.9240771,274.317226 88.0485523,275.336423 C86.5300436,276.1582 85.1289535,277.154927 83.9452466,278.434139 C81.4667612,281.098497 80.3814321,284.741925 81.3541027,288.327573 C81.831711,290.05138 82.699657,291.544062 83.9452466,292.816854 C85.9350167,294.835988 88.3087774,295.575909 91.0490747,295.794193 C93.0134569,295.951487 95.2142632,295.425035 97.1532576,294.94192 C98.3750462,294.635358 99.5524061,294.107302 100.718659,293.638632 C103.346298,292.584124 105.961243,291.518381 108.614269,290.540915 C113.741021,288.645369 119.043901,287.793096 124.415011,287.024284 C126.327031,286.780319 128.235877,286.547589 130.159004,286.358195 C135.004903,285.883105 139.795267,285.804458 144.633232,286.292389 C151.140447,287.362947 157.350941,289.313064 163.604277,291.412449 C165.990732,292.208546 168.37084,293.004643 170.757294,293.807161 C172.902565,294.527821 175.133519,295.047852 177.315284,295.662581 C181.337666,296.79734 185.479054,297.619118 189.550625,298.572508 C189.998085,298.676835 190.443958,298.785978 190.891419,298.896725 C191.51818,299.731343 192.305203,300.442373 193.208057,300.97364 C195.197827,302.151735 197.130474,302.151735 199.324933,301.782577 C199.943761,301.67825 200.561003,301.580343 201.181417,301.484041 C201.60825,301.453545 202.028736,301.431075 202.452395,301.427865 C202.855427,301.471201 203.260045,301.509721 203.663076,301.537007 C203.66149,301.532192 203.658316,301.527377 203.655143,301.522562 C204.378695,301.535402 205.118116,301.447125 205.88927,301.230445 C207.983765,300.654238 209.800581,299.236993 210.89067,297.343052 C213.121624,293.487759 211.920463,287.919894 207.891734,285.756307 C205.516387,284.489935 202.901442,283.656922 200.378528,282.746867 C198.482375,282.071148 196.567182,281.443579 194.658336,280.80317 C190.766066,279.499882 186.786526,278.402039 182.862522,277.217523 C174.024389,274.553166 165.644823,270.56626 156.786062,267.962894 C150.780257,266.202171 144.471385,265.311377 138.235503,265.035311 C137.670624,265.011235 137.104158,265 136.53928,265 C133.729166,265 130.928572,265.279276 128.126392,265.518426" id="Fill-16" fill="#2C2C2C"></path>
            </g>
        </g>
    </g>
</svg>