<?xml version="1.0" encoding="UTF-8" standalone="no"?>
<svg width="160px" height="121px" viewBox="0 0 160 121" version="1.1" xmlns="http://www.w3.org/2000/svg" xmlns:xlink="http://www.w3.org/1999/xlink">
    <!-- Generator: Sketch 48.2 (47327) - http://www.bohemiancoding.com/sketch -->
    <title>gears0001</title>
    <desc>Created with Sketch.</desc>
    <defs>
        <polygon id="path-1" points="0 0.660705678 104.597886 0.660705678 104.597886 97.644301 0 97.644301"></polygon>
    </defs>
    <g id="Page-1" stroke="none" stroke-width="1" fill="none" fill-rule="evenodd">
        <g id="gears0001" transform="translate(0.119238, 0.085384)">
            <g id="Group-373" transform="translate(0.000000, 22.630965)">
                <mask id="mask-2" fill="white">
                    <use xlink:href="#path-1"></use>
                </mask>
                <g id="Clip-372"></g>
                <path d="M51.0082892,75.8315267 C62.2177216,77.2473293 74.0383605,66.9356065 79.0736519,57.9298602 C81.9267449,52.8253306 83.3640353,47.0594565 81.9935956,41.3675956 C79.3506049,30.3969158 73.3555282,23.3728157 60.6443423,27.6249986 C59.5627932,27.985515 58.5289947,28.4892829 57.4784834,28.9429127 C55.7069395,29.7045334 53.8542197,30.4327287 51.9585244,29.7570589 C46.5818169,27.8470385 42.3367965,30.2274015 38.1538518,33.1115323 C33.5316023,36.2941038 30.6546341,40.6537255 29.4513212,46.0829585 C28.7899766,49.0554278 28.2909838,52.0756476 27.8946546,55.0982549 C26.347538,66.9618693 30.7143222,73.0834848 42.4179724,75.3253712 C44.6407587,75.7503508 46.9662085,75.6142618 51.0082892,75.8315267 M10.3224666,55.6330607 C8.45064662,55.9840269 6.58837671,56.4185566 4.69984401,56.6596966 C2.58688391,56.9318745 1.00156696,56.0914656 0.278146725,53.9904431 C-0.416623206,51.972984 0.242333842,50.2706783 1.63664875,48.7951875 C3.01902604,47.3364094 4.81205771,46.7323655 6.74834092,46.5556886 C10.16489,46.2453103 13.5838265,45.9707448 17.0051506,45.7272172 C19.8439185,45.5242775 20.7416281,43.4495179 21.4220728,41.1980813 C22.2147313,38.5670281 21.1880953,36.3728922 18.7265565,35.8691243 C16.8857743,35.4918953 14.889803,35.7879484 13.0800586,35.3247685 C11.6308306,34.9523145 10.3940924,33.7681018 10.1792151,32.1183217 C9.90464967,29.9767113 11.010074,28.3842317 12.9129318,27.6393238 C14.2833715,27.1021305 15.8925637,26.7535518 17.3346291,26.9063534 C19.5908408,27.1427185 21.7730391,28.0165528 24.0292507,28.3699066 C30.5782333,29.3917675 34.8041535,24.2729128 32.5503294,18.1441347 C31.8937598,16.3606532 30.9817251,14.6273096 30.6188212,12.7865274 C30.2177169,10.7595183 31.1918273,9.08586286 33.0899101,8.11891502 C34.6871647,7.30476881 36.0647669,7.87299989 37.1487035,9.08586286 C38.1586268,10.2127749 38.9321851,11.5497892 39.9397209,12.6767013 C43.8122873,17.0124476 45.8703343,17.2703004 50.793412,14.4506327 C52.6389692,13.3929589 53.4841532,11.9222432 53.6703802,9.89045897 C53.8780949,7.64379744 53.9306205,5.34461035 54.5012391,3.18628727 C54.8808557,1.75138442 56.1247565,0.560009183 57.908238,0.667447832 C59.543693,0.762948854 60.7661061,1.6272331 61.4274507,3.12898666 C62.5257124,5.62156331 62.4612492,8.26216655 62.6427012,10.9361951 C63.0151552,16.3797534 68.0504465,18.4330253 72.4936315,15.033189 C74.5827164,13.4359344 76.2444341,11.2847739 78.1258043,9.41056633 C80.2936774,7.25224325 81.981658,7.10182914 84.0134422,8.83517268 C86.5919698,11.0364712 86.9095107,13.0587053 85.0448532,15.692146 C83.5144494,17.8528566 81.8766069,19.9419415 80.4536416,22.1695028 C80.155201,22.6350703 80.3485905,23.7476572 80.7329821,24.2251623 C81.1316989,24.714605 82.0508962,25.0440835 82.7217909,25.0082706 C85.8757121,24.8459189 88.3969391,22.9908116 91.1473685,21.720648 C92.4891579,21.0998913 94.0195617,20.6605866 95.4831149,20.6008985 C97.6056251,20.5149476 99.004715,21.9044874 99.7615606,23.7882451 C100.554219,25.7555661 100.188928,27.6751367 98.3171077,28.7447481 C96.010758,30.0626622 93.4417805,30.9173963 91.0876804,32.1589096 C89.2994237,33.1019822 88.2130996,34.6108983 88.669117,36.8193595 C89.1752724,39.2665731 90.4358859,41.1503308 93.0430638,41.405796 C95.2897253,41.6254484 97.5865249,41.3031324 99.8546741,41.3747582 C102.564516,41.4630966 103.808416,43.3158164 104.453048,45.6603665 C104.918616,47.3483471 104.240559,48.979027 102.72448,49.3896814 C100.188928,50.0772887 97.505349,50.287391 94.8671333,50.5070433 C91.1282683,50.8150341 89.7554411,53.2526977 88.9818829,56.461532 C88.3133757,59.2382242 88.1653491,61.6639501 91.2810699,63.2039041 C93.3725423,64.2377027 94.9650218,65.8898703 95.7194799,68.2033826 C96.2160852,69.7194613 96.3354615,71.3358161 95.3374758,72.5630042 C94.3323276,73.7949674 92.7374605,74.1196709 91.1807939,73.5848651 C90.1111824,73.2171862 89.0726088,72.6967056 88.105661,72.1045993 C86.0953645,70.8750237 83.9012285,69.6597732 81.7261928,71.049313 C78.8611621,72.8781576 76.2062337,75.1200441 74.5254157,78.1975645 C73.6993319,79.7112557 74.5683912,81.1771963 75.1342348,82.5500235 C76.1369955,84.9876871 77.8154259,87.1579478 77.6721744,90.0205909 C77.6005486,91.434006 75.8099045,92.7113322 74.4514025,92.3054528 C70.8486264,91.2286788 69.3826858,87.8097423 66.8733964,85.5487556 C64.636285,83.533684 62.3108351,83.2280808 59.4911675,83.9538885 C56.5186982,84.7202842 54.7758045,86.2697883 54.7614794,89.4499723 C54.7567043,90.593597 54.81878,91.7396093 54.7495418,92.8808465 C54.6421031,94.6905908 55.0432074,96.8059385 52.6079314,97.5174211 C50.3397821,98.1811532 47.6872412,96.1708567 46.8921952,93.1219866 C46.6080797,92.0284999 46.727456,90.8371246 46.5101911,89.7221502 C45.6124815,85.0975133 43.6738108,83.433408 38.9369602,83.0466288 C37.3038927,82.9129274 35.8212393,83.3522321 34.9044295,84.655821 C33.3764132,86.8284693 32.1516126,89.2159948 30.6426965,91.4029682 C29.7258866,92.7304324 28.2121955,93.4657902 26.6841791,92.7447575 C24.9365104,91.9162862 23.2437548,90.4813833 23.6830595,88.3564856 C24.1319143,86.1838374 25.2827016,84.1544407 26.1469859,82.0701309 C26.910994,80.2245736 27.238085,78.4196043 25.7649818,76.7459489 C23.9218121,74.6544766 21.6059123,74.97918 19.4881772,75.9150901 C17.4205801,76.8295123 15.6275484,78.3384285 13.6124768,79.3984898 C11.4255034,80.5492771 8.81116298,79.6873804 7.71767629,77.6388835 C6.63612722,75.6094868 7.39058529,73.8618181 8.90905153,72.5630042 C11.2225638,70.5861331 13.6960402,68.7883263 16.1719042,67.0143949 C18.6764185,65.2237507 19.3902886,62.8911383 18.5642048,60.0189451 C17.8288469,57.4619052 15.4413214,55.6736486 12.6025535,55.5351721 C11.8457079,55.4969717 11.0840873,55.5972478 10.3224666,55.6330607" id="Fill-371" fill="#000000" mask="url(#mask-2)"></path>
            </g>
            <path d="M124.087327,45.0189528 C127.80948,44.9616522 131.011151,44.1212432 134.15791,42.6600776 C138.460231,40.6641063 140.23655,37.3072454 140.410839,32.7972096 C140.666305,26.2912026 135.631013,22.07722 129.387634,23.8965144 C123.755461,25.539132 119.608329,29.5191371 116.349357,34.1127362 C113.431801,38.2240552 115.979291,43.2975469 121.028907,44.5032473 C122.120006,44.7634876 123.246918,44.8804764 124.087327,45.0189528 M97.8579718,40.735732 C97.4640301,40.7166318 95.9336263,40.7572198 94.4414228,40.5375674 C92.4741018,40.2486768 90.3348789,37.4051339 90.5855691,35.4807883 C90.8720721,33.2627771 92.4860394,32.2695665 94.4557479,31.9186002 C97.45448,31.3837945 100.510513,31.1426544 103.497307,30.5529356 C106.849393,29.8892035 108.680625,26.9406095 107.661152,23.7341627 C106.975932,21.5782272 105.66518,19.6276188 104.90356,17.4883959 C104.089413,15.2011465 104.316228,12.9425473 106.393376,11.3070923 C108.592287,9.57852382 110.920124,10.0894543 112.519766,11.937399 C115.088744,14.9074808 117.457169,18.202266 121.964817,16.3113458 C125.96631,14.6329154 126.668242,10.6911107 127.396438,6.9021077 C127.675778,5.4337795 127.964669,3.87711285 128.685702,2.61172432 C129.170369,1.76176523 130.354582,1.05505767 131.352568,0.816305115 C133.023835,0.417588351 134.243861,1.53972535 135.077107,2.86002697 C136.831939,5.64388174 135.98198,8.73333978 136.101356,11.7487845 C136.275645,16.1776444 140.597066,18.0255892 144.378907,15.5210749 C145.004439,15.1056454 145.498656,14.4920514 146.0645,13.9811209 C146.630343,13.4701904 147.160374,12.8995718 147.785906,12.4769798 C150.720175,10.488171 153.055175,10.6481353 154.824331,12.9067344 C157.104418,15.812353 157.028017,18.5365196 154.447102,20.9288202 C153.062337,22.2133089 151.381519,23.1898069 150.037342,24.5101085 C148.342199,26.1718263 148.929531,29.1562332 151.166642,30.2688201 C153.191264,31.2739683 155.478513,31.799224 157.400471,32.9547863 C159.12904,33.9933599 159.754571,36.1182576 159.554019,37.9829151 C159.322429,40.1197504 157.524622,40.9649345 155.421212,41.0962484 C153.905134,41.1917494 152.329367,41.2060746 150.904014,41.6549294 C147.809781,42.6314273 146.052562,45.3054559 144.314444,47.7550571 C141.984219,51.0402922 145.897373,52.1695918 146.935947,54.3183648 C147.75248,56.0111204 148.530814,57.794602 148.85313,59.6234465 C149.008319,60.5044434 148.315936,61.9226336 147.559091,62.4646019 C146.79747,63.0089577 145.353017,63.1211714 144.417107,62.8060181 C140.955195,61.6361305 139.221852,58.4941469 137.042041,55.8702564 C135.716964,54.2730018 134.017046,53.5734568 131.987649,54.2992646 C130.056141,54.9892595 128.704802,56.3811868 128.585425,58.4607216 C128.408749,61.4833289 128.781203,64.5656244 128.346673,67.5380937 C128.143733,68.9180834 126.489178,69.8396683 124.700921,69.1448983 C122.43516,68.2662889 120.768667,66.8146734 120.317425,64.3340344 C119.909158,62.096923 119.777844,59.8048985 119.262138,57.5964373 C118.863421,55.877419 116.189393,55.0561102 114.534838,55.6888044 C112.240426,56.5626388 111.120676,58.6159107 109.480446,60.1606398 C107.644439,61.8915958 105.1638,61.7387941 103.337343,60.0794639 C101.396285,58.312695 100.971305,56.0731961 102.289219,53.9268106 C103.466269,52.0096276 105.221101,50.4529609 106.660778,48.6861921 C107.914229,47.1486256 108.7045,45.3818567 107.861704,43.4216983 C106.858943,41.0843108 104.936985,40.0003742 102.387108,40.1627259 C101.248258,40.2343517 100.118959,40.4420664 97.8579718,40.735732" id="Fill-394" fill="#000000"></path>
        </g>
    </g>
</svg>