<?xml version="1.0" encoding="UTF-8" standalone="no"?>
<svg width="164px" height="143px" viewBox="0 0 164 143" version="1.1" xmlns="http://www.w3.org/2000/svg" xmlns:xlink="http://www.w3.org/1999/xlink">
    <!-- Generator: Sketch 49.1 (51147) - http://www.bohemiancoding.com/sketch -->
    <title>desktop</title>
    <desc>Created with Sketch.</desc>
    <defs></defs>
    <g id="Page-1-Copy" stroke="none" stroke-width="1" fill="none" fill-rule="evenodd">
        <g id="Artboard" transform="translate(-5115.000000, -4834.000000)">
            <g id="desktop" transform="translate(5115.747053, 4833.567466)">
                <rect id="Rectangle-3" fill="#FFFFFF" x="3.25294668" y="4.87472419" width="155" height="102" rx="23"></rect>
                <path d="M87.7138053,125.019731 C87.5957097,123.77061 87.5564093,122.523145 87.5543692,121.27659 C87.5499906,118.601098 87.7172571,115.929799 87.6455029,113.255322 C87.6058875,111.795016 87.3518024,110.986315 85.7384992,110.928941 C80.2961619,110.73223 74.8565568,110.487707 69.4169517,110.233622 C68.4880387,110.189909 68.3104524,110.591527 67.9525477,111.443941 C65.6835412,116.86169 63.7669751,122.440632 60.7917215,127.549653 C59.8819332,129.109681 59.1579275,130.778992 58.1812028,132.732441 C68.7161688,134.032919 78.8932301,133.763808 89.2396815,133.64906 C88.9432489,130.519443 87.9801848,127.836523 87.7138053,125.019731 Z M6.35130589,81.3171078 C6.21196894,85.9930918 5.66964769,90.6499511 6.11634555,95.3532561 C6.32671702,97.5730849 7.39360089,99.0593457 9.0724745,100.127596 C12.7594394,102.473101 16.5324654,104.690198 21.1961549,104.223009 C21.8368317,104.158805 22.5034633,104.19842 23.142774,104.289945 C28.7859204,105.087718 34.4727803,104.858222 40.1213908,104.672439 C44.2550536,104.5372 48.407841,104.183394 52.5415038,104.228473 C62.3524641,104.335025 72.1579602,104.850025 81.9689205,104.895105 C87.6516823,104.92106 93.27707,106.173726 98.9557336,105.587691 C103.001969,105.171047 107.02908,105.404641 111.047995,105.665556 C114.45492,105.886856 117.794908,105.686047 121.141727,105.079521 C122.317895,104.866418 123.547339,104.709322 124.727605,104.811776 C129.169994,105.194269 133.371959,103.938871 137.631299,103.076894 C140.599722,102.477199 143.18292,100.795593 145.230627,98.8585365 C146.998293,97.1864932 149.093812,95.1879642 149.205828,92.3329229 C149.272764,90.6076036 151.044529,88.8617936 150.01043,87.4137822 C148.901199,85.8660493 146.555694,86.4274952 144.771634,86.083251 C139.423554,85.0518844 134.090501,83.6011409 128.646798,83.5000533 C122.647113,83.3894033 116.693873,82.6845223 110.692822,82.6216841 C101.10726,82.5205965 91.5216977,82.2665115 81.9334033,82.3457423 C71.4448829,82.4331694 60.9959779,81.6681822 50.5552693,80.8198661 C45.9926673,80.4483009 41.4327974,79.4538176 36.8934182,79.5740299 C29.5126582,79.7680088 22.1660494,78.4729948 14.7880214,79.3431677 C13.311323,79.5180219 11.5108711,78.1738302 10.9999689,76.6834713 C10.6420642,75.6452744 10.4275946,74.4895974 11.3073298,73.6030319 C12.5039883,72.3995432 13.8495461,72.226055 15.4874382,72.9514268 C18.2386599,74.1713081 21.2330382,74.1098359 24.183703,74.2122895 C29.6383346,74.4021703 35.0916003,74.5592658 40.5325714,75.0892927 C52.2751243,76.2340413 64.0436321,77.0741611 75.842193,77.2285246 C83.3458974,77.3268801 90.8577981,76.9075032 98.3615025,77.0099569 C108.498948,77.1492938 118.63093,77.5673046 128.765644,77.8637372 C130.403536,77.9115489 132.104266,77.7694798 133.636973,78.3527825 C139.034231,80.4059534 144.794857,80.1259135 150.35604,81.09854 C151.373747,81.2747603 152.327248,81.1873332 152.469318,79.7639106 C152.925578,75.2149691 154.291626,70.8217572 154.712369,66.253691 C155.12355,61.8072031 155.679531,57.3620813 156.467741,52.9688693 C156.952689,50.2627272 157.28054,47.581174 157.22863,44.849077 C157.16306,41.4626428 157.287371,38.0789407 157.321522,34.6952386 C157.381628,28.7501955 156.25054,22.9704443 153.935088,17.4830275 C152.743893,14.6635034 150.709847,12.5078788 147.658095,11.6923479 C142.379683,10.2839519 136.976961,9.39738641 131.52233,9.76758555 C124.992618,10.2101853 118.488861,10.8276392 111.949587,10.0039119 C110.871775,9.86867314 109.768007,9.87140524 108.677901,9.9069225 C102.00612,10.11866 95.4081057,9.47251908 88.8360463,8.36328769 C86.150395,7.90975959 83.4374227,7.73080724 80.7244504,8.30591366 C79.3283488,8.60098013 77.9008281,8.62283691 76.4869679,8.43705431 C69.7687414,7.55595303 62.9999711,7.45759754 56.2503255,7.39885745 C46.2030387,7.3127964 36.1530199,7.57097957 26.1016351,7.65021038 C25.1317406,7.65704062 24.0566605,7.65704062 23.2069783,7.2704489 C21.0035421,6.2677693 18.7236071,6.44672165 16.4532345,6.56010368 C12.5408716,6.75408256 10.5669316,8.35099326 9.95494183,12.1813932 C9.11208991,17.4488763 8.26513984,22.7163593 8.06159861,28.0753675 C7.78292472,35.4902788 7.71735439,42.903824 7.59714212,50.3201013 C7.43731445,60.002653 6.85127964,69.6797406 6.44829533,79.3581942 C6.48381259,80.0152635 6.37179662,80.6655026 6.35130589,81.3171078 Z M44.7413668,2.00159984 C56.6109623,2.24612252 65.9793873,2.86630854 77.8612771,2.30213051 C81.3187459,2.13820469 87.2855813,2.73653393 90.7307556,3.35125575 C98.177086,4.68042094 137.031603,4.30339156 143.17609,5.32792793 C143.606395,5.39896245 149.671586,5.20541559 156.05448,8.5040551 C162.437373,11.8026946 161.590423,25.4006446 162.437373,29.4564426 C163.180504,33.0136329 161.057664,62.3208373 160.597306,66.6566753 C160.272187,69.7070616 159.363764,72.6126467 158.907504,75.6261497 C158.403432,78.956576 158.269559,82.3279837 157.635713,85.6474815 C157.281906,87.491647 156.320208,89.1691545 156.171309,90.9655083 C155.926786,93.942128 154.608549,96.5376201 153.831268,99.3188949 C152.693349,103.392452 149.763175,105.283063 146.181396,107.016578 C142.065492,109.008277 137.588951,109.262362 133.358299,110.591527 C130.503258,111.487655 127.508879,110.774578 124.567777,111.162535 C120.811144,111.658411 118.163026,112.038172 114.425518,111.616063 C108.536483,110.952164 102.703455,111.740374 96.8499377,111.536833 C94.661528,111.4617 94.7011434,111.508146 94.3992466,113.782616 C93.8145779,118.207247 92.831023,122.581335 93.3309967,127.11525 C93.5386361,128.997665 93.9416204,130.537201 95.7926161,131.362295 C95.9906931,131.451088 96.2557066,131.513926 96.3622583,131.672388 C99.3607348,136.161223 103.956122,134.840254 108.141695,134.837522 C109.085634,134.837522 110.10334,134.176354 110.860131,135.113464 C112.073182,136.613385 113.991114,137.646118 114.283449,139.773055 C114.548462,141.708746 113.018488,143.05567 110.895648,142.521545 C108.664891,141.960099 106.399983,141.83169 104.158297,141.466955 C94.1437956,139.841358 84.0473311,139.626888 73.931742,139.531265 C68.2735691,139.477989 62.6031018,138.628306 56.9722499,138.887856 C52.439701,139.096861 47.9112502,139.253957 43.3759692,139.346848 C42.6451332,139.361875 41.9320559,139.819501 41.1930237,140.003917 C39.399402,140.450615 36.6290556,139.471158 35.7192673,137.905667 C35.0212166,136.70491 34.2862825,135.375745 34.9966277,133.904511 C35.6495989,132.553489 37.9691492,131.168316 39.4185267,131.788502 C42.3924143,133.058927 45.2324291,131.855438 48.1229877,131.882759 C49.3811184,131.895053 50.1706944,131.411472 50.5272331,130.169734 C50.9069945,128.844667 51.7389181,127.937611 53.0421283,127.347478 C54.1499937,126.847504 54.9136148,125.898101 55.4736947,124.780673 C57.3369848,121.074583 58.9625825,117.267406 60.4324507,113.391927 C60.6250636,112.887855 60.7015623,112.335971 60.7985517,111.80048 C60.9816022,110.773212 60.7288832,110.083357 59.4994396,110.11341 C55.4736947,110.211766 51.426093,110.068331 47.4290351,110.448092 C43.707919,110.800533 40.0086596,110.736328 36.3080342,110.622946 C31.4107504,110.469949 25.3038628,110.49727 20.4871758,111.512244 C18.6976522,111.889273 17.0474656,111.07101 15.3453692,110.771845 C10.4453532,109.909869 6.41004598,107.334867 3.22442088,103.658831 C0.917164962,100.995036 -0.339599657,97.7370107 0.0811432808,94.0309211 C0.239604907,92.6279893 0.276488216,91.1991026 0.215016034,89.7893406 C-0.114201654,82.2596812 2.0646457,18.6469008 2.48948678,16.9215815 C3.23808136,13.8793915 3.35965968,10.7197214 4.26261774,7.67479925 C5.66554954,2.94007515 8.19547136,0.908761037 12.8263758,0.608230367 C14.6746394,0.488018099 16.5365635,0.58773964 18.3943895,0.58773964 C27.1835455,0.863681437 35.9317201,1.81991539 44.7413668,2.00159984 Z" id="Fill-1" fill="#000000"></path>
                <path d="M82.3784619,93.1424432 C82.4235415,95.1491684 81.4208619,96.1013042 79.5288847,96.4004689 C77.1505943,96.7761322 74.2286165,93.3227616 74.1999295,91.1507445 C74.1780727,89.6276004 75.5509515,88.1140187 76.9880345,88.0539125 C79.6245081,87.9459947 82.3156236,90.4868449 82.3784619,93.1424432" id="Fill-24" fill="#000000"></path>
            </g>
        </g>
    </g>
</svg>