<?xml version="1.0" encoding="UTF-8" standalone="no"?>
<svg width="227px" height="324px" viewBox="0 0 227 324" version="1.1" xmlns="http://www.w3.org/2000/svg" xmlns:xlink="http://www.w3.org/1999/xlink">
    <!-- Generator: Sketch 49.1 (51147) - http://www.bohemiancoding.com/sketch -->
    <title>writing0002</title>
    <desc>Created with Sketch.</desc>
    <defs></defs>
    <g id="Page-1-Copy" stroke="none" stroke-width="1" fill="none" fill-rule="evenodd">
        <g id="Artboard" transform="translate(-7529.000000, -856.000000)">
            <g id="writing0002" transform="translate(7529.000000, 856.892960)">
                <g id="Group-44" transform="translate(26.304513, 4.885321)" fill="#FFFFFF">
                    <ellipse id="Oval-72" cx="99" cy="59" rx="52" ry="59"></ellipse>
                    <rect id="Rectangle-43" x="29" y="108" width="110" height="87"></rect>
                    <polygon id="Rectangle-44" points="20 195 137 195 186 307 0 307"></polygon>
                </g>
                <path d="M57.2115188,221.290906 C56.9092239,221.290906 56.3989501,221.19659 56.3530013,221.305416 C53.5718883,227.576222 51.3953651,234.045332 50.2732464,240.821575 C50.1015429,241.868724 50.4086745,243.18673 50.9431319,244.122635 C53.5815617,248.765884 56.4545724,253.264032 60.4763036,256.877061 C60.6770274,257.056019 61.2550152,256.947193 61.5863304,256.806928 C61.8692784,256.683592 62.2320323,256.323257 62.2392874,256.062074 C62.3045831,253.79849 62.5222354,251.508304 62.2683077,249.27374 C61.576657,243.20124 60.7447415,237.138414 59.8233466,231.092516 C59.3638584,228.07924 58.6020753,225.109495 57.9297714,222.134914 C57.8572207,221.813272 57.455773,221.564181 57.2115188,221.290906 M171.786119,200.052876 C171.851415,200.807404 171.807885,201.590953 172.001353,202.314042 C175.585361,215.789139 181.000068,228.575004 186.736415,241.232696 C186.89119,241.583358 187.087077,241.965458 187.374862,242.190366 C187.935922,242.628089 188.651756,243.351178 189.159611,243.247189 C189.769038,243.121434 190.492127,242.349978 190.714616,241.701857 C194.487256,230.770874 198.472712,219.90035 201.773772,208.824265 C203.321522,203.641721 204.973262,198.52931 206.808796,193.450756 C209.306961,186.563269 211.439954,179.537936 214.071129,172.703653 C215.838949,168.120862 214.803891,164.580385 211.614076,161.112458 C206.639511,155.705007 202.460586,149.671201 198.228458,143.668833 C193.778677,137.354498 188.876663,131.36664 183.258815,126.01723 C181.759432,124.592816 179.312053,125.175641 178.596219,127.180461 C175.870728,134.812802 173.413675,142.549133 170.424583,150.077485 C166.992931,158.735211 164.693072,167.673466 162.746293,176.735058 C161.000238,184.863163 162.115101,186.483463 170.862306,188.2271 C173.529756,188.761558 176.110145,189.349219 178.339873,191.054162 C179.757031,192.137587 179.844092,195.138771 178.202026,196.016635 C176.543032,196.904173 174.65913,197.375753 172.97837,198.23427 C172.419729,198.519637 172.173057,199.426521 171.786119,200.052876 M75.5668646,65.8919852 C74.0336249,77.0116005 78.4737322,86.7551694 84.4156406,96.0295767 C87.9778836,101.586966 92.3889707,106.469633 96.9330675,111.233801 C100.188179,114.650942 103.994676,117.226494 108.417855,118.863724 C111.315049,119.937475 114.190478,121.103124 117.148131,121.976152 C124.949758,124.273593 132.526477,123.550504 139.476841,119.294192 C143.080196,117.088648 146.378838,114.338974 149.612184,111.596554 C151.365495,110.109264 152.804418,108.135883 152.872133,105.654646 C152.937428,103.156481 153.979741,101.233886 155.72096,99.5482892 C157.97487,97.3693477 159.314641,94.6317651 160.74631,91.8554888 C166.112649,81.4371977 169.227495,70.2909805 171.394345,58.907764 C172.99288,50.496711 172.460841,41.9889236 170.335104,33.5996357 C168.535845,26.5017517 163.84181,21.432871 158.980908,16.4268676 C158.458542,15.8899918 157.720943,15.5393298 157.036547,15.1886677 C151.841912,12.530891 146.533613,10.40999 140.521572,10.3326026 C135.895251,10.2721436 131.252002,9.88278776 126.65712,9.31931008 C119.926826,8.49464962 113.631837,9.76428816 107.414236,12.2769633 C101.167614,14.7993119 96.2752738,19.1499399 91.2837806,23.4280172 C86.7904693,27.2732083 83.4894091,31.9478965 81.1363456,37.3577658 C77.2137671,46.3613169 75.3903243,55.7638972 75.5668646,65.8919852 M63.1437537,108.624391 C59.0518901,108.55184 56.0313595,108.97989 53.1849508,110.404303 C51.9660978,111.01373 50.8439792,112.733183 51.0205194,114.16727 C51.2139881,115.693255 51.4292221,117.221658 51.7194252,118.733132 C53.4727355,127.830999 55.5017389,136.890173 56.950336,146.038825 C58.3989331,155.221335 60.2199575,164.261161 63.3928447,173.020458 C64.3069845,175.550062 64.8825539,178.21993 65.4121746,180.865615 C65.6249902,181.944203 65.3734808,183.146128 65.1969406,184.265828 C64.916411,186.06025 63.1606822,187.293614 60.8850063,187.426623 C58.6601159,187.554796 56.6311126,186.403657 56.2683587,184.76401 C55.610565,181.760408 55.2502295,178.660071 54.2828859,175.762877 C50.5924698,164.730323 48.3482326,153.393055 46.3796882,141.959053 C45.1414883,134.752343 44.074992,127.46099 41.1197571,120.662983 C41.0036759,120.396963 40.6167384,120.10676 40.3386271,120.089832 C39.9855467,120.070485 39.4922014,120.208331 39.2721307,120.464677 C38.5224394,121.337705 37.6953606,122.208314 37.206852,123.228862 C28.6652076,140.974781 20.1816038,158.749721 11.6593062,176.500477 C10.3775758,179.172764 10.6000649,181.741061 11.920489,184.273083 C12.9966588,186.328688 14.0438083,188.40364 15.2892632,190.352838 C21.3158142,199.794112 27.3907323,209.206366 33.4777423,218.611364 C34.9456862,220.877367 36.4208853,223.155461 38.1016449,225.261852 C38.7207449,226.040564 40.1282299,226.935356 40.8368091,226.708031 C41.6977449,226.432338 42.3869773,225.111914 42.8150269,224.10104 C43.4123616,222.688718 43.8234826,221.169988 44.0967572,219.656095 C45.0641009,214.333287 45.8984348,208.983877 46.8488499,203.65865 C49.0737403,191.167825 46.8367581,192.524524 60.1498251,190.904224 C63.2090494,190.529378 66.3190592,190.473756 69.4073039,190.418134 C91.4385555,190.033614 113.426277,188.754302 135.399488,187.141257 C138.480477,186.913931 141.566304,186.713207 144.65213,186.543922 C147.297815,186.396402 149.02936,184.783357 149.941081,182.618925 C151.278434,179.436365 152.373951,176.120794 153.210703,172.773785 C156.119989,161.15357 159.505692,149.697803 163.783769,138.5008 C165.573355,133.821275 166.922799,128.974883 168.431855,124.193787 C168.659181,123.470698 168.813956,122.650874 168.709966,121.918111 C168.608395,121.209532 168.315774,120.312321 167.793408,119.91571 C164.057044,117.076556 160.913177,116.972567 157.261454,119.516681 C154.405372,121.504572 151.677463,123.67384 148.785106,125.603691 C141.109234,130.720938 132.710272,132.882951 123.464885,131.806782 C114.096162,130.716102 105.569028,127.15144 97.2643827,123.018465 C94.889554,121.838305 92.8629691,119.896363 90.8242923,118.133379 C89.078237,116.619486 87.4917934,114.90487 85.91986,113.202345 C83.1967876,110.244692 80.45195,107.492599 75.9828223,109.973835 C73.2863519,109.809387 70.5850448,109.732 67.9030845,109.456307 C65.9901624,109.260419 64.1062606,108.798513 63.1437537,108.624391 M78.8364861,310.080962 C82.6937689,309.829452 86.5486334,309.539249 90.4059162,309.340944 C104.316318,308.620273 118.146914,308.354253 132.096009,310.005993 C145.121292,311.546487 158.245727,312.835473 171.425784,312.835473 C174.516447,312.835473 177.609528,313.01685 180.700191,313.166788 C183.534508,313.307053 185.831949,314.697609 187.969779,316.429154 C189.08706,317.331202 189.827078,319.357787 189.089479,320.54762 C188.535675,321.444831 187.544147,322.155829 186.598569,322.697541 C185.979469,323.050622 185.09435,323.077224 184.339822,323.036112 C172.760718,322.409757 161.162268,322.342042 149.63395,320.629844 C140.46595,319.270726 131.19638,318.424301 121.941319,317.877752 C116.175951,317.539181 110.34045,317.986578 104.562991,318.426719 C89.1072573,319.60446 73.6394323,319.454522 58.1716073,319.101441 C51.5912521,318.951503 45.044754,318.847514 38.4643988,319.355369 C33.8646797,319.708449 29.199665,319.493215 24.5757623,319.275563 C21.4343138,319.123206 19.4294941,316.579093 20.1138897,313.831837 C23.5697249,299.964965 26.109002,285.858677 30.5950582,272.262662 C33.2721817,264.15874 34.8586253,255.810564 36.6917415,247.513174 C37.4801266,243.941258 36.85619,240.756279 34.7497992,237.622085 C29.1440427,229.286001 23.7511018,220.799979 18.3073754,212.352651 C13.9083802,205.525623 9.54082359,198.679248 5.19503223,191.818363 C4.37037176,190.514868 3.6642109,189.129148 3.01125393,187.728918 C-0.76138631,179.666109 -1.04191597,180.706003 3.09347814,172.926142 C8.34373582,163.047145 12.7814248,152.725588 17.3593787,142.503184 C21.4681708,133.335185 25.3254536,124.053522 29.2190118,114.788788 C30.6240785,111.444198 32.4426845,108.660666 36.1790494,107.574823 C37.2648927,107.258018 38.4039398,106.742908 39.2406921,106.005308 C45.6251602,100.406807 53.3179606,100.247195 61.1413523,100.600275 C64.606861,100.752632 68.0626962,100.979958 71.5282048,101.122641 C72.4882934,101.161335 73.5233511,99.5071771 73.1630156,98.5761089 C71.482256,94.2545011 69.980455,89.8482508 68.0457677,85.6427242 C65.0518391,79.1252464 64.3674434,72.2643615 64.5028715,65.2583751 C64.7882379,50.4386704 66.8970471,41.8946076 73.2960253,28.3953269 C74.9719482,24.8621042 77.0009515,21.6335948 79.9005641,18.9588896 C82.1714033,16.8621722 84.3068145,14.6155166 86.5244498,12.4583402 C95.2789098,3.94329773 105.808445,-0.409748702 117.97521,0.049739533 C126.850588,0.383473093 135.803354,0.917930461 144.523957,2.4656803 C159.215489,5.06783473 171.188785,12.3930445 179.287869,25.3409393 C181.164516,28.3372863 182.601021,31.432786 182.782398,35.0385594 C182.859786,36.5766358 183.014561,38.1509876 183.425682,39.6310234 C186.600987,50.9707094 184.441393,61.8291419 180.64215,72.5787482 C179.355583,76.2183787 178.151241,79.8918662 177.019448,83.5847006 C175.193587,89.5411192 172.722024,95.1613858 169.111414,100.276215 C167.783735,102.162535 166.6858,104.225396 165.585446,106.264073 C164.136849,108.955706 165.186417,111.059679 168.001387,111.100791 C170.700276,111.137066 173.40642,111.062097 176.105309,110.975036 C178.547851,110.897649 180.680844,111.66185 182.504287,113.228947 C184.260016,114.740421 186.035091,116.247059 187.640882,117.913308 C195.15956,125.714935 202.433985,133.719704 208.535505,142.735347 C213.52458,150.101668 218.837715,157.243083 225.258458,163.455848 C227.197982,165.332494 227.168962,167.620262 226.86183,169.905611 C226.663525,171.390484 225.957364,172.819734 225.398723,174.244148 C221.867919,183.235607 218.441104,192.26576 214.738596,201.187087 C210.436335,211.552174 206.835398,222.147005 203.667348,232.903867 C202.465423,236.976384 201.128071,241.010207 199.84634,245.060958 C198.905599,248.040377 197.602103,250.811816 195.432835,253.133441 C193.950381,254.719884 193.899595,256.59895 194.700072,258.509453 C197.091829,264.209526 199.606923,269.858813 201.909201,275.59516 C205.940605,285.636188 209.887367,295.711072 213.773671,305.810139 C214.455648,307.582797 214.757943,309.517484 215.082003,311.406222 C215.422991,313.372348 213.981649,315.546453 212.274288,315.906789 C210.600783,316.262288 207.969609,315.207883 207.202989,313.851184 C206.823306,313.17888 206.436369,312.504158 206.143747,311.79316 C205.40373,310.008411 204.603253,308.235754 204.025265,306.395382 C197.043462,284.221448 187.372444,263.167213 177.669987,242.100887 C172.988044,231.94136 169.174291,221.380386 164.973602,210.99837 C164.683399,210.282535 164.47542,209.537681 164.192472,208.81701 C158.506909,194.297182 161.636266,195.653881 144.267611,195.854605 C136.161271,195.948921 128.064605,196.974305 119.963101,197.552293 C115.7213,197.85217 111.479498,198.181066 107.235277,198.340678 C94.0914955,198.834023 80.9452953,199.242726 67.8039318,199.709469 C66.2610186,199.765092 64.7181055,199.948887 63.1872842,200.149611 C60.5875481,200.485763 59.138951,202.185869 58.2925253,204.505075 C57.3469469,207.099975 57.206682,209.77468 57.5379972,212.500171 C57.6540785,213.467514 58.8705131,214.657347 59.9926318,214.425185 C63.3928447,213.726279 66.8535166,214.81454 70.3045151,213.615034 C72.7252926,212.771027 74.7760611,214.492899 75.9731489,216.637983 C76.9017988,218.304233 77.7143675,220.118002 78.1254885,221.965628 C78.9670775,225.738269 79.6684016,229.556858 80.1375633,233.392375 C81.6925682,246.091179 84.2923043,258.552984 88.1761891,270.748769 C90.1858455,277.065523 91.3394028,283.512868 90.8339658,290.168193 C90.7154662,291.706269 90.512324,293.249182 90.1858455,294.753402 C89.8545303,296.274549 89.2523589,297.665106 87.6054563,298.310808 C85.2161175,299.249131 82.3527803,299.096775 81.1556925,297.418433 C76.9138906,291.459596 72.7712414,285.428209 68.7712754,279.302505 C67.9780536,278.08607 67.8498806,276.36178 67.6588302,274.845469 C67.2186888,271.35094 65.8184589,268.968856 61.8402581,269.12605 C61.4605758,269.14056 61.0760567,269.048662 60.6915376,269.002713 C57.8064351,268.661725 55.7435748,267.039006 54.0120296,264.821371 C52.3530353,262.698051 50.6311636,260.625517 48.8996184,258.560239 C48.2539165,257.786364 46.4788409,258.170883 46.0507914,259.121298 C45.8911797,259.469542 45.671109,259.798439 45.5526094,260.161193 C40.5562794,275.587905 35.0520941,290.874353 32.6240615,307.009646 C32.3169299,309.050741 33.7437618,310.663786 35.9178666,310.714572 C37.078679,310.738755 38.237073,310.791959 39.3930487,310.762939 C52.5368306,310.43646 65.6806124,310.100309 78.8243943,309.764157 C78.8268127,309.868146 78.8316494,309.974554 78.8364861,310.080962" id="Fill-3" fill="#000000"></path>
                <path d="M94.8946326,273.883204 C95.1292134,272.850565 95.0832646,271.955772 95.496804,271.404386 C98.0384994,268.004173 100.585032,264.601542 103.332288,261.375451 C104.821997,259.626977 106.638185,258.122758 108.451954,256.693507 C112.219757,253.723762 117.714269,253.731017 121.334553,256.695926 C122.819425,257.91236 124.190635,259.300499 125.462692,260.741841 C127.818174,263.423801 130.773409,265.186785 133.943877,266.683749 C137.000683,268.127509 139.099819,267.815541 141.22072,265.501171 C141.743086,264.932857 142.207411,264.311339 142.708011,263.721259 C147.032037,258.613685 147.334332,258.386359 153.356046,260.848248 C156.306444,262.05501 159.193965,262.741824 162.349924,262.553192 C163.07785,262.512079 163.82996,262.845813 164.572396,262.99817 C165.783994,263.247261 166.727154,265.834905 165.972626,266.850616 C163.532501,270.137166 160.504716,271.334254 156.918289,270.306451 C155.068244,269.771994 153.305261,268.879619 151.433451,268.502355 C150.398393,268.291958 149.039275,268.519284 148.144482,269.070669 C146.509671,270.069452 145.017544,271.356019 143.634242,272.698208 C140.328346,275.912207 136.795123,275.622004 132.976534,273.779215 C128.062428,271.411641 123.498984,268.67164 119.83517,264.466114 C117.641719,261.946183 114.009343,261.866378 111.482158,263.960677 C109.714337,265.431039 108.219791,267.22788 106.577726,268.853017 C104.123091,271.285886 101.695058,273.745358 99.1364345,276.064564 C98.7132216,276.449083 97.4992054,276.46843 96.9937683,276.137115 C96.1134856,275.55429 95.5016407,274.570018 94.8946326,273.883204" id="Fill-36" fill="#000000"></path>
                <path d="M129.66314,68.013128 C130.519239,68.013128 131.368083,67.7761288 131.975091,68.0639136 C133.331791,68.699942 134.891632,69.3359705 135.781589,70.4435789 C138.335376,73.6237212 141.331723,73.8389552 144.949588,72.7990607 C146.642439,72.3129705 148.330454,75.2270933 147.447753,76.8764142 C147.094673,77.5390446 146.712572,78.2911543 146.134584,78.7143672 C140.424838,82.8811999 136.768279,81.9138563 132.545824,78.9707132 C130.028312,77.2174029 128.190359,74.7482582 127.612371,71.5463507 C127.375372,70.2041614 128.495072,68.2428721 129.66314,68.013128" id="Fill-78" fill="#000000"></path>
                <path d="M115.509693,75.0227419 C115.059878,75.8208005 114.769675,77.184755 113.961943,77.6514983 C107.642771,81.3008023 100.796396,79.4023903 97.4252036,73.0759628 C96.9874806,72.248884 97.0189192,70.6406752 97.5509582,69.965953 C98.121691,69.2525371 99.5388494,69.184823 100.607764,68.9163851 C100.948753,68.8269059 101.364711,68.9599156 101.732301,69.0542316 C102.099892,69.1461293 102.511013,69.2356085 102.791542,69.4629343 C105.613768,71.7386102 108.806002,72.5173219 112.385173,72.094109 C113.055059,72.0167215 113.949851,72.3528735 114.464962,72.8099433 C114.958307,73.2500847 115.096154,74.094092 115.509693,75.0227419" id="Fill-80" fill="#000000"></path>
            </g>
        </g>
    </g>
</svg>