<svg id="Layer_1" data-name="Layer 1" xmlns="http://www.w3.org/2000/svg" viewBox="0 0 50 73.5"><defs><style>.cls-1{fill:#eb7260;}.cls-2{fill:#fff;}</style></defs><title>booky_icon</title><polyline class="cls-1" points="50 73.5 25 60 0 73.5 0 0 50 0"/><path class="cls-2" d="M11.6,51.4c.1-2,.2-4.8.2-7.4V9.5H17V27.4h.1c1.8-3.2,5.1-5.2,9.7-5.2,7.1,0,12.1,5.9,12,14.5C38.9,47,32.4,52,26.1,52a10.42,10.42,0,0,1-9.6-5.3h-.1l-.3,4.7ZM17,40a12.25,12.25,0,0,0,.2,1.9A8,8,0,0,0,25,48c5.5,0,8.7-4.4,8.7-11,0-5.7-3-10.6-8.5-10.6a8.43,8.43,0,0,0-7.9,6.4,9.43,9.43,0,0,0-.3,2Z"/></svg>