<?xml version="1.0" encoding="UTF-8"?>
<svg width="323px" height="282px" viewBox="0 0 323 282" version="1.1" xmlns="http://www.w3.org/2000/svg" xmlns:xlink="http://www.w3.org/1999/xlink">
    <!-- Generator: Sketch 52.5 (67469) - http://www.bohemiancoding.com/sketch -->
    <title>working on laptop 2</title>
    <desc>Created with Sketch.</desc>
    <g id="ALL" stroke="none" stroke-width="1" fill="none" fill-rule="evenodd">
        <g id="working-on-laptop-2_DL" transform="translate(-238.000000, -318.000000)">
            <g id="working-on-laptop-2" transform="translate(238.000000, 318.000000)">
                <rect id="Rectangle" fill="#FFFFFF" x="18" y="125" width="194" height="142"></rect>
                <ellipse id="Oval" fill="#FFFFFF" cx="148.5" cy="88" rx="63.5" ry="73"></ellipse>
                <path d="M141.776297,1.17282792 C137.481515,1.88277976 133.346031,2.95552637 129.257399,4.42234315 C120.692823,7.51235379 112.67798,12.4382311 106.221751,18.8622005 C103.501202,21.5737787 101.233558,24.8014011 99.0970991,28.0008757 C99.1470747,27.5849127 99.181433,27.147057 99.181433,26.6810534 C99.181433,23.7380372 97.9976349,20.8794646 95.9236458,18.8027773 C91.569518,14.4398574 84.5416934,14.5743417 80.1719482,18.8027773 C77.6481783,21.2328767 75.599177,24.1289798 73.5345583,26.9375117 C71.8260161,29.2706574 70.3517347,31.7633077 69.0211332,34.3185088 C66.2162503,39.7291549 63.8111725,45.5088509 62.7616841,51.5418778 C62.0776425,55.4169012 61.6153678,59.3263276 61.2249331,63.2482642 C60.675201,68.8559455 60.1504568,74.5730906 60.0286412,80.2057922 C59.9193194,85.5069744 60.1036046,90.6736724 60.9188323,95.9404516 C62.2369398,104.491149 65.494727,112.482017 69.5208896,120.103834 C71.6635952,124.144618 74.3185512,127.810096 77.1890271,131.319197 C79.7159205,129.767936 82.511433,128.576343 85.578688,127.74129 C87.6401832,126.762369 89.764148,125.846 91.9349649,125.530118 C95.6331624,124.979671 99.0002713,124.34478 102.526677,124.34478 C102.617258,124.34478 102.707839,124.34478 102.79842,124.347908 C100.080995,121.286045 97.3229638,118.258585 94.7179835,115.096641 C91.8006554,111.02771 89.3737133,106.714831 87.2872302,102.170514 C85.859801,98.4456121 84.7728308,94.6800525 84.0544309,90.7612435 C83.4547232,84.6156252 83.7358362,78.4950272 84.1387648,72.3243886 C84.4198778,67.7800713 84.7103612,63.2357541 85.2007472,58.703947 C85.8473071,55.2198661 86.7499921,51.8733971 87.9931362,48.5394383 C90.4356957,43.3101895 93.4342342,38.324889 96.7045152,33.5710265 C96.8263308,33.4021392 96.938776,33.2426346 97.0605917,33.0706199 C96.6326752,37.2239945 98.8159861,41.6244449 102.43922,43.7355351 C107.758502,46.8505661 114.042939,44.7738788 117.300727,39.8386189 C117.875446,38.9597798 118.459537,38.0934509 119.059244,37.2365047 C120.742799,35.3068118 122.510687,33.5241133 124.462861,31.863389 C127.586338,29.6991305 130.856619,27.8789016 134.308062,26.3026209 C138.199915,24.8608244 142.154238,23.8349909 146.230376,23.1375493 C150.29402,22.737224 154.307689,22.6246325 158.380704,22.968662 C162.456842,23.6879965 166.386177,24.8139113 170.27803,26.2650904 C173.863783,27.9414524 177.209027,29.9086758 180.441826,32.2168012 C184.795954,35.8197285 188.519139,39.9136799 192.154867,44.2265591 C195.009726,48.0859448 197.645941,52.0203916 199.744918,56.3582911 C200.744431,59.1042722 201.462831,61.865891 201.975081,64.749484 C202.709098,71.748921 202.75595,78.7514856 202.256194,85.7884531 C200.669467,96.4533684 198.326859,107.190217 194.472488,117.270282 C193.241838,119.847376 191.814408,122.255583 190.152718,124.588728 C187.469651,127.77882 184.589805,130.821918 181.538167,133.674235 C182.725088,134.259086 183.877652,134.940889 184.980239,135.74154 C187.188538,137.342841 190.202694,139.360105 192.251695,141.60568 C195.440766,145.127291 196.793232,147.107024 198.101969,150 C199.804264,148.408082 201.422225,146.709827 203.002705,145.002189 C206.991386,140.654907 210.761423,136.073059 213.5788,130.868831 C216.399301,125.677113 218.082855,119.947457 219.791397,114.327266 C221.487446,108.719585 222.755577,102.964909 223.851918,97.2102333 C225.11068,90.648652 225.841573,84.0526678 225.988377,77.3816226 C226.047723,74.598111 225.866561,71.8114718 225.744746,69.0373428 C225.476126,63.2607744 224.657775,57.4310377 222.974221,51.8984175 C220.228684,42.8817164 214.568943,34.6594108 208.503149,27.5254895 C206.49163,25.1673235 204.430134,22.9061112 202.293676,20.6480265 C199.938574,18.1678864 197.218025,16.0286483 194.509969,13.9644711 C191.033539,11.3123163 187.419675,9.01670107 183.49034,7.09951836 C174.891407,2.88359292 165.592814,0.587977732 156.038096,0.0625508225 C155.282214,0.025020329 154.538827,0 153.782945,0 C149.769276,0 145.680644,0.537937074 141.776297,1.17282792" id="Fill-113" fill="#000000"></path>
                <path d="M300.583009,189.494326 C300.667514,189.675476 300.745759,189.85975 300.814615,190.050271 C300.739499,189.862874 300.658124,189.6786 300.583009,189.494326 M204,116.200113 C204,122.299895 209.107861,127.400226 215.223522,127.400226 C216.28453,127.400226 217.317369,127.422089 218.356468,127.478308 C220.700701,128.01239 222.947909,128.749486 225.185728,129.614637 C232.550186,132.984666 239.451432,137.247954 246.265043,141.614312 C251.973828,145.256066 257.425968,149.216396 262.86246,153.245439 C266.048613,155.797165 269.225377,158.336399 272.292597,161.02555 C276.020208,164.270647 279.591329,167.612566 283.174969,171.01695 C286.436238,174.127746 289.506588,177.482158 292.611366,180.752241 C294.990026,183.241502 297.396855,185.730763 299.684751,188.313723 C300.595528,192.239696 303.684657,195.531642 307.650134,196.6123 C313.430905,198.211424 319.984741,194.719587 321.465145,188.791586 C322.172483,185.9369 322.247599,183.169666 321.267966,180.36183 C320.206958,177.335363 318.382275,174.883582 316.219572,172.528622 C314.789246,170.979471 313.35892,169.43032 311.903555,167.906155 C308.554651,164.404949 305.205748,160.916235 301.794248,157.461878 C294.799108,150.396999 287.318846,143.944285 279.541252,137.760174 C271.425638,131.291843 262.890628,125.460663 254.124012,119.898086 C250.299376,117.458798 246.349548,115.20066 242.327733,113.089317 C238.083702,110.856166 233.745776,108.879124 229.220062,107.233151 C224.735035,105.587178 219.990233,105 215.223522,105 C209.107861,105 204,110.10033 204,116.200113" id="Fill-115" fill="#000000"></path>
                <path d="M67.3149252,109.610375 C63.9429626,111.969324 60.6808872,114.438356 57.7233558,117.313128 C56.313662,118.678173 54.9510626,120.077815 53.5916029,121.477458 C52.4268002,122.656932 51.2368804,123.789227 50.0218437,124.905796 C46.6373226,128.003881 44.012592,131.712148 44.0000335,136.518112 C43.987475,141.629167 47.5070001,146.258996 52.4393587,147.61146 C56.8787954,148.841258 62.5332688,147.108217 65.0324142,143.028809 C65.6069665,142.494114 66.2317528,141.981436 66.8188636,141.456177 C70.1091958,136.112373 74.3790924,132.152485 79.6787877,129.567078 C82.017812,127.843473 83.7697255,125.830504 84.5828896,122.905408 C85.4180312,119.857647 84.9879019,116.551974 83.3929699,113.82503 C81.8608305,111.195589 79.3083114,109.229798 76.3790367,108.41832 C75.3712155,108.147827 74.2566469,108 73.1169612,108 C71.0416658,108 68.9224157,108.493807 67.3149252,109.610375" id="Fill-117" fill="#000000"></path>
                <path d="M158.078192,72.340069 C155.60327,73.0113356 153.446812,74.6259241 152.142625,76.7875801 C151.032549,78.6328241 150.75958,80.4721538 150.91123,82.4297684 C150.893032,82.3173977 150.877867,82.20207 150.862702,82.0896994 C151.135671,84.7570232 150.899098,87.5071464 150.756547,90.1862987 C150.613996,92.9127649 150.365291,95.6274027 150.034695,98.3302119 C149.749593,100.734352 151.26609,103.54066 152.949401,105.170034 C154.796494,106.970922 157.332076,108 159.949549,108 C162.567022,108 165.114736,106.970922 166.964862,105.170034 C168.990901,103.194677 169.545939,100.997536 169.867436,98.3302119 C170.1859,95.6274027 170.446738,92.9127649 170.613552,90.1862987 C170.850126,86.6052242 171.502219,82.5273534 170.279923,79.0970922 C169.41552,76.6604239 168.053706,74.6495811 165.721335,73.3218334 C164.198772,72.4465254 162.451768,72 160.698698,72 C159.816097,72 158.933496,72.1123706 158.078192,72.340069" id="Fill-119" fill="#000000"></path>
                <path d="M123.036847,98.6270338 C122.734613,101.195578 124.339254,104.224113 126.105916,105.959116 C128.065758,107.90096 130.742235,109 133.518418,109 C136.279023,109 138.958616,107.90096 140.918458,105.959116 L142.560488,103.862912 C143.498345,102.245223 143.971948,100.497872 143.984411,98.6270338 C144.436203,94.8637463 145.068712,86.0498123 144.993932,82.3235711 C144.872416,76.6925323 140.332686,72 134.565329,72 C128.698266,72 124.389106,76.7048811 124.13361,82.3235711 C123.974704,86.0498123 123.501102,94.8637463 123.036847,98.6270338 Z" id="Fill-121" fill="#000000"></path>
                <path d="M243.543241,213.28332 C244.01596,213.338996 244.479224,213.385392 244.933034,213.422509 C244.917276,213.437975 244.898368,213.450347 244.879459,213.465813 C244.431952,213.400858 243.987597,213.342089 243.543241,213.28332 M235.30218,197.947721 C235.06267,198.312707 234.797947,198.656042 234.508013,198.974631 C234.498559,198.980817 234.489104,198.983911 234.482802,198.990097 C234.753827,198.643669 235.028004,198.294149 235.30218,197.947721 M306.159545,176.478503 C303.966131,177.471388 301.766414,178.442622 299.560394,179.40767 C287.408374,183.997833 274.953815,187.759044 262.124233,190.017009 C259.666096,190.313946 257.20796,190.583046 254.740369,190.80575 C252.622589,190.997522 250.479599,191.223318 248.346062,191.223318 C245.27024,190.283015 241.652367,190.471695 239.008294,192.244042 C237.098511,193.512214 235.844231,194.480354 234.662435,196.463033 C234.010083,197.548711 233.694937,198.523038 233.445972,199.534483 C231.025653,200.579951 229.040235,202.033709 227.631534,204.412304 C226.008533,207.118768 225.576783,210.428387 226.424525,213.46272 C228.211402,219.81595 234.797947,223.103918 241.135528,221.665625 C245.074849,220.771719 248.45006,218.547779 251.280069,215.782546 C252.112053,214.975246 252.830586,214.08134 253.457726,213.122478 C255.033454,212.977103 256.612334,212.825541 258.197517,212.652327 C265.105512,211.879052 272.073384,210.948028 278.782836,209.110725 C284.899814,207.431171 290.982127,205.692848 297.014016,203.722542 C304.016554,201.427461 310.763824,198.467363 317.460671,195.445402 C319.972382,194.322606 321.89162,191.399625 322.607,188.884934 C323.394865,186.045466 322.988327,182.964737 321.475627,180.428393 C320.0102,177.963191 317.583578,176.125889 314.788235,175.377358 C313.82704,175.117538 312.906815,175 312.014953,175 C310.007474,175 308.126054,175.590782 306.159545,176.478503" id="Fill-123" fill="#000000"></path>
                <path d="M224.846096,132.95081 C221.182551,145.805245 217.534529,158.650304 215.857992,171.954785 C215.094236,177.999151 214.392574,184.056018 213.725063,190.10976 C213.330767,193.650746 213.014087,197.204233 212.650838,200.751469 C212.374519,202.542277 212.045421,204.345585 212.001955,206.139518 C211.90571,210.961885 215.373659,215.356082 219.922043,216.615586 C221.837642,217.128138 223.753242,217.128138 225.659527,216.615586 C228.071878,215.943642 231.080332,214.062201 232.111092,211.621327 C232.570587,210.533716 233.16669,209.533614 233.346762,208.36162 C233.567196,207.042735 233.73485,205.66447 233.868352,204.308082 C233.989435,203.064205 234.088785,201.817203 234.209868,200.573326 C234.498606,197.569895 234.790447,194.553963 235.119545,191.550532 C235.749799,185.74369 236.41731,179.946224 237.122076,174.148758 C237.553629,171.542243 237.985183,168.935727 238.429155,166.329212 C238.901069,163.47267 239.7145,160.625505 240.357173,157.793967 C241.813277,151.374563 243.800284,145.036417 245.607219,138.713897 C247.221663,133.035194 243.69162,126.931447 238.090742,125.381289 C237.156228,125.125013 236.215504,125 235.290304,125 C230.568056,125 226.202849,128.203451 224.846096,132.95081" id="Fill-125" fill="#000000"></path>
                <path d="M191.870646,138.618946 L191.892551,138.622072 C191.98017,138.828376 192.061531,139.03468 192.136633,139.247236 C192.049014,139.037806 191.958266,138.82525 191.870646,138.618946 M132.46175,117.20709 C123.699837,117.85726 115.191394,119.945307 106.548393,121.27378 C99.2040327,122.17089 91.8315091,123.22429 84.4464685,123.630647 C76.0256446,124.105771 67.6642766,124.95912 59.2559697,125.656177 C51.8239903,126.278215 44.4139156,127.000279 36.9475143,126.656439 C33.0484632,126.475142 29.1587999,126.143805 25.2597487,125.828097 C21.4827386,125.521767 17.7182454,125.643674 13.9537522,125.156046 C11.0091237,124.765319 7.4887124,126.656439 5.49537728,128.647585 C3.27047733,130.882546 2,133.93647 2,137.096673 C2,140.247498 3.27047733,143.313926 5.49537728,145.533257 L7.91429102,147.402496 C9.78558521,148.490281 11.7914374,149.027922 13.9537522,149.040425 C17.3020545,149.47804 20.6628739,149.528053 24.0268225,149.74686 C27.4971657,149.965667 30.9581212,150.481427 34.4284644,150.687732 C41.419219,151.103465 48.3380007,150.956552 55.3318846,150.431414 C62.8233198,149.868767 70.3178844,149.124822 77.8093197,148.624691 C81.367282,148.393381 84.9471492,148.355871 88.4925946,147.99015 C92.8234828,147.543158 97.1262077,146.943001 101.422674,146.333466 C106.754924,145.664541 112.121595,145.083139 117.366226,143.92346 C122.088271,142.879437 126.79154,141.847917 131.566783,141.060211 C134.057669,140.772635 136.551685,140.525696 139.039443,140.247498 C142.440942,139.853645 145.829925,139.312878 149.228295,138.82525 C152.316869,138.431397 155.402314,138.015663 158.481501,137.5843 C168.754843,136.405867 179.209683,136.943508 189.46112,138.190709 C190.17459,138.303239 190.888061,138.42202 191.595272,138.562682 C191.948878,139.913035 192.214864,141.263389 192.4433,142.648126 C193.466566,151.46606 194.308336,160.32463 195.206432,169.161319 C196.257861,179.395248 197.234189,189.613549 197.734869,199.881863 C197.957046,204.229876 198.029019,208.574764 198.116638,212.922777 C198.213645,217.880326 198.507795,222.812867 198.773782,227.745409 C199.030381,232.556043 199.164939,237.366678 199.240041,242.177313 C199.302626,246.084586 199.365211,249.985607 199.089837,253.883503 C198.473373,254.04292 197.850652,254.180456 197.215413,254.302363 C185.693498,255.383896 174.130903,256.149721 162.568307,256.574833 C150.589521,257.015573 138.635769,257.625108 126.631948,257.428181 C114.775203,257.221877 102.965397,257.415678 91.1211683,257.931438 C85.1818433,258.187755 79.251906,258.162748 73.325098,258.137742 C70.8310821,258.125239 68.3245493,258.100232 65.8305334,258.137742 C62.5072651,258.197132 59.1933846,258.712892 55.9045381,259.225527 C55.2286192,259.328679 54.5495709,259.431831 53.8705227,259.531857 C48.6665725,260.09763 43.4532344,260.297682 38.2305087,260.591509 C36.1745885,260.707165 34.0873757,260.819694 32.000163,260.844701 C31.9626119,258.687886 31.9657412,256.524819 31.8749928,254.364879 C31.6903668,250.445102 31.3711828,246.512823 31.1145839,242.60555 C30.5669644,233.997046 25.7109101,196.831064 25.8110462,192.861274 C25.9205701,188.894611 22.7498226,170.833632 22.3711828,168.501771 C21.845468,166.610651 20.8941747,164.972722 19.5110442,163.581733 C17.4207022,161.506189 19.5605635,160.321504 16.6159351,160.321504 C14.5975659,160.321504 7.72940096,160.834138 5.98014769,161.8344 C3.74273072,163.153496 1.24871488,165.816693 0.857558066,168.501771 C0.0157886034,174.16888 8.17088989,234.866023 8.42748876,237.710518 C8.95320351,243.546421 9.3944284,249.407331 9.79810223,255.243234 C9.97021123,257.734511 10.0421841,260.225789 10.164225,262.704563 C10.3113,265.33025 11.6899398,267.965315 12.3001444,270.519109 C13.1200091,273.985641 14.7736169,277.917921 17.9998783,279.65275 C22.2650522,281.934598 27.3876418,282.022121 32.1409794,281.997114 C37.3136371,281.984611 42.4706485,281.850201 47.6433062,281.61889 C52.1337864,281.425089 56.5867156,280.815555 61.030257,280.18414 C66.1090371,279.671505 71.2065927,279.874683 76.3072775,279.921571 C81.9180308,279.955955 87.5037501,279.859054 93.1145035,279.602737 C104.664582,279.090103 116.205272,278.980699 127.767868,279.0776 C140.247335,279.1745 152.69238,278.455562 165.146813,277.917921 C171.136206,277.661604 177.103694,277.28338 183.068054,276.745739 C190.058808,276.123701 197.174733,275.842378 204.06848,274.535786 C207.648348,273.851231 211.084269,272.082018 213.872435,269.784541 C215.534069,268.418559 216.854614,266.696233 217.868493,264.805113 C219.104548,262.473252 219.81176,260.128888 220.165366,257.550088 C221.022781,251.457868 221.047815,245.403157 220.972713,239.260924 C220.913258,233.534425 220.619108,227.832932 220.387543,222.128313 C220.143461,216.233019 220.165366,210.3346 219.996386,204.43618 C219.664685,192.28925 218.5538,180.22359 217.367812,168.13605 C216.792029,162.334531 216.144274,156.536138 215.631076,150.737745 C215.374477,147.902627 215.117878,145.070636 214.801823,142.251147 C214.579646,140.138094 214.276109,138.050047 213.969442,135.949497 C213.456244,132.470461 212.207671,129.404033 210.815153,126.168811 C209.666717,123.521243 207.282225,121.383183 205.010386,119.723374 C203.408208,118.563695 201.561948,117.816624 199.681266,117.20709 C198.285618,116.766349 196.843032,116.450642 195.400446,116.194325 C190.769149,115.37536 186.050233,115.047149 181.368868,114.593906 C177.350906,114.20943 173.273487,114 169.199198,114 C164.705588,114 160.211979,114.256317 155.7966,114.825216 C148.048566,115.816101 140.259852,116.631939 132.46175,117.20709 Z" id="Fill-89" fill="#000000"></path>
                <path d="M247.380966,188.040735 C246.172194,188.065803 244.954052,188.090871 243.745281,188.065803 C237.364091,187.931063 231.020382,188.078337 224.651686,188.554626 C221.625071,188.786504 219.001381,189.607476 216.818096,191.810313 C214.744131,193.890944 213.572841,196.729878 213.572841,199.669084 C213.572841,205.704168 218.610951,210.808609 224.651686,210.783541 C227.987521,210.767873 231.317109,210.608066 234.646697,210.507795 C234.037626,211.347567 233.419185,212.181073 232.78825,213.011446 C232.985026,212.7545 233.17868,212.500688 233.375456,212.246877 C222.480894,226.482281 212.701401,241.419585 203.456015,256.792443 C200.432524,261.837348 202.309712,268.618201 207.313465,271.554273 C212.426538,274.553014 219.001381,272.707394 222.027995,267.675023 C230.49252,253.590026 239.347476,239.714972 249.295635,226.604487 C252.725173,222.133009 256.001663,217.567527 259.325004,213.011446 C260.705565,211.137624 261.961188,209.191732 263.304268,207.295976 C265.962316,203.548333 267.242927,198.262151 264.363114,194.160424 C263.144972,192.411941 262.204817,191.199284 260.315135,190.121367 C259.300017,189.544806 258.191195,189.153121 257.104238,188.739502 C255.629973,188.175475 253.955809,188.150407 252.394089,188.065803 C251.597611,188.015667 250.79801,188 250.001533,188 C249.126969,188 248.252406,188.018801 247.380966,188.040735" id="Fill-91" fill="#000000"></path>
            </g>
        </g>
    </g>
</svg>