<svg xmlns="http://www.w3.org/2000/svg" viewBox="0 0 207 73">
  <style>
    .st2{fill:#eb7260}.st4{fill:#14171a}
  </style>
  <g id="Layer_2">
    <path class="st2" d="M22.4 25.9c-3.5 0-6.7 2.4-7.8 6.3-.1.6-.3 1.3-.3 2.1v5.1c0 .6.1 1.3.2 1.9 1 3.5 3.9 6 7.7 6 5.3 0 8.5-4.4 8.5-10.8.1-5.8-2.8-10.6-8.3-10.6z"/>
    <path class="st2" d="M.6 0v72.3l22.1-13.2 22.1 13.2V0H.6zm22.7 51.2c-4.1 0-7.3-1.6-9.4-5.3h-.2l-.2 4.6H9c.1-1.9.2-4.8.2-7.3v-34h5.1V27h.1c1.8-3.1 5.1-5.2 9.6-5.2 7 0 11.9 5.8 11.8 14.3.1 10.1-6.3 15.1-12.5 15.1z"/>
    <path class="st4" d="M77 36.3c0 10.4-7.2 14.9-14 14.9-7.6 0-13.5-5.6-13.5-14.5 0-9.4 6.2-14.9 13.9-14.9 8.1 0 13.6 5.9 13.6 14.5zm-22.3.3c0 6.2 3.5 10.8 8.5 10.8 4.9 0 8.5-4.6 8.5-10.9 0-4.8-2.4-10.8-8.4-10.8s-8.6 5.5-8.6 10.9zM108.9 36.3c0 10.4-7.2 14.9-14 14.9-7.6 0-13.5-5.6-13.5-14.5 0-9.4 6.2-14.9 13.9-14.9 8.1 0 13.6 5.9 13.6 14.5zm-22.3.3c0 6.2 3.5 10.8 8.5 10.8 4.9 0 8.5-4.6 8.5-10.9 0-4.8-2.4-10.8-8.4-10.8s-8.6 5.5-8.6 10.9zM120.4 35.4h.1c.7-1 1.7-2.2 2.5-3.2l8.2-9.7h6.2L126.5 34l12.4 16.5h-6.2L123 37.1l-2.6 2.9v10.6h-5.1V9.4h5.1v26zM145.2 22.5l6.2 16.6c.6 1.9 1.3 4.1 1.8 5.7h.1c.5-1.7 1.1-3.8 1.8-5.9l5.6-16.5h5.4l-7.7 20c-3.7 9.6-6.2 14.6-9.6 17.6-2.5 2.2-5 3.1-6.3 3.3l-1.3-4.3c1.3-.4 3-1.2 4.5-2.5 1.4-1.1 3.1-3.1 4.3-5.7.2-.5.4-.9.4-1.2s-.1-.7-.3-1.3l-10.4-25.9h5.5zM166.2 49c0-1.1.7-1.9 1.8-1.9s1.7.8 1.7 1.9c0 1.1-.7 1.9-1.8 1.9-1 0-1.7-.8-1.7-1.9zM174.9 32.3c0 .9-.6 1.6-1.7 1.6-.9 0-1.6-.7-1.6-1.6 0-.9.7-1.6 1.6-1.6 1.1-.1 1.7.7 1.7 1.6zM172 50.6V36.3h2.6v14.3H172zM191.9 43.3c0 5.3-3.7 7.6-7.1 7.6-3.9 0-6.8-2.8-6.8-7.4 0-4.8 3.1-7.6 7.1-7.6 4 .1 6.8 3 6.8 7.4zm-11.4.2c0 3.1 1.8 5.5 4.3 5.5s4.3-2.3 4.3-5.6c0-2.4-1.2-5.5-4.3-5.5-2.9 0-4.3 2.8-4.3 5.6z"/>
  </g>
</svg>