<svg xmlns="http://www.w3.org/2000/svg" viewBox="0 0 163.11 54.62"><defs><style>.cls-1{fill:#fff;}.cls-2{fill:#3e3e3e;}</style></defs><path class="cls-1" d="M9.29,42.48a10.37,10.37,0,0,1-4.1-4H4.72v5H0V0H5V17.23h.46a9.29,9.29,0,0,1,3.9-4,11.77,11.77,0,0,1,5.83-1.47,11.56,11.56,0,0,1,9.48,4.38q3.54,4.38,3.54,11.7T24.62,39.54a11.58,11.58,0,0,1-9.47,4.39A11.92,11.92,0,0,1,9.29,42.48Zm-2-23.12c-1.64,2.07-2.46,4.91-2.46,8.5s.82,6.42,2.46,8.5A8.1,8.1,0,0,0,14,39.47a8,8,0,0,0,6.66-3.08Q23,33.3,23.05,27.86t-2.39-8.53A8,8,0,0,0,14,16.25,8.1,8.1,0,0,0,7.3,19.36Z"/><path class="cls-1" d="M38.24,39.63Q34.4,35.31,34.4,27.86t3.84-11.78q3.85-4.3,10.48-4.3t10.47,4.3Q63,20.37,63,27.86T59.19,39.63q-3.86,4.31-10.47,4.3T38.24,39.63Zm17.27-3.22q2.4-3,2.4-8.55t-2.4-8.57a8.13,8.13,0,0,0-6.79-3,8.13,8.13,0,0,0-6.8,3c-1.6,2-2.39,4.88-2.39,8.57s.79,6.52,2.39,8.55a8.12,8.12,0,0,0,6.8,3.06A8.11,8.11,0,0,0,55.51,36.41Z"/><path class="cls-1" d="M111.37,25.9c1.83-1.83,3.41-3.41,4.74-4.77l4-4.05,4.74-4.75h6.08L117.57,25.64l14.26,17.75h-6.31L113.88,28.84l-3,2.76V43.39h-5V0h5V25.9Z"/><path class="cls-1" d="M139.65,54.61q-.39,0-.78-.06l-.73-.1V50.21a7.18,7.18,0,0,0,1,.12l1.06,0a5,5,0,0,0,3.43-1.14,9.45,9.45,0,0,0,2.28-4l.57-1.84L135,12.33h5.36l8.52,25.55h.46l8.5-25.55h5.27L151,45.29q-2,5.41-4.25,7.37a9.44,9.44,0,0,1-6.38,2Z"/><path class="cls-2" d="M92,11.39l-7.63,6.8-7.63-6.8-7.64,6.8v13.6l7.64,6.8,7.63,6.8L92,38.59l7.63-6.8V18.19Zm2.63,12V29L92,31.63l-7.63,6.8-7.63-6.8L74.07,29V21l2.64-2.64,7.63,6.8L92,18.34,94.6,21Z"/></svg>