<svg id="Layer_1" data-name="Layer 1" xmlns="http://www.w3.org/2000/svg" viewBox="0 0 230 73.5"><defs><style>.cls-1{fill:#fff;}.cls-2{fill:#eb7260;}</style></defs><title>booky_1_w2</title><polygon class="cls-1" points="50 73.5 25 60 0 73.5 0 0 50 0 50 73.5"/><path class="cls-2" d="M11.6,51.4c.1-2,.2-4.8.2-7.4V9.5H17V27.4h.1c1.8-3.2,5.1-5.2,9.7-5.2,7.1,0,12.1,5.9,12,14.5C38.9,47,32.4,52,26.1,52a10.42,10.42,0,0,1-9.6-5.3h-.1l-.3,4.7ZM17,40a12.25,12.25,0,0,0,.2,1.9A8,8,0,0,0,25,48c5.5,0,8.7-4.4,8.7-11,0-5.7-3-10.6-8.5-10.6a8.43,8.43,0,0,0-7.9,6.4,9.43,9.43,0,0,0-.3,2Z"/><path class="cls-1" d="M83.8,36.8C83.8,47.4,76.5,52,69.6,52c-7.7,0-13.7-5.6-13.7-14.7,0-9.5,6.3-15.1,14.2-15.1C78.3,22.2,83.8,28.2,83.8,36.8Zm-22.6.4c0,6.3,3.6,11,8.6,11s8.7-4.6,8.7-11.1c0-4.8-2.4-10.9-8.6-10.9S61.2,31.8,61.2,37.2Z"/><path class="cls-1" d="M116.2,36.8c0,10.6-7.3,15.2-14.2,15.2-7.7,0-13.7-5.6-13.7-14.7,0-9.5,6.3-15.1,14.2-15.1C110.7,22.2,116.2,28.2,116.2,36.8Zm-22.6.4c0,6.3,3.6,11,8.6,11s8.7-4.6,8.7-11.1c0-4.8-2.4-10.9-8.6-10.9S93.6,31.8,93.6,37.2Z"/><path class="cls-1" d="M127.9,35.9h.1a39.19,39.19,0,0,1,2.5-3.2l8.4-9.8h6.2l-11,11.7,12.6,16.8h-6.3l-9.8-13.7-2.7,3V51.4h-5.2V9.5h5.2Z"/><path class="cls-1" d="M152.3,22.9l6.2,16.9a54.08,54.08,0,0,1,1.8,5.8h.1c.5-1.7,1.1-3.9,1.8-5.9l5.6-16.8h5.5l-7.8,20.3c-3.7,9.8-6.2,14.8-9.8,17.9a14.19,14.19,0,0,1-6.4,3.3L148,60.1a12.84,12.84,0,0,0,4.5-2.5,15.59,15.59,0,0,0,4.3-5.8,2.42,2.42,0,0,0,.4-1.3,3,3,0,0,0-.4-1.3L146.3,22.9Z"/><path class="cls-1" d="M177,48.3a3.47,3.47,0,0,1,3.5-3.7,3.42,3.42,0,0,1,3.5,3.7,3.47,3.47,0,0,1-3.5,3.7A3.41,3.41,0,0,1,177,48.3Z"/><path class="cls-1" d="M196.2,14.8a3.2,3.2,0,1,1-6.4,0,3.2,3.2,0,1,1,6.4,0Zm-5.8,36.6V22.9h5.2V51.4Z"/><path class="cls-1" d="M230,36.8c0,10.6-7.3,15.2-14.2,15.2-7.7,0-13.7-5.6-13.7-14.7,0-9.5,6.3-15.1,14.2-15.1C224.5,22.2,230,28.2,230,36.8Zm-22.6.4c0,6.3,3.6,11,8.6,11s8.7-4.6,8.7-11.1c0-4.8-2.4-10.9-8.6-10.9S207.4,31.8,207.4,37.2Z"/></svg>