<?xml version="1.0" encoding="UTF-8" standalone="no"?>
<svg width="113px" height="186px" viewBox="0 0 113 186" version="1.1" xmlns="http://www.w3.org/2000/svg" xmlns:xlink="http://www.w3.org/1999/xlink">
    <!-- Generator: Sketch 49.1 (51147) - http://www.bohemiancoding.com/sketch -->
    <title>smartphone</title>
    <desc>Created with Sketch.</desc>
    <defs></defs>
    <g id="Page-1-Copy" stroke="none" stroke-width="1" fill="none" fill-rule="evenodd">
        <g id="Artboard" transform="translate(-5561.000000, -4830.000000)">
            <g id="smartphone" transform="translate(5561.485333, 4830.442190)">
                <rect id="Rectangle-4" fill="#FFFFFF" x="10.5146671" y="24" width="89" height="124"></rect>
                <path d="M55.2471044,167.791774 C54.1213435,167.772364 52.8164164,167.082574 51.9847867,168.336738 C51.3427745,169.308714 51.9803075,172.475477 52.7940206,172.966691 C53.9242607,173.647522 55.724881,172.996552 56.6893923,171.43482 C57.1791132,170.639023 57.5090776,169.732741 57.8270976,168.845868 C58.0809164,168.139655 57.6807786,167.684274 56.9939748,167.632017 C56.41915,167.588719 55.8308876,167.732052 55.2471044,167.791774 M49.1450025,177.759387 C45.282478,174.680714 45.139145,170.370274 44.5210217,166.265875 C44.3030361,164.817615 45.0749438,163.768 46.0797675,162.837829 C48.1207691,160.953598 50.7589913,160.011482 53.0000618,158.440792 C53.8585664,157.837599 54.9111678,157.964508 55.5994646,158.805096 C56.7864407,160.256342 58.3840059,160.772938 60.0681681,161.428388 C63.5857977,162.797516 66.2986725,168.598022 64.4861078,171.926034 C63.4439578,173.838633 62.1241002,175.685538 61.3342759,177.595151 C61.9658367,178.435739 62.5988906,178.249107 63.1572919,178.208795 C68.2635284,177.840011 73.371258,177.469735 78.4730153,177.05168 C80.6379402,176.874007 82.6640112,176.024461 84.5766103,175.127137 C86.1383423,174.394048 87.9598653,173.584814 88.7407313,171.885721 C90.8772881,167.230387 92.6570057,162.449635 93.3856148,157.322496 C93.6483919,155.474098 93.2109278,154.518545 91.2759329,154.03181 C86.7400421,152.888133 82.1787694,152.465599 77.4980526,152.505912 C67.2587047,152.592509 57.0133845,152.62237 46.7785157,152.340183 C37.8530531,152.093829 28.9051948,152.962785 19.9946628,151.801191 C18.7479647,151.638449 17.4206418,151.635462 16.1022772,152.00126 C12.335308,153.047889 12.3248567,152.988167 12.3442663,156.943261 C12.3472524,157.655447 12.4054815,158.404958 12.2113847,159.070859 C11.9023231,160.133912 11.3454148,161.188007 9.95836986,160.766966 C8.50264453,160.325023 8.29809646,161.128285 8.28316595,162.207761 C8.25778407,164.229353 8.12788858,166.262889 8.28615205,168.27403 C8.54146388,171.545306 9.32531597,172.438151 12.5458283,173.011482 C20.1514332,174.362694 27.4838097,176.965083 35.2327476,177.713102 C39.8417979,178.159524 44.4120289,178.023657 49.1450025,177.759387 M67.3691905,146.980128 C70.3448424,146.971169 73.3040707,146.632246 76.3021183,146.792003 C82.0100546,147.095092 87.7254562,147.277245 93.448323,147.189155 C95.2817904,147.160787 96.2373434,146.79051 96.4672734,144.713675 C96.977897,140.100146 97.6512633,135.497068 98.4858792,130.929823 C99.1577524,127.247957 98.4560181,123.539217 99.0502527,119.869296 C100.514936,110.793036 100.998685,101.609275 101.669065,92.464334 C102.287189,84.0330715 101.894516,75.5391009 102.423056,67.0749913 C103.023263,57.4388362 103.257672,47.7802853 103.707081,38.1351719 C103.802636,36.1165661 104.75371,33.8441415 101.327156,33.6694545 C100.798616,33.6425796 100.256638,32.7691444 99.8221604,32.2062639 C98.9397669,31.0596003 97.7766796,30.7251567 96.3956069,30.7475525 C92.2255137,30.8177259 88.0882677,30.3474146 83.9360912,30.0607487 C74.9120872,29.4396393 65.8537431,29.3022785 56.8073434,29.0096404 C50.2737495,28.7991201 43.7341835,29.0992235 37.1931243,28.6617594 C33.423169,28.4094336 29.574082,28.0869345 25.8324946,29.2619661 C24.803782,29.5844653 23.7302779,29.4874169 22.6522947,29.2380773 C19.8782048,28.594572 18.7240759,27.1358606 19.2361926,24.7768391 C19.7557745,22.3819843 21.3339301,21.4682367 24.0617354,22.0579921 C26.6297842,22.6134073 29.1888746,23.1449337 31.833069,23.2091349 C38.6145095,23.3733706 45.3869916,23.6884044 52.1803764,23.6197241 C59.0842471,23.5525367 65.9702011,24.340868 72.908412,23.966112 C76.3140627,23.7824667 79.8630464,23.6436129 83.2463013,24.4423955 C86.5444524,25.2202754 89.8590269,25.3651014 93.1765876,25.1336784 C95.704324,24.9589914 98.1648731,25.2814905 100.631394,25.5771147 C104.599926,26.0548913 104.368503,26.1220786 104.374475,22.0445546 C104.378954,17.8117533 102.602222,14.5867618 99.3130298,12.3546496 C96.2806419,10.2957315 93.070581,8.4249378 89.5021876,7.29320468 C84.4959855,5.70310471 79.359888,5.70758387 74.2715681,6.34362385 C69.0652971,6.99459436 63.7933319,6.87216413 58.6826162,6.61088009 C51.2173581,6.22865888 43.7252251,6.04352048 36.258474,5.50154274 C30.1026222,5.05512031 24.5887826,7.14987173 20.6590708,11.8365607 C17.7655367,15.2884961 16.0455413,19.7467482 15.5558204,24.2408335 C14.6793991,32.2868887 14.2165531,40.3896798 13.89704,48.4820195 C13.5879783,56.3459224 13.3266943,64.2217696 13.7357904,72.0976169 C13.8432902,74.1192088 13.7775959,76.1557312 13.6745753,78.1803092 C13.0952713,89.6081262 12.3786065,101.028478 12.3875648,112.48317 C12.393537,118.800271 12.8742997,125.154699 11.9486077,131.435967 C11.4230535,135.007347 11.3663175,138.563796 11.4245465,142.136668 C11.467845,144.792807 11.5693725,144.764439 14.243428,145.125757 C23.3435776,146.356032 32.5333102,146.385893 41.6648139,146.505337 C50.2349302,146.618809 58.7975812,147.104051 67.3691905,146.980128 M0.308777281,157.14333 C0.0101669584,154.743996 0.383429862,152.732855 0.332666107,150.706784 C0.286381507,148.940504 1.18221247,146.895024 3.17245028,146.152977 C4.50425231,145.657284 5.02532733,145.051105 5.01039681,143.608817 C4.87751522,131.691279 6.35414326,119.81704 5.81216553,107.875613 C5.53445793,101.807851 5.507583,95.6803671 6.03910937,89.6379873 C6.54226777,83.9360231 6.27949068,78.2071841 7.00959292,72.5306019 C7.10216212,71.8228954 7.19622437,71.0853279 7.10066907,70.3880728 C6.00476919,62.5391005 7.20518268,54.657281 6.7542811,46.7963643 C6.66917715,45.2749447 7.00212766,43.7147057 7.25146728,42.1903 C8.13684689,36.751113 7.90243779,31.2522039 8.01292361,25.786142 C8.12938163,19.9527893 10.3659729,14.939122 13.0041951,9.98219064 C13.1714169,9.66715675 13.4550967,9.40437966 13.577527,9.07740136 C15.6752645,3.426201 20.6277167,2.1272461 25.7429115,1.05822114 C31.0253281,-0.0466370499 36.3256613,-0.0122968628 41.6916888,0.417702002 C53.4644008,1.35981757 65.2580155,1.07912387 77.0501371,0.650618054 C86.1487937,0.320653647 94.7368266,2.37658572 102.673889,6.79303239 C104.889578,8.02629302 106.637941,9.89410059 108.231027,12.1172544 C110.766229,15.6528007 111.409734,19.2868883 111.142478,23.3733706 C111.072304,24.427465 111.191748,25.5397884 111.457512,26.5640219 C112.017406,28.7214814 111.850184,30.7744274 111.21713,32.8975468 C109.97939,37.0512164 110.22873,41.4004757 109.968939,45.6511937 C109.431441,54.4422816 109.074601,63.2468069 108.92231,72.0617837 C108.738665,82.6445335 108.280298,93.2257903 107.706966,103.795103 C107.391932,109.616511 106.55433,115.409551 106.036241,121.222001 C105.582353,126.301363 105.403187,131.409092 104.811939,136.470537 C104.22069,141.552885 103.260658,146.587455 102.115488,151.586192 C100.759797,157.489718 99.5026473,163.41564 98.279838,169.349027 C97.6154301,172.571032 95.7147754,175.182379 94.0694325,177.872858 C92.7913803,179.963131 90.2337829,181.003788 88.0524345,181.375558 C82.4639423,182.325138 76.9247208,183.985412 71.1406389,183.50017 C70.4433838,183.441941 69.7192537,183.603191 69.0190125,183.719649 C61.0834432,185.045478 53.0627699,184.911104 45.1167492,184.407945 C38.3726351,183.980933 31.6031391,183.658433 24.860518,182.670033 C19.4556712,181.877223 14.1687754,180.824621 8.88486575,179.519694 C4.28328068,178.383482 2.35873715,175.118178 1.45394787,170.957043 C0.43717972,166.286778 -0.116742429,161.555297 0.308777281,157.14333" id="Fill-10" fill="#000000"></path>
                <path d="M72.4025661,18.4884043 C70.8333688,18.9990279 69.4060115,17.4119141 67.626294,17.2775394 C64.0758172,17.0117762 60.5716251,16.6444855 57.0047248,17.4985111 C54.0066772,18.2166689 52.0537657,17.0491025 50.8175189,14.6019909 C50.1217569,13.2239043 50.3755756,12.1100878 51.3759202,11.0380767 C52.3045983,10.0451974 53.2885193,9.11801236 54.7681335,9.72717742 C59.8654117,11.8219288 65.2822029,11.3471384 70.5735779,11.5830406 C73.1401336,11.6965125 74.830268,12.9924813 76.4935275,14.4034151 C77.8731072,15.5754606 77.0623802,17.7627812 75.2259267,18.2405577 C74.4361024,18.4465988 73.5805838,18.3958351 72.4025661,18.4884043" id="Fill-38" fill="#000000"></path>
            </g>
        </g>
    </g>
</svg>