<?xml version="1.0" encoding="UTF-8" standalone="no"?>
<svg width="217px" height="282px" viewBox="0 0 217 282" version="1.1" xmlns="http://www.w3.org/2000/svg" xmlns:xlink="http://www.w3.org/1999/xlink">
    <!-- Generator: Sketch 49.1 (51147) - http://www.bohemiancoding.com/sketch -->
    <title>rocket_0001</title>
    <desc>Created with Sketch.</desc>
    <defs></defs>
    <g id="Page-1-Copy" stroke="none" stroke-width="1" fill="none" fill-rule="evenodd">
        <g id="Artboard" transform="translate(-2660.000000, -9808.000000)">
            <g id="rocket_0001" transform="translate(2659.904894, 9807.848372)">
                <path d="M212.935552,4.40732369 C157.602219,25.740657 125.268885,44.0739904 115.935552,59.4073237 C106.602219,74.740657 89.2688855,107.07399 63.9355522,156.407324 L122.935552,204.407324 C169.602219,167.740657 195.602219,138.740657 200.935552,117.407324 C206.268885,96.0739904 210.268885,58.4073237 212.935552,4.40732369 Z" id="Path-90" fill="#FFFFFF"></path>
                <path d="M208.9023,33.5083 C209.4623,29.2183 209.4023,23.4943 209.5343,17.7743 C209.5973,15.0203 209.6653,12.2753 209.4623,9.5313 C209.3503,8.0293 208.5443,7.5643 207.0593,7.9813 C203.5493,8.9663 199.9463,9.6643 196.6243,11.2273 C194.4983,12.2283 192.4513,13.3973 190.3373,14.4243 C187.5673,15.7683 184.4873,16.4013 181.8213,17.9643 C177.5323,20.4803 173.3073,23.1163 168.7903,25.2043 C166.3183,26.3473 163.9313,27.6153 161.7003,29.1543 C159.2643,30.8313 156.9373,32.6643 154.5163,34.3633 C151.0863,36.7723 147.4053,38.8113 144.0793,41.3733 C141.4543,43.3963 138.7573,45.3223 136.2553,47.5073 C134.0573,49.4253 131.7333,51.1953 129.4833,53.0533 C125.1073,56.6633 121.1503,60.7193 117.2603,64.8283 C113.9623,68.3163 111.2793,72.3363 108.1863,75.9873 C105.5883,79.0543 103.8623,82.6323 101.4593,85.7793 C97.3103,91.2113 93.5923,96.9563 90.5683,103.0493 C88.7163,106.7803 86.5943,110.3863 84.9533,114.2523 C83.9163,116.6963 82.6933,119.1383 81.4383,121.5243 C80.5373,123.2383 79.7933,125.0363 78.9093,126.7623 C77.2573,129.9863 76.1543,133.4233 74.8553,136.7863 C74.4223,137.9113 74.4653,139.0843 74.0043,140.2153 C72.8683,142.9913 71.9183,145.8463 71.1423,148.7613 C70.8933,149.6953 70.7633,150.5893 70.7963,151.5093 C70.8423,152.8053 70.2263,153.1453 69.0523,153.0373 C67.6123,152.9043 66.4133,152.0923 65.2183,151.4883 C63.5833,150.6613 63.3393,148.7303 64.4163,147.1923 C65.6703,145.4043 66.1133,143.2963 66.9143,141.3373 C68.0543,138.5453 69.2723,135.7273 69.9013,132.8003 C70.7153,129.0083 72.6213,125.7113 74.0843,122.2283 C75.0253,119.9853 76.2123,117.8073 77.1283,115.5413 C79.0493,110.7823 81.7393,106.4133 83.8933,101.7793 C86.4503,96.2793 89.4823,91.0603 92.8473,86.0213 C95.3273,82.3083 97.7123,78.5313 100.2093,74.8313 C101.2903,73.2303 102.5263,71.7303 103.7313,70.2153 C105.9663,67.4043 108.2403,64.6263 110.3923,61.7443 C111.8813,59.7493 113.9153,58.1623 115.6993,56.3863 C118.7553,53.3433 121.7893,50.2753 125.1803,47.5963 C129.8333,43.9233 134.3273,40.0543 139.1183,36.5553 C145.2893,32.0483 151.8583,28.1233 157.9593,23.5043 C160.3833,21.6693 163.2833,20.5293 166.1003,19.3203 C167.6413,18.6583 168.9973,17.5743 170.5173,16.8523 C174.2963,15.0573 177.4353,12.1253 181.5623,10.9193 C184.8493,9.9583 187.8653,8.3723 190.8153,6.5483 C193.0313,5.1783 195.7823,4.6933 198.2523,3.7083 C201.8373,2.2793 205.7153,2.1913 209.3683,1.1403 C210.7383,0.7463 211.9843,0.5943 213.1613,1.2933 C214.4373,2.0523 215.4013,3.2133 216.1593,4.4923 C216.5563,5.1633 216.3083,5.9363 216.1483,6.6403 C215.4073,9.9053 216.2873,13.1643 216.1703,16.4023 C215.9853,21.5003 215.7583,26.6053 215.4343,31.6963 C215.2973,33.8633 215.1763,36.0543 214.9703,38.2263 C214.5773,42.3623 214.1203,46.4853 213.3283,50.5813 C212.9503,52.5393 212.7253,54.5773 212.4803,56.5833 C212.0693,59.9393 211.3443,63.2563 210.7293,66.5843 C210.5493,67.5563 210.4293,68.5583 210.3583,69.5153 C210.1613,72.1773 209.1953,74.6423 208.6633,77.2113 C207.9883,80.4613 207.3923,83.7213 206.5063,86.9473 C205.0923,92.0973 202.9833,97.0083 201.7373,102.2153 C201.0643,105.0303 200.1003,107.8183 199.2123,110.6003 C198.0753,114.1593 196.7583,117.6683 195.4443,121.1533 C194.1223,124.6613 192.6923,128.1603 191.1613,131.6023 C189.1403,136.1443 186.7233,140.4783 184.2343,144.7703 C181.9743,148.6663 179.7903,152.6273 177.2303,156.3233 C175.1203,159.3703 173.0103,162.4223 170.9363,165.4943 C169.3533,167.8403 167.5523,170.0123 165.8823,172.2863 C165.3153,173.0603 165.1553,173.6353 165.2333,174.7073 C165.4583,177.7863 165.6423,180.8673 165.0443,184.0153 C163.8703,190.1963 160.7003,195.5113 158.2493,201.1383 C156.4203,205.3373 154.2623,209.3963 152.4923,213.6183 C150.5753,218.1893 147.7333,222.1133 144.7583,226.0033 C143.9523,227.0593 143.1973,227.9543 141.9463,228.4843 C141.2573,228.7763 140.7963,229.5123 140.4453,230.2093 C139.3783,232.3323 136.9033,232.5263 135.4783,230.5773 C135.4213,230.4983 135.4423,230.3253 135.3773,230.2913 C132.3843,228.7253 133.9583,225.5133 132.8503,223.2653 C132.4383,222.4293 132.3723,221.4703 132.1683,220.5603 C131.7513,218.7013 131.1973,216.9453 129.5143,215.6523 C127.8513,214.3713 127.7843,212.7083 129.0033,211.7003 C130.1393,210.7593 132.4263,211.2783 133.5593,212.4393 C134.8783,213.7893 135.3623,215.5063 136.0263,217.1413 C136.6253,218.6143 137.1683,220.1403 137.2823,221.7543 C137.3613,222.8773 137.7403,222.8533 138.5383,222.2493 C141.5173,219.9973 143.6133,217.0543 145.5353,213.8943 C148.1813,209.5403 150.5243,205.0323 152.6653,200.4293 C154.8853,195.6553 156.6973,190.7003 158.6253,185.7983 C159.4263,183.7603 159.6193,181.6133 160.3303,179.5833 C160.4453,179.2553 160.5333,178.7583 160.2023,178.5573 C159.7933,178.3103 159.4153,178.6143 159.1873,178.9893 C157.5113,181.7493 154.5853,183.4093 152.9113,186.1993 C152.3303,187.1673 151.2043,187.7903 150.4373,188.6683 C148.8653,190.4693 147.2523,192.2413 145.3953,193.7353 C143.6103,195.1693 141.9063,196.6843 139.8053,197.7733 C137.5533,198.9403 135.5593,200.6243 133.5163,202.1683 C131.6223,203.6003 129.1873,204.3763 127.9793,206.6563 C127.9563,206.7003 127.9193,206.7553 127.8763,206.7703 C126.1533,207.3573 124.3433,206.8083 122.5263,207.4203 C120.6603,208.0493 119.3373,206.3863 118.3023,204.9303 C116.1703,201.9273 113.4163,199.5143 110.7933,196.9863 C106.9443,193.2773 102.7083,190.0173 98.4993,186.7353 C94.2383,183.4123 89.9423,180.1343 85.6193,176.8943 C80.0653,172.7333 74.5103,168.5713 68.8663,164.5353 C67.1763,163.3283 65.6413,161.8293 63.2533,161.6543 C61.5443,161.5283 61.3703,158.0643 62.9223,156.7033 C64.8383,155.0233 66.9743,154.8443 69.2003,156.0853 C71.8783,157.5793 74.0613,159.7043 76.4453,161.5793 C80.7803,164.9873 85.1913,168.2983 89.5483,171.6793 C94.1343,175.2373 98.7713,178.7193 103.5383,182.0413 C105.5493,183.4453 107.3303,185.2293 109.1513,186.9233 C111.5183,189.1263 114.3493,190.8053 116.7703,192.9823 C117.4223,193.5673 118.0653,194.1153 118.6273,194.8203 C120.3953,197.0353 123.0683,197.9903 125.4473,199.3253 C126.2403,199.7703 126.9963,198.8903 127.6343,198.4593 C131.7733,195.6703 135.9673,192.9463 139.9363,189.9303 C142.9743,187.6203 145.5403,184.7443 148.1323,181.9283 C151.6663,178.0903 155.3733,174.4083 158.8083,170.4873 C161.7413,167.1403 164.5593,163.7103 167.0283,159.9483 C169.4273,156.2943 171.7943,152.6013 174.2233,148.9613 C176.7003,145.2503 179.0443,141.4293 181.1833,137.4873 C183.1283,133.9063 185.0973,130.2983 186.5573,126.5443 C188.2333,122.2363 189.8583,117.8733 191.4123,113.5053 C192.7643,109.7043 194.0733,105.8713 195.3823,102.0553 C196.4443,98.9623 197.1973,95.7473 198.1513,92.6053 C199.1203,89.4163 200.0753,86.2233 201.0403,83.0333 C201.2803,82.2393 201.5573,81.3793 201.5993,80.6253 C201.8053,76.8823 203.2933,73.4353 203.9193,69.7843 C204.5693,65.9923 205.1283,62.1633 206.0773,58.4153 C206.4953,56.7653 206.4723,55.0253 206.7203,53.3303 C207.0573,51.0293 207.4203,48.7093 207.5873,46.3623 C207.8593,42.5403 208.6053,38.7553 208.9023,33.5083" id="Fill-420" stroke="#000000" fill="#000000"></path>
                <path d="M87.3234585,243.771278 C86.7774585,248.750278 87.8454585,253.620278 89.4504585,258.161278 C91.0994585,262.827278 93.1524585,267.453278 95.9444585,271.644278 C96.1014585,271.879278 95.9814585,272.332278 96.4364585,272.331278 C96.9084585,272.329278 97.0494585,271.871278 97.1204585,271.582278 C97.3174585,270.776278 97.3024585,269.916278 97.5194585,269.118278 C98.6874585,264.817278 99.8974585,260.529278 101.096459,256.237278 C101.705459,254.061278 102.322459,251.888278 102.933459,249.713278 C103.365459,248.178278 103.911459,246.665278 104.197459,245.103278 C104.682459,242.454278 105.661459,239.948278 106.326459,237.351278 C107.134459,234.199278 108.332459,231.107278 109.099459,227.957278 C110.074459,223.962278 111.415459,220.089278 112.668459,216.208278 C114.067459,211.874278 116.084459,207.721278 118.060459,203.600278 C118.824459,202.009278 118.223459,201.834278 116.965459,201.586278 C115.527459,201.304278 113.850459,199.573278 113.772459,198.178278 C113.624459,195.532278 111.702459,193.750278 110.594459,191.604278 C109.449459,189.390278 107.266459,187.865278 105.495459,186.079278 C101.638459,182.191278 97.8214585,178.253278 92.9104585,175.641278 C90.6224585,174.423278 88.3864585,173.061278 85.9944585,172.097278 C83.1534585,170.955278 80.3114585,169.812278 77.4994585,168.604278 C75.7174585,167.838278 74.0364585,166.840278 72.2684585,166.038278 C70.9354585,165.433278 69.6334585,165.365278 68.2874585,166.286278 C66.3074585,167.641278 64.5194585,169.167278 62.7774585,170.824278 C59.5284585,173.914278 55.6264585,176.244278 52.4614585,179.473278 C51.0574585,180.906278 49.1274585,181.856278 47.8514585,183.376278 C45.3224585,186.387278 42.5704585,189.203278 39.8404585,191.995278 C35.1834585,196.753278 31.1084585,202.001278 26.6714585,206.937278 C22.8154585,211.226278 18.4094585,214.911278 14.4744585,219.091278 C12.6104585,221.072278 10.7134585,223.018278 9.06845852,225.193278 C8.81445852,225.529278 8.72545852,225.824278 8.88445852,226.192278 C9.08045852,226.645278 9.50645852,226.438278 9.83845852,226.517278 C10.7674585,226.737278 11.4884585,226.048278 12.3584585,225.982278 C15.5794585,225.736278 18.7114585,224.918278 21.7164585,223.864278 C26.7324585,222.104278 31.6354585,220.016278 36.5624585,218.012278 C40.5874585,216.376278 44.3054585,214.109278 48.0334585,211.935278 C52.7154585,209.206278 57.3444585,206.339278 61.6854585,203.064278 C62.8614585,202.176278 63.9374585,201.253278 64.1774585,199.523278 C64.3414585,198.348278 65.3924585,197.321278 66.6934585,197.089278 C67.9424585,196.866278 69.2504585,196.715278 70.2974585,197.871278 C71.8404585,199.573278 71.8764585,202.283278 70.2594585,203.869278 C69.8554585,204.264278 69.4044585,204.608278 69.1574585,205.132278 C67.1674585,209.366278 64.4704585,213.237278 63.0124585,217.756278 C62.1894585,220.308278 60.7594585,222.657278 59.7194585,225.145278 C57.8544585,229.607278 56.0874585,234.109278 54.2644585,238.589278 C52.9734585,241.765278 51.6284585,244.918278 50.3664585,248.106278 C48.7694585,252.140278 47.4264585,256.288278 45.0284585,259.958278 C44.5824585,260.641278 44.1294585,261.647278 44.5894585,262.065278 C45.2264585,262.643278 46.3344585,262.615278 47.2334585,262.158278 C47.5534585,261.995278 47.8584585,261.778278 48.1274585,261.538278 C51.6284585,258.418278 54.9274585,255.093278 57.7534585,251.350278 C60.3914585,247.854278 62.9384585,244.285278 65.4014585,240.664278 C68.3844585,236.279278 71.3574585,231.892278 74.6544585,227.736278 C76.7954585,225.038278 78.9944585,222.386278 81.1454585,219.696278 C82.3464585,218.194278 83.7724585,216.959278 85.3024585,215.802278 C86.0834585,215.211278 86.8704585,215.151278 87.6504585,215.400278 C89.3234585,215.935278 90.6344585,216.642278 91.2294585,218.716278 C91.6914585,220.322278 91.4954585,221.546278 91.0184585,222.947278 C90.0544585,225.785278 89.3824585,228.704278 88.8454585,231.647278 C88.3304585,234.486278 87.3014585,237.235278 87.3214585,240.169278 C87.3304585,241.370278 87.3234585,242.571278 87.3234585,243.771278 M82.9694585,241.966278 C82.8024585,236.698278 83.6294585,231.974278 84.2204585,227.231278 C84.2334585,227.126278 84.2234585,227.014278 84.2614585,226.920278 C84.5564585,226.201278 85.3714585,225.194278 84.4144585,224.802278 C83.5544585,224.450278 83.4524585,225.895278 82.9004585,226.449278 C81.5024585,227.850278 79.9324585,229.112278 78.9194585,230.847278 C77.2484585,233.707278 74.7514585,235.921278 72.9894585,238.736278 C69.2174585,244.763278 65.2094585,250.635278 60.7424585,256.194278 C57.9974585,259.610278 55.1424585,262.910278 52.0844585,266.036278 C50.3974585,267.760278 48.5664585,268.603278 45.9824585,267.566278 C44.7564585,267.073278 43.3214585,266.668278 41.8014585,266.678278 C40.4594585,266.686278 39.6494585,265.144278 38.6634585,264.227278 C37.4104585,263.062278 38.0014585,262.059278 38.7344585,260.718278 C41.4224585,255.809278 44.2624585,250.920278 46.2744585,245.724278 C48.4104585,240.208278 50.7404585,234.765278 52.8164585,229.222278 C53.8984585,226.334278 55.0944585,223.450278 56.2574585,220.584278 C57.5684585,217.351278 58.6874585,214.026278 60.1234585,210.831278 C60.2964585,210.446278 60.2714585,210.098278 59.9314585,209.855278 C59.5904585,209.608278 59.3344585,209.777278 58.9834585,210.017278 C56.4234585,211.771278 53.9274585,213.661278 51.2044585,215.121278 C48.9834585,216.311278 47.1184585,218.083278 44.8274585,219.034278 C42.2284585,220.113278 40.1004585,221.959278 37.4894585,223.031278 C35.9194585,223.675278 34.3774585,224.549278 32.8044585,225.263278 C30.5744585,226.277278 28.2094585,226.978278 25.9344585,227.878278 C23.0044585,229.041278 19.8904585,229.583278 16.9824585,230.622278 C13.5104585,231.861278 10.0784585,232.314278 6.49245852,232.342278 C6.23945852,232.344278 5.97445852,232.375278 5.73445852,232.452278 C3.51145852,233.163278 2.79245852,232.962278 1.57545852,231.267278 C0.411458517,229.645278 0.278458517,228.200278 1.42045852,226.745278 C4.42945852,222.912278 7.00745852,218.672278 10.8594585,215.598278 C13.7664585,213.279278 16.4114585,210.686278 19.1384585,208.187278 C21.7564585,205.790278 23.9264585,202.939278 26.1584585,200.167278 C30.3154585,195.005278 34.3734585,189.777278 38.8034585,184.824278 C44.6484585,178.291278 50.9184585,172.241278 57.4994585,166.481278 C59.6234585,164.623278 61.6654585,162.673278 63.5854585,160.594278 C64.4034585,159.708278 65.3794585,158.952278 66.3474585,158.221278 C67.4314585,157.403278 69.2424585,157.627278 70.4414585,158.704278 C74.5744585,162.414278 79.6894585,164.271278 84.6924585,166.367278 C89.7754585,168.496278 94.6614585,171.013278 99.1704585,174.218278 C103.658459,177.407278 107.383459,181.436278 111.328459,185.219278 C113.914459,187.699278 115.649459,190.815278 117.514459,193.832278 C118.268459,195.052278 119.279459,196.119278 119.991459,197.360278 C120.799459,198.770278 120.801459,200.386278 120.393459,201.913278 C120.207459,202.612278 120.450459,203.026278 120.897459,203.138278 C122.036459,203.424278 122.299459,204.433278 122.788459,205.221278 C123.137459,205.785278 123.298459,206.625278 122.585459,207.033278 C120.589459,208.177278 120.142459,210.303278 119.355459,212.137278 C117.311459,216.894278 115.806459,221.852278 114.175459,226.764278 C113.274459,229.477278 112.792459,232.285278 111.840459,234.988278 C110.583459,238.560278 109.793459,242.296278 108.876459,245.969278 C108.153459,248.863278 107.221459,251.709278 106.689459,254.667278 C106.154459,257.645278 105.174459,260.540278 104.470459,263.491278 C103.483459,267.636278 101.735459,271.640278 101.900459,276.004278 C101.949459,277.279278 102.137459,278.506278 101.838459,279.796278 C101.612459,280.769278 101.020459,281.311278 100.260459,281.103278 C98.9434585,280.742278 97.5764585,280.290278 96.6964585,279.084278 C96.6094585,278.966278 96.6044585,278.743278 96.5004585,278.689278 C93.7954585,277.292278 93.2564585,274.382278 91.9314585,272.051278 C90.5014585,269.532278 89.3304585,266.865278 88.0414585,264.265278 C86.6684585,261.499278 85.7644585,258.549278 84.9554585,255.598278 C83.6944585,251.001278 82.5354585,246.357278 82.9694585,241.966278" id="Fill-422" stroke="#000000" fill="#000000"></path>
                <path d="M39.167,147.3237 C43.662,147.5897 47.917,148.7417 51.927,150.7817 C52.991,151.3237 54.037,151.8907 55.288,151.7657 C55.851,151.7107 56.21,151.9707 56.621,152.3447 C57.872,153.4837 58.117,155.0117 58.229,156.5257 C58.299,157.4677 57.76,157.8787 56.615,157.6777 C53.776,157.1827 51.392,155.5917 48.743,154.6487 C46.562,153.8717 44.455,153.0367 42.064,152.9807 C38.609,152.8987 35.203,153.2347 31.799,153.7047 C31.414,153.7577 31.065,154.0407 30.688,154.1857 C29.394,154.6877 28.285,154.4327 27.444,153.3017 C27.132,152.8827 26.755,152.5827 26.336,152.2717 C24.598,150.9847 24.672,149.5687 26.132,147.9067 C29.125,144.4977 32.885,141.9117 35.936,138.5807 C39.281,134.9277 42.504,131.2027 45.242,127.0167 C46.835,124.5827 48.628,122.1967 50.521,119.9127 C52.187,117.9027 53.585,115.5817 55.185,113.4787 C56.726,111.4537 58.645,109.7037 60.486,107.9247 C61.998,106.4657 63.695,105.1887 65.337,103.8957 C66.979,102.6017 68.964,101.6667 70.98,100.9477 C72.409,100.4377 73.67,99.4457 75.377,99.7437 C77.162,100.0547 78.752,100.5047 79.798,102.1637 C81.297,104.5437 80.737,106.0817 78.074,106.5537 C77.565,106.6447 77.27,106.9797 76.874,107.2067 C75.862,107.7847 74.833,108.1267 73.643,107.5097 C72.855,107.1007 72.08,107.1927 71.179,107.6957 C63.451,112.0107 58.021,118.5687 53.074,125.6907 C51.169,128.4327 49.269,131.1957 47.281,133.8907 C44.062,138.2587 40.41,142.1797 36.6,145.9877 C36.28,146.3067 35.949,146.6337 36.041,146.9957 C36.175,147.5177 36.739,147.3017 37.129,147.3157 C37.808,147.3427 38.487,147.3237 39.167,147.3237" id="Fill-424" stroke="#000000" fill="#000000"></path>
                <path d="M178.6855,56.4438 C180.8065,56.9428 182.5145,55.7828 184.2325,54.9428 C186.5005,53.8348 187.3365,51.8578 186.8775,49.2978 C186.6655,48.1158 185.8325,47.3588 184.7335,46.9888 C183.4435,46.5538 182.5485,47.1758 181.9235,48.2768 C180.6985,50.4318 180.6635,50.4408 178.5985,48.9798 C178.3495,48.8038 178.1005,48.6258 177.8335,48.4798 C177.4965,48.2958 177.1115,48.2158 176.8615,48.5818 C176.1735,49.5888 175.1505,50.3128 174.5915,51.4388 C173.7155,53.2008 174.1565,55.1408 175.7875,56.0918 C176.6855,56.6158 177.7225,56.3458 178.6855,56.4438 M180.3515,62.1968 C175.9295,61.9288 172.0905,60.5568 169.6155,56.5408 C166.3225,51.1958 168.6225,44.7728 174.0975,42.1698 C176.8065,42.3858 179.3695,40.8618 182.0825,41.4228 C184.3175,41.8858 186.3755,42.6248 188.0395,44.4618 C189.8275,46.4348 191.7485,48.2528 192.7325,50.7978 C193.6305,53.1228 192.3555,57.4298 190.4315,58.9378 C187.7815,61.0158 183.8785,62.2878 180.3515,62.1968" id="Fill-426" stroke="#000000" fill="#000000"></path>
            </g>
        </g>
    </g>
</svg>