<svg style="position: absolute; width: 0; height: 0; overflow: hidden;" version="1.1" xmlns="http://www.w3.org/2000/svg" xmlns:xlink="http://www.w3.org/1999/xlink">
<defs>
<symbol id="icon-logout" viewBox="0 0 24 24">
<path d="M18.984 3c1.078 0 2.016 0.938 2.016 2.016v13.969c0 1.078-0.938 2.016-2.016 2.016h-13.969c-1.125 0-2.016-0.938-2.016-2.016v-3.984h2.016v3.984h13.969v-13.969h-13.969v3.984h-2.016v-3.984c0-1.078 0.891-2.016 2.016-2.016h13.969zM10.078 15.609l2.578-2.625h-9.656v-1.969h9.656l-2.578-2.625 1.406-1.406 5.016 5.016-5.016 5.016z"></path>
</symbol>
<symbol id="icon-login" viewBox="0 0 24 24">
<path d="M9 12h-7.5v-3h7.5v-3l4.5 4.5-4.5 4.5zM24 0v19.5l-9 4.5v-4.5h-9v-6h1.5v4.5h7.5v-13.5l6-3h-13.5v6h-1.5v-7.5z"></path>
</symbol>
<symbol id="icon-save" viewBox="0 0 24 24">
<path class="path1" d="M15 9v-3.984h-9.984v3.984h9.984zM12 18.984q1.219 0 2.109-0.891t0.891-2.109-0.891-2.109-2.109-0.891-2.109 0.891-0.891 2.109 0.891 2.109 2.109 0.891zM17.016 3l3.984 3.984v12q0 0.797-0.609 1.406t-1.406 0.609h-13.969q-0.844 0-1.43-0.609t-0.586-1.406v-13.969q0-0.797 0.586-1.406t1.43-0.609h12z"></path>
</symbol>
<symbol id="icon-cancel" viewBox="0 0 24 24">
<path class="path1" d="M17.016 15.609l-3.609-3.609 3.609-3.609-1.406-1.406-3.609 3.609-3.609-3.609-1.406 1.406 3.609 3.609-3.609 3.609 1.406 1.406 3.609-3.609 3.609 3.609zM12 2.016q4.125 0 7.055 2.93t2.93 7.055-2.93 7.055-7.055 2.93-7.055-2.93-2.93-7.055 2.93-7.055 7.055-2.93z"></path>
</symbol>
<symbol id="icon-menu" viewBox="0 0 24 24">
<path class="path1" d="M3 6h18v2.016h-18v-2.016zM3 12.984v-1.969h18v1.969h-18zM3 18v-2.016h18v2.016h-18z"></path>
</symbol>
<symbol id="icon-more" viewBox="0 0 24 24">
<path class="path1" d="M12 15.984q0.797 0 1.406 0.609t0.609 1.406-0.609 1.406-1.406 0.609-1.406-0.609-0.609-1.406 0.609-1.406 1.406-0.609zM12 9.984q0.797 0 1.406 0.609t0.609 1.406-0.609 1.406-1.406 0.609-1.406-0.609-0.609-1.406 0.609-1.406 1.406-0.609zM12 8.016q-0.797 0-1.406-0.609t-0.609-1.406 0.609-1.406 1.406-0.609 1.406 0.609 0.609 1.406-0.609 1.406-1.406 0.609z"></path>
</symbol>
<symbol id="icon-more-horiz" viewBox="0 0 24 24">
<path d="M12 9.984c1.078 0 2.016 0.938 2.016 2.016s-0.938 2.016-2.016 2.016-2.016-0.938-2.016-2.016 0.938-2.016 2.016-2.016zM18 9.984c1.078 0 2.016 0.938 2.016 2.016s-0.938 2.016-2.016 2.016-2.016-0.938-2.016-2.016 0.938-2.016 2.016-2.016zM6 9.984c1.078 0 2.016 0.938 2.016 2.016s-0.938 2.016-2.016 2.016-2.016-0.938-2.016-2.016 0.938-2.016 2.016-2.016z"></path>
</symbol>
<symbol id="icon-settings" viewBox="0 0 24 24">
<path class="path1" d="M12 15.516q1.453 0 2.484-1.031t1.031-2.484-1.031-2.484-2.484-1.031-2.484 1.031-1.031 2.484 1.031 2.484 2.484 1.031zM19.453 12.984l2.109 1.641q0.328 0.234 0.094 0.656l-2.016 3.469q-0.188 0.328-0.609 0.188l-2.484-0.984q-0.984 0.703-1.688 0.984l-0.375 2.625q-0.094 0.422-0.469 0.422h-4.031q-0.375 0-0.469-0.422l-0.375-2.625q-0.891-0.375-1.688-0.984l-2.484 0.984q-0.422 0.141-0.609-0.188l-2.016-3.469q-0.234-0.422 0.094-0.656l2.109-1.641q-0.047-0.328-0.047-0.984t0.047-0.984l-2.109-1.641q-0.328-0.234-0.094-0.656l2.016-3.469q0.188-0.328 0.609-0.188l2.484 0.984q0.984-0.703 1.688-0.984l0.375-2.625q0.094-0.422 0.469-0.422h4.031q0.375 0 0.469 0.422l0.375 2.625q0.891 0.375 1.688 0.984l2.484-0.984q0.422-0.141 0.609 0.188l2.016 3.469q0.234 0.422-0.094 0.656l-2.109 1.641q0.047 0.328 0.047 0.984t-0.047 0.984z"></path>
</symbol>
<symbol id="icon-heart" viewBox="0 0 24 24">
<path class="path1" d="M12 21.328l-1.453-1.313c-5.156-4.688-8.531-7.734-8.531-11.531 0-3.094 2.391-5.484 5.484-5.484 1.734 0 3.422 0.844 4.5 2.109 1.078-1.266 2.766-2.109 4.5-2.109 3.094 0 5.484 2.391 5.484 5.484 0 3.797-3.375 6.891-8.531 11.578z"></path>
</symbol>
<symbol id="icon-heart-border" viewBox="0 0 24 24">
<path d="M12.094 18.563c4.781-4.313 7.922-7.172 7.922-10.078 0-2.016-1.5-3.469-3.516-3.469-1.547 0-3.047 0.984-3.563 2.344h-1.875c-0.516-1.359-2.016-2.344-3.563-2.344-2.016 0-3.516 1.453-3.516 3.469 0 2.906 3.141 5.766 7.922 10.078l0.094 0.094zM16.5 3c3.094 0 5.484 2.391 5.484 5.484 0 3.797-3.375 6.844-8.531 11.531l-1.453 1.313-1.453-1.266c-5.156-4.688-8.531-7.781-8.531-11.578 0-3.094 2.391-5.484 5.484-5.484 1.734 0 3.422 0.844 4.5 2.109 1.078-1.266 2.766-2.109 4.5-2.109z"></path>
</symbol>
<symbol id="icon-profile" viewBox="0 0 24 24">
<path class="path1" d="M12 14.016q2.531 0 5.273 1.102t2.742 2.883v2.016h-16.031v-2.016q0-1.781 2.742-2.883t5.273-1.102zM12 12q-1.641 0-2.813-1.172t-1.172-2.813 1.172-2.836 2.813-1.195 2.813 1.195 1.172 2.836-1.172 2.813-2.813 1.172z"></path>
</symbol>
<symbol id="icon-search" viewBox="0 0 24 24">
<path class="path1" d="M9.516 14.016c2.484 0 4.5-2.016 4.5-4.5s-2.016-4.5-4.5-4.5-4.5 2.016-4.5 4.5 2.016 4.5 4.5 4.5zM15.516 14.016l4.969 4.969-1.5 1.5-4.969-4.969v-0.797l-0.281-0.281c-1.125 0.984-2.625 1.547-4.219 1.547-3.609 0-6.516-2.859-6.516-6.469s2.906-6.516 6.516-6.516 6.469 2.906 6.469 6.516c0 1.594-0.563 3.094-1.547 4.219l0.281 0.281h0.797z"></path>
</symbol>
<symbol id="icon-modules" viewBox="0 0 24 24">
<path class="path1" d="M15.984 5.016h5.016v6h-5.016v-6zM9.984 11.016v-6h5.016v6h-5.016zM15.984 18v-6h5.016v6h-5.016zM9.984 18v-6h5.016v6h-5.016zM3.984 18v-6h5.016v6h-5.016zM3.984 11.016v-6h5.016v6h-5.016z"></path>
</symbol>
<symbol id="icon-dashboard" viewBox="0 0 24 24">
<path class="path1" d="M20.016 12v-8.016h-5.016v8.016l2.484-1.5zM20.016 2.016c1.078 0 1.969 0.891 1.969 1.969v12c0 1.078-0.891 2.016-1.969 2.016h-12c-1.078 0-2.016-0.938-2.016-2.016v-12c0-1.078 0.938-1.969 2.016-1.969h12zM3.984 6v14.016h14.016v1.969h-14.016c-1.078 0-1.969-0.891-1.969-1.969v-14.016h1.969z"></path>
</symbol>
<symbol id="icon-add" viewBox="0 0 24 24">
<path class="path1" d="M18.984 12.984h-6v6h-1.969v-6h-6v-1.969h6v-6h1.969v6h6v1.969z"></path>
</symbol>
<symbol id="icon-category" viewBox="0 0 24 24">
<path class="path1" d="M9.984 3.984l2.016 2.016h8.016c1.078 0 1.969 0.938 1.969 2.016v9.984c0 1.078-0.891 2.016-1.969 2.016h-16.031c-1.078 0-1.969-0.938-1.969-2.016v-12c0-1.078 0.891-2.016 1.969-2.016h6z"></path>
</symbol>
<symbol id="icon-add-category" viewBox="0 0 24 24">
<path class="path1" d="M18.984 14.016v-2.016h-3v-3h-1.969v3h-3v2.016h3v3h1.969v-3h3zM20.016 6c1.125 0 1.969 0.891 1.969 2.016v9.984c0 1.125-0.844 2.016-1.969 2.016h-16.031c-1.125 0-1.969-0.891-1.969-2.016v-12c0-1.125 0.844-2.016 1.969-2.016h6l2.016 2.016h8.016z"></path>
</symbol>
<symbol id="icon-about" viewBox="0 0 24 24">
<path class="path1" d="M11.016 9v-2.016h1.969v2.016h-1.969zM12 20.016q3.281 0 5.648-2.367t2.367-5.648-2.367-5.648-5.648-2.367-5.648 2.367-2.367 5.648 2.367 5.648 5.648 2.367zM12 2.016q4.125 0 7.055 2.93t2.93 7.055-2.93 7.055-7.055 2.93-7.055-2.93-2.93-7.055 2.93-7.055 7.055-2.93zM11.016 17.016v-6h1.969v6h-1.969z"></path>
</symbol>
<symbol id="icon-help" viewBox="0 0 24 24">
<path class="path1" d="M14.859 13.078q2.156-1.5 2.156-4.078 0-2.063-1.477-3.539t-3.539-1.477-3.539 1.477-1.477 3.539q0 2.578 2.156 4.078l0.844 0.609v2.297h4.031v-2.297zM12 2.016q2.906 0 4.945 2.039t2.039 4.945q0 3.656-3 5.719v2.297q0 0.422-0.281 0.703t-0.703 0.281h-6q-0.422 0-0.703-0.281t-0.281-0.703v-2.297q-3-2.063-3-5.719 0-2.906 2.039-4.945t4.945-2.039zM9 21v-0.984h6v0.984q0 0.422-0.281 0.703t-0.703 0.281h-4.031q-0.422 0-0.703-0.281t-0.281-0.703z"></path>
</symbol>
<symbol id="icon-next" viewBox="0 0 24 24">
<path class="path1" d="M15.984 9h4.031v11.016h-4.031v-11.016zM3.984 20.016v-8.016h4.031v8.016h-4.031zM9.984 20.016v-16.031h4.031v16.031h-4.031z"></path>
</symbol>
<symbol id="icon-edit" viewBox="0 0 24 24">
<path class="path1" d="M20.719 7.031l-1.828 1.828-3.75-3.75 1.828-1.828c0.375-0.375 1.031-0.375 1.406 0l2.344 2.344c0.375 0.375 0.375 1.031 0 1.406zM3 17.25l11.063-11.063 3.75 3.75-11.063 11.063h-3.75v-3.75z"></path>
</symbol>
<symbol id="icon-delete" viewBox="0 0 24 24">
<path d="M18.984 3.984v2.016h-13.969v-2.016h3.469l1.031-0.984h4.969l1.031 0.984h3.469zM6 18.984v-12h12v12c0 1.078-0.938 2.016-2.016 2.016h-7.969c-1.078 0-2.016-0.938-2.016-2.016z"></path>
</symbol>
<symbol id="icon-view" viewBox="0 0 24 24">
<path class="path1" d="M12 9c1.641 0 3 1.359 3 3s-1.359 3-3 3-3-1.359-3-3 1.359-3 3-3zM12 17.016c2.766 0 5.016-2.25 5.016-5.016s-2.25-5.016-5.016-5.016-5.016 2.25-5.016 5.016 2.25 5.016 5.016 5.016zM12 4.5c5.016 0 9.281 3.094 11.016 7.5-1.734 4.406-6 7.5-11.016 7.5s-9.281-3.094-11.016-7.5c1.734-4.406 6-7.5 11.016-7.5z"></path>
</symbol>
</defs>
<symbol id="icon-expand" viewBox="0 0 24 24">
<path d="M16.594 8.578l1.406 1.406-6 6-6-6 1.406-1.406 4.594 4.594z"></path>
</symbol>
<symbol id="icon-close" viewBox="0 0 24 24">
<path class="path1" d="M18.984 6.422l-5.578 5.578 5.578 5.578-1.406 1.406-5.578-5.578-5.578 5.578-1.406-1.406 5.578-5.578-5.578-5.578 1.406-1.406 5.578 5.578 5.578-5.578z"></path>
</symbol>
<symbol id="icon-drag" viewBox="0 0 24 24">
<path class="path1" d="M3.984 15v-2.016h16.031v2.016h-16.031zM20.016 9v2.016h-16.031v-2.016h16.031z"></path>
</symbol>
<symbol id="icon-account" viewBox="0 0 24 24">
<path class="path1" d="M12 12.984c2.672 0 8.016 1.359 8.016 4.031v3h-16.031v-3c0-2.672 5.344-4.031 8.016-4.031zM12 3.984c2.203 0 3.984 1.828 3.984 4.031s-1.781 3.984-3.984 3.984-3.984-1.781-3.984-3.984 1.781-4.031 3.984-4.031zM12 14.906c-2.953 0-6.094 1.453-6.094 2.109v1.078h12.188v-1.078c0-0.656-3.141-2.109-6.094-2.109zM12 5.906c-1.172 0-2.109 0.938-2.109 2.109s0.938 2.063 2.109 2.063 2.109-0.891 2.109-2.063-0.938-2.109-2.109-2.109z"></path>
</symbol>
<symbol id="icon-check" viewBox="0 0 24 24">
<path class="path1" d="M9 16.172l10.594-10.594 1.406 1.406-12 12-5.578-5.578 1.406-1.406z"></path>
</symbol>
<symbol id="icon-sort" viewBox="0 0 24 24">
<path d="M3 12.984v-1.969h12v1.969h-12zM3 6h18v2.016h-18v-2.016zM3 18v-2.016h6v2.016h-6z"></path>
</symbol>
<symbol id="icon-add-link" viewBox="0 0 24 24">
<path d="M15.984 9.984v2.016h-3v3h-1.969v-3h-3v-2.016h3v-3h1.969v3h3zM21 17.016v-12h-18v12h18zM21 3c1.078 0 2.016 0.891 2.016 2.016l-0.047 12c0 1.078-0.891 1.969-1.969 1.969h-5.016v2.016h-7.969v-2.016h-5.016c-1.125 0-2.016-0.891-2.016-1.969v-12c0-1.125 0.891-2.016 2.016-2.016h18z"></path>
</symbol>
<symbol id="icon-reduce" viewBox="0 0 24 24">
<path d="M8.578 16.359l4.594-4.594-4.594-4.594 1.406-1.406 6 6-6 6z"></path>
</symbol>
<symbol id="icon-edit-mode" viewBox="0 0 24 24">
<path d="M11.859 9h0.141c1.641 0 3 1.359 3 3v0.188zM7.547 9.797c-0.328 0.656-0.563 1.406-0.563 2.203 0 2.766 2.25 5.016 5.016 5.016 0.797 0 1.547-0.234 2.203-0.563l-1.547-1.547c-0.188 0.047-0.422 0.094-0.656 0.094-1.641 0-3-1.359-3-3 0-0.234 0.047-0.469 0.094-0.656zM2.016 4.266l1.266-1.266 17.719 17.719-1.266 1.266c-1.124-1.11-2.256-2.213-3.375-3.328-1.359 0.563-2.813 0.844-4.359 0.844-5.016 0-9.281-3.094-11.016-7.5 0.797-1.969 2.109-3.656 3.75-4.969-0.914-0.914-1.812-1.844-2.719-2.766zM12 6.984c-0.656 0-1.266 0.141-1.828 0.375l-2.156-2.156c1.219-0.469 2.578-0.703 3.984-0.703 5.016 0 9.234 3.094 10.969 7.5-0.75 1.875-1.922 3.469-3.422 4.734l-2.906-2.906c0.234-0.563 0.375-1.172 0.375-1.828 0-2.766-2.25-5.016-5.016-5.016z"></path>
</symbol>
<symbol id="icon-google-plus" viewBox="0 0 24 24">
<path d="M7.636 10.72v2.62h4.331c-0.173 1.125-1.308 3.295-4.331 3.295-2.606 0-4.734-2.161-4.734-4.823s2.128-4.823 4.734-4.823c1.486 0 2.475 0.633 3.042 1.177l2.072-1.997c-1.331-1.242-3.056-1.997-5.114-1.997-4.223 0.005-7.636 3.417-7.636 7.641s3.412 7.636 7.636 7.636c4.406 0 7.331-3.098 7.331-7.462 0-0.502-0.056-0.886-0.122-1.266h-7.209z"></path>
<path d="M24 10.5h-2.25v-2.25h-2.25v2.25h-2.25v2.25h2.25v2.25h2.25v-2.25h2.25z"></path>
</symbol>
<symbol id="icon-facebook" viewBox="0 0 24 24">
<path d="M14.25 4.5h3.75v-4.5h-3.75c-2.895 0-5.25 2.355-5.25 5.25v2.25h-3v4.5h3v12h4.5v-12h3.75l0.75-4.5h-4.5v-2.25c0-0.407 0.343-0.75 0.75-0.75z"></path>
</symbol>
<symbol id="icon-twitter" viewBox="0 0 24 24">
<path d="M24 5.306c-0.881 0.394-1.833 0.656-2.827 0.773 1.017-0.609 1.795-1.575 2.166-2.723-0.952 0.563-2.006 0.975-3.127 1.195-0.9-0.956-2.18-1.552-3.595-1.552-2.719 0-4.922 2.203-4.922 4.922 0 0.384 0.042 0.759 0.127 1.12-4.092-0.206-7.72-2.166-10.148-5.147-0.422 0.727-0.666 1.575-0.666 2.475 0 1.706 0.867 3.216 2.189 4.097-0.806-0.023-1.566-0.248-2.231-0.614 0 0.019 0 0.042 0 0.061 0 2.386 1.697 4.378 3.952 4.828-0.412 0.112-0.848 0.173-1.298 0.173-0.319 0-0.623-0.033-0.928-0.089 0.628 1.955 2.447 3.38 4.598 3.422-1.688 1.322-3.806 2.109-6.117 2.109-0.398 0-0.788-0.023-1.177-0.070 2.184 1.402 4.772 2.212 7.552 2.212 9.056 0 14.011-7.505 14.011-14.011 0-0.216-0.005-0.427-0.014-0.637 0.961-0.689 1.795-1.556 2.456-2.545z"></path>
</symbol>
<symbol id="icon-tree" viewBox="0 0 24 24">
<path d="M22.875 18h-0.375v-4.875c0-1.447-1.178-2.625-2.625-2.625h-6.375v-3h0.375c0.619 0 1.125-0.506 1.125-1.125v-3.75c0-0.619-0.506-1.125-1.125-1.125h-3.75c-0.619 0-1.125 0.506-1.125 1.125v3.75c0 0.619 0.506 1.125 1.125 1.125h0.375v3h-6.375c-1.447 0-2.625 1.178-2.625 2.625v4.875h-0.375c-0.619 0-1.125 0.506-1.125 1.125v3.75c0 0.619 0.506 1.125 1.125 1.125h3.75c0.619 0 1.125-0.506 1.125-1.125v-3.75c0-0.619-0.506-1.125-1.125-1.125h-0.375v-4.5h6v4.5h-0.375c-0.619 0-1.125 0.506-1.125 1.125v3.75c0 0.619 0.506 1.125 1.125 1.125h3.75c0.619 0 1.125-0.506 1.125-1.125v-3.75c0-0.619-0.506-1.125-1.125-1.125h-0.375v-4.5h6v4.5h-0.375c-0.619 0-1.125 0.506-1.125 1.125v3.75c0 0.619 0.506 1.125 1.125 1.125h3.75c0.619 0 1.125-0.506 1.125-1.125v-3.75c0-0.619-0.506-1.125-1.125-1.125zM4.5 22.5h-3v-3h3v3zM13.5 22.5h-3v-3h3v3zM10.5 6v-3h3v3h-3zM22.5 22.5h-3v-3h3v3z"></path>
</symbol>
<symbol id="icon-error" viewBox="0 0 24 24">
<path d="M12 20.016c4.406 0 8.016-3.609 8.016-8.016s-3.609-8.016-8.016-8.016-8.016 3.609-8.016 8.016 3.609 8.016 8.016 8.016zM12 2.016c5.531 0 9.984 4.453 9.984 9.984s-4.453 9.984-9.984 9.984-9.984-4.453-9.984-9.984 4.453-9.984 9.984-9.984zM11.016 6.984h1.969v6h-1.969v-6zM11.016 15h1.969v2.016h-1.969v-2.016z"></path>
</symbol>
<symbol id="icon-download" viewBox="0 0 24 24">
<path d="M17.016 12.984h-3v-3.984h-4.031v3.984h-3l5.016 5.016zM19.359 10.031c2.578 0.188 4.641 2.344 4.641 4.969 0 2.766-2.25 5.016-5.016 5.016h-12.984c-3.328 0-6-2.672-6-6 0-3.094 2.344-5.625 5.344-5.953 1.266-2.391 3.75-4.078 6.656-4.078 3.656 0 6.656 2.578 7.359 6.047z"></path>
</symbol>
</svg>
