<svg style="position: absolute; width: 0; height: 0; overflow: hidden;" version="1.1" xmlns="http://www.w3.org/2000/svg"
  xmlns:xlink="http://www.w3.org/1999/xlink">
  <defs>
    <symbol id="icon-logout" viewBox="0 0 24 24">
      <path
        d="M3.984 5.016v13.969h8.016v2.016h-8.016q-0.797 0-1.383-0.609t-0.586-1.406v-13.969q0-0.797 0.586-1.406t1.383-0.609h8.016v2.016h-8.016zM17.016 6.984l4.969 5.016-4.969 5.016-1.406-1.453 2.578-2.578h-10.172v-1.969h10.172l-2.578-2.625z">
      </path>
    </symbol>
    <symbol id="icon-join" viewBox="0 0 24 24">
      <path
        d="M15 14.016q2.531 0 5.273 1.102t2.742 2.883v2.016h-16.031v-2.016q0-1.781 2.742-2.883t5.273-1.102zM6 9.984h3v2.016h-3v3h-2.016v-3h-3v-2.016h3v-3h2.016v3zM15 12q-1.641 0-2.813-1.172t-1.172-2.813 1.172-2.836 2.813-1.195 2.813 1.195 1.172 2.836-1.172 2.813-2.813 1.172z">
      </path>
    </symbol>
    <symbol id="icon-save" viewBox="0 0 24 24">
      <path class="path1"
        d="M15 9v-3.984h-9.984v3.984h9.984zM12 18.984q1.219 0 2.109-0.891t0.891-2.109-0.891-2.109-2.109-0.891-2.109 0.891-0.891 2.109 0.891 2.109 2.109 0.891zM17.016 3l3.984 3.984v12q0 0.797-0.609 1.406t-1.406 0.609h-13.969q-0.844 0-1.43-0.609t-0.586-1.406v-13.969q0-0.797 0.586-1.406t1.43-0.609h12z">
      </path>
    </symbol>
    <symbol id="icon-cancel" viewBox="0 0 24 24">
      <path class="path1"
        d="M17.016 15.609l-3.609-3.609 3.609-3.609-1.406-1.406-3.609 3.609-3.609-3.609-1.406 1.406 3.609 3.609-3.609 3.609 1.406 1.406 3.609-3.609 3.609 3.609zM12 2.016q4.125 0 7.055 2.93t2.93 7.055-2.93 7.055-7.055 2.93-7.055-2.93-2.93-7.055 2.93-7.055 7.055-2.93z">
      </path>
    </symbol>
    <symbol id="icon-menu" viewBox="0 0 24 24">
      <path class="path1" d="M3 6h18v2.016h-18v-2.016zM3 12.984v-1.969h18v1.969h-18zM3 18v-2.016h18v2.016h-18z"></path>
    </symbol>
    <symbol id="icon-more" viewBox="0 0 24 24">
      <path class="path1"
        d="M12 15.984q0.797 0 1.406 0.609t0.609 1.406-0.609 1.406-1.406 0.609-1.406-0.609-0.609-1.406 0.609-1.406 1.406-0.609zM12 9.984q0.797 0 1.406 0.609t0.609 1.406-0.609 1.406-1.406 0.609-1.406-0.609-0.609-1.406 0.609-1.406 1.406-0.609zM12 8.016q-0.797 0-1.406-0.609t-0.609-1.406 0.609-1.406 1.406-0.609 1.406 0.609 0.609 1.406-0.609 1.406-1.406 0.609z">
      </path>
    </symbol>
    <symbol id="icon-more-horiz" viewBox="0 0 24 24">
      <path
        d="M12 9.984c1.078 0 2.016 0.938 2.016 2.016s-0.938 2.016-2.016 2.016-2.016-0.938-2.016-2.016 0.938-2.016 2.016-2.016zM18 9.984c1.078 0 2.016 0.938 2.016 2.016s-0.938 2.016-2.016 2.016-2.016-0.938-2.016-2.016 0.938-2.016 2.016-2.016zM6 9.984c1.078 0 2.016 0.938 2.016 2.016s-0.938 2.016-2.016 2.016-2.016-0.938-2.016-2.016 0.938-2.016 2.016-2.016z">
      </path>
    </symbol>
    <symbol id="icon-customize" viewBox="0 0 24 24">
      <path
        d="M17.484 12c0.844 0 1.5-0.656 1.5-1.5s-0.656-1.5-1.5-1.5-1.5 0.656-1.5 1.5 0.656 1.5 1.5 1.5zM14.484 8.016c0.844 0 1.5-0.656 1.5-1.5s-0.656-1.5-1.5-1.5-1.5 0.656-1.5 1.5 0.656 1.5 1.5 1.5zM9.516 8.016c0.844 0 1.5-0.656 1.5-1.5s-0.656-1.5-1.5-1.5-1.5 0.656-1.5 1.5 0.656 1.5 1.5 1.5zM6.516 12c0.844 0 1.5-0.656 1.5-1.5s-0.656-1.5-1.5-1.5-1.5 0.656-1.5 1.5 0.656 1.5 1.5 1.5zM12 3c4.969 0 9 3.609 9 8.016 0 2.766-2.25 4.969-5.016 4.969h-1.734c-0.844 0-1.5 0.656-1.5 1.5 0 0.375 0.141 0.703 0.375 0.984s0.375 0.656 0.375 1.031c0 0.844-0.656 1.5-1.5 1.5-4.969 0-9-4.031-9-9s4.031-9 9-9z">
      </path>
    </symbol>
    <symbol id="icon-heart" viewBox="0 0 24 24">
      <path
        d="M12.094 18.563c4.781-4.313 7.922-7.172 7.922-10.078 0-2.016-1.5-3.469-3.516-3.469-1.547 0-3.047 0.984-3.563 2.344h-1.875c-0.516-1.359-2.016-2.344-3.563-2.344-2.016 0-3.516 1.453-3.516 3.469 0 2.906 3.141 5.766 7.922 10.078l0.094 0.094zM16.5 3c3.094 0 5.484 2.391 5.484 5.484 0 3.797-3.375 6.844-8.531 11.531l-1.453 1.313-1.453-1.266c-5.156-4.688-8.531-7.781-8.531-11.578 0-3.094 2.391-5.484 5.484-5.484 1.734 0 3.422 0.844 4.5 2.109 1.078-1.266 2.766-2.109 4.5-2.109z">
      </path>
    </symbol>
    <symbol id="icon-search" viewBox="0 0 24 24">
      <path class="path1"
        d="M9.516 14.016c2.484 0 4.5-2.016 4.5-4.5s-2.016-4.5-4.5-4.5-4.5 2.016-4.5 4.5 2.016 4.5 4.5 4.5zM15.516 14.016l4.969 4.969-1.5 1.5-4.969-4.969v-0.797l-0.281-0.281c-1.125 0.984-2.625 1.547-4.219 1.547-3.609 0-6.516-2.859-6.516-6.469s2.906-6.516 6.516-6.516 6.469 2.906 6.469 6.516c0 1.594-0.563 3.094-1.547 4.219l0.281 0.281h0.797z">
      </path>
    </symbol>
    <symbol id="icon-add" viewBox="0 0 24 24">
      <path class="path1" d="M18.984 12.984h-6v6h-1.969v-6h-6v-1.969h6v-6h1.969v6h6v1.969z"></path>
    </symbol>
    <symbol id="icon-category" viewBox="0 0 24 24">
      <path
        d="M20.016 18v-9.984h-16.031v9.984h16.031zM20.016 6q0.797 0 1.383 0.609t0.586 1.406v9.984q0 0.797-0.586 1.406t-1.383 0.609h-16.031q-0.797 0-1.383-0.609t-0.586-1.406v-12q0-0.797 0.586-1.406t1.383-0.609h6l2.016 2.016h8.016z">
      </path>
    </symbol>
    <symbol id="icon-add-category" viewBox="0 0 24 24">
      <path class="path1"
        d="M18.984 14.016v-2.016h-3v-3h-1.969v3h-3v2.016h3v3h1.969v-3h3zM20.016 6c1.125 0 1.969 0.891 1.969 2.016v9.984c0 1.125-0.844 2.016-1.969 2.016h-16.031c-1.125 0-1.969-0.891-1.969-2.016v-12c0-1.125 0.844-2.016 1.969-2.016h6l2.016 2.016h8.016z">
      </path>
    </symbol>
    <symbol id="icon-about" viewBox="0 0 24 24">
      <path class="path1"
        d="M11.016 9v-2.016h1.969v2.016h-1.969zM12 20.016q3.281 0 5.648-2.367t2.367-5.648-2.367-5.648-5.648-2.367-5.648 2.367-2.367 5.648 2.367 5.648 5.648 2.367zM12 2.016q4.125 0 7.055 2.93t2.93 7.055-2.93 7.055-7.055 2.93-7.055-2.93-2.93-7.055 2.93-7.055 7.055-2.93zM11.016 17.016v-6h1.969v6h-1.969z">
      </path>
    </symbol>
    <symbol id="icon-help" viewBox="0 0 24 24">
      <path class="path1"
        d="M14.859 13.078q2.156-1.5 2.156-4.078 0-2.063-1.477-3.539t-3.539-1.477-3.539 1.477-1.477 3.539q0 2.578 2.156 4.078l0.844 0.609v2.297h4.031v-2.297zM12 2.016q2.906 0 4.945 2.039t2.039 4.945q0 3.656-3 5.719v2.297q0 0.422-0.281 0.703t-0.703 0.281h-6q-0.422 0-0.703-0.281t-0.281-0.703v-2.297q-3-2.063-3-5.719 0-2.906 2.039-4.945t4.945-2.039zM9 21v-0.984h6v0.984q0 0.422-0.281 0.703t-0.703 0.281h-4.031q-0.422 0-0.703-0.281t-0.281-0.703z">
      </path>
    </symbol>
    <symbol id="icon-next" viewBox="0 0 24 24">
      <path class="path1"
        d="M15.984 9h4.031v11.016h-4.031v-11.016zM3.984 20.016v-8.016h4.031v8.016h-4.031zM9.984 20.016v-16.031h4.031v16.031h-4.031z">
      </path>
    </symbol>
    <symbol id="icon-edit" viewBox="0 0 24 24">
      <path class="path1"
        d="M20.719 7.031l-1.828 1.828-3.75-3.75 1.828-1.828c0.375-0.375 1.031-0.375 1.406 0l2.344 2.344c0.375 0.375 0.375 1.031 0 1.406zM3 17.25l11.063-11.063 3.75 3.75-11.063 11.063h-3.75v-3.75z">
      </path>
    </symbol>
    <symbol id="icon-delete" viewBox="0 0 24 24">
      <path
        d="M18.984 3.984v2.016h-13.969v-2.016h3.469l1.031-0.984h4.969l1.031 0.984h3.469zM6 18.984v-12h12v12c0 1.078-0.938 2.016-2.016 2.016h-7.969c-1.078 0-2.016-0.938-2.016-2.016z">
      </path>
    </symbol>
    <symbol id="icon-view" viewBox="0 0 24 24">
      <path class="path1"
        d="M12 9c1.641 0 3 1.359 3 3s-1.359 3-3 3-3-1.359-3-3 1.359-3 3-3zM12 17.016c2.766 0 5.016-2.25 5.016-5.016s-2.25-5.016-5.016-5.016-5.016 2.25-5.016 5.016 2.25 5.016 5.016 5.016zM12 4.5c5.016 0 9.281 3.094 11.016 7.5-1.734 4.406-6 7.5-11.016 7.5s-9.281-3.094-11.016-7.5c1.734-4.406 6-7.5 11.016-7.5z">
      </path>
    </symbol>
    <symbol id="icon-expand" viewBox="0 0 24 24">
      <path d="M16.594 8.578l1.406 1.406-6 6-6-6 1.406-1.406 4.594 4.594z"></path>
    </symbol>
    <symbol id="icon-close" viewBox="0 0 24 24">
      <path class="path1"
        d="M18.984 6.422l-5.578 5.578 5.578 5.578-1.406 1.406-5.578-5.578-5.578 5.578-1.406-1.406 5.578-5.578-5.578-5.578 1.406-1.406 5.578 5.578 5.578-5.578z">
      </path>
    </symbol>
    <symbol id="icon-drag" viewBox="0 0 24 24">
      <path class="path1" d="M3.984 15v-2.016h16.031v2.016h-16.031zM20.016 9v2.016h-16.031v-2.016h16.031z"></path>
    </symbol>
    <symbol id="icon-account" viewBox="0 0 24 24">
      <path class="path1"
        d="M12 12.984c2.672 0 8.016 1.359 8.016 4.031v3h-16.031v-3c0-2.672 5.344-4.031 8.016-4.031zM12 3.984c2.203 0 3.984 1.828 3.984 4.031s-1.781 3.984-3.984 3.984-3.984-1.781-3.984-3.984 1.781-4.031 3.984-4.031zM12 14.906c-2.953 0-6.094 1.453-6.094 2.109v1.078h12.188v-1.078c0-0.656-3.141-2.109-6.094-2.109zM12 5.906c-1.172 0-2.109 0.938-2.109 2.109s0.938 2.063 2.109 2.063 2.109-0.891 2.109-2.063-0.938-2.109-2.109-2.109z">
      </path>
    </symbol>
    <symbol id="icon-check" viewBox="0 0 24 24">
      <path class="path1" d="M9 16.172l10.594-10.594 1.406 1.406-12 12-5.578-5.578 1.406-1.406z"></path>
    </symbol>
    <symbol id="icon-sort" viewBox="0 0 24 24">
      <path d="M3 12.984v-1.969h12v1.969h-12zM3 6h18v2.016h-18v-2.016zM3 18v-2.016h6v2.016h-6z"></path>
    </symbol>
    <symbol id="icon-reduce" viewBox="0 0 24 24">
      <path d="M8.578 16.359l4.594-4.594-4.594-4.594 1.406-1.406 6 6-6 6z"></path>
    </symbol>
    <symbol id="icon-edit-mode" viewBox="0 0 24 24">
      <path
        d="M11.859 9h0.141c1.641 0 3 1.359 3 3v0.188zM7.547 9.797c-0.328 0.656-0.563 1.406-0.563 2.203 0 2.766 2.25 5.016 5.016 5.016 0.797 0 1.547-0.234 2.203-0.563l-1.547-1.547c-0.188 0.047-0.422 0.094-0.656 0.094-1.641 0-3-1.359-3-3 0-0.234 0.047-0.469 0.094-0.656zM2.016 4.266l1.266-1.266 17.719 17.719-1.266 1.266c-1.124-1.11-2.256-2.213-3.375-3.328-1.359 0.563-2.813 0.844-4.359 0.844-5.016 0-9.281-3.094-11.016-7.5 0.797-1.969 2.109-3.656 3.75-4.969-0.914-0.914-1.812-1.844-2.719-2.766zM12 6.984c-0.656 0-1.266 0.141-1.828 0.375l-2.156-2.156c1.219-0.469 2.578-0.703 3.984-0.703 5.016 0 9.234 3.094 10.969 7.5-0.75 1.875-1.922 3.469-3.422 4.734l-2.906-2.906c0.234-0.563 0.375-1.172 0.375-1.828 0-2.766-2.25-5.016-5.016-5.016z">
      </path>
    </symbol>
    <symbol id="icon-facebook" viewBox="0 0 24 24">
      <path
        d="M14.25 4.5h3.75v-4.5h-3.75c-2.895 0-5.25 2.355-5.25 5.25v2.25h-3v4.5h3v12h4.5v-12h3.75l0.75-4.5h-4.5v-2.25c0-0.407 0.343-0.75 0.75-0.75z">
      </path>
    </symbol>
    <symbol id="icon-twitter" viewBox="0 0 24 24">
      <path
        d="M24 5.306c-0.881 0.394-1.833 0.656-2.827 0.773 1.017-0.609 1.795-1.575 2.166-2.723-0.952 0.563-2.006 0.975-3.127 1.195-0.9-0.956-2.18-1.552-3.595-1.552-2.719 0-4.922 2.203-4.922 4.922 0 0.384 0.042 0.759 0.127 1.12-4.092-0.206-7.72-2.166-10.148-5.147-0.422 0.727-0.666 1.575-0.666 2.475 0 1.706 0.867 3.216 2.189 4.097-0.806-0.023-1.566-0.248-2.231-0.614 0 0.019 0 0.042 0 0.061 0 2.386 1.697 4.378 3.952 4.828-0.412 0.112-0.848 0.173-1.298 0.173-0.319 0-0.623-0.033-0.928-0.089 0.628 1.955 2.447 3.38 4.598 3.422-1.688 1.322-3.806 2.109-6.117 2.109-0.398 0-0.788-0.023-1.177-0.070 2.184 1.402 4.772 2.212 7.552 2.212 9.056 0 14.011-7.505 14.011-14.011 0-0.216-0.005-0.427-0.014-0.637 0.961-0.689 1.795-1.556 2.456-2.545z">
      </path>
    </symbol>
    <symbol id="icon-tree" viewBox="0 0 24 24">
      <path
        d="M22.875 18h-0.375v-4.875c0-1.447-1.178-2.625-2.625-2.625h-6.375v-3h0.375c0.619 0 1.125-0.506 1.125-1.125v-3.75c0-0.619-0.506-1.125-1.125-1.125h-3.75c-0.619 0-1.125 0.506-1.125 1.125v3.75c0 0.619 0.506 1.125 1.125 1.125h0.375v3h-6.375c-1.447 0-2.625 1.178-2.625 2.625v4.875h-0.375c-0.619 0-1.125 0.506-1.125 1.125v3.75c0 0.619 0.506 1.125 1.125 1.125h3.75c0.619 0 1.125-0.506 1.125-1.125v-3.75c0-0.619-0.506-1.125-1.125-1.125h-0.375v-4.5h6v4.5h-0.375c-0.619 0-1.125 0.506-1.125 1.125v3.75c0 0.619 0.506 1.125 1.125 1.125h3.75c0.619 0 1.125-0.506 1.125-1.125v-3.75c0-0.619-0.506-1.125-1.125-1.125h-0.375v-4.5h6v4.5h-0.375c-0.619 0-1.125 0.506-1.125 1.125v3.75c0 0.619 0.506 1.125 1.125 1.125h3.75c0.619 0 1.125-0.506 1.125-1.125v-3.75c0-0.619-0.506-1.125-1.125-1.125zM4.5 22.5h-3v-3h3v3zM13.5 22.5h-3v-3h3v3zM10.5 6v-3h3v3h-3zM22.5 22.5h-3v-3h3v3z">
      </path>
    </symbol>
    <symbol id="icon-error" viewBox="0 0 24 24">
      <path
        d="M12 20.016c4.406 0 8.016-3.609 8.016-8.016s-3.609-8.016-8.016-8.016-8.016 3.609-8.016 8.016 3.609 8.016 8.016 8.016zM12 2.016c5.531 0 9.984 4.453 9.984 9.984s-4.453 9.984-9.984 9.984-9.984-4.453-9.984-9.984 4.453-9.984 9.984-9.984zM11.016 6.984h1.969v6h-1.969v-6zM11.016 15h1.969v2.016h-1.969v-2.016z">
      </path>
    </symbol>
    <symbol id="icon-download" viewBox="0 0 24 24">
      <path
        d="M17.016 12.984h-3v-3.984h-4.031v3.984h-3l5.016 5.016zM19.359 10.031c2.578 0.188 4.641 2.344 4.641 4.969 0 2.766-2.25 5.016-5.016 5.016h-12.984c-3.328 0-6-2.672-6-6 0-3.094 2.344-5.625 5.344-5.953 1.266-2.391 3.75-4.078 6.656-4.078 3.656 0 6.656 2.578 7.359 6.047z">
      </path>
    </symbol>
    <symbol id="icon-upload" viewBox="0 0 24 24">
      <path
        d="M14.016 12.984h3l-5.016-4.969-5.016 4.969h3v4.031h4.031v-4.031zM19.359 10.031c2.578 0.188 4.641 2.344 4.641 4.969 0 2.766-2.25 5.016-5.016 5.016h-12.984c-3.328 0-6-2.672-6-6 0-3.094 2.344-5.625 5.344-5.953 1.266-2.391 3.75-4.078 6.656-4.078 3.656 0 6.656 2.578 7.359 6.047z">
      </path>
    </symbol>
    <symbol id="icon-back" viewBox="0 0 14 24">
      <path
        d="M8.397 18.429c0 0.107-0.054 0.228-0.134 0.308l-0.67 0.67c-0.080 0.080-0.201 0.134-0.308 0.134s-0.228-0.054-0.308-0.134l-6.241-6.241c-0.080-0.080-0.134-0.201-0.134-0.308s0.054-0.228 0.134-0.308l6.241-6.241c0.080-0.080 0.201-0.134 0.308-0.134s0.228 0.054 0.308 0.134l0.67 0.67c0.080 0.080 0.134 0.201 0.134 0.308s-0.054 0.228-0.134 0.308l-5.263 5.263 5.263 5.263c0.080 0.080 0.134 0.201 0.134 0.308zM13.54 18.429c0 0.107-0.054 0.228-0.134 0.308l-0.67 0.67c-0.080 0.080-0.201 0.134-0.308 0.134s-0.228-0.054-0.308-0.134l-6.241-6.241c-0.080-0.080-0.134-0.201-0.134-0.308s0.054-0.228 0.134-0.308l6.241-6.241c0.080-0.080 0.201-0.134 0.308-0.134s0.228 0.054 0.308 0.134l0.67 0.67c0.080 0.080 0.134 0.201 0.134 0.308s-0.054 0.228-0.134 0.308l-5.263 5.263 5.263 5.263c0.080 0.080 0.134 0.201 0.134 0.308z">
      </path>
    </symbol>
    <symbol id="icon-forward" viewBox="0 0 13 24">
      <path
        d="M7.969 12.857c0 0.107-0.054 0.228-0.134 0.308l-6.241 6.241c-0.080 0.080-0.201 0.134-0.308 0.134s-0.228-0.054-0.308-0.134l-0.67-0.67c-0.080-0.080-0.134-0.201-0.134-0.308s0.054-0.228 0.134-0.308l5.263-5.263-5.263-5.263c-0.080-0.080-0.134-0.201-0.134-0.308s0.054-0.228 0.134-0.308l0.67-0.67c0.080-0.080 0.201-0.134 0.308-0.134s0.228 0.054 0.308 0.134l6.241 6.241c0.080 0.080 0.134 0.201 0.134 0.308zM13.112 12.857c0 0.107-0.054 0.228-0.134 0.308l-6.241 6.241c-0.080 0.080-0.201 0.134-0.308 0.134s-0.228-0.054-0.308-0.134l-0.67-0.67c-0.080-0.080-0.134-0.201-0.134-0.308s0.054-0.228 0.134-0.308l5.263-5.263-5.263-5.263c-0.080-0.080-0.134-0.201-0.134-0.308s0.054-0.228 0.134-0.308l0.67-0.67c0.080-0.080 0.201-0.134 0.308-0.134s0.228 0.054 0.308 0.134l6.241 6.241c0.080 0.080 0.134 0.201 0.134 0.308z">
      </path>
    </symbol>
    <symbol id="icon-home" viewBox="0 0 24 24">
      <path d="M9.984 20.016h-4.969v-8.016h-3l9.984-9 9.984 9h-3v8.016h-4.969v-6h-4.031v6z"></path>
    </symbol>
    <symbol id="icon-language" viewBox="0 0 24 24">
      <path
        d="M16.359 14.016h3.375c0.141-0.656 0.281-1.313 0.281-2.016s-0.141-1.359-0.281-2.016h-3.375c0.094 0.656 0.141 1.313 0.141 2.016s-0.047 1.359-0.141 2.016zM14.578 19.547c1.828-0.609 3.422-1.922 4.359-3.563h-2.953c-0.328 1.266-0.797 2.438-1.406 3.563zM14.344 14.016c0.094-0.656 0.141-1.313 0.141-2.016s-0.047-1.359-0.141-2.016h-4.688c-0.094 0.656-0.141 1.313-0.141 2.016s0.047 1.359 0.141 2.016h4.688zM12 19.969c0.844-1.219 1.5-2.531 1.922-3.984h-3.844c0.422 1.453 1.078 2.766 1.922 3.984zM8.016 8.016c0.328-1.266 0.797-2.438 1.406-3.563-1.828 0.609-3.422 1.922-4.359 3.563h2.953zM5.063 15.984c0.938 1.641 2.531 2.953 4.359 3.563-0.609-1.125-1.078-2.297-1.406-3.563h-2.953zM4.266 14.016h3.375c-0.094-0.656-0.141-1.313-0.141-2.016s0.047-1.359 0.141-2.016h-3.375c-0.141 0.656-0.281 1.313-0.281 2.016s0.141 1.359 0.281 2.016zM12 4.031c-0.844 1.219-1.5 2.531-1.922 3.984h3.844c-0.422-1.453-1.078-2.766-1.922-3.984zM18.938 8.016c-0.938-1.641-2.531-2.953-4.359-3.563 0.609 1.125 1.078 2.297 1.406 3.563h2.953zM12 2.016c5.531 0 9.984 4.453 9.984 9.984s-4.453 9.984-9.984 9.984-9.984-4.453-9.984-9.984 4.453-9.984 9.984-9.984z">
      </path>
    </symbol>
    <symbol id="icon-lock" viewBox="0 0 24 24">
      <path
        d="M18 20.016v-10.031h-12v10.031h12zM8.906 6v2.016h6.188v-2.016c0-1.688-1.406-3.094-3.094-3.094s-3.094 1.406-3.094 3.094zM18 8.016c1.078 0 2.016 0.891 2.016 1.969v10.031c0 1.078-0.938 1.969-2.016 1.969h-12c-1.078 0-2.016-0.891-2.016-1.969v-10.031c0-1.078 0.938-1.969 2.016-1.969h0.984v-2.016c0-2.766 2.25-5.016 5.016-5.016s5.016 2.25 5.016 5.016v2.016h0.984zM12 17.016c-1.078 0-2.016-0.938-2.016-2.016s0.938-2.016 2.016-2.016 2.016 0.938 2.016 2.016-0.938 2.016-2.016 2.016z">
      </path>
    </symbol>
    <symbol id="icon-phone" viewBox="0 0 24 24">
      <path
        d="M15.984 18v-14.016h-9v14.016h9zM11.484 21.984c0.844 0 1.5-0.656 1.5-1.5s-0.656-1.5-1.5-1.5-1.5 0.656-1.5 1.5 0.656 1.5 1.5 1.5zM15.516 0.984c1.359 0 2.484 1.172 2.484 2.531v16.969c0 1.359-1.125 2.531-2.484 2.531h-8.016c-1.359 0-2.484-1.172-2.484-2.531v-16.969c0-1.359 1.125-2.531 2.484-2.531h8.016z">
      </path>
    </symbol>
    <symbol id="icon-performance" viewBox="0 0 24 24">
      <path
        d="M12 0c-6.627 0-12 5.373-12 12s5.373 12 12 12 12-5.373 12-12-5.373-12-12-12zM7.098 19.55c0.26-0.718 0.402-1.493 0.402-2.3 0-2.914-1.847-5.397-4.435-6.342 0.239-1.99 1.131-3.832 2.571-5.272 1.7-1.7 3.96-2.636 6.364-2.636s4.664 0.936 6.364 2.636c1.44 1.44 2.331 3.281 2.571 5.272-2.588 0.945-4.435 3.428-4.435 6.342 0 0.808 0.142 1.582 0.402 2.3-1.446 0.943-3.135 1.45-4.902 1.45s-3.456-0.506-4.902-1.45zM12.932 15.023c0.325 0.082 0.568 0.377 0.568 0.727v1.5c0 0.413-0.337 0.75-0.75 0.75h-1.5c-0.413 0-0.75-0.337-0.75-0.75v-1.5c0-0.35 0.243-0.645 0.568-0.727l0.557-10.523h0.75l0.557 10.523z">
      </path>
    </symbol>
    <symbol id="icon-spinner" viewBox="0 0 24 24">
      <path
        d="M24 12c-0.030-1.567-0.37-3.129-0.998-4.558-0.626-1.43-1.534-2.725-2.649-3.795s-2.436-1.918-3.867-2.476c-1.43-0.561-2.967-0.829-4.486-0.796-1.519 0.030-3.031 0.36-4.414 0.969-1.384 0.607-2.638 1.488-3.673 2.568s-1.855 2.36-2.395 3.745c-0.542 1.384-0.8 2.872-0.767 4.342 0.030 1.471 0.351 2.933 0.941 4.27 0.588 1.338 1.441 2.551 2.487 3.552s2.284 1.793 3.624 2.314c1.339 0.523 2.776 0.771 4.199 0.739 1.423-0.030 2.835-0.341 4.127-0.912 1.293-0.569 2.464-1.394 3.43-2.406s1.731-2.209 2.233-3.502c0.305-0.784 0.513-1.603 0.622-2.433 0.029 0.002 0.059 0.003 0.088 0.003 0.828 0 1.5-0.672 1.5-1.5 0-0.042-0.002-0.084-0.006-0.125h0.006zM21.617 15.983c-0.55 1.247-1.347 2.377-2.324 3.309s-2.133 1.668-3.381 2.151c-1.248 0.485-2.585 0.714-3.911 0.682-1.327-0.030-2.639-0.322-3.84-0.855-1.201-0.531-2.289-1.301-3.187-2.243s-1.606-2.057-2.070-3.259c-0.466-1.202-0.685-2.489-0.653-3.768 0.031-1.279 0.312-2.541 0.826-3.696 0.512-1.155 1.254-2.202 2.162-3.066s1.981-1.544 3.138-1.989c1.156-0.447 2.394-0.656 3.624-0.624 1.23 0.031 2.443 0.303 3.552 0.798 1.11 0.493 2.115 1.207 2.944 2.081s1.481 1.905 1.908 3.016c0.428 1.111 0.628 2.298 0.596 3.48h0.006c-0.003 0.041-0.006 0.083-0.006 0.125 0 0.774 0.586 1.41 1.338 1.491-0.146 0.816-0.387 1.613-0.721 2.367z">
      </path>
    </symbol>
    <symbol id="icon-star" viewBox="0 0 24 24">
      <path
        d="M12 15.422l3.75 2.25-0.984-4.266 3.328-2.906-4.406-0.375-1.688-4.031-1.688 4.031-4.406 0.375 3.328 2.906-0.984 4.266zM21.984 9.234l-5.438 4.734 1.641 7.031-6.188-3.75-6.188 3.75 1.641-7.031-5.438-4.734 7.172-0.609 2.813-6.609 2.813 6.609z">
      </path>
    </symbol>
    <symbol id="icon-quote" viewBox="0 0 24 24">
      <path d="M14.016 17.016l1.969-4.031h-3v-6h6v6l-1.969 4.031h-3zM6 17.016l2.016-4.031h-3v-6h6v6l-2.016 4.031h-3z">
      </path>
    </symbol>
    <symbol id="icon-extension" viewBox="0 0 24 24">
      <path
        d="M20.484 11.016c1.359 0 2.531 1.125 2.531 2.484s-1.172 2.484-2.531 2.484h-1.5v4.031c0 1.078-0.891 1.969-1.969 1.969h-3.797v-1.5c0-1.5-1.219-2.672-2.719-2.672s-2.719 1.172-2.719 2.672v1.5h-3.797c-1.078 0-1.969-0.891-1.969-1.969v-3.797h1.5c1.5 0 2.672-1.219 2.672-2.719s-1.172-2.719-2.672-2.719h-1.5v-3.797c0-1.078 0.891-1.969 1.969-1.969h4.031v-1.5c0-1.359 1.125-2.531 2.484-2.531s2.484 1.172 2.484 2.531v1.5h4.031c1.078 0 1.969 0.891 1.969 1.969v4.031h1.5z">
      </path>
    </symbol>
    <symbol id="icon-xing" viewBox="0 0 24 24">
      <path
        d="M3.647 4.739c-0.206 0-0.384 0.075-0.473 0.216-0.089 0.15-0.075 0.338 0.019 0.53l2.339 4.050c0.005 0.009 0.005 0.014 0 0.019l-3.675 6.497c-0.094 0.192-0.089 0.384 0 0.53 0.089 0.141 0.244 0.234 0.45 0.234h3.459c0.516 0 0.769-0.352 0.942-0.67 0 0 3.595-6.361 3.736-6.609-0.014-0.023-2.381-4.148-2.381-4.148-0.173-0.305-0.431-0.647-0.966-0.647h-3.45z">
      </path>
      <path
        d="M18.188 0c-0.516 0-0.741 0.323-0.928 0.661 0 0-7.458 13.223-7.702 13.659 0.014 0.023 4.917 9.023 4.917 9.023 0.173 0.305 0.436 0.661 0.966 0.661h3.459c0.206 0 0.37-0.080 0.459-0.22 0.094-0.15 0.089-0.342-0.009-0.534l-4.875-8.92c-0.005-0.009-0.005-0.014 0-0.023l7.664-13.552c0.094-0.192 0.098-0.384 0.009-0.534-0.089-0.141-0.253-0.22-0.459-0.22h-3.502z">
      </path>
    </symbol>
    <symbol id="icon-message" viewBox="0 0 24 24">
      <path
        d="M12 11.016l8.016-5.016h-16.031zM20.016 18v-9.984l-8.016 4.969-8.016-4.969v9.984h16.031zM20.016 3.984c1.078 0 1.969 0.938 1.969 2.016v12c0 1.078-0.891 2.016-1.969 2.016h-16.031c-1.078 0-1.969-0.938-1.969-2.016v-12c0-1.078 0.891-2.016 1.969-2.016h16.031z">
      </path>
    </symbol>
    <symbol id="icon-germany" viewBox="0 0 640 480">
      <g fill-rule="evenodd" stroke-width="1pt" transform="scale(1.25 .9375)">
        <rect width="512" height="509.8" fill="#D00" rx="0" ry="0" />
        <rect width="512" height="169.9" y="342.1" fill="#FFCE00" rx="0" ry="0" />
        <path fill="#000" d="M0 0h512v170H0z" />
      </g>
    </symbol>
    <symbol id="icon-japan" viewBox="0 0 640 480">
      <defs>
        <clipPath id="a">
          <path fill-opacity=".7" d="M-88 32h640v480H-88z" />
        </clipPath>
      </defs>
      <g fill-rule="evenodd" stroke-width="1pt" clip-path="url(#a)" transform="translate(88 -32)">
        <path fill="#fff" d="M-128 32h720v480h-720z" />
        <ellipse cx="523.1" cy="344.1" fill="#d30000" rx="194.9" ry="194.9"
          transform="translate(-168.4 8.6) scale(.76554)" />
      </g>
    </symbol>
    <symbol id="icon-usa" viewBox="0 0 640 480">
      <g fill-rule="evenodd">
        <g stroke-width="1pt">
          <path fill="#bd3d44"
            d="M0 0h972.8v39.4H0zm0 78.8h972.8v39.4H0zm0 78.7h972.8V197H0zm0 78.8h972.8v39.4H0zm0 78.8h972.8v39.4H0zm0 78.7h972.8v39.4H0zm0 78.8h972.8V512H0z"
            transform="scale(.9375)" />
          <path fill="#fff"
            d="M0 39.4h972.8v39.4H0zm0 78.8h972.8v39.3H0zm0 78.7h972.8v39.4H0zm0 78.8h972.8v39.4H0zm0 78.8h972.8v39.4H0zm0 78.7h972.8v39.4H0z"
            transform="scale(.9375)" />
        </g>
        <path fill="#192f5d" d="M0 0h389.1v275.7H0z" transform="scale(.9375)" />
        <path fill="#fff"
          d="M32.4 11.8L36 22.7h11.4l-9.2 6.7 3.5 11-9.3-6.8-9.2 6.7 3.5-10.9-9.3-6.7H29zm64.9 0l3.5 10.9h11.5l-9.3 6.7 3.5 11-9.2-6.8-9.3 6.7 3.5-10.9-9.2-6.7h11.4zm64.8 0l3.6 10.9H177l-9.2 6.7 3.5 11-9.3-6.8-9.2 6.7 3.5-10.9-9.3-6.7h11.5zm64.9 0l3.5 10.9H242l-9.3 6.7 3.6 11-9.3-6.8-9.3 6.7 3.6-10.9-9.3-6.7h11.4zm64.8 0l3.6 10.9h11.4l-9.2 6.7 3.5 11-9.3-6.8-9.2 6.7 3.5-10.9-9.2-6.7h11.4zm64.9 0l3.5 10.9h11.5l-9.3 6.7 3.6 11-9.3-6.8-9.3 6.7 3.6-10.9-9.3-6.7h11.5zM64.9 39.4l3.5 10.9h11.5L70.6 57 74 67.9l-9-6.7-9.3 6.7L59 57l-9-6.7h11.4zm64.8 0l3.6 10.9h11.4l-9.3 6.7 3.6 10.9-9.3-6.7-9.3 6.7L124 57l-9.3-6.7h11.5zm64.9 0l3.5 10.9h11.5l-9.3 6.7 3.5 10.9-9.2-6.7-9.3 6.7 3.5-10.9-9.2-6.7H191zm64.8 0l3.6 10.9h11.4l-9.3 6.7 3.6 10.9-9.3-6.7-9.2 6.7 3.5-10.9-9.3-6.7H256zm64.9 0l3.5 10.9h11.5L330 57l3.5 10.9-9.2-6.7-9.3 6.7 3.5-10.9-9.2-6.7h11.4zM32.4 66.9L36 78h11.4l-9.2 6.7 3.5 10.9-9.3-6.8-9.2 6.8 3.5-11-9.3-6.7H29zm64.9 0l3.5 11h11.5l-9.3 6.7 3.5 10.9-9.2-6.8-9.3 6.8 3.5-11-9.2-6.7h11.4zm64.8 0l3.6 11H177l-9.2 6.7 3.5 10.9-9.3-6.8-9.2 6.8 3.5-11-9.3-6.7h11.5zm64.9 0l3.5 11H242l-9.3 6.7 3.6 10.9-9.3-6.8-9.3 6.8 3.6-11-9.3-6.7h11.4zm64.8 0l3.6 11h11.4l-9.2 6.7 3.5 10.9-9.3-6.8-9.2 6.8 3.5-11-9.2-6.7h11.4zm64.9 0l3.5 11h11.5l-9.3 6.7 3.6 10.9-9.3-6.8-9.3 6.8 3.6-11-9.3-6.7h11.5zM64.9 94.5l3.5 10.9h11.5l-9.3 6.7 3.5 11-9.2-6.8-9.3 6.7 3.5-10.9-9.2-6.7h11.4zm64.8 0l3.6 10.9h11.4l-9.3 6.7 3.6 11-9.3-6.8-9.3 6.7 3.6-10.9-9.3-6.7h11.5zm64.9 0l3.5 10.9h11.5l-9.3 6.7 3.5 11-9.2-6.8-9.3 6.7 3.5-10.9-9.2-6.7H191zm64.8 0l3.6 10.9h11.4l-9.2 6.7 3.5 11-9.3-6.8-9.2 6.7 3.5-10.9-9.3-6.7H256zm64.9 0l3.5 10.9h11.5l-9.3 6.7 3.5 11-9.2-6.8-9.3 6.7 3.5-10.9-9.2-6.7h11.4zM32.4 122.1L36 133h11.4l-9.2 6.7 3.5 11-9.3-6.8-9.2 6.7 3.5-10.9-9.3-6.7H29zm64.9 0l3.5 10.9h11.5l-9.3 6.7 3.5 10.9-9.2-6.7-9.3 6.7 3.5-10.9-9.2-6.7h11.4zm64.8 0l3.6 10.9H177l-9.2 6.7 3.5 11-9.3-6.8-9.2 6.7 3.5-10.9-9.3-6.7h11.5zm64.9 0l3.5 10.9H242l-9.3 6.7 3.6 11-9.3-6.8-9.3 6.7 3.6-10.9-9.3-6.7h11.4zm64.8 0l3.6 10.9h11.4l-9.2 6.7 3.5 11-9.3-6.8-9.2 6.7 3.5-10.9-9.2-6.7h11.4zm64.9 0l3.5 10.9h11.5l-9.3 6.7 3.6 11-9.3-6.8-9.3 6.7 3.6-10.9-9.3-6.7h11.5zM64.9 149.7l3.5 10.9h11.5l-9.3 6.7 3.5 10.9-9.2-6.8-9.3 6.8 3.5-11-9.2-6.7h11.4zm64.8 0l3.6 10.9h11.4l-9.3 6.7 3.6 10.9-9.3-6.8-9.3 6.8 3.6-11-9.3-6.7h11.5zm64.9 0l3.5 10.9h11.5l-9.3 6.7 3.5 10.9-9.2-6.8-9.3 6.8 3.5-11-9.2-6.7H191zm64.8 0l3.6 10.9h11.4l-9.2 6.7 3.5 10.9-9.3-6.8-9.2 6.8 3.5-11-9.3-6.7H256zm64.9 0l3.5 10.9h11.5l-9.3 6.7 3.5 10.9-9.2-6.8-9.3 6.8 3.5-11-9.2-6.7h11.4zM32.4 177.2l3.6 11h11.4l-9.2 6.7 3.5 10.8-9.3-6.7-9.2 6.7 3.5-10.9-9.3-6.7H29zm64.9 0l3.5 11h11.5l-9.3 6.7 3.6 10.8-9.3-6.7-9.3 6.7 3.6-10.9-9.3-6.7h11.4zm64.8 0l3.6 11H177l-9.2 6.7 3.5 10.8-9.3-6.7-9.2 6.7 3.5-10.9-9.3-6.7h11.5zm64.9 0l3.5 11H242l-9.3 6.7 3.6 10.8-9.3-6.7-9.3 6.7 3.6-10.9-9.3-6.7h11.4zm64.8 0l3.6 11h11.4l-9.2 6.7 3.5 10.8-9.3-6.7-9.2 6.7 3.5-10.9-9.2-6.7h11.4zm64.9 0l3.5 11h11.5l-9.3 6.7 3.6 10.8-9.3-6.7-9.3 6.7 3.6-10.9-9.3-6.7h11.5zM64.9 204.8l3.5 10.9h11.5l-9.3 6.7 3.5 11-9.2-6.8-9.3 6.7 3.5-10.9-9.2-6.7h11.4zm64.8 0l3.6 10.9h11.4l-9.3 6.7 3.6 11-9.3-6.8-9.3 6.7 3.6-10.9-9.3-6.7h11.5zm64.9 0l3.5 10.9h11.5l-9.3 6.7 3.5 11-9.2-6.8-9.3 6.7 3.5-10.9-9.2-6.7H191zm64.8 0l3.6 10.9h11.4l-9.2 6.7 3.5 11-9.3-6.8-9.2 6.7 3.5-10.9-9.3-6.7H256zm64.9 0l3.5 10.9h11.5l-9.3 6.7 3.5 11-9.2-6.8-9.3 6.7 3.5-10.9-9.2-6.7h11.4zM32.4 232.4l3.6 10.9h11.4l-9.2 6.7 3.5 10.9-9.3-6.7-9.2 6.7 3.5-11-9.3-6.7H29zm64.9 0l3.5 10.9h11.5L103 250l3.6 10.9-9.3-6.7-9.3 6.7 3.6-11-9.3-6.7h11.4zm64.8 0l3.6 10.9H177l-9 6.7 3.5 10.9-9.3-6.7-9.2 6.7 3.5-11-9.3-6.7h11.5zm64.9 0l3.5 10.9H242l-9.3 6.7 3.6 10.9-9.3-6.7-9.3 6.7 3.6-11-9.3-6.7h11.4zm64.8 0l3.6 10.9h11.4l-9.2 6.7 3.5 10.9-9.3-6.7-9.2 6.7 3.5-11-9.2-6.7h11.4zm64.9 0l3.5 10.9h11.5l-9.3 6.7 3.6 10.9-9.3-6.7-9.3 6.7 3.6-11-9.3-6.7h11.5z"
          transform="scale(.9375)" />
      </g>
    </symbol>
    <symbol id="icon-earth" viewBox="0 0 24 24">
      <path
        d="M12 0c-6.627 0-12 5.373-12 12s5.373 12 12 12 12-5.373 12-12-5.373-12-12-12zM12 22.5c-1.476 0-2.88-0.305-4.154-0.854l5.464-6.147c0.122-0.137 0.189-0.315 0.189-0.498v-2.25c0-0.414-0.336-0.75-0.75-0.75-2.648 0-5.442-2.753-5.47-2.78-0.141-0.141-0.331-0.22-0.53-0.22h-3c-0.414 0-0.75 0.336-0.75 0.75v4.5c0 0.284 0.161 0.544 0.415 0.671l2.585 1.293v4.404c-2.72-1.897-4.5-5.049-4.5-8.617 0-1.61 0.363-3.136 1.011-4.5h2.739c0.199 0 0.39-0.079 0.53-0.22l3-3c0.141-0.141 0.22-0.331 0.22-0.53v-1.814c0.951-0.283 1.957-0.436 3-0.436 1.65 0 3.211 0.381 4.6 1.059-0.097 0.082-0.192 0.168-0.282 0.259-0.85 0.85-1.318 1.98-1.318 3.182s0.468 2.332 1.318 3.182c0.854 0.854 1.997 1.319 3.179 1.319 0.074 0 0.149-0.002 0.223-0.006 0.324 1.214 0.908 4.375-0.197 8.727-0.010 0.041-0.016 0.082-0.020 0.122-1.906 1.947-4.563 3.156-7.503 3.156z">
      </path>
    </symbol>
    <symbol id="icon-feedback" viewBox="0 0 24 24">
      <path
        d="M20.016 15.984v-12h-16.031v14.016l2.016-2.016h14.016zM20.016 2.016c1.078 0 1.969 0.891 1.969 1.969v12c0 1.078-0.891 2.016-1.969 2.016h-14.016l-3.984 3.984v-18c0-1.078 0.891-1.969 1.969-1.969h16.031z">
      </path>
    </symbol>
    <symbol id="icon-collection" viewBox="0 0 24 24">
      <path
        d="M12.984 3h8.016v6h-8.016v-6zM12.984 21v-9.984h8.016v9.984h-8.016zM3 21v-6h8.016v6h-8.016zM3 12.984v-9.984h8.016v9.984h-8.016z">
      </path>
    </symbol>
    <symbol id="icon-extension" viewBox="0 0 24 24">
      <path
        d="M20.484 11.016c1.359 0 2.531 1.125 2.531 2.484s-1.172 2.484-2.531 2.484h-1.5v4.031c0 1.078-0.891 1.969-1.969 1.969h-3.797v-1.5c0-1.5-1.219-2.672-2.719-2.672s-2.719 1.172-2.719 2.672v1.5h-3.797c-1.078 0-1.969-0.891-1.969-1.969v-3.797h1.5c1.5 0 2.672-1.219 2.672-2.719s-1.172-2.719-2.672-2.719h-1.5v-3.797c0-1.078 0.891-1.969 1.969-1.969h4.031v-1.5c0-1.359 1.125-2.531 2.484-2.531s2.484 1.172 2.484 2.531v1.5h4.031c1.078 0 1.969 0.891 1.969 1.969v4.031h1.5z">
      </path>
    </symbol>
    <symbol id="icon-import-export" viewBox="0 0 24 24">
      <path
        d="M15.984 17.016h3l-3.984 3.984-3.984-3.984h3v-7.031h1.969v7.031zM9 3l3.984 3.984h-3v7.031h-1.969v-7.031h-3z">
      </path>
    </symbol>
    <symbol id="icon-tags" viewBox="0 0 24 19">
      <path
        d="M22.859 0h-7.125c-0.49 0-1.174 0.283-1.52 0.63l-8.834 8.834c-0.346 0.346-0.346 0.913 0 1.26l7.647 7.647c0.346 0.346 0.913 0.346 1.26 0l8.834-8.834c0.346-0.346 0.63-1.031 0.63-1.52v-7.125c0-0.49-0.401-0.891-0.891-0.891zM18.406 7.125c-0.984 0-1.781-0.797-1.781-1.781s0.797-1.781 1.781-1.781 1.781 0.797 1.781 1.781-0.797 1.781-1.781 1.781z">
      </path>
      <path
        d="M2.375 10.094l10.094-10.094h-1.484c-0.49 0-1.174 0.283-1.52 0.63l-8.834 8.834c-0.346 0.346-0.346 0.913 0 1.26l7.647 7.647c0.346 0.346 0.913 0.346 1.26 0l0.558-0.558-7.719-7.719z">
      </path>
    </symbol>
    <symbol id="icon-tag" viewBox="0 0 24 24">
      <path
        d="M22.875 0h-9c-0.619 0-1.483 0.358-1.921 0.796l-11.159 11.159c-0.438 0.438-0.438 1.153 0 1.591l9.659 9.659c0.438 0.438 1.153 0.438 1.591 0l11.159-11.159c0.437-0.437 0.795-1.302 0.795-1.92v-9c0-0.619-0.506-1.125-1.125-1.125zM17.25 9c-1.243 0-2.25-1.007-2.25-2.25s1.007-2.25 2.25-2.25 2.25 1.007 2.25 2.25-1.007 2.25-2.25 2.25z">
      </path>
    </symbol>
    <symbol id="icon-notes" viewBox="0 0 24 24">
      <path
        d="M18 8.016v-2.016h-12v2.016h12zM14.016 14.016v-2.016h-8.016v2.016h8.016zM6 9v2.016h12v-2.016h-12zM20.016 2.016q0.797 0 1.383 0.586t0.586 1.383v12q0 0.797-0.586 1.406t-1.383 0.609h-14.016l-3.984 3.984v-18q0-0.797 0.586-1.383t1.383-0.586h16.031z">
      </path>
    </symbol>
    <symbol id="icon-note" viewBox="0 0 24 24">
      <path
        d="M20.016 2.016q0.797 0 1.383 0.586t0.586 1.383v12q0 0.797-0.586 1.406t-1.383 0.609h-14.016l-3.984 3.984v-18q0-0.797 0.586-1.383t1.383-0.586h16.031z">
      </path>
    </symbol>
    <symbol id="icon-show" viewBox="0 0 24 24">
      <path
        d="M12 9q1.219 0 2.109 0.891t0.891 2.109-0.891 2.109-2.109 0.891-2.109-0.891-0.891-2.109 0.891-2.109 2.109-0.891zM12 17.016q2.063 0 3.539-1.477t1.477-3.539-1.477-3.539-3.539-1.477-3.539 1.477-1.477 3.539 1.477 3.539 3.539 1.477zM12 4.5q3.703 0 6.703 2.063t4.313 5.438q-1.313 3.375-4.313 5.438t-6.703 2.063-6.703-2.063-4.313-5.438q1.313-3.375 4.313-5.438t6.703-2.063z">
      </path>
    </symbol>
    <symbol id="icon-hide" viewBox="0 0 24 24">
      <path
        d="M11.859 9h0.141q1.219 0 2.109 0.891t0.891 2.109v0.188zM7.547 9.797q-0.563 1.125-0.563 2.203 0 2.063 1.477 3.539t3.539 1.477q1.078 0 2.203-0.563l-1.547-1.547q-0.375 0.094-0.656 0.094-1.219 0-2.109-0.891t-0.891-2.109q0-0.281 0.094-0.656zM2.016 4.266l1.266-1.266 17.719 17.719-1.266 1.266q-0.234-0.234-1.477-1.453t-1.898-1.875q-2.016 0.844-4.359 0.844-3.703 0-6.703-2.063t-4.313-5.438q0.516-1.219 1.617-2.695t2.133-2.273q-0.563-0.563-1.57-1.594t-1.148-1.172zM12 6.984q-0.938 0-1.828 0.375l-2.156-2.156q1.828-0.703 3.984-0.703 3.703 0 6.68 2.063t4.289 5.438q-1.125 2.766-3.422 4.734l-2.906-2.906q0.375-0.891 0.375-1.828 0-2.063-1.477-3.539t-3.539-1.477z">
      </path>
    </symbol>
    <symbol id="icon-accessible" viewBox="0 0 24 24">
      <path
        d="M12.844 18h2.063c-0.469 2.297-2.484 3.984-4.922 3.984-2.766 0-4.969-2.203-4.969-4.969 0-2.438 1.688-4.453 3.984-4.922v2.063c-1.172 0.422-2.016 1.547-2.016 2.859 0 1.641 1.359 3 3 3 1.313 0 2.438-0.844 2.859-2.016zM9.984 9.094c0-1.406 1.564-2.649 3-1.828h0.047v0.047c0.234 0.094 0.422 0.234 0.609 0.422l1.313 1.453c0.984 1.078 2.484 1.828 4.031 1.828v1.969c-1.734 0-3.656-0.844-4.969-1.922v3.422h3c1.078 0 1.969 0.938 1.969 2.016v5.484h-1.969v-4.969h-5.016c-1.078 0-2.016-0.938-2.016-2.016v-5.906zM9.984 3.984c0-1.125 0.891-1.969 2.016-1.969s2.016 0.844 2.016 1.969-0.891 2.016-2.016 2.016-2.016-0.891-2.016-2.016z">
      </path>
    </symbol>
    <symbol id="icon-add-link" viewBox="0 0 24 24">
      <path
        d="M18.984 12v3h3v2.016h-3v3h-1.969v-3h-3v-2.016h3v-3h1.969zM3.891 12q0 1.266 0.914 2.18t2.18 0.914h4.031v1.922h-4.031q-2.063 0-3.516-1.477t-1.453-3.539 1.453-3.539 3.516-1.477h4.031v1.922h-4.031q-1.266 0-2.18 0.914t-0.914 2.18zM20.109 12q0-1.266-0.914-2.18t-2.18-0.914h-4.031v-1.922h4.031q2.063 0 3.516 1.477t1.453 3.539h-1.875zM8.016 11.016h7.969v1.969h-7.969v-1.969z">
      </path>
    </symbol>
    <symbol id="icon-add-collection" viewBox="0 0 24 24">
      <path
        d="M18 12.984v3h3v2.016h-3v3h-2.016v-3h-3v-2.016h3v-3h2.016zM3 12.984h8.016v8.016h-8.016v-8.016zM12.984 3h8.016v8.016h-8.016v-8.016zM3 3h8.016v8.016h-8.016v-8.016z">
      </path>
    </symbol>
    <symbol id="icon-send" viewBox="0 0 24 24">
      <path d="M2.016 21v-6.984l15-2.016-15-2.016v-6.984l21 9z"></path>
    </symbol>
  </defs>
</svg>