<svg xmlns="http://www.w3.org/2000/svg" viewBox="0 0 128 128"><defs><style>.cls-1{fill:#e2607f;}.cls-2{fill:#dd4e6a;}.cls-3{fill:#f3f4f5;}.cls-4{fill:#dde1e8;}.cls-5{fill:#c7cdd8;}.cls-6{fill:#949aaf;}.cls-7{fill:#8288a1;}.cls-8{fill:#c6ccda;}</style></defs><title>404 Error </title><g id="_404_Error" data-name="404 Error"><circle class="cls-1" cx="64" cy="41" r="23"/><path class="cls-2" d="M64,64A23,23,0,0,1,41.09,39a23,23,0,0,0,45.82,0A23,23,0,0,1,64,64Z"/><path class="cls-3" d="M54,52a1,1,0,0,1-.72-1.74l20-20a1,1,0,0,1,1.44,1.44C53,53.47,54.61,52,54,52Z"/><path class="cls-3" d="M74,52c-.64,0,.83,1.26-20.72-20.3a1,1,0,0,1,1.44-1.44l20,20A1,1,0,0,1,74,52Z"/><path class="cls-4" d="M52,77H65a3,3,0,0,1,0,6H52Z"/><path class="cls-4" d="M52,99H65a3,3,0,0,1,0,6H52Z"/><path class="cls-5" d="M65,83H52V80c13.81,0,14.4.47,15.6-1.5A3,3,0,0,1,65,83Z"/><path class="cls-5" d="M65,105H52v-3c13.81,0,14.4.47,15.6-1.5A3,3,0,0,1,65,105Z"/><path class="cls-6" d="M52,74v34H35a6,6,0,0,1-6-6V80a6,6,0,0,1,6-6Z"/><polygon class="cls-6" points="29 101 19 98.5 19 83.5 29 81 29 101"/><polygon class="cls-7" points="29 81 29 101 26 100.25 26 81.75 29 81"/><rect class="cls-6" x="1" y="87" width="18" height="8"/><rect class="cls-7" x="16" y="87" width="3" height="8"/><path class="cls-6" d="M99,80v22a6,6,0,0,1-6,6H76V74H93A6,6,0,0,1,99,80Z"/><path class="cls-7" d="M52,104v4H35a6,6,0,0,1-6-6V98.91A5.09,5.09,0,0,0,34.09,104Z"/><path class="cls-7" d="M99,98.91V102a6,6,0,0,1-6,6H76v-4H93.91A5.09,5.09,0,0,0,99,98.91Z"/><polygon class="cls-6" points="99 81 109 83.5 109 98.5 99 101 99 81"/><polygon class="cls-7" points="29 97 29 101 19 98.5 19 94.5 29 97"/><polygon class="cls-7" points="109 94.5 109 98.5 99 101 99 97 109 94.5"/><rect class="cls-6" x="109" y="87" width="18" height="8"/><rect class="cls-7" x="1" y="92" width="18" height="3"/><rect class="cls-7" x="109" y="92" width="18" height="3"/><rect class="cls-7" x="109" y="87" width="3" height="8"/><polygon class="cls-7" points="99 101 99 81 102 81.75 102 100.25 99 101"/><path class="cls-8" d="M51,109V73a1,1,0,0,1,2,0v36A1,1,0,0,1,51,109Z"/><path class="cls-8" d="M75,109V73a1,1,0,0,1,2,0v36A1,1,0,0,1,75,109Z"/></g></svg>