<svg xmlns="http://www.w3.org/2000/svg" viewBox="0 0 128 128"><defs><style>.cls-1{fill:#dde1e8;}.cls-2{fill:#c7cdd8;}.cls-3{fill:#7aa8d7;}.cls-4{fill:#5b8dc9;}.cls-5{fill:#9b756d;}.cls-6{fill:#8a6762;}.cls-7{fill:#d1a788;}.cls-8{fill:#cba07a;}</style></defs><title>About</title><g id="About"><polygon class="cls-1" points="113 52.33 113 115 15 115 15 52.33 64 15 113 52.33"/><path class="cls-2" d="M64,105A29,29,0,0,1,35.12,73.5a29,29,0,0,0,57.76,0A29,29,0,0,1,64,105Z"/><circle class="cls-3" cx="64" cy="71" r="29"/><path class="cls-4" d="M64,100A29,29,0,0,1,35.12,68.5a29,29,0,0,0,57.76,0A29,29,0,0,1,64,100Z"/><path class="cls-1" d="M67,84H65V61a1,1,0,0,0-1-1H62a1,1,0,0,0,0,2h1V84H61a1,1,0,0,0,0,2h6A1,1,0,0,0,67,84Z"/><path class="cls-1" d="M63.5,58a1.52,1.52,0,0,0,0-3A1.52,1.52,0,0,0,63.5,58Z"/><rect class="cls-5" x="1" y="115" width="126" height="12"/><rect class="cls-6" x="1" y="123" width="126" height="4"/><rect class="cls-2" x="15" y="111" width="98" height="4"/><path class="cls-2" d="M113,52.33v5c-3.8-2.9,5.24,4-49-37.33L15,57.37v-5L64,15Z"/><path class="cls-7" d="M127,49V63L64,15,1,63V49L64,1Z"/><polygon class="cls-8" points="127 59 127 63 64 15 1 63 1 59 64 11 127 59"/></g></svg>