<svg xmlns="http://www.w3.org/2000/svg" xmlns:xlink="http://www.w3.org/1999/xlink" viewBox="0 0 64 64"><defs><style>.cls-1{fill:#aae0e5;}.cls-2{fill:url(#linear-gradient);}.cls-3{fill:#f6b756;}.cls-4{opacity:0.9;fill:url(#linear-gradient-2);}.cls-5{fill:#f2a961;}.cls-6{fill:#fff2e3;}.cls-7{fill:url(#linear-gradient-3);}.cls-8{fill:url(#linear-gradient-4);}.cls-9{fill:url(#linear-gradient-5);}.cls-10{fill:url(#linear-gradient-6);}.cls-11{fill:url(#linear-gradient-7);}.cls-12{fill:url(#linear-gradient-8);}.cls-13{fill:url(#linear-gradient-9);}.cls-14{fill:url(#linear-gradient-10);}.cls-15{fill:url(#linear-gradient-11);}.cls-16{fill:url(#linear-gradient-12);}.cls-17{fill:url(#linear-gradient-13);}.cls-18{fill:url(#linear-gradient-14);}.cls-19{fill:#5b8dc9;}</style><linearGradient id="linear-gradient" x1="32" y1="44" x2="32" y2="20" gradientUnits="userSpaceOnUse"><stop offset="0" stop-color="#fbcc88"/><stop offset="1" stop-color="#ffe5c3"/></linearGradient><linearGradient id="linear-gradient-2" x1="32" y1="41" x2="32" y2="23" gradientUnits="userSpaceOnUse"><stop offset="0" stop-color="#e9a254"/><stop offset="1" stop-color="#f4bb79"/></linearGradient><linearGradient id="linear-gradient-3" x1="11" y1="21" x2="11" y2="1" xlink:href="#linear-gradient"/><linearGradient id="linear-gradient-4" x1="11" y1="63" x2="11" y2="43" xlink:href="#linear-gradient"/><linearGradient id="linear-gradient-5" x1="53" y1="63" x2="53" y2="43" xlink:href="#linear-gradient"/><linearGradient id="linear-gradient-6" x1="11" y1="12.82" x2="11" y2="4.64" gradientUnits="userSpaceOnUse"><stop offset="0" stop-color="#7aa8d7"/><stop offset="1" stop-color="#c3d2e7"/></linearGradient><linearGradient id="linear-gradient-7" x1="11" y1="21" x2="11" y2="12.83" xlink:href="#linear-gradient-6"/><linearGradient id="linear-gradient-8" x1="53" y1="54.82" x2="53" y2="46.64" xlink:href="#linear-gradient-6"/><linearGradient id="linear-gradient-9" x1="53" y1="63" x2="53" y2="54.83" xlink:href="#linear-gradient-6"/><linearGradient id="linear-gradient-10" x1="53" y1="21" x2="53" y2="1" xlink:href="#linear-gradient"/><linearGradient id="linear-gradient-11" x1="53" y1="12.82" x2="53" y2="4.64" xlink:href="#linear-gradient-6"/><linearGradient id="linear-gradient-12" x1="53" y1="21" x2="53" y2="12.83" xlink:href="#linear-gradient-6"/><linearGradient id="linear-gradient-13" x1="11" y1="54.82" x2="11" y2="46.64" xlink:href="#linear-gradient-6"/><linearGradient id="linear-gradient-14" x1="11" y1="62.99" x2="11" y2="54.82" xlink:href="#linear-gradient-6"/></defs><title>Affiliate</title><g id="Affiliate"><path class="cls-1" d="M56.41,43.55a27,27,0,0,0,0-23.1,1,1,0,0,1,1.8-.86,29,29,0,0,1,0,24.82A1,1,0,0,1,56.41,43.55Z"/><path class="cls-1" d="M5.79,44.41a29,29,0,0,1,0-24.82,1,1,0,0,1,1.33-.47C9.09,20.05,5,22.62,5,32S9.11,43.94,7.12,44.88A1,1,0,0,1,5.79,44.41Z"/><path class="cls-1" d="M44,7.69C43.16,7.69,39.27,5,32,5,22.6,5,20.06,9.11,19.12,7.12a1,1,0,0,1,.47-1.33,29,29,0,0,1,24.82,0A1,1,0,0,1,44,7.69Z"/><path class="cls-1" d="M19.59,58.21a1,1,0,0,1-.47-1.33C20.05,54.91,22.6,59,32,59s11.94-4.11,12.88-2.12a1,1,0,0,1-.47,1.33A29,29,0,0,1,19.59,58.21Z"/><circle class="cls-2" cx="32" cy="32" r="12"/><path class="cls-3" d="M32,44A12,12,0,0,1,20,31,12,12,0,0,0,44,31,12,12,0,0,1,32,44Z"/><circle class="cls-4" cx="32" cy="32" r="9"/><path class="cls-5" d="M40.94,33a9,9,0,0,0-17.88,0,9,9,0,1,1,17.88,0Z"/><path class="cls-6" d="M33,31H31a1,1,0,0,1,0-2h4a1,1,0,0,0,0-2H33V26a1,1,0,0,0-2,0v1a3,3,0,0,0,0,6h2a1,1,0,0,1,0,2H29a1,1,0,0,0,0,2h2v1a1,1,0,0,0,2,0V37a3,3,0,0,0,0-6Z"/><circle class="cls-7" cx="11" cy="11" r="10"/><circle class="cls-8" cx="11" cy="53" r="10"/><circle class="cls-9" cx="53" cy="53" r="10"/><path class="cls-10" d="M11,12.82A3.64,3.64,0,0,1,7.36,9.18V8.27a3.64,3.64,0,0,1,7.28,0v.91A3.64,3.64,0,0,1,11,12.82Z"/><path class="cls-11" d="M17.48,18.62a10,10,0,0,1-13,0L5,17.13a6.31,6.31,0,0,1,12,0Z"/><path class="cls-12" d="M53,54.82a3.64,3.64,0,0,1-3.64-3.64v-.91a3.64,3.64,0,0,1,7.28,0v.91A3.64,3.64,0,0,1,53,54.82Z"/><path class="cls-13" d="M59.48,60.62a10,10,0,0,1-13,0l.5-1.49a6.31,6.31,0,0,1,12,0Z"/><circle class="cls-14" cx="53" cy="11" r="10"/><path class="cls-15" d="M53,12.82a3.64,3.64,0,0,1-3.64-3.64V8.27a3.64,3.64,0,0,1,7.28,0v.91A3.64,3.64,0,0,1,53,12.82Z"/><path class="cls-16" d="M59.48,18.62a10,10,0,0,1-13,0l.5-1.49a6.31,6.31,0,0,1,12,0Z"/><path class="cls-17" d="M11,54.82a3.64,3.64,0,0,1-3.64-3.64v-.91a3.64,3.64,0,0,1,7.28,0v.91A3.64,3.64,0,0,1,11,54.82Z"/><path class="cls-18" d="M17.48,60.61a10,10,0,0,1-13,0,17.8,17.8,0,0,1,.86-2.34,6.31,6.31,0,0,1,11.24,0A16.38,16.38,0,0,1,17.48,60.61Z"/><path class="cls-3" d="M5.38,58.27a16.38,16.38,0,0,0-.86,2.34,9.94,9.94,0,0,1-3.4-9.09A10,10,0,0,0,5.38,58.27Z"/><path class="cls-3" d="M17.48,60.61a17.8,17.8,0,0,0-.86-2.34,10,10,0,0,0,4.26-6.75A9.92,9.92,0,0,1,17.48,60.61Z"/><path class="cls-19" d="M17.48,60.61a10,10,0,0,1-13,0,17.8,17.8,0,0,1,.86-2.34,10,10,0,0,0,11.24,0A16.38,16.38,0,0,1,17.48,60.61Z"/><path class="cls-3" d="M47.38,58.27a16.38,16.38,0,0,0-.86,2.34,9.94,9.94,0,0,1-3.4-9.09A10,10,0,0,0,47.38,58.27Z"/><path class="cls-3" d="M59.48,60.61a17.8,17.8,0,0,0-.86-2.34,10,10,0,0,0,4.26-6.75A9.92,9.92,0,0,1,59.48,60.61Z"/><path class="cls-19" d="M59.48,60.61a10,10,0,0,1-13,0,17.8,17.8,0,0,1,.86-2.34,10,10,0,0,0,11.24,0A16.38,16.38,0,0,1,59.48,60.61Z"/><path class="cls-3" d="M5.38,16.27a16.38,16.38,0,0,0-.86,2.34,9.94,9.94,0,0,1-3.4-9.09A10,10,0,0,0,5.38,16.27Z"/><path class="cls-3" d="M17.48,18.61a17.8,17.8,0,0,0-.86-2.34,10,10,0,0,0,4.26-6.75A9.92,9.92,0,0,1,17.48,18.61Z"/><path class="cls-19" d="M17.48,18.61a10,10,0,0,1-13,0,17.8,17.8,0,0,1,.86-2.34,10,10,0,0,0,11.24,0A16.38,16.38,0,0,1,17.48,18.61Z"/><path class="cls-3" d="M47.38,16.27a16.38,16.38,0,0,0-.86,2.34,9.94,9.94,0,0,1-3.4-9.09A10,10,0,0,0,47.38,16.27Z"/><path class="cls-3" d="M59.48,18.61a17.8,17.8,0,0,0-.86-2.34,10,10,0,0,0,4.26-6.75A9.92,9.92,0,0,1,59.48,18.61Z"/><path class="cls-19" d="M59.48,18.61a10,10,0,0,1-13,0,17.8,17.8,0,0,1,.86-2.34,10,10,0,0,0,11.24,0A16.38,16.38,0,0,1,59.48,18.61Z"/></g></svg>