<svg xmlns="http://www.w3.org/2000/svg" viewBox="0 0 128 128"><defs><style>.cls-1{fill:#7aa8d7;}.cls-2{fill:#5b8dc9;}.cls-3{fill:#dde1e8;}.cls-4{fill:#42455e;}.cls-5{fill:#c7cdd8;}.cls-6{fill:#6ab891;}.cls-7{fill:#4da67f;}.cls-8{fill:#454b60;}</style></defs><title>Antivirus</title><g id="Antivirus"><path class="cls-1" d="M64,127c-29.3-8.2-50-36.1-50-68.33V15A96.74,96.74,0,0,0,64,1a96.72,96.72,0,0,0,50,14V58.67C114,91,93.25,118.81,64,127Z"/><path class="cls-2" d="M114,55.67v3c0,32-20.52,60.07-50,68.33-29.48-8.26-50-36.29-50-68.33v-3c0,32,20.52,60.07,50,68.33C93.48,115.74,114,87.71,114,55.67Z"/><path class="cls-3" d="M64,118.65c-24.84-8-42-32.36-42-60v-36A105,105,0,0,0,64,10.22a105.08,105.08,0,0,0,42,12.47v36C106,86.29,88.84,110.62,64,118.65Z"/><path class="cls-4" d="M59,37.34c-1.32,0-2-3-2-4.34a1,1,0,0,1,2,0,5,5,0,0,0,.83,2.76A1,1,0,0,1,59,37.34Z"/><path class="cls-4" d="M68.15,35.76A5,5,0,0,0,69,33a1,1,0,0,1,1-1c1.82,0,.86,3.38-.15,4.9A1,1,0,0,1,68.15,35.76Z"/><path class="cls-4" d="M80.88,54.27a1,1,0,0,1-.62-1.83A17.58,17.58,0,0,1,91,48.85a1,1,0,0,1,0,2C84.68,50.9,81.72,54.27,80.88,54.27Z"/><path class="cls-4" d="M91,67.77H80.88a1,1,0,0,1,0-2H91A1,1,0,0,1,91,67.77Z"/><path class="cls-4" d="M47.12,54.27c-.8,0-3.79-3.37-10.12-3.37a1,1,0,0,1,0-2,17.58,17.58,0,0,1,10.74,3.59A1,1,0,0,1,47.12,54.27Z"/><path class="cls-4" d="M47.13,67.77H37a1,1,0,0,1,0-2H47.13A1,1,0,0,1,47.13,67.77Z"/><path class="cls-4" d="M86.6,87c0-3.52-2.75-6.91-7.56-9.28a1,1,0,0,1,.9-1.83c5.53,2.73,8.71,6.78,8.71,11.11A1,1,0,0,1,86.6,87Z"/><path class="cls-4" d="M39.35,87c0-4.33,3.18-8.38,8.71-11.11a1,1,0,0,1,.9,1.83C44.15,80.09,41.4,83.48,41.4,87A1,1,0,0,1,39.35,87Z"/><path class="cls-5" d="M106,55.67v3c0,27.62-17.16,52-42,60-24.84-8-42-32.36-42-60v-3c0,27.62,17.16,52,42,60C88.84,107.62,106,83.29,106,55.67Z"/><path class="cls-5" d="M106,22.69v3A105.08,105.08,0,0,1,64,13.22,105,105,0,0,1,22,25.69v-3A105,105,0,0,0,64,10.22,105.08,105.08,0,0,0,106,22.69Z"/><path class="cls-6" d="M53.88,46.5H74.13a6.75,6.75,0,0,1,6.75,6.75V70.13a16.88,16.88,0,0,1-33.75,0V53.25A6.75,6.75,0,0,1,53.88,46.5Z"/><path class="cls-7" d="M80.88,66.13v4a16.88,16.88,0,0,1-33.75,0v-4a16.86,16.86,0,0,0,4.94,11.93C62.63,88.62,80.88,81.13,80.88,66.13Z"/><path class="cls-8" d="M74.13,46.5H53.88V45.12a10.13,10.13,0,0,1,20.25,0Z"/><path class="cls-4" d="M74.13,46.5H53.88a16.74,16.74,0,0,1,.13-3H74A16.69,16.69,0,0,1,74.13,46.5Z"/><path class="cls-7" d="M63,86V52a1,1,0,0,1,2,0V86A1,1,0,0,1,63,86Z"/></g></svg>