<svg xmlns="http://www.w3.org/2000/svg" xmlns:xlink="http://www.w3.org/1999/xlink" viewBox="0 0 64 64"><defs><style>.cls-1{fill:url(#linear-gradient);}.cls-2{fill:#f6b756;}.cls-3{fill:url(#linear-gradient-2);}.cls-4{fill:#f2a961;}.cls-5{fill:#575f7c;}.cls-6{fill:#42455e;}.cls-7{fill:url(#linear-gradient-3);}.cls-8{fill:#cf4055;}.cls-9{fill:url(#linear-gradient-4);}</style><linearGradient id="linear-gradient" x1="32" y1="63" x2="32" y2="1" gradientUnits="userSpaceOnUse"><stop offset="0" stop-color="#fbcc88"/><stop offset="1" stop-color="#ffe5c3"/></linearGradient><linearGradient id="linear-gradient-2" x1="32" y1="56.69" x2="32" y2="7.15" gradientUnits="userSpaceOnUse"><stop offset="0" stop-color="#e9a254"/><stop offset="1" stop-color="#f4bb79"/></linearGradient><linearGradient id="linear-gradient-3" x1="32" y1="41" x2="32" y2="25" gradientUnits="userSpaceOnUse"><stop offset="0" stop-color="#da5466"/><stop offset="1" stop-color="#f4929c"/></linearGradient><linearGradient id="linear-gradient-4" x1="32" y1="25" x2="32" y2="20" gradientUnits="userSpaceOnUse"><stop offset="0" stop-color="#474f72"/><stop offset="1" stop-color="#878c9f"/></linearGradient></defs><title>Anti Virus</title><g id="Anti_Virus" data-name="Anti Virus"><path class="cls-1" d="M32,63A37.71,37.71,0,0,1,5,26.84V7L32,1,59,7V26.84A37.72,37.72,0,0,1,32,63Z"/><path class="cls-2" d="M55.29,43.14A37.65,37.65,0,0,1,32,63,37.65,37.65,0,0,1,8.71,43.14,40.1,40.1,0,0,0,32,60,40.1,40.1,0,0,0,55.29,43.14Z"/><path class="cls-3" d="M32,56.69A31.92,31.92,0,0,1,11,26.84v-15L32,7.15l21,4.66v15A31.92,31.92,0,0,1,32,56.69Z"/><polygon class="cls-4" points="53 11.81 53 14.81 32 10.15 11 14.81 11 11.81 32 7.15 53 11.81"/><path class="cls-5" d="M29.61,21.8C28.57,21.8,28,20,28,19a1,1,0,0,1,2,0,2,2,0,0,0,.41,1.2A1,1,0,0,1,29.61,21.8Z"/><path class="cls-5" d="M33.59,20.2A2,2,0,0,0,34,19a1,1,0,0,1,1-1c1.5,0,1.1,2.2.19,3.4A1,1,0,0,1,33.59,20.2Z"/><path class="cls-6" d="M24.78,28.77A4.48,4.48,0,0,1,21,24.23c0-1.65,2-1.66,2,0a2.5,2.5,0,0,0,2.24,2.6A1,1,0,0,1,24.78,28.77Z"/><path class="cls-6" d="M38.76,26.83A2.53,2.53,0,0,0,41,24a1,1,0,0,1,2,0,4.5,4.5,0,0,1-3.78,4.77A1,1,0,0,1,38.76,26.83Z"/><path class="cls-6" d="M22,42c-1.95,0-1.16-5.45,3.07-6.75a1,1,0,0,1,.58,1.92A3.74,3.74,0,0,0,23,40.77C23,41.92,22.22,42,22,42Z"/><path class="cls-6" d="M41,40.77a3.74,3.74,0,0,0-2.65-3.6,1,1,0,0,1-.67-1.25c.61-2,5.32.62,5.32,4.85C43,42.42,41,42.43,41,40.77Z"/><path class="cls-6" d="M20.21,33.38c1.32-1.68,5.19-4.5,5.75-2.45a1,1,0,0,1-.7,1.23,7.84,7.84,0,0,0-3.47,2.46A1,1,0,0,1,20.21,33.38Z"/><path class="cls-6" d="M42.21,34.62a7.84,7.84,0,0,0-3.47-2.46,1,1,0,0,1,.52-1.93,10,10,0,0,1,4.53,3.15A1,1,0,0,1,42.21,34.62Z"/><path class="cls-7" d="M32,41a7,7,0,0,1-7-7V28a3,3,0,0,1,3-3h8a3,3,0,0,1,3,3v6A7,7,0,0,1,32,41Z"/><path class="cls-8" d="M39,32v2a7,7,0,0,1-14,0V32a7,7,0,0,0,14,0Z"/><path class="cls-9" d="M36,25H28V24a4,4,0,0,1,8,0Z"/><path class="cls-8" d="M33,29V40.92a6.1,6.1,0,0,1-2,0V29A1,1,0,0,1,33,29Z"/></g></svg>