<svg xmlns="http://www.w3.org/2000/svg" xmlns:xlink="http://www.w3.org/1999/xlink" viewBox="0 0 64 64"><defs><style>.cls-1{fill:url(#linear-gradient);}.cls-2{fill:url(#linear-gradient-2);}.cls-3{fill:#dd8b37;}.cls-4{fill:#dfe3ea;}.cls-5{fill:url(#linear-gradient-3);}.cls-6{fill:url(#linear-gradient-4);}.cls-7{fill:url(#linear-gradient-5);}.cls-8{fill:url(#linear-gradient-6);}.cls-9{fill:url(#linear-gradient-7);}.cls-10{fill:#4da67f;}.cls-11{fill:#f69163;}.cls-12{fill:#5b8dc9;}.cls-13{fill:#cf4055;}.cls-14{fill:#8a6762;}</style><linearGradient id="linear-gradient" x1="32" y1="47" x2="32" y2="17" gradientUnits="userSpaceOnUse"><stop offset="0" stop-color="#fbcc88"/><stop offset="1" stop-color="#ffe5c3"/></linearGradient><linearGradient id="linear-gradient-2" x1="32" y1="40" x2="32" y2="24" gradientUnits="userSpaceOnUse"><stop offset="0" stop-color="#e9a254"/><stop offset="1" stop-color="#f4bb79"/></linearGradient><linearGradient id="linear-gradient-3" x1="53" y1="41" x2="53" y2="33" gradientUnits="userSpaceOnUse"><stop offset="0" stop-color="#6ab891"/><stop offset="1" stop-color="#85cba9"/></linearGradient><linearGradient id="linear-gradient-4" x1="54" y1="16" x2="54" y2="4" gradientUnits="userSpaceOnUse"><stop offset="0" stop-color="#f8aa88"/><stop offset="1" stop-color="#fac2ab"/></linearGradient><linearGradient id="linear-gradient-5" x1="6" y1="54" x2="6" y2="44" gradientUnits="userSpaceOnUse"><stop offset="0" stop-color="#7aa8d7"/><stop offset="1" stop-color="#c3d2e7"/></linearGradient><linearGradient id="linear-gradient-6" x1="16.5" y1="19" x2="16.5" y2="14" gradientUnits="userSpaceOnUse"><stop offset="0" stop-color="#da5466"/><stop offset="1" stop-color="#f4929c"/></linearGradient><linearGradient id="linear-gradient-7" x1="50.5" y1="60" x2="50.5" y2="53" gradientUnits="userSpaceOnUse"><stop offset="0" stop-color="#9b756d"/><stop offset="1" stop-color="#bc9388"/></linearGradient></defs><title>Astronomy</title><g id="Astronomy"><path class="cls-1" d="M47,32l-1.6.45a3.53,3.53,0,0,0-1.57,5.86L45,39.5l-1.6-.41a3.54,3.54,0,0,0-4.3,4.3L39.5,45l-1.19-1.16a3.53,3.53,0,0,0-5.86,1.57L32,47l-.45-1.6a3.53,3.53,0,0,0-5.86-1.57L24.5,45l.41-1.6a3.54,3.54,0,0,0-4.3-4.3L19,39.5l1.16-1.19a3.53,3.53,0,0,0-1.57-5.86L17,32l1.6-.45a3.53,3.53,0,0,0,1.57-5.86L19,24.5l1.6.41a3.54,3.54,0,0,0,4.3-4.3L24.5,19l1.19,1.16a3.53,3.53,0,0,0,5.86-1.57L32,17l.45,1.6a3.53,3.53,0,0,0,5.86,1.57L39.5,19l-.41,1.6a3.54,3.54,0,0,0,4.3,4.3L45,24.5l-1.16,1.19a3.53,3.53,0,0,0,1.57,5.86Z"/><circle class="cls-2" cx="32" cy="32" r="8"/><path class="cls-3" d="M32,40a8,8,0,0,1-7.94-9,8,8,0,0,0,15.88,0A8,8,0,0,1,32,40Z"/><path class="cls-4" d="M32,55C12.63,55,2.15,32.5,14,17.69a1,1,0,0,1,1.56,1.24C4.76,32.44,14.29,53,32,53A21,21,0,0,0,51.21,40.5a1,1,0,0,1,1.83.8A23,23,0,0,1,32,55Z"/><path class="cls-4" d="M53,33.06c1-18-20.07-28.67-34-17.5A1,1,0,0,1,17.68,14C33,1.74,56.06,13.43,55,33.18A1,1,0,0,1,53,33.06Z"/><path class="cls-4" d="M52.66,53.76a30,30,0,0,0,4.24-38.5,1,1,0,0,1,1.66-1.12A32,32,0,0,1,54,55.2,1,1,0,0,1,52.66,53.76Z"/><path class="cls-4" d="M2.75,45A31.72,31.72,0,0,1,0,32C0,6.24,28.9-8.69,49.86,5.44A1,1,0,0,1,48.74,7.1C29.1-6.14,2,7.84,2,32,2,42,6.12,44.58,4.07,45.49A1,1,0,0,1,2.75,45Z"/><path class="cls-4" d="M8.37,53.59a1,1,0,0,1,1.48-1.36A30.1,30.1,0,0,0,32,62c9.76,0,14.79-4.31,15.77-4.31a1,1,0,0,1,.43,1.91A32,32,0,0,1,8.37,53.59Z"/><circle class="cls-5" cx="53" cy="37" r="4"/><circle class="cls-6" cx="54" cy="10" r="6"/><circle class="cls-7" cx="6" cy="49" r="5"/><circle class="cls-8" cx="16.5" cy="16.5" r="2.5"/><circle class="cls-9" cx="50.5" cy="56.5" r="3.5"/><path class="cls-10" d="M57,37a4,4,0,0,1-8,0,3.66,3.66,0,0,1,.13-1,4,4,0,0,0,7.74,0A3.66,3.66,0,0,1,57,37Z"/><path class="cls-11" d="M60,10a6,6,0,0,1-12,0,5.47,5.47,0,0,1,.09-1A6,6,0,0,0,59.91,9,5.47,5.47,0,0,1,60,10Z"/><path class="cls-12" d="M11,49A5,5,0,0,1,1,49a4.62,4.62,0,0,1,.1-1,5,5,0,0,0,9.8,0A4.62,4.62,0,0,1,11,49Z"/><path class="cls-13" d="M19,16.5a2.5,2.5,0,0,1-5,0,2.42,2.42,0,0,1,.21-1,2.5,2.5,0,0,0,4.58,0A2.42,2.42,0,0,1,19,16.5Z"/><path class="cls-14" d="M54,56.5a3.5,3.5,0,0,1-7,0,3.32,3.32,0,0,1,.15-1,3.49,3.49,0,0,0,6.7,0A3.32,3.32,0,0,1,54,56.5Z"/></g></svg>