<svg xmlns="http://www.w3.org/2000/svg" xmlns:xlink="http://www.w3.org/1999/xlink" viewBox="0 0 64 64"><defs><style>.cls-1{fill:url(#linear-gradient);}.cls-2{fill:#dfe3ea;}.cls-3{fill:url(#linear-gradient-2);}.cls-4{fill:url(#linear-gradient-3);}.cls-5{fill:url(#linear-gradient-4);}.cls-6{fill:url(#linear-gradient-5);}.cls-7{fill:url(#linear-gradient-6);}.cls-8{fill:url(#linear-gradient-7);}.cls-9{fill:#cf4055;}.cls-10{fill:#7ece67;}.cls-11{fill:#5b8dc9;}.cls-12{fill:#f6b756;}</style><linearGradient id="linear-gradient" x1="32" y1="38" x2="32" y2="26" gradientUnits="userSpaceOnUse"><stop offset="0" stop-color="#da5466"/><stop offset="1" stop-color="#f4929c"/></linearGradient><linearGradient id="linear-gradient-2" x1="38" y1="10" x2="38" y2="4" xlink:href="#linear-gradient"/><linearGradient id="linear-gradient-3" x1="38" y1="10" x2="38" y2="4" gradientUnits="userSpaceOnUse"><stop offset="0" stop-color="#8cdd79"/><stop offset="1" stop-color="#d4e6b6"/></linearGradient><linearGradient id="linear-gradient-4" x1="50.65" y1="52.7" x2="50.65" y2="46.7" xlink:href="#linear-gradient"/><linearGradient id="linear-gradient-5" x1="50.65" y1="52.7" x2="50.65" y2="46.7" gradientUnits="userSpaceOnUse"><stop offset="0" stop-color="#7aa8d7"/><stop offset="1" stop-color="#c3d2e7"/></linearGradient><linearGradient id="linear-gradient-6" x1="7.35" y1="42.3" x2="7.35" y2="36.3" xlink:href="#linear-gradient"/><linearGradient id="linear-gradient-7" x1="7.35" y1="42.3" x2="7.35" y2="36.3" gradientUnits="userSpaceOnUse"><stop offset="0" stop-color="#fbcc88"/><stop offset="1" stop-color="#ffe5c3"/></linearGradient></defs><title>Atom</title><g id="Atom"><circle class="cls-1" cx="32" cy="32" r="6"/><path class="cls-2" d="M32,64c-4.2,0-7.83-6.24-9.71-16.7-5.19-28.79,5.6-58.53,15.1-43.45a1,1,0,0,1-1.7,1.06C28-7.34,19.79,22.14,24.25,46.94,25.88,56,29,62,32,62c7.68,0,12.37-32.6,6-51.86a1,1,0,0,1,1.9-.62C46.25,28.75,42.36,64,32,64Z"/><path class="cls-2" d="M32,64c-4.2,0-7.83-6.24-9.71-16.7-5.19-28.79,5.6-58.53,15.1-43.45a1,1,0,0,1-1.7,1.06C28-7.34,19.79,22.14,24.25,46.94,25.88,56,29,62,32,62c7.68,0,12.37-32.6,6-51.86a1,1,0,0,1,1.9-.62C46.25,28.75,42.36,64,32,64Z"/><circle class="cls-3" cx="38" cy="7" r="3"/><path class="cls-2" d="M32,64c-4.2,0-7.83-6.24-9.71-16.7-5.19-28.79,5.6-58.53,15.1-43.45a1,1,0,0,1-1.7,1.06C28-7.34,19.79,22.14,24.25,46.94,25.88,56,29,62,32,62c7.68,0,12.37-32.6,6-51.86a1,1,0,0,1,1.9-.62C46.25,28.75,42.36,64,32,64Z"/><path class="cls-2" d="M32,64c-4.2,0-7.83-6.24-9.71-16.7-5.19-28.79,5.6-58.53,15.1-43.45a1,1,0,0,1-1.7,1.06C28-7.34,19.79,22.14,24.25,46.94,25.88,56,29,62,32,62c7.68,0,12.37-32.6,6-51.86a1,1,0,0,1,1.9-.62C46.25,28.75,42.36,64,32,64Z"/><circle class="cls-4" cx="38" cy="7" r="3"/><path class="cls-2" d="M53.65,50.75a1,1,0,0,1,0-2c9.66-.38,2.64-9.71-4.79-16C33.26,19.56,9.27,11.34,6,17,2,23.93,28.84,44.24,47.91,48.16a1,1,0,0,1-.4,2c-10.88-2.24-24.77-9.85-33.63-17.36-22-18.67-6-27.36,23.62-10.29a87,87,0,0,1,12.62,8.77c8.1,6.86,11.69,13.12,9.6,16.76C58.57,50,55.8,50.75,53.65,50.75Z"/><path class="cls-2" d="M53.65,50.75a1,1,0,0,1,0-2c9.66-.38,2.64-9.71-4.79-16C33.26,19.56,9.27,11.34,6,17,2,23.93,28.84,44.24,47.91,48.16a1,1,0,0,1-.4,2c-10.88-2.24-24.77-9.85-33.63-17.36-22-18.67-6-27.36,23.62-10.29a87,87,0,0,1,12.62,8.77c8.1,6.86,11.69,13.12,9.6,16.76C58.57,50,55.8,50.75,53.65,50.75Z"/><circle class="cls-5" cx="50.65" cy="49.7" r="3"/><path class="cls-2" d="M53.65,50.75a1,1,0,0,1,0-2c9.66-.38,2.64-9.71-4.79-16C33.26,19.56,9.27,11.34,6,17,2,23.93,28.84,44.24,47.91,48.16a1,1,0,0,1-.4,2c-10.88-2.24-24.77-9.85-33.63-17.36-22-18.67-6-27.36,23.62-10.29a87,87,0,0,1,12.62,8.77c8.1,6.86,11.69,13.12,9.6,16.76C58.57,50,55.8,50.75,53.65,50.75Z"/><path class="cls-2" d="M53.65,50.75a1,1,0,0,1,0-2c9.66-.38,2.64-9.71-4.79-16C33.26,19.56,9.27,11.34,6,17,2,23.93,28.84,44.24,47.91,48.16a1,1,0,0,1-.4,2c-10.88-2.24-24.77-9.85-33.63-17.36-22-18.67-6-27.36,23.62-10.29a87,87,0,0,1,12.62,8.77c8.1,6.86,11.69,13.12,9.6,16.76C58.57,50,55.8,50.75,53.65,50.75Z"/><circle class="cls-6" cx="50.65" cy="49.7" r="3"/><path class="cls-2" d="M11,50.75c-6.74,0-9-3.8-6.13-9.34a1,1,0,0,1,1.78.92c-6.77,13,23.3,4.88,42.13-11.09C55.8,25.33,59.48,19.61,58,17s-8.3-2.28-16.91.82C30.61,21.56,17.41,29.47,10,37.7a1,1,0,0,1-1.49-1.34C13.38,31,20.22,26.1,26.5,22.47c30-17.29,45.39-8.14,23.62,10.29C40.68,40.76,22.6,50.75,11,50.75Z"/><path class="cls-2" d="M11,50.75c-6.74,0-9-3.8-6.13-9.34a1,1,0,0,1,1.78.92c-6.77,13,23.3,4.88,42.13-11.09C55.8,25.33,59.48,19.61,58,17s-8.3-2.28-16.91.82C30.61,21.56,17.41,29.47,10,37.7a1,1,0,0,1-1.49-1.34C13.38,31,20.22,26.1,26.5,22.47c30-17.29,45.39-8.14,23.62,10.29C40.68,40.76,22.6,50.75,11,50.75Z"/><circle class="cls-7" cx="7.35" cy="39.3" r="3"/><path class="cls-2" d="M11,50.75c-6.74,0-9-3.8-6.13-9.34a1,1,0,0,1,1.78.92c-6.77,13,23.3,4.88,42.13-11.09C55.8,25.33,59.48,19.61,58,17s-8.3-2.28-16.91.82C30.61,21.56,17.41,29.47,10,37.7a1,1,0,0,1-1.49-1.34C13.38,31,20.22,26.1,26.5,22.47c30-17.29,45.39-8.14,23.62,10.29C40.68,40.76,22.6,50.75,11,50.75Z"/><path class="cls-2" d="M11,50.75c-6.74,0-9-3.8-6.13-9.34a1,1,0,0,1,1.78.92c-6.77,13,23.3,4.88,42.13-11.09C55.8,25.33,59.48,19.61,58,17s-8.3-2.28-16.91.82C30.61,21.56,17.41,29.47,10,37.7a1,1,0,0,1-1.49-1.34C13.38,31,20.22,26.1,26.5,22.47c30-17.29,45.39-8.14,23.62,10.29C40.68,40.76,22.6,50.75,11,50.75Z"/><circle class="cls-8" cx="7.35" cy="39.3" r="3"/><path class="cls-9" d="M32,38a6,6,0,0,1-5.91-7c1.1,6.64,10.72,6.63,11.82,0A6,6,0,0,1,32,38Z"/><path class="cls-10" d="M38,10a3,3,0,0,1-2.82-4,3,3,0,0,0,5.64,0A3,3,0,0,1,38,10Z"/><path class="cls-11" d="M53.25,51.2a3,3,0,0,1-5.42-2.51,3,3,0,0,0,5.64,0A3,3,0,0,1,53.25,51.2Z"/><path class="cls-12" d="M8.85,41.9a3,3,0,0,1-4.32-3.6,3,3,0,0,0,5.64,0A3,3,0,0,1,8.85,41.9Z"/></g></svg>