<svg xmlns="http://www.w3.org/2000/svg" viewBox="0 0 128 128"><defs><style>.cls-1{fill:#9dd5df;}.cls-2{fill:#d7f1ff;}.cls-3{fill:#77cacb;}.cls-4{fill:#949aaf;}.cls-5{fill:#8288a1;}.cls-6{fill:#fbcc88;}.cls-7{fill:#7aa8d7;}.cls-8{fill:#5b8dc9;}.cls-9{fill:#454b60;}.cls-10{fill:#42455e;}</style></defs><title>Bad Gateway</title><g id="Bad_Gateway" data-name="Bad Gateway"><path class="cls-1" d="M93.57,26a30,30,0,0,0-59.14,0A35.5,35.5,0,0,0,34,33H94A35.45,35.45,0,0,0,93.57,26Z"/><path class="cls-2" d="M86.13,19.43A25.18,25.18,0,0,0,71.41,7.14,1,1,0,0,1,72,5.2,27.16,27.16,0,0,1,87.93,18.49,1,1,0,0,1,86.13,19.43Z"/><path class="cls-3" d="M93.57,26H34.43A35.5,35.5,0,0,0,34,33H94A35.45,35.45,0,0,0,93.57,26Z"/><path class="cls-4" d="M99,37.32V40H27c0-2.94,0-2.86,0-3a6.31,6.31,0,0,1,6.3-6H92.68A6.33,6.33,0,0,1,99,37.32Z"/><path class="cls-5" d="M99,40H27a19,19,0,0,1,.16-4H98.85A19.44,19.44,0,0,1,99,40Z"/><path class="cls-6" d="M33,125.76l7.58-31.32a1,1,0,0,1,2,.48L35,126.24A1,1,0,0,1,33,125.76Z"/><path class="cls-6" d="M42.65,86c0-.19-.29,1.08,4.61-19.13a1,1,0,0,1,2,.48L44.67,86.24A1,1,0,0,1,42.65,86Z"/><path class="cls-6" d="M88,105.47l-9.23-38.1a1,1,0,0,1,2-.48L90,105A1,1,0,0,1,88,105.47Z"/><path class="cls-6" d="M42.65,86c0-.19-.29,1.08,4.61-19.13a1,1,0,0,1,2,.48L44.67,86.24A1,1,0,0,1,42.65,86Z"/><path class="cls-6" d="M88,105.47l-9.23-38.1a1,1,0,0,1,2-.48L90,105A1,1,0,0,1,88,105.47Z"/><path class="cls-6" d="M93,126.24l-2-8.17a1,1,0,0,1,2-.48l2,8.17A1,1,0,0,1,93,126.24Z"/><path class="cls-6" d="M54.85,86c0-1.24-.43,4.44,1.46-15.13a1,1,0,0,1,2,.2l-1.46,15A1,1,0,0,1,54.85,86Z"/><path class="cls-6" d="M71.11,86.1,70,75.1a1,1,0,0,1,2-.2l1.07,11A1,1,0,0,1,71.11,86.1Z"/><path class="cls-6" d="M54.85,86c0-1.24-.43,4.44,1.46-15.13a1,1,0,0,1,2,.2l-1.46,15A1,1,0,0,1,54.85,86Z"/><path class="cls-6" d="M71.11,86.1,70,75.1a1,1,0,0,1,2-.2l1.07,11A1,1,0,0,1,71.11,86.1Z"/><path class="cls-7" d="M97.23,39H30.77a20.69,20.69,0,0,0-16.95,8.82A4.57,4.57,0,0,0,17.56,55h92.88a4.57,4.57,0,0,0,3.74-7.18A20.7,20.7,0,0,0,97.23,39Z"/><path class="cls-8" d="M110.44,55H17.56a4.56,4.56,0,0,1-3.81-7.06A4.56,4.56,0,0,0,17.56,50h92.88a4.54,4.54,0,0,0,3.81-2.06A4.56,4.56,0,0,1,110.44,55Z"/><path class="cls-9" d="M94,55a42.19,42.19,0,0,1-6.68,5c-15.07,9.32-31.6,9.32-46.63,0A42,42,0,0,1,34,55Z"/><circle class="cls-7" cx="64" cy="124" r="3"/><path class="cls-7" d="M81,107A24,24,0,0,0,47,107a1,1,0,0,1-1.44-1.44,26.06,26.06,0,0,1,36.8,0A1,1,0,0,1,81,107Z"/><path class="cls-7" d="M70.35,117.65a9,9,0,0,0-12.7,0,1,1,0,0,1-1.44-1.44,11,11,0,0,1,15.58,0A1,1,0,0,1,70.35,117.65Z"/><path class="cls-7" d="M51.26,111.26a18,18,0,0,1,25.48,0,1,1,0,0,1-1.44,1.44,16,16,0,0,0-22.6,0A1,1,0,0,1,51.26,111.26Z"/><path class="cls-10" d="M94,55a42.19,42.19,0,0,1-6.68,5H40.69A42,42,0,0,1,34,55Z"/></g></svg>