<svg xmlns="http://www.w3.org/2000/svg" xmlns:xlink="http://www.w3.org/1999/xlink" viewBox="0 0 64 64"><defs><style>.cls-1{fill:#5b8dc9;}.cls-2{fill:url(#linear-gradient);}.cls-3{fill:url(#linear-gradient-2);}.cls-4{fill:url(#linear-gradient-3);}.cls-5{fill:#dd8b37;}.cls-6{fill:url(#linear-gradient-4);}.cls-7{fill:url(#linear-gradient-5);}</style><linearGradient id="linear-gradient" x1="32" y1="20.84" x2="32" y2="3" gradientUnits="userSpaceOnUse"><stop offset="0" stop-color="#7aa8d7"/><stop offset="1" stop-color="#c3d2e7"/></linearGradient><linearGradient id="linear-gradient-2" y1="59" y2="39" xlink:href="#linear-gradient"/><linearGradient id="linear-gradient-3" x1="32" y1="63" x2="32" y2="5" gradientUnits="userSpaceOnUse"><stop offset="0" stop-color="#e9a254"/><stop offset="1" stop-color="#f4bb79"/></linearGradient><linearGradient id="linear-gradient-4" x1="32" y1="30" x2="32" y2="20" gradientTransform="translate(-8.31 29.95) rotate(-45)" gradientUnits="userSpaceOnUse"><stop offset="0" stop-color="#fbcc88"/><stop offset="1" stop-color="#ffe5c3"/></linearGradient><linearGradient id="linear-gradient-5" y1="59" y2="41" xlink:href="#linear-gradient"/></defs><title>Bag</title><g id="Bag"><path class="cls-1" d="M37.88,6.81c-1.37,0-.58-1.6-2.34-3.34A5,5,0,0,0,27.1,6a1,1,0,0,1-1.17.79c-1.78-.34-.18-3.45,1.13-4.74a7,7,0,0,1,9.89,0C38.45,3.53,39.88,6.81,37.88,6.81Z"/><path class="cls-2" d="M53,5V20.84H11V5a2,2,0,0,1,2-2h6a2,2,0,0,1,2,2V8H43V5a2,2,0,0,1,2-2h6A2,2,0,0,1,53,5Z"/><path class="cls-3" d="M5,39V55a4,4,0,0,0,4,4H55a4,4,0,0,0,4-4V39Z"/><path class="cls-1" d="M59,52v3a4,4,0,0,1-4,4H9a4,4,0,0,1-4-4V52a4,4,0,0,0,4,4H55A4,4,0,0,0,59,52Z"/><path class="cls-1" d="M53,15.52v5.32H11V15.52A23.69,23.69,0,0,1,21,5.67V8H43V5.67A23.69,23.69,0,0,1,53,15.52Z"/><path class="cls-4" d="M48,63H16a7,7,0,0,1-7-7c0-.12,1.18-30.13,1.18-30a21.84,21.84,0,0,1,43.64,0L55,56A7,7,0,0,1,48,63Z"/><path class="cls-5" d="M55,56a7,7,0,0,1-7,7H16a7,7,0,0,1-7-7l.08-2A7,7,0,0,0,16,60H48a7,7,0,0,0,6.92-6Z"/><path class="cls-5" d="M49.18,35l-.35-8.86a16.84,16.84,0,0,0-33.66,0L14.82,35a1,1,0,0,1-2-.08l.35-8.86a18.84,18.84,0,0,1,37.66,0L51.18,35A1,1,0,0,1,49.18,35Z"/><rect class="cls-6" x="28.46" y="21.46" width="7.07" height="7.07" transform="translate(27.05 -15.31) rotate(45)"/><rect class="cls-7" x="17" y="41" width="30" height="18" rx="4"/><path class="cls-1" d="M47,52v3a4,4,0,0,1-4,4H21a4,4,0,0,1-4-4V52a4,4,0,0,0,4,4H43A4,4,0,0,0,47,52Z"/></g></svg>