<svg xmlns="http://www.w3.org/2000/svg" xmlns:xlink="http://www.w3.org/1999/xlink" viewBox="0 0 64 64"><defs><style>.cls-1{fill:#f6b756;}.cls-2{fill:url(#linear-gradient);}.cls-3{fill:url(#linear-gradient-2);}.cls-4{fill:url(#linear-gradient-3);}.cls-5{fill:#4da67f;}.cls-6{fill:url(#linear-gradient-4);}</style><linearGradient id="linear-gradient" x1="10.56" y1="44.2" x2="10.56" y2="37.92" gradientUnits="userSpaceOnUse"><stop offset="0" stop-color="#6ab891"/><stop offset="1" stop-color="#85cba9"/></linearGradient><linearGradient id="linear-gradient-2" x1="35.2" y1="47.19" x2="35.2" y2="1" xlink:href="#linear-gradient"/><linearGradient id="linear-gradient-3" x1="53.45" y1="26.07" x2="53.45" y2="19.8" xlink:href="#linear-gradient"/><linearGradient id="linear-gradient-4" x1="28.81" y1="63" x2="28.81" y2="16.81" xlink:href="#linear-gradient"/></defs><title>Biology</title><g id="Biology"><path class="cls-1" d="M42.34,40c-.59,0,.91,1.33-18.05-17.63A1,1,0,0,1,25.71,21L43.05,38.29A1,1,0,0,1,42.34,40Z"/><path class="cls-1" d="M39,43.34c-.59,0,.91,1.33-18-17.63a1,1,0,0,1,1.42-1.42L39.71,41.63A1,1,0,0,1,39,43.34Z"/><path class="cls-1" d="M33.28,44.28c-.6,0,.44.86-13.27-12.85A1,1,0,0,1,21.43,30L34,42.57A1,1,0,0,1,33.28,44.28Z"/><path class="cls-1" d="M43.28,34.28c-.6,0,.44.86-13.27-12.85A1,1,0,0,1,31.43,20L44,32.57A1,1,0,0,1,43.28,34.28Z"/><path class="cls-1" d="M20.41,60.57c-.58,0,.78,1.2-16.65-16.23a1,1,0,0,1,.66-1.75c.61,0-.77-1.19,16.7,16.27A1,1,0,0,1,20.41,60.57Z"/><path class="cls-1" d="M22.18,55.68c-.59,0,.47.88-13.57-13.15A1,1,0,0,1,10,41.11L22.89,54A1,1,0,0,1,22.18,55.68Z"/><path class="cls-1" d="M59.57,21.41c-.61,0,.57,1-16.69-16.27A1,1,0,0,1,44.3,3.72l16,16A1,1,0,0,1,59.57,21.41Z"/><path class="cls-1" d="M54.68,23.18c-.59,0,.47.88-13.57-13.15a1,1,0,0,1,1.42-1.42L55.39,21.47A1,1,0,0,1,54.68,23.18Z"/><path class="cls-2" d="M20.12,43.89c-.86,0-10.49-4.48-15.69-.3h0c-.23.19-.46.39-.68.61L1,41.46c4.75-4.75,11.23-3.93,17.69-2.06Z"/><path class="cls-3" d="M43.66,43.66c-5.09,5.07-12.16,3.79-19.06,1.65L23.2,40.8a48.46,48.46,0,0,0,10.08,2.48c6.55.53,10.53-3.44,10-10C42.5,23.39,32.87,9.59,41.46,1L44.2,3.74C35.3,12.64,54.77,32.53,43.66,43.66Z"/><path class="cls-4" d="M63,22.54c-4.75,4.75-11.24,3.93-17.69,2.06l-1.42-4.48c5.61,1.73,12.23,3.82,16.37-.32Z"/><path class="cls-5" d="M18.69,39.4l1.43,4.49h0c-2.62-.84-2.29-.58-2.41-1-1.07-3.37-.85-2.65-1.28-4.09C17.18,39,17.93,39.18,18.69,39.4Z"/><path class="cls-5" d="M26.85,46c-.76-.2-1.51-.42-2.25-.65L23.2,40.8c.78.25,1.56.5,2.33.73C26.31,44,26.48,44.62,26.85,46Z"/><path class="cls-6" d="M40.8,23.2c-6-1.94-13.35-4.49-17.72-.12C14.16,32,33.69,51.85,22.54,63L19.8,60.26c8.93-8.93-10.57-28.79.54-39.92,5.11-5.1,12.18-3.76,19.06-1.65Z"/><path class="cls-5" d="M39.4,18.69l1.4,4.51c-.78-.25-1.56-.5-2.33-.73C38,21,37.57,19.6,37.14,18,37.9,18.24,38.65,18.46,39.4,18.69Z"/><path class="cls-5" d="M47.58,25.2c-.76-.18-1.51-.38-2.27-.6l-1.42-4.48c2.64.81,2.29.59,2.41,1C46.33,21.22,47.15,23.75,47.58,25.2Z"/></g></svg>