<svg xmlns="http://www.w3.org/2000/svg" xmlns:xlink="http://www.w3.org/1999/xlink" viewBox="0 0 64 64"><defs><style>.cls-1{fill:url(#linear-gradient);}.cls-2{fill:#42455e;}.cls-3{fill:url(#linear-gradient-2);}.cls-4{fill:#c7cdd8;}.cls-5{fill:url(#linear-gradient-3);}.cls-6{fill:url(#linear-gradient-4);}.cls-7{fill:#cf4055;}.cls-8{fill:url(#linear-gradient-5);}.cls-9{fill:url(#linear-gradient-6);}.cls-10{fill:url(#linear-gradient-7);}.cls-11{fill:url(#linear-gradient-8);}.cls-12{fill:#86b8e0;}.cls-13{fill:#adb3c4;}</style><linearGradient id="linear-gradient" x1="56.98" y1="17.49" x2="63.02" y2="17.49" gradientUnits="userSpaceOnUse"><stop offset="0" stop-color="#949aaf"/><stop offset="1" stop-color="#c6ccda"/></linearGradient><linearGradient id="linear-gradient-2" x1="1" y1="59" x2="49" y2="59" gradientUnits="userSpaceOnUse"><stop offset="0" stop-color="#d4d8e1"/><stop offset="1" stop-color="#f3f4f5"/></linearGradient><linearGradient id="linear-gradient-3" x1="25" y1="59" x2="25" y2="1" gradientUnits="userSpaceOnUse"><stop offset="0" stop-color="#da5466"/><stop offset="1" stop-color="#f4929c"/></linearGradient><linearGradient id="linear-gradient-4" x1="4" y1="59" x2="4" y2="1" gradientUnits="userSpaceOnUse"><stop offset="0" stop-color="#474f72"/><stop offset="1" stop-color="#878c9f"/></linearGradient><linearGradient id="linear-gradient-5" x1="28" y1="26" x2="28" y2="12" xlink:href="#linear-gradient-2"/><linearGradient id="linear-gradient-6" x1="56" y1="17" x2="56" y2="9" xlink:href="#linear-gradient"/><linearGradient id="linear-gradient-7" x1="56" y1="59" x2="56" y2="17" gradientUnits="userSpaceOnUse"><stop offset="0" stop-color="#7aa8d7"/><stop offset="1" stop-color="#c3d2e7"/></linearGradient><linearGradient id="linear-gradient-8" y1="9" y2="3.02" xlink:href="#linear-gradient-7"/></defs><title>Book pen</title><g id="Book_pen" data-name="Book pen"><path class="cls-1" d="M61,24V15.63l-3.73-3.94a1,1,0,0,1,1.46-1.38l4,4.23c.39.41.27.05.27,9.46A1,1,0,0,1,61,24Z"/><path class="cls-2" d="M55,61V59a1,1,0,0,1,2,0v2A1,1,0,0,1,55,61Z"/><path class="cls-3" d="M49,55v8H5a4,4,0,0,1,0-8Z"/><path class="cls-4" d="M49,61v2H5a4,4,0,0,1-3.87-5A4,4,0,0,0,5,61Z"/><path class="cls-5" d="M49,1V55H5a4,4,0,0,0-4,4V5A4,4,0,0,1,5,1Z"/><path class="cls-6" d="M7,1V55H5a4,4,0,0,0-4,4V5A4,4,0,0,1,5,1Z"/><path class="cls-7" d="M49,52v3H5a4,4,0,0,0-4,4V56a4,4,0,0,1,4-4Z"/><path class="cls-2" d="M7,52v3H5a4,4,0,0,0-4,4V56a4,4,0,0,1,4-4Z"/><rect class="cls-8" x="13" y="12" width="30" height="14"/><rect class="cls-4" x="13" y="23" width="30" height="3"/><path class="cls-4" d="M49,57v2H5a1,1,0,0,1,0-2Z"/><path class="cls-7" d="M40,43H16a1,1,0,0,1,0-2H40A1,1,0,0,1,40,43Z"/><path class="cls-7" d="M38,48H18a1,1,0,0,1,0-2H38A1,1,0,0,1,38,48Z"/><rect class="cls-9" x="53" y="9" width="6" height="8"/><polygon class="cls-10" points="59 17 59 53 57 59 55 59 53 53 53 17 59 17"/><path class="cls-11" d="M54,5V9h4V5A2,2,0,0,0,54,5Z"/><rect class="cls-12" x="53" y="17" width="6" height="2"/><rect class="cls-13" x="53" y="9" width="6" height="2"/></g></svg>