<svg xmlns="http://www.w3.org/2000/svg" xmlns:xlink="http://www.w3.org/1999/xlink" viewBox="0 0 64 64"><defs><style>.cls-1{fill:url(#linear-gradient);}.cls-2{fill:url(#linear-gradient-2);}.cls-3{fill:#5b8dc9;}.cls-4{fill:#c7cdd8;}.cls-5{fill:url(#linear-gradient-3);}.cls-6{fill:url(#linear-gradient-4);}.cls-7{fill:url(#linear-gradient-5);}.cls-8{fill:#7ece67;}.cls-9{fill:#cf4055;}.cls-10{fill:#8a6762;}.cls-11{fill:#dfe3ea;}.cls-12{fill:#e8677d;}</style><linearGradient id="linear-gradient" x1="33" y1="55" x2="33" y2="40" gradientUnits="userSpaceOnUse"><stop offset="0" stop-color="#d4d8e1"/><stop offset="1" stop-color="#f3f4f5"/></linearGradient><linearGradient id="linear-gradient-2" x1="32" y1="57" x2="32" y2="37" gradientUnits="userSpaceOnUse"><stop offset="0" stop-color="#7aa8d7"/><stop offset="1" stop-color="#c3d2e7"/></linearGradient><linearGradient id="linear-gradient-3" x1="18" y1="54" x2="18" y2="46" gradientUnits="userSpaceOnUse"><stop offset="0" stop-color="#fbcc88"/><stop offset="1" stop-color="#ffe5c3"/></linearGradient><linearGradient id="linear-gradient-4" x1="32" y1="37" x2="32" y2="13" gradientUnits="userSpaceOnUse"><stop offset="0" stop-color="#da5466"/><stop offset="1" stop-color="#f4929c"/></linearGradient><linearGradient id="linear-gradient-5" x1="37" y1="14" x2="37" y2="8" gradientUnits="userSpaceOnUse"><stop offset="0" stop-color="#8cdd79"/><stop offset="1" stop-color="#d4e6b6"/></linearGradient></defs><title>Book Apple</title><g id="Book_Apple" data-name="Book Apple"><rect class="cls-1" x="4" y="40" width="58" height="15"/><path class="cls-2" d="M21,53H63v4H5a4,4,0,0,1-4-4V41a4,4,0,0,1,4-4H63v4H5V53H15"/><path class="cls-3" d="M63,55v2H5a4,4,0,0,1-4-4V51a4,4,0,0,0,4,4Z"/><path class="cls-4" d="M62,46H9a1,1,0,0,1,0-2H62A1,1,0,0,1,62,46Z"/><polygon class="cls-5" points="21 54 18 53 15 54 15 46 21 46 21 54"/><path class="cls-4" d="M62,50H28a1,1,0,0,1,0-2H62A1,1,0,0,1,62,50Z"/><path class="cls-6" d="M39.19,13.08C43.46,13.69,46,18,46,22.23,46,28.69,40.93,37,36,37c-2.46,0-3.22-.92-4-.92S30.43,37,28,37c-4.91,0-10-8.31-10-14.77C18,17.62,21,13,25.88,13c2.44,0,4.48.92,6.12.92Z"/><path class="cls-7" d="M36,14H32a6,6,0,0,1,6-6h4A6,6,0,0,1,36,14Z"/><path class="cls-8" d="M42,8a6,6,0,0,1-6,6H32a5.8,5.8,0,0,1,.35-2c3.34,0,5.75.4,7.89-1.76A5.77,5.77,0,0,0,41.65,8Z"/><path class="cls-9" d="M44.52,28.87C42.67,33.27,39.31,37,36,37c-2.46,0-3.22-.92-4-.92S30.43,37,28,37c-3.29,0-6.65-3.73-8.5-8.13C25.37,37,30.75,33.08,32,33.08S38.68,36.94,44.52,28.87Z"/><path class="cls-10" d="M31,18V12c0-3.95-2.88-4-3-4a1,1,0,0,1,0-2c1.73,0,5,1.25,5,6v6A1,1,0,0,1,31,18Z"/><rect class="cls-11" x="5" y="41" width="57" height="2"/><path class="cls-12" d="M32.14,19c-1.58,0-4.91-1-4-2.51a1,1,0,0,1,1.37-.33c1.84,1.12,3.39,1.14,4.89,0a1,1,0,0,1,1.18,1.62A5.76,5.76,0,0,1,32.14,19Z"/></g></svg>