<svg xmlns="http://www.w3.org/2000/svg" xmlns:xlink="http://www.w3.org/1999/xlink" viewBox="0 0 64 64"><defs><style>.cls-1{fill:url(#linear-gradient);}.cls-2{fill:url(#linear-gradient-2);}.cls-3{fill:#c7cdd8;}.cls-4{fill:url(#linear-gradient-3);}.cls-5{fill:url(#linear-gradient-4);}.cls-6{fill:#dfe3ea;}.cls-7{fill:url(#linear-gradient-5);}.cls-8{fill:url(#linear-gradient-6);}.cls-9{fill:#eab39b;}.cls-10{fill:url(#linear-gradient-7);}.cls-11{fill:#fcd2c3;}.cls-12{fill:#e8677d;}.cls-13{fill:url(#linear-gradient-8);}.cls-14{fill:url(#linear-gradient-9);}.cls-15{fill:url(#linear-gradient-10);}.cls-16{fill:#8a6762;}.cls-17{fill:url(#linear-gradient-11);}.cls-18{fill:#42455e;}</style><linearGradient id="linear-gradient" x1="32" y1="40" x2="32" y2="35.31" gradientUnits="userSpaceOnUse"><stop offset="0" stop-color="#f2c4b0"/><stop offset="1" stop-color="#ffe3d7"/></linearGradient><linearGradient id="linear-gradient-2" x1="32" y1="63" x2="32" y2="45.23" gradientUnits="userSpaceOnUse"><stop offset="0" stop-color="#d4d8e1"/><stop offset="1" stop-color="#f3f4f5"/></linearGradient><linearGradient id="linear-gradient-3" x1="14" y1="51.5" x2="32" y2="51.5" gradientUnits="userSpaceOnUse"><stop offset="0" stop-color="#da5466"/><stop offset="1" stop-color="#f4929c"/></linearGradient><linearGradient id="linear-gradient-4" x1="32" x2="50" xlink:href="#linear-gradient-3"/><linearGradient id="linear-gradient-5" x1="16" y1="63" x2="16" y2="54" xlink:href="#linear-gradient"/><linearGradient id="linear-gradient-6" x1="48" y1="63" x2="48" y2="54" xlink:href="#linear-gradient"/><linearGradient id="linear-gradient-7" y1="36" y2="10.19" xlink:href="#linear-gradient"/><linearGradient id="linear-gradient-8" x1="46" y1="25" x2="46" y2="19" xlink:href="#linear-gradient"/><linearGradient id="linear-gradient-9" x1="18" y1="25" x2="18" y2="19" xlink:href="#linear-gradient"/><linearGradient id="linear-gradient-10" x1="32" y1="20" x2="32" y2="0.96" gradientUnits="userSpaceOnUse"><stop offset="0" stop-color="#9b756d"/><stop offset="1" stop-color="#bc9388"/></linearGradient><linearGradient id="linear-gradient-11" x1="19.99" y1="20" x2="19.99" y2="19.96" gradientUnits="userSpaceOnUse"><stop offset="0" stop-color="#474f72"/><stop offset="1" stop-color="#878c9f"/></linearGradient></defs><title>Boy Study</title><g id="Boy_Study" data-name="Boy Study"><path class="cls-1" d="M36,35.31V40H28V35.31A11.94,11.94,0,0,0,36,35.31Z"/><path class="cls-2" d="M56,63H8c1.4-8.39,1.5-12.81,6-17.77H50C54.57,50.27,54.67,55,56,63Z"/><polygon class="cls-3" points="56 63 8 63 8.5 60 55.5 60 56 63"/><path class="cls-4" d="M16,63H32V40H14V54.18"/><polyline class="cls-5" points="47 63 32 63 32 40 50 40 50 54.54"/><rect class="cls-6" x="36" y="45" width="10" height="5"/><path class="cls-7" d="M12,63V58a4,4,0,0,1,8,0v2a3,3,0,0,1-3,3Z"/><path class="cls-8" d="M52,63V58a4,4,0,0,0-8,0v2a3,3,0,0,0,3,3Z"/><path class="cls-9" d="M20,58v2a3,3,0,0,1-3,3H12V61h5A3,3,0,0,0,20,58Z"/><path class="cls-9" d="M52,61v2H47a3,3,0,0,1-3-3V58a3,3,0,0,0,3,3Z"/><path class="cls-10" d="M44,10.19V24a12,12,0,0,1-23.95,1.06c-.07-.82-.05.2-.05-14.87Z"/><path class="cls-11" d="M36,35.31v2a11.94,11.94,0,0,1-8,0v-2A11.94,11.94,0,0,0,36,35.31Z"/><path class="cls-12" d="M29.17,29.41a1,1,0,0,1,1.42,0,2,2,0,0,0,2.82,0,1,1,0,0,1,1.42,1.42C32.14,33.51,27.68,30.91,29.17,29.41Z"/><path class="cls-13" d="M45,25H44V19h1a3,3,0,0,1,0,6Z"/><path class="cls-14" d="M19,19h1v6H19a3,3,0,0,1,0-6Z"/><path class="cls-11" d="M44,10.19V20.41S42,15,39.6,13.56c-3.72,1.91-7.38,1.5-15.28,1.44A40.82,40.82,0,0,0,20,20V10.19Z"/><path class="cls-15" d="M44,20c-.55-3.31-1-6-4-9-4,2.64-6.79,2-17,2-2.46,5.75-2.94,6.78-3,7a33.13,33.13,0,0,1-1-8.08A10.88,10.88,0,0,1,29.88,1C34.81,1,37.49.49,40,3a6.21,6.21,0,0,1,5,6.1A38.78,38.78,0,0,1,44,20Z"/><path class="cls-16" d="M44,20c-.55-3.31-1-6-4-9-4,2.64-6.79,2-17,2-2.46,5.75-2.94,6.78-3,7-.23-.92.57-4.9,2.05-8.36A1,1,0,0,1,23,11c9.89,0,13.12.53,17-1.61C42.25,8.12,44.5,18,44,20Z"/><path class="cls-17" d="M20,20s0,0,0,0S20,20,20,20Z"/><path class="cls-18" d="M25,21V20a1,1,0,0,1,2,0v1A1,1,0,0,1,25,21Z"/><path class="cls-18" d="M37,21V20a1,1,0,0,1,2,0v1A1,1,0,0,1,37,21Z"/></g></svg>