<svg xmlns="http://www.w3.org/2000/svg" xmlns:xlink="http://www.w3.org/1999/xlink" viewBox="0 0 64 64"><defs><style>.cls-1{fill:url(#linear-gradient);}.cls-2{fill:#c7cdd8;}.cls-3{fill:url(#linear-gradient-2);}.cls-4{fill:url(#linear-gradient-3);}.cls-5{fill:#fcd2c3;}.cls-6{fill:url(#linear-gradient-4);}.cls-7{fill:url(#linear-gradient-5);}.cls-8{fill:url(#linear-gradient-6);}.cls-9{fill:url(#linear-gradient-7);}.cls-10{fill:#e8677d;}.cls-11{fill:url(#linear-gradient-8);}.cls-12{fill:url(#linear-gradient-9);}.cls-13{fill:url(#linear-gradient-10);}.cls-14{fill:#8a6762;}.cls-15{fill:url(#linear-gradient-11);}.cls-16{fill:#42455e;}.cls-17{fill:url(#linear-gradient-12);}.cls-18{fill:url(#linear-gradient-13);}.cls-19{fill:#5b8dc9;}.cls-20{fill:#cf4055;}</style><linearGradient id="linear-gradient" x1="32" y1="63" x2="32" y2="38.98" gradientUnits="userSpaceOnUse"><stop offset="0" stop-color="#d4d8e1"/><stop offset="1" stop-color="#f3f4f5"/></linearGradient><linearGradient id="linear-gradient-2" x1="32" y1="36" x2="32" y2="10.19" gradientUnits="userSpaceOnUse"><stop offset="0" stop-color="#f2c4b0"/><stop offset="1" stop-color="#ffe3d7"/></linearGradient><linearGradient id="linear-gradient-3" x1="32" y1="43" x2="32" y2="35.31" xlink:href="#linear-gradient-2"/><linearGradient id="linear-gradient-4" x1="28.04" y1="46.83" x2="28.04" y2="39" xlink:href="#linear-gradient"/><linearGradient id="linear-gradient-5" x1="35.97" y1="46.83" x2="35.97" y2="39" xlink:href="#linear-gradient"/><linearGradient id="linear-gradient-6" x1="32" y1="49" x2="32" y2="43" gradientUnits="userSpaceOnUse"><stop offset="0" stop-color="#da5466"/><stop offset="1" stop-color="#f4929c"/></linearGradient><linearGradient id="linear-gradient-7" x1="32" y1="63" x2="32" y2="49.01" xlink:href="#linear-gradient-6"/><linearGradient id="linear-gradient-8" x1="46" y1="25" x2="46" y2="19" xlink:href="#linear-gradient-2"/><linearGradient id="linear-gradient-9" x1="18" y1="25" x2="18" y2="19" xlink:href="#linear-gradient-2"/><linearGradient id="linear-gradient-10" x1="32" y1="20" x2="32" y2="0.96" gradientUnits="userSpaceOnUse"><stop offset="0" stop-color="#9b756d"/><stop offset="1" stop-color="#bc9388"/></linearGradient><linearGradient id="linear-gradient-11" x1="19.99" y1="20" x2="19.99" y2="19.96" gradientUnits="userSpaceOnUse"><stop offset="0" stop-color="#474f72"/><stop offset="1" stop-color="#878c9f"/></linearGradient><linearGradient id="linear-gradient-12" x1="21" y1="63" x2="21" y2="39" gradientUnits="userSpaceOnUse"><stop offset="0" stop-color="#7aa8d7"/><stop offset="1" stop-color="#c3d2e7"/></linearGradient><linearGradient id="linear-gradient-13" x1="43" x2="43" xlink:href="#linear-gradient-12"/></defs><title>Boy Student</title><g id="Boy_Student" data-name="Boy Student"><path class="cls-1" d="M56,63H8c.47-2.84.9-5.37,1.37-8.22A18.9,18.9,0,0,1,18,41.87C26.11,38.57,23.07,39,36,39a19.74,19.74,0,0,1,4,.43l6,2.44a18.9,18.9,0,0,1,8.63,12.91C55.1,57.63,55.53,60.15,56,63Z"/><polygon class="cls-2" points="56 63 8 63 8.5 60 55.5 60 56 63"/><path class="cls-3" d="M44,10.19V24a12,12,0,0,1-23.95,1.06c-.07-.82-.05.2-.05-14.87Z"/><path class="cls-4" d="M36,35.31V39l-4,4-4-4V35.31A11.94,11.94,0,0,0,36,35.31Z"/><path class="cls-5" d="M36,35.31v2a11.94,11.94,0,0,1-8,0v-2A11.94,11.94,0,0,0,36,35.31Z"/><path class="cls-6" d="M28,39l4,4-6.7,3.83-1.23-7.42Z"/><path class="cls-7" d="M36,39l-4,4,6.7,3.83,1.23-7.42Z"/><path class="cls-8" d="M35.36,44.92l-.73,2.18A2.77,2.77,0,0,1,32,49c-2.34,0-2.7-2.11-3.36-4.08L32,43Z"/><path class="cls-9" d="M35.75,63h-7.5c.47-3.82.22-1.78,1.5-12a2.27,2.27,0,0,1,4.5,0C35.5,61,35.27,59.12,35.75,63Z"/><path class="cls-10" d="M29.17,29.41a1,1,0,0,1,1.42,0,2,2,0,0,0,2.82,0,1,1,0,0,1,1.42,1.42C32.14,33.51,27.68,30.91,29.17,29.41Z"/><path class="cls-11" d="M45,25H44V19h1a3,3,0,0,1,0,6Z"/><path class="cls-12" d="M19,19h1v6H19a3,3,0,0,1,0-6Z"/><path class="cls-5" d="M44,10.19V20.41S42,15,39.6,13.56c-3.72,1.91-7.38,1.5-15.28,1.44A40.82,40.82,0,0,0,20,20V10.19Z"/><path class="cls-13" d="M44,20c-.55-3.31-1-6-4-9-4,2.64-6.79,2-17,2-2.46,5.75-2.94,6.78-3,7a33.13,33.13,0,0,1-1-8.08A10.88,10.88,0,0,1,29.88,1C34.81,1,37.49.49,40,3a6.21,6.21,0,0,1,5,6.1A38.78,38.78,0,0,1,44,20Z"/><path class="cls-14" d="M44,20c-.55-3.31-1-6-4-9-4,2.64-6.79,2-17,2-2.46,5.75-2.94,6.78-3,7-.23-.92.57-4.9,2.05-8.36A1,1,0,0,1,23,11c9.89,0,13.12.53,17-1.61C42.25,8.12,44.5,18,44,20Z"/><path class="cls-15" d="M20,20s0,0,0,0S20,20,20,20Z"/><path class="cls-16" d="M25,21V20a1,1,0,0,1,2,0v1A1,1,0,0,1,25,21Z"/><path class="cls-16" d="M37,21V20a1,1,0,0,1,2,0v1A1,1,0,0,1,37,21Z"/><path class="cls-17" d="M24,39V63H18V42a3,3,0,0,1,3-3Z"/><path class="cls-18" d="M46,42V63H40V39h3A3,3,0,0,1,46,42Z"/><rect class="cls-19" x="18" y="60" width="6" height="3"/><polygon class="cls-20" points="35.38 60 35.75 63 28.25 63 28.62 60 35.38 60"/><rect class="cls-19" x="40" y="60" width="6" height="3"/></g></svg>