<svg xmlns="http://www.w3.org/2000/svg" xmlns:xlink="http://www.w3.org/1999/xlink" viewBox="0 0 64 64"><defs><style>.cls-1{fill:url(#linear-gradient);}.cls-2{fill:#42455e;}.cls-3{fill:url(#linear-gradient-2);}.cls-4{fill:#5b8dc9;}.cls-5{fill:url(#linear-gradient-3);}.cls-6{fill:url(#linear-gradient-4);}.cls-7{fill:url(#linear-gradient-5);}.cls-8{fill:#dd8b37;}.cls-9{fill:url(#linear-gradient-7);}.cls-10{fill:url(#linear-gradient-8);}.cls-11{fill:#fcd2c3;}.cls-12{fill:#e8677d;}.cls-13{fill:url(#linear-gradient-9);}.cls-14{fill:url(#linear-gradient-10);}.cls-15{fill:url(#linear-gradient-11);}.cls-16{fill:#8a6762;}.cls-17{fill:url(#linear-gradient-12);}.cls-18{fill:url(#linear-gradient-13);}.cls-19{fill:url(#linear-gradient-14);}</style><linearGradient id="linear-gradient" x1="32" y1="63" x2="32" y2="43.27" gradientUnits="userSpaceOnUse"><stop offset="0" stop-color="#474f72"/><stop offset="1" stop-color="#878c9f"/></linearGradient><linearGradient id="linear-gradient-2" x1="32" y1="55.99" x2="32" y2="42" gradientUnits="userSpaceOnUse"><stop offset="0" stop-color="#7aa8d7"/><stop offset="1" stop-color="#c3d2e7"/></linearGradient><linearGradient id="linear-gradient-3" x1="37.27" y1="56.31" x2="37.27" y2="40.99" gradientUnits="userSpaceOnUse"><stop offset="0" stop-color="#da5466"/><stop offset="1" stop-color="#f4929c"/></linearGradient><linearGradient id="linear-gradient-4" x1="26.73" y1="56.31" x2="26.73" y2="40.99" xlink:href="#linear-gradient-3"/><linearGradient id="linear-gradient-5" x1="32" y1="63" x2="32" y2="55" gradientUnits="userSpaceOnUse"><stop offset="0" stop-color="#e9a254"/><stop offset="1" stop-color="#f4bb79"/></linearGradient><linearGradient id="linear-gradient-7" x1="32" y1="43.66" x2="32" y2="38.31" gradientUnits="userSpaceOnUse"><stop offset="0" stop-color="#f2c4b0"/><stop offset="1" stop-color="#ffe3d7"/></linearGradient><linearGradient id="linear-gradient-8" y1="39" y2="13.19" xlink:href="#linear-gradient-7"/><linearGradient id="linear-gradient-9" x1="46" y1="28" x2="46" y2="22" xlink:href="#linear-gradient-7"/><linearGradient id="linear-gradient-10" x1="18" y1="28" x2="18" y2="22" xlink:href="#linear-gradient-7"/><linearGradient id="linear-gradient-11" x1="32" y1="23" x2="32" y2="3.96" gradientUnits="userSpaceOnUse"><stop offset="0" stop-color="#9b756d"/><stop offset="1" stop-color="#bc9388"/></linearGradient><linearGradient id="linear-gradient-12" x1="19.99" y1="23" x2="19.99" y2="22.96" xlink:href="#linear-gradient"/><linearGradient id="linear-gradient-13" y1="11" y2="1" xlink:href="#linear-gradient"/><linearGradient id="linear-gradient-14" x1="48" y1="10.5" x2="50" y2="10.5" xlink:href="#linear-gradient-5"/></defs><title>Boy Graduation</title><g id="Boy_Graduation" data-name="Boy Graduation"><path class="cls-1" d="M56,63H8c1.41-8.48,1.5-14.39,8.06-19.73H47.94C54.51,48.62,54.63,54.76,56,63Z"/><polygon class="cls-2" points="56 63 8 63 8.5 60 55.5 60 56 63"/><path class="cls-3" d="M48,42A14,14,0,0,1,34.62,56H29.37A14,14,0,0,1,16,42Z"/><path class="cls-4" d="M48,42a14.07,14.07,0,0,1-4.1,9.9C39.17,56.61,34.17,56,29.37,56A14,14,0,0,1,16,42c.4,0-.13-.12.69,2.33A14,14,0,0,0,29.37,54h5.25a14,14,0,0,0,12.69-9.65C48.12,41.89,47.6,42,48,42Z"/><path class="cls-5" d="M33.52,56.31a1,1,0,0,1-.87-1.49l7.48-13.31a1,1,0,0,1,1.74,1C33.84,56.78,34.35,56.31,33.52,56.31Z"/><path class="cls-6" d="M30.48,56.31c-.84,0-.32.47-8.35-13.82a1,1,0,0,1,1.74-1l7.48,13.31A1,1,0,0,1,30.48,56.31Z"/><circle class="cls-7" cx="32" cy="59" r="4"/><circle class="cls-7" cx="32" cy="59" r="4"/><path class="cls-8" d="M32,63a4,4,0,0,1-3.87-5,4,4,0,0,0,7.74,0A4,4,0,0,1,32,63Z"/><path class="cls-9" d="M36,38.31V42a5.66,5.66,0,0,1-8,0V38.31A11.94,11.94,0,0,0,36,38.31Z"/><path class="cls-10" d="M44,13.19V27a12,12,0,0,1-23.95,1.06c-.07-.82-.05.2-.05-14.87Z"/><path class="cls-11" d="M36,38.31v2a11.94,11.94,0,0,1-8,0v-2A11.94,11.94,0,0,0,36,38.31Z"/><path class="cls-12" d="M29.17,32.41a1,1,0,0,1,1.42,0,2,2,0,0,0,2.82,0,1,1,0,0,1,1.42,1.42C32.14,36.51,27.68,33.91,29.17,32.41Z"/><path class="cls-13" d="M45,28H44V22h1a3,3,0,0,1,0,6Z"/><path class="cls-14" d="M19,22h1v6H19a3,3,0,0,1,0-6Z"/><path class="cls-11" d="M44,13.19V23.41S42,18,39.6,16.56c-3.72,1.91-7.38,1.5-15.28,1.44A40.82,40.82,0,0,0,20,23V13.19Z"/><path class="cls-15" d="M44,23c-.55-3.31-1-6-4-9-4,2.64-6.79,2-17,2-2.46,5.75-2.94,6.78-3,7a33.13,33.13,0,0,1-1-8.08A10.88,10.88,0,0,1,29.88,4C34.81,4,37.49,3.49,40,6a6.21,6.21,0,0,1,5,6.1A38.78,38.78,0,0,1,44,23Z"/><path class="cls-16" d="M44,23c-.55-3.31-1-6-4-9-4,2.64-6.79,2-17,2-2.46,5.75-2.94,6.78-3,7-.23-.92.57-4.9,2.05-8.36A1,1,0,0,1,23,14c9.89,0,13.12.53,17-1.61C42.25,11.12,44.5,21,44,23Z"/><path class="cls-17" d="M20,23s0,0,0,0S20,23,20,23Z"/><path class="cls-2" d="M25,24V23a1,1,0,0,1,2,0v1A1,1,0,0,1,25,24Z"/><path class="cls-2" d="M37,24V23a1,1,0,0,1,2,0v1A1,1,0,0,1,37,24Z"/><rect class="cls-18" x="19" y="1" width="26" height="10"/><path class="cls-2" d="M53,3H11a1,1,0,0,1,0-2H53A1,1,0,0,1,53,3Z"/><path class="cls-19" d="M48,19V2a1,1,0,0,1,2,0V19A1,1,0,0,1,48,19Z"/><rect class="cls-2" x="19" y="9" width="26" height="2"/></g></svg>