<svg xmlns="http://www.w3.org/2000/svg" xmlns:xlink="http://www.w3.org/1999/xlink" viewBox="0 0 64 64"><defs><style>.cls-1{fill:url(#linear-gradient);}.cls-2{fill:#c7cdd8;}.cls-3{fill:url(#linear-gradient-2);}.cls-4{fill:#cf4055;}.cls-5{fill:#f6b756;}.cls-6{fill:#7ece67;}.cls-7{fill:url(#linear-gradient-3);}.cls-8{fill:#4da67f;}.cls-9{fill:url(#linear-gradient-4);}.cls-10{fill:#8a6762;}.cls-11{fill:url(#linear-gradient-6);}.cls-12{fill:#fff2e3;}</style><linearGradient id="linear-gradient" x1="32" y1="52" x2="32" y2="1" gradientUnits="userSpaceOnUse"><stop offset="0" stop-color="#d4d8e1"/><stop offset="1" stop-color="#f3f4f5"/></linearGradient><linearGradient id="linear-gradient-2" x1="32" y1="9" x2="32" y2="1" gradientUnits="userSpaceOnUse"><stop offset="0" stop-color="#a0a6ba"/><stop offset="1" stop-color="#c6ccda"/></linearGradient><linearGradient id="linear-gradient-3" x1="31.99" y1="63" x2="31.99" y2="29" gradientUnits="userSpaceOnUse"><stop offset="0" stop-color="#6ab891"/><stop offset="1" stop-color="#85cba9"/></linearGradient><linearGradient id="linear-gradient-4" x1="32" y1="25" x2="32" y2="15" xlink:href="#linear-gradient-3"/><linearGradient id="linear-gradient-6" x1="32" y1="58" x2="32" y2="36" gradientUnits="userSpaceOnUse"><stop offset="0" stop-color="#e9a254"/><stop offset="1" stop-color="#f4bb79"/></linearGradient></defs><title>Budget</title><g id="Budget"><path class="cls-1" d="M63,52V1H1V52Z"/><path class="cls-2" d="M63,52V50H1v2Z"/><rect class="cls-3" x="1" y="1" width="62" height="8"/><path class="cls-4" d="M7,5A1,1,0,0,1,5,5,1,1,0,0,1,7,5Z"/><path class="cls-5" d="M12,5a1,1,0,0,1-2,0A1,1,0,0,1,12,5Z"/><path class="cls-6" d="M17,5a1,1,0,0,1-2,0A1,1,0,0,1,17,5Z"/><path class="cls-7" d="M37,29H27L12.72,42.48C4.86,49.91,10.24,63,20.88,63H43.12a11.9,11.9,0,0,0,8.16-20.52Z"/><path class="cls-8" d="M43.12,63H20.88A11.88,11.88,0,0,1,9.1,49.62,11.87,11.87,0,0,0,20.88,60H43.12A11.88,11.88,0,0,0,54.9,49.62,11.88,11.88,0,0,1,43.12,63Z"/><polygon class="cls-9" points="37 25 27 25 24 15 40 15 37 25"/><path class="cls-9" d="M40,15c-2.17,7.24-1.73,5.78-3,10H27c-1.28-4.26-.82-2.75-3-10Z"/><polygon class="cls-8" points="37.9 22 37 25 27 25 26.1 22 37.9 22"/><path class="cls-10" d="M37,29H27a2,2,0,0,1,0-4H37A2,2,0,0,1,37,29Z"/><path class="cls-11" d="M40.6,44.34l1.93-1.11-2-3.46-1.94,1.12A9,9,0,0,0,34,38.23V36H30v2.23a9,9,0,0,0-4.59,2.66l-1.94-1.12-2,3.46,1.93,1.11a9.1,9.1,0,0,0,0,5.32l-1.93,1.11,2,3.46,1.94-1.12A9,9,0,0,0,30,55.77V58h4V55.77a9,9,0,0,0,4.59-2.66l1.94,1.12,2-3.46L40.6,49.66A9.1,9.1,0,0,0,40.6,44.34Z"/><path class="cls-12" d="M32.5,46h-1a.5.5,0,0,1,0-1H34a1,1,0,0,0,0-2H33V42a1,1,0,0,0-2,0v1a2.5,2.5,0,0,0,.5,5h1a.5.5,0,0,1,0,1H30a1,1,0,0,0,0,2h1v1a1,1,0,0,0,2,0V51A2.5,2.5,0,0,0,32.5,46Z"/></g></svg>