<svg xmlns="http://www.w3.org/2000/svg" viewBox="0 0 128 128"><defs><style>.cls-1{fill:#dde1e8;}.cls-2{fill:#c7cdd8;}.cls-3{fill:#8288a1;}.cls-4{fill:#7aa8d7;}</style></defs><title>Can Not Reach the Connection</title><g id="Can_Not_Reach_the_Connection" data-name="Can Not Reach the Connection"><path class="cls-1" d="M110,127a17,17,0,0,0,0-34h-3.52c6.39-14.25-8.1-28.59-22-22.68A33,33,0,0,0,21,83.08,22,22,0,0,0,23,127Z"/><path class="cls-2" d="M110,127H23A22,22,0,0,1,1.28,101.55,22,22,0,0,0,23,120h87a17,17,0,0,0,16.64-13.54A17,17,0,0,1,110,127Z"/><path class="cls-3" d="M40,103c-8.13,0-10.81-10-8-10a1,1,0,0,1,1,1,7,7,0,1,0,14,0,1,1,0,0,1,1-1C50.8,93,48.14,103,40,103Z"/><path class="cls-3" d="M88,103c-8.13,0-10.81-10-8-10a1,1,0,0,1,1,1,7,7,0,0,0,14,0,1,1,0,0,1,1-1C98.8,93,96.14,103,88,103Z"/><path class="cls-3" d="M70,117H58a1,1,0,0,1,0-2H70A1,1,0,0,1,70,117Z"/><path class="cls-4" d="M86,53c-12.69,0-12.51.24-12.91-.56S72.4,52.44,84,37H74a1,1,0,0,1,0-2H86a1,1,0,0,1,.82,1.63L76,51H86A1,1,0,0,1,86,53Z"/><path class="cls-4" d="M106,35c-12.69,0-12.51.24-12.91-.56S92.4,34.44,104,19H94a1,1,0,0,1,0-2h12a1,1,0,0,1,.82,1.63L96,33h10A1,1,0,0,1,106,35Z"/><path class="cls-4" d="M126,19c-12.69,0-12.51.24-12.91-.56S112.4,18.44,124,3H114a1,1,0,0,1,0-2h12a1,1,0,0,1,.82,1.63L116,17h10A1,1,0,0,1,126,19Z"/></g></svg>