<svg xmlns="http://www.w3.org/2000/svg" viewBox="0 0 128 128"><defs><style>.cls-1{fill:#9dd5df;}.cls-2{fill:#77cacb;}.cls-3{fill:#e2607f;}.cls-4{fill:#dd4e6a;}.cls-5{fill:#fff;}.cls-6{fill:#7aa8d7;}.cls-7{fill:#5b8dc9;}.cls-8{fill:#dde1e8;}.cls-9{fill:#c7cdd8;}</style></defs><title>Cart or List Is Empty</title><g id="Cart_or_List_Is_Empty" data-name="Cart or List Is Empty"><path class="cls-1" d="M120.89,66l-11.46,57.32a4.57,4.57,0,0,1-4.49,3.68H23.06a4.58,4.58,0,0,1-4.5-3.68L7.11,66Z"/><path class="cls-2" d="M63,111V81a1,1,0,0,1,2,0v30A1,1,0,0,1,63,111Z"/><circle class="cls-3" cx="64" cy="24" r="23"/><path class="cls-4" d="M64,47A23,23,0,0,1,41.09,22a23,23,0,0,0,45.82,0A23,23,0,0,1,64,47Z"/><path class="cls-5" d="M65.44,24l9.28-9.28a1,1,0,0,0-1.44-1.44L64,22.56l-9.28-9.28a1,1,0,0,0-1.44,1.44L62.56,24l-9.28,9.28a1,1,0,0,0,1.44,1.44L64,25.44l9.28,9.28a1,1,0,0,0,1.44-1.44Z"/><path class="cls-2" d="M88,110.87l4-30a1,1,0,0,1,2,.26l-4,30A1,1,0,0,1,88,110.87Z"/><path class="cls-2" d="M38.28,111.13l-4-30a1,1,0,0,1,2-.26l4,30A1,1,0,0,1,38.28,111.13Z"/><path class="cls-2" d="M105.94,122H22.06a4.57,4.57,0,0,1-4.49-3.66l1,5a4.58,4.58,0,0,0,4.5,3.68h81.88a4.57,4.57,0,0,0,4.49-3.68l1-5A4.58,4.58,0,0,1,105.94,122Z"/><rect class="cls-6" x="1" y="52" width="126" height="14" rx="2.29"/><path class="cls-7" d="M127,59.71v4A2.3,2.3,0,0,1,124.71,66H3.29A2.3,2.3,0,0,1,1,63.71v-4A2.3,2.3,0,0,0,3.29,62H124.71A2.3,2.3,0,0,0,127,59.71Z"/><path class="cls-8" d="M38.36,60.59a4,4,0,0,1-5.48-1.47L10.54,19.45a4,4,0,1,1,6.94-4L39.83,55.11A4,4,0,0,1,38.36,60.59Z"/><path class="cls-9" d="M40.34,57.6a4,4,0,0,1-7.46,1.52L10.54,19.45A4,4,0,0,1,12,14a4.76,4.76,0,0,0,.54,2.47L34.88,56.12A4,4,0,0,0,40.34,57.6Z"/><path class="cls-8" d="M88.64,60.59a4,4,0,0,0,5.48-1.47l22.34-39.67a4,4,0,1,0-6.94-4L87.17,55.11A4,4,0,0,0,88.64,60.59Z"/><path class="cls-9" d="M116.46,19.45,94.12,59.12A4,4,0,0,1,87,58.77a4,4,0,0,0,5.12-1.65l22.34-39.67a3.94,3.94,0,0,0,.17-3.65A4,4,0,0,1,116.46,19.45Z"/></g></svg>