<svg xmlns="http://www.w3.org/2000/svg" xmlns:xlink="http://www.w3.org/1999/xlink" viewBox="0 0 64 64"><defs><style>.cls-1{fill:url(#linear-gradient);}.cls-2{fill:#5b8dc9;}.cls-3{fill:url(#linear-gradient-2);}.cls-4{fill:#c7cdd8;}.cls-5{fill:#9ca0ad;}.cls-6{fill:url(#linear-gradient-3);}.cls-7{fill:#cf4055;}.cls-8{fill:url(#linear-gradient-4);}.cls-9{fill:#f6b756;}</style><linearGradient id="linear-gradient" x1="32" y1="54" x2="32" y2="6" gradientUnits="userSpaceOnUse"><stop offset="0" stop-color="#7aa8d7"/><stop offset="1" stop-color="#c3d2e7"/></linearGradient><linearGradient id="linear-gradient-2" x1="32" y1="50" x2="32" y2="10" gradientUnits="userSpaceOnUse"><stop offset="0" stop-color="#d4d8e1"/><stop offset="1" stop-color="#f3f4f5"/></linearGradient><linearGradient id="linear-gradient-3" x1="32" y1="58" x2="32" y2="49.19" gradientUnits="userSpaceOnUse"><stop offset="0" stop-color="#da5466"/><stop offset="1" stop-color="#f4929c"/></linearGradient><linearGradient id="linear-gradient-4" x1="32" y1="50" x2="32" y2="38" gradientUnits="userSpaceOnUse"><stop offset="0" stop-color="#fbcc88"/><stop offset="1" stop-color="#ffe5c3"/></linearGradient></defs><title>Certificate</title><g id="Certificate"><polyline class="cls-1" points="35 54 63 54 63 6 1 6 1 54 29 54"/><polyline class="cls-2" points="35 54 63 54 63 52 1 52 1 54 29 54"/><path class="cls-3" d="M29,50H9a4,4,0,0,0-4-4V14a4,4,0,0,0,4-4H55a4,4,0,0,0,4,4V46a4,4,0,0,0-4,4H35"/><path class="cls-4" d="M57,44a4,4,0,0,0-4,4H11a4,4,0,0,0-4-4H5v2a4,4,0,0,1,4,4H55a4,4,0,0,1,4-4V44Z"/><rect class="cls-4" x="15" y="16" width="34" height="6"/><path class="cls-5" d="M49,29H15a1,1,0,0,1,0-2H49A1,1,0,0,1,49,29Z"/><path class="cls-5" d="M49,34H15a1,1,0,0,1,0-2H49A1,1,0,0,1,49,34Z"/><path class="cls-6" d="M29,49.19V58l3-2,3,2V49.19"/><polygon class="cls-7" points="35 55.81 35 58 32 56 29 58 29 55.81 32 53.81 35 55.81"/><path class="cls-5" d="M21,44H15a1,1,0,0,1,0-2h6A1,1,0,0,1,21,44Z"/><path class="cls-5" d="M49,44H43a1,1,0,0,1,0-2h6A1,1,0,0,1,49,44Z"/><circle class="cls-8" cx="32" cy="44" r="6"/><path class="cls-9" d="M32,50a6,6,0,0,1-5.91-7c1.1,6.64,10.72,6.63,11.82,0A6,6,0,0,1,32,50Z"/></g></svg>