<svg xmlns="http://www.w3.org/2000/svg" xmlns:xlink="http://www.w3.org/1999/xlink" viewBox="0 0 64 64"><defs><style>.cls-1{fill:url(#linear-gradient);}.cls-2{fill:url(#linear-gradient-2);}.cls-3{fill:#aae0e5;}.cls-4{fill:#77cacb;}.cls-5{fill:#7ece67;}.cls-6{fill:url(#linear-gradient-3);}.cls-7{fill:url(#linear-gradient-4);}.cls-8{fill:#cf4055;}.cls-9{fill:url(#linear-gradient-5);}.cls-10{fill:#d7f1ff;}.cls-11{fill:url(#linear-gradient-6);}</style><linearGradient id="linear-gradient" x1="47.92" y1="63.04" x2="47.92" y2="5" gradientUnits="userSpaceOnUse"><stop offset="0" stop-color="#9dd5df"/><stop offset="1" stop-color="#c3e1f5"/></linearGradient><linearGradient id="linear-gradient-2" x1="46.65" y1="61" x2="46.65" y2="36.32" gradientUnits="userSpaceOnUse"><stop offset="0" stop-color="#8cdd79"/><stop offset="1" stop-color="#d4e6b6"/></linearGradient><linearGradient id="linear-gradient-3" x1="23" y1="63" x2="23" y2="5" xlink:href="#linear-gradient"/><linearGradient id="linear-gradient-4" x1="23" y1="61" x2="23" y2="34.73" gradientUnits="userSpaceOnUse"><stop offset="0" stop-color="#da5466"/><stop offset="1" stop-color="#f4929c"/></linearGradient><linearGradient id="linear-gradient-5" x1="23" y1="5" x2="23" y2="1" xlink:href="#linear-gradient"/><linearGradient id="linear-gradient-6" x1="38.02" y1="3" x2="53.98" y2="3" xlink:href="#linear-gradient"/></defs><title>Chemistry</title><g id="Chemistry"><path class="cls-1" d="M63,46A17,17,0,0,1,41.45,62.38L32.84,35.24A17,17,0,0,1,40,30.09V5H52V30.09A17,17,0,0,1,63,46Z"/><path class="cls-2" d="M61,46A15,15,0,0,1,45.82,61a18.17,18.17,0,0,1-2.55-.24l-11-23.1L34.62,37c8.86-2.3,11.4,1.64,15.84,1.64,2.59,0,5-1.2,7.23-2.19C59.42,39.19,61,41.66,61,46Z"/><path class="cls-3" d="M36.08,36.7c-.81.15-1.76.42-2.57.64l-.67-2.1a16.91,16.91,0,0,1,1.41-1.52Z"/><path class="cls-4" d="M45.82,61a8.5,8.5,0,0,1-1.58,1.9,15.11,15.11,0,0,1-2.79-.52L36.24,46l7,14.8A18.17,18.17,0,0,0,45.82,61Z"/><path class="cls-5" d="M60.92,44.54A15,15,0,0,1,53.42,56a6,6,0,0,1-8.09-2.27c-3.68-6.28-12.51-16.23-13-16.09,14.45,30.44-5.71-12,11,23.1a20.87,20.87,0,0,0,2.55.24A15,15,0,0,0,60.92,44.54Z"/><path class="cls-6" d="M45,56.76A6.24,6.24,0,0,1,38.76,63H7.24A6.25,6.25,0,0,1,1,56.76C1,54.32.82,55.29,17,29V5H29V29C45.54,55.9,45,54.33,45,56.76Z"/><path class="cls-7" d="M7.24,61a4.25,4.25,0,0,1-3.62-6.45C15.91,34.6,14.53,36.63,15.15,36.27c3.65-2.13,6-1.86,9-.33,2.73,1.41,3.41.9,6.53-.47L42.37,54.54A4.25,4.25,0,0,1,38.76,61Z"/><path class="cls-8" d="M38.76,61H7.24a4.24,4.24,0,0,1-4-5.75,4.21,4.21,0,0,0,4,2.75H38.76a4.23,4.23,0,0,0,4-2.74A4.23,4.23,0,0,1,38.76,61Z"/><path class="cls-9" d="M29,5H17a2,2,0,0,1,0-4H29A2,2,0,0,1,29,5Z"/><path class="cls-10" d="M29,24v2H26a1,1,0,0,1,0-2Z"/><path class="cls-10" d="M29,19v2H27a1,1,0,0,1,0-2Z"/><path class="cls-10" d="M29,14v2H26a1,1,0,0,1,0-2Z"/><path class="cls-10" d="M29,9v2H27a1,1,0,0,1,0-2Z"/><path class="cls-10" d="M30.23,31H27a1,1,0,0,1,0-2h2Z"/><path class="cls-10" d="M52,24v2H49a1,1,0,0,1,0-2Z"/><path class="cls-10" d="M52,19v2H50a1,1,0,0,1,0-2Z"/><path class="cls-10" d="M52,14v2H49a1,1,0,0,1,0-2Z"/><path class="cls-10" d="M52,9v2H50a1,1,0,0,1,0-2Z"/><path class="cls-10" d="M54,31H50a1,1,0,0,1,0-2h2C52,30.66,51.6,29.69,54,31Z"/><path class="cls-11" d="M52,5H40a2,2,0,0,1,0-4H52A2,2,0,0,1,52,5Z"/><rect class="cls-3" x="17" y="5" width="12" height="3"/><rect class="cls-3" x="40" y="5" width="12" height="3"/></g></svg>