<svg xmlns="http://www.w3.org/2000/svg" xmlns:xlink="http://www.w3.org/1999/xlink" viewBox="0 0 64 64"><defs><style>.cls-1{fill:#8288a1;}.cls-2{fill:url(#linear-gradient);}.cls-3{fill:#cf4055;}.cls-4{fill:url(#linear-gradient-2);}.cls-5{fill:url(#linear-gradient-3);}.cls-6{fill:url(#linear-gradient-4);}.cls-7{fill:url(#linear-gradient-5);}.cls-8{fill:url(#linear-gradient-6);}.cls-9{fill:url(#linear-gradient-7);}.cls-10{fill:#dfe3ea;}.cls-11{fill:#adb3c4;}.cls-12{fill:#575f7c;}</style><linearGradient id="linear-gradient" x1="32" y1="63" x2="32" y2="9" gradientUnits="userSpaceOnUse"><stop offset="0" stop-color="#da5466"/><stop offset="1" stop-color="#f4929c"/></linearGradient><linearGradient id="linear-gradient-2" x1="10.75" y1="24.5" x2="10.75" y2="5" gradientUnits="userSpaceOnUse"><stop offset="0" stop-color="#949aaf"/><stop offset="1" stop-color="#c6ccda"/></linearGradient><linearGradient id="linear-gradient-3" x1="53.25" x2="53.25" y2="5" xlink:href="#linear-gradient-2"/><linearGradient id="linear-gradient-4" x1="15.41" y1="63" x2="15.41" y2="57.31" gradientUnits="userSpaceOnUse"><stop offset="0" stop-color="#474f72"/><stop offset="1" stop-color="#878c9f"/></linearGradient><linearGradient id="linear-gradient-5" x1="48.58" x2="48.58" y2="57.31" xlink:href="#linear-gradient-4"/><linearGradient id="linear-gradient-6" x1="29" y1="3" x2="35" y2="3" xlink:href="#linear-gradient-2"/><linearGradient id="linear-gradient-7" x1="32" y1="58" x2="32" y2="14" gradientUnits="userSpaceOnUse"><stop offset="0" stop-color="#d4d8e1"/><stop offset="1" stop-color="#f3f4f5"/></linearGradient></defs><title>Clock</title><g id="Clock"><path class="cls-1" d="M31,9V5a1,1,0,0,1,2,0V9A1,1,0,0,1,31,9Z"/><circle class="cls-2" cx="32" cy="36" r="27"/><path class="cls-3" d="M32,63C16.24,63,4.15,49.5,5,35A27,27,0,0,0,59,35C59.85,49.47,47.79,63,32,63Z"/><path class="cls-4" d="M20.5,9.5l-15,15L4.11,23.11A10.61,10.61,0,0,1,15.67,5.81C17.92,6.75,19,8,20.5,9.5Z"/><path class="cls-5" d="M43.5,9.5l15,15,1.39-1.39A10.61,10.61,0,0,0,48.33,5.81C46.08,6.75,45.05,8,43.5,9.5Z"/><path class="cls-1" d="M20.5,9.5l-15,15L4.11,23.11a10.35,10.35,0,0,1-2.9-9.41A5.09,5.09,0,0,0,9.8,16.2l8.67-8.67C19,7.93,19.26,8.26,20.5,9.5Z"/><path class="cls-1" d="M58.5,24.5l-15-15c1.36-1.36,1.58-1.6,2-2l8.68,8.68a5.08,5.08,0,0,0,8.6-2.61C63.74,18.62,61.5,21.5,58.5,24.5Z"/><polyline class="cls-6" points="15.43 57.31 11 63 16 63 19.83 60.1"/><polyline class="cls-7" points="48.57 57.31 53 63 48 63 44.17 60.1"/><rect class="cls-8" x="29" y="1" width="6" height="4"/><circle class="cls-9" cx="32" cy="36" r="22"/><path class="cls-10" d="M54,37A22,22,0,0,0,10,37,22,22,0,1,1,54,37Z"/><path class="cls-11" d="M31,20V17a1,1,0,0,1,2,0v3A1,1,0,0,1,31,20Z"/><path class="cls-11" d="M31,55V52a1,1,0,0,1,2,0v3A1,1,0,0,1,31,55Z"/><path class="cls-11" d="M16,37H13a1,1,0,0,1,0-2h3A1,1,0,0,1,16,37Z"/><path class="cls-11" d="M51,37H48a1,1,0,0,1,0-2h3A1,1,0,0,1,51,37Z"/><path class="cls-11" d="M23.37,19.05a1,1,0,0,1-1.74,1A1,1,0,0,1,23.37,19.05Z"/><path class="cls-11" d="M42.37,52a1,1,0,0,1-1.74,1A1,1,0,0,1,42.37,52Z"/><path class="cls-11" d="M40.63,19.05a1,1,0,0,0,1.74,1A1,1,0,0,0,40.63,19.05Z"/><path class="cls-11" d="M21.63,52a1,1,0,0,0,1.74,1A1,1,0,0,0,21.63,52Z"/><path class="cls-11" d="M49,44.63a1,1,0,0,0-1,1.74A1,1,0,0,0,49,44.63Z"/><path class="cls-11" d="M16.05,25.63a1,1,0,0,0-1,1.74A1,1,0,0,0,16.05,25.63Z"/><path class="cls-11" d="M49,27.37a1,1,0,0,1-1-1.74A1,1,0,0,1,49,27.37Z"/><path class="cls-11" d="M16.05,46.37a1,1,0,0,1-1-1.74A1,1,0,0,1,16.05,46.37Z"/><path class="cls-12" d="M31,39V24a1,1,0,0,1,2,0V39A1,1,0,0,1,31,39Z"/><path class="cls-12" d="M35,37H23a1,1,0,0,1,0-2H35A1,1,0,0,1,35,37Z"/><path class="cls-11" d="M32,38a2,2,0,1,1,2-2A2,2,0,0,1,32,38Zm0-2Z"/></g></svg>