<svg xmlns="http://www.w3.org/2000/svg" xmlns:xlink="http://www.w3.org/1999/xlink" viewBox="0 0 64 64"><defs><style>.cls-1{fill:#aae0e5;}.cls-2{fill:url(#linear-gradient);}.cls-3{fill:#c7cdd8;}.cls-4{fill:url(#linear-gradient-2);}.cls-5{fill:#86b8e0;}.cls-6{fill:#5b8dc9;}.cls-7{fill:url(#linear-gradient-3);}.cls-8{fill:url(#linear-gradient-4);}</style><linearGradient id="linear-gradient" x1="32" y1="35" x2="32" y2="1" gradientUnits="userSpaceOnUse"><stop offset="0" stop-color="#d4d8e1"/><stop offset="1" stop-color="#f3f4f5"/></linearGradient><linearGradient id="linear-gradient-2" x1="32" y1="59" x2="32" y2="47" gradientUnits="userSpaceOnUse"><stop offset="0" stop-color="#7aa8d7"/><stop offset="1" stop-color="#c3d2e7"/></linearGradient><linearGradient id="linear-gradient-3" x1="55" y1="59" x2="55" y2="47" xlink:href="#linear-gradient-2"/><linearGradient id="linear-gradient-4" x1="9" y1="59" x2="9" y2="47" xlink:href="#linear-gradient-2"/></defs><title>Cloud Computing</title><g id="Cloud_Computing" data-name="Cloud Computing"><path class="cls-1" d="M31,44V35a1,1,0,0,1,2,0v9A1,1,0,0,1,31,44Z"/><path class="cls-1" d="M8,44V40a1,1,0,0,1,1-1H27V35a1,1,0,0,1,2,0v5a1,1,0,0,1-1,1H10v3A1,1,0,0,1,8,44Z"/><path class="cls-1" d="M54,44V41H36a1,1,0,0,1-1-1V35a1,1,0,0,1,2,0v4H55a1,1,0,0,1,1,1v4A1,1,0,0,1,54,44Z"/><path class="cls-2" d="M52,19.26a7,7,0,0,0-8.29-7.13A14,14,0,0,0,16,15a10,10,0,0,0,0,20H50a8,8,0,0,0,2-15.74Z"/><path class="cls-3" d="M50,35H16A10,10,0,0,1,6.05,24a10,10,0,0,0,10,9H50a8,8,0,0,0,7.93-7A8,8,0,0,1,50,35Z"/><rect class="cls-4" x="24" y="47" width="16" height="12" rx="1"/><rect class="cls-5" x="30" y="59" width="4" height="4"/><path class="cls-6" d="M36,63H28a1,1,0,0,1,0-2h8A1,1,0,0,1,36,63Z"/><rect class="cls-7" x="47" y="47" width="16" height="12" rx="1"/><rect class="cls-5" x="53" y="59" width="4" height="4"/><path class="cls-6" d="M59,63H51a1,1,0,0,1,0-2h8A1,1,0,0,1,59,63Z"/><rect class="cls-8" x="1" y="47" width="16" height="12" rx="1"/><path class="cls-6" d="M24,56H40a0,0,0,0,1,0,0v2a1,1,0,0,1-1,1H25a1,1,0,0,1-1-1V56A0,0,0,0,1,24,56Z"/><path class="cls-6" d="M47,56H63a0,0,0,0,1,0,0v2a1,1,0,0,1-1,1H48a1,1,0,0,1-1-1V56A0,0,0,0,1,47,56Z"/><path class="cls-6" d="M1,56H17a0,0,0,0,1,0,0v2a1,1,0,0,1-1,1H2a1,1,0,0,1-1-1V56A0,0,0,0,1,1,56Z"/><rect class="cls-5" x="7" y="59" width="4" height="4"/><path class="cls-6" d="M13,63H5a1,1,0,0,1,0-2h8A1,1,0,0,1,13,63Z"/></g></svg>