<svg xmlns="http://www.w3.org/2000/svg" xmlns:xlink="http://www.w3.org/1999/xlink" viewBox="0 0 64 64"><defs><style>.cls-1{fill:url(#linear-gradient);}.cls-2{fill:url(#linear-gradient-2);}.cls-3{fill:#aae0e5;}.cls-4{fill:#77cacb;}.cls-5{fill:url(#linear-gradient-3);}.cls-6{fill:#8288a1;}.cls-7{fill:#d7dbe2;}.cls-8{fill:#fff2e3;}.cls-9{fill:url(#linear-gradient-4);}.cls-10{fill:#c7cdd8;}.cls-11{fill:url(#linear-gradient-5);}.cls-12{fill:url(#linear-gradient-6);}.cls-13{fill:url(#linear-gradient-7);}</style><linearGradient id="linear-gradient" x1="32" y1="55" x2="32" y2="15" gradientUnits="userSpaceOnUse"><stop offset="0" stop-color="#a0a6ba"/><stop offset="1" stop-color="#c6ccda"/></linearGradient><linearGradient id="linear-gradient-2" x1="32" y1="51" x2="32" y2="19" gradientUnits="userSpaceOnUse"><stop offset="0" stop-color="#9dd5df"/><stop offset="1" stop-color="#c3e1f5"/></linearGradient><linearGradient id="linear-gradient-3" y1="63" y2="55" xlink:href="#linear-gradient"/><linearGradient id="linear-gradient-4" x1="32" y1="25" x2="32" y2="1" gradientUnits="userSpaceOnUse"><stop offset="0" stop-color="#d4d8e1"/><stop offset="1" stop-color="#f3f4f5"/></linearGradient><linearGradient id="linear-gradient-5" x1="16" y1="46" x2="16" y2="42" gradientUnits="userSpaceOnUse"><stop offset="0" stop-color="#fbcc88"/><stop offset="1" stop-color="#ffe5c3"/></linearGradient><linearGradient id="linear-gradient-6" x1="32" y1="46" x2="32" y2="42" xlink:href="#linear-gradient-5"/><linearGradient id="linear-gradient-7" x1="48" y1="46" x2="48" y2="42" xlink:href="#linear-gradient-5"/></defs><title>Cloud Data</title><g id="Cloud_Data" data-name="Cloud Data"><path class="cls-1" d="M59,18V55H5V18a3,3,0,0,1,3-3H56A3,3,0,0,1,59,18Z"/><rect class="cls-2" x="9" y="19" width="46" height="32"/><path class="cls-3" d="M55,19v2H9V19Z"/><path class="cls-3" d="M52.35,19.35A7.65,7.65,0,0,1,44.71,27h-24a9.07,9.07,0,0,1-9-8C55.86,19,52.35,18.83,52.35,19.35Z"/><path class="cls-4" d="M55,49v2H9V49Z"/><path class="cls-5" d="M3,55H61a2,2,0,0,1,2,2v2a4,4,0,0,1-4,4H5a4,4,0,0,1-4-4V57A2,2,0,0,1,3,55Z"/><path class="cls-6" d="M63,57v2a4,4,0,0,1-4,4H5a4,4,0,0,1-4-4V57a4,4,0,0,0,4,4H59A4,4,0,0,0,63,57Z"/><polygon class="cls-7" points="40 58 24 58 22 55 42 55 40 58"/><rect class="cls-6" x="5" y="53" width="54" height="2"/><path class="cls-8" d="M31,42V25a1,1,0,0,1,2,0V42A1,1,0,0,1,31,42Z"/><path class="cls-8" d="M15,42V36a1,1,0,0,1,1-1H26V25a1,1,0,0,1,2,0V36a1,1,0,0,1-1,1H17v5A1,1,0,0,1,15,42Z"/><path class="cls-8" d="M47,42V37H37a1,1,0,0,1-1-1V25a1,1,0,0,1,2,0V35H48a1,1,0,0,1,1,1v6A1,1,0,0,1,47,42Z"/><path class="cls-9" d="M46.11,13.89a4.93,4.93,0,0,0-5.85-5,9.88,9.88,0,0,0-19.55,2,7.06,7.06,0,0,0,0,14.12h24a5.64,5.64,0,0,0,1.4-11.11Z"/><path class="cls-10" d="M44.71,25h-24a7.06,7.06,0,0,1-7-8.06,7,7,0,0,0,7,6.06h24a5.65,5.65,0,0,0,5.55-4.65A5.65,5.65,0,0,1,44.71,25Z"/><circle class="cls-11" cx="16" cy="44" r="2"/><circle class="cls-12" cx="32" cy="44" r="2"/><circle class="cls-13" cx="48" cy="44" r="2"/></g></svg>