<svg xmlns="http://www.w3.org/2000/svg" viewBox="0 0 128 128"><defs><style>.cls-1{fill:#d6ac90;}.cls-2{fill:#dde1e8;}.cls-3{fill:#c7cdd8;}.cls-4{fill:#cba07a;}.cls-5{fill:#e2607f;}</style></defs><title>Come Back Later</title><g id="Come_Back_Later" data-name="Come Back Later"><path class="cls-1" d="M69,127H59V1H69Z"/><rect class="cls-2" x="1" y="10" width="126" height="85"/><rect class="cls-3" x="1" y="90" width="126" height="5"/><rect class="cls-4" x="59" y="7" width="10" height="3"/><rect class="cls-4" x="59" y="123" width="10" height="4"/><path class="cls-5" d="M86,40H56.46L67.22,29.22a1,1,0,0,0-1.44-1.44L53.27,40.3a1,1,0,0,0,0,1.42C66.91,55.35,65.9,54.52,66.5,54.52a1,1,0,0,0,.72-1.74L56.46,42H86a15,15,0,1,1,0,30H26a1,1,0,0,0,0,2H86a17,17,0,0,0,0-34Z"/></g></svg>