<svg xmlns="http://www.w3.org/2000/svg" viewBox="0 0 128 128"><defs><style>.cls-1{fill:#fbcc88;}.cls-2{fill:#f6b756;}.cls-3{fill:#949aaf;}.cls-4{fill:#8288a1;}.cls-5{fill:#dde1e8;}.cls-6{fill:#c7cdd8;}.cls-7{fill:#42455e;}.cls-8{fill:#e2607f;}</style></defs><title>Coming Soon</title><g id="Coming_Soon" data-name="Coming Soon"><path class="cls-1" d="M21.2,42.75l-2.95-3a6.81,6.81,0,0,1,9.64-9.63l2.69,2.7Z"/><path class="cls-1" d="M97.42,32.87l2.69-2.7a6.81,6.81,0,1,1,9.64,9.63l-3,3Z"/><path class="cls-2" d="M30.58,32.87,21.2,42.75c-2.85-2.85-5.75-5-4.77-9.27.95,4.31,5.15,5.87,7.64,3.24l5.05-5.31Z"/><path class="cls-2" d="M106.8,42.75l-9.38-9.88,1.46-1.46,5.05,5.31c2.45,2.58,6.68,1.12,7.64-3.24C112.54,37.82,109.66,39.89,106.8,42.75Z"/><circle class="cls-3" cx="64" cy="74" r="53"/><path class="cls-4" d="M64,127c-30.68,0-54.28-25.84-53-55A53,53,0,0,0,117,72C118.28,101.16,94.68,127,64,127Z"/><circle class="cls-5" cx="64" cy="74" r="42"/><path class="cls-6" d="M106,76A42,42,0,0,0,22,76c-.77-25.48,19.07-44,42-44S106.73,50.44,106,76Z"/><rect class="cls-3" x="56" y="1" width="16" height="12"/><rect class="cls-4" x="56" y="9" width="16" height="4"/><path class="cls-4" d="M63,39V36a1,1,0,0,1,2,0v3A1,1,0,0,1,63,39Z"/><path class="cls-4" d="M63,112v-3a1,1,0,0,1,2,0v3A1,1,0,0,1,63,112Z"/><path class="cls-4" d="M102,75H99a1,1,0,0,1,0-2h3A1,1,0,0,1,102,75Z"/><path class="cls-4" d="M29,75H26a1,1,0,0,1,0-2h3A1,1,0,0,1,29,75Z"/><path class="cls-4" d="M45.87,40.59a1,1,0,0,1-1.74,1A1,1,0,0,1,45.87,40.59Z"/><path class="cls-4" d="M83.87,106.41a1,1,0,0,1-1.74,1A1,1,0,0,1,83.87,106.41Z"/><path class="cls-4" d="M82.13,40.59a1,1,0,0,0,1.74,1A1,1,0,0,0,82.13,40.59Z"/><path class="cls-4" d="M44.13,106.41a1,1,0,0,0,1.74,1A1,1,0,0,0,44.13,106.41Z"/><path class="cls-4" d="M30.59,92.13a1,1,0,0,1,1,1.74A1,1,0,0,1,30.59,92.13Z"/><path class="cls-4" d="M96.41,54.13a1,1,0,0,1,1,1.74A1,1,0,0,1,96.41,54.13Z"/><path class="cls-4" d="M30.59,55.87a1,1,0,0,0,1-1.74A1,1,0,0,0,30.59,55.87Z"/><path class="cls-4" d="M96.41,93.87a1,1,0,0,0,1-1.74A1,1,0,0,0,96.41,93.87Z"/><rect class="cls-7" x="61" y="13" width="6" height="8"/><rect class="cls-7" x="61" y="18" width="6" height="3"/><path class="cls-8" d="M83,77A19,19,0,1,1,64,58H77.54l-9.26,9.26A1,1,0,0,0,69,69c.6,0-.25.67,11.72-11.3a1,1,0,0,0,0-1.42c-.21-.23.13.11-11-11a1,1,0,0,0-1.44,1.44L77.54,56H64A21,21,0,1,0,85,77,1,1,0,0,0,83,77Z"/></g></svg>