<svg xmlns="http://www.w3.org/2000/svg" xmlns:xlink="http://www.w3.org/1999/xlink" viewBox="0 0 64 64"><defs><style>.cls-1{fill:url(#linear-gradient);}.cls-2{fill:#c7cdd8;}.cls-3{fill:url(#linear-gradient-2);}.cls-4{fill:#cf4055;}.cls-5{fill:#f6b756;}.cls-6{fill:#7ece67;}.cls-7{fill:url(#linear-gradient-3);}.cls-8{fill:url(#linear-gradient-4);}.cls-9{fill:#5b8dc9;}.cls-10{fill:#dd8b37;}.cls-11{fill:url(#linear-gradient-5);}.cls-12{fill:url(#linear-gradient-6);}.cls-13{fill:#d3e0ef;}.cls-14{fill:#ffcd9c;}</style><linearGradient id="linear-gradient" x1="32" y1="52" x2="32" y2="1" gradientUnits="userSpaceOnUse"><stop offset="0" stop-color="#d4d8e1"/><stop offset="1" stop-color="#f3f4f5"/></linearGradient><linearGradient id="linear-gradient-2" x1="32" y1="9" x2="32" y2="1" gradientUnits="userSpaceOnUse"><stop offset="0" stop-color="#a0a6ba"/><stop offset="1" stop-color="#c6ccda"/></linearGradient><linearGradient id="linear-gradient-3" x1="15" y1="63" x2="15" y2="21" gradientUnits="userSpaceOnUse"><stop offset="0" stop-color="#7aa8d7"/><stop offset="1" stop-color="#c3d2e7"/></linearGradient><linearGradient id="linear-gradient-4" x1="49" y1="63" x2="49" y2="21" gradientUnits="userSpaceOnUse"><stop offset="0" stop-color="#e9a254"/><stop offset="1" stop-color="#f4bb79"/></linearGradient><linearGradient id="linear-gradient-5" x1="15" y1="42" x2="15" y2="26" xlink:href="#linear-gradient"/><linearGradient id="linear-gradient-6" x1="49" y1="42" x2="49" y2="26" xlink:href="#linear-gradient"/></defs><title>Comparison</title><g id="Comparison"><path class="cls-1" d="M59,52V1H5V52Z"/><path class="cls-2" d="M59,52V50H5v2Z"/><rect class="cls-3" x="5" y="1" width="54" height="8"/><path class="cls-4" d="M11,5A1,1,0,0,1,9,5,1,1,0,0,1,11,5Z"/><path class="cls-5" d="M16,5a1,1,0,0,1-2,0A1,1,0,0,1,16,5Z"/><path class="cls-6" d="M21,5a1,1,0,0,1-2,0A1,1,0,0,1,21,5Z"/><rect class="cls-7" x="1" y="21" width="28" height="42"/><rect class="cls-8" x="35" y="21" width="28" height="42"/><rect class="cls-9" x="1" y="60" width="28" height="3"/><rect class="cls-10" x="35" y="60" width="28" height="3"/><rect class="cls-11" x="6" y="26" width="18" height="16"/><rect class="cls-12" x="40" y="26" width="18" height="16"/><rect class="cls-2" x="6" y="39" width="18" height="3"/><rect class="cls-2" x="40" y="39" width="18" height="3"/><path class="cls-9" d="M15.94,29.65a1,1,0,0,0-1.88,0l-3,8a1,1,0,0,0,1.88.7l.5-1.35h3.12l.5,1.35a1,1,0,0,0,1.88-.7ZM14.19,35,15,32.85,15.81,35Z"/><path class="cls-10" d="M51.6,33.47A3,3,0,0,0,49,29H46a1,1,0,0,0-1,1v8a1,1,0,0,0,1,1h4A3,3,0,0,0,51.6,33.47ZM47,31h2a1,1,0,0,1,0,2H47Zm3,6H47V35h3A1,1,0,0,1,50,37Z"/><path class="cls-13" d="M7,47a1,1,0,0,1-2,0A1,1,0,0,1,7,47Z"/><path class="cls-13" d="M24,48H10a1,1,0,0,1,0-2H24A1,1,0,0,1,24,48Z"/><path class="cls-13" d="M7,52a1,1,0,0,1-2,0A1,1,0,0,1,7,52Z"/><path class="cls-13" d="M24,53H10a1,1,0,0,1,0-2H24A1,1,0,0,1,24,53Z"/><path class="cls-13" d="M7,57a1,1,0,0,1-2,0A1,1,0,0,1,7,57Z"/><path class="cls-13" d="M24,58H10a1,1,0,0,1,0-2H24A1,1,0,0,1,24,58Z"/><path class="cls-14" d="M41,47a1,1,0,0,1-2,0A1,1,0,0,1,41,47Z"/><path class="cls-14" d="M58,48H44a1,1,0,0,1,0-2H58A1,1,0,0,1,58,48Z"/><path class="cls-14" d="M41,52a1,1,0,0,1-2,0A1,1,0,0,1,41,52Z"/><path class="cls-14" d="M58,53H44a1,1,0,0,1,0-2H58A1,1,0,0,1,58,53Z"/><path class="cls-14" d="M41,57a1,1,0,0,1-2,0A1,1,0,0,1,41,57Z"/><path class="cls-14" d="M58,58H44a1,1,0,0,1,0-2H58A1,1,0,0,1,58,58Z"/></g></svg>