<svg xmlns="http://www.w3.org/2000/svg" xmlns:xlink="http://www.w3.org/1999/xlink" viewBox="0 0 64 64"><defs><style>.cls-1{fill:url(#linear-gradient);}.cls-2{fill:#c7cdd8;}.cls-3{fill:url(#linear-gradient-2);}.cls-4{fill:url(#linear-gradient-3);}.cls-5{fill:#5b8dc9;}.cls-6{fill:#adb3c4;}.cls-7{fill:url(#linear-gradient-4);}.cls-8{fill:url(#linear-gradient-5);}.cls-9{fill:#42455e;}.cls-10{fill:url(#linear-gradient-6);}.cls-11{fill:#575f7c;}.cls-12{fill:url(#linear-gradient-7);}.cls-13{fill:#f2a961;}.cls-14{fill:#dd8b37;}</style><linearGradient id="linear-gradient" x1="32" y1="10.41" x2="32" y2="1" gradientUnits="userSpaceOnUse"><stop offset="0" stop-color="#7aa8d7"/><stop offset="1" stop-color="#c3d2e7"/></linearGradient><linearGradient id="linear-gradient-2" x1="17" y1="63" x2="17" y2="24" gradientUnits="userSpaceOnUse"><stop offset="0" stop-color="#e9a254"/><stop offset="1" stop-color="#f4bb79"/></linearGradient><linearGradient id="linear-gradient-3" x1="33.27" y1="54" x2="33.27" y2="15" gradientUnits="userSpaceOnUse"><stop offset="0" stop-color="#949aaf"/><stop offset="1" stop-color="#c6ccda"/></linearGradient><linearGradient id="linear-gradient-4" y1="20" y2="10" xlink:href="#linear-gradient"/><linearGradient id="linear-gradient-5" x1="46" y1="59" x2="46" y2="49" xlink:href="#linear-gradient-3"/><linearGradient id="linear-gradient-6" x1="17" y1="46" x2="17" y2="40" gradientUnits="userSpaceOnUse"><stop offset="0" stop-color="#474f72"/><stop offset="1" stop-color="#878c9f"/></linearGradient><linearGradient id="linear-gradient-7" x1="17" y1="63" x2="17" y2="55" gradientUnits="userSpaceOnUse"><stop offset="0" stop-color="#d1a788"/><stop offset="1" stop-color="#f2d3b8"/></linearGradient></defs><title>Compass</title><g id="Compass"><path class="cls-1" d="M34,3v7.41H30V3a2,2,0,0,1,4,0Z"/><path class="cls-2" d="M45,62V58a1,1,0,0,1,2,0v4A1,1,0,0,1,45,62Z"/><path class="cls-3" d="M20,24H14V55.68c0,.48-.39-.59,3,7.32,3.38-7.89,3-6.84,3-7.32Z"/><path class="cls-4" d="M46.61,49.06,43,54c-9.92-35.16-8.87-31.44-9.64-34.19H30.64c-.64,2.3.59-2.07-6,21.19L20,43c-.07-4.29-1.07.6,7-28H37C38.58,20.61,42.85,35.74,46.61,49.06Z"/><path class="cls-5" d="M34,10.41H30V8.29a7,7,0,0,1,4,0Z"/><path class="cls-6" d="M38,18.58a6.94,6.94,0,0,1-4.11,3.15l-.54-1.92H30.64l-.54,1.93A7,7,0,0,1,26,18.58L27,15H37Z"/><circle class="cls-7" cx="32" cy="15" r="5"/><path class="cls-8" d="M46,49a3,3,0,0,1,3,3v5l-2,2H45l-2-2V52A3,3,0,0,1,46,49Z"/><path class="cls-9" d="M47,53a1,1,0,0,1-2,0A1,1,0,0,1,47,53Z"/><rect class="cls-10" x="13" y="40" width="8" height="6"/><rect class="cls-9" x="13" y="44" width="8" height="2"/><rect class="cls-11" x="21" y="41" width="4" height="4" transform="translate(46 86) rotate(180)"/><path class="cls-12" d="M20,55.68c0,.48.39-.59-3,7.32-3.38-7.89-3-6.84-3-7.32A6.93,6.93,0,0,1,20,55.68Z"/><path class="cls-9" d="M18.22,60.15,17,63l-1.22-2.85A5,5,0,0,1,18.22,60.15Z"/><path class="cls-5" d="M32,17a2,2,0,1,1,2-2A2,2,0,0,1,32,17Zm0-2h0Zm0,0h0Zm0,0h0Zm0,0h0Zm0,0h0Zm0,0h0Zm0,0h0Zm0,0h0Z"/><rect class="cls-13" x="14" y="24" width="6" height="3"/><rect class="cls-14" x="14" y="46" width="6" height="3"/></g></svg>