<svg xmlns="http://www.w3.org/2000/svg" viewBox="0 0 128 128"><defs><style>.cls-1{fill:#7aa8d7;}.cls-2{fill:#5b8dc9;}.cls-3{fill:#c7cdd8;}.cls-4{fill:#949aaf;}.cls-5{fill:#8288a1;}.cls-6{fill:#dde1e8;}</style></defs><title>Contact</title><g id="Contact"><path class="cls-1" d="M122,63s-11,0-30-19c3.06-7.17,3.94-8.27,3.06-10.13s-3.07-2.41-5-2.68c-2.54-.34-50-.17-50.71-.14-1.53,0-4.62.58-5.85,2A3.61,3.61,0,0,0,33,37c1.4,3.28.21.45,3,7C17,63,6,63,6,63-5.14,45.22,3.82,25.53,20.09,19.93c26.93-9.25,60.86-9.26,87.82,0C124,25.47,133.26,45,122,63Z"/><path class="cls-2" d="M36,44C17,63,6,63,6,63,2.5,57.41.49,51.49,1.08,44.79c1.17,8.94,11.28,13.64,19.1,9A82,82,0,0,0,35.1,41.89Z"/><path class="cls-2" d="M87,31H41c-5.34,0-7.38,1.41-8.06,2.87C32.58,33,31,28,41,28H87c10,0,8.42,5,8.06,5.87C94.38,32.41,92.34,31,87,31Z"/><path class="cls-2" d="M123.49,60.52c-.64,1.15-.59,1-1.49,2.48,0,0-11,0-30-19l.9-2.11a80.28,80.28,0,0,0,15.79,12.38c7.7,4.4,17.42-.51,18.25-9.16A28.51,28.51,0,0,1,123.49,60.52Z"/><path class="cls-3" d="M125.5,56c-.23.68-.5,1.39-.74,1.93-10.25-1.24-23.35-11-31.06-17.86l.82-1.91c.58.17,13.33,12.44,25.63,16.58h0A28.79,28.79,0,0,0,125.5,56Z"/><rect class="cls-4" x="4" y="103" width="120" height="12"/><rect class="cls-5" x="4" y="111" width="120" height="4"/><path class="cls-1" d="M93.41,65.07A9.25,9.25,0,0,1,87,56.26,8.26,8.26,0,0,0,78.74,48H49.26A8.26,8.26,0,0,0,41,56.26a9.25,9.25,0,0,1-6.41,8.81A39.86,39.86,0,0,0,7,103c0,.1-1.91,0,114,0A39.86,39.86,0,0,0,93.41,65.07Z"/><path class="cls-2" d="M121,103H7a37.85,37.85,0,0,1,.21-4H120.79A37.85,37.85,0,0,1,121,103Z"/><circle class="cls-6" cx="64" cy="76" r="20"/><path class="cls-3" d="M64,96A20,20,0,0,1,44.1,74a20,20,0,0,0,39.8,0A20,20,0,0,1,64,96Z"/><path class="cls-2" d="M64,100A20,20,0,0,1,44.1,78a20,20,0,0,0,39.8,0A20,20,0,0,1,64,100Z"/><circle class="cls-1" cx="64" cy="76" r="11"/><path class="cls-2" d="M74.82,78a11,11,0,0,0-21.64,0,11,11,0,1,1,21.64,0Z"/><path class="cls-4" d="M77,48V40A12.44,12.44,0,0,0,87,27.8V26a2,2,0,0,0-2-2H82a2,2,0,0,0-2,2,5,5,0,0,1-5,5H53a5,5,0,0,1-5-5,2,2,0,0,0-2-2H43a2,2,0,0,0-2,2v1.8A12.44,12.44,0,0,0,51,40c.1,0,0-.67,0,8Z"/><path class="cls-3" d="M34.3,40c-7.72,6.9-20.73,16.59-31.06,17.86C3,57.34,2.73,56.64,2.5,56c.3-.13,11.64-.54,30.69-17.67a.84.84,0,0,1,.28-.18Z"/><rect class="cls-5" x="51" y="44" width="26" height="4"/></g></svg>