<svg xmlns="http://www.w3.org/2000/svg" xmlns:xlink="http://www.w3.org/1999/xlink" viewBox="0 0 64 64"><defs><style>.cls-1{fill:url(#linear-gradient);}.cls-2{fill:#c7cdd8;}.cls-3{fill:url(#linear-gradient-2);}.cls-4{fill:#cf4055;}.cls-5{fill:#f6b756;}.cls-6{fill:#7ece67;}.cls-7{fill:url(#linear-gradient-3);}.cls-8{fill:#dd8b37;}.cls-9{fill:#fff2e3;}.cls-10{fill:url(#linear-gradient-4);}.cls-11{fill:#42455e;}.cls-12{fill:none;stroke:#231f20;stroke-linecap:round;stroke-linejoin:round;stroke-width:2px;}</style><linearGradient id="linear-gradient" x1="32" y1="52" x2="32" y2="1" gradientUnits="userSpaceOnUse"><stop offset="0" stop-color="#d4d8e1"/><stop offset="1" stop-color="#f3f4f5"/></linearGradient><linearGradient id="linear-gradient-2" x1="32" y1="9" x2="32" y2="1" gradientUnits="userSpaceOnUse"><stop offset="0" stop-color="#a0a6ba"/><stop offset="1" stop-color="#c6ccda"/></linearGradient><linearGradient id="linear-gradient-3" x1="32" y1="50" x2="32" y2="19" gradientUnits="userSpaceOnUse"><stop offset="0" stop-color="#e9a254"/><stop offset="1" stop-color="#f4bb79"/></linearGradient><linearGradient id="linear-gradient-4" x1="32" y1="60" x2="32" y2="50" gradientUnits="userSpaceOnUse"><stop offset="0" stop-color="#474f72"/><stop offset="1" stop-color="#878c9f"/></linearGradient></defs><title>Creative Idea</title><g id="Creative_Idea" data-name="Creative Idea"><path class="cls-1" d="M63,52V1H1V52Z"/><path class="cls-2" d="M63,52V50H1v2Z"/><rect class="cls-3" x="1" y="1" width="62" height="8"/><path class="cls-4" d="M7,5A1,1,0,0,1,5,5,1,1,0,0,1,7,5Z"/><path class="cls-5" d="M12,5a1,1,0,0,1-2,0A1,1,0,0,1,12,5Z"/><path class="cls-6" d="M17,5a1,1,0,0,1-2,0A1,1,0,0,1,17,5Z"/><path class="cls-7" d="M41.5,43.26C39.34,45.26,38,47,38,50H26c0-3-1.32-4.73-3.47-6.7C13.37,34.88,19,19.59,31.32,19,44.46,18.4,51,34.52,41.5,43.26Z"/><path class="cls-8" d="M38.24,48A7.83,7.83,0,0,0,38,50H26a7.72,7.72,0,0,0-.24-2Z"/><path class="cls-9" d="M33,33H31a1,1,0,0,1,0-2h4a1,1,0,0,0,0-2H33V28a1,1,0,0,0-2,0v1a3,3,0,0,0,0,6h2a1,1,0,0,1,0,2H29a1,1,0,0,0,0,2h2v1a1,1,0,0,0,2,0V39a3,3,0,0,0,0-6Z"/><path class="cls-10" d="M26,50H38a0,0,0,0,1,0,0v7a3,3,0,0,1-3,3H29a3,3,0,0,1-3-3V50A0,0,0,0,1,26,50Z"/><path class="cls-11" d="M37.91,53.92c-.94,0,3.41.25-11.84-.84a1,1,0,0,1,.14-2L38,51.92A1,1,0,0,1,37.91,53.92Z"/><path class="cls-11" d="M37.86,57.92c-.93,0,3.42.25-11.84-.84a1,1,0,0,1,.14-2l11.77.84A1,1,0,0,1,37.86,57.92Z"/><path class="cls-11" d="M32,63c-2.12,0-2.59-1.78-3-3h6l-.37,1.1A2.77,2.77,0,0,1,32,63Z"/><path class="cls-9" d="M53,34H50a1,1,0,0,1,0-2h3A1,1,0,0,1,53,34Z"/><line class="cls-12" x1="11" y1="33" x2="14" y2="33"/><path class="cls-5" d="M53,34H50a1,1,0,0,1,0-2h3A1,1,0,0,1,53,34Z"/><path class="cls-5" d="M14,34H11a1,1,0,0,1,0-2h3A1,1,0,0,1,14,34Z"/><line class="cls-12" x1="32" y1="12" x2="32" y2="15"/><path class="cls-5" d="M31,15V12a1,1,0,0,1,2,0v3A1,1,0,0,1,31,15Z"/><path class="cls-9" d="M46.85,48.85c-.55,0-.57-.16-2.83-2.41A1,1,0,0,1,45.43,45l2.13,2.12A1,1,0,0,1,46.85,48.85Z"/><line class="cls-12" x1="17.15" y1="18.15" x2="19.27" y2="20.27"/><path class="cls-5" d="M46.85,48.85c-.55,0-.57-.16-2.83-2.41A1,1,0,0,1,45.43,45l2.13,2.12A1,1,0,0,1,46.85,48.85Z"/><path class="cls-5" d="M19.27,21.27c-.55,0-.57-.15-2.83-2.41a1,1,0,0,1,1.42-1.42L20,19.56A1,1,0,0,1,19.27,21.27Z"/><line class="cls-12" x1="19.27" y1="45.73" x2="17.15" y2="47.85"/><line class="cls-12" x1="46.85" y1="18.15" x2="44.73" y2="20.27"/><path class="cls-5" d="M17.15,48.85a1,1,0,0,1-.71-1.71L18.57,45A1,1,0,0,1,20,46.44C17.67,48.74,17.69,48.85,17.15,48.85Z"/><path class="cls-5" d="M44.73,21.27A1,1,0,0,1,44,19.56l2.12-2.12a1,1,0,0,1,1.42,1.42C45.25,21.16,45.27,21.27,44.73,21.27Z"/></g></svg>