<svg xmlns="http://www.w3.org/2000/svg" xmlns:xlink="http://www.w3.org/1999/xlink" viewBox="0 0 64 64"><defs><style>.cls-1{fill:url(#linear-gradient);}.cls-2{fill:url(#linear-gradient-2);}.cls-3{fill:#aae0e5;}.cls-4{fill:#77cacb;}.cls-5{fill:url(#linear-gradient-3);}.cls-6{fill:#c7cdd8;}.cls-7{fill:url(#linear-gradient-4);}.cls-8{fill:#cf4055;}.cls-9{fill:#dd8b37;}.cls-10{fill:#7ece67;}.cls-11{fill:url(#linear-gradient-5);}.cls-12{fill:#8288a1;}.cls-13{fill:#d7dbe2;}.cls-14{fill:#e8677d;}.cls-15{fill:url(#linear-gradient-6);}.cls-16{fill:url(#linear-gradient-7);}.cls-17{fill:url(#linear-gradient-8);}.cls-18{fill:url(#linear-gradient-9);}.cls-19{fill:#9ca0ad;}</style><linearGradient id="linear-gradient" x1="32" y1="55" x2="32" y2="15" gradientUnits="userSpaceOnUse"><stop offset="0" stop-color="#a0a6ba"/><stop offset="1" stop-color="#c6ccda"/></linearGradient><linearGradient id="linear-gradient-2" x1="32" y1="51" x2="32" y2="19" gradientUnits="userSpaceOnUse"><stop offset="0" stop-color="#9dd5df"/><stop offset="1" stop-color="#c3e1f5"/></linearGradient><linearGradient id="linear-gradient-3" x1="32" y1="51" x2="32" y2="1" gradientUnits="userSpaceOnUse"><stop offset="0" stop-color="#d4d8e1"/><stop offset="1" stop-color="#f3f4f5"/></linearGradient><linearGradient id="linear-gradient-4" y1="7" y2="1" xlink:href="#linear-gradient"/><linearGradient id="linear-gradient-5" y1="63" y2="55" xlink:href="#linear-gradient"/><linearGradient id="linear-gradient-6" x1="30" y1="32.99" x2="30" y2="22.01" gradientUnits="userSpaceOnUse"><stop offset="0" stop-color="#fbcc88"/><stop offset="1" stop-color="#ffe5c3"/></linearGradient><linearGradient id="linear-gradient-7" x1="25" y1="32.99" x2="25" y2="27.01" xlink:href="#linear-gradient-6"/><linearGradient id="linear-gradient-8" x1="35" y1="32.99" x2="35" y2="25.01" xlink:href="#linear-gradient-6"/><linearGradient id="linear-gradient-9" x1="40" y1="32.99" x2="40" y2="20.01" xlink:href="#linear-gradient-6"/></defs><title>Data Analytic</title><g id="Data_Analytic" data-name="Data Analytic"><path class="cls-1" d="M8,15a3,3,0,0,0-3,3V55H59V18a3,3,0,0,0-3-3Z"/><path class="cls-2" d="M55,19V51H9V19Z"/><path class="cls-3" d="M55,19v2H9V19Z"/><path class="cls-4" d="M55,49v2H9V49Z"/><rect class="cls-5" x="14" y="1" width="36" height="50"/><rect class="cls-6" x="14" y="49" width="36" height="2"/><rect class="cls-7" x="14" y="1" width="36" height="6"/><path class="cls-8" d="M19,4a1,1,0,0,1-2,0A1,1,0,0,1,19,4Z"/><path class="cls-9" d="M23,4a1,1,0,0,1-2,0A1,1,0,0,1,23,4Z"/><path class="cls-10" d="M27,4a1,1,0,0,1-2,0A1,1,0,0,1,27,4Z"/><path class="cls-11" d="M3,55H61a2,2,0,0,1,2,2v2a4,4,0,0,1-4,4H5a4,4,0,0,1-4-4V57A2,2,0,0,1,3,55Z"/><path class="cls-12" d="M63,57v2a4,4,0,0,1-4,4H5a4,4,0,0,1-4-4V57a4,4,0,0,0,4,4H59A4,4,0,0,0,63,57Z"/><polygon class="cls-13" points="40 58 24 58 22 55 42 55 40 58"/><rect class="cls-12" x="5" y="53" width="54" height="2"/><path class="cls-14" d="M39,11a1,1,0,0,0,0,2h1.59L34,19.59l-3.29-3.3a1,1,0,0,0-1.42,0l-10,10A1,1,0,0,0,20,28c.59,0-.08.49,10-9.59l3.29,3.3a1,1,0,0,0,1.42,0L42,14.41V16a1,1,0,0,0,2,0C44,10.13,44.94,11,39,11Z"/><path class="cls-15" d="M29,32V23a1,1,0,0,1,2,0v9A1,1,0,0,1,29,32Z"/><path class="cls-16" d="M24,32V28a1,1,0,0,1,2,0v4A1,1,0,0,1,24,32Z"/><path class="cls-17" d="M34,32V26a1,1,0,0,1,2,0v6A1,1,0,0,1,34,32Z"/><path class="cls-18" d="M39,32V21a1,1,0,0,1,2,0V32A1,1,0,0,1,39,32Z"/><path class="cls-19" d="M44,39H24a1,1,0,0,1,0-2H44A1,1,0,0,1,44,39Z"/><path class="cls-19" d="M44,43H24a1,1,0,0,1,0-2H44A1,1,0,0,1,44,43Z"/><path class="cls-19" d="M44,47H24a1,1,0,0,1,0-2H44A1,1,0,0,1,44,47Z"/><path class="cls-19" d="M21,38a1,1,0,0,1-2,0A1,1,0,0,1,21,38Z"/><path class="cls-19" d="M21,42a1,1,0,0,1-2,0A1,1,0,0,1,21,42Z"/><path class="cls-19" d="M21,46a1,1,0,0,1-2,0A1,1,0,0,1,21,46Z"/><path class="cls-12" d="M44,33H20a1,1,0,0,1-1-1V12a1,1,0,0,1,2,0V31H44A1,1,0,0,1,44,33Z"/></g></svg>