<svg xmlns="http://www.w3.org/2000/svg" viewBox="0 0 128 128"><defs><style>.cls-1{fill:#9dd5df;}.cls-2{fill:#77cacb;}.cls-3{fill:#dde1e8;}.cls-4{fill:#f6b756;}.cls-5{fill:#949aaf;}.cls-6{fill:#c7cdd8;}</style></defs><title>Data Not Avaible</title><g id="Data_Not_Avaible" data-name="Data Not Avaible"><path class="cls-1" d="M110,78a17,17,0,0,0,0-34h-3.52c6.39-14.25-8.1-28.59-22-22.68A33,33,0,0,0,21,34.08,22,22,0,0,0,23,78Z"/><path class="cls-2" d="M110,78H23A22,22,0,0,1,1.28,52.55,22,22,0,0,0,23,71h87a17,17,0,0,0,16.64-13.54A17,17,0,0,1,110,78Z"/><polygon class="cls-3" points="95 63 95 127 33 127 33 49 81 49 95 63"/><path class="cls-4" d="M63,102V98.36a9,9,0,0,1,5.15-8.27A10,10,0,0,0,73.53,84c1.36-4.37-.63-9.47-3.52-11.2-7.83-4.69-16,.71-16,8.22a1,1,0,0,1-2,0c0-9,9.81-15.51,19.08-10C77.72,75,78.27,87.72,69,92a7,7,0,0,0-4,6.41V102A1,1,0,0,1,63,102Z"/><path class="cls-4" d="M64,111a2,2,0,1,1,2-2A2,2,0,0,1,64,111Zm0-2a0,0,0,0,0,0,0C65.33,109,65.35,109,64,109Z"/><polygon class="cls-5" points="95 63 81 63 81 49 95 63"/><rect class="cls-6" x="33" y="122" width="62" height="5"/></g></svg>