<svg xmlns="http://www.w3.org/2000/svg" xmlns:xlink="http://www.w3.org/1999/xlink" viewBox="0 0 64 64"><defs><style>.cls-1{fill:url(#linear-gradient);}.cls-2{fill:url(#linear-gradient-2);}.cls-3{fill:#fff2e3;}.cls-4{fill:#aae0e5;}.cls-5{fill:#77cacb;}.cls-6{fill:url(#linear-gradient-3);}.cls-7{fill:#8288a1;}.cls-8{fill:#d7dbe2;}.cls-9{fill:url(#linear-gradient-4);}.cls-10{fill:#5b8dc9;}.cls-11{fill:url(#linear-gradient-5);}.cls-12{fill:url(#linear-gradient-6);}.cls-13{fill:#d3e0ef;}.cls-14{fill:url(#linear-gradient-7);}.cls-15{fill:url(#linear-gradient-8);}.cls-16{fill:url(#linear-gradient-9);}.cls-17{fill:url(#linear-gradient-10);}</style><linearGradient id="linear-gradient" x1="32" y1="55" x2="32" y2="15" gradientUnits="userSpaceOnUse"><stop offset="0" stop-color="#a0a6ba"/><stop offset="1" stop-color="#c6ccda"/></linearGradient><linearGradient id="linear-gradient-2" x1="32" y1="51" x2="32" y2="19" gradientUnits="userSpaceOnUse"><stop offset="0" stop-color="#9dd5df"/><stop offset="1" stop-color="#c3e1f5"/></linearGradient><linearGradient id="linear-gradient-3" y1="63" y2="55" xlink:href="#linear-gradient"/><linearGradient id="linear-gradient-4" x1="32" y1="33" x2="32" y2="21" gradientUnits="userSpaceOnUse"><stop offset="0" stop-color="#7aa8d7"/><stop offset="1" stop-color="#c3d2e7"/></linearGradient><linearGradient id="linear-gradient-5" y1="25" y2="13" xlink:href="#linear-gradient-4"/><linearGradient id="linear-gradient-6" y1="17" y2="5" xlink:href="#linear-gradient-4"/><linearGradient id="linear-gradient-7" y1="9" y2="1" xlink:href="#linear-gradient-4"/><linearGradient id="linear-gradient-8" x1="16" y1="46" x2="16" y2="42" gradientUnits="userSpaceOnUse"><stop offset="0" stop-color="#e9a254"/><stop offset="1" stop-color="#f4bb79"/></linearGradient><linearGradient id="linear-gradient-9" x1="32" x2="32" xlink:href="#linear-gradient-8"/><linearGradient id="linear-gradient-10" x1="48" x2="48" xlink:href="#linear-gradient-8"/></defs><title>Database</title><g id="Database"><path class="cls-1" d="M8,15a3,3,0,0,0-3,3V55H59V18a3,3,0,0,0-3-3Z"/><path class="cls-2" d="M55,19V51H9V19Z"/><path class="cls-3" d="M31,42V33a1,1,0,0,1,2,0v9A1,1,0,0,1,31,42Z"/><path class="cls-3" d="M15,42V38a1,1,0,0,1,1-1H26V33a1,1,0,0,1,2,0v5a1,1,0,0,1-1,1H17v3A1,1,0,0,1,15,42Z"/><path class="cls-3" d="M47,42V39H37a1,1,0,0,1-1-1V33a1,1,0,0,1,2,0v4H48a1,1,0,0,1,1,1v4A1,1,0,0,1,47,42Z"/><path class="cls-4" d="M55,19v2H9V19Z"/><path class="cls-5" d="M55,49v2H9V49Z"/><path class="cls-6" d="M3,55H61a2,2,0,0,1,2,2v2a4,4,0,0,1-4,4H5a4,4,0,0,1-4-4V57A2,2,0,0,1,3,55Z"/><path class="cls-7" d="M63,57v2a4,4,0,0,1-4,4H5a4,4,0,0,1-4-4V57a4,4,0,0,0,4,4H59A4,4,0,0,0,63,57Z"/><polygon class="cls-8" points="40 58 24 58 22 55 42 55 40 58"/><rect class="cls-7" x="5" y="53" width="54" height="2"/><path class="cls-9" d="M48,21v8c0,2.21-7.16,4-16,4s-16-1.79-16-4V21c0,2.21,7.16,4,16,4S48,23.21,48,21Z"/><path class="cls-10" d="M48,27v2c0,2.21-7.16,4-16,4s-16-1.79-16-4V27c0,2.21,7.16,4,16,4S48,29.21,48,27Z"/><path class="cls-11" d="M48,13v8c0,2.21-7.16,4-16,4s-16-1.79-16-4V13c0,2.21,7.16,4,16,4S48,15.21,48,13Z"/><path class="cls-12" d="M48,5v8c0,2.21-7.16,4-16,4s-16-1.79-16-4V5c0,2.21,7.16,4,16,4S48,7.21,48,5Z"/><path class="cls-13" d="M33,12a1,1,0,0,1-2,0A1,1,0,0,1,33,12Z"/><path class="cls-13" d="M37,12a1,1,0,0,1-2,0A1,1,0,0,1,37,12Z"/><path class="cls-13" d="M29,12a1,1,0,0,1-2,0A1,1,0,0,1,29,12Z"/><path class="cls-13" d="M33,20a1,1,0,0,1-2,0A1,1,0,0,1,33,20Z"/><path class="cls-13" d="M37,20a1,1,0,0,1-2,0A1,1,0,0,1,37,20Z"/><path class="cls-13" d="M29,20a1,1,0,0,1-2,0A1,1,0,0,1,29,20Z"/><path class="cls-13" d="M33,28a1,1,0,0,1-2,0A1,1,0,0,1,33,28Z"/><path class="cls-13" d="M37,28a1,1,0,0,1-2,0A1,1,0,0,1,37,28Z"/><path class="cls-13" d="M29,28a1,1,0,0,1-2,0A1,1,0,0,1,29,28Z"/><ellipse class="cls-14" cx="32" cy="5" rx="16" ry="4"/><circle class="cls-15" cx="16" cy="44" r="2"/><circle class="cls-16" cx="32" cy="44" r="2"/><circle class="cls-17" cx="48" cy="44" r="2"/></g></svg>