<svg id="Data_User" data-name="Data User" xmlns="http://www.w3.org/2000/svg" viewBox="0 0 128 128"><defs><style>.cls-1{fill:#dde1e8;}.cls-2{fill:#c7cdd8;}.cls-3{fill:#7aa8d7;}.cls-4{fill:#5b8dc9;}.cls-5{fill:#9dd5df;}.cls-6{fill:#77cacb;}.cls-7{fill:#42455e;}.cls-8{fill:#adb3c4;}</style></defs><title>Data User</title><path class="cls-1" d="M113,107v16a4,4,0,0,1-4,4H23.31A8.21,8.21,0,0,1,15,119.57,8,8,0,0,1,23,111h86A4,4,0,0,0,113,107Z"/><path class="cls-2" d="M113,118v5a4,4,0,0,1-4,4H23.31c-5.57,0-9.69-5.27-7.9-10.51a8.33,8.33,0,0,0,7.9,5.51H109A4,4,0,0,0,113,118Z"/><path class="cls-3" d="M113,5V107a4,4,0,0,1-4,4H23a8,8,0,0,0-7,4.06C14.48,117.55,15,145,15,9a8,8,0,0,1,8-8h86A4,4,0,0,1,113,5Z"/><path class="cls-4" d="M113,101v6a4,4,0,0,1-4,4H23a8,8,0,0,0-8,8c0-5.23-.51-8.41,1.83-11.09A8,8,0,0,1,23,105h86A4,4,0,0,0,113,101Z"/><path class="cls-1" d="M88.56,69.5h0C67.92,86.94,36,72.2,36,45A32,32,0,0,1,68,13C97.91,13,111.3,50.45,88.56,69.5Z"/><path class="cls-2" d="M88.56,69.5h0C67,87.72,33.75,70.74,36.1,42.46a32,32,0,0,0,63.8,0A31.88,31.88,0,0,1,88.56,69.5Z"/><path class="cls-5" d="M88.53,69.51a31.86,31.86,0,0,1-41.06,0C53.29,44.81,82.72,44.85,88.53,69.51Z"/><circle class="cls-5" cx="68" cy="39" r="12"/><path class="cls-6" d="M68,51A12,12,0,0,1,56.17,37a12,12,0,0,0,23.66,0A12,12,0,0,1,68,51Z"/><path class="cls-7" d="M25,1V111H23a8,8,0,0,0-8,8V9a8,8,0,0,1,8-8Z"/><path class="cls-8" d="M96.5,89h-56a1,1,0,0,1,0-2h56A1,1,0,0,1,96.5,89Z"/><path class="cls-8" d="M96.5,101h-56a1,1,0,0,1,0-2h56A1,1,0,0,1,96.5,101Z"/><path class="cls-7" d="M25,105v6H23a8,8,0,0,0-8,8c0-5.53-.57-8.75,2.34-11.66C20,104.74,22.71,105,25,105Z"/><path class="cls-6" d="M88.53,69.51a31.86,31.86,0,0,1-41.06,0,30.73,30.73,0,0,1,1.24-4,31.86,31.86,0,0,0,38.58,0A30.73,30.73,0,0,1,88.53,69.51Z"/></svg>