<svg xmlns="http://www.w3.org/2000/svg" viewBox="0 0 128 128"><defs><style>.cls-1{fill:#575f7c;}.cls-2{fill:#949aaf;}.cls-3{fill:#8288a1;}.cls-4{fill:#adb3c4;}</style></defs><title>Delete</title><g id="Delete"><path class="cls-1" d="M45.5,19l-.71-4.07a9.89,9.89,0,0,1,8-11.46l13-2.3a9.9,9.9,0,0,1,11.46,8L78,13.22a1,1,0,0,1-2,.35l-.72-4.06a7.85,7.85,0,0,0-9.09-6.37l-13,2.3a7.87,7.87,0,0,0-6.38,9.1l.72,4.06A1,1,0,0,1,45.5,19Z"/><path class="cls-2" d="M105,39c-.49,7.17.37-5.45-5.62,82.41a6,6,0,0,1-6,5.59H34.6a6,6,0,0,1-6-5.59C22.63,33.55,23.48,46.07,23,39Z"/><path class="cls-3" d="M99.62,118l-.24,3.45a6,6,0,0,1-6,5.59H34.6a6,6,0,0,1-6-5.59L28.38,118a6,6,0,0,0,5.22,3H94.4A6,6,0,0,0,99.62,118Z"/><path class="cls-2" d="M107.53,17.17,20.47,32.53c.2-4.76.15-3.56.23-5.42a6,6,0,0,1,4.95-5.65L98.88,8.55a6,6,0,0,1,6.58,3.62Z"/><polygon class="cls-3" points="107.53 17.17 20.47 32.53 20.64 28.51 106 13.47 107.53 17.17"/><path class="cls-1" d="M63,107V55a1,1,0,0,1,2,0v52A1,1,0,0,1,63,107Z"/><path class="cls-1" d="M80,106.92l4-52a1,1,0,0,1,2,.16l-4,52A1,1,0,0,1,80,106.92Z"/><path class="cls-1" d="M46,107.08l-4-52a1,1,0,0,1,2-.16l4,52A1,1,0,0,1,46,107.08Z"/><path class="cls-2" d="M114,48V61H103.5l.89-13Z"/><polyline class="cls-2" points="23.61 48 14 48 14 61 24.5 61"/><polygon class="cls-3" points="114 56 114 61 103.5 61 103.84 56 114 56"/><polygon class="cls-3" points="14 56 14 61 24.5 61 24.16 56 14 56"/><polygon class="cls-4" points="105 39 104.66 44 23.34 44 23 39 105 39"/></g></svg>