<svg xmlns="http://www.w3.org/2000/svg" xmlns:xlink="http://www.w3.org/1999/xlink" viewBox="0 0 64 64"><defs><style>.cls-1{fill:#8288a1;}.cls-2{fill:url(#linear-gradient);}.cls-3{fill:url(#linear-gradient-2);}.cls-4{fill:#5b8dc9;}.cls-5{fill:url(#linear-gradient-3);}.cls-6{fill:url(#linear-gradient-4);}.cls-7{fill:url(#linear-gradient-5);}.cls-8{fill:url(#linear-gradient-6);}.cls-9{fill:#adb3c4;}</style><linearGradient id="linear-gradient" x1="15.81" y1="24" x2="15.81" y2="41" gradientUnits="userSpaceOnUse"><stop offset="0" stop-color="#949aaf"/><stop offset="1" stop-color="#c6ccda"/></linearGradient><linearGradient id="linear-gradient-2" x1="36" y1="41" x2="36" y2="35" gradientUnits="userSpaceOnUse"><stop offset="0" stop-color="#7aa8d7"/><stop offset="1" stop-color="#c3d2e7"/></linearGradient><linearGradient id="linear-gradient-3" x1="36" y1="35" x2="36" y2="1" xlink:href="#linear-gradient-2"/><linearGradient id="linear-gradient-4" x1="10" y1="24" x2="42" y2="24" gradientUnits="userSpaceOnUse"><stop offset="0" stop-color="#d4d8e1"/><stop offset="1" stop-color="#f3f4f5"/></linearGradient><linearGradient id="linear-gradient-5" x1="24" y1="63" x2="24" xlink:href="#linear-gradient"/><linearGradient id="linear-gradient-6" x1="48" y1="63" x2="48" xlink:href="#linear-gradient"/></defs><title>Deskchair</title><g id="Deskchair"><path class="cls-1" d="M46,53H26a1,1,0,0,1,0-2H46A1,1,0,0,1,46,53Z"/><path class="cls-2" d="M20.62,41H15.43A5.43,5.43,0,0,1,10,35.57c0-1.16,0-.92,3.21-10.87a1,1,0,0,1,1.91.6C11.88,35.44,12,34.84,12,35.57A3.44,3.44,0,0,0,15.43,39h5.19A1,1,0,0,1,20.62,41Z"/><path class="cls-3" d="M52,41H20c-3.4,0-2.27-6,2-6H50C54.28,35,55.38,41,52,41Z"/><path class="cls-4" d="M52,41H20c-1.35,0-2.43-1.24-1.82-3.18A2,2,0,0,0,20,39c33.2,0,33.14.47,33.82-1.18C54.43,39.76,53.34,41,52,41Z"/><path class="cls-5" d="M20.9,22l1-10.19A12,12,0,0,1,33.86,1h4.28A12,12,0,0,1,50.08,11.81C52.13,32.36,52,30.54,52,31.36A3.64,3.64,0,0,1,48.36,35H23.64A3.64,3.64,0,0,1,20,31.34c0-1-.05.1.5-5.34"/><path class="cls-4" d="M52,31.36A3.64,3.64,0,0,1,48.36,35H23.64A3.64,3.64,0,0,1,20,31.34a17.82,17.82,0,0,1,.15-1.92A3.66,3.66,0,0,0,23.64,32H48.36a3.65,3.65,0,0,0,3.48-2.56C52,30.71,52,30.64,52,31.36Z"/><rect class="cls-6" x="10" y="22" width="32" height="4"/><rect class="cls-7" x="22" y="41" width="4" height="22"/><rect class="cls-8" x="46" y="41" width="4" height="22"/><rect class="cls-9" x="22" y="41" width="4" height="2"/><rect class="cls-9" x="46" y="41" width="4" height="2"/><rect class="cls-1" x="22" y="60" width="4" height="3"/><rect class="cls-1" x="46" y="60" width="4" height="3"/></g></svg>