<svg xmlns="http://www.w3.org/2000/svg" xmlns:xlink="http://www.w3.org/1999/xlink" viewBox="0 0 64 64"><defs><style>.cls-1{fill:url(#linear-gradient);}.cls-2{fill:#c7cdd8;}.cls-3{fill:url(#linear-gradient-2);}.cls-4{fill:#cf4055;}.cls-5{fill:#f6b756;}.cls-6{fill:#7ece67;}.cls-7{fill:url(#linear-gradient-3);}.cls-8{fill:url(#linear-gradient-4);}.cls-9{fill:#5b8dc9;}.cls-10{fill:url(#linear-gradient-5);}.cls-11{fill:url(#linear-gradient-6);}.cls-12{fill:url(#linear-gradient-7);}.cls-13{fill:#9ca0ad;}.cls-14{fill:url(#linear-gradient-8);}.cls-15{fill:#ffd39f;}.cls-16{fill:#d7f1ff;}.cls-17{fill:#fff;}</style><linearGradient id="linear-gradient" x1="32" y1="59" x2="32" y2="5" gradientUnits="userSpaceOnUse"><stop offset="0" stop-color="#d4d8e1"/><stop offset="1" stop-color="#f3f4f5"/></linearGradient><linearGradient id="linear-gradient-2" x1="32" y1="13" x2="32" y2="5" gradientUnits="userSpaceOnUse"><stop offset="0" stop-color="#a0a6ba"/><stop offset="1" stop-color="#c6ccda"/></linearGradient><linearGradient id="linear-gradient-3" x1="49" y1="59" x2="49" y2="13" gradientUnits="userSpaceOnUse"><stop offset="0" stop-color="#474f72"/><stop offset="1" stop-color="#878c9f"/></linearGradient><linearGradient id="linear-gradient-4" x1="17.5" y1="27" x2="17.5" y2="18" gradientTransform="translate(35 45) rotate(-180)" gradientUnits="userSpaceOnUse"><stop offset="0" stop-color="#7aa8d7"/><stop offset="1" stop-color="#c3d2e7"/></linearGradient><linearGradient id="linear-gradient-5" x1="26.5" y1="37" x2="26.5" y2="32" gradientTransform="matrix(1, 0, 0, 1, 0, 0)" xlink:href="#linear-gradient-4"/><linearGradient id="linear-gradient-6" x1="17.5" y1="37" x2="17.5" y2="32" gradientTransform="matrix(1, 0, 0, 1, 0, 0)" xlink:href="#linear-gradient-4"/><linearGradient id="linear-gradient-7" x1="8.5" y1="37" x2="8.5" y2="32" gradientTransform="matrix(1, 0, 0, 1, 0, 0)" xlink:href="#linear-gradient-4"/><linearGradient id="linear-gradient-8" x1="6" y1="52" x2="29" y2="52" xlink:href="#linear-gradient-2"/></defs><title>Development</title><g id="Development"><path class="cls-1" d="M63,59V5H1V59Z"/><path class="cls-2" d="M63,59V57H1v2Z"/><rect class="cls-3" x="1" y="5" width="62" height="8"/><path class="cls-4" d="M7,9A1,1,0,0,1,5,9,1,1,0,0,1,7,9Z"/><path class="cls-5" d="M12,9a1,1,0,0,1-2,0A1,1,0,0,1,12,9Z"/><path class="cls-6" d="M17,9a1,1,0,0,1-2,0A1,1,0,0,1,17,9Z"/><rect class="cls-7" x="35" y="13" width="28" height="46"/><path class="cls-5" d="M33,63V1a1,1,0,0,1,2,0V63A1,1,0,0,1,33,63Z"/><rect class="cls-8" x="6" y="18" width="23" height="9" transform="translate(35 45) rotate(180)"/><rect class="cls-9" x="6" y="25" width="23" height="2" transform="translate(35 52) rotate(180)"/><circle class="cls-10" cx="26.5" cy="34.5" r="2.5"/><circle class="cls-11" cx="17.5" cy="34.5" r="2.5"/><circle class="cls-12" cx="8.5" cy="34.5" r="2.5"/><path class="cls-13" d="M29,42H24a1,1,0,0,1,0-2h5A1,1,0,0,1,29,42Z"/><path class="cls-13" d="M29,46H24a1,1,0,0,1,0-2h5A1,1,0,0,1,29,46Z"/><path class="cls-13" d="M20,42H15a1,1,0,0,1,0-2h5A1,1,0,0,1,20,42Z"/><path class="cls-13" d="M20,46H15a1,1,0,0,1,0-2h5A1,1,0,0,1,20,46Z"/><path class="cls-13" d="M11,42H6a1,1,0,0,1,0-2h5A1,1,0,0,1,11,42Z"/><path class="cls-13" d="M11,46H6a1,1,0,0,1,0-2h5A1,1,0,0,1,11,46Z"/><rect class="cls-14" x="6" y="50" width="23" height="4"/><path class="cls-15" d="M42,27c-.56,0-.3.12-4.71-4.29a1,1,0,0,1,0-1.42l4-4a1,1,0,0,1,1.42,1.42L39.41,22l3.3,3.29A1,1,0,0,1,42,27Z"/><path class="cls-15" d="M55,27a1,1,0,0,1-.71-1.71L57.59,22l-3.3-3.29a1,1,0,0,1,1.42-1.42l4,4a1,1,0,0,1,0,1.42C55.34,27.08,55.56,27,55,27Z"/><path class="cls-15" d="M46,27a1,1,0,0,1-.85-1.53l5-8a1,1,0,0,1,1.7,1.06C46.54,27,46.77,27,46,27Z"/><path class="cls-16" d="M59,33H38a1,1,0,0,1,0-2H59A1,1,0,0,1,59,33Z"/><path class="cls-17" d="M52,38H38a1,1,0,0,1,0-2H52A1,1,0,0,1,52,38Z"/><path class="cls-17" d="M56,43H38a1,1,0,0,1,0-2H56A1,1,0,0,1,56,43Z"/><path class="cls-16" d="M59,48H38a1,1,0,0,1,0-2H59A1,1,0,0,1,59,48Z"/><path class="cls-17" d="M54,53H38a1,1,0,0,1,0-2H54A1,1,0,0,1,54,53Z"/></g></svg>