<svg xmlns="http://www.w3.org/2000/svg" xmlns:xlink="http://www.w3.org/1999/xlink" viewBox="0 0 64 64"><defs><style>.cls-1{fill:url(#linear-gradient);}.cls-2{fill:url(#linear-gradient-2);}.cls-3{fill:#aae0e5;}.cls-4{fill:#77cacb;}.cls-5{fill:url(#linear-gradient-3);}.cls-6{fill:#8288a1;}.cls-7{fill:#d7dbe2;}.cls-8{fill:url(#linear-gradient-4);}.cls-9{fill:url(#linear-gradient-5);}.cls-10{fill:url(#linear-gradient-6);}.cls-11{fill:#9ca0ad;}.cls-12{fill:#5b8dc9;}</style><linearGradient id="linear-gradient" x1="32" y1="55" x2="32" y2="15" gradientUnits="userSpaceOnUse"><stop offset="0" stop-color="#a0a6ba"/><stop offset="1" stop-color="#c6ccda"/></linearGradient><linearGradient id="linear-gradient-2" x1="32" y1="51" x2="32" y2="19" gradientUnits="userSpaceOnUse"><stop offset="0" stop-color="#9dd5df"/><stop offset="1" stop-color="#c3e1f5"/></linearGradient><linearGradient id="linear-gradient-3" x1="32" y1="63" x2="32" y2="55" xlink:href="#linear-gradient"/><linearGradient id="linear-gradient-4" x1="50" y1="4.5" x2="60" y2="4.5" xlink:href="#linear-gradient"/><linearGradient id="linear-gradient-5" x1="34.5" y1="51" x2="34.5" y2="1" gradientUnits="userSpaceOnUse"><stop offset="0" stop-color="#d4d8e1"/><stop offset="1" stop-color="#f3f4f5"/></linearGradient><linearGradient id="linear-gradient-6" x1="22" y1="12" x2="22" y2="6" gradientUnits="userSpaceOnUse"><stop offset="0" stop-color="#fbcc88"/><stop offset="1" stop-color="#ffe5c3"/></linearGradient></defs><title>Digital Agreement</title><g id="Digital_Agreement" data-name="Digital Agreement"><path class="cls-1" d="M8,15a3,3,0,0,0-3,3V55H59V18a3,3,0,0,0-3-3Z"/><path class="cls-2" d="M55,19V51H9V19Z"/><path class="cls-3" d="M55,19v2H9V19Z"/><path class="cls-4" d="M55,49v2H9V49Z"/><path class="cls-5" d="M3,55H61a2,2,0,0,1,2,2v2a4,4,0,0,1-4,4H5a4,4,0,0,1-4-4V57A2,2,0,0,1,3,55Z"/><path class="cls-6" d="M63,57v2a4,4,0,0,1-4,4H5a4,4,0,0,1-4-4V57a4,4,0,0,0,4,4H59A4,4,0,0,0,63,57Z"/><polygon class="cls-7" points="40 58 24 58 22 55 42 55 40 58"/><rect class="cls-6" x="5" y="53" width="54" height="2"/><path class="cls-8" d="M60,6V8H50V6A5,5,0,0,1,60,6Z"/><path class="cls-9" d="M55,1a5,5,0,0,0-5,5V51H14V6a5,5,0,0,1,5-5Z"/><circle class="cls-10" cx="22" cy="9" r="3"/><path class="cls-11" d="M37,10H29a1,1,0,0,1,0-2h8A1,1,0,0,1,37,10Z"/><path class="cls-11" d="M45,19H24a1,1,0,0,1,0-2H45A1,1,0,0,1,45,19Z"/><path class="cls-11" d="M45,24H19a1,1,0,0,1,0-2H45A1,1,0,0,1,45,24Z"/><path class="cls-11" d="M45,29H19a1,1,0,0,1,0-2H45A1,1,0,0,1,45,29Z"/><path class="cls-11" d="M39,34H19a1,1,0,0,1,0-2H39A1,1,0,0,1,39,34Z"/><path class="cls-12" d="M26.26,41.56l-3.5,4.09a1,1,0,0,1-1.52-1.3l6-7a1,1,0,0,1,1.73.89,26,26,0,0,0-.86,5.56,18.29,18.29,0,0,0,3.18-2.51,1,1,0,0,1,1.6.26l.38.76,1-1A1,1,0,0,1,36,42s.06,2,1,2h7a1,1,0,0,1,0,2H37a2.77,2.77,0,0,1-2.62-2c-.79.79-1,1-1.54,1s-.73-.52-1.14-1.36C27.48,47.27,25.53,47,26.26,41.56Z"/></g></svg>