<svg xmlns="http://www.w3.org/2000/svg" xmlns:xlink="http://www.w3.org/1999/xlink" viewBox="0 0 64 64"><defs><style>.cls-1{fill:url(#linear-gradient);}.cls-2{fill:#c7cdd8;}.cls-3{fill:url(#linear-gradient-2);}.cls-4{fill:#cf4055;}.cls-5{fill:#f6b756;}.cls-6{fill:#7ece67;}.cls-7{fill:url(#linear-gradient-3);}.cls-8{fill:#8288a1;}.cls-9{fill:url(#linear-gradient-4);}.cls-10{fill:url(#linear-gradient-5);}.cls-11{fill:#5b8dc9;}.cls-12{fill:url(#linear-gradient-6);}.cls-13{fill:url(#linear-gradient-7);}.cls-14{fill:#86b8e0;}.cls-15{fill:url(#linear-gradient-8);}.cls-16{fill:#fff;}</style><linearGradient id="linear-gradient" x1="32" y1="63" x2="32" y2="1" gradientUnits="userSpaceOnUse"><stop offset="0" stop-color="#d4d8e1"/><stop offset="1" stop-color="#f3f4f5"/></linearGradient><linearGradient id="linear-gradient-2" x1="32" y1="9" x2="32" y2="1" gradientUnits="userSpaceOnUse"><stop offset="0" stop-color="#a0a6ba"/><stop offset="1" stop-color="#c6ccda"/></linearGradient><linearGradient id="linear-gradient-3" x1="16.02" y1="35.01" x2="16.02" y2="25" xlink:href="#linear-gradient-2"/><linearGradient id="linear-gradient-4" x1="35" y1="44" x2="35" y2="16" xlink:href="#linear-gradient-2"/><linearGradient id="linear-gradient-5" x1="23" y1="36" x2="23" y2="24" gradientTransform="translate(46 60) rotate(-180)" gradientUnits="userSpaceOnUse"><stop offset="0" stop-color="#7aa8d7"/><stop offset="1" stop-color="#c3d2e7"/></linearGradient><linearGradient id="linear-gradient-6" x1="42" y1="30" x2="46" y2="30" xlink:href="#linear-gradient-2"/><linearGradient id="linear-gradient-7" x1="25" y1="50" x2="25" y2="36" gradientTransform="matrix(1, 0, 0, 1, 0, 0)" xlink:href="#linear-gradient-5"/><linearGradient id="linear-gradient-8" x1="13.01" y1="57" x2="37.99" y2="57" gradientUnits="userSpaceOnUse"><stop offset="0" stop-color="#da5466"/><stop offset="1" stop-color="#f4929c"/></linearGradient></defs><title>Digital Marketing</title><g id="Digital_Marketing" data-name="Digital Marketing"><path class="cls-1" d="M63,63V1H1V63Z"/><path class="cls-2" d="M63,63V61H1v2Z"/><rect class="cls-3" x="1" y="1" width="62" height="8"/><path class="cls-4" d="M7,5A1,1,0,0,1,5,5,1,1,0,0,1,7,5Z"/><path class="cls-5" d="M12,5a1,1,0,0,1-2,0A1,1,0,0,1,12,5Z"/><path class="cls-6" d="M17,5a1,1,0,0,1-2,0A1,1,0,0,1,17,5Z"/><path class="cls-7" d="M18,35c.1,0,0,.6,0-10a4,4,0,0,0-4,4v2A4,4,0,0,0,18,35Z"/><path class="cls-8" d="M18,32v3a4,4,0,0,1-4-4c0-1.86,0-2.14,0-2.5A4,4,0,0,0,18,32Z"/><path class="cls-9" d="M42,16V44l-1.56-2.34A14.94,14.94,0,0,0,28,35V25a15,15,0,0,0,12.44-6.66Z"/><path class="cls-8" d="M42,42v2l-1.56-2.34A14.94,14.94,0,0,0,28,35V33a14.9,14.9,0,0,1,7.06,1.77C38.83,36.8,40.24,39.35,42,42Z"/><rect class="cls-10" x="18" y="24" width="10" height="12" transform="translate(46 60) rotate(180)"/><rect class="cls-11" x="18" y="34" width="10" height="2" transform="translate(46 70) rotate(180)"/><path class="cls-12" d="M42,44V16a2,2,0,0,1,4,0V44A2,2,0,0,1,42,44Z"/><path class="cls-13" d="M28.12,50h-3.6a1.88,1.88,0,0,1-1.84-1.48C20.24,37.12,20.81,39.77,20,36h6c2.17,10,1.88,9.82,3,10.47A1.88,1.88,0,0,1,28.12,50Z"/><polygon class="cls-2" points="46 26 50 28 50 32 46 34 46 26"/><polygon class="cls-14" points="26.65 39 20.64 39 20 36 26 36 26.65 39"/><path class="cls-4" d="M11,57c0,.73-.34.76-3.45,2.83a1,1,0,0,1-1,.05C5.83,59.52,6,59.16,6,55a1,1,0,0,1,1.55-.83C10.72,56.29,11,56.3,11,57Z"/><path class="cls-8" d="M57,58H41a1,1,0,0,1,0-2H57A1,1,0,0,1,57,58Z"/><path class="cls-15" d="M37,58H14a1,1,0,0,1,0-2H37A1,1,0,0,1,37,58Z"/><path class="cls-16" d="M36,58V56a1,1,0,0,1,2,0v2A1,1,0,0,1,36,58Z"/></g></svg>