<svg xmlns="http://www.w3.org/2000/svg" xmlns:xlink="http://www.w3.org/1999/xlink" viewBox="0 0 64 64"><defs><style>.cls-1{fill:url(#linear-gradient);}.cls-2{fill:#42455e;}.cls-3{fill:url(#linear-gradient-2);}.cls-4{fill:#dfe3ea;}.cls-5{fill:#9ca0ad;}.cls-6{fill:url(#linear-gradient-3);}.cls-7{fill:url(#linear-gradient-4);}</style><linearGradient id="linear-gradient" x1="32" y1="63" x2="32" y2="1" gradientUnits="userSpaceOnUse"><stop offset="0" stop-color="#474f72"/><stop offset="1" stop-color="#878c9f"/></linearGradient><linearGradient id="linear-gradient-2" x1="31.98" y1="51.02" x2="31.98" y2="13.01" gradientUnits="userSpaceOnUse"><stop offset="0" stop-color="#d4d8e1"/><stop offset="1" stop-color="#f3f4f5"/></linearGradient><linearGradient id="linear-gradient-3" x1="32" y1="40" x2="32" y2="24" gradientUnits="userSpaceOnUse"><stop offset="0" stop-color="#da5466"/><stop offset="1" stop-color="#f4929c"/></linearGradient><linearGradient id="linear-gradient-4" x1="29.5" y1="35" x2="29.5" y2="24" gradientUnits="userSpaceOnUse"><stop offset="0" stop-color="#7aa8d7"/><stop offset="1" stop-color="#c3d2e7"/></linearGradient></defs><title>Direction</title><g id="Direction"><path class="cls-1" d="M57.19,25.54l5.16-3-7-12.12-5.17,3A26,26,0,0,0,39,7V1H25V7a26,26,0,0,0-11.18,6.46l-5.17-3-7,12.12,5.16,3a26,26,0,0,0,0,12.92l-5.16,3,7,12.12,5.17-3A26,26,0,0,0,25,57v6H39V57a26,26,0,0,0,11.18-6.46l5.17,3,7-12.12-5.16-3A26,26,0,0,0,57.19,25.54Z"/><path class="cls-2" d="M57.19,38.46l5.16,3-7,12.12-5.17-3A26,26,0,0,1,39,57v6H25V57a26,26,0,0,1-11.18-6.46l-5.17,3-7-12.12,5.16-3a26.45,26.45,0,0,1-.77-8A26,26,0,0,0,58,30.5,26.19,26.19,0,0,1,57.19,38.46Z"/><path class="cls-3" d="M51,32c0,17.38-21.5,25.62-33.12,12.71C6.82,32.44,15.53,12.49,33,13A19,19,0,0,1,51,32Z"/><path class="cls-4" d="M51,33a19,19,0,0,0-38,0,19,19,0,1,1,38,0Z"/><path class="cls-5" d="M33,13v4a1,1,0,0,1-2,0V13C31.88,13,32.12,13,33,13Z"/><path class="cls-5" d="M33,47v4c-.88,0-1.12,0-2,0V47A1,1,0,0,1,33,47Z"/><path class="cls-5" d="M51,33H47a1,1,0,0,1,0-2h4C51,31.88,51,32.12,51,33Z"/><path class="cls-5" d="M17,33H13c0-.88,0-1.12,0-2h4A1,1,0,0,1,17,33Z"/><path class="cls-5" d="M46.12,19.29C44.63,20.79,44.56,21,44,21a1,1,0,0,1-.71-1.71l1.4-1.39A18.76,18.76,0,0,1,46.12,19.29Z"/><path class="cls-5" d="M20.69,44.73l-1.4,1.39a18.76,18.76,0,0,1-1.41-1.41l1.39-1.4A1,1,0,0,1,20.69,44.73Z"/><path class="cls-5" d="M19.27,20.69l-1.39-1.4a18.76,18.76,0,0,1,1.41-1.41l1.4,1.39A1,1,0,0,1,19.27,20.69Z"/><path class="cls-5" d="M46.12,44.71a18.76,18.76,0,0,1-1.41,1.41l-1.4-1.39a1,1,0,0,1,1.42-1.42Z"/><polygon class="cls-6" points="40 40 29 35 24 24 35 29 40 40"/><polygon class="cls-7" points="29 35 24 24 35 29 29 35"/></g></svg>