<svg id="Discussion_Class" data-name="Discussion Class" xmlns="http://www.w3.org/2000/svg" xmlns:xlink="http://www.w3.org/1999/xlink" viewBox="0 0 64 64"><defs><style>.cls-1{fill:url(#linear-gradient);}.cls-2{fill:#f6b756;}.cls-3{fill:url(#linear-gradient-2);}.cls-4{fill:#cf4055;}.cls-5{fill:url(#linear-gradient-3);}.cls-6{fill:url(#linear-gradient-4);}.cls-7{fill:url(#linear-gradient-5);}.cls-8{fill:url(#linear-gradient-6);}.cls-9{fill:url(#linear-gradient-7);}.cls-10{fill:url(#linear-gradient-8);}.cls-11{fill:url(#linear-gradient-9);}.cls-12{fill:#eab39b;}.cls-13{fill:url(#linear-gradient-13);}.cls-14{fill:#c7cdd8;}.cls-15{fill:#dfe3ea;}</style><linearGradient id="linear-gradient" x1="32" y1="36" x2="32" y2="1" gradientUnits="userSpaceOnUse"><stop offset="0" stop-color="#fbcc88"/><stop offset="1" stop-color="#ffe5c3"/></linearGradient><linearGradient id="linear-gradient-2" x1="32" y1="25.09" x2="32" y2="9.09" gradientUnits="userSpaceOnUse"><stop offset="0" stop-color="#da5466"/><stop offset="1" stop-color="#f4929c"/></linearGradient><linearGradient id="linear-gradient-3" x1="21" y1="15.09" x2="32" y2="15.09" gradientUnits="userSpaceOnUse"><stop offset="0" stop-color="#d4d8e1"/><stop offset="1" stop-color="#f3f4f5"/></linearGradient><linearGradient id="linear-gradient-4" x1="32" y1="15.09" x2="43" y2="15.09" xlink:href="#linear-gradient-3"/><linearGradient id="linear-gradient-5" x1="32" y1="53" x2="32" y2="41" gradientUnits="userSpaceOnUse"><stop offset="0" stop-color="#f2c4b0"/><stop offset="1" stop-color="#ffe3d7"/></linearGradient><linearGradient id="linear-gradient-6" x1="32" y1="63" y2="53" xlink:href="#linear-gradient-3"/><linearGradient id="linear-gradient-7" x1="52" x2="52" xlink:href="#linear-gradient-5"/><linearGradient id="linear-gradient-8" x1="52" y1="63" x2="52" y2="53" xlink:href="#linear-gradient-3"/><linearGradient id="linear-gradient-9" x1="12" x2="12" xlink:href="#linear-gradient-5"/><linearGradient id="linear-gradient-13" x1="12" y1="63" x2="12" y2="53" xlink:href="#linear-gradient-3"/></defs><title>Discussion Class</title><path class="cls-1" d="M59,1H5C2.79,1,1,1.79,1,4V26a4,4,0,0,0,4,4H9l3,6,3-6H29l3,6,3-6H49l3,6,3-6h4a4,4,0,0,0,4-4V4C63,1.79,61.21,1,59,1Z"/><path class="cls-2" d="M63,25v1a4,4,0,0,1-4,4H55l-3,6-3-6H35l-3,6-3-6H15l-3,6L9,30H5a4,4,0,0,1-4-4V25a3,3,0,0,0,3,3H60A3,3,0,0,0,63,25Z"/><path class="cls-3" d="M17,9.09v16H47v-16Z"/><path class="cls-4" d="M17,23v2.09H47V23Z"/><path class="cls-5" d="M32,9.09v16c-4.31-4.31-5-4-11-4v-16C27,5.09,27.69,4.78,32,9.09Z"/><path class="cls-6" d="M32,9.09v16c4.31-4.31,5-4,11-4v-16C37,5.09,36.31,4.78,32,9.09Z"/><path class="cls-7" d="M32,53a5,5,0,0,1-5-5V46a5,5,0,0,1,10,0v2A5,5,0,0,1,32,53Z"/><path class="cls-8" d="M42,63H22a10,10,0,0,1,20,0Z"/><path class="cls-9" d="M52,53a5,5,0,0,1-5-5V46a5,5,0,0,1,10,0v2A5,5,0,0,1,52,53Z"/><path class="cls-10" d="M62,63H42a10,10,0,0,1,20,0Z"/><path class="cls-11" d="M12,53a5,5,0,0,1-5-5V46a5,5,0,0,1,10,0v2A5,5,0,0,1,12,53Z"/><path class="cls-7" d="M32,53a5,5,0,0,1-5-5V46a5,5,0,0,1,10,0v2A5,5,0,0,1,32,53Z"/><path class="cls-9" d="M52,53a5,5,0,0,1-5-5V46a5,5,0,0,1,10,0v2A5,5,0,0,1,52,53Z"/><path class="cls-11" d="M12,53a5,5,0,0,1-5-5V46a5,5,0,0,1,10,0v2A5,5,0,0,1,12,53Z"/><path class="cls-12" d="M37,46v2a5,5,0,0,1-10,0V46a5,5,0,0,0,10,0Z"/><path class="cls-12" d="M57,46v2a5,5,0,0,1-10,0V46a5,5,0,0,0,10,0Z"/><path class="cls-12" d="M17,46v2A5,5,0,0,1,7,48V46a5,5,0,0,0,10,0Z"/><path class="cls-13" d="M22,63H2a10,10,0,0,1,20,0Z"/><path class="cls-14" d="M8,60v3H6V60A1,1,0,0,1,8,60Z"/><path class="cls-14" d="M18,60v3H16V60A1,1,0,0,1,18,60Z"/><path class="cls-14" d="M28,60v3H26V60A1,1,0,0,1,28,60Z"/><path class="cls-14" d="M38,60v3H36V60A1,1,0,0,1,38,60Z"/><path class="cls-14" d="M48,60v3H46V60A1,1,0,0,1,48,60Z"/><path class="cls-14" d="M58,60v3H56V60A1,1,0,0,1,58,60Z"/><path class="cls-14" d="M21.8,61a10.2,10.2,0,0,1,.2,2H2a10,10,0,0,1,.2-2Z"/><path class="cls-14" d="M41.8,61a10.2,10.2,0,0,1,.2,2H22a10,10,0,0,1,.2-2Z"/><path class="cls-14" d="M62,63H42a10,10,0,0,1,.2-2H61.8A10.2,10.2,0,0,1,62,63Z"/><path class="cls-15" d="M36.92,54.3a8,8,0,0,1-9.84,0A10,10,0,0,1,36.92,54.3Z"/><path class="cls-15" d="M56.92,54.3a8,8,0,0,1-9.84,0A10,10,0,0,1,56.92,54.3Z"/><path class="cls-15" d="M16.92,54.3a8,8,0,0,1-9.84,0A10,10,0,0,1,16.92,54.3Z"/></svg>