<svg xmlns="http://www.w3.org/2000/svg" viewBox="0 0 128 128"><defs><style>.cls-1{fill:#6ab891;}.cls-2{fill:#4da67f;}.cls-3{fill:#f3f4f5;}.cls-4{fill:#dde1e8;}</style></defs><title>Done</title><g id="Done"><path class="cls-1" d="M127,64c0,5.44-5.14,10.13-6.48,15.15-1.39,5.19.68,11.81-2,16.36s-9.46,6.12-13.2,9.86-5.25,10.53-9.86,13.2-11.17.56-16.36,2c-5,1.34-9.71,6.48-15.15,6.48s-10.13-5.14-15.15-6.48c-5.19-1.39-11.81.68-16.36-2s-6.12-9.46-9.86-13.2-10.53-5.25-13.2-9.86S8.87,84.34,7.48,79.15C6.14,74.13,1,69.44,1,64S6.14,53.87,7.48,48.85C8.87,43.66,6.8,37,9.43,32.49s9.46-6.12,13.2-9.86,5.25-10.53,9.86-13.2,11.17-.56,16.36-1.95C53.87,6.14,58.56,1,64,1S74.13,6.14,79.15,7.48C84.34,8.87,91,6.8,95.51,9.43s6.12,9.46,9.86,13.2,10.53,5.25,13.2,9.86.56,11.17,2,16.36C121.86,53.87,127,58.56,127,64Z"/><path class="cls-2" d="M3,57.55A60.74,60.74,0,0,0,5.74,75.13C1.69,67.87-1.09,65.06,3,57.55Z"/><path class="cls-2" d="M120.21,80.71c-.72,4.9.73,10.69-1.64,14.8-2.67,4.61-9.46,6.12-13.2,9.86s-5.25,10.53-9.86,13.2-11.17.56-16.36,2c-5,1.34-9.71,6.48-15.15,6.48s-10.13-5.14-15.15-6.48c-5.19-1.39-11.81.68-16.36-2s-6.12-9.46-9.86-13.2-10.53-5.25-13.2-9.86c-2.37-4.11-.92-9.9-1.64-14.8a61,61,0,0,0,112.42,0Z"/><path class="cls-2" d="M122.26,75.13A60.74,60.74,0,0,0,125,57.55C129.07,65,126.33,67.82,122.26,75.13Z"/><path class="cls-2" d="M7.79,80.71a58.75,58.75,0,0,1-2-5.57A15.09,15.09,0,0,1,7.79,80.71Z"/><path class="cls-2" d="M122.26,75.14a58.75,58.75,0,0,1-2.05,5.57A15.09,15.09,0,0,1,122.26,75.14Z"/><circle class="cls-3" cx="64" cy="64" r="46"/><path class="cls-4" d="M64,18a46,46,0,0,1,45.9,49,46,46,0,0,0-91.8,0A46,46,0,0,1,64,18Z"/><polygon class="cls-2" points="56 85.66 37.17 66.83 42.83 61.17 56 74.34 85.17 45.17 90.83 50.83 56 85.66"/></g></svg>