<svg xmlns="http://www.w3.org/2000/svg" xmlns:xlink="http://www.w3.org/1999/xlink" viewBox="0 0 64 64"><defs><style>.cls-1{fill:url(#linear-gradient);}.cls-2{fill:#c7cdd8;}.cls-3{fill:url(#linear-gradient-2);}.cls-4{fill:#cf4055;}.cls-5{fill:#f6b756;}.cls-6{fill:#7ece67;}.cls-7{fill:url(#linear-gradient-3);}.cls-8{fill:#42455e;}.cls-9{fill:url(#linear-gradient-4);}.cls-10{fill:#aae0e5;}.cls-11{fill:url(#linear-gradient-5);}.cls-12{fill:#77cacb;}.cls-13{fill:url(#linear-gradient-6);}.cls-14{fill:#dd8b37;}</style><linearGradient id="linear-gradient" x1="32" y1="52" x2="32" y2="1" gradientUnits="userSpaceOnUse"><stop offset="0" stop-color="#d4d8e1"/><stop offset="1" stop-color="#f3f4f5"/></linearGradient><linearGradient id="linear-gradient-2" x1="32" y1="9" x2="32" y2="1" gradientUnits="userSpaceOnUse"><stop offset="0" stop-color="#a0a6ba"/><stop offset="1" stop-color="#c6ccda"/></linearGradient><linearGradient id="linear-gradient-3" x1="32" y1="63" x2="32" y2="15" gradientUnits="userSpaceOnUse"><stop offset="0" stop-color="#474f72"/><stop offset="1" stop-color="#878c9f"/></linearGradient><linearGradient id="linear-gradient-4" x1="32" y1="59" x2="32" y2="19" gradientUnits="userSpaceOnUse"><stop offset="0" stop-color="#9dd5df"/><stop offset="1" stop-color="#c3e1f5"/></linearGradient><linearGradient id="linear-gradient-5" x1="30.5" y1="46" x2="30.5" y2="30" xlink:href="#linear-gradient-3"/><linearGradient id="linear-gradient-6" x1="33.85" y1="42" x2="33.85" y2="32.98" gradientUnits="userSpaceOnUse"><stop offset="0" stop-color="#e9a254"/><stop offset="1" stop-color="#f4bb79"/></linearGradient></defs><title>Ecommerce</title><g id="Ecommerce"><path class="cls-1" d="M63,52V1H1V52Z"/><path class="cls-2" d="M63,52V50H1v2Z"/><rect class="cls-3" x="1" y="1" width="62" height="8"/><path class="cls-4" d="M7,5A1,1,0,0,1,5,5,1,1,0,0,1,7,5Z"/><path class="cls-5" d="M12,5a1,1,0,0,1-2,0A1,1,0,0,1,12,5Z"/><path class="cls-6" d="M17,5a1,1,0,0,1-2,0A1,1,0,0,1,17,5Z"/><rect class="cls-7" x="16" y="15" width="32" height="48" rx="4"/><path class="cls-8" d="M48,57v2a4,4,0,0,1-4,4H20a4,4,0,0,1-4-4V57a4,4,0,0,0,4,4H44A4,4,0,0,0,48,57Z"/><path class="cls-9" d="M44,19V59H20V19h5a3.62,3.62,0,0,0,3.24,2h7.52A3.62,3.62,0,0,0,39,19Z"/><path class="cls-10" d="M44,19v2H39a3.61,3.61,0,0,1-3.24,2H28.24A3.61,3.61,0,0,1,25,21H20V19h5a3.61,3.61,0,0,0,3.24,2h7.52A3.61,3.61,0,0,0,39,19Z"/><path class="cls-11" d="M37,46H28.4A2.41,2.41,0,0,1,26,43.6c0-1.26.76-1.76,2-2.94L26.19,32H24a1,1,0,0,1,0-2h3a1,1,0,0,1,1,.8c2.21,10.63,2.35,10.38,1.79,10.92C26.86,44.52,26.38,44,37,44A1,1,0,0,1,37,46Z"/><path class="cls-8" d="M37,48a2,2,0,1,1,2-2A2,2,0,0,1,37,48Zm0-2Z"/><path class="cls-8" d="M29,48a2,2,0,1,1,2-2A2,2,0,0,1,29,48Zm0-2Z"/><rect class="cls-12" x="20" y="57" width="24" height="2"/><path class="cls-13" d="M41,34.27c-1.62,5.68-1.19,4.17-2,7A1,1,0,0,1,38,42H29.08a1,1,0,0,1-1-.81c-1.48-7.53-1.61-7.3-1.18-7.82S26.73,33,40,33A1,1,0,0,1,41,34.27Z"/><path class="cls-14" d="M39.61,39c-.68,2.37-.69,3-1.61,3H29.08a1,1,0,0,1-1-.81L27.67,39Z"/></g></svg>