<svg xmlns="http://www.w3.org/2000/svg" viewBox="0 0 128 128"><defs><style>.cls-1{fill:#d1a788;}.cls-2{fill:#cba07a;}.cls-3{fill:#9b756d;}.cls-4{fill:#8a6762;}.cls-5{fill:#fbcc88;}</style></defs><title>Empty Box</title><g id="Empty_Box" data-name="Empty Box"><path class="cls-1" d="M64,73v54c-1.55-.57-3.33-1.24-48-18V55Z"/><path class="cls-1" d="M127,33,112,55,68.73,38.77,81.76,16Z"/><path class="cls-1" d="M62.1,34.2c0,.11-1.6,4-1.65,4.13L16,55,1,33,46.25,16l5.48,3Z"/><path class="cls-1" d="M112,55v54c-44.67,16.76-46.45,17.43-48,18V73Z"/><path class="cls-2" d="M62,34.41l-1.57,3.92L16,55l-2.32-3.4C66,32,58.91,34.24,62,34.41Z"/><path class="cls-2" d="M114.32,51.6,112,55,68.73,38.77l2-3.52Z"/><polygon class="cls-3" points="112 55 64 73 16 55 60.45 38.33 68.73 38.77 112 55"/><polygon class="cls-4" points="112 55 64 73 16 55 64 69 112 55"/><path class="cls-5" d="M68,47H60V42.06a16.09,16.09,0,0,1,8.67-14.21A10,10,0,1,0,54,19H46A18,18,0,1,1,72.41,34.92,8.11,8.11,0,0,0,68,42.06Z"/><circle class="cls-5" cx="64" cy="58" r="4"/><polygon class="cls-2" points="64 73 64 80.11 50.54 99.85 16 86.9 16 55 64 73"/><polygon class="cls-1" points="64 73 49 95 1 77 16 55 64 73"/><polygon class="cls-2" points="112 55 112 86.9 77.46 99.85 64 80.11 64 73 112 55"/><polygon class="cls-1" points="64 73 79 95 127 77 112 55 64 73"/><path class="cls-2" d="M65,76v50.63c-1.2.44-.74.47-2,0V76Z"/></g></svg>