<svg xmlns="http://www.w3.org/2000/svg" xmlns:xlink="http://www.w3.org/1999/xlink" viewBox="0 0 64 64"><defs><style>.cls-1{fill:url(#linear-gradient);}.cls-2{fill:#8a6762;}.cls-3{fill:url(#linear-gradient-2);}.cls-4{fill:url(#linear-gradient-3);}.cls-5{fill:url(#linear-gradient-4);}.cls-6{fill:url(#linear-gradient-5);}.cls-7{fill:#a88680;}.cls-8{fill:#cba07a;}.cls-9{fill:#4da67f;}.cls-10{fill:url(#linear-gradient-6);}.cls-11{fill:#8288a1;}.cls-12{fill:#fff;}</style><linearGradient id="linear-gradient" x1="32" y1="47" x2="32" y2="41" gradientUnits="userSpaceOnUse"><stop offset="0" stop-color="#9b756d"/><stop offset="1" stop-color="#bc9388"/></linearGradient><linearGradient id="linear-gradient-2" x1="32" y1="41" x2="32" y2="1" gradientUnits="userSpaceOnUse"><stop offset="0" stop-color="#d1a788"/><stop offset="1" stop-color="#f2d3b8"/></linearGradient><linearGradient id="linear-gradient-3" x1="32" y1="41" x2="32" y2="5" gradientUnits="userSpaceOnUse"><stop offset="0" stop-color="#6ab891"/><stop offset="1" stop-color="#85cba9"/></linearGradient><linearGradient id="linear-gradient-4" x1="53" y1="63" x2="53" y2="47" xlink:href="#linear-gradient"/><linearGradient id="linear-gradient-5" x1="11" y1="63" x2="11" y2="47" xlink:href="#linear-gradient"/><linearGradient id="linear-gradient-6" x1="46" y1="41" x2="46" y2="35" gradientUnits="userSpaceOnUse"><stop offset="0" stop-color="#949aaf"/><stop offset="1" stop-color="#c6ccda"/></linearGradient></defs><title>Energy equivalency</title><g id="Energy_equivalency" data-name="Energy equivalency"><rect class="cls-1" x="1" y="41" width="62" height="6"/><rect class="cls-2" x="1" y="45" width="62" height="2"/><rect class="cls-3" x="3" y="1" width="58" height="40"/><rect class="cls-4" x="7" y="5" width="50" height="36"/><path class="cls-5" d="M59,63H54c-1.09-2.49-5.36-12.28-7-16h5Z"/><path class="cls-6" d="M17,47c-1.94,4.46-3.72,8.49-7,16H5c2.81-6.44,5.33-12.17,7-16Z"/><polygon class="cls-7" points="14.81 52 49.19 52 50.94 56 13.06 56 14.81 52"/><rect class="cls-8" x="3" y="38" width="4" height="3"/><rect class="cls-8" x="57" y="38" width="4" height="3"/><rect class="cls-9" x="7" y="38" width="50" height="3"/><path class="cls-10" d="M42,35h8a2,2,0,0,1,2,2v4a0,0,0,0,1,0,0H40a0,0,0,0,1,0,0V37A2,2,0,0,1,42,35Z"/><rect class="cls-11" x="40" y="39" width="12" height="2"/><polygon class="cls-7" points="12 47 17 47 16.13 49 11.13 49 12 47"/><polygon class="cls-7" points="52.88 49 47.88 49 47 47 52 47 52.88 49"/><polygon class="cls-2" points="6.31 60 11.31 60 10 63 5 63 6.31 60"/><polygon class="cls-2" points="59 63 54 63 52.69 60 57.69 60 59 63"/><path class="cls-12" d="M18,17a1,1,0,0,0,0-2H13a1,1,0,0,0-1,1V26a1,1,0,0,0,1,1h5a1,1,0,0,0,0-2H14V22h3a1,1,0,0,0,0-2H14V17Z"/><path class="cls-12" d="M24,19H21a1,1,0,0,0,0,2h3A1,1,0,0,0,24,19Z"/><path class="cls-12" d="M24,23H21a1,1,0,0,0,0,2h3A1,1,0,0,0,24,23Z"/><path class="cls-12" d="M32,18.78A3,3,0,0,0,27,21v5a1,1,0,0,0,2,0V21a1,1,0,0,1,2,0v5a1,1,0,0,0,2,0V21a1,1,0,0,1,2,0v5a1,1,0,0,0,2,0V21A3,3,0,0,0,32,18.78Z"/><path class="cls-12" d="M43,20h1a1,1,0,0,0,0-2H43a4,4,0,0,0-4,4v1a4,4,0,0,0,4,4h1a1,1,0,0,0,0-2H43a2,2,0,0,1-2-2V22A2,2,0,0,1,43,20Z"/><path class="cls-12" d="M52,19H50.41L52,17.41A3.11,3.11,0,0,0,50,12c-3,0-3.92,4-2,4a1,1,0,0,0,1-1,1,1,0,0,1,1-1c1,0,1.36,1.22.59,2-3.45,3.45-3.85,3.57-3.51,4.38S47.94,21,52,21A1,1,0,0,0,52,19Z"/></g></svg>