<svg xmlns="http://www.w3.org/2000/svg" viewBox="0 0 128 128"><defs><style>.cls-1{fill:#949aaf;}.cls-2{fill:#8288a1;}.cls-3{fill:#9dd5df;}.cls-4{fill:#77cacb;}.cls-5{fill:#adb3c4;}.cls-6{fill:#7aa8d7;}</style></defs><title>Error 502</title><g id="Error_502" data-name="Error 502"><path class="cls-1" d="M127,99c0,5.39.19,5.87-.63,6.59a13.66,13.66,0,0,1-9,3.41H10.66a13.65,13.65,0,0,1-9-3.41A1.93,1.93,0,0,1,1,104.13V99a2,2,0,0,1,2-2H125A2,2,0,0,1,127,99Z"/><path class="cls-2" d="M127,100.13c0,4,.21,4.72-.63,5.46a13.66,13.66,0,0,1-9,3.41H10.66a13.66,13.66,0,0,1-9-3.41c-.83-.73-.63-1.42-.63-5.46a1.93,1.93,0,0,0,.63,1.46A13.68,13.68,0,0,0,5.43,104c3.58,1.49-4.57,1,111.91,1a13.66,13.66,0,0,0,9-3.41A1.93,1.93,0,0,0,127,100.13Z"/><path class="cls-1" d="M114,19a4,4,0,0,1,4,4V97H10V23a4,4,0,0,1,4-4Z"/><path class="cls-3" d="M17,26V90h94V26Z"/><path class="cls-4" d="M17,85v5h94V85Z"/><polygon class="cls-5" points="76 102 52 102 50 97 78 97 76 102"/><path class="cls-6" d="M34,55a1,1,0,0,1-.72-1.74l12-12a1,1,0,0,1,1.44,1.44C33.67,55.77,34.6,55,34,55Z"/><path class="cls-6" d="M46,55c-.6,0,.32.75-12.72-12.3a1,1,0,0,1,1.44-1.44l12,12A1,1,0,0,1,46,55Z"/><path class="cls-6" d="M82,55a1,1,0,0,1-.72-1.74l12-12a1,1,0,0,1,1.44,1.44C81.67,55.77,82.6,55,82,55Z"/><path class="cls-6" d="M94,55c-.6,0,.32.75-12.72-12.3a1,1,0,0,1,1.44-1.44l12,12A1,1,0,0,1,94,55Z"/><path class="cls-6" d="M80,72H48a1,1,0,0,1,0-2H80A1,1,0,0,1,80,72Z"/><rect class="cls-2" x="10" y="94" width="108" height="3"/></g></svg>