<svg xmlns="http://www.w3.org/2000/svg" viewBox="0 0 128 128"><defs><style>.cls-1{fill:#fbcc88;}.cls-2{fill:#f6b756;}.cls-3{fill:#dde1e8;}.cls-4{fill:#c7cdd8;}.cls-5{fill:#7aa8d7;}.cls-6{fill:#fff;}</style></defs><title>FAQ</title><g id="FAQ"><path class="cls-1" d="M127,40V92a8,8,0,0,1-8,8h-9v11L92,100H58a8,8,0,0,1-8-8V85L78,32h41A8,8,0,0,1,127,40Z"/><path class="cls-2" d="M82,32V77A12,12,0,0,1,70,89H50V85L78,32Z"/><path class="cls-3" d="M78,25V77a8,8,0,0,1-8,8H36L18,96V85H9a8,8,0,0,1-8-8V25a8,8,0,0,1,8-8H70A8,8,0,0,1,78,25Z"/><path class="cls-4" d="M78,73v4a8,8,0,0,1-8,8H36L18,96V85H9a8,8,0,0,1-8-8V73a8,8,0,0,0,8,8H70A8,8,0,0,0,78,73Z"/><path class="cls-2" d="M50,88v4a8,8,0,0,0,8,8H92l18,11V100h9a8,8,0,0,0,8-8V88a8,8,0,0,1-8,8H58A8,8,0,0,1,50,88Z"/><path class="cls-5" d="M15.48,61V41a1,1,0,0,1,1-1h10a1,1,0,0,1,0,2h-9V61A1,1,0,0,1,15.48,61Z"/><path class="cls-5" d="M24,52H16.5a1,1,0,0,1,0-2H24A1,1,0,0,1,24,52Z"/><path class="cls-5" d="M42.52,61.29l-5-16.74-5,16.74a1,1,0,0,1-2-.58l6-20a1,1,0,0,1,2,0l6,20A1,1,0,0,1,42.52,61.29Z"/><path class="cls-5" d="M41.47,55.61H33.6a1,1,0,0,1,0-2h7.87A1,1,0,0,1,41.47,55.61Z"/><path class="cls-5" d="M56.5,62a7,7,0,0,1-7-7V47a7,7,0,0,1,14,0v8A7,7,0,0,1,56.5,62Zm0-20a5,5,0,0,0-5,5v8a5,5,0,0,0,10,0V47A5,5,0,0,0,56.5,42Z"/><path class="cls-5" d="M62.5,62c-.59,0-.32.09-6.45-5.87a1,1,0,0,1,1.42-1.46l5.74,5.58A1,1,0,0,1,62.5,62Z"/><path class="cls-6" d="M110.85,57.2A9,9,0,0,0,93,59a1,1,0,0,0,2,0,7,7,0,1,1,10,6.32,7,7,0,0,0-4,6.32V75a1,1,0,0,0,2,0V71.64a5,5,0,0,1,2.83-4.48A9.08,9.08,0,0,0,110.85,57.2Z"/><path class="cls-6" d="M104,80a2,2,0,1,1-2-2A2,2,0,0,1,104,80Z"/></g></svg>