<svg xmlns="http://www.w3.org/2000/svg" viewBox="0 0 128 128"><defs><style>.cls-1{fill:#e2607f;}.cls-2{fill:#dd4e6a;}.cls-3{fill:#dde1e8;}.cls-4{fill:#c7cdd8;}</style></defs><title>Fatal Error</title><g id="Fatal_Error" data-name="Fatal Error"><polygon class="cls-1" points="90.09 1 37.91 1 1 37.91 1 90.09 37.91 127 90.09 127 127 90.09 127 37.91 90.09 1"/><polygon class="cls-2" points="127 85.1 127 90.1 90.1 127 37.9 127 1 90.1 1 85.1 37.9 122 90.1 122 127 85.1"/><polygon class="cls-3" points="42.46 116 12 85.54 12 42.46 42.46 12 85.54 12 116 42.46 116 85.54 85.54 116 42.46 116"/><polygon class="cls-4" points="12 47.46 12 42.46 42.46 12 85.54 12 116 42.46 116 47.46 85.54 17 42.46 17 12 47.46"/><polygon class="cls-1" points="89.21 45.59 81.39 37.77 64 55.16 46.61 37.77 38.79 45.59 56.18 62.98 38.79 80.37 46.61 88.2 64 70.81 81.39 88.2 89.21 80.37 71.82 62.98 89.21 45.59"/><polygon class="cls-2" points="87.21 78.37 89.21 80.37 81.39 88.2 64 70.81 46.61 88.2 38.79 80.37 40.79 78.37 46.61 84.2 64 66.81 81.39 84.2 87.21 78.37"/></g></svg>