<svg xmlns="http://www.w3.org/2000/svg" xmlns:xlink="http://www.w3.org/1999/xlink" viewBox="0 0 64 64"><defs><style>.cls-1{fill:url(#linear-gradient);}.cls-2{fill:url(#linear-gradient-2);}.cls-3{fill:url(#linear-gradient-3);}.cls-4{fill:#5b8dc9;}.cls-5{fill:url(#linear-gradient-4);}.cls-6{fill:url(#linear-gradient-5);}.cls-7{fill:#c7cdd8;}.cls-8{fill:url(#linear-gradient-6);}.cls-9{fill:#cf4055;}.cls-10{fill:url(#linear-gradient-7);}.cls-11{fill:#dd8b37;}.cls-12{fill:url(#linear-gradient-9);}.cls-13{fill:url(#linear-gradient-10);}</style><linearGradient id="linear-gradient" x1="32" y1="48" x2="32" y2="34" gradientUnits="userSpaceOnUse"><stop offset="0" stop-color="#7aa8d7"/><stop offset="1" stop-color="#c3d2e7"/></linearGradient><linearGradient id="linear-gradient-2" x1="52" y1="50" x2="52" y2="38" xlink:href="#linear-gradient"/><linearGradient id="linear-gradient-3" x1="12" y1="50" x2="12" y2="38" xlink:href="#linear-gradient"/><linearGradient id="linear-gradient-4" y1="63" y2="50" xlink:href="#linear-gradient"/><linearGradient id="linear-gradient-5" x1="32" y1="28" x2="32" y2="1" gradientUnits="userSpaceOnUse"><stop offset="0" stop-color="#d4d8e1"/><stop offset="1" stop-color="#f3f4f5"/></linearGradient><linearGradient id="linear-gradient-6" x1="32" y1="16" x2="32" y2="6" gradientUnits="userSpaceOnUse"><stop offset="0" stop-color="#da5466"/><stop offset="1" stop-color="#f4929c"/></linearGradient><linearGradient id="linear-gradient-7" x1="11.81" y1="16" x2="11.81" y2="6" gradientUnits="userSpaceOnUse"><stop offset="0" stop-color="#e9a254"/><stop offset="1" stop-color="#f4bb79"/></linearGradient><linearGradient id="linear-gradient-9" x1="49.97" y1="11" x2="56.02" y2="11" xlink:href="#linear-gradient"/><linearGradient id="linear-gradient-10" y1="63" y2="48" xlink:href="#linear-gradient"/></defs><title>Feedback Audients</title><g id="Feedback_Audients" data-name="Feedback Audients"><path class="cls-1" d="M32,48a6,6,0,0,1-6-6V40a6,6,0,0,1,12,0v2A6,6,0,0,1,32,48Z"/><path class="cls-2" d="M52,50a5,5,0,0,1-5-5V43a5,5,0,0,1,10,0v2A5,5,0,0,1,52,50Z"/><path class="cls-3" d="M12,50a5,5,0,0,1-5-5V43a5,5,0,0,1,10,0v2A5,5,0,0,1,12,50Z"/><path class="cls-4" d="M38,40v2a6,6,0,0,1-12,0V40a6,6,0,0,0,12,0Z"/><path class="cls-4" d="M57,43v2a5,5,0,0,1-10,0V43a5,5,0,0,0,10,0Z"/><path class="cls-4" d="M17,43v2A5,5,0,0,1,7,45V43a5,5,0,0,0,10,0Z"/><path class="cls-5" d="M63,63H1l1.2-5.2A10.07,10.07,0,0,1,20,54a10,10,0,0,1,1.32,2.37c21.37,0,21.32.09,21.32,0,3.66-9.16,17-8.1,19.14,1.46Z"/><path class="cls-6" d="M1,4V18a3,3,0,0,0,3,3H28l4,7,4-7H60a3,3,0,0,0,3-3V4a3,3,0,0,0-3-3H4A3,3,0,0,0,1,4Z"/><path class="cls-7" d="M63,15v3a3,3,0,0,1-3,3H36l-4,7-4-7H4a3,3,0,0,1-3-3V15a3,3,0,0,0,3,3H60A3,3,0,0,0,63,15Z"/><path class="cls-8" d="M32,7.06A3.5,3.5,0,0,0,26,9.5C26,13,32,16,32,16s6-3,6-6.5A3.5,3.5,0,0,0,32,7.06Z"/><path class="cls-9" d="M32,16c-2.86-1.43-6.8-4.47-5.85-7.52,1.6,5.28,10.07,5.36,11.7,0C38.81,11.54,34.85,14.58,32,16Z"/><polygon class="cls-10" points="11.81 6 13.42 9.31 17.07 9.82 14.41 12.37 15.06 16 11.81 14.27 8.56 16 9.21 12.37 6.55 9.82 10.2 9.31 11.81 6"/><polygon class="cls-10" points="11.81 6 13.42 9.31 17.07 9.82 14.41 12.37 15.06 16 11.81 14.27 8.56 16 9.21 12.37 6.55 9.82 10.2 9.31 11.81 6"/><path class="cls-11" d="M15.06,16l-3.25-1.73L8.56,16l.6-3.34a10.46,10.46,0,0,0,5.3,0Z"/><path class="cls-12" d="M55,10H53l.51-2.06A1.55,1.55,0,0,0,52,6c-2.43,4.87-2,2.84-2,10h3.72a2,2,0,0,0,1.9-1.36A11.07,11.07,0,0,0,56,11,1,1,0,0,0,55,10Z"/><rect class="cls-4" x="46" y="11" width="4" height="5"/><path class="cls-4" d="M46,63H18c1.15-5.76,1.32-7.22,2.06-9a9.73,9.73,0,0,1,1.32,2.36c0,.1-.26,0,21.32,0A10.19,10.19,0,0,1,44,54C44.64,55.52,44.67,56.12,46,63Z"/><path class="cls-13" d="M20,63l1.23-6.17a11,11,0,0,1,21.54,0L44,63Z"/><polygon class="cls-4" points="63 63 1 63 1.46 61 62.54 61 63 63"/></g></svg>