<svg xmlns="http://www.w3.org/2000/svg" xmlns:xlink="http://www.w3.org/1999/xlink" viewBox="0 0 64 64"><defs><style>.cls-1{fill:url(#linear-gradient);}.cls-2{fill:#8a6762;}.cls-3{fill:url(#linear-gradient-2);}.cls-4{fill:#fcd2c3;}.cls-5{fill:url(#linear-gradient-3);}.cls-6{fill:url(#linear-gradient-4);}.cls-7{fill:#5b8dc9;}.cls-8{fill:#adb3c4;}.cls-9{fill:url(#linear-gradient-5);}.cls-10{fill:url(#linear-gradient-6);}.cls-11{fill:#eab39b;}.cls-12{fill:url(#linear-gradient-7);}.cls-13{fill:url(#linear-gradient-8);}.cls-14{fill:url(#linear-gradient-9);}.cls-15{fill:#e8677d;}.cls-16{fill:#8288a1;}.cls-17{fill:url(#linear-gradient-10);}.cls-18{fill:url(#linear-gradient-11);}</style><linearGradient id="linear-gradient" x1="26" y1="41" x2="26" y2="0.98" gradientUnits="userSpaceOnUse"><stop offset="0" stop-color="#9b756d"/><stop offset="1" stop-color="#bc9388"/></linearGradient><linearGradient id="linear-gradient-2" x1="26.01" y1="36" x2="26.01" y2="9" gradientUnits="userSpaceOnUse"><stop offset="0" stop-color="#f2c4b0"/><stop offset="1" stop-color="#ffe3d7"/></linearGradient><linearGradient id="linear-gradient-3" x1="26" y1="63" x2="26" y2="38.99" gradientUnits="userSpaceOnUse"><stop offset="0" stop-color="#7aa8d7"/><stop offset="1" stop-color="#c3d2e7"/></linearGradient><linearGradient id="linear-gradient-4" x1="26" y1="58" x2="26" y2="39" gradientUnits="userSpaceOnUse"><stop offset="0.29" stop-color="#7aa8d7"/><stop offset="1" stop-color="#c3d2e7"/></linearGradient><linearGradient id="linear-gradient-5" x1="55" x2="55" y2="48" xlink:href="#linear-gradient-3"/><linearGradient id="linear-gradient-6" x1="55.49" y1="48" x2="55.49" y2="30.99" xlink:href="#linear-gradient-2"/><linearGradient id="linear-gradient-7" x1="26" y1="49" x2="26" y2="35.31" xlink:href="#linear-gradient-2"/><linearGradient id="linear-gradient-8" x1="40" y1="25" x2="40" y2="19" xlink:href="#linear-gradient-2"/><linearGradient id="linear-gradient-9" x1="12" y1="25" x2="12" y2="19" xlink:href="#linear-gradient-2"/><linearGradient id="linear-gradient-10" x1="20.5" y1="24" x2="20.5" y2="17" gradientUnits="userSpaceOnUse"><stop offset="0" stop-color="#9dd5df"/><stop offset="1" stop-color="#c3e1f5"/></linearGradient><linearGradient id="linear-gradient-11" x1="31.5" x2="31.5" xlink:href="#linear-gradient-10"/></defs><title>Female Teacher</title><g id="Female_Teacher" data-name="Female Teacher"><path class="cls-1" d="M42,13V41H10V12a9,9,0,0,1,9-9C22.6.61,25.5,1,30,1A12,12,0,0,1,42,13Z"/><path class="cls-2" d="M38,20c-.9,0-.93-.64-2-3.46A7,7,0,0,0,29.46,12c-4.41,0-7.71.56-10.52-2.47-2.73,3.16-3.44,6.07-4,9.61a1,1,0,0,1-2-.28c.62-4.33,1.71-8,5.28-11.57a1,1,0,0,1,1.54.16A5.75,5.75,0,0,0,24.61,10h4.85a9,9,0,0,1,8.42,5.84l1.06,2.81A1,1,0,0,1,38,20Z"/><path class="cls-3" d="M38,24a12,12,0,0,1-24,0c0-4.78-.07-3.53.2-5.4A17,17,0,0,1,19,9c2.75,4.17,7.21,2.69,11.15,3A8,8,0,0,1,37,17.19C38.27,20.73,38,19.2,38,24Z"/><path class="cls-4" d="M38,20c0,1.82.22,1.76-1-1.46C36,15.83,32.36,14,29.46,14c-4.41,0-7.71.56-10.52-2.47-2.71,3.14-4.42,6-4.94,9.55A17.17,17.17,0,0,1,19,9a6.74,6.74,0,0,0,4.89,3c.69.06.13,0,5.57,0A8,8,0,0,1,37,17.19Z"/><path class="cls-2" d="M42,37.93V41H10V37.93A17.08,17.08,0,0,1,17.86,36C34.48,36,37.16,35.38,42,37.93Z"/><path class="cls-5" d="M50,63H2c.64-3.84,1.36-8.14,2.05-12.3A14,14,0,0,1,17.86,39c17.94,0,17,0,18.15.13A14,14,0,0,1,48,50.7C48.64,54.86,49.36,59.16,50,63Z"/><polygon class="cls-6" points="33.89 39 38 45 31 48 33 52 26 58 19 52 21 48 14 45 18.11 39 33.89 39"/><path class="cls-7" d="M25,62V44a1,1,0,0,1,2,0V62A1,1,0,0,1,25,62Z"/><path class="cls-8" d="M53,33V2a1,1,0,0,1,2,0V33A1,1,0,0,1,53,33Z"/><rect class="cls-9" x="50" y="48" width="10" height="15"/><path class="cls-10" d="M62,35v4c0,3-3,5-3,5v4H51V44s-2-2-2-4c0-4.63-.6-9,4-9,.68,0,.94.34.88.95C55.28,30.29,62,30.49,62,35Z"/><path class="cls-11" d="M56,40c0,1.83-4,1.1-4-2,0-1.07-.38-6,1.42-6.94.39.13.5.46.46.89a2.1,2.1,0,0,1,.85-.51,1,1,0,0,1-.07,1.14C53.79,33.65,54,35.69,54,38a.91.91,0,0,0,1,1A1,1,0,0,1,56,40Z"/><path class="cls-7" d="M49.5,60H2.5L2,63H50Z"/><rect class="cls-7" x="50" y="60" width="10" height="3"/><path class="cls-12" d="M30,35.31V39L26,49,22,39V35.31A11.94,11.94,0,0,0,30,35.31Z"/><path class="cls-13" d="M39,25H38V19h1a3,3,0,0,1,0,6Z"/><path class="cls-14" d="M13,19h1v6H13a3,3,0,0,1,0-6Z"/><path class="cls-15" d="M23.17,29.41a1,1,0,0,1,1.42,0,2,2,0,0,0,2.82,0,1,1,0,0,1,1.42,1.42C26.14,33.52,21.68,30.91,23.17,29.41Z"/><path class="cls-16" d="M27,20.22a2.5,2.5,0,0,0-2,0,1,1,0,0,1-1.12.77c-8.32-1.19-6.17-1-9.86-1a1,1,0,0,1,0-2c4.07,0,1.7-.2,9.44.91a4,4,0,0,1,5.12,0C36.35,17.8,34,18,38,18a1,1,0,0,1,0,2c-3.9,0-1.55-.2-9.86,1A1,1,0,0,1,27,20.22Z"/><circle class="cls-17" cx="20.5" cy="20.5" r="3.5"/><circle class="cls-18" cx="31.5" cy="20.5" r="3.5"/></g><g id="Male_Teacher" data-name="Male Teacher"><path class="cls-4" d="M30,35.31v2a11.94,11.94,0,0,1-8,0v-2A11.94,11.94,0,0,0,30,35.31Z"/></g></svg>