<svg xmlns="http://www.w3.org/2000/svg" viewBox="0 0 128 128"><defs><style>.cls-1{fill:none;stroke:#47566a;stroke-linecap:round;stroke-linejoin:round;stroke-width:2.04px;}.cls-2{fill:#9b756d;}.cls-3{fill:#8a6762;}.cls-4{fill:#d1a788;}.cls-5{fill:#dde1e8;}.cls-6{fill:#c7cdd8;}.cls-7{fill:#949aaf;}.cls-8{fill:#8288a1;}.cls-9{fill:#8cdd79;}.cls-10{fill:#7ece67;}.cls-11{fill:#fff;}.cls-12{fill:#adb3c4;}.cls-13{fill:#cba07a;}</style></defs><title>Folder Data</title><g id="Folder_Data" data-name="Folder Data"><line class="cls-1" x1="103" y1="62" x2="38" y2="62"/><path class="cls-2" d="M13,52V35H125v85a7,7,0,0,1-14,0V62H38L31,52Z"/><polygon class="cls-3" points="111 62 38 62 31 52 13 52 13 45 31 45 38 55 111 55 111 62"/><path class="cls-3" d="M125,113v7a7,7,0,0,1-14,0v-7a7,7,0,1,0,14,0Z"/><path class="cls-4" d="M117.79,127H9.81A6.81,6.81,0,0,1,3,120.19V52H31l7,10h73v58.21A6.8,6.8,0,0,0,117.79,127Z"/><path class="cls-5" d="M23,52V12A11,11,0,0,1,34,1h80a11,11,0,0,0-11,11V62H38L31,52Z"/><polygon class="cls-6" points="103 58 103 62 38 62 31 52 23 52 23 48 33.08 48 40.08 58 103 58"/><path class="cls-7" d="M125,12v9H103V12a11,11,0,0,1,22,0Z"/><rect class="cls-8" x="103" y="17" width="22" height="4"/><circle class="cls-9" cx="57" cy="94" r="23"/><path class="cls-10" d="M57,117A23,23,0,0,1,34.14,91.5a23,23,0,0,0,45.72,0A23,23,0,0,1,57,117Z"/><path class="cls-11" d="M53,103c-.59,0-.08.34-8.72-8.3a1,1,0,0,1,1.44-1.44L53,100.56,68.28,85.28a1,1,0,0,1,1.44,1.44C52.21,104.23,53.6,103,53,103Z"/><path class="cls-12" d="M90,18H36a1,1,0,0,1,0-2H90A1,1,0,0,1,90,18Z"/><path class="cls-12" d="M90,30H36a1,1,0,0,1,0-2H90A1,1,0,0,1,90,30Z"/><path class="cls-12" d="M90,42H36a1,1,0,0,1,0-2H90A1,1,0,0,1,90,42Z"/><path class="cls-13" d="M117.79,127H9.81A6.81,6.81,0,0,1,3,120.19c0-.3-8.31-.19,108-.19A6.79,6.79,0,0,0,117.79,127Z"/></g></svg>