<svg xmlns="http://www.w3.org/2000/svg" xmlns:xlink="http://www.w3.org/1999/xlink" viewBox="0 0 64 64"><defs><style>.cls-1{fill:url(#linear-gradient);}.cls-2{fill:url(#linear-gradient-2);}.cls-3{fill:url(#linear-gradient-3);}.cls-4{fill:#8288a1;}.cls-5{fill:#8a6762;}.cls-6{fill:url(#linear-gradient-4);}.cls-7{fill:#77cacb;}.cls-8{fill:url(#linear-gradient-5);}.cls-9{fill:url(#linear-gradient-6);}.cls-10{fill:url(#linear-gradient-7);}.cls-11{fill:url(#linear-gradient-8);}.cls-12{fill:#4da67f;}</style><linearGradient id="linear-gradient" x1="32" y1="63" x2="32" y2="59" gradientUnits="userSpaceOnUse"><stop offset="0" stop-color="#9b756d"/><stop offset="1" stop-color="#bc9388"/></linearGradient><linearGradient id="linear-gradient-2" x1="32" y1="59" x2="32" y2="49.35" gradientUnits="userSpaceOnUse"><stop offset="0" stop-color="#949aaf"/><stop offset="1" stop-color="#c6ccda"/></linearGradient><linearGradient id="linear-gradient-3" x1="32.1" y1="50" x2="32.1" y2="2.2" xlink:href="#linear-gradient-2"/><linearGradient id="linear-gradient-4" x1="27.98" y1="42.04" x2="27.98" y2="2.04" gradientUnits="userSpaceOnUse"><stop offset="0" stop-color="#9dd5df"/><stop offset="1" stop-color="#c3e1f5"/></linearGradient><linearGradient id="linear-gradient-5" x1="25.72" y1="38.77" x2="25.72" y2="22.28" gradientUnits="userSpaceOnUse"><stop offset="0" stop-color="#6ab891"/><stop offset="1" stop-color="#85cba9"/></linearGradient><linearGradient id="linear-gradient-6" x1="22.21" y1="22.28" x2="22.21" y2="4.06" xlink:href="#linear-gradient-5"/><linearGradient id="linear-gradient-7" x1="42.39" y1="37.36" x2="42.39" y2="14.54" xlink:href="#linear-gradient-5"/><linearGradient id="linear-gradient-8" x1="35.75" y1="12.42" x2="35.75" y2="2.14" xlink:href="#linear-gradient-5"/></defs><title>Geology</title><g id="Geology"><path class="cls-1" d="M44,62v1H20a5.09,5.09,0,0,1,.18-2A3,3,0,0,1,23,59H41A3,3,0,0,1,44,62Z"/><polyline class="cls-2" points="34 49.35 34 59 30 59 30 49.92"/><path class="cls-3" d="M8.2,41.8A28,28,0,0,0,47.8,2.2L45,5A24,24,0,0,1,11,39Z"/><path class="cls-4" d="M8,43a1,1,0,0,1-.71-1.71l5.86-5.86a1,1,0,0,1,1.42,1.42C8.28,43.13,8.58,43,8,43Z"/><path class="cls-4" d="M42.14,8.86a1,1,0,0,1-.71-1.71l5.86-5.86a1,1,0,0,1,1.42,1.42C42.42,9,42.72,8.86,42.14,8.86Z"/><path class="cls-5" d="M44,63H20a5.09,5.09,0,0,1,.18-2H43.82A5.19,5.19,0,0,1,44,63Z"/><path class="cls-6" d="M46.56,14.54a20,20,0,0,1-5.77,22.82C26,49.74,3.62,35.72,8.69,16.82,13.66-1.75,39.45-3.17,46.56,14.54Z"/><path class="cls-7" d="M22.83,41.31A20,20,0,0,1,8.06,20.5a20,20,0,0,0,39.88,0A20,20,0,0,1,22.83,41.31Z"/><path class="cls-8" d="M21.8,22.28c.71,1.23,1.93.52,3.86,1S31.9,27.06,31.39,29,27.46,32.08,25,33.5s-3.49,5.27-3.49,5.27l-1.41-2.44c-.71-1.23,2.52-5.55,2.78-6.52s-2.12-3.67-.9-4.37S22.51,23.51,21.8,22.28Z"/><path class="cls-9" d="M29,14.88A5.33,5.33,0,0,0,25,18c-.26,1-2.91-.78-4.13-.07s.2,3.16.9,4.38c-.7-1.22-3.35-3-5-4.45s-.63-5.35-.38-6.31c.2-.77-1.25-2.63-2.22-4a20.6,20.6,0,0,1,5-3.48C28.57,6.92,25.41,7,26.53,8.93c.71,1.22-.14.09,1.79.6S31.15,14.43,29,14.88Z"/><path class="cls-10" d="M40.79,37.36c-.87-1.56.31-6,.78-7.71.51-1.93-5.28-3.48-4.76-5.42s3-3.35,3-3.35c1.22-.7,3.87,1,5.8,1.56s-1.42-2.45-3.8-5.16,2.08-.51,4.79-2.74A20,20,0,0,1,40.79,37.36Z"/><path class="cls-11" d="M41.36,7.12A3,3,0,0,0,41,8.78c.19,3.15-4.65,1.86-7.1,3.27s-1.67-1.48-.64-5.35-3.08-3.93-3.08-3.93c.07-.25.12-.45.19-.63A19.93,19.93,0,0,1,41.36,7.12Z"/><rect class="cls-4" x="30" y="56" width="4" height="3"/><path class="cls-12" d="M40.79,37.36a5.31,5.31,0,0,1-.25-2.8,19.86,19.86,0,0,0,7.4-14.06A19.87,19.87,0,0,1,40.79,37.36Z"/></g></svg>