<svg xmlns="http://www.w3.org/2000/svg" xmlns:xlink="http://www.w3.org/1999/xlink" viewBox="0 0 64 64"><defs><style>.cls-1{fill:url(#linear-gradient);}.cls-2{fill:url(#linear-gradient-2);}.cls-3{fill:url(#linear-gradient-3);}.cls-4{fill:url(#linear-gradient-4);}.cls-5{fill:url(#linear-gradient-5);}.cls-6{fill:url(#linear-gradient-6);}.cls-7{fill:#77cacb;}.cls-8{fill:#7ece67;}.cls-9{fill:url(#linear-gradient-7);}</style><linearGradient id="linear-gradient" x1="16.99" y1="48.99" x2="16.99" y2="6" gradientUnits="userSpaceOnUse"><stop offset="0" stop-color="#8cdd79"/><stop offset="1" stop-color="#d4e6b6"/></linearGradient><linearGradient id="linear-gradient-2" x1="17" y1="49" x2="17" y2="39" xlink:href="#linear-gradient"/><linearGradient id="linear-gradient-3" x1="39" y1="63" x2="39" y2="39" gradientUnits="userSpaceOnUse"><stop offset="0" stop-color="#9dd5df"/><stop offset="1" stop-color="#c3e1f5"/></linearGradient><linearGradient id="linear-gradient-4" x1="45" y1="39" x2="45" y2="27" xlink:href="#linear-gradient-3"/><linearGradient id="linear-gradient-5" x1="45" x2="45" y2="51" xlink:href="#linear-gradient-3"/><linearGradient id="linear-gradient-6" x1="57" x2="57" y2="27" xlink:href="#linear-gradient-3"/><linearGradient id="linear-gradient-7" x1="17" y1="11" x2="17" y2="1" xlink:href="#linear-gradient"/></defs><title>Geometric</title><g id="Geometric"><path class="cls-1" d="M33,6V33l-6,6v8.91c-9.13,2.26-23.38.84-25.71-3C.88,44.27,1,47.72,1,6c0,2.76,7.16,5,16,5S33,8.76,33,6Z"/><ellipse class="cls-2" cx="17" cy="44" rx="16" ry="5"/><rect class="cls-3" x="27" y="39" width="24" height="24"/><path class="cls-4" d="M63,27,51,39H27L39,27Z"/><path class="cls-5" d="M63,51,51,63H27L39,51Z"/><path class="cls-6" d="M63,27V51L51,63V39Z"/><path class="cls-7" d="M40,27a1,1,0,0,1-1.71.71L39,27Z"/><path class="cls-7" d="M39,46a1,1,0,0,0,0,2A1,1,0,0,0,39,46Zm0-4a1,1,0,0,0,0,2A1,1,0,0,0,39,42Zm0-4a1,1,0,0,0,0,2A1,1,0,0,0,39,38Zm0-4a1,1,0,0,0,0,2A1,1,0,0,0,39,34Zm0-4a1,1,0,0,0,0,2A1,1,0,0,0,39,30Z"/><path class="cls-7" d="M39,52a1,1,0,1,1,.71-1.71A1,1,0,0,1,39,52Z"/><path class="cls-7" d="M59,50a1,1,0,0,0,0,2A1,1,0,0,0,59,50Zm-4,0a1,1,0,0,0,0,2A1,1,0,0,0,55,50Zm-4,0a1,1,0,0,0,0,2A1,1,0,0,0,51,50Zm-4,0a1,1,0,0,0,0,2A1,1,0,0,0,47,50Zm-4,0a1,1,0,0,0,0,2A1,1,0,0,0,43,50Z"/><path class="cls-7" d="M63,50v1l-.71.71A1,1,0,0,1,63,50Z"/><path class="cls-7" d="M28,63H27V62A1,1,0,0,1,28,63Z"/><path class="cls-7" d="M36.71,53.29a1,1,0,0,0-1.42,0,1,1,0,1,0,1.42,0Zm-3,3a1,1,0,0,0-1.42,0,1,1,0,1,0,1.42,0Zm-3,3A1,1,0,1,0,30,61,1,1,0,0,0,30.71,59.29Z"/><path class="cls-7" d="M39,52a1,1,0,1,1,.71-1.71A1,1,0,0,1,39,52Z"/><path class="cls-8" d="M1,43c0,1-.07,1.36.29,2A1,1,0,0,0,1,43Zm3.53-2.17a1,1,0,0,0-1.34-.48,1,1,0,1,0,1.34.48Zm3.86-1.06a1,1,0,1,0-1,1.23A1,1,0,0,0,8.39,39.77Zm15.08-1.35a1,1,0,0,0-1.13.85,1,1,0,1,0,1.13-.85Zm-11.12.78a1,1,0,0,0-1.11-.87,1,1,0,1,0,1.11.87Zm7-1.15a1,1,0,1,0,0,2A1,1,0,0,0,19.39,38.05Zm-4,0a1,1,0,1,0,0,2A1,1,0,0,0,15.35,38Z"/><ellipse class="cls-9" cx="17" cy="6" rx="16" ry="5"/></g></svg>