<svg xmlns="http://www.w3.org/2000/svg" xmlns:xlink="http://www.w3.org/1999/xlink" viewBox="0 0 64 64"><defs><style>.cls-1{fill:url(#linear-gradient);}.cls-2{fill:#8a6762;}.cls-3{fill:url(#linear-gradient-2);}.cls-4{fill:#fcd2c3;}.cls-5{fill:url(#linear-gradient-3);}.cls-6{fill:url(#linear-gradient-4);}.cls-7{fill:url(#linear-gradient-5);}.cls-8{fill:#e8677d;}.cls-9{fill:#42455e;}.cls-10{fill:url(#linear-gradient-6);}.cls-11{fill:#c7cdd8;}.cls-12{fill:url(#linear-gradient-7);}.cls-13{fill:url(#linear-gradient-8);}.cls-14{fill:#dfe3ea;}.cls-15{fill:url(#linear-gradient-9);}.cls-16{fill:url(#linear-gradient-10);}.cls-17{fill:#eab39b;}</style><linearGradient id="linear-gradient" x1="32" y1="40" x2="32" y2="0.98" gradientUnits="userSpaceOnUse"><stop offset="0" stop-color="#9b756d"/><stop offset="1" stop-color="#bc9388"/></linearGradient><linearGradient id="linear-gradient-2" x1="32" y1="43" x2="32" y2="35.31" gradientUnits="userSpaceOnUse"><stop offset="0" stop-color="#f2c4b0"/><stop offset="1" stop-color="#ffe3d7"/></linearGradient><linearGradient id="linear-gradient-3" x1="45" y1="25" x2="45" y2="19" xlink:href="#linear-gradient-2"/><linearGradient id="linear-gradient-4" x1="19" y1="25" x2="19" y2="19" xlink:href="#linear-gradient-2"/><linearGradient id="linear-gradient-5" x1="31.99" y1="36" x2="31.99" y2="11" xlink:href="#linear-gradient-2"/><linearGradient id="linear-gradient-6" x1="32" y1="63" x2="32" y2="45.23" gradientUnits="userSpaceOnUse"><stop offset="0" stop-color="#d4d8e1"/><stop offset="1" stop-color="#f3f4f5"/></linearGradient><linearGradient id="linear-gradient-7" x1="14" y1="51.5" x2="32" y2="51.5" gradientUnits="userSpaceOnUse"><stop offset="0" stop-color="#da5466"/><stop offset="1" stop-color="#f4929c"/></linearGradient><linearGradient id="linear-gradient-8" x1="32" x2="50" xlink:href="#linear-gradient-7"/><linearGradient id="linear-gradient-9" x1="16" y1="63" x2="16" y2="54" xlink:href="#linear-gradient-2"/><linearGradient id="linear-gradient-10" x1="48" y1="63" x2="48" y2="54" xlink:href="#linear-gradient-2"/></defs><title>Girl Study</title><g id="Girl_Study" data-name="Girl Study"><path class="cls-1" d="M28,40H16V13A12,12,0,0,1,28,1c4.51,0,7.41-.38,11,2a9,9,0,0,1,9,9V40H36"/><rect class="cls-2" x="16" y="37" width="32" height="3"/><path class="cls-3" d="M36,35.31V40l-4,3-4-3V35.31A11.94,11.94,0,0,0,36,35.31Z"/><path class="cls-4" d="M36,35.31v2a11.94,11.94,0,0,1-8,0v-2A11.94,11.94,0,0,0,36,35.31Z"/><path class="cls-2" d="M21,20a1,1,0,0,1-.92-1.39L21,16.46c4.19-9.78,11.09-2.41,18.45-7.29a1,1,0,0,1,1.26.12C44,12.55,43.48,15.78,44,18.84a1,1,0,0,1-2,.32c-.42-2.6.28-5.09-2.18-7.88-7.82,4.49-13.57-2-17,6C22,19.28,21.87,20,21,20Z"/><path class="cls-5" d="M45,25H42V19h3a3,3,0,0,1,0,6Z"/><path class="cls-6" d="M19,19h3v6H19a3,3,0,0,1,0-6Z"/><path class="cls-7" d="M44,20v4a12,12,0,0,1-24,0c0-4.81-.24-3.44.92-6.15A8,8,0,0,1,27.6,13c4.15-.36,7.91,1,12.4-2C43.07,14.07,43.53,17.13,44,20Z"/><path class="cls-8" d="M29.17,29.41a1,1,0,0,1,1.42,0,2,2,0,0,0,2.82,0,1,1,0,0,1,1.42,1.42C32.14,33.51,27.68,30.91,29.17,29.41Z"/><path class="cls-9" d="M25,21V20a1,1,0,0,1,2,0v1A1,1,0,0,1,25,21Z"/><path class="cls-9" d="M37,21V20a1,1,0,0,1,2,0v1A1,1,0,0,1,37,21Z"/><path class="cls-4" d="M44,21.11c-.43-2.58-1.73-5.06-4.17-7.83C36.09,15.43,33.09,15,28.28,15c-2.81,0-6.34,1.67-7.44,4.24S20,21.78,20,20l.92-2.15A8,8,0,0,1,28.28,13h5.23c4.5-.23,5.72-2,6.49-2A14.19,14.19,0,0,1,44,21.11Z"/><path class="cls-10" d="M56,63H8c1.4-8.39,1.5-12.81,6-17.77H50C54.57,50.27,54.67,55,56,63Z"/><polygon class="cls-11" points="56 63 8 63 8.5 60 55.5 60 56 63"/><path class="cls-12" d="M16,63H32V40H14V54.18"/><polyline class="cls-13" points="47 63 32 63 32 40 50 40 50 54.54"/><rect class="cls-14" x="36" y="45" width="10" height="5"/><path class="cls-15" d="M12,63V58a4,4,0,0,1,8,0v2a3,3,0,0,1-3,3Z"/><path class="cls-16" d="M52,63V58a4,4,0,0,0-8,0v2a3,3,0,0,0,3,3Z"/><path class="cls-17" d="M20,58v2a3,3,0,0,1-3,3H12V61h5A3,3,0,0,0,20,58Z"/><path class="cls-17" d="M52,61v2H47a3,3,0,0,1-3-3V58a3,3,0,0,0,3,3Z"/></g></svg>