<svg xmlns="http://www.w3.org/2000/svg" xmlns:xlink="http://www.w3.org/1999/xlink" viewBox="0 0 64 64"><defs><style>.cls-1{fill:url(#linear-gradient);}.cls-2{fill:#8a6762;}.cls-3{fill:url(#linear-gradient-2);}.cls-4{fill:url(#linear-gradient-3);}.cls-5{fill:url(#linear-gradient-4);}.cls-6{fill:#e8677d;}.cls-7{fill:#42455e;}.cls-8{fill:#fcd2c3;}.cls-9{fill:url(#linear-gradient-5);}.cls-10{fill:url(#linear-gradient-6);}.cls-11{fill:#5b8dc9;}.cls-12{fill:url(#linear-gradient-7);}.cls-13{fill:url(#linear-gradient-8);}.cls-14{fill:url(#linear-gradient-9);}.cls-15{fill:#dd8b37;}.cls-16{fill:url(#linear-gradient-10);}.cls-17{fill:url(#linear-gradient-11);}.cls-18{fill:url(#linear-gradient-12);}</style><linearGradient id="linear-gradient" x1="32" y1="42" x2="32" y2="10.95" gradientUnits="userSpaceOnUse"><stop offset="0" stop-color="#9b756d"/><stop offset="1" stop-color="#bc9388"/></linearGradient><linearGradient id="linear-gradient-2" x1="45" y1="28" x2="45" y2="22" gradientUnits="userSpaceOnUse"><stop offset="0" stop-color="#f2c4b0"/><stop offset="1" stop-color="#ffe3d7"/></linearGradient><linearGradient id="linear-gradient-3" x1="19" x2="19" xlink:href="#linear-gradient-2"/><linearGradient id="linear-gradient-4" x1="31.99" y1="39" x2="31.99" y2="14" xlink:href="#linear-gradient-2"/><linearGradient id="linear-gradient-5" x1="32" y1="63" x2="32" y2="43.27" gradientUnits="userSpaceOnUse"><stop offset="0" stop-color="#474f72"/><stop offset="1" stop-color="#878c9f"/></linearGradient><linearGradient id="linear-gradient-6" x1="32" y1="55.99" x2="32" y2="42" gradientUnits="userSpaceOnUse"><stop offset="0" stop-color="#7aa8d7"/><stop offset="1" stop-color="#c3d2e7"/></linearGradient><linearGradient id="linear-gradient-7" x1="37.27" y1="56.31" x2="37.27" y2="40.99" gradientUnits="userSpaceOnUse"><stop offset="0" stop-color="#da5466"/><stop offset="1" stop-color="#f4929c"/></linearGradient><linearGradient id="linear-gradient-8" x1="26.73" y1="56.31" x2="26.73" y2="40.99" xlink:href="#linear-gradient-7"/><linearGradient id="linear-gradient-9" x1="32" y1="63" x2="32" y2="55" gradientUnits="userSpaceOnUse"><stop offset="0" stop-color="#e9a254"/><stop offset="1" stop-color="#f4bb79"/></linearGradient><linearGradient id="linear-gradient-10" x1="32" y1="43.66" x2="32" y2="38.31" xlink:href="#linear-gradient-2"/><linearGradient id="linear-gradient-11" y1="11" y2="1" xlink:href="#linear-gradient-5"/><linearGradient id="linear-gradient-12" x1="48" y1="10.5" x2="50" y2="10.5" xlink:href="#linear-gradient-9"/></defs><title>Girl Graduation</title><g id="Girl_Graduation" data-name="Girl Graduation"><path class="cls-1" d="M19,11a16.27,16.27,0,0,0-3,9.44V42H48V21a23,23,0,0,0-3-10Z"/><rect class="cls-2" x="16" y="39" width="32" height="3"/><path class="cls-2" d="M21,23a1,1,0,0,1-.92-1.39L21,19.46c4.19-9.78,11.09-2.41,18.45-7.29a1,1,0,0,1,1.26.12C44,15.55,43.48,18.78,44,21.84a1,1,0,0,1-2,.32c-.42-2.6.28-5.09-2.18-7.88-7.82,4.49-13.57-2-17,6C22,22.28,21.87,23,21,23Z"/><path class="cls-3" d="M45,28H42V22h3a3,3,0,0,1,0,6Z"/><path class="cls-4" d="M19,22h3v6H19a3,3,0,0,1,0-6Z"/><path class="cls-5" d="M44,23v4a12,12,0,0,1-24,0c0-4.81-.24-3.44.92-6.15A8,8,0,0,1,27.6,16c4.15-.36,7.91.95,12.4-2C43.07,17.07,43.53,20.13,44,23Z"/><path class="cls-6" d="M29.17,32.41a1,1,0,0,1,1.42,0,2,2,0,0,0,2.82,0,1,1,0,0,1,1.42,1.42C32.14,36.51,27.68,33.91,29.17,32.41Z"/><path class="cls-7" d="M25,24V23a1,1,0,0,1,2,0v1A1,1,0,0,1,25,24Z"/><path class="cls-7" d="M37,24V23a1,1,0,0,1,2,0v1A1,1,0,0,1,37,24Z"/><path class="cls-8" d="M36,38.31v2a11.94,11.94,0,0,1-8,0v-2A11.94,11.94,0,0,0,36,38.31Z"/><path class="cls-9" d="M56,63H8c1.41-8.48,1.5-14.39,8.06-19.73H47.94C54.51,48.62,54.63,54.76,56,63Z"/><polygon class="cls-7" points="56 63 8 63 8.5 60 55.5 60 56 63"/><path class="cls-10" d="M48,42A14,14,0,0,1,34.62,56H29.37A14,14,0,0,1,16,42Z"/><path class="cls-11" d="M48,42a14.07,14.07,0,0,1-4.1,9.9C39.17,56.61,34.17,56,29.37,56A14,14,0,0,1,16,42c.4,0-.13-.12.69,2.33A14,14,0,0,0,29.37,54h5.25a14,14,0,0,0,12.69-9.65C48.12,41.89,47.6,42,48,42Z"/><path class="cls-12" d="M33.52,56.31a1,1,0,0,1-.87-1.49l7.48-13.31a1,1,0,0,1,1.74,1C33.84,56.78,34.35,56.31,33.52,56.31Z"/><path class="cls-13" d="M30.48,56.31c-.84,0-.32.47-8.35-13.82a1,1,0,0,1,1.74-1l7.48,13.31A1,1,0,0,1,30.48,56.31Z"/><circle class="cls-14" cx="32" cy="59" r="4"/><path class="cls-15" d="M32,63a4,4,0,0,1-3.87-5,4,4,0,0,0,7.74,0A4,4,0,0,1,32,63Z"/><path class="cls-16" d="M36,38.31V42a5.66,5.66,0,0,1-8,0V38.31A11.94,11.94,0,0,0,36,38.31Z"/><rect class="cls-17" x="19" y="1" width="26" height="10"/><path class="cls-7" d="M53,3H11a1,1,0,0,1,0-2H53A1,1,0,0,1,53,3Z"/><path class="cls-18" d="M48,19V2a1,1,0,0,1,2,0V19A1,1,0,0,1,48,19Z"/><rect class="cls-7" x="19" y="9" width="26" height="2"/><path class="cls-8" d="M44,24.11c-.43-2.58-1.73-5.06-4.17-7.83C36.09,18.43,33.09,18,28.28,18c-2.81,0-6.34,1.67-7.44,4.24S20,24.78,20,23l.92-2.15A8,8,0,0,1,28.28,16h5.23c4.5-.23,5.72-2,6.49-2A14.19,14.19,0,0,1,44,24.11Z"/></g></svg>