<svg xmlns="http://www.w3.org/2000/svg" xmlns:xlink="http://www.w3.org/1999/xlink" viewBox="0 0 64 64"><defs><style>.cls-1{fill:url(#linear-gradient);}.cls-2{fill:#8a6762;}.cls-3{fill:url(#linear-gradient-2);}.cls-4{fill:#c7cdd8;}.cls-5{fill:url(#linear-gradient-3);}.cls-6{fill:#fcd2c3;}.cls-7{fill:url(#linear-gradient-4);}.cls-8{fill:url(#linear-gradient-5);}.cls-9{fill:url(#linear-gradient-6);}.cls-10{fill:url(#linear-gradient-7);}.cls-11{fill:url(#linear-gradient-8);}.cls-12{fill:url(#linear-gradient-9);}.cls-13{fill:#5b8dc9;}.cls-14{fill:#cf4055;}.cls-15{fill:url(#linear-gradient-10);}.cls-16{fill:url(#linear-gradient-11);}.cls-17{fill:url(#linear-gradient-12);}.cls-18{fill:#e8677d;}.cls-19{fill:#42455e;}</style><linearGradient id="linear-gradient" x1="32" y1="39" x2="32" y2="0.98" gradientUnits="userSpaceOnUse"><stop offset="0" stop-color="#9b756d"/><stop offset="1" stop-color="#bc9388"/></linearGradient><linearGradient id="linear-gradient-2" x1="32" y1="63" x2="32" y2="38.98" gradientUnits="userSpaceOnUse"><stop offset="0" stop-color="#d4d8e1"/><stop offset="1" stop-color="#f3f4f5"/></linearGradient><linearGradient id="linear-gradient-3" x1="32" y1="43" x2="32" y2="35.31" gradientUnits="userSpaceOnUse"><stop offset="0" stop-color="#f2c4b0"/><stop offset="1" stop-color="#ffe3d7"/></linearGradient><linearGradient id="linear-gradient-4" x1="28.04" y1="46.83" x2="28.04" y2="39" xlink:href="#linear-gradient-2"/><linearGradient id="linear-gradient-5" x1="35.97" y1="46.83" x2="35.97" y2="39" xlink:href="#linear-gradient-2"/><linearGradient id="linear-gradient-6" x1="32" y1="49" x2="32" y2="43" gradientUnits="userSpaceOnUse"><stop offset="0" stop-color="#da5466"/><stop offset="1" stop-color="#f4929c"/></linearGradient><linearGradient id="linear-gradient-7" x1="32" y1="63" x2="32" y2="49.01" xlink:href="#linear-gradient-6"/><linearGradient id="linear-gradient-8" x1="21" y1="63" x2="21" y2="39" gradientUnits="userSpaceOnUse"><stop offset="0" stop-color="#7aa8d7"/><stop offset="1" stop-color="#c3d2e7"/></linearGradient><linearGradient id="linear-gradient-9" x1="43" x2="43" xlink:href="#linear-gradient-8"/><linearGradient id="linear-gradient-10" x1="45" y1="25" x2="45" y2="19" xlink:href="#linear-gradient-3"/><linearGradient id="linear-gradient-11" x1="19" y1="25" x2="19" y2="19" xlink:href="#linear-gradient-3"/><linearGradient id="linear-gradient-12" x1="31.99" y1="36" x2="31.99" y2="11" xlink:href="#linear-gradient-3"/></defs><title>Girl Student</title><g id="Girl_Student" data-name="Girl Student"><path class="cls-1" d="M28,39H16V13A12,12,0,0,1,28,1c4.51,0,7.41-.38,11,2a9,9,0,0,1,9,9V39H36"/><rect class="cls-2" x="16" y="36" width="32" height="3"/><path class="cls-3" d="M56,63H8c.47-2.84.9-5.37,1.37-8.22A18.9,18.9,0,0,1,18,41.87C26.11,38.57,23.07,39,36,39a19.74,19.74,0,0,1,4,.43l6,2.44a18.9,18.9,0,0,1,8.63,12.91C55.1,57.63,55.53,60.15,56,63Z"/><polygon class="cls-4" points="56 63 8 63 8.5 60 55.5 60 56 63"/><path class="cls-5" d="M36,35.31V39l-4,4-4-4V35.31A11.94,11.94,0,0,0,36,35.31Z"/><path class="cls-6" d="M36,35.31v2a11.94,11.94,0,0,1-8,0v-2A11.94,11.94,0,0,0,36,35.31Z"/><path class="cls-7" d="M28,39l4,4-6.7,3.83-1.23-7.42Z"/><path class="cls-8" d="M36,39l-4,4,6.7,3.83,1.23-7.42Z"/><path class="cls-9" d="M35.36,44.92l-.73,2.18A2.77,2.77,0,0,1,32,49c-2.34,0-2.7-2.11-3.36-4.08L32,43Z"/><path class="cls-10" d="M35.75,63h-7.5c.47-3.82.22-1.78,1.5-12a2.27,2.27,0,0,1,4.5,0C35.5,61,35.27,59.12,35.75,63Z"/><path class="cls-11" d="M24,39V63H18V42a3,3,0,0,1,3-3Z"/><path class="cls-12" d="M46,42V63H40V39h3A3,3,0,0,1,46,42Z"/><rect class="cls-13" x="18" y="60" width="6" height="3"/><polygon class="cls-14" points="35.38 60 35.75 63 28.25 63 28.62 60 35.38 60"/><rect class="cls-13" x="40" y="60" width="6" height="3"/><path class="cls-2" d="M21,20a1,1,0,0,1-.92-1.39L21,16.46c4.19-9.78,11.09-2.41,18.45-7.29a1,1,0,0,1,1.26.12C44,12.55,43.48,15.78,44,18.84a1,1,0,0,1-2,.32c-.42-2.6.28-5.09-2.18-7.88-7.82,4.49-13.57-2-17,6C22,19.28,21.87,20,21,20Z"/><path class="cls-15" d="M45,25H42V19h3a3,3,0,0,1,0,6Z"/><path class="cls-16" d="M19,19h3v6H19a3,3,0,0,1,0-6Z"/><path class="cls-17" d="M44,20v4a12,12,0,0,1-24,0c0-4.81-.24-3.44.92-6.15A8,8,0,0,1,27.6,13c4.15-.36,7.91,1,12.4-2C43.07,14.07,43.53,17.13,44,20Z"/><path class="cls-18" d="M29.17,29.41a1,1,0,0,1,1.42,0,2,2,0,0,0,2.82,0,1,1,0,0,1,1.42,1.42C32.14,33.51,27.68,30.91,29.17,29.41Z"/><path class="cls-19" d="M25,21V20a1,1,0,0,1,2,0v1A1,1,0,0,1,25,21Z"/><path class="cls-19" d="M37,21V20a1,1,0,0,1,2,0v1A1,1,0,0,1,37,21Z"/><path class="cls-6" d="M44,21.11c-.43-2.58-1.73-5.06-4.17-7.83C36.09,15.43,33.09,15,28.28,15c-2.81,0-6.34,1.67-7.44,4.24S20,21.78,20,20l.92-2.15A8,8,0,0,1,28.28,13h5.23c4.5-.23,5.72-2,6.49-2A14.19,14.19,0,0,1,44,21.11Z"/></g></svg>