<svg xmlns="http://www.w3.org/2000/svg" xmlns:xlink="http://www.w3.org/1999/xlink" viewBox="0 0 64 64"><defs><style>.cls-1{fill:url(#linear-gradient);}.cls-2{fill:#42455e;}.cls-3{fill:#575f7c;}.cls-4{fill:url(#linear-gradient-2);}.cls-5{fill:url(#linear-gradient-3);}.cls-6{fill:url(#linear-gradient-4);}</style><linearGradient id="linear-gradient" x1="32" y1="53" x2="32" y2="29.45" gradientUnits="userSpaceOnUse"><stop offset="0" stop-color="#474f72"/><stop offset="1" stop-color="#878c9f"/></linearGradient><linearGradient id="linear-gradient-2" y1="37" y2="11" xlink:href="#linear-gradient"/><linearGradient id="linear-gradient-3" x1="43" y1="47.99" x2="43" y2="23" gradientUnits="userSpaceOnUse"><stop offset="0" stop-color="#e9a254"/><stop offset="1" stop-color="#f4bb79"/></linearGradient><linearGradient id="linear-gradient-4" x1="54" y1="53" x2="54" y2="47" xlink:href="#linear-gradient-3"/></defs><title>Graduation Cap</title><g id="Graduation_Cap" data-name="Graduation Cap"><path class="cls-1" d="M50,29.45V44c0,3.31-8.06,9-18,9s-18-5.69-18-9V29.45Z"/><path class="cls-2" d="M50,40.55V44c0,3.31-8.06,9-18,9s-18-5.69-18-9V40.55c0,3.31,8.06,9,18,9S50,43.86,50,40.55Z"/><polygon class="cls-3" points="50 29.45 50 31.62 32 39.17 14 31.62 14 29.45 50 29.45"/><polygon class="cls-4" points="32 37 1 24 32 11 63 24 32 37"/><path class="cls-5" d="M53,47V28.83L31.82,25a1,1,0,0,1,.36-2l22,4A1,1,0,0,1,55,28V47A1,1,0,0,1,53,47Z"/><path class="cls-6" d="M56.33,49,57,53H51l.67-4A2.36,2.36,0,0,1,56.33,49Z"/></g></svg>