<svg xmlns="http://www.w3.org/2000/svg" xmlns:xlink="http://www.w3.org/1999/xlink" viewBox="0 0 64 64"><defs><style>.cls-1{fill:url(#linear-gradient);}.cls-2{fill:url(#linear-gradient-2);}.cls-3{fill:#aae0e5;}.cls-4{fill:#77cacb;}.cls-5{fill:url(#linear-gradient-3);}.cls-6{fill:#8288a1;}.cls-7{fill:#d7dbe2;}.cls-8{fill:#7ece67;}.cls-9{fill:url(#linear-gradient-4);}.cls-10{fill:url(#linear-gradient-5);}.cls-11{fill:url(#linear-gradient-6);}.cls-12{fill:url(#linear-gradient-7);}.cls-13{fill:url(#linear-gradient-8);}.cls-14{fill:#f2a961;}.cls-15{fill:#fff2e3;}.cls-16{fill:#42455e;}</style><linearGradient id="linear-gradient" x1="32" y1="55" x2="32" y2="15" gradientUnits="userSpaceOnUse"><stop offset="0" stop-color="#a0a6ba"/><stop offset="1" stop-color="#c6ccda"/></linearGradient><linearGradient id="linear-gradient-2" x1="32" y1="51" x2="32" y2="19" gradientUnits="userSpaceOnUse"><stop offset="0" stop-color="#9dd5df"/><stop offset="1" stop-color="#c3e1f5"/></linearGradient><linearGradient id="linear-gradient-3" y1="63" y2="55" xlink:href="#linear-gradient"/><linearGradient id="linear-gradient-4" x1="40" y1="46" x2="40" y2="38" gradientUnits="userSpaceOnUse"><stop offset="0" stop-color="#8cdd79"/><stop offset="1" stop-color="#d4e6b6"/></linearGradient><linearGradient id="linear-gradient-5" x1="24" y1="44" x2="24" y2="36" xlink:href="#linear-gradient-4"/><linearGradient id="linear-gradient-6" x1="32" y1="33" x2="32" y2="1" gradientUnits="userSpaceOnUse"><stop offset="0" stop-color="#474f72"/><stop offset="1" stop-color="#878c9f"/></linearGradient><linearGradient id="linear-gradient-7" x1="18.2" y1="16" x2="18.2" y2="13.58" xlink:href="#linear-gradient-6"/><linearGradient id="linear-gradient-8" x1="32" y1="27" x2="32" y2="7" gradientUnits="userSpaceOnUse"><stop offset="0" stop-color="#e9a254"/><stop offset="1" stop-color="#f4bb79"/></linearGradient></defs><title>Growth</title><g id="Growth"><path class="cls-1" d="M8,15a3,3,0,0,0-3,3V55H59V18a3,3,0,0,0-3-3Z"/><path class="cls-2" d="M55,19V51H9V19Z"/><path class="cls-3" d="M55,19v2H9V19Z"/><path class="cls-4" d="M55,49v2H9V49Z"/><path class="cls-5" d="M3,55H61a2,2,0,0,1,2,2v2a4,4,0,0,1-4,4H5a4,4,0,0,1-4-4V57A2,2,0,0,1,3,55Z"/><path class="cls-6" d="M63,57v2a4,4,0,0,1-4,4H5a4,4,0,0,1-4-4V57a4,4,0,0,0,4,4H59A4,4,0,0,0,63,57Z"/><polygon class="cls-7" points="40 58 24 58 22 55 42 55 40 58"/><rect class="cls-6" x="5" y="53" width="54" height="2"/><path class="cls-8" d="M33,33V51H31V33A1,1,0,0,1,33,33Z"/><path class="cls-9" d="M41,38h6a8,8,0,0,1-8,8H33A8,8,0,0,1,41,38Z"/><path class="cls-10" d="M23,36H17a8,8,0,0,0,8,8h6A8,8,0,0,0,23,36Z"/><path class="cls-8" d="M47,38a8,8,0,0,1-8,8H33a8.24,8.24,0,0,1,.25-2c5.45,0,8.49.56,11.41-2.34A8.12,8.12,0,0,0,46.75,38Z"/><path class="cls-8" d="M31,44c-5.64,0-8.72.58-11.66-2.34A8,8,0,0,1,17,36h.25A8,8,0,0,0,25,42h5.75A8.24,8.24,0,0,1,31,44Z"/><path class="cls-11" d="M45.61,13.76l2.25-1.3-4-6.92L41.61,6.83A14,14,0,0,0,36,3.59V1H28V3.59a14,14,0,0,0-5.61,3.24L20.14,5.54l-4,6.92,2.25,1.3a13.65,13.65,0,0,0,0,6.48l-2.25,1.3,4,6.92,2.25-1.29A14,14,0,0,0,28,30.41V33h8V30.41a14,14,0,0,0,5.61-3.24l2.25,1.29,4-6.92-2.25-1.3A13.65,13.65,0,0,0,45.61,13.76Z"/><path class="cls-12" d="M18.08,13.58c.63.37.13-.19,0,2.42A12.51,12.51,0,0,1,18.08,13.58Z"/><circle class="cls-13" cx="32" cy="17" r="10"/><circle class="cls-13" cx="32" cy="17" r="10"/><path class="cls-14" d="M42,18a10,10,0,0,0-19.9,0A10,10,0,1,1,42,18Z"/><path class="cls-15" d="M33,16H31a1,1,0,0,1,0-2h4a1,1,0,0,0,0-2H33V11a1,1,0,0,0-2,0v1a3,3,0,0,0,0,6h2a1,1,0,0,1,0,2H29a1,1,0,0,0,0,2h2v1a1,1,0,0,0,2,0V22a3,3,0,0,0,0-6Z"/><path class="cls-16" d="M45.61,20.24l2.25,1.3-4,6.92-2.25-1.29A14,14,0,0,1,36,30.41V33H28V30.41a14,14,0,0,1-5.61-3.24l-2.25,1.29-4-6.92,2.25-1.3A13.73,13.73,0,0,1,18,16,14,14,0,0,0,46,16,13.41,13.41,0,0,1,45.61,20.24Z"/></g></svg>