<svg xmlns="http://www.w3.org/2000/svg" xmlns:xlink="http://www.w3.org/1999/xlink" viewBox="0 0 64 64"><defs><style>.cls-1{fill:url(#linear-gradient);}.cls-2{fill:url(#linear-gradient-2);}.cls-3{fill:url(#linear-gradient-3);}.cls-4{fill:url(#linear-gradient-4);}.cls-5{fill:#dd8b37;}.cls-6{fill:#cf4055;}.cls-7{fill:url(#linear-gradient-5);}.cls-8{fill:url(#linear-gradient-6);}.cls-9{fill:url(#linear-gradient-7);}.cls-10{fill:url(#linear-gradient-8);}</style><linearGradient id="linear-gradient" x1="24" y1="63" x2="24" y2="43" gradientUnits="userSpaceOnUse"><stop offset="0" stop-color="#e9a254"/><stop offset="1" stop-color="#f4bb79"/></linearGradient><linearGradient id="linear-gradient-2" x1="40" x2="40" y2="29" xlink:href="#linear-gradient"/><linearGradient id="linear-gradient-3" x1="56" x2="56" y2="14" xlink:href="#linear-gradient"/><linearGradient id="linear-gradient-4" x1="8" x2="8" y2="39" xlink:href="#linear-gradient"/><linearGradient id="linear-gradient-5" x1="8" y1="29" x2="8" y2="25" gradientUnits="userSpaceOnUse"><stop offset="0" stop-color="#da5466"/><stop offset="1" stop-color="#f4929c"/></linearGradient><linearGradient id="linear-gradient-6" x1="24" y1="33" x2="24" y2="29" xlink:href="#linear-gradient-5"/><linearGradient id="linear-gradient-7" x1="40" y1="19" x2="40" y2="15" xlink:href="#linear-gradient-5"/><linearGradient id="linear-gradient-8" x1="53.77" y1="7.54" x2="53.77" y2="1" xlink:href="#linear-gradient-5"/></defs><title>hockey stick growth</title><g id="hockey_stick_growth" data-name="hockey stick growth"><rect class="cls-1" x="20" y="43" width="8" height="20"/><rect class="cls-2" x="36" y="29" width="8" height="34"/><rect class="cls-3" x="52" y="14" width="8" height="49"/><rect class="cls-4" x="4" y="39" width="8" height="24"/><rect class="cls-5" x="4" y="60" width="8" height="3"/><rect class="cls-5" x="20" y="60" width="8" height="3"/><rect class="cls-5" x="36" y="60" width="8" height="3"/><rect class="cls-5" x="52" y="60" width="8" height="3"/><path class="cls-6" d="M41.45,16.64a1,1,0,0,1-.68-1.73L52.7,3.72a1,1,0,0,1,1.36,1.46C41.08,17.36,42,16.64,41.45,16.64Z"/><path class="cls-6" d="M25.5,30.69a1,1,0,0,1-.66-1.75l13-11.38a1,1,0,0,1,1.32,1.5C25.1,31.37,26,30.69,25.5,30.69Z"/><path class="cls-6" d="M22.06,31.52c-.18,0,.71.21-12.36-3.06a1,1,0,0,1,.48-1.94l12.12,3A1,1,0,0,1,22.06,31.52Z"/><circle class="cls-7" cx="8" cy="27" r="2"/><circle class="cls-8" cx="24" cy="31" r="2"/><circle class="cls-9" cx="40" cy="17" r="2"/><polygon class="cls-10" points="56.01 7.54 50.53 1.1 57 1 56.01 7.54"/></g></svg>