<svg xmlns="http://www.w3.org/2000/svg" viewBox="0 0 128 128"><defs><style>.cls-1{fill:#7aa8d7;}.cls-2{fill:#5b8dc9;}.cls-3{fill:#9dd5df;}.cls-4{fill:#949aaf;}.cls-5{fill:#77cacb;}.cls-6{fill:#fbcc88;}.cls-7{fill:#f6b756;}</style></defs><title>Landing Success</title><g id="Landing_Success" data-name="Landing Success"><path class="cls-1" d="M64,2.38v17s7-3.1,14,0,14,0,14,0v-17s-7,3.1-14,0S64,2.38,64,2.38Z"/><path class="cls-2" d="M92,15.38v4s-7,3.1-14,0-14,0-14,0v-4s7-3.1,14,0S92,15.38,92,15.38Z"/><path class="cls-3" d="M23.22,62.94A45,45,0,0,1,64,37c40.15,0,60.14,49,31.53,77.11C67.34,141.8,19,122,19,82"/><path class="cls-4" d="M94.32,115.25c-.57.53-1.17,1-1.77,1.54-22-7.86-48.08-22.58-66.87-37.17A1,1,0,0,1,26.94,78C50.23,96.12,81.3,111.42,94.32,115.25Z"/><path class="cls-5" d="M79.73,124.17C50.49,135.09,19,113.47,19,82l.26-1.16A45,45,0,0,0,108.9,79,45,45,0,0,1,79.73,124.17Z"/><path class="cls-4" d="M63,45V1a1,1,0,0,1,2,0V45A1,1,0,0,1,63,45Z"/><path class="cls-1" d="M12.05,64.89a1,1,0,0,1-1.46,1.42C4.36,59.87-2.39,51,.79,45.51s15.64-5,34.11,1.5a1,1,0,0,1,.43.3c-.56.47-1.11.94-1.64,1.44C5.24,38.8-9,43.11,12.05,64.89Z"/><path class="cls-1" d="M93.11,117A263.66,263.66,0,0,1,25.68,79.62a1,1,0,0,1-.18-1.44c1.58-2,3.28,3.43,29.87,18.77,16.55,9.54,33.1,16.58,38.95,18.3,16.65,5.82,28.56,6.67,31.13,2.22S121.31,103.14,108,91.64q.24-1.06.42-2.16a1.09,1.09,0,0,1,.47.23C140.28,116.6,131.65,130.62,93.11,117Z"/><circle class="cls-6" cx="19" cy="72" r="10"/><path class="cls-7" d="M19,82A10,10,0,0,1,9.2,70a10,10,0,0,0,19.6,0A10,10,0,0,1,19,82Z"/></g></svg>