<svg xmlns="http://www.w3.org/2000/svg" xmlns:xlink="http://www.w3.org/1999/xlink" viewBox="0 0 64 64"><defs><style>.cls-1{fill:url(#linear-gradient);}.cls-2{fill:#c7cdd8;}.cls-3{fill:url(#linear-gradient-2);}.cls-4{fill:url(#linear-gradient-3);}.cls-5{fill:url(#linear-gradient-4);}.cls-6{fill:#cf4055;}.cls-7{fill:#dd8b37;}.cls-8{fill:#5b8dc9;}.cls-9{fill:#42455e;}</style><linearGradient id="linear-gradient" x1="5" y1="59" x2="53" y2="59" gradientUnits="userSpaceOnUse"><stop offset="0" stop-color="#d4d8e1"/><stop offset="1" stop-color="#f3f4f5"/></linearGradient><linearGradient id="linear-gradient-2" x1="29" y1="59" x2="29" y2="1" gradientUnits="userSpaceOnUse"><stop offset="0" stop-color="#7aa8d7"/><stop offset="1" stop-color="#c3d2e7"/></linearGradient><linearGradient id="linear-gradient-3" x1="32" y1="34" x2="32" y2="8" xlink:href="#linear-gradient"/><linearGradient id="linear-gradient-4" x1="8" y1="59" x2="8" y2="1" gradientUnits="userSpaceOnUse"><stop offset="0" stop-color="#474f72"/><stop offset="1" stop-color="#878c9f"/></linearGradient></defs><title>Language</title><g id="Language"><path class="cls-1" d="M53,55v8H9a4,4,0,0,1,0-8Z"/><path class="cls-2" d="M53,61v2H9a4,4,0,0,1-3.87-5A4,4,0,0,0,9,61Z"/><path class="cls-2" d="M53,57v2H9a1,1,0,0,1,0-2Z"/><path class="cls-3" d="M53,1V55H9a4,4,0,0,0-4,4V5A4,4,0,0,1,9,1Z"/><rect class="cls-4" x="16" y="8" width="32" height="26"/><rect class="cls-2" x="16" y="31" width="32" height="3"/><path class="cls-5" d="M11,1V55H9a4,4,0,0,0-4,4V5A4,4,0,0,1,9,1Z"/><path class="cls-6" d="M31,16H21a1,1,0,0,1,0-2H31A1,1,0,0,1,31,16Z"/><path class="cls-6" d="M29,25c-1.42,0-7-5.3-7-10a1,1,0,0,1,2,0c0,.2.13,4.55,5.55,8.17A1,1,0,0,1,29,25ZM24,15h0Z"/><path class="cls-6" d="M23,25a1,1,0,0,1-.55-1.83c5.43-3.6,4.4-6.87,6.21-6.09a1,1,0,0,1,.53,1.31C27.55,22.09,23.77,25,23,25Z"/><path class="cls-6" d="M25,15V13a1,1,0,0,1,2,0v2A1,1,0,0,1,25,15Z"/><path class="cls-7" d="M43,30c-.92,0-.68,0-4-8.31l-3.07,7.68a1,1,0,0,1-1.86-.74l4-10a1,1,0,0,1,1.86,0l4,10A1,1,0,0,1,43,30Z"/><path class="cls-7" d="M41,27H37a1,1,0,0,1,0-2h4A1,1,0,0,1,41,27Z"/><rect class="cls-8" x="11" y="52" width="42" height="3"/><path class="cls-9" d="M11,52v3H9a4,4,0,0,0-4,4V56a4,4,0,0,1,4-4Z"/></g></svg>