<svg xmlns="http://www.w3.org/2000/svg" viewBox="0 0 128 128"><defs><style>.cls-1{fill:#dde1e8;}.cls-2{fill:#c7cdd8;}.cls-3{fill:#7aa8d7;}.cls-4{fill:#5b8dc9;}.cls-5{fill:#9dd5df;}.cls-6{fill:#77cacb;}.cls-7{fill:#949aaf;}.cls-8{fill:#e2607f;}.cls-9{fill:#fbcc88;}</style></defs><title>Launching</title><g id="Launching"><path class="cls-1" d="M86,37V89.29A5.57,5.57,0,0,1,80.58,95H47.42A5.57,5.57,0,0,1,42,89.29V37a43.23,43.23,0,0,1,7.92-25A40.24,40.24,0,0,1,59,2.66a8.29,8.29,0,0,1,10,0A42.73,42.73,0,0,1,86,37Z"/><path class="cls-2" d="M86,83.29v6A5.57,5.57,0,0,1,80.58,95H47.42A5.57,5.57,0,0,1,42,89.29v-6A5.57,5.57,0,0,0,47.42,89H80.58A5.57,5.57,0,0,0,86,83.29Z"/><path class="cls-3" d="M79.07,13.43a37.38,37.38,0,0,1-30.14,0A40.85,40.85,0,0,1,59,2.66a8.29,8.29,0,0,1,10,0A40.63,40.63,0,0,1,79.07,13.43Z"/><path class="cls-4" d="M79.07,13.43a37.38,37.38,0,0,1-30.14,0,42.32,42.32,0,0,1,2.82-3.85,38.13,38.13,0,0,0,24.5,0A42.7,42.7,0,0,1,79.07,13.43Z"/><circle class="cls-5" cx="64" cy="60" r="13"/><path class="cls-6" d="M76.85,62a13,13,0,0,0-25.7,0,13,13,0,1,1,25.7,0Z"/><polygon class="cls-7" points="48 95 80 95 78 103 50 103 48 95"/><polygon class="cls-3" points="86 54 114 76.63 114 88 86 88 86 54"/><polygon class="cls-3" points="42 54 14 76.63 14 88 42 88 42 54"/><rect class="cls-4" x="86" y="82" width="28" height="6"/><rect class="cls-4" x="14" y="82" width="28" height="6"/><path class="cls-8" d="M70.69,103A7.43,7.43,0,0,1,73,108.33c0,8-9,18.67-9,18.67s-9-10.67-9-18.67A7.43,7.43,0,0,1,57.31,103"/><path class="cls-9" d="M67.9,103a4.33,4.33,0,0,1,1.35,3.11C69.25,110.78,64,117,64,117s-5.25-6.22-5.25-10.89A4.33,4.33,0,0,1,60.1,103"/></g></svg>