<svg xmlns="http://www.w3.org/2000/svg" xmlns:xlink="http://www.w3.org/1999/xlink" viewBox="0 0 64 64"><defs><style>.cls-1{fill:#8288a1;}.cls-2{fill:url(#linear-gradient);}.cls-3{fill:url(#linear-gradient-2);}.cls-4{fill:url(#linear-gradient-3);}</style><linearGradient id="linear-gradient" x1="22" y1="31" x2="42" y2="31" gradientUnits="userSpaceOnUse"><stop offset="0" stop-color="#949aaf"/><stop offset="1" stop-color="#c6ccda"/></linearGradient><linearGradient id="linear-gradient-2" x1="42" x2="62" xlink:href="#linear-gradient"/><linearGradient id="linear-gradient-3" x1="2" x2="22" xlink:href="#linear-gradient"/></defs><title>Locker</title><g id="Locker"><path class="cls-1" d="M3,62V60a1,1,0,0,1,2,0v2A1,1,0,0,1,3,62Z"/><path class="cls-1" d="M19,62V60a1,1,0,0,1,2,0v2A1,1,0,0,1,19,62Z"/><path class="cls-1" d="M23,62V60a1,1,0,0,1,2,0v2A1,1,0,0,1,23,62Z"/><path class="cls-1" d="M39,62V60a1,1,0,0,1,2,0v2A1,1,0,0,1,39,62Z"/><path class="cls-1" d="M43,62V60a1,1,0,0,1,2,0v2A1,1,0,0,1,43,62Z"/><path class="cls-1" d="M59,62V60a1,1,0,0,1,2,0v2A1,1,0,0,1,59,62Z"/><rect class="cls-2" x="22" y="1" width="20" height="60"/><rect class="cls-3" x="42" y="1" width="20" height="60"/><rect class="cls-4" x="2" y="1" width="20" height="60"/><rect class="cls-1" x="22" y="59" width="20" height="2"/><rect class="cls-1" x="42" y="59" width="20" height="2"/><rect class="cls-1" x="2" y="59" width="20" height="2"/><path class="cls-1" d="M18,8H6A1,1,0,0,1,6,6H18A1,1,0,0,1,18,8Z"/><path class="cls-1" d="M18,13H6a1,1,0,0,1,0-2H18A1,1,0,0,1,18,13Z"/><path class="cls-1" d="M18,18H6a1,1,0,0,1,0-2H18A1,1,0,0,1,18,18Z"/><path class="cls-1" d="M38,8H26a1,1,0,0,1,0-2H38A1,1,0,0,1,38,8Z"/><path class="cls-1" d="M38,13H26a1,1,0,0,1,0-2H38A1,1,0,0,1,38,13Z"/><path class="cls-1" d="M38,18H26a1,1,0,0,1,0-2H38A1,1,0,0,1,38,18Z"/><path class="cls-1" d="M58,8H46a1,1,0,0,1,0-2H58A1,1,0,0,1,58,8Z"/><path class="cls-1" d="M58,13H46a1,1,0,0,1,0-2H58A1,1,0,0,1,58,13Z"/><path class="cls-1" d="M58,18H46a1,1,0,0,1,0-2H58A1,1,0,0,1,58,18Z"/><path class="cls-1" d="M18,47H6a1,1,0,0,1,0-2H18A1,1,0,0,1,18,47Z"/><path class="cls-1" d="M18,52H6a1,1,0,0,1,0-2H18A1,1,0,0,1,18,52Z"/><path class="cls-1" d="M18,57H6a1,1,0,0,1,0-2H18A1,1,0,0,1,18,57Z"/><path class="cls-1" d="M38,47H26a1,1,0,0,1,0-2H38A1,1,0,0,1,38,47Z"/><path class="cls-1" d="M38,52H26a1,1,0,0,1,0-2H38A1,1,0,0,1,38,52Z"/><path class="cls-1" d="M38,57H26a1,1,0,0,1,0-2H38A1,1,0,0,1,38,57Z"/><path class="cls-1" d="M58,47H46a1,1,0,0,1,0-2H58A1,1,0,0,1,58,47Z"/><path class="cls-1" d="M58,52H46a1,1,0,0,1,0-2H58A1,1,0,0,1,58,52Z"/><path class="cls-1" d="M58,57H46a1,1,0,0,1,0-2H58A1,1,0,0,1,58,57Z"/><path class="cls-1" d="M17,34V30a1,1,0,0,1,2,0v4A1,1,0,0,1,17,34Z"/><path class="cls-1" d="M37,34V30a1,1,0,0,1,2,0v4A1,1,0,0,1,37,34Z"/><path class="cls-1" d="M57,34V30a1,1,0,0,1,2,0v4A1,1,0,0,1,57,34Z"/></g></svg>