<svg xmlns="http://www.w3.org/2000/svg" xmlns:xlink="http://www.w3.org/1999/xlink" viewBox="0 0 64 64"><defs><style>.cls-1{fill:#adb3c4;}.cls-2{fill:url(#linear-gradient);}.cls-3{fill:url(#linear-gradient-2);}.cls-4{fill:url(#linear-gradient-3);}.cls-5{fill:url(#linear-gradient-4);}.cls-6{fill:url(#linear-gradient-5);}.cls-7{fill:#e8677d;}.cls-8{fill:url(#linear-gradient-6);}.cls-9{fill:url(#linear-gradient-7);}.cls-10{fill:url(#linear-gradient-8);}.cls-11{fill:url(#linear-gradient-9);}.cls-12{fill:#fcd2c3;}.cls-13{fill:url(#linear-gradient-10);}.cls-14{fill:#8a6762;}.cls-15{fill:url(#linear-gradient-11);}.cls-16{fill:url(#linear-gradient-12);}.cls-17{fill:#eab39b;}.cls-18{fill:#8288a1;}.cls-19{fill:url(#linear-gradient-13);}.cls-20{fill:url(#linear-gradient-14);}.cls-21{fill:#5b8dc9;}.cls-22{fill:#cf4055;}</style><linearGradient id="linear-gradient" x1="26" y1="63" x2="26" y2="38.99" gradientUnits="userSpaceOnUse"><stop offset="0" stop-color="#7aa8d7"/><stop offset="1" stop-color="#c3d2e7"/></linearGradient><linearGradient id="linear-gradient-2" x1="26" y1="36" x2="26" y2="9.19" gradientUnits="userSpaceOnUse"><stop offset="0" stop-color="#f2c4b0"/><stop offset="1" stop-color="#ffe3d7"/></linearGradient><linearGradient id="linear-gradient-3" x1="22" y1="46.83" x2="22" y2="39" xlink:href="#linear-gradient"/><linearGradient id="linear-gradient-4" x1="26" y1="43" x2="26" y2="35.31" xlink:href="#linear-gradient-2"/><linearGradient id="linear-gradient-5" x1="30" y1="46.83" x2="30" y2="39" xlink:href="#linear-gradient"/><linearGradient id="linear-gradient-6" x1="26" y1="49" x2="26" y2="43" gradientUnits="userSpaceOnUse"><stop offset="0" stop-color="#da5466"/><stop offset="1" stop-color="#f4929c"/></linearGradient><linearGradient id="linear-gradient-7" y1="63" y2="49.01" xlink:href="#linear-gradient-6"/><linearGradient id="linear-gradient-8" x1="40" y1="25" x2="40" y2="19" xlink:href="#linear-gradient-2"/><linearGradient id="linear-gradient-9" x1="12" y1="25" x2="12" y2="19" xlink:href="#linear-gradient-2"/><linearGradient id="linear-gradient-10" x1="25.5" y1="20" x2="25.5" y2="0.97" gradientUnits="userSpaceOnUse"><stop offset="0" stop-color="#9b756d"/><stop offset="1" stop-color="#bc9388"/></linearGradient><linearGradient id="linear-gradient-11" x1="55" x2="55" y2="48" xlink:href="#linear-gradient"/><linearGradient id="linear-gradient-12" x1="55.49" y1="48" x2="55.49" y2="30.99" xlink:href="#linear-gradient-2"/><linearGradient id="linear-gradient-13" x1="20.5" y1="24" x2="20.5" y2="17" gradientUnits="userSpaceOnUse"><stop offset="0" stop-color="#9dd5df"/><stop offset="1" stop-color="#c3e1f5"/></linearGradient><linearGradient id="linear-gradient-14" x1="31.5" x2="31.5" xlink:href="#linear-gradient-13"/></defs><title>Male Teacher</title><g id="Male_Teacher" data-name="Male Teacher"><path class="cls-1" d="M53,33V2a1,1,0,0,1,2,0V33A1,1,0,0,1,53,33Z"/><path class="cls-2" d="M50,63H2c.64-3.84,1.36-8.14,2.05-12.3A14,14,0,0,1,16,39.13c1.22-.18.55-.13,18.15-.13A14,14,0,0,1,48,50.7C48.64,54.86,49.36,59.16,50,63Z"/><path class="cls-3" d="M38,9.19c0,15.93,0,15.25-.09,16.27A12,12,0,0,1,14,24V9.19Z"/><path class="cls-4" d="M26,43l-6.7,3.83L18,39h4Z"/><path class="cls-5" d="M30,35.31V39l-4,4-4-4V35.31A11.94,11.94,0,0,0,30,35.31Z"/><path class="cls-6" d="M34,39l-1.3,7.83L26,43l4-4Z"/><path class="cls-7" d="M23.17,29.41a1,1,0,0,1,1.42,0,2,2,0,0,0,2.82,0,1,1,0,0,1,1.42,1.42C26.14,33.52,21.68,30.91,23.17,29.41Z"/><path class="cls-8" d="M29.36,44.92l-.73,2.18A2.77,2.77,0,0,1,26,49c-2.34,0-2.7-2.11-3.36-4.08L26,43Z"/><path class="cls-9" d="M29.75,63h-7.5c.47-3.82.22-1.78,1.5-12a2.27,2.27,0,0,1,4.5,0C29.5,61,29.27,59.12,29.75,63Z"/><path class="cls-10" d="M39,25H38V19h1a3,3,0,0,1,0,6Z"/><path class="cls-11" d="M13,19h1v6H13a3,3,0,0,1,0-6Z"/><path class="cls-12" d="M38,9.19c0,15.93,0,15.25-.09,16.27L33.61,14c-9.21,0-11.54.52-14.57-2a15.08,15.08,0,0,0-2.86,6.88l-2.18,5V9.19Z"/><path class="cls-13" d="M14,20c.64-4.48,1.74-7.74,5-11a6.72,6.72,0,0,0,5.61,3H35l3,8,1.71-6.83A9.8,9.8,0,0,0,30.21,1C25.73,1,22.61.59,19,3a8,8,0,0,0-8,8,14.37,14.37,0,0,0,2.06,7.43Z"/><path class="cls-14" d="M38,20l-3-8H24.61A6.74,6.74,0,0,1,19,9c-3.36,3.36-4.39,6.72-5,11A17.8,17.8,0,0,1,18.1,7a8,8,0,0,0,6.38,3H34.62a2,2,0,0,1,2,1.67Z"/><rect class="cls-15" x="50" y="48" width="10" height="15"/><path class="cls-16" d="M62,35v4c0,3-3,5-3,5v4H51V44s-2-2-2-4c0-4.63-.6-9,4-9,.68,0,.94.34.88.95C55.28,30.29,62,30.49,62,35Z"/><path class="cls-17" d="M56,40c0,1.83-4,1.1-4-2,0-1.07-.38-6,1.42-6.94.39.13.5.46.46.89a2.1,2.1,0,0,1,.85-.51,1,1,0,0,1-.07,1.14C53.79,33.65,54,35.69,54,38a.91.91,0,0,0,1,1A1,1,0,0,1,56,40Z"/><path class="cls-18" d="M27,20.22a2.5,2.5,0,0,0-2,0,1,1,0,0,1-1.12.77c-8.32-1.19-6.17-1-9.86-1a1,1,0,0,1,0-2c4.07,0,1.7-.2,9.44.91a4,4,0,0,1,5.12,0C36.35,17.8,34,18,38,18a1,1,0,0,1,0,2c-3.9,0-1.55-.2-9.86,1A1,1,0,0,1,27,20.22Z"/><circle class="cls-19" cx="20.5" cy="20.5" r="3.5"/><circle class="cls-20" cx="31.5" cy="20.5" r="3.5"/><path class="cls-12" d="M30,35.31v2a11.94,11.94,0,0,1-8,0v-2A11.94,11.94,0,0,0,30,35.31Z"/><polygon class="cls-21" points="22.62 60 22.25 63 2 63 2.5 60 22.62 60"/><polygon class="cls-21" points="50 63 29.75 63 29.38 60 49.5 60 50 63"/><polygon class="cls-22" points="29.75 63 22.25 63 22.62 60 29.38 60 29.75 63"/><rect class="cls-21" x="50" y="60" width="10" height="3"/></g></svg>