<svg xmlns="http://www.w3.org/2000/svg" xmlns:xlink="http://www.w3.org/1999/xlink" viewBox="0 0 64 64"><defs><style>.cls-1{fill:url(#linear-gradient);}.cls-2{fill:url(#linear-gradient-2);}.cls-3{fill:#86b8e0;}.cls-4{fill:url(#linear-gradient-3);}.cls-5{fill:#cba07a;}.cls-6{fill:url(#linear-gradient-4);}.cls-7{fill:#42455e;}.cls-8{fill:url(#linear-gradient-5);}.cls-9{fill:url(#linear-gradient-6);}.cls-10{fill:#c7cdd8;}.cls-11{fill:#cf4055;}</style><linearGradient id="linear-gradient" x1="32" y1="63" x2="32" y2="1" gradientUnits="userSpaceOnUse"><stop offset="0" stop-color="#474f72"/><stop offset="1" stop-color="#878c9f"/></linearGradient><linearGradient id="linear-gradient-2" x1="32" y1="51" x2="32" y2="13" gradientUnits="userSpaceOnUse"><stop offset="0" stop-color="#7aa8d7"/><stop offset="1" stop-color="#c3d2e7"/></linearGradient><linearGradient id="linear-gradient-3" x1="32" y1="35.45" x2="32" y2="19.91" gradientUnits="userSpaceOnUse"><stop offset="0" stop-color="#d1a788"/><stop offset="1" stop-color="#f2d3b8"/></linearGradient><linearGradient id="linear-gradient-4" x1="32" y1="50.99" x2="32" y2="35.48" gradientUnits="userSpaceOnUse"><stop offset="0" stop-color="#d4d8e1"/><stop offset="1" stop-color="#f3f4f5"/></linearGradient><linearGradient id="linear-gradient-5" x1="32" y1="50.98" x2="32" y2="39" gradientUnits="userSpaceOnUse"><stop offset="0" stop-color="#da5466"/><stop offset="1" stop-color="#f4929c"/></linearGradient><linearGradient id="linear-gradient-6" y1="41" y2="36.99" xlink:href="#linear-gradient-5"/></defs><title>Manager</title><g id="Manager"><path class="cls-1" d="M57.19,25.54l5.16-3-7-12.12-5.17,3A26,26,0,0,0,39,7V1H25V7a26,26,0,0,0-11.18,6.46l-5.17-3-7,12.12,5.16,3a26,26,0,0,0,0,12.92l-5.16,3,7,12.12,5.17-3A26,26,0,0,0,25,57v6H39V57a26,26,0,0,0,11.18-6.46l5.17,3,7-12.12-5.16-3A26,26,0,0,0,57.19,25.54Z"/><circle class="cls-2" cx="32" cy="32" r="19"/><path class="cls-3" d="M50.94,33.5a19,19,0,0,0-37.88,0,19,19,0,1,1,37.88,0Z"/><rect class="cls-4" x="25.09" y="19.91" width="13.82" height="15.55" rx="6.59"/><path class="cls-5" d="M38.91,28.87a6.58,6.58,0,0,1-6.59,6.58h-.64a6.58,6.58,0,0,1-6.59-6.58c0-2.41,0-2.53,0-2.68a6.58,6.58,0,0,0,6.58,6.26h.64a6.58,6.58,0,0,0,6.58-6.26C38.92,26.36,38.91,26.48,38.91,28.87Z"/><path class="cls-6" d="M44.31,46.46a19,19,0,0,1-24.62,0c.91-2.71.73-2.19.95-2.81,3.63-10.9,19.09-10.9,22.72,0C43.57,44.24,43.39,43.73,44.31,46.46Z"/><path class="cls-7" d="M57.19,38.46l5.16,3-7,12.12-5.17-3A26,26,0,0,1,39,57v6H25V57a26,26,0,0,1-11.18-6.46l-5.17,3-7-12.12,5.16-3a26.45,26.45,0,0,1-.77-8A26,26,0,0,0,58,30.5,26.19,26.19,0,0,1,57.19,38.46Z"/><path class="cls-8" d="M34,50.88a20.44,20.44,0,0,1-4,0c0-.1,1-10.88,1-11A1,1,0,0,1,32,39c1.15,0,1,1.41,1.08,1.77C33.86,49.38,33.66,47.14,34,50.88Z"/><path class="cls-9" d="M34.27,37.84c-.61-1-1.52-.84-3-.84a1.76,1.76,0,0,0-1.57,2.55,2.62,2.62,0,0,0,4.68,0A1.74,1.74,0,0,0,34.27,37.84Z"/><path class="cls-10" d="M30.27,47.92c-.31,3.36-.27,2.86-.27,3a16.22,16.22,0,0,1-1.67-.25,19,19,0,0,1-8.64-4.18l.79-2.35A18.9,18.9,0,0,0,30.27,47.92Z"/><path class="cls-10" d="M44.31,46.46C41,49.33,36.21,50.89,34,50.89c0-.11.06.59-.27-3a18.9,18.9,0,0,0,9.79-3.81Z"/><path class="cls-11" d="M34,50.88a19.68,19.68,0,0,1-4,0c0-.11-.06.59.27-3a19,19,0,0,0,3.46,0Z"/></g></svg>