<svg xmlns="http://www.w3.org/2000/svg" xmlns:xlink="http://www.w3.org/1999/xlink" viewBox="0 0 64 64"><defs><style>.cls-1{fill:url(#linear-gradient);}.cls-2{fill:url(#linear-gradient-2);}.cls-3{fill:url(#linear-gradient-3);}.cls-4{fill:url(#linear-gradient-4);}.cls-5{fill:#fff;}.cls-6{fill:#cf4055;}.cls-7{fill:#f6b756;}.cls-8{fill:#7ece67;}.cls-9{fill:#5b8dc9;}</style><linearGradient id="linear-gradient" x1="15" y1="29" x2="15" y2="1" gradientUnits="userSpaceOnUse"><stop offset="0" stop-color="#da5466"/><stop offset="1" stop-color="#f4929c"/></linearGradient><linearGradient id="linear-gradient-2" x1="49" y1="29" x2="49" y2="1" gradientUnits="userSpaceOnUse"><stop offset="0" stop-color="#fbcc88"/><stop offset="1" stop-color="#ffe5c3"/></linearGradient><linearGradient id="linear-gradient-3" x1="15" y1="63" x2="15" y2="35" gradientUnits="userSpaceOnUse"><stop offset="0" stop-color="#8cdd79"/><stop offset="1" stop-color="#d4e6b6"/></linearGradient><linearGradient id="linear-gradient-4" x1="49" y1="63" x2="49" y2="35" gradientUnits="userSpaceOnUse"><stop offset="0" stop-color="#7aa8d7"/><stop offset="1" stop-color="#c3d2e7"/></linearGradient></defs><title>Math</title><g id="Math"><rect class="cls-1" x="1" y="1" width="28" height="28" rx="8"/><rect class="cls-2" x="35" y="1" width="28" height="28" rx="8"/><rect class="cls-3" x="1" y="35" width="28" height="28" rx="8"/><rect class="cls-4" x="35" y="35" width="28" height="28" rx="8"/><polygon class="cls-5" points="24 13 17 13 17 6 13 6 13 13 6 13 6 17 13 17 13 24 17 24 17 17 24 17 24 13"/><rect class="cls-5" x="13" y="40" width="4" height="18" transform="translate(64 34) rotate(90)"/><polygon class="cls-5" points="57.41 43.41 54.59 40.59 49 46.17 43.41 40.59 40.59 43.41 46.17 49 40.59 54.59 43.41 57.41 49 51.83 54.59 57.41 57.41 54.59 51.83 49 57.41 43.41"/><rect class="cls-5" x="47" y="6" width="4" height="18" transform="translate(64 -34) rotate(90)"/><circle class="cls-5" cx="15" cy="42" r="2"/><circle class="cls-5" cx="15" cy="56" r="2"/><path class="cls-6" d="M29,18v3a8,8,0,0,1-8,8H9a8,8,0,0,1-8-8V18a8,8,0,0,0,8,8H21A8,8,0,0,0,29,18Z"/><path class="cls-7" d="M63,18v3a8,8,0,0,1-8,8H43a8,8,0,0,1-8-8V18a8,8,0,0,0,8,8H55A8,8,0,0,0,63,18Z"/><path class="cls-8" d="M29,52v3a8,8,0,0,1-8,8H9a8,8,0,0,1-8-8V52a8,8,0,0,0,8,8H21A8,8,0,0,0,29,52Z"/><path class="cls-9" d="M63,52v3a8,8,0,0,1-8,8H43a8,8,0,0,1-8-8V52a8,8,0,0,0,8,8H55A8,8,0,0,0,63,52Z"/></g></svg>