<svg xmlns="http://www.w3.org/2000/svg" xmlns:xlink="http://www.w3.org/1999/xlink" viewBox="0 0 64 64"><defs><style>.cls-1{fill:url(#linear-gradient);}.cls-2{fill:#42455e;}.cls-3{fill:url(#linear-gradient-2);}.cls-4{fill:url(#linear-gradient-3);}.cls-5{fill:#4da67f;}.cls-6{fill:#77cacb;}.cls-7{fill:#9fe2bf;}.cls-8{fill:url(#linear-gradient-4);}</style><linearGradient id="linear-gradient" x1="20" y1="63" x2="20" y2="1" gradientUnits="userSpaceOnUse"><stop offset="0" stop-color="#474f72"/><stop offset="1" stop-color="#878c9f"/></linearGradient><linearGradient id="linear-gradient-2" x1="20" y1="59" x2="20" y2="5" gradientUnits="userSpaceOnUse"><stop offset="0" stop-color="#9dd5df"/><stop offset="1" stop-color="#c3e1f5"/></linearGradient><linearGradient id="linear-gradient-3" x1="39" y1="46" x2="39" y2="18" gradientUnits="userSpaceOnUse"><stop offset="0" stop-color="#6ab891"/><stop offset="1" stop-color="#85cba9"/></linearGradient><linearGradient id="linear-gradient-4" x1="33" y1="32" x2="45" y2="32" xlink:href="#linear-gradient-3"/></defs><title>Mobile Payment</title><g id="Mobile_Payment" data-name="Mobile Payment"><rect class="cls-1" x="1" y="1" width="38" height="62" rx="4"/><path class="cls-2" d="M39,57v2a4,4,0,0,1-4,4H5a4,4,0,0,1-4-4V57a4,4,0,0,0,4,4H35A4,4,0,0,0,39,57Z"/><path class="cls-3" d="M35,5V59H5V5h7a2,2,0,0,0,2,2H26a2,2,0,0,0,2-2Z"/><path class="cls-2" d="M17,4a1,1,0,0,1-2,0A1,1,0,0,1,17,4Z"/><path class="cls-2" d="M25,4a1,1,0,0,1-2,0A1,1,0,0,1,25,4Z"/><rect class="cls-4" x="15" y="18" width="48" height="28"/><rect class="cls-5" x="15" y="44" width="48" height="2"/><rect class="cls-2" x="35" y="46" width="4" height="2"/><rect class="cls-6" x="15" y="46" width="20" height="2"/><path class="cls-7" d="M54,42H24a5,5,0,0,0-5-5V27a5,5,0,0,0,5-5H54a5,5,0,0,0,5,5V37A5,5,0,0,0,54,42Z"/><path class="cls-7" d="M60,22a1,1,0,0,1-2,0A1,1,0,0,1,60,22Z"/><path class="cls-7" d="M60,42a1,1,0,0,1-2,0A1,1,0,0,1,60,42Z"/><path class="cls-7" d="M20,22a1,1,0,0,1-2,0A1,1,0,0,1,20,22Z"/><path class="cls-7" d="M20,42a1,1,0,0,1-2,0A1,1,0,0,1,20,42Z"/><circle class="cls-8" cx="39" cy="32" r="6"/><path class="cls-5" d="M54,33H50a1,1,0,0,1,0-2h4A1,1,0,0,1,54,33Z"/><path class="cls-5" d="M28,33H24a1,1,0,0,1,0-2h4A1,1,0,0,1,28,33Z"/><rect class="cls-6" x="5" y="57" width="30" height="2"/></g></svg>