<svg xmlns="http://www.w3.org/2000/svg" xmlns:xlink="http://www.w3.org/1999/xlink" viewBox="0 0 64 64"><defs><style>.cls-1{fill:#9ca0ad;}.cls-2{fill:url(#linear-gradient);}.cls-3{fill:url(#linear-gradient-2);}.cls-4{fill:#8a6762;}.cls-5{fill:url(#linear-gradient-3);}.cls-6{fill:url(#linear-gradient-4);}.cls-7{fill:url(#linear-gradient-5);}.cls-8{fill:url(#linear-gradient-6);}.cls-9{fill:url(#linear-gradient-7);}.cls-10{fill:url(#linear-gradient-8);}.cls-11{fill:url(#linear-gradient-9);}.cls-12{fill:#42455e;}</style><linearGradient id="linear-gradient" x1="60" y1="35.8" x2="60" y2="29.8" gradientUnits="userSpaceOnUse"><stop offset="0" stop-color="#474f72"/><stop offset="1" stop-color="#878c9f"/></linearGradient><linearGradient id="linear-gradient-2" x1="28" y1="55" x2="28" y2="49" gradientUnits="userSpaceOnUse"><stop offset="0" stop-color="#9b756d"/><stop offset="1" stop-color="#bc9388"/></linearGradient><linearGradient id="linear-gradient-3" x1="7" y1="49" x2="7" y2="45" xlink:href="#linear-gradient"/><linearGradient id="linear-gradient-4" x1="49" y1="49" x2="49" y2="45" xlink:href="#linear-gradient"/><linearGradient id="linear-gradient-5" x1="28" y1="45" x2="28" y2="9" gradientUnits="userSpaceOnUse"><stop offset="0" stop-color="#949aaf"/><stop offset="1" stop-color="#c6ccda"/></linearGradient><linearGradient id="linear-gradient-6" x1="28" y1="44" x2="28" y2="38" xlink:href="#linear-gradient"/><linearGradient id="linear-gradient-7" x1="34" y1="44" x2="34" y2="38" xlink:href="#linear-gradient"/><linearGradient id="linear-gradient-8" x1="22" y1="44" x2="22" y2="38" xlink:href="#linear-gradient"/><linearGradient id="linear-gradient-9" x1="16" y1="44" x2="16" y2="38" xlink:href="#linear-gradient"/></defs><title>Momentum</title><g id="Momentum"><path class="cls-1" d="M57.88,31.68c-.61,0,1,1.43-19.49-19.07a1,1,0,0,1,1.42-1.42L58.59,30A1,1,0,0,1,57.88,31.68Z"/><path class="cls-1" d="M27,38V13a1,1,0,0,1,2,0V38A1,1,0,0,1,27,38Z"/><path class="cls-1" d="M33,38V13a1,1,0,0,1,2,0V38A1,1,0,0,1,33,38Z"/><path class="cls-1" d="M21,38V13a1,1,0,0,1,2,0V38A1,1,0,0,1,21,38Z"/><path class="cls-1" d="M15,38V13a1,1,0,0,1,2,0V38A1,1,0,0,1,15,38Z"/><circle class="cls-2" cx="60" cy="32.8" r="3"/><rect class="cls-3" x="1" y="49" width="54" height="6"/><rect class="cls-4" x="1" y="53" width="54" height="2"/><path class="cls-5" d="M6,45H8a3,3,0,0,1,3,3v1a0,0,0,0,1,0,0H3a0,0,0,0,1,0,0V48A3,3,0,0,1,6,45Z"/><path class="cls-6" d="M48,45h2a3,3,0,0,1,3,3v1a0,0,0,0,1,0,0H45a0,0,0,0,1,0,0V48A3,3,0,0,1,48,45Z"/><path class="cls-7" d="M47,9H9a4,4,0,0,0-4,4V45H9V13H47V45h4V13A4,4,0,0,0,47,9Z"/><circle class="cls-8" cx="28" cy="41" r="3"/><circle class="cls-9" cx="34" cy="41" r="3"/><circle class="cls-10" cx="22" cy="41" r="3"/><circle class="cls-11" cx="16" cy="41" r="3"/><path class="cls-12" d="M62.12,34.92a3,3,0,0,1-4.94-3.12,3,3,0,0,0,5.64,0A3,3,0,0,1,62.12,34.92Z"/><path class="cls-12" d="M28,44a3,3,0,0,1-2.82-4,3,3,0,0,0,5.64,0A3,3,0,0,1,28,44Z"/><path class="cls-12" d="M34,44a3,3,0,0,1-2.82-4,3,3,0,0,0,5.64,0A3,3,0,0,1,34,44Z"/><path class="cls-12" d="M22,44a3,3,0,0,1-2.82-4,3,3,0,0,0,5.64,0A3,3,0,0,1,22,44Z"/><path class="cls-12" d="M16,44a3,3,0,0,1-2.82-4,3,3,0,0,0,5.64,0A3,3,0,0,1,16,44Z"/></g></svg>