<svg xmlns="http://www.w3.org/2000/svg" xmlns:xlink="http://www.w3.org/1999/xlink" viewBox="0 0 64 64"><defs><style>.cls-1{fill:url(#linear-gradient);}.cls-2{fill:url(#linear-gradient-2);}.cls-3{fill:url(#linear-gradient-3);}.cls-4{fill:#f2a961;}.cls-5{fill:url(#linear-gradient-5);}.cls-6{fill:url(#linear-gradient-6);}.cls-7{fill:#cf4055;}.cls-8{fill:url(#linear-gradient-7);}.cls-9{fill:url(#linear-gradient-8);}.cls-10{fill:#fff2e3;}.cls-11{fill:#42455e;}</style><linearGradient id="linear-gradient" x1="32" y1="48" x2="32" y2="16" gradientUnits="userSpaceOnUse"><stop offset="0" stop-color="#474f72"/><stop offset="1" stop-color="#878c9f"/></linearGradient><linearGradient id="linear-gradient-2" x1="18.2" y1="31" x2="18.2" y2="28.58" xlink:href="#linear-gradient"/><linearGradient id="linear-gradient-3" x1="32" y1="42" x2="32" y2="22" gradientUnits="userSpaceOnUse"><stop offset="0" stop-color="#e9a254"/><stop offset="1" stop-color="#f4bb79"/></linearGradient><linearGradient id="linear-gradient-5" x1="13.34" y1="54.93" x2="56.75" y2="54.93" gradientUnits="userSpaceOnUse"><stop offset="0" stop-color="#da5466"/><stop offset="1" stop-color="#f4929c"/></linearGradient><linearGradient id="linear-gradient-6" x1="54.93" y1="50.66" x2="54.93" y2="7.25" xlink:href="#linear-gradient-5"/><linearGradient id="linear-gradient-7" x1="9.07" y1="13.34" x2="9.07" y2="56.75" xlink:href="#linear-gradient-5"/><linearGradient id="linear-gradient-8" x1="50.66" y1="9.07" x2="7.25" y2="9.07" xlink:href="#linear-gradient-5"/></defs><title>MRR</title><g id="MRR"><path class="cls-1" d="M45.61,28.76l2.25-1.3-4-6.92-2.25,1.29A14,14,0,0,0,36,18.59V16H28v2.59a14,14,0,0,0-5.61,3.24l-2.25-1.29-4,6.92,2.25,1.3a13.65,13.65,0,0,0,0,6.48l-2.25,1.3,4,6.92,2.25-1.29A14,14,0,0,0,28,45.41V48h8V45.41a14,14,0,0,0,5.61-3.24l2.25,1.29,4-6.92-2.25-1.3A13.65,13.65,0,0,0,45.61,28.76Z"/><path class="cls-2" d="M18.08,28.58c.63.37.13-.19,0,2.42A12.51,12.51,0,0,1,18.08,28.58Z"/><circle class="cls-3" cx="32" cy="32" r="10"/><circle class="cls-3" cx="32" cy="32" r="10"/><path class="cls-4" d="M42,33a10,10,0,0,0-19.9,0A10,10,0,1,1,42,33Z"/><path class="cls-5" d="M56.75,46.85v9.9l-2.83-2.83a31,31,0,0,1-40.58,2.83h3.81V52.12a25,25,0,0,0,32.53-2.44l-2.83-2.83Z"/><path class="cls-6" d="M56.75,50.66V46.85H52.12a25,25,0,0,0-2.44-32.53l-2.83,2.83V7.25h9.9l-2.83,2.83A31,31,0,0,1,56.75,50.66Z"/><path class="cls-7" d="M59.75,43.85v2a31.32,31.32,0,0,1-3,4.84V46.85H52.12a24.83,24.83,0,0,0,1.9-3Z"/><path class="cls-7" d="M20.15,54v5.73h-2a31.32,31.32,0,0,1-4.84-3h3.81V52.12A24.83,24.83,0,0,0,20.15,54Z"/><path class="cls-8" d="M17.15,46.85v9.9H7.25l2.83-2.83A31,31,0,0,1,7.25,13.34v3.81h4.63a25,25,0,0,0,2.44,32.53Z"/><path class="cls-7" d="M11.88,17.15a23.57,23.57,0,0,0-1.89,3H4.25v-2a31.32,31.32,0,0,1,3-4.84v3.81Z"/><path class="cls-9" d="M50.66,7.25H46.85v4.63a25,25,0,0,0-32.53,2.44l2.83,2.83H7.25V7.25l2.83,2.83A31,31,0,0,1,50.66,7.25Z"/><path class="cls-7" d="M50.66,7.25H46.85v4.63a23.57,23.57,0,0,0-3-1.89V4.25h2A31.32,31.32,0,0,1,50.66,7.25Z"/><path class="cls-10" d="M33,31H31a1,1,0,0,1,0-2h4a1,1,0,0,0,0-2H33V26a1,1,0,0,0-2,0v1a3,3,0,0,0,0,6h2a1,1,0,0,1,0,2H29a1,1,0,0,0,0,2h2v1a1,1,0,0,0,2,0V37a3,3,0,0,0,0-6Z"/><path class="cls-11" d="M45.61,35.24l2.25,1.3-4,6.92-2.25-1.29A14,14,0,0,1,36,45.41V48H28V45.41a14,14,0,0,1-5.61-3.24l-2.25,1.29-4-6.92,2.25-1.3A13.73,13.73,0,0,1,18,31,14,14,0,0,0,46,31,13.41,13.41,0,0,1,45.61,35.24Z"/></g></svg>