<svg xmlns="http://www.w3.org/2000/svg" xmlns:xlink="http://www.w3.org/1999/xlink" viewBox="0 0 64 64"><defs><style>.cls-1{fill:#86b8e0;}.cls-2{fill:url(#linear-gradient);}.cls-3{fill:url(#linear-gradient-2);}.cls-4{fill:url(#linear-gradient-3);}.cls-5{fill:url(#linear-gradient-4);}.cls-6{fill:url(#linear-gradient-5);}.cls-7{fill:#dd8b37;}.cls-8{fill:#f2a961;}.cls-9{fill:url(#linear-gradient-6);}.cls-10{fill:#e8c4a6;}.cls-11{fill:url(#linear-gradient-7);}.cls-12{fill:url(#linear-gradient-8);}.cls-13{fill:#42455e;}.cls-14{fill:#ffcd9c;}.cls-15{fill:url(#linear-gradient-9);}.cls-16{fill:url(#linear-gradient-10);}.cls-17{fill:url(#linear-gradient-11);}</style><linearGradient id="linear-gradient" x1="62.15" y1="12.15" x2="62.15" y2="8.45" gradientUnits="userSpaceOnUse"><stop offset="0" stop-color="#949aaf"/><stop offset="1" stop-color="#c6ccda"/></linearGradient><linearGradient id="linear-gradient-2" x1="58.76" y1="15.54" x2="58.76" y2="11.83" xlink:href="#linear-gradient"/><linearGradient id="linear-gradient-3" x1="53.68" y1="3.69" x2="53.68" y2="-0.01" xlink:href="#linear-gradient"/><linearGradient id="linear-gradient-4" x1="50.3" y1="7.08" x2="50.3" y2="3.37" xlink:href="#linear-gradient"/><linearGradient id="linear-gradient-5" x1="21.57" y1="63" x2="21.57" y2="21.87" gradientUnits="userSpaceOnUse"><stop offset="0" stop-color="#e9a254"/><stop offset="1" stop-color="#f4bb79"/></linearGradient><linearGradient id="linear-gradient-6" x1="39.93" y1="37.84" x2="39.93" y2="10.31" gradientUnits="userSpaceOnUse"><stop offset="0" stop-color="#d1a788"/><stop offset="1" stop-color="#f2d3b8"/></linearGradient><linearGradient id="linear-gradient-7" x1="56.23" y1="13.69" x2="56.23" y2="1.85" xlink:href="#linear-gradient-6"/><linearGradient id="linear-gradient-8" x1="24.92" y1="43.87" x2="24.92" y2="34.29" gradientUnits="userSpaceOnUse"><stop offset="0" stop-color="#474f72"/><stop offset="1" stop-color="#878c9f"/></linearGradient><linearGradient id="linear-gradient-9" x1="49" y1="58" x2="49" y2="52" gradientUnits="userSpaceOnUse"><stop offset="0" stop-color="#7aa8d7"/><stop offset="1" stop-color="#c3d2e7"/></linearGradient><linearGradient id="linear-gradient-10" x1="5" y1="22" x2="5" y2="16" xlink:href="#linear-gradient-9"/><linearGradient id="linear-gradient-11" x1="17" y1="18" x2="17" y2="12" xlink:href="#linear-gradient-9"/></defs><title>Music</title><g id="Music"><path class="cls-1" d="M50,55V42a1,1,0,0,1,1-1c3.24,0,3.54,2,6,2a1,1,0,0,1,0,2c-2.82,0-3.47-1.51-5-1.89V55A1,1,0,0,1,50,55Z"/><path class="cls-1" d="M6,19V6a1,1,0,0,1,.68-1l12-4A1,1,0,0,1,20,2V15a1,1,0,0,1-2,0V3.39L8,6.72V19A1,1,0,0,1,6,19Z"/><path class="cls-2" d="M63,12.15c-.57,0-.68-.26-2.4-2A1,1,0,0,1,62,8.76l1.7,1.69A1,1,0,0,1,63,12.15Z"/><path class="cls-3" d="M59.62,15.54c-.58,0-.68-.27-2.4-2a1,1,0,0,1,1.41-1.41l1.69,1.69A1,1,0,0,1,59.62,15.54Z"/><path class="cls-4" d="M54.54,3.69c-.57,0-.68-.26-2.4-2A1,1,0,0,1,53.55.29L55.24,2A1,1,0,0,1,54.54,3.69Z"/><path class="cls-5" d="M51.15,7.08c-.57,0-.68-.27-2.4-2a1,1,0,0,1,1.42-1.41l1.69,1.69A1,1,0,0,1,51.15,7.08Z"/><path class="cls-6" d="M40.49,41.74c-3.6,3.59-4.51,2.68-7.21,5.38s-1.75,9-5.35,12.64S18,66,8,56,.64,39.66,4.24,36.07s9.94-2.65,12.64-5.35,1.79-3.61,5.38-7.21C29.42,16.35,47.69,34.54,40.49,41.74Z"/><path class="cls-7" d="M33.28,47.12c-2.7,2.7-1.75,9-5.35,12.64S18,66,8,56C2,50,.53,45.3,1.12,41.75,1.59,44.82,3.54,48.55,8,53c10,10,16.34,7.36,19.93,3.76s2.65-9.94,5.35-12.64,3.61-1.79,7.21-5.38A5.38,5.38,0,0,0,42,36C43.26,42.67,36.48,43.92,33.28,47.12Z"/><path class="cls-8" d="M39.58,30.63l-10,10-2.83-2.83,9.47-11A19.77,19.77,0,0,1,39.58,30.63Z"/><path class="cls-9" d="M53.69,13.69c-2,2,1.08-1.07-24.15,24.15l-3.38-3.38L50.31,10.31Z"/><polygon class="cls-10" points="53.69 13.69 52.28 15.11 48.9 11.73 50.31 10.31 53.69 13.69"/><path class="cls-11" d="M62.15,8.62l-5.07,5.07H53.69l-3.38-3.38V6.92l5.07-5.07h3.39l3.38,3.38Z"/><circle class="cls-12" cx="24.92" cy="39.08" r="4.79"/><path class="cls-13" d="M29.59,40.08c-1-5-8.32-5-9.34,0a4.78,4.78,0,1,1,9.34,0Z"/><path class="cls-14" d="M18.15,53.62c-.58,0-.19.22-7.48-7.06a1,1,0,0,1,1.42-1.42l6.77,6.77A1,1,0,0,1,18.15,53.62Z"/><circle class="cls-15" cx="49" cy="55" r="3"/><circle class="cls-16" cx="5" cy="19" r="3"/><circle class="cls-17" cx="17" cy="15" r="3"/></g></svg>