<svg xmlns="http://www.w3.org/2000/svg" xmlns:xlink="http://www.w3.org/1999/xlink" viewBox="0 0 64 64"><defs><style>.cls-1{fill:#aae0e5;}.cls-2{fill:url(#linear-gradient);}.cls-3{fill:#5b8dc9;}.cls-4{fill:#d3e0ef;}.cls-5{fill:#ffd39f;}.cls-6{fill:url(#linear-gradient-2);}.cls-7{fill:url(#linear-gradient-3);}.cls-8{fill:url(#linear-gradient-4);}.cls-9{fill:url(#linear-gradient-5);}.cls-10{fill:url(#linear-gradient-6);}.cls-11{fill:url(#linear-gradient-7);}.cls-12{fill:url(#linear-gradient-8);}.cls-13{fill:url(#linear-gradient-9);}</style><linearGradient id="linear-gradient" x1="31.99" y1="50" x2="31.99" y2="13.95" gradientUnits="userSpaceOnUse"><stop offset="0" stop-color="#7aa8d7"/><stop offset="1" stop-color="#c3d2e7"/></linearGradient><linearGradient id="linear-gradient-2" x1="32" y1="7" x2="32" y2="1" gradientUnits="userSpaceOnUse"><stop offset="0" stop-color="#e9a254"/><stop offset="1" stop-color="#f4bb79"/></linearGradient><linearGradient id="linear-gradient-3" y1="63" y2="57" xlink:href="#linear-gradient-2"/><linearGradient id="linear-gradient-4" x1="51.8" y1="15.2" x2="51.8" y2="9.2" xlink:href="#linear-gradient-2"/><linearGradient id="linear-gradient-5" x1="12.2" y1="54.8" x2="12.2" y2="48.8" xlink:href="#linear-gradient-2"/><linearGradient id="linear-gradient-6" x1="51.8" y1="54.8" x2="51.8" y2="48.8" xlink:href="#linear-gradient-2"/><linearGradient id="linear-gradient-7" x1="12.2" y1="15.2" x2="12.2" y2="9.2" xlink:href="#linear-gradient-2"/><linearGradient id="linear-gradient-8" x1="60" y1="35" x2="60" y2="29" xlink:href="#linear-gradient-2"/><linearGradient id="linear-gradient-9" x1="4" y1="35" x2="4" y2="29" xlink:href="#linear-gradient-2"/></defs><title>Networking</title><g id="Networking"><path class="cls-1" d="M14.32,50.68a1,1,0,0,1-.7-1.71L49,13.62A1,1,0,1,1,50.38,15C12.65,52.76,15,50.68,14.32,50.68Z"/><path class="cls-1" d="M49.68,50.68c-.63,0,1.69,2.1-36.06-35.65A1,1,0,0,1,15,13.62L50.38,49A1,1,0,0,1,49.68,50.68Z"/><path class="cls-1" d="M31,57V7a1,1,0,0,1,2,0V57A1,1,0,0,1,31,57Z"/><path class="cls-1" d="M57,33H7a1,1,0,0,1,0-2H57A1,1,0,0,1,57,33Z"/><path class="cls-2" d="M32,50A18,18,0,0,1,14.06,33.3C12.78,19.21,28.66,8.79,41.42,16.66,56.94,26.64,49.92,50,32,50Z"/><path class="cls-3" d="M32,50A18,18,0,0,1,14,30.88,18,18,0,0,0,50,31.09,18,18,0,0,1,32,50Z"/><path class="cls-3" d="M33.77,38.46a24.91,24.91,0,0,0,6.93-12,1,1,0,0,1,1.94.48,26.93,26.93,0,0,1-7.48,13A1,1,0,0,1,33.77,38.46Z"/><path class="cls-3" d="M31.92,42.58a26.45,26.45,0,0,1-10,4.34,17.51,17.51,0,0,1-1.86-1.43,1,1,0,0,1,.6-.35c8.67-1.52,10.23-5.74,11.5-4A1,1,0,0,1,31.92,42.58Z"/><path class="cls-3" d="M43.34,22.81a1,1,0,0,1-2-.18,25.62,25.62,0,0,0-.08-5.3,1,1,0,0,1,.15-.67A19.23,19.23,0,0,1,43.35,18,26.79,26.79,0,0,1,43.34,22.81Z"/><path class="cls-3" d="M26.81,15.33c-1.6,6.2.15,8.4-1.75,8.4a1,1,0,0,1-1-.94,26.92,26.92,0,0,1,.64-7.24,14.35,14.35,0,0,1,2.09-.78A1,1,0,0,1,26.81,15.33Z"/><path class="cls-3" d="M30.84,39.51A26.85,26.85,0,0,1,24.59,27a1,1,0,0,1,2-.39,24.86,24.86,0,0,0,5.79,11.63A1,1,0,0,1,30.84,39.51Z"/><path class="cls-3" d="M43.66,45.71a16.35,16.35,0,0,1-1.77,1.34,26.91,26.91,0,0,1-8-4.63A1,1,0,0,1,33.71,41c1.27-1.52,2.34,2,9.49,4.38A1,1,0,0,1,43.66,45.71Z"/><path class="cls-3" d="M40.23,25.12a25.61,25.61,0,0,0-12.73,0,1,1,0,0,1-.5-1.93,27,27,0,0,1,13.49,0A1,1,0,0,1,40.23,25.12Z"/><path class="cls-3" d="M43.68,26.35a1,1,0,0,1,.78-1.84,25.48,25.48,0,0,1,4.89,2.72C50.75,32.23,49.49,28.8,43.68,26.35Z"/><path class="cls-3" d="M23.81,26.34a25.23,25.23,0,0,0-9,6.61,1,1,0,0,1-.7.35,16.41,16.41,0,0,1,0-2.52,27.21,27.21,0,0,1,9-6.28A1,1,0,0,1,23.81,26.34Z"/><circle class="cls-4" cx="25.32" cy="24.74" r="2.03"/><circle class="cls-4" cx="42.16" cy="24.74" r="2.03"/><path class="cls-5" d="M8.43,16.85a1,1,0,1,0-.51,1.86A1,1,0,0,0,8.43,16.85ZM6.51,20.36a1,1,0,1,0-.38,1.92A1,1,0,0,0,6.51,20.36Zm-1.4,3.75a1,1,0,1,0-.24,2A1,1,0,0,0,5.11,24.11Z"/><path class="cls-5" d="M39.17,3.9a1,1,0,1,0-.24,2A1,1,0,0,0,39.17,3.9ZM43.1,5.2a1,1,0,1,0-.39,1.93A1,1,0,0,0,43.1,5.2Zm3.7,1.86a1,1,0,1,0-.51,1.86A1,1,0,0,0,46.8,7.06Z"/><path class="cls-5" d="M18.22,55.22a1,1,0,1,0-.51,1.86A1,1,0,0,0,18.22,55.22ZM21.66,57a1,1,0,1,0-.38,1.92A1,1,0,0,0,21.66,57Zm3.66,1.22a1,1,0,1,0-.25,2A1,1,0,0,0,25.32,58.17Z"/><path class="cls-5" d="M5.83,38.68a1,1,0,1,0-1,1.24A1,1,0,0,0,5.83,38.68Zm1.22,3.65a1,1,0,0,0-1.31-.54,1,1,0,1,0,1.31.54Zm1.73,3.45a1,1,0,1,0-.86,1.51A1,1,0,0,0,8.78,45.78Z"/><path class="cls-5" d="M47.15,55.57a1,1,0,1,0-.86,1.51A1,1,0,0,0,47.15,55.57Zm-3.51,1.92a1,1,0,1,0-.93,1.38A1,1,0,0,0,43.64,57.49Zm-3.75,1.4a1,1,0,1,0-1,1.25A1,1,0,0,0,39.89,58.89Z"/><path class="cls-5" d="M56.94,17.2a1,1,0,1,0-.86,1.51A1,1,0,0,0,56.94,17.2Zm1.85,3.7c.1,0-.31-.62-.92-.62a1,1,0,1,0,.92.62Zm1.31,3.93a1,1,0,1,0-1.93.49A1,1,0,0,0,60.1,24.83Z"/><path class="cls-5" d="M24.83,3.9a1,1,0,0,0,.49,1.94h0A1,1,0,0,0,24.83,3.9ZM22.2,5.74a1,1,0,0,0-1.84.77A1,1,0,0,0,22.2,5.74ZM18.57,7.41a1,1,0,1,0-.86,1.51A1,1,0,0,0,18.57,7.41Z"/><path class="cls-4" d="M32.87,42.45a2,2,0,0,1-1.28-3.6,2,2,0,0,1,2.93.39A2,2,0,0,1,32.87,42.45Z"/><circle class="cls-6" cx="32" cy="4" r="3"/><circle class="cls-7" cx="32" cy="60" r="3"/><circle class="cls-8" cx="51.8" cy="12.2" r="3"/><circle class="cls-9" cx="12.2" cy="51.8" r="3"/><circle class="cls-10" cx="51.8" cy="51.8" r="3"/><circle class="cls-11" cx="12.2" cy="12.2" r="3"/><circle class="cls-12" cx="60" cy="32" r="3"/><circle class="cls-13" cx="4" cy="32" r="3"/><path class="cls-5" d="M59.38,38a1,1,0,1,0-.25,2A1,1,0,0,0,59.38,38Zm-1.13,3.83a1,1,0,0,0-1.3.55,1,1,0,0,0,1.84.76C58.91,43.1,59,42.13,58.25,41.79Zm-1.66,3.64a1,1,0,1,0-.51,1.86A1,1,0,0,0,56.59,45.43Z"/></g></svg>