<svg xmlns="http://www.w3.org/2000/svg" viewBox="0 0 128 128"><defs><style>.cls-1{fill:#dde1e8;}.cls-2{fill:#c7cdd8;}.cls-3{fill:#e2607f;}.cls-4{fill:#dd4e6a;}</style></defs><title>No Comment</title><g id="No_Comment" data-name="No Comment"><path class="cls-1" d="M127,19V90a16,16,0,0,1-16,16H71L49,124.8V106H17A16,16,0,0,1,1,90V19A16,16,0,0,1,17,3h94A16,16,0,0,1,127,19Z"/><path class="cls-2" d="M127,83v7a16,16,0,0,1-16,16H71L49,124.8V106H17A16,16,0,0,1,1,90V83A16,16,0,0,0,17,99h94A16,16,0,0,0,127,83Z"/><path class="cls-3" d="M64,20A34,34,0,1,0,98,54,34,34,0,0,0,64,20ZM38,54c0-21.5,24.48-33.36,41.33-21L43,69.33A25.81,25.81,0,0,1,38,54ZM64,80a25.81,25.81,0,0,1-15.33-5L85,38.67C97.36,55.52,85.49,80,64,80Z"/><path class="cls-4" d="M64,88A34,34,0,0,1,30,52.5,34,34,0,0,0,98,52.5,34,34,0,0,1,64,88Z"/></g></svg>