<svg xmlns="http://www.w3.org/2000/svg" viewBox="0 0 128 128"><defs><style>.cls-1{fill:#e2607f;}.cls-2{fill:#7aa8d7;}.cls-3{fill:#fbcc88;}.cls-4{fill:#dde1e8;}.cls-5{fill:#949aaf;}.cls-6{fill:#42455e;}.cls-7{fill:#c7cdd8;}.cls-8{fill:#8288a1;}.cls-9{fill:#adb3c4;}</style></defs><title>No Connection</title><g id="No_Connection" data-name="No Connection"><path class="cls-1" d="M58,52a1,1,0,0,1-.72-1.74l12-12a1,1,0,0,1,1.44,1.44C57.67,52.77,58.6,52,58,52Z"/><path class="cls-1" d="M70,52c-.6,0,.32.75-12.72-12.3a1,1,0,0,1,1.44-1.44l12,12A1,1,0,0,1,70,52Z"/><path class="cls-2" d="M76.71,32.29a18,18,0,0,0-25.42,0,1,1,0,0,1-1.45-1.45,20,20,0,0,1,28.32,0A1,1,0,0,1,76.71,32.29Z"/><path class="cls-2" d="M93.68,15.32a41.94,41.94,0,0,0-59.36,0,1,1,0,0,1-1.45-1.45,44,44,0,0,1,62.26,0A1,1,0,0,1,93.68,15.32Z"/><path class="cls-2" d="M41.36,22.36a32,32,0,0,1,45.28,0A1,1,0,0,1,85.2,23.8a30,30,0,0,0-42.4,0A1,1,0,0,1,41.36,22.36Z"/><path class="cls-3" d="M41,54V50.17c-1-3-1.19-3.19-.83-3.74l2-3a1,1,0,0,1,1.7,1.14l-1.72,2.58C43.27,50.57,43,49,43,54A1,1,0,0,1,41,54Z"/><path class="cls-3" d="M85,54c0-5-.24-3.43.89-6.85l-1.72-2.58a1,1,0,0,1,1.7-1.14l2,3c.35.52.19.67-.83,3.74V54A1,1,0,0,1,85,54Z"/><rect class="cls-4" x="1" y="106" width="14" height="18" transform="translate(16 230) rotate(-180)"/><polygon class="cls-5" points="32 104 37 108 41 108 41 122 37 122 32 126 15 126 15 104 32 104"/><path class="cls-6" d="M10,112H6a1,1,0,0,1,0-2h4A1,1,0,0,1,10,112Z"/><path class="cls-6" d="M10,120H6a1,1,0,0,1,0-2h4A1,1,0,0,1,10,120Z"/><polygon class="cls-5" points="49 119 41 120 41 110 49 111 49 119"/><path class="cls-4" d="M89,54V78a39.88,39.88,0,0,1-11.72,28.28c-4.58,4.58-7,5.43-13.28,8.8A38.43,38.43,0,0,1,49,118v-6a34.08,34.08,0,0,0,7.61-.85c7.09-2.52,8-2.59,11.67-5.14A33.94,33.94,0,0,0,83,78V54Z"/><rect class="cls-4" x="113" y="106" width="14" height="18"/><rect class="cls-7" x="1" y="121" width="14" height="3" transform="translate(16 245) rotate(-180)"/><rect class="cls-7" x="113" y="121" width="14" height="3"/><polygon class="cls-5" points="96 104 91 108 87 108 87 122 91 122 96 126 113 126 113 104 96 104"/><polygon class="cls-8" points="41 118 41 122 37 122 32 126 15 126 15 122 32 122 37 118 41 118"/><polygon class="cls-8" points="113 122 113 126 96 126 91 122 87 122 87 118 91 118 96 122 113 122"/><path class="cls-6" d="M122,112h-4a1,1,0,0,1,0-2h4A1,1,0,0,1,122,112Z"/><path class="cls-6" d="M122,120h-4a1,1,0,0,1,0-2h4A1,1,0,0,1,122,120Z"/><polygon class="cls-5" points="79 119 87 120 87 110 79 111 79 119"/><polygon class="cls-8" points="49 116 49 119 41 120 41 117 49 116"/><polygon class="cls-8" points="87 117 87 120 79 119 79 116 87 117"/><path class="cls-7" d="M75.66,107.81a42.08,42.08,0,0,1-4.27,3.34c-6.31,3.35-7.64,4.45-13,5.73a43,43,0,0,1-7.4-4.94c5.06-.29,6.13-1,13-3.42A33.28,33.28,0,0,0,68.28,106,28.88,28.88,0,0,0,75.66,107.81Z"/><path class="cls-4" d="M45,54V78a34,34,0,0,0,34,34v6A40,40,0,0,1,39,78V54Z"/><path class="cls-9" d="M14,126V104a1,1,0,0,1,2,0v22A1,1,0,0,1,14,126Z"/><path class="cls-9" d="M112,126V104a1,1,0,0,1,2,0v22A1,1,0,0,1,112,126Z"/></g></svg>