<svg xmlns="http://www.w3.org/2000/svg" viewBox="0 0 128 128"><defs><style>.cls-1{fill:#fbcc88;}.cls-2{fill:#f6b756;}.cls-3{fill:none;stroke:#47566a;stroke-linecap:round;stroke-linejoin:round;stroke-width:2.04px;}.cls-4{fill:#7aa8d7;}.cls-5{fill:#5b8dc9;}.cls-6{fill:#454b60;}.cls-7{fill:#d6ac90;}.cls-8{fill:#42455e;}.cls-9{fill:#e2607f;}.cls-10{fill:#dd4e6a;}.cls-11{fill:#dde1e8;}</style></defs><title>No Messages</title><g id="No_Messages" data-name="No Messages"><rect class="cls-1" x="80" y="1" width="16" height="12"/><rect class="cls-2" x="80" y="9" width="16" height="4"/><circle class="cls-3" cx="80" cy="53" r="4"/><path class="cls-4" d="M21,67.57V82H127V41a20,20,0,0,0-20-20H41A20,20,0,0,0,21,41v6.33"/><rect class="cls-5" x="21" y="78" width="106" height="4"/><path class="cls-6" d="M61,41V82H21V41c0-17.87,21.65-26.63,34.14-14.14A19.94,19.94,0,0,1,61,41Z"/><path class="cls-4" d="M21,82H61l-8.71,25.85A28.26,28.26,0,0,1,25.45,127a14.31,14.31,0,0,1-13.7-18.8Z"/><path class="cls-5" d="M61,82l-8.71,25.85c-6.71,19.94-35.12,26.51-40.63,9.12a14.4,14.4,0,0,0,11.79,6,28.26,28.26,0,0,0,26.84-19.15L57.65,82Z"/><circle class="cls-1" cx="80" cy="53" r="4"/><path class="cls-2" d="M80,57a4,4,0,0,1-3.7-5.5,4,4,0,0,0,7.4,0A4,4,0,0,1,80,57Z"/><path class="cls-1" d="M79,50V2a1,1,0,0,1,2,0V50A1,1,0,0,1,79,50Z"/><rect class="cls-7" x="76" y="82" width="14" height="45"/><rect class="cls-8" x="21" y="78" width="40" height="4"/><circle class="cls-9" cx="24" cy="51" r="23"/><path class="cls-10" d="M24,74A23,23,0,0,1,1.09,49a23,23,0,0,0,45.82,0A23,23,0,0,1,24,74Z"/><path class="cls-8" d="M21,77.8v-4A23,23,0,0,0,46.91,53,23,23,0,0,1,21,77.8Z"/><path class="cls-11" d="M14,62a1,1,0,0,1-.72-1.74l20-20a1,1,0,0,1,1.44,1.44C13,63.47,14.61,62,14,62Z"/><path class="cls-11" d="M34,62c-.64,0,.83,1.26-20.72-20.3a1,1,0,0,1,1.44-1.44l20,20A1,1,0,0,1,34,62Z"/></g></svg>