<svg xmlns="http://www.w3.org/2000/svg" viewBox="0 0 128 128"><defs><style>.cls-1{fill:#dde1e8;}.cls-2{fill:#c7cdd8;}.cls-3{fill:#9b756d;}.cls-4{fill:#949aaf;}.cls-5{fill:#8288a1;}.cls-6{fill:#d1a788;}.cls-7{fill:#9dd5df;}.cls-8{fill:#77cacb;}.cls-9{fill:#5b8dc9;}.cls-10{fill:#e2607f;}</style></defs><title>No Results</title><g id="No_Results" data-name="No Results"><path class="cls-1" d="M92,1A11,11,0,0,0,81,12V127l-6.66-4-6.67,4L61,123l-6.66,4-6.66-4L41,127l-6.66-4-6.67,4L21,123l-6.67,4-6.68-4L1,127V12A11,11,0,0,1,12,1Z"/><polygon class="cls-2" points="74.34 117 81 121 81 127 74.34 123 67.67 127 61 123 54.34 127 47.68 123 41.01 127 34.35 123 27.68 127 21.02 123 14.35 127 7.67 123 1 127 1 121 7.67 117 14.35 121 21.02 117 27.68 121 34.35 117 41.01 121 47.68 117 54.34 121 61 117 67.67 121 74.34 117"/><path class="cls-2" d="M81,53.46v53.07a27,27,0,1,1,0-53.07Z"/><rect class="cls-3" x="94" y="92.76" width="6" height="8.49" transform="translate(-40.18 97) rotate(-45)"/><circle class="cls-4" cx="76" cy="76" r="27"/><path class="cls-5" d="M95.09,95.09C77.55,112.64,47.68,99.06,49,74.5c1.26,23,29.42,34.23,46.05,17.59A26.88,26.88,0,0,0,103,74.5,26.9,26.9,0,0,1,95.09,95.09Z"/><path class="cls-6" d="M120,127a2.41,2.41,0,0,0,1.71-.71c4.77-4.77,5.29-5,5.29-6.29a2.41,2.41,0,0,0-.71-1.71C104.27,96.27,105.43,97,104,97a2.41,2.41,0,0,0-1.71.71c-4.77,4.77-5.29,5-5.29,6.29a2.41,2.41,0,0,0,.71,1.71C119.73,127.73,118.57,127,120,127Z"/><circle class="cls-7" cx="76" cy="76" r="21"/><path class="cls-8" d="M96.9,78c-1.63-17.34-23-25.56-35.75-12.84A20.85,20.85,0,0,0,55.1,78a20.91,20.91,0,0,1,6-16.84C75.09,47.21,98.77,58.54,96.9,78Z"/><path class="cls-9" d="M81.64,85.54a8,8,0,0,0-11.28,0,1,1,0,0,1-1.45-1.44,10,10,0,0,1,14.18,0A1,1,0,0,1,81.64,85.54Z"/><path class="cls-9" d="M83,73.18v-2a1,1,0,0,1,2,0v2A1,1,0,0,1,83,73.18Z"/><path class="cls-9" d="M67,73.18v-2a1,1,0,0,1,2,0v2A1,1,0,0,1,67,73.18Z"/><path class="cls-4" d="M103,12v9H81V12a11,11,0,0,1,22,0Z"/><path class="cls-10" d="M50,23.94c-2.48-4.14-9.88-6.81-15.89-3.4A12,12,0,0,0,28,31a1,1,0,0,0,2,0,10,10,0,0,1,5.06-8.69c5-2.84,11.22-.52,13.14,2.68,3.64,6.08,1.28,12.66-4.09,15.1A9,9,0,0,0,39,48.36V52a1,1,0,0,0,2,0V48.36A7,7,0,0,1,45,42C51.37,39,54.28,31.16,50,23.94Z"/><path class="cls-10" d="M40,57a2,2,0,1,0,2,2A2,2,0,0,0,40,57Zm0,2,0,0C41.35,59,41.33,59,40,59Z"/></g></svg>