<svg xmlns="http://www.w3.org/2000/svg" xmlns:xlink="http://www.w3.org/1999/xlink" viewBox="0 0 64 64"><defs><style>.cls-1{fill:url(#linear-gradient);}.cls-2{fill:url(#linear-gradient-2);}.cls-3{fill:url(#linear-gradient-3);}.cls-4{fill:#42455e;}.cls-5{fill:url(#linear-gradient-4);}.cls-6{fill:url(#linear-gradient-5);}.cls-7{fill:#f2a961;}.cls-8{fill:url(#linear-gradient-6);}.cls-9{fill:url(#linear-gradient-7);}.cls-10{fill:url(#linear-gradient-8);}.cls-11{fill:url(#linear-gradient-9);}.cls-12{fill:url(#linear-gradient-10);}.cls-13{fill:url(#linear-gradient-11);}.cls-14{fill:url(#linear-gradient-12);}.cls-15{fill:url(#linear-gradient-13);}.cls-16{fill:url(#linear-gradient-14);}.cls-17{fill:url(#linear-gradient-15);}.cls-18{fill:url(#linear-gradient-16);}.cls-19{fill:#c7cdd8;}.cls-20{fill:#dd8b37;}</style><linearGradient id="linear-gradient" x1="27" y1="63" x2="27" y2="1" gradientUnits="userSpaceOnUse"><stop offset="0" stop-color="#e9a254"/><stop offset="1" stop-color="#f4bb79"/></linearGradient><linearGradient id="linear-gradient-2" x1="60" y1="61" x2="60" y2="3" xlink:href="#linear-gradient"/><linearGradient id="linear-gradient-3" x1="56.98" y1="57.5" x2="63.02" y2="57.5" gradientUnits="userSpaceOnUse"><stop offset="0" stop-color="#d1a788"/><stop offset="1" stop-color="#f2d3b8"/></linearGradient><linearGradient id="linear-gradient-4" x1="60" y1="10" x2="60" y2="3" gradientUnits="userSpaceOnUse"><stop offset="0" stop-color="#d96bb0"/><stop offset="1" stop-color="#e49fc6"/></linearGradient><linearGradient id="linear-gradient-5" x1="57" y1="12" x2="63" y2="12" gradientUnits="userSpaceOnUse"><stop offset="0" stop-color="#949aaf"/><stop offset="1" stop-color="#c6ccda"/></linearGradient><linearGradient id="linear-gradient-6" x1="6" y1="63" x2="6" y2="1" gradientUnits="userSpaceOnUse"><stop offset="0" stop-color="#474f72"/><stop offset="1" stop-color="#878c9f"/></linearGradient><linearGradient id="linear-gradient-7" x1="1.01" y1="32" x2="6.99" y2="32" xlink:href="#linear-gradient-5"/><linearGradient id="linear-gradient-8" x1="1.01" y1="38" x2="6.99" y2="38" xlink:href="#linear-gradient-5"/><linearGradient id="linear-gradient-9" x1="1.01" y1="44" x2="6.99" y2="44" xlink:href="#linear-gradient-5"/><linearGradient id="linear-gradient-10" x1="1.01" y1="50" x2="6.99" y2="50" xlink:href="#linear-gradient-5"/><linearGradient id="linear-gradient-11" x1="1.01" y1="56" x2="6.99" y2="56" xlink:href="#linear-gradient-5"/><linearGradient id="linear-gradient-12" x1="1.01" y1="8" x2="6.99" y2="8" xlink:href="#linear-gradient-5"/><linearGradient id="linear-gradient-13" x1="1.01" y1="14" x2="6.99" y2="14" xlink:href="#linear-gradient-5"/><linearGradient id="linear-gradient-14" x1="1.01" y1="20" x2="6.99" y2="20" xlink:href="#linear-gradient-5"/><linearGradient id="linear-gradient-15" x1="1.01" y1="26" x2="6.99" y2="26" xlink:href="#linear-gradient-5"/><linearGradient id="linear-gradient-16" x1="30" y1="26" x2="30" y2="8" gradientUnits="userSpaceOnUse"><stop offset="0" stop-color="#d4d8e1"/><stop offset="1" stop-color="#f3f4f5"/></linearGradient></defs><title>Notebook</title><g id="Notebook"><rect class="cls-1" x="3" y="1" width="48" height="62" rx="2"/><path class="cls-2" d="M63,5V55l-3,6-3-6V5a2,2,0,0,1,2-2h2A2,2,0,0,1,63,5Z"/><path class="cls-3" d="M63,54.68c0,.45.41-.51-3,6.32-3.43-6.87-3-5.87-3-6.32A6.93,6.93,0,0,1,63,54.68Z"/><path class="cls-4" d="M61.43,58.14,60,61l-1.43-2.86A7.44,7.44,0,0,1,61.43,58.14Z"/><path class="cls-5" d="M59,3h2a2,2,0,0,1,2,2v5a0,0,0,0,1,0,0H57a0,0,0,0,1,0,0V5A2,2,0,0,1,59,3Z"/><rect class="cls-6" x="57" y="10" width="6" height="4"/><rect class="cls-7" x="57" y="14" width="6" height="2"/><path class="cls-8" d="M9,1V63H5a2,2,0,0,1-2-2V3A2,2,0,0,1,5,1Z"/><path class="cls-9" d="M6,33H2a1,1,0,0,1,0-2H6A1,1,0,0,1,6,33Z"/><path class="cls-10" d="M6,39H2a1,1,0,0,1,0-2H6A1,1,0,0,1,6,39Z"/><path class="cls-11" d="M6,45H2a1,1,0,0,1,0-2H6A1,1,0,0,1,6,45Z"/><path class="cls-12" d="M6,51H2a1,1,0,0,1,0-2H6A1,1,0,0,1,6,51Z"/><path class="cls-13" d="M6,57H2a1,1,0,0,1,0-2H6A1,1,0,0,1,6,57Z"/><path class="cls-14" d="M6,9H2A1,1,0,0,1,2,7H6A1,1,0,0,1,6,9Z"/><path class="cls-15" d="M6,15H2a1,1,0,0,1,0-2H6A1,1,0,0,1,6,15Z"/><path class="cls-16" d="M6,21H2a1,1,0,0,1,0-2H6A1,1,0,0,1,6,21Z"/><path class="cls-17" d="M6,27H2a1,1,0,0,1,0-2H6A1,1,0,0,1,6,27Z"/><rect class="cls-18" x="15" y="8" width="30" height="18"/><rect class="cls-19" x="15" y="23" width="30" height="3"/><path class="cls-20" d="M42,39H18a1,1,0,0,1,0-2H42A1,1,0,0,1,42,39Z"/><path class="cls-20" d="M42,45H18a1,1,0,0,1,0-2H42A1,1,0,0,1,42,45Z"/><path class="cls-20" d="M51,58v3a2,2,0,0,1-2,2H9V60H49A2,2,0,0,0,51,58Z"/><path class="cls-4" d="M9,60v3H5a2,2,0,0,1-2-2V58a2,2,0,0,0,2,2Z"/></g></svg>