<svg xmlns="http://www.w3.org/2000/svg" xmlns:xlink="http://www.w3.org/1999/xlink" viewBox="0 0 64 64"><defs><style>.cls-1{fill:url(#linear-gradient);}.cls-2{fill:url(#linear-gradient-2);}.cls-3{fill:#42455e;}.cls-4{fill:url(#linear-gradient-3);}.cls-5{fill:url(#linear-gradient-4);}.cls-6{fill:#f2a961;}.cls-7{fill:url(#linear-gradient-5);}.cls-8{fill:#c7cdd8;}.cls-9{fill:url(#linear-gradient-10);}.cls-10{fill:url(#linear-gradient-11);}.cls-11{fill:#9ca0ad;}.cls-12{fill:url(#linear-gradient-12);}</style><linearGradient id="linear-gradient" x1="60" y1="61" x2="60" y2="3" gradientUnits="userSpaceOnUse"><stop offset="0" stop-color="#e9a254"/><stop offset="1" stop-color="#f4bb79"/></linearGradient><linearGradient id="linear-gradient-2" x1="56.98" y1="57.5" x2="63.02" y2="57.5" gradientUnits="userSpaceOnUse"><stop offset="0" stop-color="#d1a788"/><stop offset="1" stop-color="#f2d3b8"/></linearGradient><linearGradient id="linear-gradient-3" x1="60" y1="10" x2="60" y2="3" gradientUnits="userSpaceOnUse"><stop offset="0" stop-color="#d96bb0"/><stop offset="1" stop-color="#e49fc6"/></linearGradient><linearGradient id="linear-gradient-4" x1="57" y1="12" x2="63" y2="12" gradientUnits="userSpaceOnUse"><stop offset="0" stop-color="#949aaf"/><stop offset="1" stop-color="#c6ccda"/></linearGradient><linearGradient id="linear-gradient-5" x1="24" y1="13" x2="24" y2="1" gradientUnits="userSpaceOnUse"><stop offset="0" stop-color="#d4d8e1"/><stop offset="1" stop-color="#f3f4f5"/></linearGradient><linearGradient id="linear-gradient-10" x1="26" y1="63" x2="26" y2="13" xlink:href="#linear-gradient-5"/><linearGradient id="linear-gradient-11" x1="43" y1="26" x2="51" y2="26" xlink:href="#linear-gradient-4"/><linearGradient id="linear-gradient-12" x1="45" y1="13" x2="45" y2="7" xlink:href="#linear-gradient"/></defs><title>Notes</title><g id="Notebook"><path class="cls-1" d="M63,5V55l-3,6-3-6V5a2,2,0,0,1,2-2h2A2,2,0,0,1,63,5Z"/><path class="cls-2" d="M63,54.68c0,.45.41-.51-3,6.32-3.43-6.87-3-5.87-3-6.32A6.93,6.93,0,0,1,63,54.68Z"/><path class="cls-3" d="M61.43,58.14,60,61l-1.43-2.86A7.44,7.44,0,0,1,61.43,58.14Z"/><path class="cls-4" d="M59,3h2a2,2,0,0,1,2,2v5a0,0,0,0,1,0,0H57a0,0,0,0,1,0,0V5A2,2,0,0,1,59,3Z"/><rect class="cls-5" x="57" y="10" width="6" height="4"/><rect class="cls-6" x="57" y="14" width="6" height="2"/></g><g id="Notes"><path class="cls-7" d="M5,13c-2.21,0-4-2.69-4-6S2.79,1,5,1H47V13Z"/><path class="cls-8" d="M47,10v3H5C2.09,13,.52,8.76,1.13,5.5,1.57,8.08,3.14,10,5,10Z"/><path class="cls-1" d="M63,5V55l-3,6-3-6V5a2,2,0,0,1,2-2h2A2,2,0,0,1,63,5Z"/><path class="cls-2" d="M63,54.68c0,.45.41-.51-3,6.32-3.43-6.87-3-5.87-3-6.32A6.93,6.93,0,0,1,63,54.68Z"/><path class="cls-3" d="M61.43,58.14,60,61l-1.43-2.86A7.44,7.44,0,0,1,61.43,58.14Z"/><path class="cls-4" d="M59,3h2a2,2,0,0,1,2,2v5a0,0,0,0,1,0,0H57a0,0,0,0,1,0,0V5A2,2,0,0,1,59,3Z"/><rect class="cls-5" x="57" y="10" width="6" height="4"/><rect class="cls-9" x="5" y="13" width="42" height="50"/><rect class="cls-8" x="5" y="60" width="42" height="3"/><path class="cls-10" d="M51,7V51H47V13c-2.21,0-4-2.69-4-6s1.79-6,4-6S51,3.69,51,7Z"/><path class="cls-11" d="M41,24H11a1,1,0,0,1,0-2H41A1,1,0,0,1,41,24Z"/><path class="cls-11" d="M41,30H24a1,1,0,0,1,0-2H41A1,1,0,0,1,41,30Z"/><path class="cls-11" d="M20,30H11a1,1,0,0,1,0-2h9A1,1,0,0,1,20,30Z"/><path class="cls-11" d="M41,36H35a1,1,0,0,1,0-2h6A1,1,0,0,1,41,36Z"/><path class="cls-11" d="M31,36H11a1,1,0,0,1,0-2H31A1,1,0,0,1,31,36Z"/><path class="cls-11" d="M41,42H20a1,1,0,0,1,0-2H41A1,1,0,0,1,41,42Z"/><path class="cls-11" d="M16,42H11a1,1,0,0,1,0-2h5A1,1,0,0,1,16,42Z"/><path class="cls-11" d="M41,48H40a1,1,0,0,1,0-2h1A1,1,0,0,1,41,48Z"/><path class="cls-11" d="M36,48H11a1,1,0,0,1,0-2H36A1,1,0,0,1,36,48Z"/><path class="cls-11" d="M41,54H28a1,1,0,0,1,0-2H41A1,1,0,0,1,41,54Z"/><path class="cls-11" d="M24,54H11a1,1,0,0,1,0-2H24A1,1,0,0,1,24,54Z"/><path class="cls-12" d="M47,7v6c-2.21,0-4-2.69-4-6Z"/><rect class="cls-6" x="57" y="14" width="6" height="2"/></g></svg>