<svg xmlns="http://www.w3.org/2000/svg" viewBox="0 0 128 128"><defs><style>.cls-1{fill:#fbcc88;}.cls-2{fill:#8cdd79;}.cls-3{fill:#f6b756;}.cls-4{fill:#7ece67;}.cls-5{fill:#d6ac90;}.cls-6{fill:#cba07a;}.cls-7{fill:#dde1e8;}.cls-8{fill:#c7cdd8;}.cls-9{fill:#fff;}</style></defs><title>Notification</title><g id="Notification"><rect class="cls-1" x="1" y="45" width="108" height="82"/><circle class="cls-2" cx="105" cy="86" r="22"/><rect class="cls-3" x="1" y="122" width="108" height="5"/><path class="cls-4" d="M105,108A22,22,0,0,1,83.09,84a22,22,0,0,0,43.82,0A22,22,0,0,1,105,108Z"/><path class="cls-3" d="M109,107.63v4A22,22,0,0,1,83.09,88,22,22,0,0,0,109,107.63Z"/><path class="cls-5" d="M93,30l16,15L65.91,84.9a16,16,0,0,1-21.82,0L1,45,17,30Z"/><path class="cls-6" d="M109,45,65.91,84.9a16,16,0,0,1-21.82,0L1,45l2.68-2.52c43.4,40.19,41.54,39.08,45.46,40.6A16,16,0,0,0,65.91,79.9l40.41-37.42Z"/><path class="cls-7" d="M93,1V59.82L65.91,84.9a16,16,0,0,1-16.77,3.18C45.42,86.64,47,87.6,17,59.82V1Z"/><path class="cls-8" d="M74,56c-3.56-5.94-3-10.65-3-17.55a16.43,16.43,0,0,0-12.34-16,5,5,0,1,0-7.32,0A16,16,0,0,0,39,38c0,7.13.59,12-3,18a3,3,0,0,0,0,6H50.41a5,5,0,1,0,9.18,0H74a3,3,0,0,0,0-6ZM53.2,21.37a3,3,0,1,1,3.6,0,1,1,0,0,0-.42.7,11.48,11.48,0,0,0-2.77,0A1,1,0,0,0,53.2,21.37Z"/><path class="cls-3" d="M46.09,86.73,3,127H1v-1c6-5.62-1.26,1.17,43.7-40.78A1,1,0,0,1,46.09,86.73Z"/><path class="cls-3" d="M109,126v1h-2L63.91,86.73a1,1,0,0,1,1.39-1.49C111,127.85,103.11,120.51,109,126Z"/><path class="cls-8" d="M93,54.81v5L65.91,84.9a16,16,0,0,1-16.77,3.18C45.42,86.64,47,87.6,17,59.82v-5L44.09,79.9a16,16,0,0,0,21.82,0Z"/><path class="cls-9" d="M101,95c-.59,0-.08.34-8.72-8.3a1,1,0,0,1,1.44-1.44L101,92.56l15.28-15.28a1,1,0,0,1,1.44,1.44C100.21,96.23,101.6,95,101,95Z"/><path class="cls-3" d="M56.8,18.38a3,3,0,1,0-3.6,0A1,1,0,0,1,52,20,5,5,0,1,1,58,20,1,1,0,0,1,56.8,18.38Z"/><path class="cls-1" d="M71,42.17V35.45c0-8.61-6.62-16-15.23-16.43A16,16,0,0,0,39,35c0,7.33.58,12-3,18H74A21.06,21.06,0,0,1,71,42.17Z"/><path class="cls-3" d="M74,53H36a21.36,21.36,0,0,0,1.86-4H72.14A21.36,21.36,0,0,0,74,53Z"/><path class="cls-3" d="M59.59,59a5,5,0,1,1-9.18,0"/><path class="cls-1" d="M74,59H36a3,3,0,0,1,0-6H74a3,3,0,0,1,0,6Z"/></g></svg>