<svg xmlns="http://www.w3.org/2000/svg" xmlns:xlink="http://www.w3.org/1999/xlink" viewBox="0 0 64 64"><defs><style>.cls-1{fill:url(#linear-gradient);}.cls-2{fill:url(#linear-gradient-2);}.cls-3{fill:#c7cdd8;}.cls-4{fill:#adb3c4;}.cls-5{fill:url(#linear-gradient-3);}.cls-6{fill:#8288a1;}.cls-7{fill:url(#linear-gradient-4);}.cls-8{fill:#cf4055;}.cls-9{fill:url(#linear-gradient-5);}.cls-10{fill:url(#linear-gradient-6);}.cls-11{fill:#9ca0ad;}.cls-12{fill:#42455e;}</style><linearGradient id="linear-gradient" x1="32" y1="51" x2="32" y2="7" gradientUnits="userSpaceOnUse"><stop offset="0" stop-color="#474f72"/><stop offset="1" stop-color="#878c9f"/></linearGradient><linearGradient id="linear-gradient-2" x1="32" y1="51" x2="32" y2="43" gradientUnits="userSpaceOnUse"><stop offset="0" stop-color="#d4d8e1"/><stop offset="1" stop-color="#f3f4f5"/></linearGradient><linearGradient id="linear-gradient-3" x1="32" y1="61" x2="32" y2="51" gradientUnits="userSpaceOnUse"><stop offset="0" stop-color="#949aaf"/><stop offset="1" stop-color="#c6ccda"/></linearGradient><linearGradient id="linear-gradient-4" x1="32" y1="37" x2="32" y2="5" gradientUnits="userSpaceOnUse"><stop offset="0" stop-color="#da5466"/><stop offset="1" stop-color="#f4929c"/></linearGradient><linearGradient id="linear-gradient-5" x1="13" y1="19" x2="32" y2="19" xlink:href="#linear-gradient-2"/><linearGradient id="linear-gradient-6" x1="32" y1="19" x2="51" y2="19" xlink:href="#linear-gradient-2"/></defs><title>Online LEarning</title><g id="Online_LEarning" data-name="Online LEarning"><path class="cls-1" d="M55,7h2a4,4,0,0,1,4,4V47a4,4,0,0,1-4,4H7a4,4,0,0,1-4-4V11A4,4,0,0,1,7,7H9"/><path class="cls-2" d="M3,43H61a0,0,0,0,1,0,0v4a4,4,0,0,1-4,4H7a4,4,0,0,1-4-4V43A0,0,0,0,1,3,43Z"/><path class="cls-3" d="M61,45v2a4,4,0,0,1-4,4H7a4,4,0,0,1-4-4V45a4,4,0,0,0,4,4H57A4,4,0,0,0,61,45Z"/><path class="cls-4" d="M33,48H31a1,1,0,0,1,0-2h2A1,1,0,0,1,33,48Z"/><path class="cls-5" d="M42,61H22a3.66,3.66,0,0,0,2.22-.72c1.36-1,1.07-1.61,1.78-9.28H38c.29,3.15.14,1.49.7,7.51A3.16,3.16,0,0,0,42,61Z"/><path class="cls-6" d="M44,63H20a1,1,0,0,1,0-2H44A1,1,0,0,1,44,63Z"/><path class="cls-7" d="M13,5H9V37H55V5H51"/><path class="cls-8" d="M13,35H9v2H55V35H51"/><path class="cls-9" d="M32,5V37a13.65,13.65,0,0,0-9.66-4H13V1h9.34A13.65,13.65,0,0,1,32,5Z"/><path class="cls-10" d="M32,5V37a13.65,13.65,0,0,1,9.66-4H51V1H41.66A13.65,13.65,0,0,0,32,5Z"/><path class="cls-3" d="M32,34v3a13.65,13.65,0,0,0-9.66-4H13V30h9.34A13.65,13.65,0,0,1,32,34Z"/><path class="cls-3" d="M51,30v3H41.66A13.65,13.65,0,0,0,32,37V34a13.65,13.65,0,0,1,9.66-4Z"/><path class="cls-11" d="M27,8H18a1,1,0,0,1,0-2h9A1,1,0,0,1,27,8Z"/><path class="cls-11" d="M27,13H18a1,1,0,0,1,0-2h9A1,1,0,0,1,27,13Z"/><path class="cls-11" d="M27,18H18a1,1,0,0,1,0-2h9A1,1,0,0,1,27,18Z"/><path class="cls-11" d="M27,23H18a1,1,0,0,1,0-2h9A1,1,0,0,1,27,23Z"/><path class="cls-11" d="M27,28H18a1,1,0,0,1,0-2h9A1,1,0,0,1,27,28Z"/><path class="cls-11" d="M46,8H37a1,1,0,0,1,0-2h9A1,1,0,0,1,46,8Z"/><path class="cls-11" d="M46,13H37a1,1,0,0,1,0-2h9A1,1,0,0,1,46,13Z"/><path class="cls-11" d="M46,18H37a1,1,0,0,1,0-2h9A1,1,0,0,1,46,18Z"/><path class="cls-11" d="M46,23H37a1,1,0,0,1,0-2h9A1,1,0,0,1,46,23Z"/><path class="cls-11" d="M46,28H37a1,1,0,0,1,0-2h9A1,1,0,0,1,46,28Z"/><polygon class="cls-4" points="38.23 54 25.77 54 26 51 38 51 38.23 54"/><rect class="cls-12" x="3" y="41" width="58" height="2"/></g></svg>