<svg xmlns="http://www.w3.org/2000/svg" xmlns:xlink="http://www.w3.org/1999/xlink" viewBox="0 0 64 64"><defs><style>.cls-1{fill:url(#linear-gradient);}.cls-2{fill:url(#linear-gradient-2);}.cls-3{fill:#aae0e5;}.cls-4{fill:#77cacb;}.cls-5{fill:url(#linear-gradient-3);}.cls-6{fill:#8288a1;}.cls-7{fill:#d7dbe2;}.cls-8{fill:#d7f1ff;}.cls-9{fill:url(#linear-gradient-4);}.cls-10{fill:#42455e;}.cls-11{fill:url(#linear-gradient-5);}.cls-12{fill:#dd8b37;}.cls-13{fill:url(#linear-gradient-6);}.cls-14{fill:url(#linear-gradient-7);}</style><linearGradient id="linear-gradient" x1="32" y1="41" x2="32" y2="1" gradientUnits="userSpaceOnUse"><stop offset="0" stop-color="#a0a6ba"/><stop offset="1" stop-color="#c6ccda"/></linearGradient><linearGradient id="linear-gradient-2" x1="32" y1="37" x2="32" y2="5" gradientUnits="userSpaceOnUse"><stop offset="0" stop-color="#9dd5df"/><stop offset="1" stop-color="#c3e1f5"/></linearGradient><linearGradient id="linear-gradient-3" y1="49" y2="41" xlink:href="#linear-gradient"/><linearGradient id="linear-gradient-4" x1="21.5" y1="28" x2="21.5" y2="12" gradientUnits="userSpaceOnUse"><stop offset="0" stop-color="#474f72"/><stop offset="1" stop-color="#878c9f"/></linearGradient><linearGradient id="linear-gradient-5" x1="24.85" y1="24" x2="24.85" y2="14.98" gradientUnits="userSpaceOnUse"><stop offset="0" stop-color="#e9a254"/><stop offset="1" stop-color="#f4bb79"/></linearGradient><linearGradient id="linear-gradient-6" x1="52" y1="62" x2="52" y2="28" xlink:href="#linear-gradient-2"/><linearGradient id="linear-gradient-7" x1="52" y1="63" x2="52" y2="27" xlink:href="#linear-gradient-4"/></defs><title>Online Shoping</title><g id="Online_Shoping" data-name="Online Shoping"><path class="cls-1" d="M8,1A3,3,0,0,0,5,4V41H59V4a3,3,0,0,0-3-3Z"/><path class="cls-2" d="M55,5V37H9V5Z"/><path class="cls-3" d="M55,5V7H9V5Z"/><path class="cls-4" d="M55,35v2H9V35Z"/><path class="cls-5" d="M3,41H61a2,2,0,0,1,2,2v2a4,4,0,0,1-4,4H5a4,4,0,0,1-4-4V43A2,2,0,0,1,3,41Z"/><path class="cls-6" d="M63,43v2a4,4,0,0,1-4,4H5a4,4,0,0,1-4-4V43a4,4,0,0,0,4,4H59A4,4,0,0,0,63,43Z"/><polygon class="cls-7" points="40 44 24 44 22 41 42 41 40 44"/><rect class="cls-6" x="5" y="39" width="54" height="2"/><path class="cls-8" d="M49,11H37a1,1,0,0,1,0-2H49A1,1,0,0,1,49,11Z"/><path class="cls-8" d="M49,16H37a1,1,0,0,1,0-2H49A1,1,0,0,1,49,16Z"/><path class="cls-8" d="M49,21H37a1,1,0,0,1,0-2H49A1,1,0,0,1,49,21Z"/><path class="cls-8" d="M49,26H37a1,1,0,0,1,0-2H49A1,1,0,0,1,49,26Z"/><path class="cls-9" d="M28,28H19.4A2.41,2.41,0,0,1,17,25.6c0-1.26.76-1.76,2-2.94L17.19,14H15a1,1,0,0,1,0-2h3a1,1,0,0,1,1,.8c2.21,10.63,2.35,10.38,1.79,10.92C17.86,26.52,17.38,26,28,26A1,1,0,0,1,28,28Z"/><path class="cls-10" d="M28,30a2,2,0,1,1,2-2A2,2,0,0,1,28,30Zm0-2Z"/><path class="cls-10" d="M20,30a2,2,0,1,1,2-2A2,2,0,0,1,20,30Zm0-2Z"/><path class="cls-11" d="M32,16.27l-2,7A1,1,0,0,1,29,24H20.08a1,1,0,0,1-1-.81c-1.48-7.53-1.61-7.3-1.18-7.82S17.73,15,31,15A1,1,0,0,1,32,16.27Z"/><path class="cls-12" d="M30.61,21c-.68,2.37-.69,3-1.61,3H20.08a1,1,0,0,1-1-.81L18.67,21Z"/><rect class="cls-13" x="42" y="28" width="20" height="34" rx="2"/><path class="cls-4" d="M62,57v3a2,2,0,0,1-2,2H44a2,2,0,0,1-2-2V57a2,2,0,0,0,2,2H60A2,2,0,0,0,62,57Z"/><path class="cls-14" d="M60,27H44a3,3,0,0,0-3,3V60a3,3,0,0,0,3,3H60a3,3,0,0,0,3-3V30A3,3,0,0,0,60,27Zm1,33a1,1,0,0,1-1,1H44a1,1,0,0,1-1-1V30a1,1,0,0,1,1-1h3.6l.08.39a2,2,0,0,0,2,1.61c5.09,0,6.25.52,6.76-2H60a1,1,0,0,1,1,1Z"/><path class="cls-12" d="M50.64,43H55a1,1,0,0,0,0-2H53V40a1,1,0,0,0-2,0v1c-4.59,0-4.23,6-.36,6h2a1,1,0,0,1,0,2H49a1,1,0,0,0,0,2h2v1a1,1,0,0,0,2,0V51a3,3,0,0,0-.36-6h-2A1,1,0,0,1,50.64,43Z"/></g></svg>