<svg xmlns="http://www.w3.org/2000/svg" xmlns:xlink="http://www.w3.org/1999/xlink" viewBox="0 0 64 64"><defs><style>.cls-1{fill:url(#linear-gradient);}.cls-2{fill:#cf4055;}.cls-3{fill:url(#linear-gradient-2);}.cls-4{fill:url(#linear-gradient-3);}.cls-5{fill:#c7cdd8;}.cls-6{fill:#9ca0ad;}</style><linearGradient id="linear-gradient" x1="32" y1="55" x2="32" y2="13" gradientUnits="userSpaceOnUse"><stop offset="0" stop-color="#da5466"/><stop offset="1" stop-color="#f4929c"/></linearGradient><linearGradient id="linear-gradient-2" x1="5" y1="32" x2="32" y2="32" gradientUnits="userSpaceOnUse"><stop offset="0" stop-color="#d4d8e1"/><stop offset="1" stop-color="#f3f4f5"/></linearGradient><linearGradient id="linear-gradient-3" x1="32" x2="59" xlink:href="#linear-gradient-2"/></defs><title>Open Book</title><g id="Open_Book" data-name="Open Book"><path class="cls-1" d="M5,13H1V55H63V13H59"/><path class="cls-2" d="M5,52H1v3H63V52H59"/><path class="cls-3" d="M32,13V55a13.65,13.65,0,0,0-9.66-4H5V9H22.34A13.65,13.65,0,0,1,32,13Z"/><path class="cls-4" d="M32,13V55a13.65,13.65,0,0,1,9.66-4H59V9H41.66A13.65,13.65,0,0,0,32,13Z"/><path class="cls-5" d="M32,52v3a13.65,13.65,0,0,0-9.66-4H5V48H22.34A13.65,13.65,0,0,1,32,52Z"/><path class="cls-5" d="M59,48v3H41.66A13.65,13.65,0,0,0,32,55V52a13.65,13.65,0,0,1,9.66-4Z"/><path class="cls-6" d="M28,17.23A16.66,16.66,0,0,0,22.34,16H12a1,1,0,0,1,0-2c11.05,0,12.77-.34,16.41,1.32A1,1,0,0,1,28,17.23Z"/><path class="cls-6" d="M28,22.23A17.81,17.81,0,0,0,23,21a1,1,0,0,1,.1-2,14.5,14.5,0,0,1,5.36,1.3A1,1,0,0,1,28,22.23Z"/><path class="cls-6" d="M19,21H9a1,1,0,0,1,0-2H19A1,1,0,0,1,19,21Z"/><path class="cls-6" d="M28,27.23A16.66,16.66,0,0,0,22.34,26H9a1,1,0,0,1,0-2c14,0,15.67-.38,19.41,1.32A1,1,0,0,1,28,27.23Z"/><path class="cls-6" d="M28,32.23A16.66,16.66,0,0,0,22.34,31H19a1,1,0,0,1,0-2c3.59,0,6-.22,9.41,1.32A1,1,0,0,1,28,32.23Z"/><path class="cls-6" d="M15,31H9a1,1,0,0,1,0-2h6A1,1,0,0,1,15,31Z"/><path class="cls-6" d="M28,37.23A16.66,16.66,0,0,0,22.34,36H9a1,1,0,0,1,0-2c14,0,15.67-.38,19.41,1.32A1,1,0,0,1,28,37.23Z"/><path class="cls-6" d="M28,42.23A16.66,16.66,0,0,0,22.34,41H15a1,1,0,0,1,0-2c6.79,0,9.69-.37,13.41,1.32A1,1,0,0,1,28,42.23Z"/><path class="cls-6" d="M11,41H9a1,1,0,0,1,0-2h2A1,1,0,0,1,11,41Z"/><path class="cls-6" d="M22.34,46H9a1,1,0,0,1,0-2H22.34A1,1,0,0,1,22.34,46Z"/><path class="cls-6" d="M55,16H41.66a1,1,0,0,1,0-2H55A1,1,0,0,1,55,16Z"/><path class="cls-6" d="M35.59,20.32C39.42,18.58,41.3,19,55,19a1,1,0,0,1,0,2c-13.91,0-15.27-.37-18.59,1.14A1,1,0,0,1,35.59,20.32Z"/><path class="cls-6" d="M55,26H49a1,1,0,0,1,0-2h6A1,1,0,0,1,55,26Z"/><path class="cls-6" d="M35.59,25.32C39,23.78,41.43,24,45,24a1,1,0,0,1,0,2c-3.45,0-5.6-.22-8.59,1.14A1,1,0,0,1,35.59,25.32Z"/><path class="cls-6" d="M35.59,30.32C39.42,28.58,41.3,29,55,29a1,1,0,0,1,0,2c-13.91,0-15.27-.37-18.59,1.14A1,1,0,0,1,35.59,30.32Z"/><path class="cls-6" d="M55,36H54a1,1,0,0,1,0-2h1A1,1,0,0,1,55,36Z"/><path class="cls-6" d="M35.59,35.32C39.37,33.6,42,34,50,34a1,1,0,0,1,0,2c-8.6,0-10.42-.3-13.59,1.14A1,1,0,0,1,35.59,35.32Z"/><path class="cls-6" d="M55,41H47a1,1,0,0,1,0-2h8A1,1,0,0,1,55,41Z"/><path class="cls-6" d="M36,42.23a1,1,0,0,1-.41-1.91A16,16,0,0,1,43,39a1,1,0,0,1,0,2C37.21,41,36.91,42.23,36,42.23Z"/><path class="cls-6" d="M35.59,45.32C39.44,43.57,41.9,44,52,44a1,1,0,0,1,0,2c-10.73,0-12.35-.33-15.59,1.14A1,1,0,0,1,35.59,45.32Z"/></g></svg>