<svg xmlns="http://www.w3.org/2000/svg" viewBox="0 0 128 128"><defs><style>.cls-1{fill:#d6ac90;}.cls-2{fill:#cba07a;}.cls-3{fill:#fbcc88;}.cls-4{fill:#f6b756;}.cls-5{fill:#8cdd79;}.cls-6{fill:#7ece67;}.cls-7{fill:#dde1e8;}.cls-8{fill:#fff;}</style></defs><title>Order Completed</title><g id="Order_Completed" data-name="Order Completed"><path class="cls-1" d="M103,31v96H1V31Z"/><path class="cls-2" d="M103,122v5H1v-5Z"/><polygon class="cls-3" points="66 31 66 53 61.67 51 57.34 53 53.01 51 48.67 53 44.34 51 40 53 40 31 66 31"/><polygon class="cls-4" points="66 49 66 53 61.67 51 57.34 53 53.01 51 48.67 53 44.34 51 40 53 40 49 44.34 47 48.67 49 53.01 47 57.34 49 61.67 47 66 49"/><circle class="cls-5" cx="104" cy="24" r="23"/><path class="cls-6" d="M104,47A23,23,0,0,1,81.09,22a23,23,0,0,0,45.82,0A23,23,0,0,1,104,47Z"/><rect class="cls-7" x="10" y="110" width="20" height="8"/><path class="cls-8" d="M100,33c-.59,0-.08.34-8.72-8.3a1,1,0,0,1,1.44-1.44L100,30.56l15.28-15.28a1,1,0,0,1,1.44,1.44C99.21,34.23,100.6,33,100,33Z"/></g></svg>