<svg xmlns="http://www.w3.org/2000/svg" viewBox="0 0 128 128"><defs><style>.cls-1{fill:#949aaf;}.cls-2{fill:#8288a1;}.cls-3{fill:#fbcc88;}.cls-4{fill:#f6b756;}.cls-5{fill:#dde1e8;}.cls-6{fill:#c7cdd8;}</style></defs><title>Page Under Construction</title><g id="Page_Under_Construction" data-name="Page Under Construction"><path class="cls-1" d="M112,96a10.75,10.75,0,0,1-8-3.15L42.4,31.15c-7.2-7.2-4.27-13.12-7.2-18-5.4-9-12.6-9-18-9S6.4,7.75,6.4,7.75L19,15v7.2l-5.4,3.6c-10.92-6.25-8-4.6-12.6-7.2,0,9,3.6,14.4,9,18s19.8,0,22.39,2.59l62.68,62.68a10.75,10.75,0,0,1,3.15,8c-.73,13.51,16.62,20.41,25.49,9.74C131.67,110.05,124.33,95.3,112,96Zm-3.58,7.18h8.31l4.16,7.2-4.16,7.2h-8.31l-4.16-7.2Z"/><path class="cls-2" d="M124.17,118.92c-8.47,11.43-26.71,4.83-25.95-9.15a10.75,10.75,0,0,0-3.15-8L32.39,39.14c-2.59-2.59-17,1-22.39-2.59s-9-9-9-18L4.42,20.5a18.87,18.87,0,0,0,8.58,13c5.4,3.6,19.8,0,22.39,2.59L98.07,98.82a10.75,10.75,0,0,1,3.15,8C100.58,118.65,114.41,126.16,124.17,118.92Z"/><path class="cls-3" d="M46.9,64.45,42.4,69c0,5.33-5.16,10.13-10.8,9L2.27,107.27a4.36,4.36,0,0,0,0,6.15l10.06,10a4.33,4.33,0,0,0,6.14,0c29.4-29.4,29.31-29.42,29.33-29.32-1.14-5.69,3.75-10.8,9-10.8l4.5-4.5Z"/><path class="cls-4" d="M61.3,78.85c-4.81,4.81-4.45,4.5-4.55,4.5-5.06,0-10.09,5-9,10.8L18.47,123.47a4.32,4.32,0,0,1-3.07,1.28c-2.3,0-3.22-1.43-6.05-4.25a4.35,4.35,0,0,0,5.72-.37L44.4,90.8c-1.13-5.73,3.79-10.8,9-10.8l4.5-4.5C41.14,58.74,44.47,62,61.3,78.85Z"/><path class="cls-5" d="M122.5,12.25l-9-9c-8.11,8.11-11,10-11.84,15.75L51.55,69.1l5.09,5.09,50.11-50.1C112.54,23.24,114.47,20.28,122.5,12.25Z"/><path class="cls-6" d="M122.5,12.25c-8.19,8.18-10,11-15.75,11.84L56.64,74.19l-2.5-2.5,50.11-50.1c5.77-.85,7.64-3.74,15.75-11.84Z"/></g></svg>