<svg xmlns="http://www.w3.org/2000/svg" xmlns:xlink="http://www.w3.org/1999/xlink" viewBox="0 0 64 64"><defs><style>.cls-1{fill:#aae0e5;}.cls-2{fill:url(#linear-gradient);}.cls-3{fill:url(#linear-gradient-2);}.cls-4{fill:url(#linear-gradient-3);}.cls-5{fill:url(#linear-gradient-4);}.cls-6{fill:url(#linear-gradient-5);}.cls-7{fill:url(#linear-gradient-6);}.cls-8{fill:url(#linear-gradient-7);}.cls-9{fill:url(#linear-gradient-8);}.cls-10{fill:#ffd39f;}.cls-11{fill:url(#linear-gradient-9);}.cls-12{fill:#42455e;}.cls-13{fill:url(#linear-gradient-10);}.cls-14{fill:url(#linear-gradient-11);}.cls-15{fill:#f2a961;}.cls-16{fill:#fff2e3;}</style><linearGradient id="linear-gradient" x1="32" y1="7" x2="32" y2="1" gradientUnits="userSpaceOnUse"><stop offset="0" stop-color="#e9a254"/><stop offset="1" stop-color="#f4bb79"/></linearGradient><linearGradient id="linear-gradient-2" y1="63" y2="57" xlink:href="#linear-gradient"/><linearGradient id="linear-gradient-3" x1="51.8" y1="15.2" x2="51.8" y2="9.2" xlink:href="#linear-gradient"/><linearGradient id="linear-gradient-4" x1="12.2" y1="54.8" x2="12.2" y2="48.8" xlink:href="#linear-gradient"/><linearGradient id="linear-gradient-5" x1="51.8" y1="54.8" x2="51.8" y2="48.8" xlink:href="#linear-gradient"/><linearGradient id="linear-gradient-6" x1="12.2" y1="15.2" x2="12.2" y2="9.2" xlink:href="#linear-gradient"/><linearGradient id="linear-gradient-7" x1="60" y1="35" x2="60" y2="29" xlink:href="#linear-gradient"/><linearGradient id="linear-gradient-8" x1="4" y1="35" x2="4" y2="29" xlink:href="#linear-gradient"/><linearGradient id="linear-gradient-9" x1="32" y1="48" x2="32" y2="16" gradientUnits="userSpaceOnUse"><stop offset="0" stop-color="#474f72"/><stop offset="1" stop-color="#878c9f"/></linearGradient><linearGradient id="linear-gradient-10" x1="18.2" y1="31" x2="18.2" y2="28.58" xlink:href="#linear-gradient-9"/><linearGradient id="linear-gradient-11" y1="42" y2="22" xlink:href="#linear-gradient"/></defs><title>Passive Income</title><g id="Passive_Income" data-name="Passive Income"><path class="cls-1" d="M31,57V7a1,1,0,0,1,2,0V57A1,1,0,0,1,31,57Z"/><path class="cls-1" d="M57,33H7a1,1,0,0,1,0-2H57A1,1,0,0,1,57,33Z"/><path class="cls-1" d="M14.32,50.68A1,1,0,0,1,13.61,49L49,13.61A1,1,0,0,1,50.39,15C12.65,52.76,15,50.68,14.32,50.68Z"/><path class="cls-1" d="M49.68,50.68c-.63,0,1.69,2.1-36.07-35.65A1,1,0,0,1,15,13.61L50.39,49A1,1,0,0,1,49.68,50.68Z"/><circle class="cls-2" cx="32" cy="4" r="3"/><circle class="cls-3" cx="32" cy="60" r="3"/><circle class="cls-4" cx="51.8" cy="12.2" r="3"/><circle class="cls-5" cx="12.2" cy="51.8" r="3"/><circle class="cls-6" cx="51.8" cy="51.8" r="3"/><circle class="cls-7" cx="12.2" cy="12.2" r="3"/><circle class="cls-8" cx="60" cy="32" r="3"/><circle class="cls-9" cx="4" cy="32" r="3"/><path class="cls-10" d="M5.11,24.11a1,1,0,0,0-1.21.72,1,1,0,1,0,1.21-.72Zm1.4-3.75a1,1,0,1,0-.38,1.92A1,1,0,0,0,6.51,20.36Zm1.92-3.51a1,1,0,1,0-.51,1.86A1,1,0,0,0,8.43,16.85Z"/><path class="cls-10" d="M46.8,7.06a1,1,0,0,0-1.37.35,1,1,0,1,0,1.37-.35ZM43.1,5.2a1,1,0,0,0-1.31.54A1,1,0,1,0,43.1,5.2ZM39.17,3.9a1,1,0,1,0-.25,2A1,1,0,0,0,39.17,3.9Z"/><path class="cls-10" d="M56.59,45.43a1,1,0,1,0-.51,1.86A1,1,0,0,0,56.59,45.43Zm1.66-3.64a1,1,0,0,0-1.3.54,1,1,0,1,0,1.3-.54ZM59.38,38a1,1,0,1,0-.25,2A1,1,0,0,0,59.38,38Z"/><path class="cls-10" d="M25.32,58.16a1,1,0,1,0-.25,2A1,1,0,0,0,25.32,58.16ZM21.66,57a1,1,0,1,0,.55,1.3A1,1,0,0,0,21.66,57Zm-3.44-1.73a1,1,0,1,0-.51,1.86A1,1,0,0,0,18.22,55.22Z"/><path class="cls-10" d="M8.78,45.78a1,1,0,1,0-.86,1.51A1,1,0,0,0,8.78,45.78ZM7.05,42.33a1,1,0,0,0-1.31-.54,1,1,0,1,0,1.31.54ZM5.84,38.68h0a1,1,0,0,0-1.93.49A1,1,0,0,0,5.83,38.68Z"/><path class="cls-10" d="M39.89,58.89a1,1,0,0,0-1.21-.72,1,1,0,1,0,1.21.72Zm3.75-1.4a1,1,0,1,0-.92,1.38A1,1,0,0,0,43.64,57.49Zm3.51-1.92a1,1,0,1,0-.86,1.51A1,1,0,0,0,47.15,55.57Z"/><path class="cls-10" d="M60.1,24.83a1,1,0,1,0-1,1.24A1,1,0,0,0,60.1,24.83ZM58.79,20.9a1,1,0,1,0-.53,1.3A1,1,0,0,0,58.79,20.9Zm-1.85-3.7a1,1,0,1,0-.86,1.51A1,1,0,0,0,56.94,17.2Z"/><path class="cls-10" d="M18.57,7.41a1,1,0,1,0-.86,1.51A1,1,0,0,0,18.57,7.41ZM22.2,5.74a1,1,0,0,0-1.84.77A1,1,0,0,0,22.2,5.74ZM24.82,3.9a1,1,0,0,0,.25,2A1,1,0,1,0,24.82,3.9Z"/><path class="cls-11" d="M45.61,28.76l2.25-1.3-4-6.92-2.25,1.29A14,14,0,0,0,36,18.59V16H28v2.59a14,14,0,0,0-5.61,3.24l-2.25-1.29-4,6.92,2.25,1.3a13.65,13.65,0,0,0,0,6.48l-2.25,1.3,4,6.92,2.25-1.29A14,14,0,0,0,28,45.41V48h8V45.41a14,14,0,0,0,5.61-3.24l2.25,1.29,4-6.92-2.25-1.3A13.65,13.65,0,0,0,45.61,28.76Z"/><path class="cls-12" d="M45.61,35.24l2.25,1.3-4,6.92-2.25-1.29A14,14,0,0,1,36,45.41V48H28V45.41a14,14,0,0,1-5.61-3.24l-2.25,1.29-4-6.92,2.25-1.3A13.73,13.73,0,0,1,18,31,14,14,0,0,0,46,31,13.41,13.41,0,0,1,45.61,35.24Z"/><path class="cls-13" d="M18.08,28.58c.63.37.13-.19,0,2.42A12.51,12.51,0,0,1,18.08,28.58Z"/><circle class="cls-14" cx="32" cy="32" r="10"/><circle class="cls-14" cx="32" cy="32" r="10"/><path class="cls-15" d="M42,33a10,10,0,0,0-19.9,0A10,10,0,1,1,42,33Z"/><path class="cls-16" d="M33,31H31a1,1,0,0,1,0-2h4a1,1,0,0,0,0-2H33V26a1,1,0,0,0-2,0v1a3,3,0,0,0,0,6h2a1,1,0,0,1,0,2H29a1,1,0,0,0,0,2h2v1a1,1,0,0,0,2,0V37a3,3,0,0,0,0-6Z"/></g></svg>