<svg xmlns="http://www.w3.org/2000/svg" viewBox="0 0 128 128"><defs><style>.cls-1{fill:#6ab891;}.cls-2{fill:#4da67f;}.cls-3{fill:#8cdd79;}.cls-4{fill:#7ece67;}.cls-5{fill:#f2c4b0;}.cls-6{fill:#eab39b;}</style></defs><title>Payment Processed</title><g id="Payment_Processed" data-name="Payment Processed"><path class="cls-1" d="M87,1H27V105H87Z"/><path class="cls-2" d="M87,104.74V102H27v3C91.58,105,87,105.14,87,104.74Z"/><path class="cls-3" d="M81,15a8,8,0,0,1-8-8H41a8,8,0,0,1-8,8V91a8,8,0,0,1,8,8H81Z"/><path class="cls-4" d="M81,95v4H41a8,8,0,0,0-8-8V87a8,8,0,0,1,8,8Z"/><ellipse class="cls-1" cx="57" cy="53" rx="17" ry="13"/><path class="cls-2" d="M57,66c-10.84,0-18-7.35-16.88-14.5C41.08,58,48.27,63,57,63s15.92-5,16.88-11.5C75,58.58,67.92,66,57,66Z"/><path class="cls-1" d="M56,89V83a1,1,0,0,1,2,0v6A1,1,0,0,1,56,89Z"/><path class="cls-1" d="M56,23V17a1,1,0,0,1,2,0v6A1,1,0,0,1,56,23Z"/><path class="cls-5" d="M101,79.79V127l-46.5.5A25.6,25.6,0,0,1,47,109.39V105H67.82C69,102.05,72,98.31,72,90.84c0-3.06-.32-4-3.18-20.19a6.75,6.75,0,1,1,13.29-2.34L87,96.13V46A47.85,47.85,0,0,1,101,79.79Z"/><path class="cls-5" d="M67.81,105l0,.08"/><path class="cls-6" d="M101,124v3l-46.5.5A25.6,25.6,0,0,1,47,109.39v-3a25.54,25.54,0,0,0,2,9.8c1.41,4.22,6.54,8.3,12.68,8.23Z"/><path class="cls-6" d="M67.81,105l0,.08"/><path class="cls-6" d="M67.81,102l0,.08"/><path class="cls-6" d="M67.79,105c0,.42-.12.48-.47,1.55C65.83,110.84,66,113.77,66,118a1,1,0,0,1-2,0c0-4-.26-8.18,1.74-13Z"/></g></svg>