<svg xmlns="http://www.w3.org/2000/svg" xmlns:xlink="http://www.w3.org/1999/xlink" viewBox="0 0 64 64"><defs><style>.cls-1{fill:url(#linear-gradient);}.cls-2{fill:#42455e;}.cls-3{fill:url(#linear-gradient-2);}.cls-4{fill:#d7dbe2;}.cls-5{fill:url(#linear-gradient-3);}.cls-6{fill:#9ca0ad;}.cls-7{fill:#c7cdd8;}.cls-8{fill:#dfe3ea;}.cls-9{fill:#e8677d;}</style><linearGradient id="linear-gradient" x1="32" y1="63" x2="32" y2="1" gradientUnits="userSpaceOnUse"><stop offset="0" stop-color="#474f72"/><stop offset="1" stop-color="#878c9f"/></linearGradient><linearGradient id="linear-gradient-2" x1="32" y1="55" x2="32" y2="5" gradientUnits="userSpaceOnUse"><stop offset="0" stop-color="#d4d8e1"/><stop offset="1" stop-color="#f3f4f5"/></linearGradient><linearGradient id="linear-gradient-3" x1="46" y1="50" x2="46" y2="5" gradientUnits="userSpaceOnUse"><stop offset="0" stop-color="#da5466"/><stop offset="1" stop-color="#f4929c"/></linearGradient></defs><title>PDF</title><g id="PDF"><rect class="cls-1" x="8" y="1" width="48" height="62" rx="3"/><path class="cls-2" d="M56,58v2a3,3,0,0,1-3,3H11a3,3,0,0,1-3-3V58a3,3,0,0,0,3,3H53A3,3,0,0,0,56,58Z"/><rect class="cls-3" x="12" y="5" width="40" height="50"/><path class="cls-4" d="M33,60H31a1,1,0,0,1,0-2h2A1,1,0,0,1,33,60Z"/><polygon class="cls-5" points="48 50 46 48 44 50 44 5 48 5 48 50"/><path class="cls-6" d="M40,12H22a1,1,0,0,1,0-2H40A1,1,0,0,1,40,12Z"/><path class="cls-6" d="M40,18H38a1,1,0,0,1,0-2h2A1,1,0,0,1,40,18Z"/><path class="cls-6" d="M34,18H18a1,1,0,0,1,0-2H34A1,1,0,0,1,34,18Z"/><path class="cls-6" d="M40,24H25a1,1,0,0,1,0-2H40A1,1,0,0,1,40,24Z"/><path class="cls-6" d="M21,24H18a1,1,0,0,1,0-2h3A1,1,0,0,1,21,24Z"/><path class="cls-6" d="M40,30H34a1,1,0,0,1,0-2h6A1,1,0,0,1,40,30Z"/><path class="cls-6" d="M30,30H18a1,1,0,0,1,0-2H30A1,1,0,0,1,30,30Z"/><path class="cls-6" d="M40,36H18a1,1,0,0,1,0-2H40A1,1,0,0,1,40,36Z"/><path class="cls-6" d="M40,42H28a1,1,0,0,1,0-2H40A1,1,0,0,1,40,42Z"/><path class="cls-6" d="M24,42H18a1,1,0,0,1,0-2h6A1,1,0,0,1,24,42Z"/><path class="cls-6" d="M36,48H18a1,1,0,0,1,0-2H36A1,1,0,0,1,36,48Z"/><rect class="cls-7" x="12" y="52" width="40" height="3"/><rect class="cls-8" x="12" y="5" width="40" height="3"/><rect class="cls-9" x="44" y="5" width="4" height="3"/></g></svg>