<svg xmlns="http://www.w3.org/2000/svg" xmlns:xlink="http://www.w3.org/1999/xlink" viewBox="0 0 64 64"><defs><style>.cls-1{fill:url(#linear-gradient);}.cls-2{fill:url(#linear-gradient-2);}.cls-3{fill:#42455e;}.cls-4{fill:#c7cdd8;}.cls-5{fill:#575f7c;}.cls-6{fill:url(#linear-gradient-3);}.cls-7{fill:url(#linear-gradient-4);}.cls-8{fill:url(#linear-gradient-5);}.cls-9{fill:#adb3c4;}.cls-10{fill:#8288a1;}.cls-11{fill:url(#linear-gradient-6);}.cls-12{fill:#5b8dc9;}.cls-13{fill:#dfe3ea;}</style><linearGradient id="linear-gradient" x1="32" y1="51" x2="32" y2="7" gradientUnits="userSpaceOnUse"><stop offset="0" stop-color="#d4d8e1"/><stop offset="1" stop-color="#f3f4f5"/></linearGradient><linearGradient id="linear-gradient-2" x1="32" y1="42.64" x2="32" y2="26.86" gradientUnits="userSpaceOnUse"><stop offset="0" stop-color="#474f72"/><stop offset="1" stop-color="#878c9f"/></linearGradient><linearGradient id="linear-gradient-3" y1="32" y2="14" xlink:href="#linear-gradient-2"/><linearGradient id="linear-gradient-4" x1="31.01" y1="31.43" x2="49" y2="31.43" gradientUnits="userSpaceOnUse"><stop offset="0" stop-color="#e9a254"/><stop offset="1" stop-color="#f4bb79"/></linearGradient><linearGradient id="linear-gradient-5" x1="48" y1="44" x2="48" y2="39.91" xlink:href="#linear-gradient-4"/><linearGradient id="linear-gradient-6" x1="32" y1="7" x2="32" y2="1" gradientUnits="userSpaceOnUse"><stop offset="0" stop-color="#7aa8d7"/><stop offset="1" stop-color="#c3d2e7"/></linearGradient></defs><title>Presentation</title><g id="Presentation"><rect class="cls-1" x="3" y="7" width="58" height="44"/><path class="cls-2" d="M44,26.86V36.5c0,2.26-5.37,6.14-12,6.14S20,38.76,20,36.5V26.86Z"/><path class="cls-3" d="M44,33.64V36.5c0,2.26-5.37,6.14-12,6.14S20,38.76,20,36.5V33.64c0,2.26,5.37,6.14,12,6.14S44,35.9,44,33.64Z"/><rect class="cls-4" x="3" y="48" width="58" height="3"/><polygon class="cls-5" points="44 26.86 44 29.04 32 34.18 20 29.04 20 26.86 44 26.86"/><polygon class="cls-6" points="32 32 11 23 32 14 53 23 32 32"/><path class="cls-7" d="M47,40V25.88l-15.13-2a1,1,0,0,1,.26-2l16,2.14A1,1,0,0,1,49,25V40A1,1,0,0,1,47,40Z"/><path class="cls-8" d="M49.55,41.25,50,44H46l.45-2.75A1.57,1.57,0,0,1,49.55,41.25Z"/><path class="cls-9" d="M31,59V51a1,1,0,0,1,2,0v8A1,1,0,0,1,31,59Z"/><path class="cls-10" d="M62,52H2a1,1,0,0,1,0-2H62A1,1,0,0,1,62,52Z"/><path class="cls-10" d="M32,64a3,3,0,1,1,3-3A3,3,0,0,1,32,64Zm0-4a1,1,0,0,0,0,2A1,1,0,0,0,32,60Z"/><rect class="cls-11" x="1" y="1" width="62" height="6"/><rect class="cls-12" x="1" y="5" width="62" height="2"/><rect class="cls-13" x="3" y="7" width="58" height="2"/></g></svg>