<svg xmlns="http://www.w3.org/2000/svg" xmlns:xlink="http://www.w3.org/1999/xlink" viewBox="0 0 64 64"><defs><style>.cls-1{fill:#adb3c4;}.cls-2{fill:#8288a1;}.cls-3{fill:url(#linear-gradient);}.cls-4{fill:#5b8dc9;}.cls-5{fill:url(#linear-gradient-2);}.cls-6{fill:#dfe3ea;}.cls-7{fill:#c7cdd8;}.cls-8{fill:url(#linear-gradient-3);}.cls-9{fill:#42455e;}.cls-10{fill:url(#linear-gradient-4);}.cls-11{fill:url(#linear-gradient-5);}.cls-12{fill:#f2a961;}.cls-13{fill:#fff2e3;}</style><linearGradient id="linear-gradient" x1="32" y1="7" x2="32" y2="1" gradientUnits="userSpaceOnUse"><stop offset="0" stop-color="#7aa8d7"/><stop offset="1" stop-color="#c3d2e7"/></linearGradient><linearGradient id="linear-gradient-2" x1="32" y1="52" x2="32" y2="7" gradientUnits="userSpaceOnUse"><stop offset="0" stop-color="#d4d8e1"/><stop offset="1" stop-color="#f3f4f5"/></linearGradient><linearGradient id="linear-gradient-3" x1="32" y1="45" x2="32" y2="13" gradientUnits="userSpaceOnUse"><stop offset="0" stop-color="#474f72"/><stop offset="1" stop-color="#878c9f"/></linearGradient><linearGradient id="linear-gradient-4" x1="18.2" y1="28" x2="18.2" y2="25.58" xlink:href="#linear-gradient-3"/><linearGradient id="linear-gradient-5" x1="32" y1="39" x2="32" y2="19" gradientUnits="userSpaceOnUse"><stop offset="0" stop-color="#e9a254"/><stop offset="1" stop-color="#f4bb79"/></linearGradient></defs><title>Presentation</title><g id="Presentation"><path class="cls-1" d="M31,59V52a1,1,0,0,1,2,0v7A1,1,0,0,1,31,59Z"/><path class="cls-2" d="M32,64a3,3,0,1,1,3-3A3,3,0,0,1,32,64Zm0-4a1,1,0,0,0,0,2A1,1,0,0,0,32,60Z"/><rect class="cls-3" x="1" y="1" width="62" height="6"/><rect class="cls-4" x="1" y="5" width="62" height="2"/><rect class="cls-5" x="4" y="7" width="56" height="45"/><rect class="cls-6" x="4" y="7" width="56" height="2"/><rect class="cls-7" x="4" y="49" width="56" height="3"/><path class="cls-2" d="M61,53H3a1,1,0,0,1,0-2H61A1,1,0,0,1,61,53Z"/><path class="cls-8" d="M45.61,25.76l2.25-1.3-4-6.92-2.25,1.29A14,14,0,0,0,36,15.59V13H28v2.59a14,14,0,0,0-5.61,3.24l-2.25-1.29-4,6.92,2.25,1.3a13.65,13.65,0,0,0,0,6.48l-2.25,1.3,4,6.92,2.25-1.29A14,14,0,0,0,28,42.41V45h8V42.41a14,14,0,0,0,5.61-3.24l2.25,1.29,4-6.92-2.25-1.3A13.65,13.65,0,0,0,45.61,25.76Z"/><path class="cls-9" d="M45.61,32.24l2.25,1.3-4,6.92-2.25-1.29A14,14,0,0,1,36,42.41V45H28V42.41a14,14,0,0,1-5.61-3.24l-2.25,1.29-4-6.92,2.25-1.3A13.73,13.73,0,0,1,18,28,14,14,0,0,0,46,28,13.41,13.41,0,0,1,45.61,32.24Z"/><path class="cls-10" d="M18.08,25.58c.63.37.13-.19,0,2.42A12.51,12.51,0,0,1,18.08,25.58Z"/><circle class="cls-11" cx="32" cy="29" r="10"/><circle class="cls-11" cx="32" cy="29" r="10"/><path class="cls-12" d="M42,30a10,10,0,0,0-19.9,0A10,10,0,1,1,42,30Z"/><path class="cls-13" d="M33,28H31a1,1,0,0,1,0-2h4a1,1,0,0,0,0-2H33V23a1,1,0,0,0-2,0v1a3,3,0,0,0,0,6h2a1,1,0,0,1,0,2H29a1,1,0,0,0,0,2h2v1a1,1,0,0,0,2,0V34a3,3,0,0,0,0-6Z"/></g></svg>