<svg xmlns="http://www.w3.org/2000/svg" viewBox="0 0 128 128"><defs><style>.cls-1{fill:#7aa8d7;}.cls-2{fill:#5b8dc9;}.cls-3{fill:#dde1e8;}.cls-4{fill:#c7cdd8;}.cls-5{fill:#949aaf;}.cls-6{fill:#8288a1;}.cls-7{fill:#fbcc88;}.cls-8{fill:#f6b756;}</style></defs><title>Privacy</title><g id="Privacy"><path class="cls-1" d="M64,127c-29.3-8.2-50-36.1-50-68.33V15A96.74,96.74,0,0,0,64,1a96.72,96.72,0,0,0,50,14V58.67C114,91,93.25,118.81,64,127Z"/><path class="cls-2" d="M114,55.67v3c0,32-20.52,60.07-50,68.33-29.48-8.26-50-36.29-50-68.33v-3c0,32,20.52,60.07,50,68.33C93.48,115.74,114,87.71,114,55.67Z"/><path class="cls-3" d="M64,118.65c-24.84-8-42-32.36-42-60v-36A105,105,0,0,0,64,10.22a105.08,105.08,0,0,0,42,12.47v36C106,86.29,88.84,110.62,64,118.65Z"/><rect class="cls-4" x="37" y="51" width="54" height="42"/><path class="cls-4" d="M83,44v7H77c0-6.89.78-11.6-3.81-16.19C65.06,26.68,51,32.41,51,44v7H45V44a19,19,0,0,1,38,0Z"/><path class="cls-4" d="M106,55.67v3c0,27.62-17.16,52-42,60-24.84-8-42-32.36-42-60v-3c0,27.62,17.16,52,42,60C88.84,107.62,106,83.29,106,55.67Z"/><path class="cls-4" d="M106,22.69v3A105.08,105.08,0,0,1,64,13.22,105,105,0,0,1,22,25.69v-3A105,105,0,0,0,64,10.22,105.08,105.08,0,0,0,106,22.69Z"/><rect class="cls-5" x="37" y="47" width="54" height="42"/><rect class="cls-6" x="37" y="85" width="54" height="4"/><path class="cls-5" d="M83,40v7H77c0-6.89.78-11.6-3.81-16.19C65.06,22.68,51,28.41,51,40v7H45V40a19,19,0,0,1,38,0Z"/><path class="cls-7" d="M73.64,79.48h0A15,15,0,1,1,64,53C78,53,84.3,70.56,73.64,79.48Z"/><path class="cls-8" d="M73.64,79.48h0c-10.34,8.75-26.34.14-24.48-13.5a15,15,0,0,0,29.72,0A14.91,14.91,0,0,1,73.64,79.48Z"/><path class="cls-1" d="M73.62,79.49a14.93,14.93,0,0,1-19.24,0C55.5,74.72,59.12,70,64,70S72.5,74.72,73.62,79.49Z"/><circle class="cls-1" cx="64" cy="65" r="5"/><rect class="cls-6" x="45" y="43" width="6" height="4"/><rect class="cls-6" x="77" y="43" width="6" height="4"/><path class="cls-2" d="M73.62,79.49a14.93,14.93,0,0,1-19.24,0,14.9,14.9,0,0,1,1.12-3.15,14.9,14.9,0,0,0,17,0A14.9,14.9,0,0,1,73.62,79.49Z"/></g></svg>