<svg xmlns="http://www.w3.org/2000/svg" xmlns:xlink="http://www.w3.org/1999/xlink" viewBox="0 0 64 64"><defs><style>.cls-1{fill:url(#linear-gradient);}.cls-2{fill:#cba07a;}.cls-3{fill:url(#linear-gradient-2);}.cls-4{fill:url(#linear-gradient-3);}.cls-5{fill:url(#linear-gradient-4);}.cls-6{fill:#42455e;}.cls-7{fill:url(#linear-gradient-5);}.cls-8{fill:#a88680;}</style><linearGradient id="linear-gradient" x1="29" y1="54" x2="29" y2="12" gradientUnits="userSpaceOnUse"><stop offset="0" stop-color="#d1a788"/><stop offset="1" stop-color="#f2d3b8"/></linearGradient><linearGradient id="linear-gradient-2" y1="31" x2="29" xlink:href="#linear-gradient"/><linearGradient id="linear-gradient-3" x1="29" y1="35" x2="29" y2="27" gradientUnits="userSpaceOnUse"><stop offset="0" stop-color="#a0a6ba"/><stop offset="1" stop-color="#c6ccda"/></linearGradient><linearGradient id="linear-gradient-4" x1="49" y1="63" x2="49" y2="35" gradientUnits="userSpaceOnUse"><stop offset="0" stop-color="#474f72"/><stop offset="1" stop-color="#878c9f"/></linearGradient><linearGradient id="linear-gradient-5" x1="29" y1="12" x2="29" y2="1" gradientUnits="userSpaceOnUse"><stop offset="0" stop-color="#9b756d"/><stop offset="1" stop-color="#bc9388"/></linearGradient></defs><title>Project Management</title><g id="Project_Management" data-name="Project Management"><path class="cls-1" d="M57,16V41.79L35.73,54H5a4,4,0,0,1-4-4V16a4,4,0,0,1,4-4H53A4,4,0,0,1,57,16Z"/><path class="cls-2" d="M57,42c0-.3,2.36-1.56-21.27,12H5a4,4,0,0,1-4-4V47a4,4,0,0,0,4,4H35.73Z"/><path class="cls-2" d="M57,16V31.46A5.93,5.93,0,0,1,53,33H5a5.93,5.93,0,0,1-4-1.54V16a4,4,0,0,1,4-4H53A4,4,0,0,1,57,16Z"/><rect class="cls-3" x="1" y="12" width="56" height="19" rx="4"/><path class="cls-4" d="M29,35a3,3,0,0,1-3-3V27h6v5A3,3,0,0,1,29,35Z"/><path class="cls-5" d="M59.66,46.31l3-1.71-3-5.2-3,1.71A11.06,11.06,0,0,0,52,38.42V35H46v3.42a11.06,11.06,0,0,0-4.66,2.69l-3-1.71-3,5.2,3,1.71a10.89,10.89,0,0,0,0,5.38l-3,1.71,3,5.2,3-1.71A11.06,11.06,0,0,0,46,59.58V63h6V59.58a11.06,11.06,0,0,0,4.66-2.69l3,1.71,3-5.2-3-1.71A10.89,10.89,0,0,0,59.66,46.31Z"/><path class="cls-6" d="M62.62,53.4l-3,5.2-3-1.71A11.06,11.06,0,0,1,52,59.58V63H46V59.58a11.06,11.06,0,0,1-4.66-2.69l-3,1.71-3-5.2c3.49-2,2.94-1.57,2.9-2a12,12,0,0,0,21.44,0C59.68,51.83,59.13,51.38,62.62,53.4Z"/><path class="cls-7" d="M42,12H38.27l-1-5.36a2,2,0,0,0-2-1.64H22.67a2,2,0,0,0-2,1.64l-1,5.36H16l1.25-6.89A5,5,0,0,1,22.17,1H35.83a5,5,0,0,1,4.92,4.11Z"/><circle class="cls-8" cx="49" cy="49" r="4.67"/></g></svg>