<svg xmlns="http://www.w3.org/2000/svg" viewBox="0 0 128 128"><defs><style>.cls-1{fill:#7aa8d7;}.cls-2{fill:#5b8dc9;}.cls-3{fill:#dde1e8;}.cls-4{fill:#c7cdd8;}.cls-5{fill:#8cdd79;}.cls-6{fill:#7ece67;}.cls-7{fill:#fff;}</style></defs><title>Protection</title><g id="Protection"><path class="cls-1" d="M64,127c-29.3-8.2-50-36.1-50-68.33V15A96.74,96.74,0,0,0,64,1a96.72,96.72,0,0,0,50,14V58.67C114,91,93.25,118.81,64,127Z"/><path class="cls-2" d="M114,55.67v3c0,32-20.52,60.07-50,68.33-29.48-8.26-50-36.29-50-68.33v-3c0,32,20.52,60.07,50,68.33C93.48,115.74,114,87.71,114,55.67Z"/><path class="cls-3" d="M64,118.65c-24.84-8-42-32.36-42-60v-36A105,105,0,0,0,64,10.22a105.08,105.08,0,0,0,42,12.47v36C106,86.29,88.84,110.62,64,118.65Z"/><path class="cls-4" d="M106,55.67v3c0,27.62-17.16,52-42,60-24.84-8-42-32.36-42-60v-3c0,27.62,17.16,52,42,60C88.84,107.62,106,83.29,106,55.67Z"/><path class="cls-4" d="M106,22.69v3A105.08,105.08,0,0,1,64,13.22,105,105,0,0,1,22,25.69v-3A105,105,0,0,0,64,10.22,105.08,105.08,0,0,0,106,22.69Z"/><circle class="cls-5" cx="64" cy="62" r="23"/><path class="cls-6" d="M64,85A23,23,0,0,1,41.09,60a23,23,0,0,0,45.82,0A23,23,0,0,1,64,85Z"/><path class="cls-4" d="M64,89A23,23,0,0,1,41.09,64a23,23,0,0,0,45.82,0A23,23,0,0,1,64,89Z"/><path class="cls-7" d="M60,71c-.59,0-.08.34-8.72-8.3a1,1,0,0,1,1.44-1.44L60,68.56,75.28,53.28a1,1,0,0,1,1.44,1.44C59.21,72.23,60.6,71,60,71Z"/></g></svg>