<svg xmlns="http://www.w3.org/2000/svg" xmlns:xlink="http://www.w3.org/1999/xlink" viewBox="0 0 64 64"><defs><style>.cls-1{fill:url(#linear-gradient);}.cls-2{fill:url(#linear-gradient-2);}.cls-3{fill:#aae0e5;}.cls-4{fill:#77cacb;}.cls-5{fill:url(#linear-gradient-3);}.cls-6{fill:#8288a1;}.cls-7{fill:#d7dbe2;}.cls-8{fill:url(#linear-gradient-4);}.cls-9{fill:#c7cdd8;}.cls-10{fill:url(#linear-gradient-5);}.cls-11{fill:#cf4055;}.cls-12{fill:#dd8b37;}.cls-13{fill:#7ece67;}.cls-14{fill:url(#linear-gradient-6);}.cls-15{fill:url(#linear-gradient-7);}.cls-16{fill:url(#linear-gradient-8);}.cls-17{fill:#f6b756;}.cls-18{fill:#5b8dc9;}.cls-19{fill:url(#linear-gradient-9);}.cls-20{fill:url(#linear-gradient-10);}</style><linearGradient id="linear-gradient" x1="32" y1="55" x2="32" y2="15" gradientUnits="userSpaceOnUse"><stop offset="0" stop-color="#a0a6ba"/><stop offset="1" stop-color="#c6ccda"/></linearGradient><linearGradient id="linear-gradient-2" x1="32" y1="51" x2="32" y2="19" gradientUnits="userSpaceOnUse"><stop offset="0" stop-color="#9dd5df"/><stop offset="1" stop-color="#c3e1f5"/></linearGradient><linearGradient id="linear-gradient-3" y1="63" y2="55" xlink:href="#linear-gradient"/><linearGradient id="linear-gradient-4" x1="32" y1="51" x2="32" y2="1" gradientUnits="userSpaceOnUse"><stop offset="0" stop-color="#d4d8e1"/><stop offset="1" stop-color="#f3f4f5"/></linearGradient><linearGradient id="linear-gradient-5" y1="7" y2="1" xlink:href="#linear-gradient"/><linearGradient id="linear-gradient-6" x1="32" y1="31" x2="32" y2="11" gradientUnits="userSpaceOnUse"><stop offset="0" stop-color="#fbcc88"/><stop offset="1" stop-color="#ffe5c3"/></linearGradient><linearGradient id="linear-gradient-7" x1="32" y1="22.82" x2="32" y2="14.64" gradientUnits="userSpaceOnUse"><stop offset="0" stop-color="#7aa8d7"/><stop offset="1" stop-color="#c3d2e7"/></linearGradient><linearGradient id="linear-gradient-8" y1="30.99" y2="22.83" xlink:href="#linear-gradient-7"/><linearGradient id="linear-gradient-9" x1="21" y1="37" x2="43" y2="37" xlink:href="#linear-gradient"/><linearGradient id="linear-gradient-10" x1="21" y1="45" x2="43" y2="45" xlink:href="#linear-gradient"/></defs><title>Registration</title><g id="Registration"><path class="cls-1" d="M8,15a3,3,0,0,0-3,3V55H59V18a3,3,0,0,0-3-3Z"/><path class="cls-2" d="M55,19V51H9V19Z"/><path class="cls-3" d="M55,19v2H9V19Z"/><path class="cls-4" d="M55,49v2H9V49Z"/><path class="cls-5" d="M3,55H61a2,2,0,0,1,2,2v2a4,4,0,0,1-4,4H5a4,4,0,0,1-4-4V57A2,2,0,0,1,3,55Z"/><path class="cls-6" d="M63,57v2a4,4,0,0,1-4,4H5a4,4,0,0,1-4-4V57a4,4,0,0,0,4,4H59A4,4,0,0,0,63,57Z"/><polygon class="cls-7" points="40 58 24 58 22 55 42 55 40 58"/><rect class="cls-6" x="5" y="53" width="54" height="2"/><rect class="cls-8" x="14" y="1" width="36" height="50"/><rect class="cls-9" x="14" y="49" width="36" height="2"/><rect class="cls-10" x="14" y="1" width="36" height="6"/><path class="cls-11" d="M19,4a1,1,0,0,1-2,0A1,1,0,0,1,19,4Z"/><path class="cls-12" d="M23,4a1,1,0,0,1-2,0A1,1,0,0,1,23,4Z"/><path class="cls-13" d="M27,4a1,1,0,0,1-2,0A1,1,0,0,1,27,4Z"/><circle class="cls-14" cx="32" cy="21" r="10"/><path class="cls-15" d="M32,22.82a3.64,3.64,0,0,1-3.64-3.64v-.91a3.64,3.64,0,0,1,7.28,0v.91A3.64,3.64,0,0,1,32,22.82Z"/><path class="cls-16" d="M38.48,28.61a10,10,0,0,1-13,0c.72-2.14.48-1.4.53-1.56a6.3,6.3,0,0,1,11.9,0C38,27.21,37.76,26.47,38.48,28.61Z"/><path class="cls-17" d="M26.05,27.05c-.05.16.19-.58-.53,1.56A10,10,0,0,1,22.05,20,10,10,0,0,0,26.05,27.05Z"/><path class="cls-17" d="M38.48,28.61,38,27.13c-.09-.28,3.47-2.19,4-7.11A10,10,0,0,1,38.48,28.61Z"/><path class="cls-18" d="M38.48,28.61a10,10,0,0,1-13,0c.72-2.14.48-1.4.53-1.56a10.05,10.05,0,0,0,11.9,0C38,27.21,37.76,26.47,38.48,28.61Z"/><rect class="cls-19" x="21" y="35" width="22" height="4"/><rect class="cls-20" x="21" y="43" width="22" height="4"/></g></svg>