<svg xmlns="http://www.w3.org/2000/svg" viewBox="0 0 128 128"><defs><style>.cls-1{fill:#dde1e8;}.cls-2{fill:#c7cdd8;}.cls-3{fill:#7aa8d7;}.cls-4{fill:#5b8dc9;}.cls-5{fill:#f2c4b0;}.cls-6{fill:#eab39b;}.cls-7{fill:#fbcc88;}.cls-8{fill:#f6b756;}</style></defs><title>Reviews</title><g id="Reviews"><path class="cls-1" d="M1,9.13V31.87A8.13,8.13,0,0,0,9.13,40H55.84L64,51l8.16-11h46.71A8.13,8.13,0,0,0,127,31.87V9.13A8.13,8.13,0,0,0,118.87,1H9.13A8.13,8.13,0,0,0,1,9.13Z"/><path class="cls-2" d="M127,26.87v5A8.13,8.13,0,0,1,118.87,40H72.16L64,51,55.84,40H9.13A8.13,8.13,0,0,1,1,31.87v-5A8.13,8.13,0,0,0,9.13,35H118.87A8.13,8.13,0,0,0,127,26.87Z"/><rect class="cls-3" x="27" y="88" width="24" height="39"/><rect class="cls-4" x="27" y="122" width="24" height="5"/><path class="cls-5" d="M51,91.23c12.27-23.3,11-18.58,11-31.85a3.94,3.94,0,0,1,3.94-3.94c5,0,8.9,5,8.9,10.12,0,7.69-2.1,12.44-3.94,17.44H95.56a5.44,5.44,0,0,1,5.51,4.78,5.25,5.25,0,0,1-5.23,5.72,5.25,5.25,0,0,1,5.23,5.72A5.44,5.44,0,0,1,95.56,104h-3.2a5.5,5.5,0,1,1,0,11H90.72a5.5,5.5,0,1,1,0,11H60.13a11.89,11.89,0,0,1-9-4.15c-.17-.2-.11,1.79-.11-27.85"/><path class="cls-6" d="M95.85,118.53A5.47,5.47,0,0,1,90.67,126H60.13a11.89,11.89,0,0,1-9-4.15c-.16-.19-.11.33-.11-4.13A11.9,11.9,0,0,0,60.13,122H90.67A5.49,5.49,0,0,0,95.85,118.53Z"/><polygon class="cls-7" points="64 11 67.03 17.14 73.81 18.13 68.91 22.91 70.06 29.66 64 26.48 57.94 29.66 59.09 22.91 54.19 18.13 60.97 17.14 64 11"/><polygon class="cls-7" points="88 11 91.03 17.14 97.81 18.13 92.91 22.91 94.06 29.66 88 26.48 81.94 29.66 83.09 22.91 78.19 18.13 84.97 17.14 88 11"/><polygon class="cls-7" points="112 11 115.03 17.14 121.81 18.13 116.91 22.91 118.06 29.66 112 26.48 105.94 29.66 107.09 22.91 102.19 18.13 108.97 17.14 112 11"/><polygon class="cls-7" points="40 11 43.03 17.14 49.81 18.13 44.91 22.91 46.06 29.66 40 26.48 33.94 29.66 35.09 22.91 30.19 18.13 36.97 17.14 40 11"/><polygon class="cls-7" points="16 11 19.03 17.14 25.81 18.13 20.91 22.91 22.06 29.66 16 26.48 9.94 29.66 11.09 22.91 6.19 18.13 12.97 17.14 16 11"/><path class="cls-8" d="M21,23.63l1,6L16,26.48,9.94,29.66l1-6A9.9,9.9,0,0,0,21,23.63Z"/><path class="cls-8" d="M45,23.63l1,6L40,26.48l-6.06,3.18,1-6A9.9,9.9,0,0,0,45,23.63Z"/><path class="cls-8" d="M69,23.63l1,6L64,26.48l-6.06,3.18,1-6A9.9,9.9,0,0,0,69,23.63Z"/><path class="cls-8" d="M93,23.63l1,6L88,26.48l-6.06,3.18,1-6A9.9,9.9,0,0,0,93,23.63Z"/><path class="cls-8" d="M117,23.63l1,6L112,26.48l-6.06,3.18,1-6A9.9,9.9,0,0,0,117,23.63Z"/></g></svg>