<svg xmlns="http://www.w3.org/2000/svg" xmlns:xlink="http://www.w3.org/1999/xlink" viewBox="0 0 64 64"><defs><style>.cls-1{fill:#aae0e5;}.cls-2{fill:url(#linear-gradient);}.cls-3{fill:#c7cdd8;}.cls-4{fill:url(#linear-gradient-2);}.cls-5{fill:url(#linear-gradient-3);}.cls-6{fill:url(#linear-gradient-4);}.cls-7{fill:url(#linear-gradient-5);}.cls-8{fill:url(#linear-gradient-6);}.cls-9{fill:url(#linear-gradient-7);}.cls-10{fill:#42455e;}.cls-11{fill:url(#linear-gradient-8);}.cls-12{fill:#adb3c4;}</style><linearGradient id="linear-gradient" x1="32" y1="35" x2="32" y2="1" gradientUnits="userSpaceOnUse"><stop offset="0" stop-color="#d4d8e1"/><stop offset="1" stop-color="#f3f4f5"/></linearGradient><linearGradient id="linear-gradient-2" x1="32" y1="63" x2="32" y2="59" gradientUnits="userSpaceOnUse"><stop offset="0" stop-color="#7aa8d7"/><stop offset="1" stop-color="#c3d2e7"/></linearGradient><linearGradient id="linear-gradient-3" x1="18" x2="18" xlink:href="#linear-gradient-2"/><linearGradient id="linear-gradient-4" x1="46" x2="46" xlink:href="#linear-gradient-2"/><linearGradient id="linear-gradient-5" x1="61" x2="61" xlink:href="#linear-gradient-2"/><linearGradient id="linear-gradient-6" x1="3" x2="3" xlink:href="#linear-gradient-2"/><linearGradient id="linear-gradient-7" x1="32" y1="43" x2="32" y2="15" gradientUnits="userSpaceOnUse"><stop offset="0" stop-color="#474f72"/><stop offset="1" stop-color="#878c9f"/></linearGradient><linearGradient id="linear-gradient-8" x1="32" y1="33.67" x2="32" y2="24.33" gradientUnits="userSpaceOnUse"><stop offset="0" stop-color="#a0a6ba"/><stop offset="1" stop-color="#c6ccda"/></linearGradient></defs><title>SaaS</title><g id="SaaS"><path class="cls-1" d="M31,59V43a1,1,0,0,1,2,0V59A1,1,0,0,1,31,59Z"/><path class="cls-1" d="M2,59V50a1,1,0,0,1,1-1H20V37.94a1,1,0,0,1,2,0V50a1,1,0,0,1-1,1H4v8A1,1,0,0,1,2,59Z"/><path class="cls-1" d="M60,59V51H43a1,1,0,0,1-1-1V37.94a1,1,0,0,1,2,0V49H61a1,1,0,0,1,1,1v9A1,1,0,0,1,60,59Z"/><path class="cls-1" d="M17,59V55a1,1,0,0,1,1-1h7V38.21a1,1,0,0,1,2,0V55a1,1,0,0,1-1,1H19v3A1,1,0,0,1,17,59Z"/><path class="cls-1" d="M45,59V56H38a1,1,0,0,1-1-1V38.21a1,1,0,0,1,2,0V54h7a1,1,0,0,1,1,1v4A1,1,0,0,1,45,59Z"/><path class="cls-2" d="M52,19.26a7,7,0,0,0-8.29-7.13A14,14,0,0,0,16,15a10,10,0,0,0,0,20H50a8,8,0,0,0,2-15.74Z"/><path class="cls-3" d="M50,35H16A10,10,0,0,1,6.05,24a10,10,0,0,0,10,9H50a8,8,0,0,0,7.93-7A8,8,0,0,1,50,35Z"/><circle class="cls-4" cx="32" cy="61" r="2"/><circle class="cls-5" cx="18" cy="61" r="2"/><circle class="cls-6" cx="46" cy="61" r="2"/><circle class="cls-7" cx="61" cy="61" r="2"/><circle class="cls-8" cx="3" cy="61" r="2"/><path class="cls-9" d="M42.66,26.31l3-1.71-3-5.2-3,1.71A11.06,11.06,0,0,0,35,18.42V15H29v3.42a11.06,11.06,0,0,0-4.66,2.69l-3-1.71-3,5.2,3,1.71a10.89,10.89,0,0,0,0,5.38l-3,1.71,3,5.2,3-1.71A11.06,11.06,0,0,0,29,39.58V43h6V39.58a11.06,11.06,0,0,0,4.66-2.69l3,1.71,3-5.2-3-1.71A10.89,10.89,0,0,0,42.66,26.31Z"/><path class="cls-10" d="M29,39.58a11.06,11.06,0,0,1-4.66-2.69l-3,1.71-3-5.2.87-.5,2.13,3.7,3-1.71A11.06,11.06,0,0,0,29,37.58Z"/><rect class="cls-10" x="29" y="41" width="6" height="2"/><path class="cls-10" d="M44.75,32.9l.87.5-3,5.2-3-1.71A11.06,11.06,0,0,1,35,39.58v-2a11.06,11.06,0,0,0,4.66-2.69l3,1.71Z"/><circle class="cls-11" cx="32" cy="29" r="4.67"/><path class="cls-12" d="M36.56,30a4.67,4.67,0,0,0-9.12,0,4.67,4.67,0,1,1,9.12,0Z"/></g></svg>