<svg xmlns="http://www.w3.org/2000/svg" xmlns:xlink="http://www.w3.org/1999/xlink" viewBox="0 0 64 64"><defs><style>.cls-1{fill:#8288a1;}.cls-2{fill:url(#linear-gradient);}.cls-3{fill:url(#linear-gradient-2);}.cls-4{fill:#dd8b37;}.cls-5{fill:url(#linear-gradient-3);}.cls-6{fill:url(#linear-gradient-4);}.cls-7{fill:url(#linear-gradient-5);}.cls-8{fill:url(#linear-gradient-6);}.cls-9{fill:url(#linear-gradient-7);}.cls-10{fill:url(#linear-gradient-8);}.cls-11{fill:url(#linear-gradient-9);}.cls-12{fill:url(#linear-gradient-10);}.cls-13{fill:url(#linear-gradient-11);}.cls-14{fill:#77cacb;}.cls-15{fill:url(#linear-gradient-12);}.cls-16{fill:#42455e;}.cls-17{fill:#cf4055;}.cls-18{fill:#575f7c;}</style><linearGradient id="linear-gradient" x1="61" y1="24.98" x2="61" y2="17.02" gradientUnits="userSpaceOnUse"><stop offset="0" stop-color="#e9a254"/><stop offset="1" stop-color="#f4bb79"/></linearGradient><linearGradient id="linear-gradient-2" x1="3" y1="24.98" x2="3" y2="17.02" xlink:href="#linear-gradient"/><linearGradient id="linear-gradient-3" x1="32" y1="32.05" x2="32" y2="1" xlink:href="#linear-gradient"/><linearGradient id="linear-gradient-4" x1="32" y1="49" x2="32" y2="29" xlink:href="#linear-gradient"/><linearGradient id="linear-gradient-5" x1="32" y1="55" x2="32" y2="49" gradientUnits="userSpaceOnUse"><stop offset="0" stop-color="#949aaf"/><stop offset="1" stop-color="#c6ccda"/></linearGradient><linearGradient id="linear-gradient-6" x1="10" y1="63" x2="10" y2="55" gradientUnits="userSpaceOnUse"><stop offset="0" stop-color="#474f72"/><stop offset="1" stop-color="#878c9f"/></linearGradient><linearGradient id="linear-gradient-7" x1="54" x2="54" xlink:href="#linear-gradient-6"/><linearGradient id="linear-gradient-8" x1="32" y1="49" x2="32" y2="37" xlink:href="#linear-gradient-6"/><linearGradient id="linear-gradient-9" x1="12" y1="45" x2="12" y2="39" gradientUnits="userSpaceOnUse"><stop offset="0" stop-color="#d4d8e1"/><stop offset="1" stop-color="#f3f4f5"/></linearGradient><linearGradient id="linear-gradient-10" x1="52" x2="52" xlink:href="#linear-gradient-9"/><linearGradient id="linear-gradient-11" x1="32" y1="29" x2="32" y2="13" gradientUnits="userSpaceOnUse"><stop offset="0" stop-color="#9dd5df"/><stop offset="1" stop-color="#c3e1f5"/></linearGradient><linearGradient id="linear-gradient-12" x1="32" y1="9" x2="32" y2="5" xlink:href="#linear-gradient-9"/></defs><title>School Bus</title><g id="School_Bus" data-name="School Bus"><path class="cls-1" d="M60,17V15a1,1,0,0,0-1-1H55a1,1,0,0,1,0-2h4a3,3,0,0,1,3,3v2A1,1,0,0,1,60,17Z"/><path class="cls-1" d="M2,17V15a3,3,0,0,1,3-3H9a1,1,0,0,1,0,2H5a1,1,0,0,0-1,1v2A1,1,0,0,1,2,17Z"/><path class="cls-2" d="M59,23V19a2,2,0,0,1,4,0v4A2,2,0,0,1,59,23Z"/><path class="cls-3" d="M5,23V19a2,2,0,0,0-4,0v4A2,2,0,0,0,5,23Z"/><path class="cls-4" d="M63,21v2a2,2,0,0,1-4,0V21a2,2,0,0,0,4,0Z"/><path class="cls-4" d="M5,21v2a2,2,0,0,1-4,0V21a2,2,0,0,0,4,0Z"/><path class="cls-5" d="M55,13v19H9V13C9,5,18.75,1,32,1S55,5,55,13Z"/><path class="cls-4" d="M55,28.32v3.73H9V28.32A14.86,14.86,0,0,1,17,26H47A14.86,14.86,0,0,1,55,28.32Z"/><path class="cls-6" d="M17,29H47A12,12,0,0,1,59,41v8a0,0,0,0,1,0,0H5a0,0,0,0,1,0,0V41A12,12,0,0,1,17,29Z"/><rect class="cls-7" x="4" y="49" width="56" height="6"/><rect class="cls-1" x="4" y="53" width="56" height="2"/><rect class="cls-4" x="5" y="47" width="54" height="2"/><path class="cls-8" d="M6,55h8a0,0,0,0,1,0,0v6a2,2,0,0,1-2,2H8a2,2,0,0,1-2-2V55A0,0,0,0,1,6,55Z"/><path class="cls-9" d="M50,55h8a0,0,0,0,1,0,0v6a2,2,0,0,1-2,2H52a2,2,0,0,1-2-2V55A0,0,0,0,1,50,55Z"/><rect class="cls-10" x="19" y="37" width="26" height="12"/><circle class="cls-11" cx="12" cy="42" r="3"/><circle class="cls-12" cx="52" cy="42" r="3"/><rect class="cls-13" x="13" y="13" width="38" height="16"/><rect class="cls-14" x="31" y="13" width="2" height="16"/><rect class="cls-15" x="27" y="5" width="10" height="4"/><rect class="cls-16" x="25" y="37" width="2" height="12"/><rect class="cls-16" x="37" y="37" width="2" height="12"/><rect class="cls-16" x="19" y="39" width="26" height="2"/><rect class="cls-16" x="19" y="44" width="26" height="2"/><path class="cls-17" d="M43,9a2,2,0,1,1,2-2A2,2,0,0,1,43,9Zm0-2Z"/><path class="cls-17" d="M21,9a2,2,0,1,1,2-2A2,2,0,0,1,21,9Zm0-2h0Zm0,0h0Zm0,0h0Zm0,0h0Zm0,0h0Zm0,0h0Zm0,0h0Zm0,0h0Z"/><rect class="cls-18" x="6" y="55" width="8" height="3"/><rect class="cls-18" x="50" y="55" width="8" height="3"/><path class="cls-14" d="M51,26.55V29H13V26.55A14.69,14.69,0,0,1,17,26C49.77,26,48.37,25.8,51,26.55Z"/></g></svg>