<svg xmlns="http://www.w3.org/2000/svg" xmlns:xlink="http://www.w3.org/1999/xlink" viewBox="0 0 64 64"><defs><style>.cls-1{fill:#42455e;}.cls-2{fill:url(#linear-gradient);}.cls-3{fill:#c7cdd8;}.cls-4{fill:url(#linear-gradient-2);}.cls-5{fill:url(#linear-gradient-3);}.cls-6{fill:url(#linear-gradient-4);}.cls-7{fill:#5b8dc9;}.cls-8{fill:url(#linear-gradient-5);}.cls-9{fill:#dfe3ea;}.cls-10{fill:url(#linear-gradient-6);}.cls-11{fill:url(#linear-gradient-7);}.cls-12{fill:#8a6762;}.cls-13{fill:url(#linear-gradient-8);}.cls-14{fill:#77cacb;}.cls-15{fill:url(#linear-gradient-9);}.cls-16{fill:url(#linear-gradient-10);}.cls-17{fill:#f6b756;}.cls-18{fill:url(#linear-gradient-11);}</style><linearGradient id="linear-gradient" x1="51" y1="58" x2="51" y2="38" gradientUnits="userSpaceOnUse"><stop offset="0" stop-color="#d4d8e1"/><stop offset="1" stop-color="#f3f4f5"/></linearGradient><linearGradient id="linear-gradient-2" x1="13" x2="13" xlink:href="#linear-gradient"/><linearGradient id="linear-gradient-3" x1="32" y1="60" x2="32" y2="56" gradientUnits="userSpaceOnUse"><stop offset="0" stop-color="#474f72"/><stop offset="1" stop-color="#878c9f"/></linearGradient><linearGradient id="linear-gradient-4" x1="32" y1="38" x2="32" y2="24" gradientUnits="userSpaceOnUse"><stop offset="0" stop-color="#7aa8d7"/><stop offset="1" stop-color="#c3d2e7"/></linearGradient><linearGradient id="linear-gradient-5" x1="32" y1="56" x2="32" y2="19" xlink:href="#linear-gradient"/><linearGradient id="linear-gradient-6" y1="29" y2="15" xlink:href="#linear-gradient-4"/><linearGradient id="linear-gradient-7" x1="32" y1="56" x2="32" y2="48" gradientUnits="userSpaceOnUse"><stop offset="0" stop-color="#9b756d"/><stop offset="1" stop-color="#bc9388"/></linearGradient><linearGradient id="linear-gradient-8" x1="51" y1="49" x2="51" y2="44" gradientUnits="userSpaceOnUse"><stop offset="0" stop-color="#9dd5df"/><stop offset="1" stop-color="#c3e1f5"/></linearGradient><linearGradient id="linear-gradient-9" x1="13" x2="13" xlink:href="#linear-gradient-8"/><linearGradient id="linear-gradient-10" x1="32" y1="38" x2="32" y2="30" gradientUnits="userSpaceOnUse"><stop offset="0" stop-color="#fbcc88"/><stop offset="1" stop-color="#ffe5c3"/></linearGradient><linearGradient id="linear-gradient-11" x1="35.5" y1="10" x2="35.5" y2="4" gradientUnits="userSpaceOnUse"><stop offset="0" stop-color="#da5466"/><stop offset="1" stop-color="#f4929c"/></linearGradient></defs><title>Shcool</title><g id="Shcool"><path class="cls-1" d="M33,4V17a1,1,0,0,1-2,0V4Z"/><polygon class="cls-2" points="42 56 42 38 60 38 60 58 45 58 42 56"/><rect class="cls-3" x="42" y="55" width="18" height="3"/><polyline class="cls-4" points="22 56 22 38 4 38 4 58 19 58"/><rect class="cls-3" x="4" y="55" width="18" height="3"/><rect class="cls-5" x="19" y="56" width="26" height="4"/><path class="cls-6" d="M63,38H1c2.27-4,.67-1.18,8-14H55C62.41,37,60.77,34.08,63,38Z"/><polygon class="cls-7" points="63 38 1 38 2.71 35 61.29 35 63 38"/><polygon class="cls-8" points="42 27 42 56 22 56 22 27 32 19 42 27"/><path class="cls-9" d="M42,27v4c-.74,0,.54.94-10-8.34C21.47,31.93,22.74,31,22,31V27l10-8Z"/><polygon class="cls-10" points="48 29 42.23 29 32 20 21.77 29 16 29 32 15 48 29"/><rect class="cls-11" x="27" y="48" width="10" height="8"/><rect class="cls-12" x="31" y="48" width="2" height="8"/><rect class="cls-13" x="46" y="44" width="10" height="5"/><rect class="cls-14" x="50" y="44" width="2" height="5"/><rect class="cls-15" x="8" y="44" width="10" height="5"/><rect class="cls-14" x="12" y="44" width="2" height="5"/><circle class="cls-16" cx="32" cy="34" r="4"/><path class="cls-17" d="M32,38a4,4,0,0,1-3.87-5,4,4,0,0,0,7.74,0A4,4,0,0,1,32,38Z"/><rect class="cls-9" x="4" y="38" width="18" height="3"/><rect class="cls-9" x="42" y="38" width="18" height="3"/><rect class="cls-18" x="31" y="4" width="9" height="6"/></g></svg>