<svg xmlns="http://www.w3.org/2000/svg" viewBox="0 0 128 128"><defs><style>.cls-1{fill:#dde1e8;}.cls-2{fill:#c7cdd8;}.cls-3{fill:#9b756d;}.cls-4{fill:#949aaf;}.cls-5{fill:#8288a1;}.cls-6{fill:#d1a788;}.cls-7{fill:#9dd5df;}.cls-8{fill:#77cacb;}</style></defs><title>Searching</title><g id="Searching"><path class="cls-1" d="M117,1a10,10,0,0,0-10,10V117a10,10,0,0,1-20,0v-8H21V11A10,10,0,0,1,31,1Z"/><path class="cls-2" d="M107,91v15.78a2.44,2.44,0,0,1-.71-.49C84.26,84.26,85,85.43,85,84a2.48,2.48,0,0,1,.88-1.88l-5-5a27,27,0,1,1,4.24-4.24l5,5A2.41,2.41,0,0,1,92,77C93.44,77,92.77,76.77,107,91Z"/><rect class="cls-3" x="82" y="68.76" width="6" height="8.49" transform="translate(-26.72 81.49) rotate(-45)"/><circle class="cls-4" cx="64" cy="52" r="27"/><path class="cls-5" d="M83.09,71.09C65.55,88.64,35.68,75.06,37,50.5c1.26,23,29.42,34.23,46.05,17.59A26.88,26.88,0,0,0,91,50.5,26.9,26.9,0,0,1,83.09,71.09Z"/><path class="cls-6" d="M108,103a2.41,2.41,0,0,0,1.71-.71c4.77-4.77,5.29-5,5.29-6.29a2.41,2.41,0,0,0-.71-1.71C92.27,72.27,93.43,73,92,73a2.41,2.41,0,0,0-1.71.71C85.52,78.48,85,78.66,85,80a2.41,2.41,0,0,0,.71,1.71C107.73,103.73,106.57,103,108,103Z"/><path class="cls-4" d="M127,11v8H107V11a10,10,0,0,1,20,0Z"/><path class="cls-4" d="M97,127H11A10,10,0,0,1,1,117v-8H87v8A10,10,0,0,0,97,127Z"/><rect class="cls-5" x="107" y="15" width="20" height="4"/><path class="cls-5" d="M97,127H11a10,10,0,0,1-8-4H89A10,10,0,0,0,97,127Z"/><circle class="cls-7" cx="64" cy="52" r="21"/><path class="cls-8" d="M84.9,54c-1.63-17.34-23-25.56-35.75-12.84A20.85,20.85,0,0,0,43.1,54a20.91,20.91,0,0,1,6-16.84C63.09,23.21,86.77,34.54,84.9,54Z"/></g></svg>