<svg xmlns="http://www.w3.org/2000/svg" viewBox="0 0 128 128"><defs><style>.cls-1{fill:#dde1e8;}.cls-2{fill:#c7cdd8;}.cls-3{fill:#ffe5c3;}</style></defs><title>Sent Message</title><g id="Sent_Message" data-name="Sent Message"><path class="cls-1" d="M127,33c-2.66,16.52-9.21,57.12-10,62H36c.31-1.87-1.25,7.79,10-62Z"/><path class="cls-2" d="M127,33C86.31,65.8,88.6,64.33,85.8,65.31a12.09,12.09,0,0,1-12.89-3.19L46,33h5.62C76.33,59.74,74.81,58.6,77.94,60a12.1,12.1,0,0,0,12.43-1.66L121.8,33Z"/><path class="cls-2" d="M74.65,64.32,37.6,95H36l.25-1.53L73.34,62.75A1,1,0,0,1,74.65,64.32Z"/><path class="cls-2" d="M117.21,93.71,117,95h-1.37L88,64.45a1,1,0,0,1,1.52-1.36Z"/><path class="cls-3" d="M25,64H2a1,1,0,0,1,0-2H25A1,1,0,0,1,25,64Z"/><path class="cls-3" d="M38,43H20a1,1,0,0,1,0-2H38A1,1,0,0,1,38,43Z"/><path class="cls-3" d="M69,23H13a1,1,0,0,1,0-2H69A1,1,0,0,1,69,23Z"/><path class="cls-3" d="M62,107H54a1,1,0,0,1,0-2h8A1,1,0,0,1,62,107Z"/><path class="cls-3" d="M48,107H13a1,1,0,0,1,0-2H48A1,1,0,0,1,48,107Z"/><path class="cls-3" d="M21,86H8a1,1,0,0,1,0-2H21A1,1,0,0,1,21,86Z"/><path class="cls-3" d="M29,86H27a1,1,0,0,1,0-2h2A1,1,0,0,1,29,86Z"/><path class="cls-3" d="M15,43H13a1,1,0,0,1,0-2h2A1,1,0,0,1,15,43Z"/><path class="cls-2" d="M117.65,91c-.53,3.28-.38,2.36-.65,4H36c.32-1.93.17-1,.65-4Z"/></g></svg>