<svg xmlns="http://www.w3.org/2000/svg" xmlns:xlink="http://www.w3.org/1999/xlink" viewBox="0 0 64 64"><defs><style>.cls-1{fill:url(#linear-gradient);}.cls-2{fill:#42455e;}.cls-3{fill:url(#linear-gradient-2);}.cls-4{fill:#cf4055;}.cls-5{fill:url(#linear-gradient-3);}.cls-6{fill:#aae0e5;}.cls-7{fill:url(#linear-gradient-4);}.cls-8{fill:url(#linear-gradient-5);}.cls-9{fill:#dd8b37;}.cls-10{fill:#fff2e3;}</style><linearGradient id="linear-gradient" x1="32" y1="63" x2="32" y2="1" gradientUnits="userSpaceOnUse"><stop offset="0" stop-color="#474f72"/><stop offset="1" stop-color="#878c9f"/></linearGradient><linearGradient id="linear-gradient-2" x1="37.5" y1="63" x2="37.5" y2="12" gradientUnits="userSpaceOnUse"><stop offset="0" stop-color="#da5466"/><stop offset="1" stop-color="#f4929c"/></linearGradient><linearGradient id="linear-gradient-3" x1="32" y1="47" x2="32" y2="17" gradientUnits="userSpaceOnUse"><stop offset="0" stop-color="#9dd5df"/><stop offset="1" stop-color="#c3e1f5"/></linearGradient><linearGradient id="linear-gradient-4" x1="32" y1="43" x2="32" y2="21" gradientUnits="userSpaceOnUse"><stop offset="0" stop-color="#fbcc88"/><stop offset="1" stop-color="#ffe5c3"/></linearGradient><linearGradient id="linear-gradient-5" x1="32" y1="41" x2="32" y2="23" gradientUnits="userSpaceOnUse"><stop offset="0" stop-color="#e9a254"/><stop offset="1" stop-color="#f4bb79"/></linearGradient></defs><title>SEO</title><g id="SEO"><path class="cls-1" d="M57.19,25.54l5.16-3-7-12.12-5.17,3A26,26,0,0,0,39,7V1H25V7a26,26,0,0,0-11.18,6.46l-5.17-3-7,12.12,5.16,3a26,26,0,0,0,0,12.92l-5.16,3,7,12.12,5.17-3A26,26,0,0,0,25,57v6H39V57a26,26,0,0,0,11.18-6.46l5.17,3,7-12.12-5.16-3A26,26,0,0,0,57.19,25.54Z"/><path class="cls-2" d="M57.19,38.46l5.16,3-7,12.12-5.17-3A26,26,0,0,1,39,57v6H25V57a26,26,0,0,1-11.18-6.46l-5.17,3-7-12.12,5.16-3a26.45,26.45,0,0,1-.77-8A26,26,0,0,0,58,30.5,26.19,26.19,0,0,1,57.19,38.46Z"/><path class="cls-3" d="M63,60.17A2.83,2.83,0,0,1,60.17,63c-1.61,0-1,.18-16.17-15-12.93,9.71-32,.71-32-16A20,20,0,0,1,32,12c16.68,0,25.73,19.06,16,32C63.13,59.13,63,58.55,63,60.17Z"/><path class="cls-4" d="M60.17,63c-1.61,0-1,.18-16.17-15-13.53,10.17-33-.28-32-17,.81,16.1,19.34,24.46,32,15L58.17,60.17a2.83,2.83,0,0,0,4.64-1A2.83,2.83,0,0,1,60.17,63Z"/><circle class="cls-5" cx="32" cy="32" r="15"/><path class="cls-6" d="M47,33A15,15,0,0,0,17,33,15,15,0,1,1,47,33Z"/><circle class="cls-7" cx="32" cy="32" r="11"/><circle class="cls-8" cx="32" cy="32" r="9"/><path class="cls-9" d="M40.94,33a9,9,0,0,0-17.88,0,9,9,0,1,1,17.88,0Z"/><path class="cls-10" d="M33,31H31a1,1,0,0,1,0-2h4a1,1,0,0,0,0-2H33V26a1,1,0,0,0-2,0v1a3,3,0,0,0,0,6h2a1,1,0,0,1,0,2H29a1,1,0,0,0,0,2h2v1a1,1,0,0,0,2,0V37a3,3,0,0,0,0-6Z"/></g></svg>