<svg xmlns="http://www.w3.org/2000/svg" viewBox="0 0 128 128"><defs><style>.cls-1{fill:#949aaf;}.cls-2{fill:#8288a1;}.cls-3{fill:#d6ac90;}.cls-4{fill:#cba07a;}.cls-5{fill:#fbcc88;}.cls-6{fill:#f6b756;}.cls-7{fill:#7aa8d7;}.cls-8{fill:#5b8dc9;}.cls-9{fill:#9dd5df;}.cls-10{fill:#77cacb;}.cls-11{fill:#c7cdd8;}.cls-12{fill:#454b60;}.cls-13{fill:#c6ccda;}.cls-14{fill:#42455e;}.cls-15{fill:#adb3c4;}.cls-16{fill:#8cdd79;}.cls-17{fill:#7ece67;}.cls-18{fill:#fff;}</style></defs><title>Shipping</title><g id="Shipping"><path class="cls-1" d="M83,105V85H1v20Z"/><path class="cls-2" d="M83,105v-5H1v5Z"/><rect class="cls-3" x="1" y="11" width="82" height="74"/><rect class="cls-4" x="1" y="81" width="82" height="4"/><polygon class="cls-5" points="54 11 54 25 50 23 46.01 25 42.01 23 38 25 34.01 23 30 25 30 11 54 11"/><polygon class="cls-6" points="54 22 54 25 50 23 46.01 25 42.01 23 38 25 34.01 23 30 25 30 22 34.01 20 38 22 42.01 20 46.01 22 50 20 54 22"/><path class="cls-7" d="M127,74.56V105H83V36h27.23a6.12,6.12,0,0,1,5.85,4.26C116.67,42.13,127,74.46,127,74.56Z"/><path class="cls-8" d="M127,105v-5H83v5Z"/><path class="cls-9" d="M126.82,74H94V44c25,0,23.24-.07,23.3.12C126.66,73.48,125,68.32,126.82,74Z"/><polygon class="cls-10" points="126.82 74 94 74 94 70 125.55 70 126.82 74"/><path class="cls-11" d="M99,83H94a1,1,0,0,1,0-2h5A1,1,0,0,1,99,83Z"/><circle class="cls-12" cx="103" cy="105" r="12"/><circle class="cls-13" cx="103" cy="105" r="6"/><circle class="cls-12" cx="27" cy="105" r="12"/><path class="cls-14" d="M103,117a12,12,0,0,1-11.9-13.5,12,12,0,0,0,23.8,0A12,12,0,0,1,103,117Z"/><path class="cls-14" d="M27,117a12,12,0,0,1-11.9-13.5,12,12,0,0,0,23.8,0A12,12,0,0,1,27,117Z"/><circle class="cls-13" cx="27" cy="105" r="6"/><path class="cls-15" d="M108.81,106.5a6,6,0,0,0-11.61,0,6,6,0,1,1,11.61,0Z"/><path class="cls-15" d="M32.81,106.5a6,6,0,0,0-11.61,0,6,6,0,1,1,11.61,0Z"/><path class="cls-5" d="M123,84h4a0,0,0,0,1,0,0V96a0,0,0,0,1,0,0h-4a2,2,0,0,1-2-2V86A2,2,0,0,1,123,84Z"/><path class="cls-6" d="M127,93v3h-4a2,2,0,0,1-2-2V91a2,2,0,0,0,2,2Z"/><circle class="cls-16" cx="42" cy="55" r="23"/><path class="cls-17" d="M42,78A23,23,0,0,1,19.09,53a23,23,0,0,0,45.82,0A23,23,0,0,1,42,78Z"/><path class="cls-18" d="M38,64c-.59,0-.08.34-8.72-8.3a1,1,0,0,1,1.44-1.44L38,61.56,53.28,46.28a1,1,0,0,1,1.44,1.44C37.21,65.23,38.6,64,38,64Z"/></g></svg>