<svg xmlns="http://www.w3.org/2000/svg" viewBox="0 0 128 128"><defs><style>.cls-1{fill:#fbcc88;}.cls-2{fill:#f6b756;}.cls-3{fill:#7aa8d7;}.cls-4{fill:#5b8dc9;}.cls-5{fill:#dde1e8;}.cls-6{fill:#c7cdd8;}.cls-7{fill:#8cdd79;}.cls-8{fill:#e2607f;}.cls-9{fill:#7ece67;}.cls-10{fill:#dd4e6a;}</style></defs><title>Sign Up</title><g id="Sign_Up" data-name="Sign Up"><path class="cls-1" d="M84.56,57.5h0C63.92,74.94,32,60.2,32,33A32,32,0,0,1,64,1C93.91,1,107.3,38.45,84.56,57.5Z"/><path class="cls-2" d="M84.56,57.5h0C63.1,75.66,29.51,58.9,32.14,30a32,32,0,0,0,63.72,0A31.89,31.89,0,0,1,84.56,57.5Z"/><path class="cls-3" d="M84.53,57.51a31.86,31.86,0,0,1-41.06,0C49.35,32.81,78.65,32.84,84.53,57.51Z"/><circle class="cls-3" cx="64" cy="27" r="12"/><path class="cls-4" d="M64,39A12,12,0,0,1,52.17,25a12,12,0,0,0,23.66,0A12,12,0,0,1,64,39Z"/><rect class="cls-5" x="25" y="94" width="78" height="14"/><rect class="cls-5" x="25" y="72" width="78" height="14"/><rect class="cls-6" x="25" y="82" width="78" height="4"/><rect class="cls-6" x="25" y="104" width="78" height="4"/><path class="cls-7" d="M49.5,127h-11a5.5,5.5,0,0,1,0-11h11a5.5,5.5,0,0,1,0,11Z"/><path class="cls-8" d="M89.5,127h-11a5.5,5.5,0,0,1,0-11h11a5.5,5.5,0,0,1,0,11Z"/><path class="cls-9" d="M49.5,127h-11a5.5,5.5,0,0,1-5.29-7,5.49,5.49,0,0,0,5.29,4h11a5.49,5.49,0,0,0,5.29-4A5.5,5.5,0,0,1,49.5,127Z"/><path class="cls-10" d="M89.5,127h-11a5.5,5.5,0,0,1-5.29-7,5.49,5.49,0,0,0,5.29,4h11a5.49,5.49,0,0,0,5.29-4A5.5,5.5,0,0,1,89.5,127Z"/><path class="cls-4" d="M84.53,57.51a31.86,31.86,0,0,1-41.06,0A29.28,29.28,0,0,1,45,52.74a31.86,31.86,0,0,0,37.94,0A29.28,29.28,0,0,1,84.53,57.51Z"/></g></svg>