<svg xmlns="http://www.w3.org/2000/svg" xmlns:xlink="http://www.w3.org/1999/xlink" viewBox="0 0 64 64"><defs><style>.cls-1{fill:url(#linear-gradient);}.cls-2{fill:#c7cdd8;}.cls-3{fill:url(#linear-gradient-2);}.cls-4{fill:url(#linear-gradient-3);}.cls-5{fill:#cf4055;}.cls-6{fill:#f6b756;}.cls-7{fill:#7ece67;}.cls-8{fill:#9ca0ad;}.cls-9{fill:url(#linear-gradient-4);}.cls-10{fill:url(#linear-gradient-5);}.cls-11{fill:#42455e;}.cls-12{fill:#d7f1ff;}.cls-13{fill:url(#linear-gradient-6);}.cls-14{fill:#fff2e3;}.cls-15{fill:#5b8dc9;}</style><linearGradient id="linear-gradient" x1="32" y1="52" x2="32" y2="1" gradientUnits="userSpaceOnUse"><stop offset="0" stop-color="#d4d8e1"/><stop offset="1" stop-color="#f3f4f5"/></linearGradient><linearGradient id="linear-gradient-2" x1="48.5" y1="63" x2="48.5" y2="33" gradientUnits="userSpaceOnUse"><stop offset="0" stop-color="#474f72"/><stop offset="1" stop-color="#878c9f"/></linearGradient><linearGradient id="linear-gradient-3" x1="32" y1="9" x2="32" y2="1" gradientUnits="userSpaceOnUse"><stop offset="0" stop-color="#a0a6ba"/><stop offset="1" stop-color="#c6ccda"/></linearGradient><linearGradient id="linear-gradient-4" x1="32" y1="50" x2="32" y2="23" xlink:href="#linear-gradient-2"/><linearGradient id="linear-gradient-5" x1="15.5" x2="15.5" xlink:href="#linear-gradient-2"/><linearGradient id="linear-gradient-6" x1="32" y1="63" x2="32" y2="42" gradientUnits="userSpaceOnUse"><stop offset="0" stop-color="#7aa8d7"/><stop offset="1" stop-color="#c3d2e7"/></linearGradient></defs><title>Software Compenies</title><g id="Software_Compenies" data-name="Software Compenies"><path class="cls-1" d="M63,52V1H1V52Z"/><path class="cls-2" d="M63,52V50H1v2Z"/><rect class="cls-3" x="42" y="33" width="13" height="30"/><rect class="cls-4" x="1" y="1" width="62" height="8"/><path class="cls-5" d="M7,5A1,1,0,0,1,5,5,1,1,0,0,1,7,5Z"/><path class="cls-6" d="M12,5a1,1,0,0,1-2,0A1,1,0,0,1,12,5Z"/><path class="cls-7" d="M17,5a1,1,0,0,1-2,0A1,1,0,0,1,17,5Z"/><rect class="cls-8" x="24" y="19" width="16" height="4"/><rect class="cls-9" x="22" y="23" width="20" height="27"/><rect class="cls-10" x="9" y="33" width="13" height="30"/><rect class="cls-11" x="9" y="61" width="13" height="2"/><rect class="cls-11" x="42" y="61" width="13" height="2"/><path class="cls-12" d="M31,30V28a1,1,0,0,1,2,0v2A1,1,0,0,1,31,30Z"/><path class="cls-12" d="M36,30V28a1,1,0,0,1,2,0v2A1,1,0,0,1,36,30Z"/><path class="cls-12" d="M26,30V28a1,1,0,0,1,2,0v2A1,1,0,0,1,26,30Z"/><path class="cls-12" d="M31,37V35a1,1,0,0,1,2,0v2A1,1,0,0,1,31,37Z"/><path class="cls-12" d="M36,37V35a1,1,0,0,1,2,0v2A1,1,0,0,1,36,37Z"/><path class="cls-12" d="M26,37V35a1,1,0,0,1,2,0v2A1,1,0,0,1,26,37Z"/><path class="cls-12" d="M18,39H13a1,1,0,0,1,0-2h5A1,1,0,0,1,18,39Z"/><path class="cls-12" d="M18,44H13a1,1,0,0,1,0-2h5A1,1,0,0,1,18,44Z"/><path class="cls-12" d="M51,39H46a1,1,0,0,1,0-2h5A1,1,0,0,1,51,39Z"/><path class="cls-12" d="M51,44H46a1,1,0,0,1,0-2h5A1,1,0,0,1,51,44Z"/><path class="cls-12" d="M18,49H13a1,1,0,0,1,0-2h5A1,1,0,0,1,18,49Z"/><path class="cls-12" d="M18,54H13a1,1,0,0,1,0-2h5A1,1,0,0,1,18,54Z"/><path class="cls-12" d="M51,49H46a1,1,0,0,1,0-2h5A1,1,0,0,1,51,49Z"/><path class="cls-12" d="M51,54H46a1,1,0,0,1,0-2h5A1,1,0,0,1,51,54Z"/><path class="cls-13" d="M50,63V57H45.67a13.92,13.92,0,0,0-1.89-4.54l3.07-3.07-4.24-4.24-3.07,3.07A13.92,13.92,0,0,0,35,46.33V42H29v4.33a13.92,13.92,0,0,0-4.54,1.89l-3.07-3.07-4.24,4.24,3.07,3.07A13.92,13.92,0,0,0,18.33,57H14v6Z"/><path class="cls-14" d="M27,60c-.55,0-.43,0-3.71-3.29a1,1,0,0,1,0-1.42l3-3a1,1,0,0,1,1.42,1.42L25.41,56l2.3,2.29A1,1,0,0,1,27,60Z"/><path class="cls-14" d="M37,60a1,1,0,0,1-.71-1.71L38.59,56l-2.3-2.29a1,1,0,0,1,1.42-1.42l3,3a1,1,0,0,1,0,1.42C37.59,59.82,37.58,60,37,60Z"/><path class="cls-14" d="M31,60a1,1,0,0,1-.95-1.32l2-6a1,1,0,0,1,1.9.64C31.82,59.71,32,60,31,60Z"/><rect class="cls-15" x="14" y="61" width="36" height="2"/></g></svg>