<svg xmlns="http://www.w3.org/2000/svg" viewBox="0 0 128 128"><defs><style>.cls-1{fill:#fbcc88;}.cls-2{fill:#f6b756;}.cls-3{fill:#f3f4f5;}.cls-4{fill:#c7cdd8;}</style></defs><title>Something Went Wrong</title><g id="Something_Went_Wrong" data-name="Something Went Wrong"><path class="cls-1" d="M56.21,15.36C-2.46,110.64,1,103.92,1,107.65A9.18,9.18,0,0,0,10.16,117H117.84a9.3,9.3,0,0,0,7.79-14.19L71.79,15.36A9.14,9.14,0,0,0,56.21,15.36Z"/><path class="cls-2" d="M117.84,117H10.16a9.24,9.24,0,0,1-8.83-11.77A9.16,9.16,0,0,0,10.16,112H117.84a9.16,9.16,0,0,0,8.83-6.77A9.25,9.25,0,0,1,117.84,117Z"/><polygon class="cls-3" points="11.96 106.96 64 22.43 116.04 106.96 11.96 106.96"/><polygon class="cls-4" points="116.04 106.96 11.96 106.96 15.01 102 112.99 102 116.04 106.96"/><path class="cls-1" d="M69,46c-1.61,35.56-1.31,28.93-1.67,37H60.67c-.36-8,0-.93-1.67-37Z"/><circle class="cls-1" cx="64" cy="95" r="5"/><path class="cls-2" d="M64,100a5,5,0,0,1-4.78-6.5,5,5,0,0,0,9.56,0A5,5,0,0,1,64,100Z"/><polygon class="cls-2" points="67.6 77 67.33 83 60.67 83 60.4 77 67.6 77"/></g></svg>