<svg xmlns="http://www.w3.org/2000/svg" xmlns:xlink="http://www.w3.org/1999/xlink" viewBox="0 0 64 64"><defs><style>.cls-1{fill:url(#linear-gradient);}.cls-2{fill:#c7cdd8;}.cls-3{fill:url(#linear-gradient-2);}.cls-4{fill:#cf4055;}.cls-5{fill:#f6b756;}.cls-6{fill:#7ece67;}.cls-7{fill:url(#linear-gradient-3);}.cls-8{fill:#77cacb;}.cls-9{fill:url(#linear-gradient-4);}.cls-10{fill:url(#linear-gradient-5);}.cls-11{fill:url(#linear-gradient-6);}.cls-12{fill:url(#linear-gradient-7);}.cls-13{fill:#aae0e5;}</style><linearGradient id="linear-gradient" x1="32" y1="52" x2="32" y2="1" gradientUnits="userSpaceOnUse"><stop offset="0" stop-color="#d4d8e1"/><stop offset="1" stop-color="#f3f4f5"/></linearGradient><linearGradient id="linear-gradient-2" x1="32" y1="9" x2="32" y2="1" gradientUnits="userSpaceOnUse"><stop offset="0" stop-color="#a0a6ba"/><stop offset="1" stop-color="#c6ccda"/></linearGradient><linearGradient id="linear-gradient-3" x1="32" y1="63" x2="32" y2="21" gradientUnits="userSpaceOnUse"><stop offset="0" stop-color="#9dd5df"/><stop offset="1" stop-color="#c3e1f5"/></linearGradient><linearGradient id="linear-gradient-4" x1="13.63" y1="61.96" x2="13.63" y2="28.03" gradientUnits="userSpaceOnUse"><stop offset="0" stop-color="#8cdd79"/><stop offset="1" stop-color="#d4e6b6"/></linearGradient><linearGradient id="linear-gradient-5" x1="15.03" y1="26.63" x2="48.97" y2="26.63" gradientUnits="userSpaceOnUse"><stop offset="0" stop-color="#fbcc88"/><stop offset="1" stop-color="#ffe5c3"/></linearGradient><linearGradient id="linear-gradient-6" x1="50.37" y1="28.03" x2="50.37" y2="61.96" gradientUnits="userSpaceOnUse"><stop offset="0" stop-color="#da5466"/><stop offset="1" stop-color="#f4929c"/></linearGradient><linearGradient id="linear-gradient-7" y1="47" y2="33" xlink:href="#linear-gradient"/></defs><title>Speed</title><g id="Speed"><path class="cls-1" d="M63,52V1H1V52Z"/><path class="cls-2" d="M63,52V50H1v2Z"/><rect class="cls-3" x="1" y="1" width="62" height="8"/><path class="cls-4" d="M7,5A1,1,0,0,1,5,5,1,1,0,0,1,7,5Z"/><path class="cls-5" d="M12,5a1,1,0,0,1-2,0A1,1,0,0,1,12,5Z"/><path class="cls-6" d="M17,5a1,1,0,0,1-2,0A1,1,0,0,1,17,5Z"/><path class="cls-7" d="M47.86,63H16.14C-.46,48.32,10,21,32,21S64.44,48.34,47.86,63Z"/><path class="cls-8" d="M50.72,60a23.84,23.84,0,0,1-2.86,3H16.14a23.84,23.84,0,0,1-2.86-3Z"/><path class="cls-9" d="M19.27,57.73,15,62A24,24,0,0,1,15,28l4.24,4.24A18,18,0,0,0,19.27,57.73Z"/><path class="cls-10" d="M49,28l-4.24,4.24a18,18,0,0,0-25.46,0L15,28A24,24,0,0,1,49,28Z"/><path class="cls-11" d="M49,62l-4.23-4.23a18,18,0,0,0,0-25.46L49,28A24,24,0,0,1,49,62Z"/><path class="cls-12" d="M32,33s2,9,2,12a2,2,0,0,1-4,0C30,42,32,33,32,33Z"/><path class="cls-8" d="M38,55H26a1,1,0,0,1,0-2H38A1,1,0,0,1,38,55Z"/><path class="cls-5" d="M33,21v6H31V21C31.88,21,32.12,21,33,21Z"/><path class="cls-4" d="M56,46H50a16.68,16.68,0,0,0,0-2h6C56,44.87,56,45.11,56,46Z"/><path class="cls-6" d="M14,46H8c0-.89,0-1.13,0-2h6A16.68,16.68,0,0,0,14,46Z"/><path class="cls-13" d="M49.94,46.5a18,18,0,0,0-35.88,0,18,18,0,1,1,35.88,0Z"/></g></svg>