<svg xmlns="http://www.w3.org/2000/svg" xmlns:xlink="http://www.w3.org/1999/xlink" viewBox="0 0 64 64"><defs><style>.cls-1{fill:url(#linear-gradient);}.cls-2{fill:url(#linear-gradient-2);}.cls-3{fill:#f69163;}.cls-4{fill:url(#linear-gradient-3);}.cls-5{fill:#cf4055;}</style><linearGradient id="linear-gradient" x1="21" y1="37.99" x2="21" y2="62.99" gradientUnits="userSpaceOnUse"><stop offset="0" stop-color="#949aaf"/><stop offset="1" stop-color="#c6ccda"/></linearGradient><linearGradient id="linear-gradient-2" x1="44.97" y1="33.06" x2="44.97" y2="1" gradientUnits="userSpaceOnUse"><stop offset="0" stop-color="#f8aa88"/><stop offset="1" stop-color="#fac2ab"/></linearGradient><linearGradient id="linear-gradient-3" x1="21" y1="39" x2="21" y2="33" gradientTransform="translate(42 72) rotate(180)" gradientUnits="userSpaceOnUse"><stop offset="0" stop-color="#da5466"/><stop offset="1" stop-color="#f4929c"/></linearGradient></defs><title>Sport</title><g id="Sport"><path class="cls-1" d="M36.09,38.59a44,44,0,0,0-2.41,8.06L31.3,43.8l3.47-4.16a1,1,0,0,0-1.54-1.28L30,42.24l-3.23-3.88a1,1,0,0,0-1.27-.2,1,1,0,0,0-1.27.2L21,42.24l-3.23-3.88a1,1,0,0,0-1.27-.2,1,1,0,0,0-1.27.2L12,42.24,8.77,38.36a1,1,0,0,0-1.54,1.28L10.7,43.8,8.32,46.65a44,44,0,0,0-2.41-8.06,1,1,0,0,0-1.82.82C4.13,39.49,8,47.42,8,62a1,1,0,0,0,2,0c0-1.5-.05-1.92-.12-3.29L12,56.16l3.5,4.2V62a1,1,0,0,0,2,0V60.36l3.5-4.2,3.5,4.2V62a1,1,0,0,0,2,0V60.36l3.5-4.2,2.12,2.55C32.05,60.08,32,60.5,32,62a1,1,0,0,0,2,0c0-14.58,3.88-22.51,3.91-22.59A1,1,0,0,0,36.09,38.59ZM33.18,49.18c0,.1.24-.24-3.18,3.86L26.8,49.2,30,45.36ZM25.5,40l3.2,3.84-3.2,3.84L22.3,43.8ZM24.2,49.2,21,53,17.8,49.2,21,45.36ZM16.5,40l3.2,3.84-3.2,3.84L13.3,43.8ZM12,45.36l3.2,3.84L12,53c-3.42-4.1-3.16-3.76-3.18-3.86ZM9.69,55.82c-.09-1-.18-1.89-.29-2.77l1.3,1.55Zm6.81,2.62L13.3,54.6l3.2-3.84,3.2,3.84Zm9,0L22.3,54.6l3.2-3.84,3.2,3.84Zm5.8-3.84,1.3-1.55c-.11.88-.2,1.81-.29,2.77Z"/><path class="cls-2" d="M53,30.85c-12.5,7.33-27.59-4.73-23.27-18.62A16,16,0,0,1,48.5,1.4C62.55,4.49,65.65,23.43,53,30.85Z"/><path class="cls-3" d="M53,30.85A16,16,0,0,1,29,16,16,16,0,0,0,61,16,16,16,0,0,1,53,30.85Z"/><path class="cls-3" d="M57,6.44a1,1,0,0,1-1,.21A19.11,19.11,0,0,0,30.54,21.34a1,1,0,0,1-.69.78,14.56,14.56,0,0,1-.75-3.4A21.12,21.12,0,0,1,54.45,4.09,15.36,15.36,0,0,1,57,6.44Z"/><path class="cls-3" d="M60.6,20.51a14.69,14.69,0,0,1-1.12,3.27,1,1,0,0,1-.59-.89c-.12-3.7-2.1-7-3.91-8.16C48.29,10.31,44.3,9.9,42.84,6.62a4.12,4.12,0,0,1,.1-4.08A4.76,4.76,0,0,1,44.78,1a15.52,15.52,0,0,1,3.72.39,1,1,0,0,1-.81.79c-1.2.19-2.95.71-3.28,1.87a2.34,2.34,0,0,0,0,1.09c.83,3.06,4.61,3.27,11.65,7.91A12.22,12.22,0,0,1,60.6,20.51Z"/><path class="cls-3" d="M43.63,32.94a15.45,15.45,0,0,1-3.38-.67,12.19,12.19,0,0,1-4.2-7.64c-.46-7.45.85-11.17-.44-13.3-1-1.66-2.56-2.11-4.78.59a1,1,0,0,1-1.1.31,15.2,15.2,0,0,1,1.54-3.42,3.85,3.85,0,0,1,5.1.3c3.18,3.18,1.14,6.49,1.68,15.4.13,2.16,2,5.51,5.11,7.46A1,1,0,0,1,43.63,32.94Z"/><path class="cls-3" d="M53.85,30.33a16.58,16.58,0,0,1-1.74,1C31.52-4.37,41.27,12.56,36.15,3.67a16.58,16.58,0,0,1,1.74-1Z"/><rect class="cls-4" x="3" y="33" width="36" height="6" transform="translate(42 72) rotate(-180)"/><rect class="cls-5" x="3" y="37" width="36" height="2" transform="translate(42 76) rotate(-180)"/></g></svg>