<svg xmlns="http://www.w3.org/2000/svg" xmlns:xlink="http://www.w3.org/1999/xlink" viewBox="0 0 64 64"><defs><style>.cls-1{fill:url(#linear-gradient);}.cls-2{fill:#8a6762;}.cls-3{fill:url(#linear-gradient-2);}.cls-4{fill:url(#linear-gradient-3);}.cls-5{fill:url(#linear-gradient-4);}.cls-6{fill:url(#linear-gradient-5);}.cls-7{fill:#a88680;}.cls-8{fill:#fff;}.cls-9{fill:#cba07a;}.cls-10{fill:#4da67f;}.cls-11{fill:url(#linear-gradient-6);}.cls-12{fill:#8288a1;}</style><linearGradient id="linear-gradient" x1="32" y1="47" x2="32" y2="41" gradientUnits="userSpaceOnUse"><stop offset="0" stop-color="#9b756d"/><stop offset="1" stop-color="#bc9388"/></linearGradient><linearGradient id="linear-gradient-2" x1="32" y1="41" x2="32" y2="1" gradientUnits="userSpaceOnUse"><stop offset="0" stop-color="#d1a788"/><stop offset="1" stop-color="#f2d3b8"/></linearGradient><linearGradient id="linear-gradient-3" x1="32" y1="41" x2="32" y2="5" gradientUnits="userSpaceOnUse"><stop offset="0" stop-color="#6ab891"/><stop offset="1" stop-color="#85cba9"/></linearGradient><linearGradient id="linear-gradient-4" x1="53" y1="63" x2="53" y2="47" xlink:href="#linear-gradient"/><linearGradient id="linear-gradient-5" x1="11" y1="63" x2="11" y2="47" xlink:href="#linear-gradient"/><linearGradient id="linear-gradient-6" x1="46" y1="41" x2="46" y2="35" gradientUnits="userSpaceOnUse"><stop offset="0" stop-color="#949aaf"/><stop offset="1" stop-color="#c6ccda"/></linearGradient></defs><title>Square root</title><g id="Square_root" data-name="Square root"><rect class="cls-1" x="1" y="41" width="62" height="6"/><rect class="cls-2" x="1" y="45" width="62" height="2"/><rect class="cls-3" x="3" y="1" width="58" height="40"/><rect class="cls-4" x="7" y="5" width="50" height="36"/><path class="cls-5" d="M59,63H54c-1.09-2.49-5.36-12.28-7-16h5Z"/><path class="cls-6" d="M17,47c-1.94,4.46-3.72,8.49-7,16H5c2.81-6.44,5.33-12.17,7-16Z"/><polygon class="cls-7" points="14.81 52 49.19 52 50.94 56 13.06 56 14.81 52"/><path class="cls-8" d="M49,13H23a1,1,0,0,0-1,.79L19.79,24.21C18.52,20.41,19.34,21,15,21a1,1,0,0,0,0,2h2.28l1.77,5.32A1,1,0,0,0,21,28.21L23.81,15H49A1,1,0,0,0,49,13Z"/><path class="cls-8" d="M32.14,17.49,30,21.06l-2.14-3.57a1,1,0,0,0-1.72,1L28.83,23l-2.69,4.49a1,1,0,0,0,1.72,1L30,24.94l2.14,3.57a1,1,0,0,0,1.72-1L31.17,23l2.69-4.49A1,1,0,0,0,32.14,17.49Z"/><path class="cls-8" d="M40,22H39V21a1,1,0,0,0-2,0v1H36a1,1,0,0,0,0,2h1v1a1,1,0,0,0,2,0V24h1A1,1,0,0,0,40,22Z"/><path class="cls-8" d="M48.14,17.49,46,21.06l-2.14-3.57a1,1,0,0,0-1.72,1L45,23.28V28a1,1,0,0,0,2,0V23.28l2.86-4.77A1,1,0,0,0,48.14,17.49Z"/><rect class="cls-9" x="3" y="38" width="4" height="3"/><rect class="cls-9" x="57" y="38" width="4" height="3"/><rect class="cls-10" x="7" y="38" width="50" height="3"/><path class="cls-11" d="M42,35h8a2,2,0,0,1,2,2v4a0,0,0,0,1,0,0H40a0,0,0,0,1,0,0V37A2,2,0,0,1,42,35Z"/><rect class="cls-12" x="40" y="39" width="12" height="2"/><polygon class="cls-7" points="12 47 17 47 16.13 49 11.13 49 12 47"/><polygon class="cls-7" points="52.88 49 47.88 49 47 47 52 47 52.88 49"/><polygon class="cls-2" points="6.31 60 11.31 60 10 63 5 63 6.31 60"/><polygon class="cls-2" points="59 63 54 63 52.69 60 57.69 60 59 63"/></g></svg>