<svg xmlns="http://www.w3.org/2000/svg" xmlns:xlink="http://www.w3.org/1999/xlink" viewBox="0 0 64 64"><defs><style>.cls-1{fill:url(#linear-gradient);}.cls-2{fill:url(#linear-gradient-2);}.cls-3{fill:#aae0e5;}.cls-4{fill:#77cacb;}.cls-5{fill:url(#linear-gradient-3);}.cls-6{fill:#c7cdd8;}.cls-7{fill:url(#linear-gradient-5);}.cls-8{fill:url(#linear-gradient-6);}.cls-9{fill:#cf4055;}.cls-10{fill:url(#linear-gradient-7);}.cls-11{fill:url(#linear-gradient-8);}.cls-12{fill:#5b8dc9;}.cls-13{fill:url(#linear-gradient-10);}.cls-14{fill:url(#linear-gradient-11);}.cls-15{fill:#8288a1;}.cls-16{fill:#d7dbe2;}.cls-17{fill:url(#linear-gradient-12);}.cls-18{fill:url(#linear-gradient-13);}.cls-19{fill:url(#linear-gradient-14);}</style><linearGradient id="linear-gradient" x1="32" y1="55" x2="32" y2="15" gradientUnits="userSpaceOnUse"><stop offset="0" stop-color="#a0a6ba"/><stop offset="1" stop-color="#c6ccda"/></linearGradient><linearGradient id="linear-gradient-2" x1="32" y1="51" x2="32" y2="19" gradientUnits="userSpaceOnUse"><stop offset="0" stop-color="#9dd5df"/><stop offset="1" stop-color="#c3e1f5"/></linearGradient><linearGradient id="linear-gradient-3" x1="31.97" y1="29" x2="31.97" y2="1" gradientUnits="userSpaceOnUse"><stop offset="0" stop-color="#d4d8e1"/><stop offset="1" stop-color="#f3f4f5"/></linearGradient><linearGradient id="linear-gradient-5" x1="43" y1="27" x2="43" y2="18" gradientUnits="userSpaceOnUse"><stop offset="0" stop-color="#da5466"/><stop offset="1" stop-color="#f4929c"/></linearGradient><linearGradient id="linear-gradient-6" x1="21" y1="27" x2="21" y2="18" xlink:href="#linear-gradient-5"/><linearGradient id="linear-gradient-7" x1="32" y1="29" x2="32" y2="33" gradientUnits="userSpaceOnUse"><stop offset="0" stop-color="#474f72"/><stop offset="1" stop-color="#878c9f"/></linearGradient><linearGradient id="linear-gradient-8" x1="32" y1="24" x2="32" y2="16" gradientUnits="userSpaceOnUse"><stop offset="0" stop-color="#7aa8d7"/><stop offset="1" stop-color="#c3d2e7"/></linearGradient><linearGradient id="linear-gradient-10" x1="32" y1="7" x2="32" y2="1" xlink:href="#linear-gradient-5"/><linearGradient id="linear-gradient-11" y1="63" y2="55" xlink:href="#linear-gradient"/><linearGradient id="linear-gradient-12" x1="32" y1="51" x2="32" y2="33" gradientUnits="userSpaceOnUse"><stop offset="0" stop-color="#d4d8e1"/><stop offset="0.04" stop-color="#d6d9e2"/><stop offset="0.62" stop-color="#ebedf0"/><stop offset="1" stop-color="#f3f4f5"/></linearGradient><linearGradient id="linear-gradient-13" x1="29" y1="33" x2="29" y2="45.99" xlink:href="#linear-gradient-3"/><linearGradient id="linear-gradient-14" x1="35" y1="33" x2="35" y2="45.99" xlink:href="#linear-gradient-3"/></defs><title>Startup</title><g id="Startup"><path class="cls-1" d="M8,15a3,3,0,0,0-3,3V55H59V18a3,3,0,0,0-3-3Z"/><path class="cls-2" d="M55,19V51H9V19Z"/><path class="cls-3" d="M55,19v2H9V19Z"/><path class="cls-4" d="M55,49v2H9V49Z"/><path class="cls-5" d="M39,14.6V27a2,2,0,0,1-2,2H27a2,2,0,0,1-2-2c0-12.67-.71-16.25,2.7-21.49A16.6,16.6,0,0,1,32,1,16.76,16.76,0,0,1,39,14.6Z"/><path class="cls-5" d="M39,14.6V27a2,2,0,0,1-2,2H27a2,2,0,0,1-2-2c0-12.67-.71-16.25,2.7-21.49A16.6,16.6,0,0,1,32,1,16.76,16.76,0,0,1,39,14.6Z"/><path class="cls-6" d="M39,25v2a2,2,0,0,1-2,2H27a2,2,0,0,1-2-2V25a2,2,0,0,0,2,2H37A2,2,0,0,0,39,25Z"/><polygon class="cls-7" points="39 18 47 24 47 27 39 27 39 18"/><polygon class="cls-8" points="25 18 17 24 17 27 25 27 25 18"/><rect class="cls-9" x="39" y="25" width="8" height="2"/><rect class="cls-9" x="17" y="25" width="8" height="2"/><polygon class="cls-10" points="37 29 36 33 28 33 27 29 37 29"/><circle class="cls-11" cx="32" cy="20" r="4"/><circle class="cls-11" cx="32" cy="20" r="4"/><path class="cls-12" d="M32,24a4,4,0,0,1-3.87-5,4,4,0,0,0,7.74,0A4,4,0,0,1,32,24Z"/><path class="cls-13" d="M36.3,5.51a6.94,6.94,0,0,1-8.6,0A16.6,16.6,0,0,1,32,1,16.6,16.6,0,0,1,36.3,5.51Z"/><path class="cls-14" d="M3,55H61a2,2,0,0,1,2,2v2a4,4,0,0,1-4,4H5a4,4,0,0,1-4-4V57A2,2,0,0,1,3,55Z"/><path class="cls-15" d="M63,57v2a4,4,0,0,1-4,4H5a4,4,0,0,1-4-4V57a4,4,0,0,0,4,4H59A4,4,0,0,0,63,57Z"/><polygon class="cls-16" points="40 58 24 58 22 55 42 55 40 58"/><rect class="cls-15" x="5" y="53" width="54" height="2"/><path class="cls-17" d="M53,51H11a4,4,0,0,1,4-4,5,5,0,0,1,8.61-3.46A3.48,3.48,0,0,1,29,43.06V33h6V43.06a3.48,3.48,0,0,1,5.39.48A5,5,0,0,1,49,47,4,4,0,0,1,53,51Z"/><path class="cls-6" d="M53,51H11a4,4,0,0,1,.54-2H52.46A4,4,0,0,1,53,51Z"/><path class="cls-18" d="M28,45V33h2V45A1,1,0,0,1,28,45Z"/><path class="cls-19" d="M34,45V33h2V45A1,1,0,0,1,34,45Z"/></g></svg>