<svg xmlns="http://www.w3.org/2000/svg" xmlns:xlink="http://www.w3.org/1999/xlink" viewBox="0 0 64 64"><defs><style>.cls-1{fill:url(#linear-gradient);}.cls-2{fill:url(#linear-gradient-2);}.cls-3{fill:url(#linear-gradient-3);}.cls-4{fill:#42455e;}.cls-5{fill:#adb3c4;}.cls-6{fill:url(#linear-gradient-4);}.cls-7{fill:#cf4055;}.cls-8{fill:url(#linear-gradient-5);}.cls-9{fill:url(#linear-gradient-6);}</style><linearGradient id="linear-gradient" x1="23.12" y1="52" x2="23.12" y2="8.36" gradientUnits="userSpaceOnUse"><stop offset="0" stop-color="#949aaf"/><stop offset="1" stop-color="#c6ccda"/></linearGradient><linearGradient id="linear-gradient-2" x1="21" y1="63" x2="21" y2="57" gradientUnits="userSpaceOnUse"><stop offset="0" stop-color="#da5466"/><stop offset="1" stop-color="#f4929c"/></linearGradient><linearGradient id="linear-gradient-3" x1="14" y1="57" x2="14" y2="52" gradientUnits="userSpaceOnUse"><stop offset="0" stop-color="#474f72"/><stop offset="1" stop-color="#878c9f"/></linearGradient><linearGradient id="linear-gradient-4" x1="35.57" y1="12.13" x2="35.57" y2="1" xlink:href="#linear-gradient-2"/><linearGradient id="linear-gradient-5" x1="47.2" y1="31" x2="47.2" y2="5.4" xlink:href="#linear-gradient-2"/><linearGradient id="linear-gradient-6" x1="47.29" y1="23.15" x2="57" y2="23.15" gradientUnits="userSpaceOnUse"><stop offset="0" stop-color="#fbcc88"/><stop offset="1" stop-color="#ffe5c3"/></linearGradient></defs><title>Study lamp</title><g id="Study_lamp" data-name="Study lamp"><path class="cls-1" d="M34.24,11.24C23.84,18.48,16,30.87,16,45v7H12V45c0-15.41,8.16-28.71,19.36-36.64Z"/><path class="cls-2" d="M38,61v2H4a11.22,11.22,0,0,1,.13-3A4,4,0,0,1,8,57H34A4,4,0,0,1,38,61Z"/><rect class="cls-3" x="10" y="52" width="8" height="5"/><rect class="cls-4" x="10" y="55" width="8" height="2"/><path class="cls-5" d="M34.24,11.24c-.56.39-1.4,1-2.41,1.83C27.92,9.16,29.27,10.5,29,10.2c.93-.77,1.74-1.38,2.39-1.84Z"/><path class="cls-6" d="M41.13,6.13l-6,6L31.24,8.24a4.24,4.24,0,0,1,6-6Z"/><path class="cls-7" d="M41.13,6.13l-6,6L32.87,9.87a13.45,13.45,0,0,1,6-6Z"/><path class="cls-8" d="M43,31,60,14,51.35,7.52A10.59,10.59,0,0,0,36.52,22.35Z"/><polygon class="cls-7" points="60 14 43 31 41.29 28.71 57.71 12.29 60 14"/><path class="cls-9" d="M55.71,18.29A6,6,0,0,1,51,28a5.94,5.94,0,0,1-3.71-1.29Z"/><path class="cls-7" d="M38,63H4a11.22,11.22,0,0,1,.13-3H37.87A11.38,11.38,0,0,1,38,63Z"/></g></svg>