<svg xmlns="http://www.w3.org/2000/svg" xmlns:xlink="http://www.w3.org/1999/xlink" viewBox="0 0 64 64"><defs><style>.cls-1{fill:url(#linear-gradient);}.cls-2{fill:#eab39b;}.cls-3{fill:url(#linear-gradient-2);}.cls-4{fill:url(#linear-gradient-3);}.cls-5{fill:#8288a1;}.cls-6{fill:url(#linear-gradient-4);}.cls-7{fill:#c7cdd8;}.cls-8{fill:url(#linear-gradient-5);}.cls-9{fill:#f6b756;}.cls-10{fill:#cf4055;}.cls-11{fill:url(#linear-gradient-6);}.cls-12{fill:#cba07a;}.cls-13{fill:#e8c4a6;}.cls-14{fill:#dfe3ea;}</style><linearGradient id="linear-gradient" x1="19.5" y1="26" x2="19.5" y2="13" gradientUnits="userSpaceOnUse"><stop offset="0" stop-color="#f2c4b0"/><stop offset="1" stop-color="#ffe3d7"/></linearGradient><linearGradient id="linear-gradient-2" x1="15" y1="62.98" x2="15" y2="52" gradientUnits="userSpaceOnUse"><stop offset="0" stop-color="#d4d8e1"/><stop offset="1" stop-color="#f3f4f5"/></linearGradient><linearGradient id="linear-gradient-3" x1="24" y1="62.98" x2="24" xlink:href="#linear-gradient-2"/><linearGradient id="linear-gradient-4" x1="20.19" y1="37" x2="20.19" y2="13" xlink:href="#linear-gradient-2"/><linearGradient id="linear-gradient-5" x1="51" y1="25" x2="51" y2="1" gradientUnits="userSpaceOnUse"><stop offset="0" stop-color="#fbcc88"/><stop offset="1" stop-color="#ffe5c3"/></linearGradient><linearGradient id="linear-gradient-6" x1="20" y1="52" x2="20" y2="37" gradientTransform="translate(40 89) rotate(-180)" gradientUnits="userSpaceOnUse"><stop offset="0" stop-color="#d1a788"/><stop offset="1" stop-color="#f2d3b8"/></linearGradient></defs><title>Student Question</title><g id="Student_Question" data-name="Student Question"><path class="cls-1" d="M19.54,26A5.46,5.46,0,0,1,14,20.54V18.46a5.5,5.5,0,0,1,11,0v2.08A5.45,5.45,0,0,1,19.54,26Z"/><path class="cls-2" d="M25,18.54v2a5.5,5.5,0,0,1-11,0v-2a5.5,5.5,0,0,0,11,0Z"/><path class="cls-3" d="M13,52h4v9a2,2,0,0,1-4,0Z"/><path class="cls-4" d="M22,52h4v9a2,2,0,0,1-4,0Z"/><path class="cls-5" d="M3,62V51a1,1,0,0,1,2,0V62A1,1,0,0,1,3,62Z"/><path class="cls-5" d="M35,62V51a1,1,0,0,1,2,0V62A1,1,0,0,1,35,62Z"/><path class="cls-6" d="M34,27a4,4,0,0,1-4,4H26c0,4.81,0,3.48,0,6-13.53-.08-4.57,0-16.32,0a3.28,3.28,0,0,1-3-4.68A11.23,11.23,0,0,1,16.82,26H30V15a2,2,0,0,1,3.41-1.41C34.22,14.38,34,14.09,34,27Z"/><path class="cls-7" d="M17.94,37a1,1,0,0,1-1-1,3.44,3.44,0,0,0-3.49-3.38H11a1,1,0,0,1,0-2h2.45C18.47,30.57,20.3,37,17.94,37Z"/><path class="cls-8" d="M51,1a12,12,0,0,0-8.49,20.49L39,25H51A12,12,0,0,0,51,1Z"/><path class="cls-9" d="M51,25H39l3.51-3.51a12,12,0,0,1-3.41-10,12,12,0,0,0,23.8,0A12,12,0,0,1,51,25Z"/><path class="cls-10" d="M50,16a5.28,5.28,0,0,1,2.59-4.45A3,3,0,1,0,48,9a1,1,0,0,1-2,0,5,5,0,1,1,7.65,4.24A3.32,3.32,0,0,0,52,16,1,1,0,0,1,50,16Z"/><path class="cls-10" d="M52,19a1,1,0,0,1-2,0A1,1,0,0,1,52,19Z"/><rect class="cls-11" x="3" y="37" width="34" height="15" transform="translate(40 89) rotate(180)"/><rect class="cls-12" x="3" y="50" width="34" height="2" transform="translate(40 102) rotate(180)"/><rect class="cls-13" x="3" y="38" width="34" height="3" transform="translate(40 79) rotate(180)"/><path class="cls-12" d="M38,39H2a1,1,0,0,1,0-2H38A1,1,0,0,1,38,39Z"/><path class="cls-7" d="M26,35v2c-13.53-.08-4.57,0-16.32,0a3.36,3.36,0,0,1-3.07-2Z"/><rect class="cls-14" x="13" y="52" width="4" height="3"/><rect class="cls-14" x="22" y="52" width="4" height="3"/></g></svg>