<svg xmlns="http://www.w3.org/2000/svg" viewBox="0 0 128 128"><defs><style>.cls-1{fill:#fbcc88;}.cls-2{fill:#f6b756;}.cls-3{fill:#d6ac90;}.cls-4{fill:#cba07a;}.cls-5{fill:#8a6762;}.cls-6{fill:#dde1e8;}.cls-7{fill:#c7cdd8;}.cls-8{fill:#8cdd79;}.cls-9{fill:#7ece67;}.cls-10{fill:#fff;}</style></defs><title>Success</title><g id="Success"><rect class="cls-1" x="61" y="78.53" width="6" height="16.47"/><rect class="cls-2" x="61" y="92" width="6" height="3"/><path class="cls-2" d="M101,54c-1.26,0-5.38-.43-5.38-5.93C95.62,38.05,126,33.35,126,18c0-8.88-5.1-14-14-14-7.61,0-12,4.37-12,12a10,10,0,0,0,5.41,9.07,1,1,0,0,1-.86,1.86C94.28,22.2,95.39,2,112,2c10,0,16,6,16,16,0,16.63-30.36,22-30.36,30.09,0,2.58,1.13,3.89,3.34,3.89,1.09,0,2.59-1.72,3.15-2.55a1,1,0,0,1,1.7,1.14C105.61,50.92,103.47,54,101,54Z"/><path class="cls-2" d="M27,54c-2.47,0-4.61-3.1-4.85-3.45a1,1,0,0,1,1.7-1.14C24.41,50.26,25.91,52,27,52c2.21,0,3.34-1.31,3.34-3.89C30.34,40,0,34.6,0,18,0,8,6,2,16,2c16.69,0,17.62,20.27,7.43,25a1,1,0,0,1-.86-1.86A10,10,0,0,0,28,16C28,8.39,23.61,4,16,4,7.12,4,2,9.12,2,18,2,33.32,32.38,38.07,32.38,48.09,32.38,53.59,28.26,54,27,54Z"/><polygon class="cls-3" points="89.2 127 38.8 127 41.95 101.1 86.05 101.1 89.2 127"/><polygon class="cls-4" points="89.2 127 38.8 127 39.29 123 88.71 123 89.2 127"/><path class="cls-1" d="M64,79C45.23,76.91,31.51,59.77,30.66,39.86L29,1H99L97.34,39.86C96.48,59.9,82.65,76.92,64,79Z"/><path class="cls-1" d="M64,79C45.23,76.91,31.51,59.77,30.66,39.86L29,1H99L97.34,39.86C96.48,59.9,82.65,76.92,64,79Z"/><path class="cls-2" d="M97.34,39.86C96.47,60.31,82.28,77,64,79,45.72,77,31.53,60.31,30.66,39.86c-2-47.32-2.18-55.08,0-4C31.53,56.31,45.72,73,64,75c18.28-2,32.47-18.69,33.34-39.14C99.52-15.18,99.36-7.5,97.34,39.86Z"/><path class="cls-5" d="M93,127H35a1,1,0,0,1,0-2H93A1,1,0,0,1,93,127Z"/><path class="cls-1" d="M71,99v2H57V99a4,4,0,0,1,4-4h6A4,4,0,0,1,71,99Z"/><path class="cls-2" d="M71,99.36V101H57V99.36A4,4,0,0,1,60,98C68.14,98,69.44,97.56,71,99.36Z"/><rect class="cls-6" x="51" y="107" width="26" height="14"/><rect class="cls-7" x="51" y="118" width="26" height="3"/><circle class="cls-8" cx="64" cy="35" r="23"/><path class="cls-9" d="M64,58A23,23,0,0,1,41.09,33a23,23,0,0,0,45.82,0A23,23,0,0,1,64,58Z"/><path class="cls-2" d="M64,62A23,23,0,0,1,41.09,37a23,23,0,0,0,45.82,0A23,23,0,0,1,64,62Z"/><path class="cls-10" d="M60,44c-.59,0-.08.34-8.72-8.3a1,1,0,0,1,1.44-1.44L60,41.56,75.28,26.28a1,1,0,0,1,1.44,1.44C59.21,45.23,60.6,44,60,44Z"/></g></svg>