<svg xmlns="http://www.w3.org/2000/svg" xmlns:xlink="http://www.w3.org/1999/xlink" viewBox="0 0 64 64"><defs><style>.cls-1{fill:url(#linear-gradient);}.cls-2{fill:#c7cdd8;}.cls-3{fill:url(#linear-gradient-2);}.cls-4{fill:#5b8dc9;}.cls-5{fill:url(#linear-gradient-3);}.cls-6{fill:url(#linear-gradient-4);}.cls-7{fill:url(#linear-gradient-5);}.cls-8{fill:url(#linear-gradient-6);}.cls-9{fill:#77cacb;}.cls-10{fill:#d3e0ef;}.cls-11{fill:#fff;}</style><linearGradient id="linear-gradient" x1="32" y1="41" x2="32" y2="1" gradientUnits="userSpaceOnUse"><stop offset="0" stop-color="#d4d8e1"/><stop offset="1" stop-color="#f3f4f5"/></linearGradient><linearGradient id="linear-gradient-2" x1="31" y1="63" x2="31" y2="51" gradientUnits="userSpaceOnUse"><stop offset="0" stop-color="#7aa8d7"/><stop offset="1" stop-color="#c3d2e7"/></linearGradient><linearGradient id="linear-gradient-3" y1="55" y2="43" xlink:href="#linear-gradient-2"/><linearGradient id="linear-gradient-4" y1="47" y2="35" xlink:href="#linear-gradient-2"/><linearGradient id="linear-gradient-5" y1="39" y2="31.54" xlink:href="#linear-gradient-2"/><linearGradient id="linear-gradient-6" x1="31" y1="35" x2="31" y2="13" gradientUnits="userSpaceOnUse"><stop offset="0" stop-color="#9dd5df"/><stop offset="1" stop-color="#c3e1f5"/></linearGradient></defs><title>Sync Data</title><g id="Sync_Data" data-name="Sync Data"><path class="cls-1" d="M55.51,22.48a8.21,8.21,0,0,0-9.74-8.39,16.47,16.47,0,0,0-32.59,3.38,11.77,11.77,0,1,0,0,23.53h40a9.41,9.41,0,0,0,2.33-18.52Z"/><path class="cls-2" d="M53.18,41h-40A11.76,11.76,0,0,1,1.47,28.08,11.77,11.77,0,0,0,13.18,38.65h40a9.42,9.42,0,0,0,9.33-8.2A9.4,9.4,0,0,1,53.18,41Z"/><path class="cls-3" d="M47,51v8c0,2.21-7.16,4-16,4s-16-1.79-16-4V51c0,2.21,7.16,4,16,4S47,53.21,47,51Z"/><path class="cls-4" d="M47,57v2c0,2.21-7.16,4-16,4s-16-1.79-16-4V57c0,2.21,7.16,4,16,4S47,59.21,47,57Z"/><path class="cls-5" d="M47,43v8c0,2.21-7.16,4-16,4s-16-1.79-16-4V43c0,2.21,7.16,4,16,4S47,45.21,47,43Z"/><path class="cls-6" d="M47,35v8c0,2.21-7.16,4-16,4s-16-1.79-16-4V35c0,2.21,7.16,4,16,4S47,37.21,47,35Z"/><path class="cls-7" d="M31,39c-16,0-22.34-5.39-8-7.46H39C53.37,33.61,47,39,31,39Z"/><circle class="cls-8" cx="31" cy="24" r="11"/><path class="cls-9" d="M31,35A11,11,0,0,1,20.05,23,11,11,0,0,0,42,23,11,11,0,0,1,31,35Z"/><path class="cls-10" d="M32,42a1,1,0,0,1-2,0A1,1,0,0,1,32,42Z"/><path class="cls-10" d="M36,42a1,1,0,0,1-2,0A1,1,0,0,1,36,42Z"/><path class="cls-10" d="M28,42a1,1,0,0,1-2,0A1,1,0,0,1,28,42Z"/><path class="cls-10" d="M32,50a1,1,0,0,1-2,0A1,1,0,0,1,32,50Z"/><path class="cls-10" d="M36,50a1,1,0,0,1-2,0A1,1,0,0,1,36,50Z"/><path class="cls-10" d="M28,50a1,1,0,0,1-2,0A1,1,0,0,1,28,50Z"/><path class="cls-10" d="M32,58a1,1,0,0,1-2,0A1,1,0,0,1,32,58Z"/><path class="cls-10" d="M36,58a1,1,0,0,1-2,0A1,1,0,0,1,36,58Z"/><path class="cls-10" d="M28,58a1,1,0,0,1-2,0A1,1,0,0,1,28,58Z"/><path class="cls-11" d="M31,17c-.1,0,0,.18-.06-1.08a1,1,0,0,0-1.71-.69l-2,2a1,1,0,0,0,0,1.42C29.42,20.83,29.45,21,30,21a1,1,0,0,0,1-1V19a5,5,0,0,1,4.17,7.77A1,1,0,0,0,36,28.33c1.32,0,2-3,2-4.33A7,7,0,0,0,31,17Z"/><path class="cls-11" d="M32.71,27.23A1,1,0,0,0,31,28L31,29a5,5,0,0,1-4.18-7.77,1,1,0,0,0-1.66-1.12A7,7,0,0,0,31,31c.1,0,0-.18.06,1a1,1,0,0,0,1,1c.54,0,.57-.15,2.71-2.29a1,1,0,0,0,0-1.42Z"/></g></svg>