<svg xmlns="http://www.w3.org/2000/svg" xmlns:xlink="http://www.w3.org/1999/xlink" viewBox="0 0 64 64"><defs><style>.cls-1{fill:url(#linear-gradient);}.cls-2{fill:#cf4055;}.cls-3{fill:url(#linear-gradient-2);}.cls-4{fill:#42455e;}.cls-5{fill:url(#linear-gradient-3);}.cls-6{fill:url(#linear-gradient-4);}.cls-7{fill:#f2a961;}.cls-8{fill:#fff2e3;}</style><linearGradient id="linear-gradient" x1="32" y1="58.92" x2="32" y2="5.08" gradientUnits="userSpaceOnUse"><stop offset="0" stop-color="#da5466"/><stop offset="1" stop-color="#f4929c"/></linearGradient><linearGradient id="linear-gradient-2" x1="32" y1="48" x2="32" y2="16" gradientUnits="userSpaceOnUse"><stop offset="0" stop-color="#474f72"/><stop offset="1" stop-color="#878c9f"/></linearGradient><linearGradient id="linear-gradient-3" x1="18.2" y1="31" x2="18.2" y2="28.58" xlink:href="#linear-gradient-2"/><linearGradient id="linear-gradient-4" x1="32" y1="42" x2="32" y2="22" gradientUnits="userSpaceOnUse"><stop offset="0" stop-color="#e9a254"/><stop offset="1" stop-color="#f4bb79"/></linearGradient></defs><title>Target</title><g id="Target"><path class="cls-1" d="M34,5.08H30A27,27,0,0,0,5.08,30v4A27,27,0,0,0,30,58.92h4A27,27,0,0,0,58.92,34V30A27,27,0,0,0,34,5.08ZM54.91,34A23,23,0,0,1,34,54.91H30A23,23,0,0,1,9.09,34V30A23,23,0,0,1,30,9.09h4A23,23,0,0,1,54.91,30Z"/><path class="cls-2" d="M30,11V3a2,2,0,0,1,4,0v8A2,2,0,0,1,30,11Z"/><path class="cls-2" d="M30,61V53a2,2,0,0,1,4,0v8A2,2,0,0,1,30,61Z"/><path class="cls-2" d="M53,30h8a2,2,0,0,1,0,4H53A2,2,0,0,1,53,30Z"/><path class="cls-2" d="M3,30h8a2,2,0,0,1,0,4H3A2,2,0,0,1,3,30Z"/><path class="cls-3" d="M45.61,28.76l2.25-1.3-4-6.92-2.25,1.29A14,14,0,0,0,36,18.59V16H28v2.59a14,14,0,0,0-5.61,3.24l-2.25-1.29-4,6.92,2.25,1.3a13.65,13.65,0,0,0,0,6.48l-2.25,1.3,4,6.92,2.25-1.29A14,14,0,0,0,28,45.41V48h8V45.41a14,14,0,0,0,5.61-3.24l2.25,1.29,4-6.92-2.25-1.3A13.65,13.65,0,0,0,45.61,28.76Z"/><path class="cls-4" d="M45.61,35.24l2.25,1.3-4,6.92-2.25-1.29A14,14,0,0,1,36,45.41V48H28V45.41a14,14,0,0,1-5.61-3.24l-2.25,1.29-4-6.92,2.25-1.3A13.73,13.73,0,0,1,18,31,14,14,0,0,0,46,31,13.41,13.41,0,0,1,45.61,35.24Z"/><path class="cls-5" d="M18.08,28.58c.63.37.13-.19,0,2.42A12.51,12.51,0,0,1,18.08,28.58Z"/><circle class="cls-6" cx="32" cy="32" r="10"/><circle class="cls-6" cx="32" cy="32" r="10"/><path class="cls-7" d="M42,33a10,10,0,0,0-19.9,0A10,10,0,1,1,42,33Z"/><path class="cls-8" d="M33,31H31a1,1,0,0,1,0-2h4a1,1,0,0,0,0-2H33V26a1,1,0,0,0-2,0v1a3,3,0,0,0,0,6h2a1,1,0,0,1,0,2H29a1,1,0,0,0,0,2h2v1a1,1,0,0,0,2,0V37a3,3,0,0,0,0-6Z"/></g></svg>