<svg xmlns="http://www.w3.org/2000/svg" xmlns:xlink="http://www.w3.org/1999/xlink" viewBox="0 0 64 64"><defs><style>.cls-1{fill:url(#linear-gradient);}.cls-2{fill:#cf4055;}.cls-3{fill:url(#linear-gradient-2);}.cls-4{fill:url(#linear-gradient-3);}.cls-5{fill:url(#linear-gradient-4);}.cls-6{fill:#f6b756;}.cls-7{fill:#5b8dc9;}</style><linearGradient id="linear-gradient" x1="32" y1="58.92" x2="32" y2="5.08" gradientUnits="userSpaceOnUse"><stop offset="0" stop-color="#da5466"/><stop offset="1" stop-color="#f4929c"/></linearGradient><linearGradient id="linear-gradient-2" x1="32" y1="46" x2="32" y2="18" gradientUnits="userSpaceOnUse"><stop offset="0" stop-color="#fbcc88"/><stop offset="1" stop-color="#ffe5c3"/></linearGradient><linearGradient id="linear-gradient-3" x1="32" y1="34.55" x2="32" y2="23.09" gradientUnits="userSpaceOnUse"><stop offset="0" stop-color="#7aa8d7"/><stop offset="1" stop-color="#c3d2e7"/></linearGradient><linearGradient id="linear-gradient-4" y1="45.99" y2="34.56" xlink:href="#linear-gradient-3"/></defs><title>Target Audience</title><g id="Target_Audience" data-name="Target Audience"><path class="cls-1" d="M34,5.08H30A27,27,0,0,0,5.08,30v4A27,27,0,0,0,30,58.92h4A27,27,0,0,0,58.92,34V30A27,27,0,0,0,34,5.08ZM54.91,34A23,23,0,0,1,34,54.91H30A23,23,0,0,1,9.09,34V30A23,23,0,0,1,30,9.09h4A23,23,0,0,1,54.91,30Z"/><path class="cls-2" d="M30,11V3a2,2,0,0,1,4,0v8A2,2,0,0,1,30,11Z"/><path class="cls-2" d="M30,61V53a2,2,0,0,1,4,0v8A2,2,0,0,1,30,61Z"/><path class="cls-2" d="M53,30h8a2,2,0,0,1,0,4H53A2,2,0,0,1,53,30Z"/><path class="cls-2" d="M3,30h8a2,2,0,0,1,0,4H3A2,2,0,0,1,3,30Z"/><circle class="cls-3" cx="32" cy="32" r="14"/><path class="cls-4" d="M32,34.55a5.09,5.09,0,0,1-5.09-5.1V28.18a5.09,5.09,0,0,1,10.18,0v1.27A5.09,5.09,0,0,1,32,34.55Z"/><path class="cls-5" d="M41.07,42.65a14,14,0,0,1-18.14,0c1-3,.67-2,.74-2.18a8.83,8.83,0,0,1,16.66,0C40.4,40.69,40.06,39.66,41.07,42.65Z"/><path class="cls-6" d="M23.67,40.47c-.07.22.27-.81-.74,2.18a13.92,13.92,0,0,1-4.86-12A14.07,14.07,0,0,0,23.67,40.47Z"/><path class="cls-6" d="M41.07,42.65c-1-3-.67-2-.74-2.18a14.07,14.07,0,0,0,5.6-9.84A13.92,13.92,0,0,1,41.07,42.65Z"/><path class="cls-7" d="M41.07,42.65a14,14,0,0,1-18.14,0c1-3,.67-2,.74-2.18a14.06,14.06,0,0,0,16.66,0C40.4,40.69,40.06,39.66,41.07,42.65Z"/></g></svg>