<svg xmlns="http://www.w3.org/2000/svg" xmlns:xlink="http://www.w3.org/1999/xlink" viewBox="0 0 64 64"><defs><style>.cls-1{fill:#8288a1;}.cls-2{fill:#42455e;}.cls-3{fill:url(#linear-gradient);}.cls-4{fill:url(#linear-gradient-2);}.cls-5{fill:#cba07a;}.cls-6{fill:url(#linear-gradient-3);}.cls-7{fill:url(#linear-gradient-4);}.cls-8{fill:url(#linear-gradient-5);}.cls-9{fill:url(#linear-gradient-6);}.cls-10{fill:url(#linear-gradient-7);}.cls-11{fill:url(#linear-gradient-8);}.cls-12{fill:url(#linear-gradient-9);}.cls-13{fill:#5b8dc9;}</style><linearGradient id="linear-gradient" x1="32" y1="26" x2="32" y2="22" gradientTransform="translate(64 48) rotate(-180)" gradientUnits="userSpaceOnUse"><stop offset="0" stop-color="#9b756d"/><stop offset="1" stop-color="#bc9388"/></linearGradient><linearGradient id="linear-gradient-2" x1="32" y1="52" x2="32" y2="26" gradientTransform="translate(64 78) rotate(-180)" gradientUnits="userSpaceOnUse"><stop offset="0" stop-color="#d1a788"/><stop offset="1" stop-color="#f2d3b8"/></linearGradient><linearGradient id="linear-gradient-3" x1="32" y1="48" x2="32" y2="30" gradientTransform="matrix(1, 0, 0, 1, 0, 0)" xlink:href="#linear-gradient"/><linearGradient id="linear-gradient-4" x1="58" y1="60" x2="58" y2="52" gradientTransform="translate(116 112) rotate(-180)" xlink:href="#linear-gradient"/><linearGradient id="linear-gradient-5" x1="6" y1="60" x2="6" y2="52" gradientTransform="translate(12 112) rotate(-180)" xlink:href="#linear-gradient"/><linearGradient id="linear-gradient-6" x1="11" y1="22" x2="11" y2="14" gradientTransform="translate(22 36) rotate(-180)" gradientUnits="userSpaceOnUse"><stop offset="0" stop-color="#949aaf"/><stop offset="1" stop-color="#c6ccda"/></linearGradient><linearGradient id="linear-gradient-7" x1="53.99" y1="22" x2="53.99" y2="18" gradientUnits="userSpaceOnUse"><stop offset="0" stop-color="#d4d8e1"/><stop offset="1" stop-color="#f3f4f5"/></linearGradient><linearGradient id="linear-gradient-8" x1="54.01" y1="18" x2="54.01" y2="14" xlink:href="#linear-gradient-7"/><linearGradient id="linear-gradient-9" x1="32" y1="22" x2="32" y2="4" gradientTransform="translate(64 26) rotate(-180)" gradientUnits="userSpaceOnUse"><stop offset="0" stop-color="#7aa8d7"/><stop offset="1" stop-color="#c3d2e7"/></linearGradient></defs><title>Teacher Desk</title><g id="Teacher_Desk" data-name="Teacher Desk"><path class="cls-1" d="M12,14V8a1,1,0,0,1,2,0v6A1,1,0,0,1,12,14Z"/><path class="cls-1" d="M8,14V11a1,1,0,0,1,2,0v3A1,1,0,0,1,8,14Z"/><path class="cls-2" d="M41,59V51a1,1,0,0,1,2,0v8A1,1,0,0,1,41,59Z"/><path class="cls-2" d="M21,59V51a1,1,0,0,1,2,0v8A1,1,0,0,1,21,59Z"/><rect class="cls-3" x="1" y="22" width="62" height="4" transform="translate(64 48) rotate(180)"/><rect class="cls-4" x="4" y="26" width="56" height="26" transform="translate(64 78) rotate(180)"/><rect class="cls-5" x="4" y="50" width="56" height="2" transform="translate(64 102) rotate(180)"/><path class="cls-6" d="M13,30H51a4,4,0,0,0,4,4V44a4,4,0,0,0-4,4H13a4,4,0,0,0-4-4V34A4,4,0,0,0,13,30Z"/><rect class="cls-7" x="56" y="52" width="4" height="8" transform="translate(116 112) rotate(180)"/><rect class="cls-8" x="4" y="52" width="4" height="8" transform="translate(12 112) rotate(180)"/><rect class="cls-9" x="7" y="14" width="8" height="8" transform="translate(22 36) rotate(180)"/><path class="cls-10" d="M46,22H60a2,2,0,0,0,0-4H46Z"/><path class="cls-11" d="M60,18H50a2,2,0,0,1,0-4H60Z"/><path class="cls-12" d="M22,4H42a0,0,0,0,1,0,0V17a5,5,0,0,1-5,5H27a5,5,0,0,1-5-5V4A0,0,0,0,1,22,4Z" transform="translate(64 26) rotate(180)"/><rect class="cls-13" x="22" y="20" width="20" height="2"/><path class="cls-13" d="M37,13H27a1,1,0,0,1,0-2H37A1,1,0,0,1,37,13Z"/><path class="cls-13" d="M37,19H27a1,1,0,0,1,0-2H37A1,1,0,0,1,37,19Z"/></g></svg>