<svg xmlns="http://www.w3.org/2000/svg" xmlns:xlink="http://www.w3.org/1999/xlink" viewBox="0 0 64 64"><defs><style>.cls-1{fill:url(#linear-gradient);}.cls-2{fill:#adb3c4;}.cls-3{fill:#4da67f;}.cls-4{fill:url(#linear-gradient-2);}.cls-5{fill:#5b8dc9;}.cls-6{fill:url(#linear-gradient-3);}.cls-7{fill:url(#linear-gradient-4);}.cls-8{fill:url(#linear-gradient-5);}.cls-9{fill:url(#linear-gradient-6);}.cls-10{fill:url(#linear-gradient-7);}.cls-11{fill:url(#linear-gradient-8);}.cls-12{fill:#eab39b;}.cls-13{fill:url(#linear-gradient-13);}.cls-14{fill:#c7cdd8;}</style><linearGradient id="linear-gradient" x1="38" y1="35" x2="38" y2="1" gradientUnits="userSpaceOnUse"><stop offset="0" stop-color="#6ab891"/><stop offset="1" stop-color="#85cba9"/></linearGradient><linearGradient id="linear-gradient-2" x1="20.5" y1="63" x2="20.5" y2="19.01" gradientUnits="userSpaceOnUse"><stop offset="0" stop-color="#7aa8d7"/><stop offset="1" stop-color="#c3d2e7"/></linearGradient><linearGradient id="linear-gradient-3" x1="13.5" y1="26" x2="13.5" y2="13" gradientUnits="userSpaceOnUse"><stop offset="0" stop-color="#f2c4b0"/><stop offset="1" stop-color="#ffe3d7"/></linearGradient><linearGradient id="linear-gradient-4" x1="31" y1="53" x2="31" y2="41" xlink:href="#linear-gradient-3"/><linearGradient id="linear-gradient-5" x1="31" y1="63" x2="31" y2="53" gradientUnits="userSpaceOnUse"><stop offset="0" stop-color="#d4d8e1"/><stop offset="1" stop-color="#f3f4f5"/></linearGradient><linearGradient id="linear-gradient-6" x1="51" y1="53" x2="51" y2="41" xlink:href="#linear-gradient-3"/><linearGradient id="linear-gradient-7" x1="51" x2="51" y2="53" xlink:href="#linear-gradient-5"/><linearGradient id="linear-gradient-8" x1="11" y1="53" x2="11" y2="41" xlink:href="#linear-gradient-3"/><linearGradient id="linear-gradient-13" x1="11" x2="11" y2="53" xlink:href="#linear-gradient-5"/></defs><title>Teaching</title><g id="Teaching"><path class="cls-1" d="M63,1V35H13V1Z"/><path class="cls-2" d="M36,19V5a1,1,0,0,1,2,0V19A1,1,0,0,1,36,19Z"/><rect class="cls-3" x="20" y="32" width="43" height="3"/><path class="cls-4" d="M39,21.22c0,1.05.17.56-7.18,9.78H21V63H6V48a4,4,0,0,1-4-4V32a6,6,0,0,1,6-6H29.18l4.68-5.63C35.69,18.15,39,18.79,39,21.22Z"/><path class="cls-5" d="M21,56.38V63H6V52.1A12,12,0,0,1,21,56.38Z"/><path class="cls-5" d="M7,32V49L6,48a3.66,3.66,0,0,1-1-.13V32A1,1,0,0,1,7,32Z"/><path class="cls-6" d="M13.5,26A5.5,5.5,0,0,1,8,20.5v-2a5.5,5.5,0,0,1,11,0v2A5.5,5.5,0,0,1,13.5,26Z"/><path class="cls-7" d="M31,53a5,5,0,0,1-5-5V46a5,5,0,0,1,10,0v2A5,5,0,0,1,31,53Z"/><path class="cls-8" d="M41,63H21a10,10,0,0,1,20,0Z"/><path class="cls-9" d="M51,53a5,5,0,0,1-5-5V46a5,5,0,0,1,10,0v2A5,5,0,0,1,51,53Z"/><path class="cls-10" d="M61,63H41a10,10,0,0,1,20,0Z"/><path class="cls-11" d="M11,53a5,5,0,0,1-5-5V46a5,5,0,0,1,10,0v2A5,5,0,0,1,11,53Z"/><path class="cls-6" d="M13.5,26A5.5,5.5,0,0,1,8,20.5v-2a5.5,5.5,0,0,1,11,0v2A5.5,5.5,0,0,1,13.5,26Z"/><path class="cls-7" d="M31,53a5,5,0,0,1-5-5V46a5,5,0,0,1,10,0v2A5,5,0,0,1,31,53Z"/><path class="cls-9" d="M51,53a5,5,0,0,1-5-5V46a5,5,0,0,1,10,0v2A5,5,0,0,1,51,53Z"/><path class="cls-11" d="M11,53a5,5,0,0,1-5-5V46a5,5,0,0,1,10,0v2A5,5,0,0,1,11,53Z"/><path class="cls-12" d="M19,18.5v2a5.5,5.5,0,0,1-11,0v-2a5.5,5.5,0,0,0,11,0Z"/><path class="cls-12" d="M36,46v2a5,5,0,0,1-10,0V46a5,5,0,0,0,10,0Z"/><path class="cls-12" d="M56,46v2a5,5,0,0,1-10,0V46a5,5,0,0,0,10,0Z"/><path class="cls-12" d="M16,46v2A5,5,0,0,1,6,48V46a5,5,0,0,0,10,0Z"/><path class="cls-13" d="M21,63H1a10,10,0,0,1,20,0Z"/><path class="cls-14" d="M7,60v3H5V60A1,1,0,0,1,7,60Z"/><path class="cls-14" d="M17,60v3H15V60A1,1,0,0,1,17,60Z"/><path class="cls-14" d="M27,60v3H25V60A1,1,0,0,1,27,60Z"/><path class="cls-14" d="M37,60v3H35V60A1,1,0,0,1,37,60Z"/><path class="cls-14" d="M47,60v3H45V60A1,1,0,0,1,47,60Z"/><path class="cls-14" d="M57,60v3H55V60A1,1,0,0,1,57,60Z"/><path class="cls-14" d="M20.8,61a10.2,10.2,0,0,1,.2,2H1a10,10,0,0,1,.2-2Z"/><path class="cls-14" d="M40.8,61a10.2,10.2,0,0,1,.2,2H21a10,10,0,0,1,.2-2Z"/><path class="cls-14" d="M61,63H41a10,10,0,0,1,.2-2H60.8A10.2,10.2,0,0,1,61,63Z"/></g></svg>