<svg xmlns="http://www.w3.org/2000/svg" xmlns:xlink="http://www.w3.org/1999/xlink" viewBox="0 0 64 64"><defs><style>.cls-1{fill:url(#linear-gradient);}.cls-2{fill:url(#linear-gradient-2);}.cls-3{fill:url(#linear-gradient-3);}.cls-4{fill:#f6b756;}.cls-5{fill:#5b8dc9;}.cls-6{fill:url(#linear-gradient-4);}.cls-7{fill:url(#linear-gradient-5);}.cls-8{fill:url(#linear-gradient-6);}.cls-9{fill:url(#linear-gradient-7);}.cls-10{fill:url(#linear-gradient-8);}.cls-11{fill:url(#linear-gradient-9);}.cls-12{fill:url(#linear-gradient-10);}.cls-13{fill:#42455e;}</style><linearGradient id="linear-gradient" x1="32" y1="27" x2="32" y2="3" gradientUnits="userSpaceOnUse"><stop offset="0" stop-color="#fbcc88"/><stop offset="1" stop-color="#ffe5c3"/></linearGradient><linearGradient id="linear-gradient-2" x1="32" y1="17.17" x2="32" y2="7.38" gradientUnits="userSpaceOnUse"><stop offset="0" stop-color="#7aa8d7"/><stop offset="1" stop-color="#c3d2e7"/></linearGradient><linearGradient id="linear-gradient-3" x1="32" y1="26.99" x2="32" y2="17.19" xlink:href="#linear-gradient-2"/><linearGradient id="linear-gradient-4" x1="13" y1="61" x2="13" y2="37" xlink:href="#linear-gradient"/><linearGradient id="linear-gradient-5" x1="13" y1="51.17" x2="13" y2="41.38" xlink:href="#linear-gradient-2"/><linearGradient id="linear-gradient-6" x1="13" y1="60.99" x2="13" y2="51.19" xlink:href="#linear-gradient-2"/><linearGradient id="linear-gradient-7" x1="51" y1="61" x2="51" y2="37" xlink:href="#linear-gradient"/><linearGradient id="linear-gradient-8" x1="51" y1="51.17" x2="51" y2="41.38" xlink:href="#linear-gradient-2"/><linearGradient id="linear-gradient-9" x1="51" y1="60.99" x2="51" y2="51.19" xlink:href="#linear-gradient-2"/><linearGradient id="linear-gradient-10" x1="32" y1="49" x2="32" y2="25" gradientUnits="userSpaceOnUse"><stop offset="0" stop-color="#474f72"/><stop offset="1" stop-color="#878c9f"/></linearGradient></defs><title>Teamwork</title><g id="Teamwork"><circle class="cls-1" cx="32" cy="15" r="12"/><path class="cls-2" d="M27.64,13v-1.5c0-5.6,8.72-5.45,8.72,0V13C36.36,18.63,27.64,18.47,27.64,13Z"/><path class="cls-3" d="M39.78,24.13a12,12,0,0,1-15.56,0,21.13,21.13,0,0,1,1-2.81,7.56,7.56,0,0,1,13.48,0A21.13,21.13,0,0,1,39.78,24.13Z"/><path class="cls-4" d="M25.26,21.32a21.13,21.13,0,0,0-1,2.81,12,12,0,0,1-4.08-10.91A12,12,0,0,0,25.26,21.32Z"/><path class="cls-4" d="M39.78,24.13a21.13,21.13,0,0,0-1-2.81,12,12,0,0,0,5.12-8.1A12,12,0,0,1,39.78,24.13Z"/><path class="cls-5" d="M39.78,24.13a12,12,0,0,1-15.56,0,21.13,21.13,0,0,1,1-2.81,12,12,0,0,0,13.48,0A21.13,21.13,0,0,1,39.78,24.13Z"/><circle class="cls-6" cx="13" cy="49" r="12"/><path class="cls-7" d="M8.64,47v-1.5c0-5.6,8.72-5.45,8.72,0V47C17.36,52.63,8.64,52.47,8.64,47Z"/><path class="cls-8" d="M20.78,58.13a12,12,0,0,1-15.56,0,21.13,21.13,0,0,1,1-2.81,7.56,7.56,0,0,1,13.48,0A21.13,21.13,0,0,1,20.78,58.13Z"/><path class="cls-4" d="M6.26,55.32a21.13,21.13,0,0,0-1,2.81A12,12,0,0,1,1.14,47.22,12,12,0,0,0,6.26,55.32Z"/><path class="cls-4" d="M20.78,58.13a21.13,21.13,0,0,0-1-2.81,12,12,0,0,0,5.12-8.1A12,12,0,0,1,20.78,58.13Z"/><path class="cls-5" d="M20.78,58.13a12,12,0,0,1-15.56,0,21.13,21.13,0,0,1,1-2.81,12,12,0,0,0,13.48,0A21.13,21.13,0,0,1,20.78,58.13Z"/><circle class="cls-9" cx="51" cy="49" r="12"/><path class="cls-10" d="M46.64,47v-1.5c0-5.6,8.72-5.45,8.72,0V47C55.36,52.63,46.64,52.47,46.64,47Z"/><path class="cls-11" d="M58.78,58.13a12,12,0,0,1-15.56,0,21.13,21.13,0,0,1,1-2.81,7.56,7.56,0,0,1,13.48,0A21.13,21.13,0,0,1,58.78,58.13Z"/><path class="cls-4" d="M44.26,55.32a21.13,21.13,0,0,0-1,2.81,12,12,0,0,1-4.08-10.91A12,12,0,0,0,44.26,55.32Z"/><path class="cls-4" d="M58.78,58.13a21.13,21.13,0,0,0-1-2.81,12,12,0,0,0,5.12-8.1A12,12,0,0,1,58.78,58.13Z"/><path class="cls-5" d="M58.78,58.13a12,12,0,0,1-15.56,0,21.13,21.13,0,0,1,1-2.81,12,12,0,0,0,13.48,0A21.13,21.13,0,0,1,58.78,58.13Z"/><path class="cls-12" d="M40.84,35.36l3-1.76-3-5.2-3,1.76A9.13,9.13,0,0,0,35,28.52V25H29v3.52a9.13,9.13,0,0,0-2.84,1.64L23.11,28.4l-3,5.2,3.05,1.76a8.42,8.42,0,0,0,0,3.28L20.11,40.4l3,5.2,3.05-1.76A9.13,9.13,0,0,0,29,45.48V49h6V45.48a9.13,9.13,0,0,0,2.84-1.64l3,1.76,3-5.2-3-1.76A8.42,8.42,0,0,0,40.84,35.36Z"/><path class="cls-13" d="M41.07,38.77l2.82,1.63-3,5.2-3-1.76A9.13,9.13,0,0,1,35,45.48V49H29V45.48a9.13,9.13,0,0,1-2.84-1.64L23.11,45.6l-3-5.2,2.82-1.63A10.48,10.48,0,0,0,41.07,38.77Z"/><circle class="cls-13" cx="32" cy="37" r="3"/></g></svg>