<svg xmlns="http://www.w3.org/2000/svg" xmlns:xlink="http://www.w3.org/1999/xlink" viewBox="0 0 64 64"><defs><style>.cls-1{fill:#ffd39f;}.cls-2{fill:url(#linear-gradient);}.cls-3{fill:url(#linear-gradient-2);}.cls-4{fill:url(#linear-gradient-3);}.cls-5{fill:url(#linear-gradient-4);}.cls-6{fill:url(#linear-gradient-5);}.cls-7{fill:url(#linear-gradient-6);}.cls-8{fill:url(#linear-gradient-7);}.cls-9{fill:url(#linear-gradient-8);}.cls-10{fill:url(#linear-gradient-9);}.cls-11{fill:url(#linear-gradient-10);}.cls-12{fill:url(#linear-gradient-11);}.cls-13{fill:url(#linear-gradient-12);}.cls-14{fill:url(#linear-gradient-13);}.cls-15{fill:url(#linear-gradient-14);}.cls-16{fill:url(#linear-gradient-15);}.cls-17{fill:url(#linear-gradient-16);}.cls-18{fill:url(#linear-gradient-17);}.cls-19{fill:url(#linear-gradient-18);}.cls-20{fill:url(#linear-gradient-19);}</style><linearGradient id="linear-gradient" x1="32" y1="50" x2="32" y2="14" gradientUnits="userSpaceOnUse"><stop offset="0" stop-color="#7aa8d7"/><stop offset="1" stop-color="#c3d2e7"/></linearGradient><linearGradient id="linear-gradient-2" x1="32" y1="46" x2="32" y2="18" gradientUnits="userSpaceOnUse"><stop offset="0" stop-color="#fbcc88"/><stop offset="1" stop-color="#ffe5c3"/></linearGradient><linearGradient id="linear-gradient-3" x1="38" y1="63" x2="38" y2="59" gradientUnits="userSpaceOnUse"><stop offset="0" stop-color="#e9a254"/><stop offset="1" stop-color="#f4bb79"/></linearGradient><linearGradient id="linear-gradient-4" x1="49" x2="49" xlink:href="#linear-gradient-3"/><linearGradient id="linear-gradient-5" x1="26" x2="26" xlink:href="#linear-gradient-3"/><linearGradient id="linear-gradient-6" x1="15" x2="15" xlink:href="#linear-gradient-3"/><linearGradient id="linear-gradient-7" x1="26" y1="5" x2="26" y2="1" xlink:href="#linear-gradient-3"/><linearGradient id="linear-gradient-8" x1="15" y1="5" x2="15" y2="1" xlink:href="#linear-gradient-3"/><linearGradient id="linear-gradient-9" y1="5" y2="1" xlink:href="#linear-gradient-3"/><linearGradient id="linear-gradient-10" x1="49" y1="5" x2="49" y2="1" xlink:href="#linear-gradient-3"/><linearGradient id="linear-gradient-11" x1="3" y1="40" x2="3" y2="36" xlink:href="#linear-gradient-3"/><linearGradient id="linear-gradient-12" x1="3" y1="51" x2="3" y2="47" xlink:href="#linear-gradient-3"/><linearGradient id="linear-gradient-13" x1="3" y1="28" x2="3" y2="24" xlink:href="#linear-gradient-3"/><linearGradient id="linear-gradient-14" x1="3" y1="17" x2="3" y2="13" xlink:href="#linear-gradient-3"/><linearGradient id="linear-gradient-15" x1="61" y1="28" x2="61" y2="24" xlink:href="#linear-gradient-3"/><linearGradient id="linear-gradient-16" x1="61" y1="17" x2="61" y2="13" xlink:href="#linear-gradient-3"/><linearGradient id="linear-gradient-17" x1="61" y1="40" x2="61" y2="36" xlink:href="#linear-gradient-3"/><linearGradient id="linear-gradient-18" x1="61" y1="51" x2="61" y2="47" xlink:href="#linear-gradient-3"/><linearGradient id="linear-gradient-19" x1="32" y1="42" x2="32" y2="22" gradientUnits="userSpaceOnUse"><stop offset="0" stop-color="#474f72"/><stop offset="1" stop-color="#878c9f"/></linearGradient></defs><title>Technology</title><g id="Technology"><path class="cls-1" d="M27.2,60.4a1,1,0,0,1-.8-1.6L28,56.67V50a1,1,0,0,1,2,0c0,7.54.08,7.23-.2,7.6C27.9,60.13,27.85,60.4,27.2,60.4Z"/><path class="cls-1" d="M36.8,60.4c-.67,0-.72-.3-2.6-2.8-.28-.37-.2-.05-.2-7.6a1,1,0,0,1,2,0v6.67l1.6,2.13A1,1,0,0,1,36.8,60.4Z"/><path class="cls-1" d="M47.3,60.94c-.41,0,0,.17-6.83-4.09-.63-.39-.47-.34-.47-6.85a1,1,0,0,1,2,0v5.45l5.83,3.64A1,1,0,0,1,47.3,60.94Z"/><path class="cls-1" d="M14,59V56a1,1,0,0,1,1-1h7V50a1,1,0,0,1,2,0v6a1,1,0,0,1-1,1H16v2A1,1,0,0,1,14,59Z"/><path class="cls-1" d="M34,14V7c0-.44,0-.39,2-3a1,1,0,0,1,1.6,1.2L36,7.33V14A1,1,0,0,1,34,14Z"/><path class="cls-1" d="M28,14V7.33L26.4,5.2A1,1,0,0,1,28,4l1.8,2.4c.28.37.2,0,.2,7.6A1,1,0,0,1,28,14Z"/><path class="cls-1" d="M22,14V8.55L16.17,4.91a1,1,0,0,1,1.06-1.7l6.3,3.94c.63.39.47.34.47,6.85A1,1,0,0,1,22,14Z"/><path class="cls-1" d="M40,14V8a1,1,0,0,1,1-1h7V5a1,1,0,0,1,2,0V8a1,1,0,0,1-1,1H42v5A1,1,0,0,1,40,14Z"/><path class="cls-1" d="M14,30c-7.54,0-7.23.08-7.6-.2L4,28a1,1,0,0,1,1.2-1.6L7.33,28H14A1,1,0,0,1,14,30Z"/><path class="cls-1" d="M4.6,37.8A1,1,0,0,1,4,36c2.61-2,2.56-2,3-2h7a1,1,0,0,1,0,2H7.33C5,37.73,5,37.8,4.6,37.8Z"/><path class="cls-1" d="M4.06,48.3a1,1,0,0,1-.85-1.53C7.53,39.87,7.25,40,8,40h6a1,1,0,0,1,0,2H8.55C4.58,48.35,4.81,48.3,4.06,48.3Z"/><path class="cls-1" d="M14,24H8a1,1,0,0,1-1-1V16H5a1,1,0,0,1,0-2H8a1,1,0,0,1,1,1v7h5A1,1,0,0,1,14,24Z"/><path class="cls-1" d="M59.4,37.8c-.44,0-.4,0-2.73-1.8H50a1,1,0,0,1,0-2h7c.44,0,.38,0,3,2A1,1,0,0,1,59.4,37.8Z"/><path class="cls-1" d="M57,30H50a1,1,0,0,1,0-2h6.67l2.13-1.6A1,1,0,0,1,60,28C57.38,30,57.44,30,57,30Z"/><path class="cls-1" d="M56,24H50a1,1,0,0,1,0-2h5.45l3.64-5.83a1,1,0,0,1,1.7,1.06C56.47,24.13,56.75,24,56,24Z"/><path class="cls-1" d="M59,50H56a1,1,0,0,1-1-1V42H50a1,1,0,0,1,0-2h6a1,1,0,0,1,1,1v7h2A1,1,0,0,1,59,50Z"/><rect class="cls-2" x="14" y="14" width="36" height="36" rx="4"/><rect class="cls-3" x="18" y="18" width="28" height="28"/><rect class="cls-1" x="18" y="18" width="28" height="2"/><circle class="cls-4" cx="38" cy="61" r="2"/><circle class="cls-5" cx="49" cy="61" r="2"/><circle class="cls-6" cx="26" cy="61" r="2"/><circle class="cls-7" cx="15" cy="61" r="2"/><circle class="cls-8" cx="26" cy="3" r="2"/><circle class="cls-9" cx="15" cy="3" r="2"/><circle class="cls-10" cx="38" cy="3" r="2"/><circle class="cls-11" cx="49" cy="3" r="2"/><circle class="cls-12" cx="3" cy="38" r="2"/><circle class="cls-13" cx="3" cy="49" r="2"/><circle class="cls-14" cx="3" cy="26" r="2"/><circle class="cls-15" cx="3" cy="15" r="2"/><circle class="cls-16" cx="61" cy="26" r="2"/><circle class="cls-17" cx="61" cy="15" r="2"/><circle class="cls-18" cx="61" cy="38" r="2"/><circle class="cls-19" cx="61" cy="49" r="2"/><path class="cls-20" d="M39.7,29.86l2-1.13-2-3.46L37.71,26.4A8.06,8.06,0,0,0,34,24.26V22H30v2.26a8.06,8.06,0,0,0-3.71,2.14l-1.95-1.13-2,3.46,2,1.13a7.78,7.78,0,0,0,0,4.28l-2,1.13,2,3.46,1.95-1.13A8.06,8.06,0,0,0,30,39.74V42h4V39.74a8.06,8.06,0,0,0,3.71-2.14l1.95,1.13,2-3.46-2-1.13A7.78,7.78,0,0,0,39.7,29.86Z"/><circle class="cls-1" cx="32" cy="32" r="3"/></g></svg>