<svg xmlns="http://www.w3.org/2000/svg" viewBox="0 0 128 128"><defs><style>.cls-1{fill:#949aaf;}.cls-2{fill:#8288a1;}.cls-3{fill:#dde1e8;}.cls-4{fill:#c7cdd8;}.cls-5{fill:#8cdd79;}.cls-6{fill:#7ece67;}.cls-7{fill:#9dd5df;}.cls-8{fill:#adb3c4;}.cls-9{fill:#fff;}</style></defs><title>Term of Use</title><g id="Term_of_Use" data-name="Term of Use"><path class="cls-1" d="M127,11v8H107V11a10,10,0,0,1,20,0Z"/><rect class="cls-2" x="107" y="15" width="20" height="4"/><path class="cls-1" d="M97,127H11A10,10,0,0,1,1,117v-8H87v8A10,10,0,0,0,97,127Z"/><path class="cls-2" d="M97,127H11A10,10,0,0,1,1,117v-4a10,10,0,0,0,10,10H89A10,10,0,0,0,97,127Z"/><path class="cls-3" d="M117,1a10,10,0,0,0-10,10V117a10,10,0,0,1-20,0v-8H21V11A10,10,0,0,1,31,1Z"/><path class="cls-4" d="M87,109H21v-4H83A4,4,0,0,1,87,109Z"/><path class="cls-4" d="M107,113v4a10,10,0,0,1-20,0v-4a10,10,0,0,0,20,0Z"/><circle class="cls-5" cx="64" cy="32" r="23"/><path class="cls-6" d="M64,55A23,23,0,0,1,41.09,30a23,23,0,0,0,45.82,0A23,23,0,0,1,64,55Z"/><rect class="cls-7" x="31" y="63" width="6" height="6"/><path class="cls-8" d="M97,64H44a1,1,0,0,1,0-2H97A1,1,0,0,1,97,64Z"/><path class="cls-8" d="M80,70H44a1,1,0,0,1,0-2H80A1,1,0,0,1,80,70Z"/><rect class="cls-7" x="31" y="79" width="6" height="6"/><path class="cls-8" d="M97,80H44a1,1,0,0,1,0-2H97A1,1,0,0,1,97,80Z"/><path class="cls-8" d="M80,86H44a1,1,0,0,1,0-2H80A1,1,0,0,1,80,86Z"/><rect class="cls-7" x="31" y="95" width="6" height="6"/><path class="cls-8" d="M97,96H44a1,1,0,0,1,0-2H97A1,1,0,0,1,97,96Z"/><path class="cls-8" d="M80,102H44a1,1,0,0,1,0-2H80A1,1,0,0,1,80,102Z"/><path class="cls-9" d="M60,41c-.59,0-.08.34-8.72-8.3a1,1,0,0,1,1.44-1.44L60,38.56,75.28,23.28a1,1,0,0,1,1.44,1.44C59.21,42.23,60.6,41,60,41Z"/></g></svg>