<svg xmlns="http://www.w3.org/2000/svg" xmlns:xlink="http://www.w3.org/1999/xlink" viewBox="0 0 64 64"><defs><style>.cls-1{fill:url(#linear-gradient);}.cls-2{fill:#42455e;}.cls-3{fill:url(#linear-gradient-2);}.cls-4{fill:#adb3c4;}.cls-5{fill:#fff;}.cls-6{fill:#cf4055;}</style><linearGradient id="linear-gradient" x1="32" y1="63" x2="32" y2="1" gradientUnits="userSpaceOnUse"><stop offset="0" stop-color="#474f72"/><stop offset="1" stop-color="#878c9f"/></linearGradient><linearGradient id="linear-gradient-2" x1="32" y1="51" x2="32" y2="13" gradientUnits="userSpaceOnUse"><stop offset="0" stop-color="#a0a6ba"/><stop offset="1" stop-color="#c6ccda"/></linearGradient></defs><title>Time Management</title><g id="Time_Management" data-name="Time Management"><path class="cls-1" d="M57.19,25.54l5.16-3-7-12.12-5.17,3A26,26,0,0,0,39,7V1H25V7a26,26,0,0,0-11.18,6.46l-5.17-3-7,12.12,5.16,3a26,26,0,0,0,0,12.92l-5.16,3,7,12.12,5.17-3A26,26,0,0,0,25,57v6H39V57a26,26,0,0,0,11.18-6.46l5.17,3,7-12.12-5.16-3A26,26,0,0,0,57.19,25.54Z"/><path class="cls-2" d="M57.19,38.46l5.16,3-7,12.12-5.17-3A26,26,0,0,1,39,57v6H25V57a26,26,0,0,1-11.18-6.46l-5.17,3-7-12.12,5.16-3a26.45,26.45,0,0,1-.77-8A26,26,0,0,0,58,30.5,26.19,26.19,0,0,1,57.19,38.46Z"/><circle class="cls-3" cx="32" cy="32" r="19"/><path class="cls-4" d="M51,33a19,19,0,0,0-38,0,19,19,0,1,1,38,0Z"/><path class="cls-5" d="M31,18V16a1,1,0,0,1,2,0v2A1,1,0,0,1,31,18Z"/><path class="cls-5" d="M31,48V46a1,1,0,0,1,2,0v2A1,1,0,0,1,31,48Z"/><path class="cls-5" d="M48,33H46a1,1,0,0,1,0-2h2A1,1,0,0,1,48,33Z"/><path class="cls-5" d="M18,33H16a1,1,0,0,1,0-2h2A1,1,0,0,1,18,33Z"/><path class="cls-5" d="M24.87,17.64a1,1,0,0,1-1.74,1A1,1,0,0,1,24.87,17.64Z"/><path class="cls-5" d="M40.87,45.36a1,1,0,0,1-1.74,1A1,1,0,0,1,40.87,45.36Z"/><path class="cls-5" d="M39.13,17.64a1,1,0,0,0,1.74,1A1,1,0,0,0,39.13,17.64Z"/><path class="cls-5" d="M23.13,45.36a1,1,0,0,0,1.74,1A1,1,0,0,0,23.13,45.36Z"/><path class="cls-5" d="M46.36,24.87a1,1,0,0,1-1-1.74A1,1,0,0,1,46.36,24.87Z"/><path class="cls-5" d="M18.64,40.87a1,1,0,0,1-1-1.74A1,1,0,0,1,18.64,40.87Z"/><path class="cls-5" d="M46.36,39.13a1,1,0,0,0-1,1.74A1,1,0,0,0,46.36,39.13Z"/><path class="cls-5" d="M18.64,23.13a1,1,0,0,0-1,1.74A1,1,0,0,0,18.64,23.13Z"/><path class="cls-6" d="M32,34a2,2,0,1,1,2-2A2,2,0,0,1,32,34Zm0-2Z"/><path class="cls-6" d="M31,35V22a1,1,0,0,1,2,0V35A1,1,0,0,1,31,35Z"/><path class="cls-6" d="M40,33H29a1,1,0,0,1,0-2H40A1,1,0,0,1,40,33Z"/></g></svg>