<svg xmlns="http://www.w3.org/2000/svg" xmlns:xlink="http://www.w3.org/1999/xlink" viewBox="0 0 64 64"><defs><style>.cls-1{fill:url(#linear-gradient);}.cls-2{fill:#c7cdd8;}.cls-3{fill:url(#linear-gradient-2);}.cls-4{fill:#5b8dc9;}.cls-5{fill:url(#linear-gradient-3);}.cls-6{fill:#77cacb;}.cls-7{fill:#dfe3ea;}.cls-8{fill:url(#linear-gradient-4);}.cls-9{fill:#dd8b37;}.cls-10{fill:url(#linear-gradient-5);}.cls-11{fill:url(#linear-gradient-6);}.cls-12{fill:url(#linear-gradient-7);}.cls-13{fill:#cba07a;}.cls-14{fill:#d861b0;}.cls-15{fill:#8288a1;}.cls-16{fill:#42455e;}</style><linearGradient id="linear-gradient" x1="11" y1="14" x2="11" y2="6" gradientTransform="translate(22 20) rotate(-180)" gradientUnits="userSpaceOnUse"><stop offset="0" stop-color="#d4d8e1"/><stop offset="1" stop-color="#f3f4f5"/></linearGradient><linearGradient id="linear-gradient-2" x1="8.5" y1="14" x2="8.5" y2="6" gradientUnits="userSpaceOnUse"><stop offset="0" stop-color="#7aa8d7"/><stop offset="1" stop-color="#c3d2e7"/></linearGradient><linearGradient id="linear-gradient-3" x1="32" y1="63" x2="32" y2="21" gradientUnits="userSpaceOnUse"><stop offset="0" stop-color="#9dd5df"/><stop offset="1" stop-color="#c3e1f5"/></linearGradient><linearGradient id="linear-gradient-4" x1="25.5" y1="50" x2="25.5" y2="0.94" gradientUnits="userSpaceOnUse"><stop offset="0" stop-color="#e9a254"/><stop offset="1" stop-color="#f4bb79"/></linearGradient><linearGradient id="linear-gradient-5" x1="5.29" y1="50" x2="5.29" y2="41.43" gradientUnits="userSpaceOnUse"><stop offset="0" stop-color="#d1a788"/><stop offset="1" stop-color="#f2d3b8"/></linearGradient><linearGradient id="linear-gradient-6" x1="44.75" y1="11.5" x2="44.75" y2="1" gradientUnits="userSpaceOnUse"><stop offset="0" stop-color="#d96bb0"/><stop offset="1" stop-color="#e49fc6"/></linearGradient><linearGradient id="linear-gradient-7" x1="40.5" y1="14.5" x2="40.5" y2="6.5" gradientTransform="translate(19.29 -25.56) rotate(45)" gradientUnits="userSpaceOnUse"><stop offset="0" stop-color="#949aaf"/><stop offset="1" stop-color="#c6ccda"/></linearGradient></defs><title>Tools</title><g id="Tools"><path class="cls-1" d="M6,6H18a0,0,0,0,1,0,0v8a0,0,0,0,1,0,0H6a2,2,0,0,1-2-2V8A2,2,0,0,1,6,6Z" transform="translate(22 20) rotate(180)"/><path class="cls-2" d="M18,10v2a2,2,0,0,1-2,2H13V12h3A2,2,0,0,0,18,10Z"/><rect class="cls-3" x="4" y="6" width="9" height="8"/><rect class="cls-4" x="4" y="12" width="9" height="2"/><path class="cls-5" d="M1,63H63V21ZM53,39.85V53H33.59Z"/><polygon class="cls-6" points="63 60 63 63 1 63 5.43 60 63 60"/><path class="cls-7" d="M59,59v4H57V59A1,1,0,0,1,59,59Z"/><path class="cls-7" d="M54,61v2H52V61A1,1,0,0,1,54,61Z"/><path class="cls-7" d="M49,59v4H47V59A1,1,0,0,1,49,59Z"/><path class="cls-7" d="M44,61v2H42V61A1,1,0,0,1,44,61Z"/><path class="cls-7" d="M39,59v4H37V59A1,1,0,0,1,39,59Z"/><path class="cls-7" d="M34,61v2H32V61A1,1,0,0,1,34,61Z"/><path class="cls-7" d="M29,59v4H27V59A1,1,0,0,1,29,59Z"/><path class="cls-7" d="M24,61v2H22V61A1,1,0,0,1,24,61Z"/><path class="cls-7" d="M19,59v4H17V59A1,1,0,0,1,19,59Z"/><path class="cls-7" d="M14,61v2H12V61A1,1,0,0,1,14,61Z"/><path class="cls-8" d="M1,50l8.5-3.5L49.29,6.71a2.41,2.41,0,0,0,0-3.42C47.77,1.77,47.26,1,46,1S48.31-2.31,4.5,41.5Z"/><path class="cls-9" d="M50,5c0,1.38,3.31-2.31-40.5,41.5L1,50l8.5-6.5C52.33.67,49.29,3.72,49.48,3.5A2.4,2.4,0,0,1,50,5Z"/><path class="cls-10" d="M9.57,46.43c-.1.1.71-.25-8.57,3.57,3.74-9.09,3.46-8.46,3.57-8.57A8,8,0,0,1,9.57,46.43Z"/><path class="cls-11" d="M39.5,6.5l5,5,4.79-4.79a2.41,2.41,0,0,0,0-3.42C47.77,1.77,47.26,1,46,1S44.44,1.56,39.5,6.5Z"/><rect class="cls-12" x="38.38" y="6.96" width="4.24" height="7.07" transform="translate(4.44 31.71) rotate(-45)"/><path class="cls-13" d="M8.47,44.29a8.34,8.34,0,0,1,1.1,2.14c-.11.11.58-.2-8.57,3.57Z"/><path class="cls-14" d="M50,5c0,1.4-.56,1.56-5.5,6.5L43,10c6.93-6.93,6.31-6.3,6.48-6.5A2.4,2.4,0,0,1,50,5Z"/><rect class="cls-15" x="40.13" y="11.19" width="4.24" height="2.12" transform="translate(3.71 33.46) rotate(-45)"/><path class="cls-16" d="M1,50l2.77-1.14a3,3,0,0,0-1.63-1.63Z"/></g></svg>