<svg xmlns="http://www.w3.org/2000/svg" xmlns:xlink="http://www.w3.org/1999/xlink" viewBox="0 0 64 64"><defs><style>.cls-1{fill:url(#linear-gradient);}.cls-2{fill:#77cacb;}.cls-3{fill:url(#linear-gradient-2);}.cls-4{fill:#cf4055;}.cls-5{fill:url(#linear-gradient-3);}.cls-6{fill:#fff;}.cls-7{fill:#8288a1;}.cls-8{fill:url(#linear-gradient-4);}.cls-9{fill:#42455e;}.cls-10{fill:#575f7c;}.cls-11{fill:url(#linear-gradient-5);}.cls-12{fill:url(#linear-gradient-6);}.cls-13{fill:url(#linear-gradient-7);}</style><linearGradient id="linear-gradient" x1="32" y1="59" x2="32" y2="5" gradientUnits="userSpaceOnUse"><stop offset="0" stop-color="#9dd5df"/><stop offset="1" stop-color="#c3e1f5"/></linearGradient><linearGradient id="linear-gradient-2" x1="32" y1="59" x2="32" y2="49" gradientUnits="userSpaceOnUse"><stop offset="0" stop-color="#949aaf"/><stop offset="1" stop-color="#c6ccda"/></linearGradient><linearGradient id="linear-gradient-3" x1="10.01" y1="54" x2="35.99" y2="54" gradientUnits="userSpaceOnUse"><stop offset="0" stop-color="#da5466"/><stop offset="1" stop-color="#f4929c"/></linearGradient><linearGradient id="linear-gradient-4" x1="32" y1="40.64" x2="32" y2="24.86" gradientUnits="userSpaceOnUse"><stop offset="0" stop-color="#474f72"/><stop offset="1" stop-color="#878c9f"/></linearGradient><linearGradient id="linear-gradient-5" y1="30" y2="12" xlink:href="#linear-gradient-4"/><linearGradient id="linear-gradient-6" x1="31.01" y1="29.43" x2="49" y2="29.43" gradientUnits="userSpaceOnUse"><stop offset="0" stop-color="#e9a254"/><stop offset="1" stop-color="#f4bb79"/></linearGradient><linearGradient id="linear-gradient-7" x1="48" y1="42" x2="48" y2="37.91" xlink:href="#linear-gradient-6"/></defs><title>Tutorial</title><g id="Tutorial"><rect class="cls-1" x="1" y="5" width="62" height="54"/><rect class="cls-2" x="1" y="46" width="62" height="13"/><rect class="cls-3" x="1" y="49" width="62" height="10"/><path class="cls-4" d="M5,56a1,1,0,0,1-1-1c0-2.08-.12-2.48.47-2.85s1.28.11,3,1a1,1,0,0,1,0,1.78C5.25,56,5.31,56,5,56Z"/><path class="cls-5" d="M35,55H11a1,1,0,0,1,0-2H35A1,1,0,0,1,35,55Z"/><path class="cls-6" d="M34,55V53a1,1,0,0,1,2,0v2A1,1,0,0,1,34,55Z"/><path class="cls-7" d="M59,55H38a1,1,0,0,1,0-2H59A1,1,0,0,1,59,55Z"/><path class="cls-8" d="M44,24.86V34.5c0,2.26-5.37,6.14-12,6.14S20,36.76,20,34.5V24.86Z"/><path class="cls-9" d="M44,31.64V34.5c0,2.26-5.37,6.14-12,6.14S20,36.76,20,34.5V31.64c0,2.26,5.37,6.14,12,6.14S44,33.9,44,31.64Z"/><polygon class="cls-10" points="44 24.86 44 27.04 32 32.18 20 27.04 20 24.86 44 24.86"/><polygon class="cls-11" points="32 30 11 21 32 12 53 21 32 30"/><path class="cls-12" d="M47,38V23.88l-15.13-2a1,1,0,0,1,.26-2l16,2.14A1,1,0,0,1,49,23V38A1,1,0,0,1,47,38Z"/><path class="cls-13" d="M49.55,39.25,50,42H46l.45-2.75A1.57,1.57,0,0,1,49.55,39.25Z"/></g></svg>