<svg xmlns="http://www.w3.org/2000/svg" xmlns:xlink="http://www.w3.org/1999/xlink" viewBox="0 0 64 64"><defs><style>.cls-1{fill:url(#linear-gradient);}.cls-2{fill:url(#linear-gradient-2);}.cls-3{fill:#dd8b37;}.cls-4{fill:#5b8dc9;}.cls-5{fill:url(#linear-gradient-3);}.cls-6{fill:#c7cdd8;}</style><linearGradient id="linear-gradient" x1="35.74" y1="10.24" x2="52" y2="10.24" gradientUnits="userSpaceOnUse"><stop offset="0" stop-color="#e9a254"/><stop offset="1" stop-color="#f4bb79"/></linearGradient><linearGradient id="linear-gradient-2" x1="16.5" y1="57.65" x2="16.5" y2="9" gradientUnits="userSpaceOnUse"><stop offset="0" stop-color="#7aa8d7"/><stop offset="1" stop-color="#c3d2e7"/></linearGradient><linearGradient id="linear-gradient-3" x1="34.5" y1="63" x2="34.5" y2="8" gradientUnits="userSpaceOnUse"><stop offset="0" stop-color="#d4d8e1"/><stop offset="1" stop-color="#f3f4f5"/></linearGradient></defs><title>Unicorn</title><g id="Unicorn"><polygon class="cls-1" points="52 1 44.36 17.57 43.48 19.48 35.74 15.32 37.58 13.7 52 1"/><path class="cls-2" d="M32,9v6L6.78,57.65,4.85,57.1,1,56C3.68,42.57,9,23.63,19,14.43a20.51,20.51,0,0,1,7.85-4.67A17.63,17.63,0,0,1,32,9Z"/><path class="cls-3" d="M44.36,17.57l-.88,1.91-7.74-4.16,1.84-1.62A15.77,15.77,0,0,1,44.36,17.57Z"/><path class="cls-4" d="M32,13v2L6.78,57.65,4.85,57.1C7,45,12.31,28.06,19.63,19.52l9.91-6.29A13.4,13.4,0,0,1,32,13Z"/><path class="cls-5" d="M62.22,38.94l-2.69,7.22a3.38,3.38,0,0,1-3.77,1C41,41.61,42.09,42,42,42c-1.82,1.29-1.36.88-1.51,1-2.73,4.36-1.21,14.79.52,20H6c1.28-12,7.3-33.86,15.85-43A17.7,17.7,0,0,1,21,15a13.83,13.83,0,0,1,2-7l5.75,7.48A11,11,0,0,1,32,15c5.29,0,8.6,1.6,11.48,4.48,5.88,5.8.13,2.3,18.06,14.52A3.38,3.38,0,0,1,62.22,38.94Z"/><path class="cls-6" d="M22.11,23.45c-2.54-5.06-3-11.35.06-16A1,1,0,0,1,23,7c.73,0,0-.7,10.82,13.39a1,1,0,0,1-1.58,1.22l-9-11.77A12.7,12.7,0,0,0,22,15a19.86,19.86,0,0,0,1.89,7.55A1,1,0,0,1,22.11,23.45Z"/><path class="cls-6" d="M42,42c-1.82,1.29-1.36.88-1.51,1a8.25,8.25,0,0,0-1,2.63,14.46,14.46,0,0,1-16.23-2.95,1,1,0,0,1,1.42-1.42,12.44,12.44,0,0,0,16,1.41C41.51,42.12,41.62,42,42,42Z"/><path class="cls-6" d="M42.65,42.24,42,42A1,1,0,0,1,42.65,42.24Z"/><path class="cls-6" d="M41,63H6s.13-1.22.39-3H40.18C40.61,61.83,41,63,41,63Z"/></g></svg>