<svg xmlns="http://www.w3.org/2000/svg" viewBox="0 0 128 128"><defs><style>.cls-1{fill:#7aa8d7;}.cls-2{fill:#5b8dc9;}.cls-3{fill:#f2c4b0;}.cls-4{fill:#eab39b;}</style></defs><title>Unsubscribed</title><g id="Unsubscribed"><path class="cls-1" d="M71,37h38a18,18,0,0,0,12.73-5.27C133,20.42,125,1,109,1H19A18,18,0,0,0,6.27,6.27C-5,17.58,3,37,19,37H57"/><path class="cls-2" d="M109,37H19A18,18,0,0,1,1.34,15.48,18,18,0,0,0,19,30h90a18,18,0,0,0,17.66-14.48A18,18,0,0,1,109,37Z"/><path class="cls-3" d="M113,72.29V92a35,35,0,0,1-70,0V60c0-7.19,14-4.27,14,6V32a7,7,0,1,1,14,0V68a7,7,0,0,1,14,0,7,7,0,0,1,7.21-7A7.19,7.19,0,0,1,99,68.29V72a7,7,0,0,1,7.21-7A7.19,7.19,0,0,1,113,72.29Z"/><path class="cls-4" d="M113,86v6a35,35,0,0,1-70,0V86a34.91,34.91,0,0,0,10.25,24.75C75.1,132.6,113,117.27,113,86Z"/><path class="cls-4" d="M57,66V88a4,4,0,0,1-4-4V58A10,10,0,0,1,57,66Z"/></g></svg>