<svg xmlns="http://www.w3.org/2000/svg" viewBox="0 0 128 128"><defs><style>.cls-1{fill:#9b756d;}.cls-2{fill:#d1a788;}.cls-3{fill:#8a6762;}.cls-4{fill:#dde1e8;}.cls-5{fill:#c7cdd8;}.cls-6{fill:#cba07a;}.cls-7{fill:#8cdd79;}.cls-8{fill:#7ece67;}</style></defs><title>Uploading</title><g id="Uploading"><path class="cls-1" d="M101,73v50a4,4,0,1,1-8,0V89H49L35,83V73Z"/><path class="cls-2" d="M93,123V89H49l-4-6H27v40a4,4,0,0,0,4,4H97A4,4,0,0,1,93,123Z"/><path class="cls-3" d="M101,119v4a4,4,0,0,1-8,0v-4a4,4,0,1,0,8,0Z"/><path class="cls-4" d="M32.11,61a17.15,17.15,0,0,1-1.55-34.22,25.66,25.66,0,0,1,49.36-10C90.79,12.23,102,23.46,97,34.51h2.74a13.25,13.25,0,0,1,0,26.49Z"/><path class="cls-5" d="M99.78,61H32.11A17.13,17.13,0,0,1,15.19,41.36,17.11,17.11,0,0,0,32.11,56H99.78a13.22,13.22,0,0,0,13-10.75A13.24,13.24,0,0,1,99.78,61Z"/><path class="cls-6" d="M97,127H31a4,4,0,0,1-4-4v-4a4,4,0,0,0,4,4H93A4,4,0,0,0,97,127Z"/><path class="cls-7" d="M71,55V81H57V55H50L64,41,78,55H71V81H57V55H50L64,41,78,55H72"/><rect class="cls-8" x="57" y="76" width="14" height="5"/></g></svg>