<svg xmlns="http://www.w3.org/2000/svg" xmlns:xlink="http://www.w3.org/1999/xlink" viewBox="0 0 64 64"><defs><style>.cls-1{fill:url(#linear-gradient);}.cls-2{fill:#42455e;}.cls-3{fill:url(#linear-gradient-2);}.cls-4{fill:#77cacb;}.cls-5{fill:url(#linear-gradient-3);}.cls-6{fill:#c7cdd8;}.cls-7{fill:url(#linear-gradient-4);}.cls-8{fill:url(#linear-gradient-5);}.cls-9{fill:#dd8b37;}.cls-10{fill:#5b8dc9;}</style><linearGradient id="linear-gradient" x1="32" y1="63" x2="32" y2="1" gradientUnits="userSpaceOnUse"><stop offset="0" stop-color="#474f72"/><stop offset="1" stop-color="#878c9f"/></linearGradient><linearGradient id="linear-gradient-2" x1="32" y1="59" x2="32" y2="5" gradientUnits="userSpaceOnUse"><stop offset="0" stop-color="#9dd5df"/><stop offset="1" stop-color="#c3e1f5"/></linearGradient><linearGradient id="linear-gradient-3" x1="32" y1="54" x2="32" y2="38" gradientUnits="userSpaceOnUse"><stop offset="0" stop-color="#d4d8e1"/><stop offset="1" stop-color="#f3f4f5"/></linearGradient><linearGradient id="linear-gradient-4" y1="21.99" x2="32" y2="12" xlink:href="#linear-gradient"/><linearGradient id="linear-gradient-5" x1="32" y1="33" x2="32" y2="21" gradientUnits="userSpaceOnUse"><stop offset="0" stop-color="#e9a254"/><stop offset="1" stop-color="#f4bb79"/></linearGradient></defs><title>User Security</title><g id="User_Security" data-name="User Security"><rect class="cls-1" x="13" y="1" width="38" height="62" rx="4"/><path class="cls-2" d="M51,57v2a4,4,0,0,1-4,4H17a4,4,0,0,1-4-4V57a4,4,0,0,0,4,4H47A4,4,0,0,0,51,57Z"/><path class="cls-3" d="M47,5V59H17V5h7a2,2,0,0,0,2,2H38a2,2,0,0,0,2-2Z"/><path class="cls-2" d="M29,4a1,1,0,0,1-2,0A1,1,0,0,1,29,4Z"/><path class="cls-2" d="M37,4a1,1,0,0,1-2,0A1,1,0,0,1,37,4Z"/><rect class="cls-4" x="17" y="57" width="30" height="2"/><path class="cls-5" d="M59,44v8a2,2,0,0,1-2,2H7a2,2,0,0,1-2-2V44a2,2,0,0,1,2-2H29l3-4,3,4H57A2,2,0,0,1,59,44Z"/><path class="cls-6" d="M59,50v2a2,2,0,0,1-2,2H7a2,2,0,0,1-2-2V50a2,2,0,0,0,2,2H57A2,2,0,0,0,59,50Z"/><path class="cls-7" d="M36,21V18a4,4,0,0,0-8,0v3a1,1,0,0,1-2,0V18a6,6,0,0,1,12,0v3A1,1,0,0,1,36,21Z"/><rect class="cls-8" x="24" y="21" width="16" height="12"/><rect class="cls-9" x="24" y="31" width="16" height="2"/><path class="cls-2" d="M32,24a2,2,0,0,0-1,3.72V29a1,1,0,0,0,2,0V27.72A2,2,0,0,0,32,24Z"/><path class="cls-10" d="M29.23,46.13c-.3.18-.23.21-.23-.13a1,1,0,0,0-2,0c0,.35.06.3-.23.13a1,1,0,0,0-1,1.74c.3.17.29.09,0,.26a1,1,0,0,0,1,1.74c.3-.18.23-.21.23.13a1,1,0,0,0,2,0c0-.35-.06-.3.23-.13a1,1,0,0,0,1-1.74c-.3-.17-.29-.09,0-.26A1,1,0,0,0,29.23,46.13Z"/><path class="cls-10" d="M37.23,46.13c-.3.18-.23.21-.23-.13a1,1,0,0,0-2,0c0,.35.06.3-.23.13a1,1,0,0,0-1,1.74c.3.17.29.09,0,.26a1,1,0,0,0,1,1.74c.3-.18.23-.21.23.13a1,1,0,0,0,2,0c0-.35-.06-.3.23-.13a1,1,0,0,0,1-1.74c-.3-.17-.29-.09,0-.26A1,1,0,0,0,37.23,46.13Z"/><path class="cls-10" d="M45.23,46.13c-.3.18-.23.21-.23-.13a1,1,0,0,0-2,0c0,.35.06.3-.23.13a1,1,0,0,0-1,1.74c.3.17.29.09,0,.26a1,1,0,0,0,1,1.74c.3-.18.23-.21.23.13a1,1,0,0,0,2,0c0-.35-.06-.3.23-.13a1,1,0,0,0,1-1.74c-.3-.17-.29-.09,0-.26A1,1,0,0,0,45.23,46.13Z"/><path class="cls-10" d="M54.23,48.13c-.3-.17-.29-.09,0-.26a1,1,0,0,0-1-1.74c-.3.18-.23.21-.23-.13a1,1,0,0,0-2,0c0,.35.06.3-.23.13a1,1,0,0,0-1,1.74c.3.17.29.09,0,.26a1,1,0,0,0,.5,1.87c.77,0,.73-.63.73,0a1,1,0,0,0,2,0v-.27C54.58,50.64,55.28,48.74,54.23,48.13Z"/><path class="cls-10" d="M21.23,46.13c-.3.18-.23.21-.23-.13a1,1,0,0,0-2,0c0,.35.06.3-.23.13a1,1,0,0,0-1,1.74c.3.17.29.09,0,.26a1,1,0,0,0,1,1.74c.3-.18.23-.21.23.13a1,1,0,0,0,2,0c0-.35-.06-.3.23-.13a1,1,0,0,0,1-1.74c-.3-.17-.29-.09,0-.26A1,1,0,0,0,21.23,46.13Z"/><path class="cls-10" d="M13.23,46.13c-.3.18-.23.21-.23-.13a1,1,0,0,0-2,0c0,.35.06.3-.23.13a1,1,0,0,0-1,1.74c.3.17.29.09,0,.26a1,1,0,0,0,1,1.74c.3-.18.23-.21.23.13a1,1,0,0,0,2,0c0-.35-.06-.3.23-.13a1,1,0,0,0,1-1.74c-.3-.17-.29-.09,0-.26A1,1,0,0,0,13.23,46.13Z"/></g></svg>