<svg xmlns="http://www.w3.org/2000/svg" xmlns:xlink="http://www.w3.org/1999/xlink" viewBox="0 0 64 64"><defs><style>.cls-1{fill:url(#linear-gradient);}.cls-2{fill:url(#linear-gradient-2);}.cls-3{fill:#42455e;}.cls-4{fill:#77cacb;}.cls-5{fill:url(#linear-gradient-3);}.cls-6{fill:url(#linear-gradient-4);}.cls-7{fill:url(#linear-gradient-5);}.cls-8{fill:url(#linear-gradient-6);}.cls-9{fill:#c7cdd8;}.cls-10{fill:url(#linear-gradient-7);}.cls-11{fill:#8288a1;}.cls-12{fill:url(#linear-gradient-8);}.cls-13{fill:#f6b756;}.cls-14{fill:#fff2e3;}.cls-15{fill:#5b8dc9;}</style><linearGradient id="linear-gradient" x1="32" y1="63" x2="32" y2="1" gradientUnits="userSpaceOnUse"><stop offset="0" stop-color="#474f72"/><stop offset="1" stop-color="#878c9f"/></linearGradient><linearGradient id="linear-gradient-2" x1="32" y1="59" x2="32" y2="5" gradientUnits="userSpaceOnUse"><stop offset="0" stop-color="#9dd5df"/><stop offset="1" stop-color="#c3e1f5"/></linearGradient><linearGradient id="linear-gradient-3" x1="49" y1="54" x2="49" y2="34" gradientUnits="userSpaceOnUse"><stop offset="0" stop-color="#fbcc88"/><stop offset="1" stop-color="#ffe5c3"/></linearGradient><linearGradient id="linear-gradient-4" x1="49" y1="45.82" x2="49" y2="37.64" gradientUnits="userSpaceOnUse"><stop offset="0" stop-color="#7aa8d7"/><stop offset="1" stop-color="#c3d2e7"/></linearGradient><linearGradient id="linear-gradient-5" y1="53.99" y2="45.83" xlink:href="#linear-gradient-4"/><linearGradient id="linear-gradient-6" x1="16" y1="53" x2="16" y2="41" gradientUnits="userSpaceOnUse"><stop offset="0" stop-color="#d4d8e1"/><stop offset="1" stop-color="#f3f4f5"/></linearGradient><linearGradient id="linear-gradient-7" x1="49" y1="27" x2="49" y2="13" xlink:href="#linear-gradient-6"/><linearGradient id="linear-gradient-8" x1="15" y1="31" x2="15" y2="13" xlink:href="#linear-gradient-3"/></defs><title>User Experience</title><g id="User_Experience" data-name="User Experience"><rect class="cls-1" x="13" y="1" width="38" height="62" rx="4"/><path class="cls-2" d="M47,5V59H17V5h7a2,2,0,0,0,2,2H38a2,2,0,0,0,2-2Z"/><path class="cls-3" d="M29,4a1,1,0,0,1-2,0A1,1,0,0,1,29,4Z"/><path class="cls-3" d="M37,4a1,1,0,0,1-2,0A1,1,0,0,1,37,4Z"/><rect class="cls-4" x="17" y="57" width="30" height="2"/><circle class="cls-5" cx="49" cy="44" r="10"/><path class="cls-6" d="M49,45.82a3.64,3.64,0,0,1-3.64-3.64v-.91a3.64,3.64,0,0,1,7.28,0v.91A3.64,3.64,0,0,1,49,45.82Z"/><path class="cls-7" d="M55.48,51.61a10,10,0,0,1-13,0l.5-1.48A6.31,6.31,0,0,1,55,50.05S55.47,51.58,55.48,51.61Z"/><rect class="cls-8" x="1" y="41" width="30" height="12"/><rect class="cls-9" x="1" y="51" width="30" height="2"/><rect class="cls-3" x="13" y="53" width="4" height="2"/><rect class="cls-4" x="17" y="53" width="14" height="2"/><rect class="cls-10" x="35" y="13" width="28" height="14"/><rect class="cls-9" x="35" y="25" width="28" height="2"/><rect class="cls-3" x="47" y="27" width="4" height="2"/><rect class="cls-4" x="35" y="27" width="12" height="2"/><path class="cls-11" d="M22,50H6a1,1,0,0,1,0-2H22A1,1,0,0,1,22,50Z"/><path class="cls-11" d="M26,46H6a1,1,0,0,1,0-2H26A1,1,0,0,1,26,46Z"/><rect class="cls-12" x="4" y="13" width="22" height="18"/><rect class="cls-13" x="4" y="29" width="22" height="2"/><rect class="cls-3" x="13" y="31" width="4" height="2"/><rect class="cls-4" x="17" y="31" width="9" height="2"/><path class="cls-14" d="M12,27V21a1,1,0,0,1,2,0v6A1,1,0,0,1,12,27Z"/><path class="cls-14" d="M8,27V25a1,1,0,0,1,2,0v2A1,1,0,0,1,8,27Z"/><path class="cls-14" d="M16,27V22a1,1,0,0,1,2,0v5A1,1,0,0,1,16,27Z"/><path class="cls-14" d="M20,27V17a1,1,0,0,1,2,0V27A1,1,0,0,1,20,27Z"/><path class="cls-15" d="M43,24c-.55,0-.43,0-3.71-3.29a1,1,0,0,1,0-1.42l3-3a1,1,0,0,1,1.42,1.42L41.41,20l2.3,2.29A1,1,0,0,1,43,24Z"/><path class="cls-15" d="M55,24a1,1,0,0,1-.71-1.71L56.59,20l-2.3-2.29a1,1,0,0,1,1.42-1.42l3,3a1,1,0,0,1,0,1.42C55.59,23.82,55.58,24,55,24Z"/><path class="cls-15" d="M47,24a1,1,0,0,1-.83-1.55l4-6a1,1,0,0,1,1.66,1.1C47.48,24.08,47.72,24,47,24Z"/><path class="cls-13" d="M43.05,50.05s-.52,1.53-.53,1.56A10,10,0,0,1,39.05,43,10,10,0,0,0,43.05,50.05Z"/><path class="cls-13" d="M55.48,51.61,55,50.13c-.1-.3,3.47-2.12,4-7.11A10,10,0,0,1,55.48,51.61Z"/><path class="cls-15" d="M55.48,51.61a10,10,0,0,1-13,0s.51-1.53.53-1.56a10,10,0,0,0,6,2c4,0,5.89-2.13,6-1.87Z"/></g></svg>