<svg xmlns="http://www.w3.org/2000/svg" xmlns:xlink="http://www.w3.org/1999/xlink" viewBox="0 0 64 64"><defs><style>.cls-1{fill:url(#linear-gradient);}.cls-2{fill:url(#linear-gradient-2);}.cls-3{fill:#aae0e5;}.cls-4{fill:#77cacb;}.cls-5{fill:url(#linear-gradient-3);}.cls-6{fill:#c7cdd8;}.cls-7{fill:url(#linear-gradient-4);}.cls-8{fill:#cf4055;}.cls-9{fill:#dd8b37;}.cls-10{fill:#7ece67;}.cls-11{fill:url(#linear-gradient-5);}.cls-12{fill:#8288a1;}.cls-13{fill:#d7dbe2;}.cls-14{fill:url(#linear-gradient-6);}.cls-15{fill:#5b8dc9;}.cls-16{fill:url(#linear-gradient-7);}.cls-17{fill:url(#linear-gradient-8);}.cls-18{fill:url(#linear-gradient-9);}.cls-19{fill:url(#linear-gradient-10);}</style><linearGradient id="linear-gradient" x1="32" y1="55" x2="32" y2="15" gradientUnits="userSpaceOnUse"><stop offset="0" stop-color="#a0a6ba"/><stop offset="1" stop-color="#c6ccda"/></linearGradient><linearGradient id="linear-gradient-2" x1="32" y1="51" x2="32" y2="19" gradientUnits="userSpaceOnUse"><stop offset="0" stop-color="#9dd5df"/><stop offset="1" stop-color="#c3e1f5"/></linearGradient><linearGradient id="linear-gradient-3" x1="32" y1="51" x2="32" y2="1" gradientUnits="userSpaceOnUse"><stop offset="0" stop-color="#d4d8e1"/><stop offset="1" stop-color="#f3f4f5"/></linearGradient><linearGradient id="linear-gradient-4" y1="7" y2="1" xlink:href="#linear-gradient"/><linearGradient id="linear-gradient-5" y1="63" y2="55" xlink:href="#linear-gradient"/><linearGradient id="linear-gradient-6" x1="32" y1="21" x2="32" y2="11" gradientUnits="userSpaceOnUse"><stop offset="0" stop-color="#7aa8d7"/><stop offset="1" stop-color="#c3d2e7"/></linearGradient><linearGradient id="linear-gradient-7" y1="31" y2="25" xlink:href="#linear-gradient-6"/><linearGradient id="linear-gradient-8" x1="42" y1="31" x2="42" y2="25" xlink:href="#linear-gradient-6"/><linearGradient id="linear-gradient-9" x1="22" y1="31" x2="22" y2="25" xlink:href="#linear-gradient-6"/><linearGradient id="linear-gradient-10" x1="19" y1="45" x2="45" y2="45" xlink:href="#linear-gradient"/></defs><title>User Interface</title><g id="User_Interface" data-name="User Interface"><path class="cls-1" d="M8,15a3,3,0,0,0-3,3V55H59V18a3,3,0,0,0-3-3Z"/><path class="cls-2" d="M55,19V51H9V19Z"/><path class="cls-3" d="M55,19v2H9V19Z"/><path class="cls-4" d="M55,49v2H9V49Z"/><rect class="cls-5" x="14" y="1" width="36" height="50"/><rect class="cls-6" x="14" y="49" width="36" height="2"/><rect class="cls-7" x="14" y="1" width="36" height="6"/><path class="cls-8" d="M19,4a1,1,0,0,1-2,0A1,1,0,0,1,19,4Z"/><path class="cls-9" d="M23,4a1,1,0,0,1-2,0A1,1,0,0,1,23,4Z"/><path class="cls-10" d="M27,4a1,1,0,0,1-2,0A1,1,0,0,1,27,4Z"/><path class="cls-11" d="M3,55H61a2,2,0,0,1,2,2v2a4,4,0,0,1-4,4H5a4,4,0,0,1-4-4V57A2,2,0,0,1,3,55Z"/><path class="cls-12" d="M63,57v2a4,4,0,0,1-4,4H5a4,4,0,0,1-4-4V57a4,4,0,0,0,4,4H59A4,4,0,0,0,63,57Z"/><polygon class="cls-13" points="40 58 24 58 22 55 42 55 40 58"/><rect class="cls-12" x="5" y="53" width="54" height="2"/><rect class="cls-14" x="19" y="11" width="26" height="10"/><rect class="cls-15" x="19" y="19" width="26" height="2"/><circle class="cls-16" cx="32" cy="28" r="3"/><circle class="cls-17" cx="42" cy="28" r="3"/><circle class="cls-18" cx="22" cy="28" r="3"/><path class="cls-12" d="M25,36H19a1,1,0,0,1,0-2h6A1,1,0,0,1,25,36Z"/><path class="cls-12" d="M25,40H19a1,1,0,0,1,0-2h6A1,1,0,0,1,25,40Z"/><path class="cls-12" d="M35,36H29a1,1,0,0,1,0-2h6A1,1,0,0,1,35,36Z"/><path class="cls-12" d="M35,40H29a1,1,0,0,1,0-2h6A1,1,0,0,1,35,40Z"/><path class="cls-12" d="M45,36H39a1,1,0,0,1,0-2h6A1,1,0,0,1,45,36Z"/><path class="cls-12" d="M45,40H39a1,1,0,0,1,0-2h6A1,1,0,0,1,45,40Z"/><rect class="cls-19" x="19" y="43" width="26" height="4"/></g></svg>