<svg xmlns="http://www.w3.org/2000/svg" xmlns:xlink="http://www.w3.org/1999/xlink" viewBox="0 0 64 64"><defs><style>.cls-1{fill:url(#linear-gradient);}.cls-2{fill:#c7cdd8;}.cls-3{fill:#aae0e5;}.cls-4{fill:url(#linear-gradient-2);}.cls-5{fill:url(#linear-gradient-3);}.cls-6{fill:url(#linear-gradient-4);}.cls-7{fill:#f6b756;}.cls-8{fill:#5b8dc9;}.cls-9{fill:url(#linear-gradient-5);}.cls-10{fill:url(#linear-gradient-6);}.cls-11{fill:url(#linear-gradient-7);}.cls-12{fill:url(#linear-gradient-8);}.cls-13{fill:url(#linear-gradient-9);}.cls-14{fill:url(#linear-gradient-10);}.cls-15{fill:url(#linear-gradient-11);}.cls-16{fill:#cf4055;}.cls-17{fill:#7ece67;}</style><linearGradient id="linear-gradient" x1="32" y1="52" x2="32" y2="1" gradientUnits="userSpaceOnUse"><stop offset="0" stop-color="#d4d8e1"/><stop offset="1" stop-color="#f3f4f5"/></linearGradient><linearGradient id="linear-gradient-2" x1="47" y1="63" x2="47" y2="41" gradientUnits="userSpaceOnUse"><stop offset="0" stop-color="#fbcc88"/><stop offset="1" stop-color="#ffe5c3"/></linearGradient><linearGradient id="linear-gradient-3" x1="47" y1="53.99" x2="47" y2="45.01" gradientUnits="userSpaceOnUse"><stop offset="0" stop-color="#7aa8d7"/><stop offset="1" stop-color="#c3d2e7"/></linearGradient><linearGradient id="linear-gradient-4" x1="47" y1="62.99" x2="47" y2="54.01" xlink:href="#linear-gradient-3"/><linearGradient id="linear-gradient-5" x1="17" y1="63" x2="17" y2="41" xlink:href="#linear-gradient-2"/><linearGradient id="linear-gradient-6" x1="17" y1="53.99" x2="17" y2="45.01" xlink:href="#linear-gradient-3"/><linearGradient id="linear-gradient-7" x1="17" y1="62.99" x2="17" y2="54.01" xlink:href="#linear-gradient-3"/><linearGradient id="linear-gradient-8" x1="32" y1="37" x2="32" y2="15" xlink:href="#linear-gradient-2"/><linearGradient id="linear-gradient-9" x1="32" y1="27.99" x2="32" y2="19.01" xlink:href="#linear-gradient-3"/><linearGradient id="linear-gradient-10" x1="32" y1="36.99" x2="32" y2="28.01" xlink:href="#linear-gradient-3"/><linearGradient id="linear-gradient-11" x1="32" y1="9" x2="32" y2="1" gradientUnits="userSpaceOnUse"><stop offset="0" stop-color="#a0a6ba"/><stop offset="1" stop-color="#c6ccda"/></linearGradient></defs><title>User Acquisitions</title><g id="User_Acquisitions" data-name="User Acquisitions"><path class="cls-1" d="M63,52V1H1V52Z"/><path class="cls-2" d="M63,52V50H1v2Z"/><path class="cls-3" d="M22.34,43.38a1,1,0,0,1-.87-1.49c4.15-7.45,4-7.51,4.77-7.51a1,1,0,0,1,.87,1.49C22.85,43.53,23.13,43.38,22.34,43.38Z"/><path class="cls-3" d="M41.66,43.38c-.8,0-.51.14-4.77-7.51a1,1,0,0,1,.87-1.49c.79,0,.56-.05,4.77,7.51A1,1,0,0,1,41.66,43.38Z"/><circle class="cls-4" cx="47" cy="52" r="11"/><path class="cls-5" d="M43,50.19V48.81c0-5.14,8-5,8,0v1.38C51,55.33,43,55.18,43,50.19Z"/><path class="cls-6" d="M54.13,60.37a11,11,0,0,1-14.26,0,19.58,19.58,0,0,1,1-2.57,6.93,6.93,0,0,1,12.36,0A18.16,18.16,0,0,1,54.13,60.37Z"/><path class="cls-7" d="M40.82,57.8a18.16,18.16,0,0,0-1,2.57,11,11,0,0,1-3.74-10A11,11,0,0,0,40.82,57.8Z"/><path class="cls-7" d="M54.13,60.37a19.58,19.58,0,0,0-1-2.57,11,11,0,0,0,4.69-7.43A10.93,10.93,0,0,1,54.13,60.37Z"/><path class="cls-8" d="M54.13,60.37a11,11,0,0,1-14.26,0,19.58,19.58,0,0,1,1-2.57,11,11,0,0,0,12.36,0A18.16,18.16,0,0,1,54.13,60.37Z"/><circle class="cls-9" cx="17" cy="52" r="11"/><path class="cls-10" d="M13,50.19V48.81c0-5.14,8-5,8,0v1.38C21,55.33,13,55.18,13,50.19Z"/><path class="cls-11" d="M24.13,60.37a11,11,0,0,1-14.26,0,19.58,19.58,0,0,1,1-2.57,6.93,6.93,0,0,1,12.36,0A18.16,18.16,0,0,1,24.13,60.37Z"/><path class="cls-7" d="M10.82,57.8a18.16,18.16,0,0,0-1,2.57,11,11,0,0,1-3.74-10A11,11,0,0,0,10.82,57.8Z"/><path class="cls-7" d="M24.13,60.37a19.58,19.58,0,0,0-.95-2.57,11,11,0,0,0,4.69-7.43A10.93,10.93,0,0,1,24.13,60.37Z"/><path class="cls-8" d="M24.13,60.37a11,11,0,0,1-14.26,0,19.58,19.58,0,0,1,1-2.57,11,11,0,0,0,12.36,0A18.16,18.16,0,0,1,24.13,60.37Z"/><circle class="cls-12" cx="32" cy="26" r="11"/><path class="cls-13" d="M28,24.19V22.81c0-5.14,8-5,8,0v1.38C36,29.33,28,29.18,28,24.19Z"/><path class="cls-14" d="M39.13,34.37a11,11,0,0,1-14.26,0,19.58,19.58,0,0,1,.95-2.57,6.93,6.93,0,0,1,12.36,0A18.16,18.16,0,0,1,39.13,34.37Z"/><path class="cls-7" d="M25.82,31.8a18.16,18.16,0,0,0-.95,2.57,11,11,0,0,1-3.74-10A11,11,0,0,0,25.82,31.8Z"/><path class="cls-7" d="M39.13,34.37a19.58,19.58,0,0,0-1-2.57,11,11,0,0,0,4.69-7.43A10.93,10.93,0,0,1,39.13,34.37Z"/><path class="cls-8" d="M39.13,34.37a11,11,0,0,1-14.26,0,19.58,19.58,0,0,1,.95-2.57,11,11,0,0,0,12.36,0A18.16,18.16,0,0,1,39.13,34.37Z"/><rect class="cls-15" x="1" y="1" width="62" height="8"/><path class="cls-16" d="M7,5A1,1,0,0,1,5,5,1,1,0,0,1,7,5Z"/><path class="cls-7" d="M12,5a1,1,0,0,1-2,0A1,1,0,0,1,12,5Z"/><path class="cls-17" d="M17,5a1,1,0,0,1-2,0A1,1,0,0,1,17,5Z"/></g></svg>