<svg xmlns="http://www.w3.org/2000/svg" viewBox="0 0 128 128"><defs><style>.cls-1{fill:#9b756d;}.cls-2{fill:#8a6762;}.cls-3{fill:#dde1e8;}.cls-4{fill:#c7cdd8;}.cls-5{fill:#8cdd79;}.cls-6{fill:#7ece67;}.cls-7{fill:#fff;}.cls-8{fill:#9dd5df;}.cls-9{fill:#adb3c4;}.cls-10{fill:#949aaf;}.cls-11{fill:#8288a1;}</style></defs><title>Verification</title><g id="Verification"><rect class="cls-1" x="1" y="12" width="92" height="115" rx="3"/><path class="cls-2" d="M93,121v3a3,3,0,0,1-3,3H4a3,3,0,0,1-3-3v-3a3,3,0,0,0,3,3H90A3,3,0,0,0,93,121Z"/><rect class="cls-3" x="10" y="19" width="74" height="100"/><path class="cls-4" d="M84,114v5H10v-5Z"/><circle class="cls-5" cx="104" cy="83" r="23"/><path class="cls-6" d="M104,106A23,23,0,0,1,81.09,81a23,23,0,0,0,45.82,0A23,23,0,0,1,104,106Z"/><path class="cls-2" d="M93,103.19v4a23.1,23.1,0,0,1-9-8.84v-4A23.08,23.08,0,0,0,93,103.19Z"/><path class="cls-4" d="M84,94.36v4A22.88,22.88,0,0,1,81.09,85,22.92,22.92,0,0,0,84,94.36Z"/><path class="cls-7" d="M100,92c-.59,0-.08.34-8.72-8.3a1,1,0,0,1,1.44-1.44L100,89.56l15.28-15.28a1,1,0,0,1,1.44,1.44C99.21,93.23,100.6,92,100,92Z"/><rect class="cls-8" x="18" y="35" width="58" height="13"/><path class="cls-9" d="M76,60H24a1,1,0,0,1,0-2H76A1,1,0,0,1,76,60Z"/><path class="cls-9" d="M76,68H18a1,1,0,0,1,0-2H76A1,1,0,0,1,76,68Z"/><path class="cls-9" d="M76,76H18a1,1,0,0,1,0-2H76A1,1,0,0,1,76,76Z"/><path class="cls-9" d="M48,84H18a1,1,0,0,1,0-2H48A1,1,0,0,1,48,84Z"/><path class="cls-9" d="M76,92H24a1,1,0,0,1,0-2H76A1,1,0,0,1,76,92Z"/><path class="cls-9" d="M76,100H18a1,1,0,0,1,0-2H76A1,1,0,0,1,76,100Z"/><path class="cls-9" d="M64,108H18a1,1,0,0,1,0-2H64A1,1,0,0,1,64,108Z"/><path class="cls-10" d="M54.93,8A8,8,0,0,0,39.07,8H27V24H67V8ZM47,12a3,3,0,1,1,3-3A3,3,0,0,1,47,12Z"/><rect class="cls-11" x="27" y="20" width="40" height="4"/></g></svg>