<svg xmlns="http://www.w3.org/2000/svg" viewBox="0 0 128 128"><defs><style>.cls-1{fill:#7aa8d7;}.cls-2{fill:#5b8dc9;}.cls-3{fill:#dde1e8;}.cls-4{fill:#c7cdd8;}.cls-5{fill:#9b756d;}.cls-6{fill:#8a6762;}.cls-7{fill:#9dd5df;}.cls-8{fill:#77cacb;}.cls-9{fill:#d6ac90;}.cls-10{fill:#cba07a;}.cls-11{fill:#8288a1;}.cls-12{fill:#e2607f;}.cls-13{fill:#dd4e6a;}</style></defs><title>Waiting</title><g id="Waiting"><path class="cls-1" d="M105,53A52,52,0,0,0,1,53c0,36.63,37.11,62,71.24,48.32v0A52,52,0,0,0,105,53Z"/><path class="cls-2" d="M72.25,101.3v0c-36,14-72.9-13.92-71.2-50.24A52,52,0,0,0,33.75,97.3v0a52.15,52.15,0,0,0,38.48,0v0A52,52,0,0,0,105,51.08,52,52,0,0,1,72.25,101.3Z"/><path class="cls-3" d="M97,53A44,44,0,1,0,55.15,97,44,44,0,0,0,97,53Z"/><path class="cls-4" d="M97,55a44,44,0,0,0-87.9,0C7.59,30.94,27.28,9,53,9S98.41,30.91,97,55Z"/><rect class="cls-5" x="67" y="119" width="58" height="8"/><rect class="cls-5" x="67" y="53" width="58" height="8"/><rect class="cls-6" x="67" y="58" width="58" height="3"/><rect class="cls-6" x="67" y="124" width="58" height="3"/><path class="cls-7" d="M122,71.46V61H70V71.46a12.58,12.58,0,0,0,4.68,9.84L85.6,90,74.68,98.7A12.58,12.58,0,0,0,70,108.54V119h52V108.54a12.58,12.58,0,0,0-4.68-9.84L106.4,90l10.92-8.7A12.58,12.58,0,0,0,122,71.46Z"/><rect class="cls-8" x="70" y="115" width="52" height="4"/><path class="cls-9" d="M78.92,77a64.74,64.74,0,0,0,34.17,0C96.66,90.09,97,89.36,96,92,95,89.27,95.08,89.88,78.92,77Z"/><polygon class="cls-9" points="116 119 76 119 96 99 116 119"/><path class="cls-10" d="M116,119c-42.28,0-39.9,0-40,0C87,113.68,104.92,113.65,116,119Z"/><path class="cls-9" d="M95,100V90a1,1,0,0,1,2,0v10A1,1,0,0,1,95,100Z"/><path class="cls-11" d="M52,15V13a1,1,0,0,1,2,0v2A1,1,0,0,1,52,15Z"/><path class="cls-11" d="M52,93V91a1,1,0,0,1,2,0v2A1,1,0,0,1,52,93Z"/><path class="cls-11" d="M15,54H13a1,1,0,0,1,0-2h2A1,1,0,0,1,15,54Z"/><path class="cls-11" d="M33.87,17.86a1,1,0,0,1-1.74,1A1,1,0,0,1,33.87,17.86Z"/><path class="cls-11" d="M73.87,87.14a1,1,0,0,1-1.74,1A1,1,0,0,1,73.87,87.14Z"/><path class="cls-11" d="M72.13,17.86a1,1,0,0,0,1.74,1A1,1,0,0,0,72.13,17.86Z"/><path class="cls-11" d="M32.13,87.14a1,1,0,0,0,1.74,1A1,1,0,0,0,32.13,87.14Z"/><path class="cls-11" d="M88.14,33.87a1,1,0,0,1-1-1.74A1,1,0,0,1,88.14,33.87Z"/><path class="cls-11" d="M18.86,73.87a1,1,0,0,1-1-1.74A1,1,0,0,1,18.86,73.87Z"/><path class="cls-11" d="M18.86,32.13a1,1,0,0,0-1,1.74A1,1,0,0,0,18.86,32.13Z"/><path class="cls-12" d="M52,58V23a1,1,0,0,1,2,0V58A1,1,0,0,1,52,58Z"/><path class="cls-12" d="M57,54H27a1,1,0,0,1,0-2H57A1,1,0,0,1,57,54Z"/><path class="cls-13" d="M55,53a2,2,0,1,1-2-2A2,2,0,0,1,55,53Z"/></g></svg>