<svg xmlns="http://www.w3.org/2000/svg" xmlns:xlink="http://www.w3.org/1999/xlink" viewBox="0 0 64 64"><defs><style>.cls-1{fill:url(#linear-gradient);}.cls-2{fill:url(#linear-gradient-2);}.cls-3{fill:#aae0e5;}.cls-4{fill:#77cacb;}.cls-5{fill:url(#linear-gradient-3);}.cls-6{fill:#c7cdd8;}.cls-7{fill:url(#linear-gradient-4);}.cls-8{fill:#cf4055;}.cls-9{fill:#dd8b37;}.cls-10{fill:#7ece67;}.cls-11{fill:url(#linear-gradient-5);}.cls-12{fill:#8288a1;}.cls-13{fill:#d7dbe2;}.cls-14{fill:url(#linear-gradient-6);}.cls-15{fill:url(#linear-gradient-7);}.cls-16{fill:url(#linear-gradient-8);}</style><linearGradient id="linear-gradient" x1="32" y1="55" x2="32" y2="15" gradientUnits="userSpaceOnUse"><stop offset="0" stop-color="#a0a6ba"/><stop offset="1" stop-color="#c6ccda"/></linearGradient><linearGradient id="linear-gradient-2" x1="32" y1="51" x2="32" y2="19" gradientUnits="userSpaceOnUse"><stop offset="0" stop-color="#9dd5df"/><stop offset="1" stop-color="#c3e1f5"/></linearGradient><linearGradient id="linear-gradient-3" x1="32" y1="51" x2="32" y2="1" gradientUnits="userSpaceOnUse"><stop offset="0" stop-color="#d4d8e1"/><stop offset="1" stop-color="#f3f4f5"/></linearGradient><linearGradient id="linear-gradient-4" y1="7" y2="1" xlink:href="#linear-gradient"/><linearGradient id="linear-gradient-5" y1="63" y2="55" xlink:href="#linear-gradient"/><linearGradient id="linear-gradient-6" x1="32" y1="40" x2="32" y2="18" gradientUnits="userSpaceOnUse"><stop offset="0" stop-color="#e9a254"/><stop offset="1" stop-color="#f4bb79"/></linearGradient><linearGradient id="linear-gradient-7" y1="33.99" y2="24.01" xlink:href="#linear-gradient-3"/><linearGradient id="linear-gradient-8" y1="36.99" y2="35.01" xlink:href="#linear-gradient-3"/></defs><title>Warning</title><g id="Warning"><path class="cls-1" d="M8,15a3,3,0,0,0-3,3V55H59V18a3,3,0,0,0-3-3Z"/><path class="cls-2" d="M55,19V51H9V19Z"/><path class="cls-3" d="M55,19v2H9V19Z"/><path class="cls-4" d="M55,49v2H9V49Z"/><rect class="cls-5" x="14" y="1" width="36" height="50"/><rect class="cls-6" x="14" y="49" width="36" height="2"/><rect class="cls-7" x="14" y="1" width="36" height="6"/><path class="cls-8" d="M19,4a1,1,0,0,1-2,0A1,1,0,0,1,19,4Z"/><path class="cls-9" d="M23,4a1,1,0,0,1-2,0A1,1,0,0,1,23,4Z"/><path class="cls-10" d="M27,4a1,1,0,0,1-2,0A1,1,0,0,1,27,4Z"/><path class="cls-11" d="M3,55H61a2,2,0,0,1,2,2v2a4,4,0,0,1-4,4H5a4,4,0,0,1-4-4V57a2,2,0,0,1,2-2Z"/><path class="cls-12" d="M63,57v2a4,4,0,0,1-4,4H5a4,4,0,0,1-4-4V57a4,4,0,0,0,4,4H59A4,4,0,0,0,63,57Z"/><polygon class="cls-13" points="40 58 24 58 22 55 42 55 40 58"/><rect class="cls-12" x="5" y="53" width="54" height="2"/><path class="cls-14" d="M30.48,18.85C18.31,38.83,19,37.48,19,38.2A1.81,1.81,0,0,0,20.8,40H43.2a1.8,1.8,0,0,0,1.54-2.73L33.52,18.85A1.78,1.78,0,0,0,30.48,18.85Z"/><path class="cls-9" d="M43.2,40H20.8a1.8,1.8,0,0,1-1.5-2.8,1.8,1.8,0,0,0,1.5.8c24,0,23.14.34,23.9-.8A1.8,1.8,0,0,1,43.2,40Z"/><path class="cls-15" d="M31,33V25a1,1,0,0,1,2,0v8A1,1,0,0,1,31,33Z"/><path class="cls-16" d="M33,36a1,1,0,0,1-2,0A1,1,0,0,1,33,36Z"/></g></svg>