<svg xmlns="http://www.w3.org/2000/svg" xmlns:xlink="http://www.w3.org/1999/xlink" viewBox="0 0 64 64"><defs><style>.cls-1{fill:url(#linear-gradient);}.cls-2{fill:#c7cdd8;}.cls-3{fill:url(#linear-gradient-2);}.cls-4{fill:#cf4055;}.cls-5{fill:#f6b756;}.cls-6{fill:#7ece67;}.cls-7{fill:url(#linear-gradient-3);}.cls-8{fill:#5b8dc9;}.cls-9{fill:#9ca0ad;}.cls-10{fill:url(#linear-gradient-4);}.cls-11{fill:url(#linear-gradient-5);}.cls-12{fill:url(#linear-gradient-6);}.cls-13{fill:#77cacb;}</style><linearGradient id="linear-gradient" x1="32" y1="63" x2="32" y2="1" gradientUnits="userSpaceOnUse"><stop offset="0" stop-color="#d4d8e1"/><stop offset="1" stop-color="#f3f4f5"/></linearGradient><linearGradient id="linear-gradient-2" x1="32" y1="9" x2="32" y2="1" gradientUnits="userSpaceOnUse"><stop offset="0" stop-color="#a0a6ba"/><stop offset="1" stop-color="#c6ccda"/></linearGradient><linearGradient id="linear-gradient-3" x1="32" y1="29" x2="32" y2="14" gradientUnits="userSpaceOnUse"><stop offset="0" stop-color="#7aa8d7"/><stop offset="1" stop-color="#c3d2e7"/></linearGradient><linearGradient id="linear-gradient-4" x1="15" y1="40" x2="15" y2="34" gradientUnits="userSpaceOnUse"><stop offset="0" stop-color="#9dd5df"/><stop offset="1" stop-color="#c3e1f5"/></linearGradient><linearGradient id="linear-gradient-5" x1="32" x2="32" xlink:href="#linear-gradient-4"/><linearGradient id="linear-gradient-6" x1="49" x2="49" xlink:href="#linear-gradient-4"/></defs><title>Website</title><g id="Website"><path class="cls-1" d="M60,63V1H4V63Z"/><path class="cls-2" d="M60,63V61H4v2Z"/><rect class="cls-3" x="4" y="1" width="56" height="8"/><path class="cls-4" d="M10,5A1,1,0,0,1,8,5,1,1,0,0,1,10,5Z"/><path class="cls-5" d="M15,5a1,1,0,0,1-2,0A1,1,0,0,1,15,5Z"/><path class="cls-6" d="M20,5a1,1,0,0,1-2,0A1,1,0,0,1,20,5Z"/><rect class="cls-7" x="9" y="14" width="46" height="15"/><rect class="cls-8" x="9" y="27" width="46" height="2"/><path class="cls-9" d="M21,46H9a1,1,0,0,1,0-2H21A1,1,0,0,1,21,46Z"/><path class="cls-9" d="M21,50H9a1,1,0,0,1,0-2H21A1,1,0,0,1,21,50Z"/><path class="cls-9" d="M38,46H26a1,1,0,0,1,0-2H38A1,1,0,0,1,38,46Z"/><path class="cls-9" d="M38,50H26a1,1,0,0,1,0-2H38A1,1,0,0,1,38,50Z"/><path class="cls-9" d="M55,46H43a1,1,0,0,1,0-2H55A1,1,0,0,1,55,46Z"/><path class="cls-9" d="M55,50H43a1,1,0,0,1,0-2H55A1,1,0,0,1,55,50Z"/><path class="cls-9" d="M55,59H9a1,1,0,0,1,0-2H55A1,1,0,0,1,55,59Z"/><path class="cls-9" d="M55,55H9a1,1,0,0,1,0-2H55A1,1,0,0,1,55,55Z"/><rect class="cls-10" x="9" y="34" width="12" height="6"/><rect class="cls-11" x="26" y="34" width="12" height="6"/><rect class="cls-12" x="43" y="34" width="12" height="6"/><rect class="cls-13" x="9" y="38" width="12" height="2"/><rect class="cls-13" x="26" y="38" width="12" height="2"/><rect class="cls-13" x="43" y="38" width="12" height="2"/></g></svg>