<svg xmlns="http://www.w3.org/2000/svg" viewBox="0 0 128 128"><defs><style>.cls-1{fill:#4da67f;}.cls-2{fill:#6ab891;}.cls-3{fill:#fbcc88;}.cls-4{fill:#f6b756;}.cls-5{fill:#7aa8d7;}.cls-6{fill:#5b8dc9;}</style></defs><title>Welcome</title><g id="Welcome"><path class="cls-1" d="M10,111,1,127H36.08A2.92,2.92,0,0,0,39,124.08V95H1Z"/><path class="cls-2" d="M14.25,107.74l23.32,13.83A2.92,2.92,0,0,1,39,124.08V103c-25.23,0-24.22-.31-25.25.75A2.54,2.54,0,0,0,14.25,107.74Z"/><path class="cls-1" d="M118,111l9,16H91.92A2.92,2.92,0,0,1,89,124.08V95h38Z"/><path class="cls-2" d="M115,74v31.55a2.49,2.49,0,0,0-.75-1.8c-1.14-1.17,4.59-.75-98.7-.75A2.55,2.55,0,0,0,13,105.55V74a3,3,0,0,1,3-3h96A3,3,0,0,1,115,74Z"/><path class="cls-1" d="M115,101.55v4a2.49,2.49,0,0,0-.75-1.8c-1.14-1.17,4.59-.75-98.7-.75A2.55,2.55,0,0,0,13,105.55c0-3.85-.26-4.81.75-5.8,1.14-1.17-4.59-.75,98.7-.75A2.55,2.55,0,0,1,115,101.55Z"/><path class="cls-2" d="M113.75,107.74,90.43,121.57A2.92,2.92,0,0,0,89,124.08V103c25.23,0,24.22-.31,25.25.75A2.54,2.54,0,0,1,113.75,107.74Z"/><path class="cls-3" d="M84.56,57.5h0C63.92,74.94,32,60.2,32,33A32,32,0,0,1,64,1C93.91,1,107.3,38.45,84.56,57.5Z"/><path class="cls-4" d="M84.56,57.5h0C63.1,75.66,29.51,58.9,32.14,30a32,32,0,0,0,63.72,0A31.89,31.89,0,0,1,84.56,57.5Z"/><path class="cls-5" d="M84.53,57.51a31.86,31.86,0,0,1-41.06,0C49.35,32.81,78.65,32.84,84.53,57.51Z"/><circle class="cls-5" cx="64" cy="27" r="12"/><path class="cls-6" d="M64,39A12,12,0,0,1,52.17,25a12,12,0,0,0,23.66,0A12,12,0,0,1,64,39Z"/><path class="cls-6" d="M84.53,57.51a31.86,31.86,0,0,1-41.06,0A29.28,29.28,0,0,1,45,52.74a31.86,31.86,0,0,0,37.94,0A29.28,29.28,0,0,1,84.53,57.51Z"/></g></svg>