<svg xmlns="http://www.w3.org/2000/svg" xmlns:xlink="http://www.w3.org/1999/xlink" viewBox="0 0 64 64"><defs><style>.cls-1{fill:#77cacb;}.cls-2{fill:url(#linear-gradient);}.cls-3{fill:url(#linear-gradient-2);}.cls-4{fill:url(#linear-gradient-3);}.cls-5{fill:#c7cdd8;}.cls-6{fill:url(#linear-gradient-4);}.cls-7{fill:url(#linear-gradient-5);}.cls-8{fill:url(#linear-gradient-6);}.cls-9{fill:#9ca0ad;}.cls-10{fill:url(#linear-gradient-7);}.cls-11{fill:#cf4055;}.cls-12{fill:#5b8dc9;}.cls-13{fill:url(#linear-gradient-8);}.cls-14{fill:url(#linear-gradient-9);}.cls-15{fill:url(#linear-gradient-10);}.cls-16{fill:url(#linear-gradient-11);}</style><linearGradient id="linear-gradient" x1="9" y1="23" x2="9" y2="1" gradientUnits="userSpaceOnUse"><stop offset="0" stop-color="#d4d8e1"/><stop offset="1" stop-color="#f3f4f5"/></linearGradient><linearGradient id="linear-gradient-2" x1="32" y1="23" x2="32" y2="1" xlink:href="#linear-gradient"/><linearGradient id="linear-gradient-3" x1="55" y1="23" x2="55" y2="1" xlink:href="#linear-gradient"/><linearGradient id="linear-gradient-4" y1="63" x2="9" y2="41" xlink:href="#linear-gradient"/><linearGradient id="linear-gradient-5" x1="32" y1="63" x2="32" y2="41" xlink:href="#linear-gradient"/><linearGradient id="linear-gradient-6" x1="55" y1="63" x2="55" y2="41" xlink:href="#linear-gradient"/><linearGradient id="linear-gradient-7" x1="55" y1="57" x2="55" y2="47" gradientUnits="userSpaceOnUse"><stop offset="0" stop-color="#e9a254"/><stop offset="1" stop-color="#f4bb79"/></linearGradient><linearGradient id="linear-gradient-8" x1="32" y1="53" x2="32" y2="45" gradientUnits="userSpaceOnUse"><stop offset="0" stop-color="#9dd5df"/><stop offset="1" stop-color="#c3e1f5"/></linearGradient><linearGradient id="linear-gradient-9" x1="9" y1="56.99" x2="9" y2="51.01" gradientUnits="userSpaceOnUse"><stop offset="0" stop-color="#fbcc88"/><stop offset="1" stop-color="#ffe5c3"/></linearGradient><linearGradient id="linear-gradient-10" x1="5" y1="56.99" x2="5" y2="48.01" xlink:href="#linear-gradient-9"/><linearGradient id="linear-gradient-11" x1="13" y1="56.99" x2="13" y2="46.01" xlink:href="#linear-gradient-9"/></defs><title>Work Flow</title><g id="Work_Flow" data-name="Work Flow"><path class="cls-1" d="M24,13H17a1,1,0,0,1,0-2h7A1,1,0,0,1,24,13Z"/><path class="cls-1" d="M47,13H40a1,1,0,0,1,0-2h7A1,1,0,0,1,47,13Z"/><path class="cls-1" d="M8,41V32a1,1,0,0,1,1-1H54V23a1,1,0,0,1,2,0v9a1,1,0,0,1-1,1H10v8A1,1,0,0,1,8,41Z"/><path class="cls-1" d="M24,53H17a1,1,0,0,1,0-2h7A1,1,0,0,1,24,53Z"/><path class="cls-1" d="M47,53H40a1,1,0,0,1,0-2h7A1,1,0,0,1,47,53Z"/><rect class="cls-2" x="1" y="1" width="16" height="22"/><rect class="cls-3" x="24" y="1" width="16" height="22"/><rect class="cls-4" x="47" y="1" width="16" height="22"/><rect class="cls-5" x="1" y="20" width="16" height="3"/><rect class="cls-5" x="24" y="20" width="16" height="3"/><rect class="cls-5" x="47" y="20" width="16" height="3"/><rect class="cls-6" x="1" y="41" width="16" height="22"/><rect class="cls-7" x="24" y="41" width="16" height="22"/><rect class="cls-8" x="47" y="41" width="16" height="22"/><rect class="cls-9" x="4" y="6" width="10" height="4"/><rect class="cls-9" x="4" y="14" width="10" height="4"/><polygon class="cls-10" points="55 47 56.61 50.31 60.26 50.82 57.6 53.37 58.25 57 55 55.27 51.75 57 52.4 53.37 49.74 50.82 53.39 50.31 55 47"/><path class="cls-11" d="M33,26a1,1,0,0,1-2,0A1,1,0,0,1,33,26Z"/><path class="cls-11" d="M33,29a1,1,0,0,1-2,0A1,1,0,0,1,33,29Z"/><path class="cls-11" d="M33,35a1,1,0,0,1-2,0A1,1,0,0,1,33,35Z"/><path class="cls-11" d="M33,32a1,1,0,0,1-2,0A1,1,0,0,1,33,32Z"/><path class="cls-11" d="M33,38a1,1,0,0,1-2,0A1,1,0,0,1,33,38Z"/><path class="cls-12" d="M55,14a5,5,0,1,1,5-5A5,5,0,0,1,55,14Zm0-8a3,3,0,1,0,3,3A3,3,0,0,0,55,6Z"/><path class="cls-12" d="M54,19V13a1,1,0,0,1,2,0v6A1,1,0,0,1,54,19Z"/><rect class="cls-13" x="27" y="45" width="10" height="8"/><path class="cls-9" d="M36,59H28a1,1,0,0,1,0-2h8A1,1,0,0,1,36,59Z"/><path class="cls-14" d="M8,56V52a1,1,0,0,1,2,0v4A1,1,0,0,1,8,56Z"/><path class="cls-15" d="M4,56V49a1,1,0,0,1,2,0v7A1,1,0,0,1,4,56Z"/><path class="cls-16" d="M12,56V47a1,1,0,0,1,2,0v9A1,1,0,0,1,12,56Z"/><path class="cls-9" d="M36,7H28a1,1,0,0,1,0-2h8A1,1,0,0,1,36,7Z"/><path class="cls-9" d="M36,11H28a1,1,0,0,1,0-2h8A1,1,0,0,1,36,11Z"/><path class="cls-9" d="M36,15H28a1,1,0,0,1,0-2h8A1,1,0,0,1,36,15Z"/><path class="cls-9" d="M36,19H28a1,1,0,0,1,0-2h8A1,1,0,0,1,36,19Z"/><rect class="cls-5" x="1" y="60" width="16" height="3"/><rect class="cls-5" x="24" y="60" width="16" height="3"/><rect class="cls-5" x="47" y="60" width="16" height="3"/></g></svg>