<svg xmlns="http://www.w3.org/2000/svg" viewBox="0 0 128 128"><defs><style>.cls-1{fill:#dde1e8;}.cls-2{fill:#c7cdd8;}.cls-3{fill:#7aa8d7;}.cls-4{fill:#5b8dc9;}.cls-5{fill:#949aaf;}.cls-6{fill:#edf0f4;}.cls-7{fill:#8cdd79;}.cls-8{fill:#fff;}</style></defs><title>You are Up to date</title><g id="You_are_Up_to_date" data-name="You are Up to date"><rect class="cls-1" x="3" y="34" width="122" height="93"/><rect class="cls-2" x="3" y="122" width="122" height="5"/><rect class="cls-3" x="1" y="8" width="126" height="26" rx="2"/><path class="cls-4" d="M127,27v5a2,2,0,0,1-2,2H3a2,2,0,0,1-2-2V27a2,2,0,0,0,2,2H125A2,2,0,0,0,127,27Z"/><path class="cls-5" d="M15,18V2a1,1,0,0,1,2,0V18A1,1,0,0,1,15,18Z"/><path class="cls-5" d="M27,18V2a1,1,0,0,1,2,0V18A1,1,0,0,1,27,18Z"/><path class="cls-5" d="M39,18V2a1,1,0,0,1,2,0V18A1,1,0,0,1,39,18Z"/><path class="cls-5" d="M51,18V2a1,1,0,0,1,2,0V18A1,1,0,0,1,51,18Z"/><path class="cls-5" d="M63,18V2a1,1,0,0,1,2,0V18A1,1,0,0,1,63,18Z"/><path class="cls-5" d="M75,18V2a1,1,0,0,1,2,0V18A1,1,0,0,1,75,18Z"/><path class="cls-5" d="M87,18V2a1,1,0,0,1,2,0V18A1,1,0,0,1,87,18Z"/><path class="cls-5" d="M99,18V2a1,1,0,0,1,2,0V18A1,1,0,0,1,99,18Z"/><path class="cls-5" d="M111,18V2a1,1,0,0,1,2,0V18A1,1,0,0,1,111,18Z"/><path class="cls-6" d="M125,34V98a10,10,0,0,1-20,0L3,127V34Z"/><path class="cls-5" d="M115,108,3,127,105,98A10,10,0,0,0,115,108Z"/><circle class="cls-7" cx="64" cy="71" r="23"/><path class="cls-8" d="M60,80c-.59,0-.08.34-8.72-8.3a1,1,0,0,1,1.44-1.44L60,77.56,75.28,62.28a1,1,0,0,1,1.44,1.44C59.21,81.23,60.6,80,60,80Z"/></g></svg>