<svg style="position: absolute; width: 0; height: 0; overflow: hidden;" version="1.1" xmlns="http://www.w3.org/2000/svg" xmlns:xlink="http://www.w3.org/1999/xlink">
<defs>
<symbol id="icon-sign-out" viewBox="0 0 28 32">
<title>sign-out</title>
<path class="path1" d="M11.429 25.714q0 0.071 0.018 0.357t0.009 0.473-0.054 0.42-0.179 0.348-0.366 0.116h-5.714q-2.125 0-3.634-1.509t-1.509-3.634v-12.571q0-2.125 1.509-3.634t3.634-1.509h5.714q0.232 0 0.402 0.17t0.17 0.402q0 0.071 0.018 0.357t0.009 0.473-0.054 0.42-0.179 0.348-0.366 0.116h-5.714q-1.179 0-2.018 0.839t-0.839 2.018v12.571q0 1.179 0.839 2.018t2.018 0.839h5.571t0.205 0.018 0.205 0.054 0.143 0.098 0.125 0.161 0.036 0.241zM28 16q0 0.464-0.339 0.804l-9.714 9.714q-0.339 0.339-0.804 0.339t-0.804-0.339-0.339-0.804v-5.143h-8q-0.464 0-0.804-0.339t-0.339-0.804v-6.857q0-0.464 0.339-0.804t0.804-0.339h8v-5.143q0-0.464 0.339-0.804t0.804-0.339 0.804 0.339l9.714 9.714q0.339 0.339 0.339 0.804z"></path>
</symbol>
<symbol id="icon-add" viewBox="0 0 24 24">
<title>add</title>
<path class="path1" d="M18.984 12.984h-6v6h-1.969v-6h-6v-1.969h6v-6h1.969v6h6v1.969z"></path>
</symbol>
<symbol id="icon-save" viewBox="0 0 24 24">
<title>save</title>
<path class="path1" d="M15 9v-3.984h-9.984v3.984h9.984zM12 18.984q1.219 0 2.109-0.891t0.891-2.109-0.891-2.109-2.109-0.891-2.109 0.891-0.891 2.109 0.891 2.109 2.109 0.891zM17.016 3l3.984 3.984v12q0 0.797-0.609 1.406t-1.406 0.609h-13.969q-0.844 0-1.43-0.609t-0.586-1.406v-13.969q0-0.797 0.586-1.406t1.43-0.609h12z"></path>
</symbol>
<symbol id="icon-cancel" viewBox="0 0 24 24">
<title>cancel</title>
<path class="path1" d="M17.016 15.609l-3.609-3.609 3.609-3.609-1.406-1.406-3.609 3.609-3.609-3.609-1.406 1.406 3.609 3.609-3.609 3.609 1.406 1.406 3.609-3.609 3.609 3.609zM12 2.016q4.125 0 7.055 2.93t2.93 7.055-2.93 7.055-7.055 2.93-7.055-2.93-2.93-7.055 2.93-7.055 7.055-2.93z"></path>
</symbol>
<symbol id="icon-menu" viewBox="0 0 24 24">
<title>menu</title>
<path class="path1" d="M3 6h18v2.016h-18v-2.016zM3 12.984v-1.969h18v1.969h-18zM3 18v-2.016h18v2.016h-18z"></path>
</symbol>
<symbol id="icon-more" viewBox="0 0 24 24">
<title>more</title>
<path class="path1" d="M12 15.984q0.797 0 1.406 0.609t0.609 1.406-0.609 1.406-1.406 0.609-1.406-0.609-0.609-1.406 0.609-1.406 1.406-0.609zM12 9.984q0.797 0 1.406 0.609t0.609 1.406-0.609 1.406-1.406 0.609-1.406-0.609-0.609-1.406 0.609-1.406 1.406-0.609zM12 8.016q-0.797 0-1.406-0.609t-0.609-1.406 0.609-1.406 1.406-0.609 1.406 0.609 0.609 1.406-0.609 1.406-1.406 0.609z"></path>
</symbol>
<symbol id="icon-settings" viewBox="0 0 24 24">
<title>settings</title>
<path class="path1" d="M12 15.516q1.453 0 2.484-1.031t1.031-2.484-1.031-2.484-2.484-1.031-2.484 1.031-1.031 2.484 1.031 2.484 2.484 1.031zM19.453 12.984l2.109 1.641q0.328 0.234 0.094 0.656l-2.016 3.469q-0.188 0.328-0.609 0.188l-2.484-0.984q-0.984 0.703-1.688 0.984l-0.375 2.625q-0.094 0.422-0.469 0.422h-4.031q-0.375 0-0.469-0.422l-0.375-2.625q-0.891-0.375-1.688-0.984l-2.484 0.984q-0.422 0.141-0.609-0.188l-2.016-3.469q-0.234-0.422 0.094-0.656l2.109-1.641q-0.047-0.328-0.047-0.984t0.047-0.984l-2.109-1.641q-0.328-0.234-0.094-0.656l2.016-3.469q0.188-0.328 0.609-0.188l2.484 0.984q0.984-0.703 1.688-0.984l0.375-2.625q0.094-0.422 0.469-0.422h4.031q0.375 0 0.469 0.422l0.375 2.625q0.891 0.375 1.688 0.984l2.484-0.984q0.422-0.141 0.609 0.188l2.016 3.469q0.234 0.422-0.094 0.656l-2.109 1.641q0.047 0.328 0.047 0.984t-0.047 0.984z"></path>
</symbol>
<symbol id="icon-heart" viewBox="0 0 24 24">
<title>favorite</title>
<path class="path1" d="M12 21.328l-1.453-1.313c-5.156-4.688-8.531-7.734-8.531-11.531 0-3.094 2.391-5.484 5.484-5.484 1.734 0 3.422 0.844 4.5 2.109 1.078-1.266 2.766-2.109 4.5-2.109 3.094 0 5.484 2.391 5.484 5.484 0 3.797-3.375 6.891-8.531 11.578z"></path>
</symbol>
<symbol id="icon-cogs" viewBox="0 0 34 32">
<title>cogs</title>
<path class="path1" d="M16 16q0-1.893-1.339-3.232t-3.232-1.339-3.232 1.339-1.339 3.232 1.339 3.232 3.232 1.339 3.232-1.339 1.339-3.232zM29.714 25.143q0-0.929-0.679-1.607t-1.607-0.679-1.607 0.679-0.679 1.607q0 0.946 0.67 1.616t1.616 0.67 1.616-0.67 0.67-1.616zM29.714 6.857q0-0.929-0.679-1.607t-1.607-0.679-1.607 0.679-0.679 1.607q0 0.946 0.67 1.616t1.616 0.67 1.616-0.67 0.67-1.616zM22.857 14.375v3.304q0 0.179-0.125 0.348t-0.286 0.188l-2.768 0.429q-0.196 0.625-0.571 1.357 0.607 0.857 1.607 2.054 0.125 0.179 0.125 0.357 0 0.214-0.125 0.339-0.411 0.536-1.473 1.598t-1.402 1.063q-0.196 0-0.375-0.125l-2.054-1.607q-0.661 0.339-1.375 0.554-0.196 1.929-0.411 2.768-0.125 0.429-0.536 0.429h-3.321q-0.196 0-0.357-0.134t-0.179-0.313l-0.411-2.732q-0.607-0.179-1.339-0.554l-2.107 1.589q-0.125 0.125-0.357 0.125-0.196 0-0.375-0.143-2.571-2.375-2.571-2.857 0-0.161 0.125-0.339 0.179-0.25 0.732-0.946t0.839-1.089q-0.411-0.786-0.625-1.464l-2.714-0.429q-0.179-0.018-0.304-0.17t-0.125-0.348v-3.304q0-0.179 0.125-0.348t0.286-0.188l2.768-0.429q0.196-0.625 0.571-1.357-0.607-0.857-1.607-2.054-0.125-0.196-0.125-0.357 0-0.214 0.125-0.357 0.393-0.536 1.464-1.589t1.411-1.054q0.196 0 0.375 0.125l2.054 1.607q0.607-0.321 1.375-0.571 0.196-1.929 0.411-2.75 0.125-0.429 0.536-0.429h3.321q0.196 0 0.357 0.134t0.179 0.313l0.411 2.732q0.607 0.179 1.339 0.554l2.107-1.589q0.143-0.125 0.357-0.125 0.196 0 0.375 0.143 2.571 2.375 2.571 2.857 0 0.161-0.125 0.339-0.214 0.286-0.75 0.964t-0.804 1.071q0.411 0.857 0.607 1.464l2.714 0.411q0.179 0.036 0.304 0.188t0.125 0.348zM34.286 23.893v2.5q0 0.286-2.661 0.554-0.214 0.482-0.536 0.929 0.911 2.018 0.911 2.464 0 0.071-0.071 0.125-2.179 1.268-2.214 1.268-0.143 0-0.821-0.839t-0.929-1.214q-0.357 0.036-0.536 0.036t-0.536-0.036q-0.25 0.375-0.929 1.214t-0.821 0.839q-0.036 0-2.214-1.268-0.071-0.054-0.071-0.125 0-0.446 0.911-2.464-0.321-0.446-0.536-0.929-2.661-0.268-2.661-0.554v-2.5q0-0.286 2.661-0.554 0.232-0.518 0.536-0.929-0.911-2.018-0.911-2.464 0-0.071 0.071-0.125 0.071-0.036 0.625-0.357t1.054-0.607 0.536-0.286q0.143 0 0.821 0.83t0.929 1.205q0.357-0.036 0.536-0.036t0.536 0.036q0.911-1.268 1.643-2l0.107-0.036q0.071 0 2.214 1.25 0.071 0.054 0.071 0.125 0 0.446-0.911 2.464 0.304 0.411 0.536 0.929 2.661 0.268 2.661 0.554zM34.286 5.607v2.5q0 0.286-2.661 0.554-0.214 0.482-0.536 0.929 0.911 2.018 0.911 2.464 0 0.071-0.071 0.125-2.179 1.268-2.214 1.268-0.143 0-0.821-0.839t-0.929-1.214q-0.357 0.036-0.536 0.036t-0.536-0.036q-0.25 0.375-0.929 1.214t-0.821 0.839q-0.036 0-2.214-1.268-0.071-0.054-0.071-0.125 0-0.446 0.911-2.464-0.321-0.446-0.536-0.929-2.661-0.268-2.661-0.554v-2.5q0-0.286 2.661-0.554 0.232-0.518 0.536-0.929-0.911-2.018-0.911-2.464 0-0.071 0.071-0.125 0.071-0.036 0.625-0.357t1.054-0.607 0.536-0.286q0.143 0 0.821 0.83t0.929 1.205q0.357-0.036 0.536-0.036t0.536 0.036q0.911-1.268 1.643-2l0.107-0.036q0.071 0 2.214 1.25 0.071 0.054 0.071 0.125 0 0.446-0.911 2.464 0.304 0.411 0.536 0.929 2.661 0.268 2.661 0.554z"></path>
</symbol>
<symbol id="icon-profile" viewBox="0 0 24 24">
<title>profile</title>
<path class="path1" d="M12 14.016q2.531 0 5.273 1.102t2.742 2.883v2.016h-16.031v-2.016q0-1.781 2.742-2.883t5.273-1.102zM12 12q-1.641 0-2.813-1.172t-1.172-2.813 1.172-2.836 2.813-1.195 2.813 1.195 1.172 2.836-1.172 2.813-2.813 1.172z"></path>
</symbol>
<symbol id="icon-search" viewBox="0 0 24 24">
<title>search</title>
<path class="path1" d="M9.516 14.016c2.484 0 4.5-2.016 4.5-4.5s-2.016-4.5-4.5-4.5-4.5 2.016-4.5 4.5 2.016 4.5 4.5 4.5zM15.516 14.016l4.969 4.969-1.5 1.5-4.969-4.969v-0.797l-0.281-0.281c-1.125 0.984-2.625 1.547-4.219 1.547-3.609 0-6.516-2.859-6.516-6.469s2.906-6.516 6.516-6.516 6.469 2.906 6.469 6.516c0 1.594-0.563 3.094-1.547 4.219l0.281 0.281h0.797z"></path>
</symbol>
<symbol id="icon-modules" viewBox="0 0 24 24">
<title>modules</title>
<path class="path1" d="M15.984 5.016h5.016v6h-5.016v-6zM9.984 11.016v-6h5.016v6h-5.016zM15.984 18v-6h5.016v6h-5.016zM9.984 18v-6h5.016v6h-5.016zM3.984 18v-6h5.016v6h-5.016zM3.984 11.016v-6h5.016v6h-5.016z"></path>
</symbol>
<symbol id="icon-dashboard" viewBox="0 0 24 24">
<title>dashboard</title>
<path class="path1" d="M20.016 12v-8.016h-5.016v8.016l2.484-1.5zM20.016 2.016c1.078 0 1.969 0.891 1.969 1.969v12c0 1.078-0.891 2.016-1.969 2.016h-12c-1.078 0-2.016-0.938-2.016-2.016v-12c0-1.078 0.938-1.969 2.016-1.969h12zM3.984 6v14.016h14.016v1.969h-14.016c-1.078 0-1.969-0.891-1.969-1.969v-14.016h1.969z"></path>
</symbol>
<symbol id="icon-add" viewBox="0 0 24 24">
<title>add</title>
<path class="path1" d="M18.984 12.984h-6v6h-1.969v-6h-6v-1.969h6v-6h1.969v6h6v1.969z"></path>
</symbol>
<symbol id="icon-category" viewBox="0 0 24 24">
<title>category</title>
<path class="path1" d="M9.984 3.984l2.016 2.016h8.016c1.078 0 1.969 0.938 1.969 2.016v9.984c0 1.078-0.891 2.016-1.969 2.016h-16.031c-1.078 0-1.969-0.938-1.969-2.016v-12c0-1.078 0.891-2.016 1.969-2.016h6z"></path>
</symbol>
<symbol id="icon-about" viewBox="0 0 24 24">
<title>about</title>
<path class="path1" d="M11.016 9v-2.016h1.969v2.016h-1.969zM12 20.016q3.281 0 5.648-2.367t2.367-5.648-2.367-5.648-5.648-2.367-5.648 2.367-2.367 5.648 2.367 5.648 5.648 2.367zM12 2.016q4.125 0 7.055 2.93t2.93 7.055-2.93 7.055-7.055 2.93-7.055-2.93-2.93-7.055 2.93-7.055 7.055-2.93zM11.016 17.016v-6h1.969v6h-1.969z"></path>
</symbol>
<symbol id="icon-help" viewBox="0 0 24 24">
<title>help</title>
<path class="path1" d="M14.859 13.078q2.156-1.5 2.156-4.078 0-2.063-1.477-3.539t-3.539-1.477-3.539 1.477-1.477 3.539q0 2.578 2.156 4.078l0.844 0.609v2.297h4.031v-2.297zM12 2.016q2.906 0 4.945 2.039t2.039 4.945q0 3.656-3 5.719v2.297q0 0.422-0.281 0.703t-0.703 0.281h-6q-0.422 0-0.703-0.281t-0.281-0.703v-2.297q-3-2.063-3-5.719 0-2.906 2.039-4.945t4.945-2.039zM9 21v-0.984h6v0.984q0 0.422-0.281 0.703t-0.703 0.281h-4.031q-0.422 0-0.703-0.281t-0.281-0.703z"></path>
</symbol>
<symbol id="icon-next" viewBox="0 0 24 24">
<title>next</title>
<path class="path1" d="M15.984 9h4.031v11.016h-4.031v-11.016zM3.984 20.016v-8.016h4.031v8.016h-4.031zM9.984 20.016v-16.031h4.031v16.031h-4.031z"></path>
</symbol>
<symbol id="icon-edit" viewBox="0 0 24 24">
<title>edit</title>
<path class="path1" d="M20.719 7.031l-1.828 1.828-3.75-3.75 1.828-1.828c0.375-0.375 1.031-0.375 1.406 0l2.344 2.344c0.375 0.375 0.375 1.031 0 1.406zM3 17.25l11.063-11.063 3.75 3.75-11.063 11.063h-3.75v-3.75z"></path>
</symbol>
<symbol id="icon-delete" viewBox="0 0 24 24">
<title>delete</title>
<path class="path1" d="M18.984 3.984v2.016h-13.969v-2.016h3.469l1.031-0.984h4.969l1.031 0.984h3.469zM6 18.984v-12h12v12c0 1.078-0.938 2.016-2.016 2.016h-7.969c-1.078 0-2.016-0.938-2.016-2.016z"></path>
</symbol>
<symbol id="icon-view" viewBox="0 0 24 24">
<title>view</title>
<path class="path1" d="M12 9c1.641 0 3 1.359 3 3s-1.359 3-3 3-3-1.359-3-3 1.359-3 3-3zM12 17.016c2.766 0 5.016-2.25 5.016-5.016s-2.25-5.016-5.016-5.016-5.016 2.25-5.016 5.016 2.25 5.016 5.016 5.016zM12 4.5c5.016 0 9.281 3.094 11.016 7.5-1.734 4.406-6 7.5-11.016 7.5s-9.281-3.094-11.016-7.5c1.734-4.406 6-7.5 11.016-7.5z"></path>
</symbol>
</defs>
<symbol id="icon-reduce" viewBox="0 0 24 24">
<title>reduce</title>
<path class="path1" d="M18.984 12.984h-13.969v-1.969h13.969v1.969z"></path>
</symbol>
<symbol id="icon-close" viewBox="0 0 24 24">
<title>close</title>
<path class="path1" d="M18.984 6.422l-5.578 5.578 5.578 5.578-1.406 1.406-5.578-5.578-5.578 5.578-1.406-1.406 5.578-5.578-5.578-5.578 1.406-1.406 5.578 5.578 5.578-5.578z"></path>
</symbol>
<symbol id="icon-drag" viewBox="0 0 24 24">
<title>drag</title>
<path class="path1" d="M3.984 15v-2.016h16.031v2.016h-16.031zM20.016 9v2.016h-16.031v-2.016h16.031z"></path>
</symbol>
</svg>
