<svg xmlns="http://www.w3.org/2000/svg" viewBox="0 0 128 128"><defs><style>.cls-1{fill:#a0aec0;}</style></defs><title>404 Error </title><g id="_404_Error" data-name="404 Error"><path class="cls-1" d="M51,73v1H37a7,7,0,0,0-7,7v20a7,7,0,0,0,7,7H51v1a1,1,0,0,0,2,0V73A1,1,0,0,0,51,73Z"/><polygon class="cls-1" points="20 98.5 28 101 28 81 20 83.5 20 98.5"/><rect class="cls-1" x="1" y="86" width="17" height="10"/><path class="cls-1" d="M92,74H77V73a1,1,0,0,0-2,0v36a1,1,0,0,0,2,0v-1H92a6,6,0,0,0,6-6V80A6,6,0,0,0,92,74Z"/><polygon class="cls-1" points="100 101 108 98.5 108 83.5 100 81 100 101"/><rect class="cls-1" x="110" y="86" width="17" height="10"/><path class="cls-1" d="M64,64A23,23,0,1,0,41,41,23,23,0,0,0,64,64ZM53.28,31.72a1,1,0,0,1,1.44-1.44L64,39.56l9.28-9.28a1,1,0,0,1,1.44,1.44L65.44,41l9.28,9.28A1,1,0,0,1,74,52c-.6,0,.06.48-10-9.58C54,52.49,54.6,52,54,52a1,1,0,0,1-.72-1.74L62.56,41Z"/><path class="cls-1" d="M67,77H55v6c12.76,0,12.91.31,14.1-.88A3,3,0,0,0,67,77Z"/><path class="cls-1" d="M67,99H55v6c12.76,0,12.91.31,14.1-.88A3,3,0,0,0,67,99Z"/></g></svg>