<svg xmlns="http://www.w3.org/2000/svg" viewBox="0 0 128 128"><defs><style>.cls-1{fill:#a0aec0;}</style></defs><title>About</title><g id="About"><path class="cls-1" d="M64,43A28,28,0,1,0,92,71,28,28,0,0,0,64,43Zm-.5,12a1.52,1.52,0,0,1,0,3A1.52,1.52,0,0,1,63.5,55ZM67,86H61a1,1,0,0,1,0-2h2V62H62a1,1,0,0,1,0-2h2a1,1,0,0,1,1,1V84h2A1,1,0,0,1,67,86Z"/><path class="cls-1" d="M64,17.51,15,54.85V114h98V54.84ZM64,101A30,30,0,1,1,94,71,30.06,30.06,0,0,1,64,101Z"/><rect class="cls-1" x="1" y="116" width="126" height="11"/><path class="cls-1" d="M127,49V63L64,15,1,63V49L64,1Z"/></g></svg>