<svg xmlns="http://www.w3.org/2000/svg" viewBox="0 0 64 64">
  <defs>
    <style>
      .cls-1 {
        fill: #a0aec0;
      }
    </style>
  </defs>
  <g id="Affiliate">
    <path class="cls-1"
      d="M16.68,19.23A7.42,7.42,0,0,1,16,17.45,5.31,5.31,0,0,0,6,17.44c-.52,1.57-.52,1.62-.65,1.79A10,10,0,0,0,16.68,19.23Z" />
    <path class="cls-1" d="M13.64,9.18V8.27a2.64,2.64,0,0,0-5.28,0v.91a2.64,2.64,0,0,0,5.28,0Z" />
    <path class="cls-1"
      d="M7.82,12.55A5.09,5.09,0,0,1,6.36,8.27a4.64,4.64,0,0,1,9.28,0c0,1.47,0,2.89-1.46,4.28,2.72,1.3,3.48,3.45,4.1,5.31a10,10,0,1,0-14.56,0C4.4,15.82,5.16,13.82,7.82,12.55Z" />
    <path class="cls-1"
      d="M16,59.45A5.31,5.31,0,0,0,6,59.44c-.56,1.68-.51,1.6-.65,1.78a10,10,0,0,0,11.36,0C16.55,61,16.59,61.12,16,59.45Z" />
    <path class="cls-1" d="M13.64,51.18v-.91a2.64,2.64,0,0,0-5.28,0v.91a2.64,2.64,0,0,0,5.28,0Z" />
    <path class="cls-1"
      d="M11,43A10,10,0,0,0,3.72,59.85c.69-2,1.45-4,4.1-5.3a5.09,5.09,0,0,1-1.46-4.28,4.64,4.64,0,0,1,9.28,0c0,1.47,0,2.89-1.46,4.28,2.7,1.29,3.47,3.41,4.1,5.3A10,10,0,0,0,11,43Z" />
    <path class="cls-1"
      d="M58,59.45a5.31,5.31,0,0,0-10.06,0c-.56,1.68-.51,1.6-.65,1.78a10,10,0,0,0,11.36,0C58.55,61,58.59,61.12,58,59.45Z" />
    <path class="cls-1" d="M55.64,51.18v-.91a2.64,2.64,0,0,0-5.28,0v.91a2.64,2.64,0,1,0,5.28,0Z" />
    <path class="cls-1"
      d="M53,43a10,10,0,0,0-7.28,16.85c.69-2,1.45-4,4.1-5.3a5.09,5.09,0,0,1-1.46-4.28,4.64,4.64,0,0,1,9.28,0c0,1.47,0,2.89-1.46,4.28,2.7,1.29,3.47,3.41,4.1,5.3A10,10,0,0,0,53,43Z" />
    <path class="cls-1"
      d="M48,17.44c-.56,1.68-.51,1.6-.65,1.78a10,10,0,0,0,11.36,0c-.13-.18-.09-.1-.65-1.77A5.31,5.31,0,0,0,48,17.44Z" />
    <path class="cls-1" d="M55.64,9.18V8.27a2.64,2.64,0,0,0-5.28,0v.91a2.64,2.64,0,0,0,5.28,0Z" />
    <path class="cls-1"
      d="M49.82,12.55a5.09,5.09,0,0,1-1.46-4.28,4.64,4.64,0,0,1,9.28,0c0,1.47,0,2.89-1.46,4.28,2.7,1.29,3.47,3.41,4.1,5.3a10,10,0,1,0-14.56,0C46.41,15.81,47.17,13.82,49.82,12.55Z" />
    <path class="cls-1"
      d="M59,42.61a29,29,0,0,0,0-21.22,10.72,10.72,0,0,1-1.81.86,27,27,0,0,1,0,19.5A10.72,10.72,0,0,1,59,42.61Z" />
    <path class="cls-1"
      d="M5,21.39A29,29,0,0,0,5,42.61a10.72,10.72,0,0,1,1.81-.86,27.07,27.07,0,0,1,0-19.51A10.63,10.63,0,0,1,5,21.39Z" />
    <path class="cls-1"
      d="M41.75,6.82A10.72,10.72,0,0,1,42.61,5,29,29,0,0,0,21.39,5a10.72,10.72,0,0,1,.86,1.81A27,27,0,0,1,41.75,6.82Z" />
    <path class="cls-1"
      d="M22.25,57.18A10.72,10.72,0,0,1,21.39,59a29,29,0,0,0,21.22,0,10.72,10.72,0,0,1-.86-1.81A27,27,0,0,1,22.25,57.18Z" />
    <path class="cls-1"
      d="M32,20A12,12,0,1,0,44,32,12,12,0,0,0,32,20ZM31,31h2a3,3,0,0,1,0,6v1a1,1,0,0,1-2,0V37H29a1,1,0,0,1,0-2h4a1,1,0,0,0,0-2H31a3,3,0,0,1,0-6V26a1,1,0,0,1,2,0v1h2a1,1,0,0,1,0,2H31A1,1,0,0,0,31,31Z" />
  </g>
</svg>