<svg xmlns="http://www.w3.org/2000/svg" viewBox="0 0 128 128"><defs><style>.cls-1{fill:#a0aec0;}</style></defs><title>Antivirus</title><g id="Antivirus"><path class="cls-1" d="M48.15,53.25V70.12A15.86,15.86,0,0,0,63,85.94V53a1,1,0,0,1,2,0V85.94A15.86,15.86,0,0,0,79.85,70.12V53.25a5.74,5.74,0,0,0-5.73-5.73H53.88A5.74,5.74,0,0,0,48.15,53.25Z"/><path class="cls-1" d="M54.9,45.12c0,.52-2,.36,18.2.36a9.1,9.1,0,1,0-18.2-.36Z"/><path class="cls-1" d="M23,23.63v35c0,26.77,16.84,50.94,41,58.9,24.14-8,41-32.13,41-58.9v-35A105.43,105.43,0,0,1,64,11.38,105.43,105.43,0,0,1,23,23.63ZM69,33a1,1,0,0,1,2,0,6.9,6.9,0,0,1-.66,3,11.17,11.17,0,0,1,4.79,9.57,7.79,7.79,0,0,1,6.54,5.91A17.65,17.65,0,0,1,91,48.85a1,1,0,0,1,0,2,15.63,15.63,0,0,0-9.1,2.86v12H91a1,1,0,0,1,0,2H81.9c0,3,.12,5.28-1.12,8.56,5,2.71,7.87,6.57,7.87,10.67a1,1,0,0,1-2.05,0c0-3.29-2.4-6.47-6.64-8.8A17.89,17.89,0,0,1,48,78.2C43.8,80.53,41.4,83.71,41.4,87a1,1,0,0,1-2,0c0-4.1,2.86-8,7.87-10.67C46,73,46.1,70.48,46.1,67.77H37a1,1,0,0,1,0-2h9.1v-12A15.63,15.63,0,0,0,37,50.9a1,1,0,0,1,0-2,17.65,17.65,0,0,1,9.31,2.61,7.79,7.79,0,0,1,6.54-5.91A11.17,11.17,0,0,1,57.64,36,6.9,6.9,0,0,1,57,33a1,1,0,0,1,2,0,4.85,4.85,0,0,0,.41,2,11.12,11.12,0,0,1,9.14,0A4.85,4.85,0,0,0,69,33Z"/><path class="cls-1" d="M64.18,1.11C63.37.62,44.76,15,14,15V58.67c0,32,20.52,60.07,50,68.33,29.48-8.26,50-36.29,50-68.33V15A96.78,96.78,0,0,1,64.18,1.11ZM107,58.67c0,27.76-17.56,52.83-42.71,61a.94.94,0,0,1-.62,0C38.54,111.5,21,86.43,21,58.67v-36a1,1,0,0,1,.94-1A103.24,103.24,0,0,0,63.51,9.32a1,1,0,0,1,1,0,103.24,103.24,0,0,0,41.59,12.35,1,1,0,0,1,.94,1Z"/></g></svg>