<svg xmlns="http://www.w3.org/2000/svg" viewBox="0 0 64 64"><title>Anti Virus</title><g id="Anti_Virus" data-name="Anti Virus"><path d="M33.82,21.62C32.35,20.15,29,21.27,29,24h6A3,3,0,0,0,33.82,21.62Zm0,0C32.35,20.15,29,21.27,29,24h6A3,3,0,0,0,33.82,21.62Zm0,0C32.35,20.15,29,21.27,29,24h6A3,3,0,0,0,33.82,21.62Zm0,0C32.35,20.15,29,21.27,29,24h6A3,3,0,0,0,33.82,21.62Zm0,0C32.35,20.15,29,21.27,29,24h6A3,3,0,0,0,33.82,21.62Zm0,0C32.35,20.15,29,21.27,29,24h6A3,3,0,0,0,33.82,21.62Zm0,0C32.35,20.15,29,21.27,29,24h6A3,3,0,0,0,33.82,21.62Zm0,0C32.35,20.15,29,21.27,29,24h6A3,3,0,0,0,33.82,21.62Zm0,0C32.35,20.15,29,21.27,29,24h6A3,3,0,0,0,33.82,21.62ZM36,26H28a2,2,0,0,0-2,2c0,6-.1,6.57.26,7.77a1.18,1.18,0,0,1,.07.2A6,6,0,0,0,31,39.91V29a1,1,0,0,1,2,0V39.91A6,6,0,0,0,37.67,36a1.18,1.18,0,0,1,.07-.2c.36-1.2.26-1.61.26-7.77A2,2,0,0,0,36,26Zm0,0H28a2,2,0,0,0-2,2c0,6-.1,6.57.26,7.77a1.18,1.18,0,0,1,.07.2A6,6,0,0,0,31,39.91V29a1,1,0,0,1,2,0V39.91A6,6,0,0,0,37.67,36a1.18,1.18,0,0,1,.07-.2c.36-1.2.26-1.61.26-7.77A2,2,0,0,0,36,26Zm-2.18-4.38C32.35,20.15,29,21.27,29,24h6A3,3,0,0,0,33.82,21.62ZM32,8.17,12,12.62V26.84A30.81,30.81,0,0,0,32,55.62,30.81,30.81,0,0,0,52,26.84V12.62ZM42.21,34.62A8.84,8.84,0,0,0,40,32.7a10.15,10.15,0,0,1-.16,2.92A5.74,5.74,0,0,1,43,41a1,1,0,0,1-2,0,3.75,3.75,0,0,0-1.83-3.46,8,8,0,0,1-14.34,0A3.75,3.75,0,0,0,23,41a1,1,0,0,1-2,0,5.73,5.73,0,0,1,3.16-5.38A10.9,10.9,0,0,1,24,32.7a8.84,8.84,0,0,0-2.21,1.92,1,1,0,0,1-1.58-1.24A10.56,10.56,0,0,1,24,30.48V28.53a4.36,4.36,0,0,1-3-4.3c0-1.15.79-1.23,1-1.23,1.77,0,.1,2.35,2.3,3.49A4,4,0,0,1,27,24.13a5,5,0,0,1,1.34-3.53C27,17.53,30,17.43,30,19a1.31,1.31,0,0,0,.05.39,5.07,5.07,0,0,1,3.9,0A1.31,1.31,0,0,0,34,19c0-1.54,3-1.52,1.66,1.6A5,5,0,0,1,37,24.13a4,4,0,0,1,2.7,2.36A2.34,2.34,0,0,0,41,24.23c0-1.65,2-1.65,2,0a4.36,4.36,0,0,1-3,4.3v1.95a10.56,10.56,0,0,1,3.79,2.9A1,1,0,0,1,42.21,34.62ZM38,27.79A2,2,0,0,0,36,26H28a2,2,0,0,0-2,1.79c0,.46,0-1.87,0,6.21a6,6,0,0,0,5,5.91V29a1,1,0,0,1,2,0V39.91A6,6,0,0,0,37.67,36a.09.09,0,0,1,0,0C38.14,34.77,38,33.74,38,27.79Zm-4.17-6.17C32.35,20.15,29,21.27,29,24h6A3,3,0,0,0,33.82,21.62Zm0,0C32.35,20.15,29,21.27,29,24h6A3,3,0,0,0,33.82,21.62Zm0,0C32.35,20.15,29,21.27,29,24h6A3,3,0,0,0,33.82,21.62Zm0,0C32.35,20.15,29,21.27,29,24h6A3,3,0,0,0,33.82,21.62Zm0,0C32.35,20.15,29,21.27,29,24h6A3,3,0,0,0,33.82,21.62Zm0,0C32.35,20.15,29,21.27,29,24h6A3,3,0,0,0,33.82,21.62Zm0,0C32.35,20.15,29,21.27,29,24h6A3,3,0,0,0,33.82,21.62Zm0,0C32.35,20.15,29,21.27,29,24h6A3,3,0,0,0,33.82,21.62Zm0,0C32.35,20.15,29,21.27,29,24h6A3,3,0,0,0,33.82,21.62Zm0,0C32.35,20.15,29,21.27,29,24h6A3,3,0,0,0,33.82,21.62Zm0,0C32.35,20.15,29,21.27,29,24h6A3,3,0,0,0,33.82,21.62Z"/><path d="M32,1,5,7V26.84A37.72,37.72,0,0,0,32,63,37.72,37.72,0,0,0,59,26.84V7ZM54,26.84A32.83,32.83,0,0,1,32.34,57.63a1,1,0,0,1-.68,0A32.83,32.83,0,0,1,10,26.84v-15a1,1,0,0,1,.78-1c22.44-5,21.1-4.74,21.44-4.67l21,4.67a1,1,0,0,1,.78,1Z"/></g></svg>