<svg xmlns="http://www.w3.org/2000/svg" viewBox="0 0 64 64">
  <defs>
    <style>
      .cls-1 {
        fill: #657786;
      }
    </style>
  </defs>
  <g id="Arts">
    <path class="cls-1"
      d="M47,38a3,3,0,1,0,3,3A3,3,0,0,0,47,38Zm0,0a3,3,0,1,0,3,3A3,3,0,0,0,47,38Zm8-13a3,3,0,1,0,3,3A3,3,0,0,0,55,25ZM47,38a3,3,0,1,0,3,3A3,3,0,0,0,47,38Zm3-26a3,3,0,1,0,3,3A3,3,0,0,0,50,12Zm5,13a3,3,0,1,0,3,3A3,3,0,0,0,55,25ZM47,38a3,3,0,1,0,3,3A3,3,0,0,0,47,38Zm3-26a3,3,0,1,0,3,3A3,3,0,0,0,50,12Zm5,13a3,3,0,1,0,3,3A3,3,0,0,0,55,25ZM22,8a3,3,0,1,0,3,3A3,3,0,0,0,22,8ZM37,6a3,3,0,1,0,3,3A3,3,0,0,0,37,6ZM47,38a3,3,0,1,0,3,3A3,3,0,0,0,47,38Zm3-26a3,3,0,1,0,3,3A3,3,0,0,0,50,12Zm5,13a3,3,0,1,0,3,3A3,3,0,0,0,55,25ZM47,38a3,3,0,1,0,3,3A3,3,0,0,0,47,38ZM37,6a3,3,0,1,0,3,3A3,3,0,0,0,37,6ZM22,8a3,3,0,1,0,3,3A3,3,0,0,0,22,8Zm28,4a3,3,0,1,0,3,3A3,3,0,0,0,50,12Zm5,13a3,3,0,1,0,3,3A3,3,0,0,0,55,25ZM12,19a3,3,0,1,0,3,3A3,3,0,0,0,12,19ZM22,8a3,3,0,1,0,3,3A3,3,0,0,0,22,8ZM37,6a3,3,0,1,0,3,3A3,3,0,0,0,37,6ZM47,38a3,3,0,1,0,3,3A3,3,0,0,0,47,38Zm3-26a3,3,0,1,0,3,3A3,3,0,0,0,50,12Zm5,13a3,3,0,1,0,3,3A3,3,0,0,0,55,25ZM47,38a3,3,0,1,0,3,3A3,3,0,0,0,47,38ZM37,6a3,3,0,1,0,3,3A3,3,0,0,0,37,6ZM22,8a3,3,0,1,0,3,3A3,3,0,0,0,22,8ZM12,19a3,3,0,1,0,3,3A3,3,0,0,0,12,19Zm38-7a3,3,0,1,0,3,3A3,3,0,0,0,50,12Zm5,13a3,3,0,1,0,3,3A3,3,0,0,0,55,25ZM32,1C19,1,1,12,1,28c0,8,7,9,14,9,1.61,0,5,.08,7,.08,5.93,0,10,1.53,10,6.92,0,7,3,9,7,9s24-5,24-26S45,1,32,1Zm18,9a5,5,0,1,1-5,5A5,5,0,0,1,50,10ZM12,27a5,5,0,1,1,5-5A5,5,0,0,1,12,27ZM22,16a5,5,0,1,1,5-5A5,5,0,0,1,22,16ZM33,35a6,6,0,1,1,6-6A6,6,0,0,1,33,35Zm4-21a5,5,0,1,1,5-5A5,5,0,0,1,37,14ZM47,46a5,5,0,1,1,5-5A5,5,0,0,1,47,46Zm8-13a5,5,0,1,1,5-5A5,5,0,0,1,55,33ZM50,18a3,3,0,1,0-3-3A3,3,0,0,0,50,18ZM47,38a3,3,0,1,0,3,3A3,3,0,0,0,47,38ZM37,6a3,3,0,1,0,3,3A3,3,0,0,0,37,6ZM22,8a3,3,0,1,0,3,3A3,3,0,0,0,22,8ZM12,19a3,3,0,1,0,3,3A3,3,0,0,0,12,19Zm43,6a3,3,0,1,0,3,3A3,3,0,0,0,55,25ZM50,12a3,3,0,1,0,3,3A3,3,0,0,0,50,12ZM12,19a3,3,0,1,0,3,3A3,3,0,0,0,12,19ZM22,8a3,3,0,1,0,3,3A3,3,0,0,0,22,8ZM37,6a3,3,0,1,0,3,3A3,3,0,0,0,37,6ZM47,38a3,3,0,1,0,3,3A3,3,0,0,0,47,38Zm8-13a3,3,0,1,0,3,3A3,3,0,0,0,55,25ZM50,12a3,3,0,1,0,3,3A3,3,0,0,0,50,12ZM47,38a3,3,0,1,0,3,3A3,3,0,0,0,47,38ZM37,6a3,3,0,1,0,3,3A3,3,0,0,0,37,6ZM22,8a3,3,0,1,0,3,3A3,3,0,0,0,22,8ZM12,19a3,3,0,1,0,3,3A3,3,0,0,0,12,19Zm43,6a3,3,0,1,0,3,3A3,3,0,0,0,55,25ZM50,12a3,3,0,1,0,3,3A3,3,0,0,0,50,12ZM37,6a3,3,0,1,0,3,3A3,3,0,0,0,37,6ZM47,38a3,3,0,1,0,3,3A3,3,0,0,0,47,38Zm8-13a3,3,0,1,0,3,3A3,3,0,0,0,55,25ZM50,12a3,3,0,1,0,3,3A3,3,0,0,0,50,12ZM47,38a3,3,0,1,0,3,3A3,3,0,0,0,47,38ZM37,6a3,3,0,1,0,3,3A3,3,0,0,0,37,6ZM55,25a3,3,0,1,0,3,3A3,3,0,0,0,55,25ZM47,38a3,3,0,1,0,3,3A3,3,0,0,0,47,38Zm8-13a3,3,0,1,0,3,3A3,3,0,0,0,55,25ZM47,38a3,3,0,1,0,3,3A3,3,0,0,0,47,38Z" />
    <path class="cls-1"
      d="M17,56c7.17.19,7,.11,7,.21v5.6c-8.06.22-6.61.19-8,.19a3,3,0,0,1-2.44-4.74C14.55,55.87,15.88,56,17,56Z" />
    <path class="cls-1" d="M61,61l-35,.73V56.23L61,57A2,2,0,0,1,61,61Z" />
    <path class="cls-1"
      d="M11.41,61C8.78,65.28,1,61.87,1,58c3,0,4.17-3,6.6-3a4.44,4.44,0,0,1,3.81,2A5,5,0,0,0,11.41,61Z" />
  </g>
</svg>