<svg xmlns="http://www.w3.org/2000/svg" viewBox="0 0 64 64"><title>Astronomy</title><g id="Astronomy"><circle cx="32" cy="32" r="7"/><path d="M45.4,32.45,47,32l-1.6-.45a3.53,3.53,0,0,1-1.57-5.86L45,24.5l-1.6.41a3.54,3.54,0,0,1-4.3-4.3L39.5,19l-1.19,1.16a3.53,3.53,0,0,1-5.86-1.57L32,17l-.45,1.6a3.53,3.53,0,0,1-5.86,1.57L24.5,19l.41,1.6a3.54,3.54,0,0,1-4.3,4.3L19,24.5l1.16,1.19a3.53,3.53,0,0,1-1.57,5.86L17,32l1.6.45a3.53,3.53,0,0,1,1.57,5.86L19,39.5l1.6-.41a3.54,3.54,0,0,1,4.3,4.3L24.5,45l1.19-1.16a3.53,3.53,0,0,1,5.86,1.57L32,47l.45-1.6a3.53,3.53,0,0,1,5.86-1.57L39.5,45l-.41-1.6a3.54,3.54,0,0,1,4.3-4.3l1.6.41-1.16-1.19A3.53,3.53,0,0,1,45.4,32.45ZM32,41a9,9,0,1,1,9-9A9,9,0,0,1,32,41Z"/><path d="M52.23,43A23,23,0,0,1,32,55C13.33,55,2.82,34,12.9,19.18a4.3,4.3,0,0,0,1.53,1.31C5.44,34.07,15.07,53,32,53A21,21,0,0,0,50.28,42.35,6.07,6.07,0,0,0,52.23,43Z"/><path d="M55,31.34A5.94,5.94,0,0,0,53,31C52.2,14.62,33.79,5.63,20.49,14.43a4.42,4.42,0,0,0-1.31-1.54C34,2.91,54.48,13.14,55,31.34Z"/><path d="M55.16,52.6a5.22,5.22,0,0,0-1.36-1.49,29,29,0,0,0,3-34.09,8.31,8.31,0,0,0,1.63-1.19A31,31,0,0,1,55.16,52.6Z"/><path d="M46.92,4.82A7.89,7.89,0,0,0,45.81,6.5C22.85-6-4.09,16.42,4.58,41.44a6.6,6.6,0,0,0-1.79,1C-6.83,15.26,22.42-8.69,46.92,4.82Z"/><path d="M46.58,59.35a31,31,0,0,1-36.25-5.19A7.23,7.23,0,0,0,12,52.94a29,29,0,0,0,33.49,4.75A5.74,5.74,0,0,0,46.58,59.35Z"/><circle cx="53" cy="37" r="4"/><circle cx="53" cy="10" r="6"/><circle cx="7" cy="48" r="5"/><circle cx="16.5" cy="16.5" r="2.5"/><circle cx="50.5" cy="55.5" r="3.5"/></g></svg>