<svg xmlns="http://www.w3.org/2000/svg" viewBox="0 0 64 64"><title>Atom</title><g id="Atom"><circle cx="31.99" cy="32" r="5.81" transform="translate(-4.71 5.54) rotate(-9.22)"/><path d="M21.33,30.94a84.78,84.78,0,0,0,.79,13c.31-.09,1.44-.51,1.92-.7a87.72,87.72,0,0,1-.69-13.72C22.68,30,22,30.44,21.33,30.94Z"/><path d="M24.53,17.55c1.26-7,5.07-18.4,9.86-13.26a4.74,4.74,0,0,1,1.72-1.08A5.47,5.47,0,0,0,32,1C25.1,1,22.36,16.49,21.72,23.42c.71-.46,1.43-.91,2.15-1.34Q24.14,19.74,24.53,17.55Z"/><path d="M40.11,41.93c-.17,1.56-.39,3.06-.65,4.52C37.89,55.15,34.89,61,32,61c-2.57,0-5.22-4.61-6.88-11.74l-1.9.67C25.15,58.18,28.36,63,32,63c6.9,0,9.64-15.49,10.28-22.42C39.81,42.17,40.11,41.83,40.11,41.93Z"/><path d="M41.87,20.05c-.33.1-1.6.58-1.92.7a87.37,87.37,0,0,1,.69,13.72c.67-.45,1.34-.91,2-1.41A84.78,84.78,0,0,0,41.87,20.05Z"/><path d="M34.9,7.81a2.9,2.9,0,0,0,2.89,2.9.77.77,0,0,0,0,.15c1.44,4.44.69,4,1.62,3.68l1.35-.47a34.16,34.16,0,0,0-1.17-4A2.9,2.9,0,1,0,34.9,7.81Z"/><path d="M19.43,36.61q-.06-1.23-.09-2.52-1.9-1.41-3.61-2.85C9,25.53,5.43,20,6.88,17.5,9,13.75,20.4,17.41,20.5,17.41c0-.35.18-1,.36-2C.29,9.21-1.4,22,19.43,36.61Z"/><path d="M37.41,46.54c0-.2.22-1.25.34-2-.85,0-12.21-6-12.21-6.28.06.85.13,1.68.21,2.48A88.65,88.65,0,0,0,37.41,46.54Z"/><path d="M38.24,23.28a90.47,90.47,0,0,0-11.66-5.82c0,.19-.25,1.41-.34,2a87,87,0,0,1,12.2,6.26C38.39,24.91,38.32,24.09,38.24,23.28Z"/><path d="M44.56,27.39q.06,1.26.09,2.52c6.79,5,18,16.17,10.15,18a4.75,4.75,0,0,1,.07,2,5.47,5.47,0,0,0,4-2.46C62.27,41.53,50.26,31.39,44.56,27.39Z"/><path d="M51.5,46.61a2.91,2.91,0,0,0-4,1.06.52.52,0,0,0-.13-.06c-4.5-.94-3.85-1.4-4-.44-.09.48-.18.94-.27,1.4a30.44,30.44,0,0,0,4.06,1,2.9,2.9,0,1,0,4.31-3Z"/><path d="M13.6,34.66c-.45-.36-1.1-.92-1.53-1.3a31.51,31.51,0,0,0-2.89,3,2.89,2.89,0,1,0,1.47,1.25C11.08,37.26,11.64,36.49,13.6,34.66Z"/><path d="M29.71,45.19c-.74-.38-1.48-.77-2.24-1.19-1.44.62-2.86,1.19-4.26,1.69C16.59,48.08,4.76,50.55,6.8,43.78a4.75,4.75,0,0,1-1.8-1,5.49,5.49,0,0,0,.14,4.68C8.57,53.42,23.29,48.15,29.71,45.19Z"/><path d="M29.81,23.28c-.75-.37-1.5-.72-2.24-1.05a90.32,90.32,0,0,0-10.89,7.19c.1.08.76.66,1.58,1.3A90.26,90.26,0,0,1,29.81,23.28Z"/><path d="M47.3,34.58c-.11-.1-.94-.81-1.57-1.3a89,89,0,0,1-11.56,7.44c.75.36,1.5.71,2.25,1A86.8,86.8,0,0,0,47.3,34.58Z"/><path d="M34.29,18.81c.72.37,1.46.76,2.23,1.19,1.44-.62,2.86-1.19,4.26-1.69,8.32-3,14.89-3.32,16.33-.81,1.29,2.23-1.38,6.84-6.72,11.84.15.11,1,.81,1.53,1.31C67.34,16.13,57.75,8,34.29,18.81Z"/></g></svg>