<svg xmlns="http://www.w3.org/2000/svg" viewBox="0 0 128 128"><defs><style>.cls-1{fill:#a0aec0;}</style></defs><title>Bad Gateway</title><g id="Bad_Gateway" data-name="Bad Gateway"><path class="cls-1" d="M40.59,94.44,33,125.76a1,1,0,0,0,2,.48l7.58-31.32A1,1,0,0,0,40.59,94.44Z"/><path class="cls-1" d="M47.26,66.89,42.68,85.78a1,1,0,1,0,2,.46l4.57-18.87A1,1,0,0,0,47.26,66.89Z"/><path class="cls-1" d="M80.74,66.89a1,1,0,0,0-2,.48L88,105.47a1,1,0,0,0,2-.48Z"/><path class="cls-1" d="M93,117.59a1,1,0,0,0-2,.48l2,8.17a1,1,0,0,0,2-.48Z"/><path class="cls-1" d="M56.31,70.9c-1.94,20-1.46,14-1.46,15.13a1,1,0,0,0,2,.09l1.46-15A1,1,0,0,0,56.31,70.9Z"/><path class="cls-1" d="M70,75.1l1.07,11a1,1,0,0,0,2-.2l-1.07-11A1,1,0,0,0,70,75.1Z"/><path class="cls-1" d="M93.93,29A29.9,29.9,0,0,0,85.21,9.79C66.9-8.52,35.73,3.59,34.07,29,34.22,29,93.82,29,93.93,29ZM72,5.2A27.16,27.16,0,0,1,87.93,18.49a1,1,0,0,1-1.8.94A25.18,25.18,0,0,0,71.41,7.14,1,1,0,0,1,72,5.2Z"/><path class="cls-1" d="M100,37.17A6.31,6.31,0,0,0,93.68,31H34.32A6.31,6.31,0,0,0,28,37.17C30.33,36.89,97.69,36.89,100,37.17Z"/><path class="cls-1" d="M114.18,47.82a20.69,20.69,0,0,0-17-8.82H30.77a20.69,20.69,0,0,0-16.95,8.82A4.57,4.57,0,0,0,17.56,55h92.88A4.57,4.57,0,0,0,114.18,47.82Z"/><path class="cls-1" d="M36.36,57c17,13.27,38.17,13.32,55.28,0Z"/><circle class="cls-1" cx="64" cy="124" r="3"/><path class="cls-1" d="M45.6,105.6A1,1,0,0,0,47,107,24,24,0,0,1,81,107a1,1,0,0,0,1.44-1.44A26.06,26.06,0,0,0,45.6,105.6Z"/><path class="cls-1" d="M56.21,116.21a1,1,0,0,0,1.44,1.44,9,9,0,0,1,12.7,0,1,1,0,0,0,1.44-1.44A11,11,0,0,0,56.21,116.21Z"/><path class="cls-1" d="M51.26,111.26a1,1,0,0,0,1.44,1.44,16,16,0,0,1,22.6,0,1,1,0,0,0,1.44-1.44A18,18,0,0,0,51.26,111.26Z"/></g></svg>