<svg xmlns="http://www.w3.org/2000/svg" viewBox="0 0 64 64"><title>Bag</title><g id="Bag"><path d="M32,21.41,28.41,25,32,28.59,35.59,25Zm0,0L28.41,25,32,28.59,35.59,25ZM53.82,26a21.84,21.84,0,0,0-43.64,0L9,56a7,7,0,0,0,7,7H48a7,7,0,0,0,7-7ZM48,55a5,5,0,0,1-5,5H21a5,5,0,0,1-5-5V45a5,5,0,0,1,5-5H43a5,5,0,0,1,5,5ZM26.29,24.29l5-5a1,1,0,0,1,1.42,0l5,5a1,1,0,0,1,0,1.42C32.3,31.12,32.58,31,32,31s-.36.06-5.71-5.29A1,1,0,0,1,26.29,24.29ZM49.18,35l-.35-8.86a16.84,16.84,0,0,0-33.66,0L14.82,35a1,1,0,0,1-2-.08l.35-8.86a18.84,18.84,0,0,1,37.66,0L51.18,35A1,1,0,0,1,49.18,35ZM43,42H21a3,3,0,0,0-3,3V55a3,3,0,0,0,3,3H43a3,3,0,0,0,3-3V45A3,3,0,0,0,43,42ZM35.59,25,32,21.41,28.41,25,32,28.59Z"/><path d="M37.88,7.81c-1.37,0-.58-1.6-2.34-3.34A5,5,0,0,0,27.1,7a1,1,0,0,1-1.17.79c-1.78-.34-.18-3.45,1.13-4.74a7,7,0,0,1,9.89,0C38.45,4.53,39.88,7.81,37.88,7.81Z"/><path d="M53,5V15.52A23.69,23.69,0,0,0,43,5.67V5a2,2,0,0,1,2-2h6A2,2,0,0,1,53,5Z"/><path d="M21,5v.67a23.69,23.69,0,0,0-10,9.85V5a2,2,0,0,1,2-2h6A2,2,0,0,1,21,5Z"/><path d="M60,39V55a4,4,0,0,1-3.52,4c.77-2.15.57-1.79-.15-20Z"/><path d="M7.51,59A4,4,0,0,1,4,55V39H7.67C7,57,6.74,56.79,7.51,59Z"/></g></svg>