<svg xmlns="http://www.w3.org/2000/svg" viewBox="0 0 64 64"><title>Binocular</title><g id="Binocular"><circle cx="13" cy="51" r="7"/><path d="M13,39A12,12,0,1,0,25,51,12,12,0,0,0,13,39Zm0,21a9,9,0,1,1,9-9A9,9,0,0,1,13,60Z"/><circle cx="51" cy="51" r="7"/><path d="M51,39A12,12,0,1,0,63,51,12,12,0,0,0,51,39Zm0,21a9,9,0,1,1,9-9A9,9,0,0,1,51,60Z"/><path d="M29,39.79a6,6,0,0,0-2.93,6.28A14,14,0,0,0,20.21,39C27.34,39,27.9,38.75,29,39.79Z"/><path d="M43.79,39a14,14,0,0,0-5.89,7.07A6,6,0,0,0,35,39.79C36.11,38.74,36.68,39,43.79,39Z"/><path d="M32,41a4,4,0,1,0,2.56,7.07A4,4,0,0,0,32,41Zm0,6a2,2,0,1,1,2-2A2,2,0,0,1,32,47Z"/><path d="M32,8a9,9,0,1,0,9,9A9,9,0,0,0,32,8Zm-1,8h2a3,3,0,0,1,0,6v1a1,1,0,0,1-2,0V22H29a1,1,0,0,1,0-2h4a1,1,0,0,0,0-2H31a3,3,0,0,1,0-6V11a1,1,0,0,1,2,0v1h2a1,1,0,0,1,0,2H31A1,1,0,0,0,31,16Z"/><path d="M45.61,13.76l2.25-1.3-4-6.92L41.61,6.83A14,14,0,0,0,36,3.59V1H28V3.59a14,14,0,0,0-5.61,3.24L20.14,5.54l-4,6.92,2.25,1.3a13.65,13.65,0,0,0,0,6.48l-2.25,1.3,4,6.92,2.25-1.29A14,14,0,0,0,28,30.41V33h8V30.41a14,14,0,0,0,5.61-3.24l2.25,1.29,4-6.92-2.25-1.3A13.65,13.65,0,0,0,45.61,13.76ZM32,28A11,11,0,1,1,43,17,11,11,0,0,1,32,28Z"/></g></svg>