<svg xmlns="http://www.w3.org/2000/svg" viewBox="0 0 64 64"><title>Blue Print</title><g id="Blue_Print" data-name="Blue Print"><path d="M18.91,3a5.17,5.17,0,0,1,0,1.92L17,4Z"/><path d="M23.8,4c0,1.81-.8,2.4-.8,3-2.67-1.33-2.27-1-2.19-1.34a7.3,7.3,0,0,0,0-3.32C20.73,2,20.33,2.33,23,1,23,1.6,23.8,2.19,23.8,4Z"/><path d="M51,1V7H25.32a7,7,0,0,0,0-6Z"/><rect x="53" y="1" width="2" height="6"/><path d="M63,3V5a2,2,0,0,1-2,2H57V1h4A2,2,0,0,1,63,3Z"/><path d="M44,49v6H56V49Zm0,0v6H56V49ZM18,21v6H30V21ZM44,35v6H56V35Zm0,14v6H56V49Zm0,0v6H56V49Zm0-14v6H56V35ZM18,21v6H30V21Zm0,0v6H30V21ZM44,35v6H56V35Zm0,14v6H56V49Zm0,6H56V49H44Zm0-20v6H56V35ZM18,27H30V21H18ZM13,13V53H6A5,5,0,0,0,6,63H63V13Zm4,44a1,1,0,0,1,0-2A1,1,0,0,1,17,57Zm0-5a1,1,0,0,1,0-2A1,1,0,0,1,17,52Zm0-5a1,1,0,0,1,0-2A1,1,0,0,1,17,47ZM32,57H21a1,1,0,0,1,0-2H32A1,1,0,0,1,32,57Zm0-5H21a1,1,0,0,1,0-2H32A1,1,0,0,1,32,52Zm0-5H21a1,1,0,0,1,0-2H32A1,1,0,0,1,32,47ZM58,28a1,1,0,0,1-1,1H43a1,1,0,0,1-1-1V25H38V37h4V34a1,1,0,0,1,1-1H57a1,1,0,0,1,1,1v8a1,1,0,0,1-1,1H43a1,1,0,0,1-1-1V39H38V51h4V48a1,1,0,0,1,1-1H57a1,1,0,0,1,1,1v8a1,1,0,0,1-1,1H43a1,1,0,0,1-1-1V53H37a1,1,0,0,1-1-1V39H24a1,1,0,0,1-1-1V29H17a1,1,0,0,1-1-1V20a1,1,0,0,1,1-1H31a1,1,0,0,1,1,1v8a1,1,0,0,1-1,1H25v8H36V24a1,1,0,0,1,1-1h5V20a1,1,0,0,1,1-1H57a1,1,0,0,1,1,1ZM56,49H44v6H56Zm0-14H44v6H56ZM44,27H56V21H44ZM30,21H18v6H30ZM18,21v6H30V21ZM44,35v6H56V35Zm0,14v6H56V49Zm0,0v6H56V49Zm0-14v6H56V35ZM18,21v6H30V21ZM44,35v6H56V35Zm0,14v6H56V49Zm0,0v6H56V49Zm0-14v6H56V35Zm0,14v6H56V49Zm0,0v6H56V49Z"/><path d="M11,51V1H7A6,6,0,0,0,1,7V53.11C3.59,50.45,6.42,51,11,51Z"/></g></svg>