<svg xmlns="http://www.w3.org/2000/svg" viewBox="0 0 64 64"><title>Book Apple</title><g id="Book_Apple" data-name="Book Apple"><path d="M5,41V55h9a1,1,0,0,0,1.32,1l2.68-.9c2.73.92,3.05,1.16,3.58.76A1,1,0,0,0,22,55H63v3H5a4,4,0,0,1-4-4V42a4,4,0,0,1,4-4H63v3Z"/><path d="M20,47v6.61c-2.39-.8-1.6-.8-4,0V47Z"/><path d="M41.3,12.73C38.81,14.36,36.76,14,32,14v2a3.75,3.75,0,0,0,2.41-.81,1,1,0,0,1,1.18,1.62,6,6,0,0,1-7.11,0,1,1,0,0,1,1-1.7l.48.27V12.63A18.47,18.47,0,0,0,25.88,12C21,12,18,16.62,18,21.23,18,27.69,23.07,36,28,36c2.45,0,3.21-.92,4-.92s1.57.92,4,.92C43.28,36,51.29,17.69,41.3,12.73Z"/><path d="M33.62,17.78a1,1,0,0,1-.9.18A4.78,4.78,0,0,0,33.62,17.78Z"/><path d="M34,15.45A3.45,3.45,0,0,1,32,16c0-5.49,0-5.25,0-5.7C31.65,7,29.11,7,29,7a1,1,0,0,1,0-2,5.14,5.14,0,0,1,4.93,4.81A52.74,52.74,0,0,1,34,15.45Z"/><path d="M31.35,17.93a1,1,0,0,1-1.09-.25A5.52,5.52,0,0,0,31.35,17.93Z"/><path d="M32,10.3C31.65,7,29.11,7,29,7a1,1,0,0,1-.63-1.77C29.94,5.72,31.74,7.13,32,10.3Z"/><path d="M37,12H33a6,6,0,0,1,6-6h4A6,6,0,0,1,37,12Z"/><path d="M62,43v2H9a1,1,0,0,0,0,2h5v6H7V43Z"/><path d="M28,51H62v2H22V47H62v2H28A1,1,0,0,0,28,51Z"/></g></svg>