<svg xmlns="http://www.w3.org/2000/svg" viewBox="0 0 64 64"><title>Book pen</title><g id="Book_pen" data-name="Book pen"><path d="M6,53V1H5A4,4,0,0,0,1,5V54.54A6.5,6.5,0,0,1,6,53Z"/><rect x="14" y="13" width="28" height="12"/><path d="M8,53H49V1H8Zm30-5H18a1,1,0,0,1,0-2H38A1,1,0,0,1,38,48Zm2-5H16a1,1,0,0,1,0-2H40A1,1,0,0,1,40,43ZM12,12a1,1,0,0,1,1-1H43a1,1,0,0,1,1,1V26a1,1,0,0,1-1,1H13a1,1,0,0,1-1-1Z"/><path d="M5,55a4,4,0,0,0,0,8H49V60H5a1,1,0,0,1,0-2H49V55Z"/><polygon points="53 54 54.33 58 57.67 58 59 54 59 18 53 18 53 54"/><path d="M58,5a2,2,0,0,0-4,0V8h4Z"/><path d="M62.73,15.54,59,11.6V10H53v6h6V14.51l2,2.12V25a1,1,0,0,0,2,0C63,15.6,63.12,16,62.73,15.54Z"/><path d="M55,61a1,1,0,0,0,2,0V60H55Z"/></g></svg>