<svg xmlns="http://www.w3.org/2000/svg" viewBox="0 0 64 64"><title>Boy Study</title><g id="Boy_Study" data-name="Boy Study"><path d="M16,55a3,3,0,0,0-3,3v5h3a1,1,0,0,1,1-1,2,2,0,0,0,2-2V58A3,3,0,0,0,16,55Z"/><path d="M13,46.44C9.46,51,9.36,54.82,8,63h3c0-4.5-.53-7.1,2-9Z"/><rect x="37" y="46" width="8" height="3"/><path d="M49,53.1V41H33V63H44.36C42.76,61.59,43,60,43,58A5,5,0,0,1,49,53.1ZM36,51a1,1,0,0,1-1-1V45.23c0-1.15.79-1.23,1-1.23H46a1,1,0,0,1,1,1v5a1,1,0,0,1-1,1Z"/><path d="M48,55a3,3,0,0,0-3,3v2a2,2,0,0,0,2,2,1,1,0,0,1,1,1h3V58A3,3,0,0,0,48,55Z"/><path d="M56,63c-1.35-8.11-1.45-11.94-5-16.56V54a5,5,0,0,1,2,4v5Z"/><path d="M15,53.1A5,5,0,0,1,21,58c0,2,.24,3.6-1.36,5H31V41H15Z"/><path d="M36,39V36.42a14.13,14.13,0,0,1-8,0V39Z"/><path d="M40.83,12.28C37.05,14.46,35.12,14,22.66,14L20,20.2c0,3.67-.28,7.5,3.51,11.29C31,39,44,33.73,44,23,44,18.86,43.71,15.56,40.83,12.28ZM27,21a1,1,0,0,1-2,0V20a1,1,0,0,1,2,0Zm7.83,9.83a4,4,0,0,1-5.66,0,1,1,0,0,1,1.42-1.42,2,2,0,0,0,2.82,0A1,1,0,0,1,34.83,30.83ZM39,21a1,1,0,0,1-2,0V20a1,1,0,0,1,2,0Z"/><path d="M49,22a3,3,0,0,0-3-3v6A3,3,0,0,0,49,22Z"/><path d="M18,25V19a3,3,0,0,0,0,6Z"/><path d="M45,9.1a55.44,55.44,0,0,1-.15,6c-.64-1.62-3.2-6.1-4.43-4.86C36.87,12.56,34.68,12,22,12c-.86,0-.84.39-2.65,4.66A33.21,33.21,0,0,1,19,11.88,10.89,10.89,0,0,1,29.88,1C34.81,1,37.5.5,40,3A6.21,6.21,0,0,1,45,9.1Z"/></g></svg>