<svg xmlns="http://www.w3.org/2000/svg" viewBox="0 0 64 64"><title>Boy Student</title><g id="Boy_Student" data-name="Boy Student"><path d="M36,37.59c0-2.21.61-.59-4-.59s-4-1.61-4,.59l4,4Z"/><path d="M8,63h8V43.32C9.49,48.67,9.37,54.78,8,63Z"/><path d="M26.64,39.05c-.76,0-.64,0-.64.16,0,6.57,0,5.62.05,6l4.32-2.47Z"/><path d="M32,48c1.56,0,1.77-1.49,2.15-2.62-2.57-1.48-2-1.23-2.15-1.23s.34-.2-2.15,1.23C30.27,46.65,30.49,48,32,48Z"/><path d="M28.08,46.4,26,47.59V63h1.25c0-.1-.11.88,1.51-12.14a3.12,3.12,0,0,1,.8-1.75A5.09,5.09,0,0,1,28.08,46.4Z"/><path d="M30.74,51.1,29.25,63h5.5L33.26,51.1A1.27,1.27,0,0,0,30.74,51.1Z"/><path d="M34.44,49.11a3.12,3.12,0,0,1,.8,1.75c1.59,12.71,1.51,12,1.51,12.14H38V47.59L35.92,46.4A5.06,5.06,0,0,1,34.44,49.11Z"/><path d="M37.28,39.13l-3.65,3.65c1.36.77,2.15,1.18,2.26,1.29s-.48-.27,2.06,1.18c.07-.42,0,.55,0-6.15C37.27,39,37.38,39,37.28,39.13Z"/><path d="M48,43.32V63h8C54.63,54.79,54.51,48.67,48,43.32Z"/><path d="M40.83,12.28C37.05,14.46,35.12,14,22.66,14L20,20.2c0,3.67-.28,7.5,3.51,11.29C31,39,44,33.73,44,23,44,18.86,43.71,15.56,40.83,12.28ZM27,21a1,1,0,0,1-2,0V20a1,1,0,0,1,2,0Zm7.83,9.83a4,4,0,0,1-5.66,0,1,1,0,0,1,1.42-1.42,2,2,0,0,0,2.82,0A1,1,0,0,1,34.83,30.83ZM39,21a1,1,0,0,1-2,0V20a1,1,0,0,1,2,0Z"/><path d="M49,22a3,3,0,0,0-3-3v6A3,3,0,0,0,49,22Z"/><path d="M18,25V19a3,3,0,0,0,0,6Z"/><path d="M45,9.1a55.44,55.44,0,0,1-.15,6c-.64-1.62-3.2-6.1-4.43-4.86C36.87,12.56,34.68,12,22,12c-.86,0-.84.39-2.65,4.66A33.21,33.21,0,0,1,19,11.88,10.89,10.89,0,0,1,29.88,1C34.81,1,37.5.5,40,3A6.21,6.21,0,0,1,45,9.1Z"/><path d="M21,39a3,3,0,0,0-3,3V63h6V39Z"/><path d="M43,39H40V63h6V42A3,3,0,0,0,43,39Z"/></g></svg>