<svg xmlns="http://www.w3.org/2000/svg" viewBox="0 0 64 64"><title>Boy Graduation</title><g id="Boy_Graduation" data-name="Boy Graduation"><path d="M36,42V39.42a14.13,14.13,0,0,1-8,0V42A5.65,5.65,0,0,0,36,42Z"/><path d="M11,3h8v7H45V3h3V19a1,1,0,0,0,2,0V3h3a1,1,0,0,0,0-2H11A1,1,0,0,0,11,3Z"/><path d="M22.13,42.49C21.72,41.8,23.32,42,16,42A14,14,0,0,0,27,55.68,6,6,0,0,1,28.62,54Z"/><path d="M26,42H24.15l6.29,11.2a6.11,6.11,0,0,1,3.12,0L39.85,42H38C35.94,46.93,28.05,46.89,26,42Z"/><path d="M48,42c-7.33,0-5.72-.2-6.13.49l-6.5,11.56A5.44,5.44,0,0,1,37,55.67,14,14,0,0,0,48,42Z"/><path d="M34.39,55.8a4,4,0,1,0-3.3,7.1A4,4,0,0,0,34.39,55.8Z"/><path d="M26.18,57.54a16.07,16.07,0,0,1-11.91-12.6C9.4,50.06,9.3,55.19,8,63H27.54A5.94,5.94,0,0,1,26.18,57.54Z"/><path d="M49.73,44.94a16,16,0,0,1-11.92,12.6A5.92,5.92,0,0,1,36.46,63H56C54.72,55.29,54.59,50.05,49.73,44.94Z"/><path d="M44,25.65c0-4-.42-7.24-3.17-10.37C37.05,17.46,35.12,17,22.66,17L20,23.2c0,3.67-.28,7.5,3.51,11.29C31.17,42.15,44,36.4,44,25.65ZM27,24a1,1,0,0,1-2,0V23a1,1,0,0,1,2,0Zm7.83,9.83a4,4,0,0,1-5.66,0,1,1,0,0,1,1.42-1.42,2,2,0,0,0,2.82,0A1,1,0,0,1,34.83,33.83ZM39,24a1,1,0,0,1-2,0V23a1,1,0,0,1,2,0Z"/><path d="M46,22v6a3,3,0,0,0,0-6Z"/><path d="M18,28V22a3,3,0,0,0,0,6Z"/><path d="M44.85,18.05A57.34,57.34,0,0,0,45,12H19.39a20.55,20.55,0,0,0,0,7.66c1.18-2.79,1.79-4.19,1.73-4.05.37-.86.23-.61,13.31-.61,5.25,0,6.1-2.93,7.32-1.71A14.38,14.38,0,0,1,44.85,18.05Z"/></g></svg>