<svg xmlns="http://www.w3.org/2000/svg" viewBox="0 0 64 64"><title>Budget</title><g id="Budget"><path d="M1,1V9H63V1ZM6,6A1,1,0,0,1,6,4,1,1,0,0,1,6,6Zm5,0a1,1,0,0,1,0-2A1,1,0,0,1,11,6Zm5,0a1,1,0,0,1,0-2A1,1,0,0,1,16,6Z"/><path d="M26.57,27.9c.46.15-.74.1,10.43.1a1,1,0,0,0,0-2H27A1,1,0,0,0,26.57,27.9Z"/><path d="M1,52H7a14,14,0,0,1,4.31-11L24.48,28.62a3,3,0,0,1,1.26-4.33c-2.89-9.64-3-9.31-2.54-9.89S22.69,14,40,14a1,1,0,0,1,1,1.29l-2.7,9a3,3,0,0,1,1.26,4.33L52.65,41A13.86,13.86,0,0,1,57,52h6V11H1Z"/><polygon points="36.26 24 38.66 16 25.34 16 27.74 24 36.26 24"/><path d="M40.1,43.48l1.06-.61-1-1.74c-1.09.63-1.69,1.11-2.3.44C35.22,38.71,33,39.8,33,38.23V37H31c0,1.13.16,2-.78,2.21-3.69.83-4,3.31-5.31,2.54l-1.07-.62-1,1.74c1,.56,1.8.85,1.51,1.77a8.08,8.08,0,0,0,0,4.72c.27.88-.46,1.16-1.51,1.77l1,1.74,1.07-.62c1.39-.8,1.44,1.67,5.31,2.54.88.21.78.93.78,2.21h2V55.77c0-1.59,2.16-.44,4.86-3.34.63-.67,1.24-.17,2.3.44l1-1.74-1.06-.61c-1-.59-.1-1.3-.1-3.52S39.06,44.08,40.1,43.48ZM31.5,46h1a2.5,2.5,0,0,1,.5,5v1a1,1,0,0,1-2,0V51H30a1,1,0,0,1,0-2c2.5,0,3,.15,3-.5a.5.5,0,0,0-.5-.5h-1a2.5,2.5,0,0,1-.5-5V42a1,1,0,0,1,2,0v1h1a1,1,0,0,1,0,2H31.5A.5.5,0,0,0,31.5,46Z"/><path d="M51.28,42.48C37.74,29.69,38,29.85,37.9,29.85c-.61.21,0,.15-10.9.15a3,3,0,0,1-.91-.15L12.72,42.48A11.9,11.9,0,0,0,20.88,63H43.12C53.89,63,59,49.83,51.28,42.48ZM42,47c0,2.81-.92,1.78,1,2.9a1,1,0,0,1,.36,1.37c-.56,1-.15.27-2,3.46A1,1,0,0,1,40,55.1l-1.28-.74A9.77,9.77,0,0,1,35,56.53V58a1,1,0,0,1-1,1H30a1,1,0,0,1-1-1V56.53a9.7,9.7,0,0,1-3.75-2.17c-2.43,1.4-2,1.5-4.22-2.36-.36-.62-.66-1-.52-1.49s.49-.63,1.73-1.34a9.93,9.93,0,0,1,0-4.34c-2.5-1.43-2.32-.9.37-5.56A1,1,0,0,1,24,38.9l1.28.74A9.77,9.77,0,0,1,29,37.47V36a1,1,0,0,1,1-1h4a1,1,0,0,1,1,1v1.47a9.7,9.7,0,0,1,3.75,2.17L40,38.9a1,1,0,0,1,1.36.37c2.69,4.65,2.89,4.11.37,5.56A9.88,9.88,0,0,1,42,47Z"/></g></svg>