<svg xmlns="http://www.w3.org/2000/svg" viewBox="0 0 64 64"><title>Calculator</title><g id="Calculator"><rect x="13" y="7" width="38" height="12"/><rect x="24" y="53" width="5" height="4" rx="1"/><path d="M17,25H14a1,1,0,0,0,0,2h3A1,1,0,0,0,17,25Z"/><rect x="13" y="33" width="5" height="4" rx="1"/><rect x="13" y="43" width="5" height="4" rx="1"/><rect x="13" y="53" width="5" height="4" rx="1"/><path d="M55,1H9A2,2,0,0,0,7,3V61a2,2,0,0,0,2,2H55a2,2,0,0,0,2-2V3A2,2,0,0,0,55,1ZM20,56a3,3,0,0,1-3,3H14a3,3,0,0,1-3-3V54a3,3,0,0,1,3-3h3a3,3,0,0,1,3,3Zm0-10a3,3,0,0,1-3,3H14a3,3,0,0,1-3-3V44a3,3,0,0,1,3-3h3a3,3,0,0,1,3,3Zm0-10a3,3,0,0,1-3,3H14a3,3,0,0,1-3-3V34a3,3,0,0,1,3-3h3a3,3,0,0,1,3,3Zm-3-7H14a3,3,0,0,1,0-6h3a3,3,0,0,1,0,6ZM31,56a3,3,0,0,1-3,3H25a3,3,0,0,1-3-3V54a3,3,0,0,1,3-3h3a3,3,0,0,1,3,3Zm0-10a3,3,0,0,1-3,3H25a3,3,0,0,1-3-3V44a3,3,0,0,1,3-3h3a3,3,0,0,1,3,3Zm0-10a3,3,0,0,1-3,3H25a3,3,0,0,1-3-3V34a3,3,0,0,1,3-3h3a3,3,0,0,1,3,3Zm-3-7H25a3,3,0,0,1,0-6h3a3,3,0,0,1,0,6ZM42,56a3,3,0,0,1-3,3H36a3,3,0,0,1-3-3V54a3,3,0,0,1,3-3h3a3,3,0,0,1,3,3Zm0-10a3,3,0,0,1-3,3H36a3,3,0,0,1-3-3V44a3,3,0,0,1,3-3h3a3,3,0,0,1,3,3Zm0-10a3,3,0,0,1-3,3H36a3,3,0,0,1-3-3V34a3,3,0,0,1,3-3h3a3,3,0,0,1,3,3Zm-3-7H36a3,3,0,0,1,0-6h3a3,3,0,0,1,0,6ZM53,56a3,3,0,0,1-3,3H47a3,3,0,0,1-3-3V44a3,3,0,0,1,3-3h3a3,3,0,0,1,3,3Zm0-20a3,3,0,0,1-3,3H47a3,3,0,0,1-3-3V34a3,3,0,0,1,3-3h3a3,3,0,0,1,3,3Zm-3-7H47a3,3,0,0,1,0-6h3a3,3,0,0,1,0,6Zm3-9a1,1,0,0,1-1,1H12a1,1,0,0,1-1-1V6a1,1,0,0,1,1-1H52a1,1,0,0,1,1,1Z"/><path d="M39,25H36a1,1,0,0,0,0,2h3A1,1,0,0,0,39,25Z"/><rect x="46" y="43" width="5" height="14" rx="1"/><rect x="35" y="33" width="5" height="4" rx="1"/><rect x="24" y="43" width="5" height="4" rx="1"/><path d="M50,25H47a1,1,0,0,0,0,2h3A1,1,0,0,0,50,25Z"/><rect x="46" y="33" width="5" height="4" rx="1"/><rect x="24" y="33" width="5" height="4" rx="1"/><path d="M28,25H25a1,1,0,0,0,0,2h3A1,1,0,0,0,28,25Z"/><rect x="35" y="53" width="5" height="4" rx="1"/><rect x="35" y="43" width="5" height="4" rx="1"/></g></svg>