<svg xmlns="http://www.w3.org/2000/svg" viewBox="0 0 128 128"><defs><style>.cls-1{fill:#a0aec0;}</style></defs><title>Can Not Reach the Connection</title><g id="Can_Not_Reach_the_Connection" data-name="Can Not Reach the Connection"><path class="cls-1" d="M110,93h-3.52c6.39-14.25-8.1-28.59-22-22.68A33,33,0,0,0,21,83.08,22,22,0,0,0,23,127h87a17,17,0,0,0,0-34ZM40,103c-8.07,0-10.82-10-8-10a1,1,0,0,1,1,1,7,7,0,1,0,14,0,1,1,0,0,1,1-1C50.8,93,48.13,103,40,103Zm30,14H58a1,1,0,0,1,0-2H70A1,1,0,0,1,70,117Zm18-14c-8.07,0-10.82-10-8-10a1,1,0,0,1,1,1,7,7,0,0,0,14,0,1,1,0,0,1,1-1C98.8,93,96.13,103,88,103Z"/><polyline class="cls-1" points="74 36 86 36 74 52 86 52"/><polyline class="cls-1" points="94 18 106 18 94 34 106 34"/><polyline class="cls-1" points="114 2 126 2 114 18 126 18"/></g></svg>