<svg xmlns="http://www.w3.org/2000/svg" viewBox="0 0 128 128"><defs><style>.cls-1{fill:#a0aec0;}</style></defs><title>Cart or List Is Empty</title><g id="Cart_or_List_Is_Empty" data-name="Cart or List Is Empty"><path class="cls-1" d="M64,1A23,23,0,1,0,87,24,23,23,0,0,0,64,1ZM74.72,33.28A1,1,0,0,1,74,35c-.6,0,.06.48-10-9.58C54,35.49,54.6,35,54,35a1,1,0,0,1-.72-1.74L62.56,24l-9.28-9.28a1,1,0,0,1,1.44-1.44L64,22.56l9.28-9.28a1,1,0,0,1,1.44,1.44L65.44,24Z"/><path class="cls-1" d="M7.51,68l11,55.32a4.58,4.58,0,0,0,4.5,3.68h81.88a4.57,4.57,0,0,0,4.49-3.68L120.49,68Zm30.77,43.13-4-30a1,1,0,0,1,2-.26l4,30A1,1,0,0,1,38.28,111.13ZM65,111a1,1,0,0,1-2,0V81a1,1,0,0,1,2,0Zm25,.13a1,1,0,0,1-2-.26l4-30a1,1,0,0,1,2,.26Z"/><path class="cls-1" d="M124.71,52H100.42l-4.56,8.1a6,6,0,1,1-10.42-6L86.63,52H40.37l1.2,2.13a6,6,0,0,1-10.42,6L26.57,52H3.29A2.3,2.3,0,0,0,1,54.29v9.42A2.3,2.3,0,0,0,3.29,66H124.71A2.3,2.3,0,0,0,127,63.71V54.29A2.3,2.3,0,0,0,124.71,52Z"/><path class="cls-1" d="M32.88,59.12a4,4,0,0,0,6.95-4L17.48,15.45a4,4,0,1,0-6.94,4Z"/><path class="cls-1" d="M88.64,60.59h0a4,4,0,0,0,5.48-1.47l22.34-39.67a4,4,0,1,0-6.94-4L87.17,55.11A4,4,0,0,0,88.64,60.59Z"/></g></svg>