<svg xmlns="http://www.w3.org/2000/svg" viewBox="0 0 64 64"><title>Certificate</title><g id="Certificate"><path d="M32,39c-5.9,0-6.88,8.56-1.23,9.84a4.75,4.75,0,0,0,2.43,0C38.89,47.54,37.89,39,32,39Z"/><rect x="16" y="17" width="32" height="4"/><path d="M1,6V54H27V51H9a1,1,0,0,1-1-1,3,3,0,0,0-3-3,1,1,0,0,1-1-1V14a1,1,0,0,1,1-1,3,3,0,0,0,3-3A1,1,0,0,1,9,9H55a1,1,0,0,1,1,1,3,3,0,0,0,3,3,1,1,0,0,1,1,1V46a1,1,0,0,1-1,1,3,3,0,0,0-3,3,1,1,0,0,1-1,1H37v3H63V6Z"/><path d="M54.1,49A5,5,0,0,1,58,45.1V14.9A5,5,0,0,1,54.1,11H9.9A5,5,0,0,1,6,14.9V45.1A5,5,0,0,1,9.9,49c19.24,0,17.25.07,17.1-.12a7,7,0,1,1,10,0C36.86,49.07,34.93,49,54.1,49ZM49,44H43a1,1,0,0,1,0-2h6A1,1,0,0,1,49,44ZM14,16a1,1,0,0,1,1-1H49a1,1,0,0,1,1,1v6a1,1,0,0,1-1,1H15a1,1,0,0,1-1-1Zm1,11H49a1,1,0,0,1,0,2H15A1,1,0,0,1,15,27Zm6,17H15a1,1,0,0,1,0-2h6A1,1,0,0,1,21,44ZM15,34a1,1,0,0,1,0-2H49a1,1,0,0,1,0,2Z"/><path d="M29,50.32V58l3-2,3,2V50.32A6.93,6.93,0,0,1,29,50.32Z"/></g></svg>