<svg xmlns="http://www.w3.org/2000/svg" viewBox="0 0 64 64"><title>Chemistry</title><g id="Chemistry"><path d="M29.43,39.24c-4.91,1.76-6.93-1.49-9.11-1.49h-.13a0,0,0,0,0,0,0s0,0,0,0,0,0,0,0a6.42,6.42,0,0,0-3.23,1C5.3,57.54,6,56.24,6,56.76A1.25,1.25,0,0,0,7.24,58H38.76A1.25,1.25,0,0,0,40,56.76C40,56.24,40.81,57.71,29.43,39.24Z"/><path d="M45,56.76c0-2.45.27-1.34-15.11-26.31-.33.68-.79.55-2.89.55a1,1,0,0,1,0-2h2V26H26a1,1,0,0,1,0-2h3V21H27a1,1,0,0,1,0-2h2V16H26a1,1,0,0,1,0-2h3V11H27a1,1,0,0,1,0-2h2V7H17V29L1.92,53.5A6.25,6.25,0,0,0,7.24,63H38.76A6.24,6.24,0,0,0,45,56.76Zm-4.47,2.71c-1.12.75,1,.53-33.29.53a3.24,3.24,0,0,1-2.76-4.93C16,36.4,15.29,37.37,15.66,37.14c7.21-4.23,7.75,2.59,13.78-.06a1,1,0,0,1,1.08.19c.28.28,5.92,9.65,6.08,9.81C42,55.81,42,55.54,42,56.76A3.22,3.22,0,0,1,40.53,59.47Z"/><path d="M17,5H29a2,2,0,0,0,0-4H17a2,2,0,0,0,0,4Z"/><path d="M56.53,40.29c-9.69,4-11-2-18.76-.84l8,13A8.2,8.2,0,0,1,46.91,58,12,12,0,0,0,56.53,40.29Z"/><path d="M52.88,30.46c-.34.69-.89.54-2.88.54a1,1,0,0,1,0-2h2V26H49a1,1,0,0,1,0-2h3V21H50a1,1,0,0,1,0-2h2V16H49a1,1,0,0,1,0-2h3V11H50a1,1,0,0,1,0-2h2V7H40V30.09a16.73,16.73,0,0,0-5.75,3.63l2.39,3.88c9.71-1.76,10,5,19.89.51a1,1,0,0,1,1.25.37A14,14,0,0,1,46.34,60a8.15,8.15,0,0,1-2.09,2.91,17,17,0,0,0,8.63-32.44Z"/><path d="M40,5H52a2,2,0,0,0,0-4H40a2,2,0,0,0,0,4Z"/></g></svg>