<svg xmlns="http://www.w3.org/2000/svg" viewBox="0 0 64 64"><title>Clock</title><g id="Clock"><path d="M32,15A21,21,0,1,0,53,36,21,21,0,0,0,32,15ZM14.68,26a1,1,0,0,1,1.73,1A1,1,0,0,1,14.68,26Zm1.37,20.37a1,1,0,0,1-1-1.74A1,1,0,0,1,16.05,46.37ZM16,37H13a1,1,0,0,1,0-2h3A1,1,0,0,1,16,37ZM31,17a1,1,0,0,1,2,0v3a1,1,0,0,1-2,0Zm-9,1.68a1,1,0,0,1,1,1.73A1,1,0,0,1,22,18.68ZM23.37,53a1,1,0,0,1-1.74-1A1,1,0,0,1,23.37,53ZM33,55a1,1,0,0,1-2,0V52a1,1,0,0,1,2,0Zm2-18H33.73a2.13,2.13,0,0,1-.73.73V39a1,1,0,0,1-2,0V37.73c-1.57-.94,1.59-.73-8-.73a1,1,0,0,1,0-2c9.66,0,6.4.23,8-.73V24a1,1,0,0,1,2,0c0,13.1-.25,9.37.73,11H35A1,1,0,0,1,35,37Zm7,16.32a1,1,0,0,1-1-1.73A1,1,0,0,1,42,53.32Zm.37-33.27a1,1,0,0,1-1.74-1A1,1,0,0,1,42.37,20.05Zm7,26a1,1,0,0,1-1.73-1A1,1,0,0,1,49.32,46ZM48,25.63a1,1,0,0,1,1,1.74A1,1,0,0,1,48,25.63ZM48,35h3a1,1,0,0,1,0,2H48A1,1,0,0,1,48,35Z"/><path d="M59.89,23.11A10.61,10.61,0,0,0,48.33,5.81C46.08,6.75,45.05,8,43.5,9.5l5.67,5.67A26.74,26.74,0,0,0,33,9a35.08,35.08,0,0,0,0-4h2V1H29V5h2a36.83,36.83,0,0,0,0,4,26.74,26.74,0,0,0-16.18,6.14L20.5,9.5C18.24,7.24,16.07,5,11.61,5A10.62,10.62,0,0,0,1,15.61c0,4.47,2.37,6.76,4.5,8.89l5.67-5.67C-3.13,36.13,8.91,63,32,63S67.14,36.14,52.83,18.83L58.5,24.5ZM32,59A23,23,0,1,1,55,36,23,23,0,0,1,32,59Z"/><path d="M11,63h5l2.06-1.56a27.41,27.41,0,0,1-3.86-2.55Z"/><path d="M45.94,61.44,48,63h5l-3.2-4.11A27.41,27.41,0,0,1,45.94,61.44Z"/></g></svg>