<svg xmlns="http://www.w3.org/2000/svg" viewBox="0 0 64 64"><title>Cloud Data</title><g id="Cloud_Data" data-name="Cloud Data"><polygon points="39.46 58 40.8 56 23.2 56 24.54 58 39.46 58"/><path d="M61,56H43a1,1,0,0,1-.17.55C40.71,59.72,40.7,60,40,60c-17.24,0-16.42.19-16.83-.45C21.05,56.37,21,56.4,21,56H3a2,2,0,0,0-2,2v2a4,4,0,0,0,4,4H59a4,4,0,0,0,4-4V58A2,2,0,0,0,61,56Z"/><path d="M26,26H20.71a9.08,9.08,0,0,1-8.83-7H10V49H54V19H52.32a7.65,7.65,0,0,1-7.61,7H38v8H48a1,1,0,0,1,1,1v5.18a3,3,0,1,1-2,0V36H37a1,1,0,0,1-1-1V26H33V40.18a3,3,0,1,1-2,0V26H28v9a1,1,0,0,1-1,1H17v4.18a3,3,0,1,1-2,0V35a1,1,0,0,1,1-1H26Z"/><path d="M15,43a1,1,0,0,0,2,0A1,1,0,0,0,15,43Z"/><path d="M32,44a1,1,0,0,0,0-2A1,1,0,0,0,32,44Z"/><path d="M59,17a3,3,0,0,0-3-3H51a7.44,7.44,0,0,1,1.24,3H55a1,1,0,0,1,1,1V50a1,1,0,0,1-1,1H9a1,1,0,0,1-1-1V18a1,1,0,0,1,1-1h2.65a8.75,8.75,0,0,1,.5-3H8a3,3,0,0,0-3,3V54H59Z"/><path d="M48,44a1,1,0,0,0,0-2A1,1,0,0,0,48,44Z"/><path d="M20.71,24h24a5.64,5.64,0,0,0,1.4-11.11,4.92,4.92,0,0,0-5.85-5,9.88,9.88,0,0,0-19.55,2,7.06,7.06,0,0,0,0,14.12Z"/></g></svg>