<svg xmlns="http://www.w3.org/2000/svg" viewBox="0 0 64 64"><title>Cloud Computing</title><g id="Cloud_Computing" data-name="Cloud Computing"><path d="M16,35H50a8,8,0,0,0,2-15.74,7,7,0,0,0-8.29-7.14A14,14,0,0,0,16,15a10,10,0,0,0,0,20Z"/><path d="M39,47H25a1,1,0,0,0-1,1V58a1,1,0,0,0,1,1h5v2H28a1,1,0,0,0,0,2h8a1,1,0,0,0,0-2H34V59h5a1,1,0,0,0,1-1V48A1,1,0,0,0,39,47Z"/><path d="M62,47H48a1,1,0,0,0-1,1V58a1,1,0,0,0,1,1h5v2H51a1,1,0,0,0,0,2h8a1,1,0,0,0,0-2H57V59h5a1,1,0,0,0,1-1V48A1,1,0,0,0,62,47Z"/><path d="M16,47H2a1,1,0,0,0-1,1V58a1,1,0,0,0,1,1H7v2H5a1,1,0,0,0,0,2h8a1,1,0,0,0,0-2H11V59h5a1,1,0,0,0,1-1V48A1,1,0,0,0,16,47Z"/><path d="M33,45V37H31v8A1,1,0,0,0,33,45Z"/><path d="M9,40a1,1,0,0,0-1,1v4a1,1,0,0,0,2,0V42H28a1,1,0,0,0,1-1V37H27v3Z"/><path d="M56,45V41a1,1,0,0,0-1-1H37V37H35v4a1,1,0,0,0,1,1H54v3A1,1,0,0,0,56,45Z"/></g></svg>