<svg xmlns="http://www.w3.org/2000/svg" viewBox="0 0 128 128"><defs><style>.cls-1{fill:#a0aec0;}</style></defs><title>Come Back Later</title><g id="Come_Back_Later" data-name="Come Back Later"><polyline class="cls-1" points="59 8 59 1 69 1 69 8"/><rect class="cls-1" x="59" y="97" width="10" height="30"/><path class="cls-1" d="M1,10V95H127V10ZM86,74H26a1,1,0,0,1,0-2H86a15,15,0,1,0,0-30H56.46L67.22,52.78a1,1,0,0,1-.72,1.74c-.61,0,.46.88-13.22-12.8a1,1,0,0,1-.15-1.23c.06-.15-.75.69,12.65-12.71a1,1,0,0,1,1.44,1.44L56.46,40H86a17,17,0,0,1,0,34Z"/></g></svg>