<svg xmlns="http://www.w3.org/2000/svg" viewBox="0 0 128 128"><defs><style>.cls-1{fill:#a0aec0;}</style></defs><title>Coming Soon</title><g id="Coming_Soon" data-name="Coming Soon"><path class="cls-1" d="M64,33a41,41,0,1,0,41,41A41,41,0,0,0,64,33ZM29,75H26a1,1,0,0,1,0-2h3A1,1,0,0,1,29,75Zm2.59,18.85a1,1,0,0,1-1-1.74A1,1,0,0,1,31.59,93.87ZM32,55.5a1,1,0,0,1-1.73-1A1,1,0,0,1,32,55.5ZM82.13,40.59a1,1,0,0,1,1.74,1A1,1,0,0,1,82.13,40.59ZM63,36a1,1,0,0,1,2,0v3a1,1,0,0,1-2,0ZM44.5,40.23a1,1,0,0,1,1,1.73A1,1,0,0,1,44.5,40.23Zm1.37,67.18a1,1,0,0,1-1.74-1A1,1,0,0,1,45.87,107.41ZM65,112a1,1,0,0,1-2,0v-3a1,1,0,0,1,2,0Zm18.48-4.23a1,1,0,0,1-1-1.73A1,1,0,0,1,83.5,107.77ZM64,98a21,21,0,0,1,0-42H77.54l-9.26-9.26a1,1,0,0,1,1.44-1.44C81.53,57.09,80.81,56.34,80.87,56.49a1,1,0,0,1,0,1c-.06.15.6-.54-11.15,11.21a1,1,0,0,1-1.44-1.44L77.54,58H64A19,19,0,1,0,83,77a1,1,0,0,1,2,0A21,21,0,0,1,64,98ZM96.41,54.13a1,1,0,0,1,1,1.74A1,1,0,0,1,96.41,54.13ZM97.77,93.5a1,1,0,0,1-1.73-1A1,1,0,0,1,97.77,93.5ZM102,75H99a1,1,0,0,1,0-2h3A1,1,0,0,1,102,75Z"/><path class="cls-1" d="M64,21a53,53,0,1,0,53,53A53,53,0,0,0,64,21Zm0,96a43,43,0,1,1,43-43A43.07,43.07,0,0,1,64,117Z"/><rect class="cls-1" x="56" y="1" width="16" height="11"/><path class="cls-1" d="M19.77,41.32a54.59,54.59,0,0,1,9.39-9.88l-1.27-1.27a6.81,6.81,0,0,0-9.64,9.63Z"/><path class="cls-1" d="M108.23,41.32c1.74-1.74,3.51-3.16,3.51-6.34a6.82,6.82,0,0,0-11.63-4.81l-1.27,1.27A54.59,54.59,0,0,1,108.23,41.32Z"/><path class="cls-1" d="M67,19.08V14H61v5.08A54.58,54.58,0,0,1,67,19.08Z"/></g></svg>