<svg xmlns="http://www.w3.org/2000/svg" viewBox="0 0 64 64">
  <defs>
    <style>
      .cls-1 {
        fill: #eb7260;
      }
    </style>
  </defs>
  <g id="Comparison">
    <path class="cls-1"
      d="M5,1V9H59V1Zm5,5a1,1,0,0,1,0-2A1,1,0,0,1,10,6Zm5,0a1,1,0,0,1,0-2A1,1,0,0,1,15,6Zm5,0a1,1,0,0,1,0-2A1,1,0,0,1,20,6Z" />
    <path class="cls-1" d="M59,11v8H35a1,1,0,0,0-1,1V52H30V20a1,1,0,0,0-1-1H5V11Z" />
    <path class="cls-1"
      d="M14,32.85,13.19,35h1.62Zm0,0L13.19,35h1.62Zm0,0L13.19,35h1.62Zm0,0L13.19,35h1.62ZM6,27V41H22V27ZM16.06,38.35,15.55,37h-3.1l-.51,1.35a1,1,0,0,1-1.88-.7C13.25,29.2,13,29,14,29s.75.2,3.94,8.65A1,1,0,0,1,16.06,38.35ZM13.19,35h1.62L14,32.85ZM14,32.85,13.19,35h1.62Zm0,0L13.19,35h1.62Zm0,0L13.19,35h1.62Zm0,0L13.19,35h1.62Zm0,0L13.19,35h1.62Zm0,0L13.19,35h1.62Zm0,0L13.19,35h1.62Zm0,0L13.19,35h1.62ZM6,27V41H22V27ZM16.06,38.35,15.55,37h-3.1l-.51,1.35a1,1,0,0,1-1.88-.7C13.25,29.2,13,29,14,29s.75.2,3.94,8.65A1,1,0,0,1,16.06,38.35ZM13.19,35h1.62L14,32.85ZM14,32.85,13.19,35h1.62Zm0,0L13.19,35h1.62Zm0,0L13.19,35h1.62Zm0,0L13.19,35h1.62Zm0,0L13.19,35h1.62Zm0,0L13.19,35h1.62Zm0,0L13.19,35h1.62Zm0,0L13.19,35h1.62ZM6,27V41H22V27ZM16.06,38.35,15.55,37h-3.1l-.51,1.35a1,1,0,0,1-1.88-.7C13.25,29.2,13,29,14,29s.75.2,3.94,8.65A1,1,0,0,1,16.06,38.35ZM13.19,35h1.62L14,32.85ZM14,32.85,13.19,35h1.62Zm0,0L13.19,35h1.62Zm0,0L13.19,35h1.62Zm0,0L13.19,35h1.62ZM6,27V41H22V27ZM16.06,38.35,15.55,37h-3.1l-.51,1.35a1,1,0,0,1-1.88-.7C13.25,29.2,13,29,14,29s.75.2,3.94,8.65A1,1,0,0,1,16.06,38.35ZM13.19,35h1.62L14,32.85ZM14,32.85,13.19,35h1.62Zm0,0L13.19,35h1.62Zm0,0L13.19,35h1.62Zm0,0L13.19,35h1.62ZM6,27V41H22V27ZM16.06,38.35,15.55,37h-3.1l-.51,1.35a1,1,0,0,1-1.88-.7C13.25,29.2,13,29,14,29s.75.2,3.94,8.65A1,1,0,0,1,16.06,38.35ZM13.19,35h1.62L14,32.85ZM6,27V41H22V27ZM16.06,38.35,15.55,37h-3.1l-.51,1.35a1,1,0,0,1-1.88-.7C13.25,29.2,13,29,14,29s.75.2,3.94,8.65A1,1,0,0,1,16.06,38.35ZM13.19,35h1.62L14,32.85ZM0,21V63H28V21ZM5,58a1,1,0,0,1,0-2A1,1,0,0,1,5,58Zm0-5a1,1,0,0,1,0-2A1,1,0,0,1,5,53Zm0-5a1,1,0,0,1,0-2A1,1,0,0,1,5,48ZM23,58H9a1,1,0,0,1,0-2H23A1,1,0,0,1,23,58Zm0-5H9a1,1,0,0,1,0-2H23A1,1,0,0,1,23,53Zm0-5H9a1,1,0,0,1,0-2H23A1,1,0,0,1,23,48Zm1-6a1,1,0,0,1-1,1H5a1,1,0,0,1-1-1V26a1,1,0,0,1,1-1H23a1,1,0,0,1,1,1ZM6,41H22V27H6Zm4.06-3.35c1-2.72.36-.93,3-8a1,1,0,0,1,1.88,0c2.64,7.07,2,5.28,3,8A1,1,0,0,1,17,39c-.86,0-1-.72-1.45-2h-3.1l-.51,1.35A1,1,0,0,1,10.06,37.65ZM14,32.85,13.19,35h1.62Zm0,0L13.19,35h1.62Zm0,0L13.19,35h1.62ZM6,27V41H22V27ZM16.06,38.35,15.55,37h-3.1l-.51,1.35a1,1,0,0,1-1.88-.7C13.25,29.2,13,29,14,29s.75.2,3.94,8.65A1,1,0,0,1,16.06,38.35ZM13.19,35h1.62L14,32.85ZM14,32.85,13.19,35h1.62Zm0,0L13.19,35h1.62ZM6,27V41H22V27ZM16.06,38.35,15.55,37h-3.1l-.51,1.35a1,1,0,0,1-1.88-.7C13.25,29.2,13,29,14,29s.75.2,3.94,8.65A1,1,0,0,1,16.06,38.35ZM13.19,35h1.62L14,32.85ZM14,32.85,13.19,35h1.62Zm0,0L13.19,35h1.62Zm0,0L13.19,35h1.62Zm0,0L13.19,35h1.62Zm0,0L13.19,35h1.62Zm0,0L13.19,35h1.62ZM6,27V41H22V27ZM16.06,38.35,15.55,37h-3.1l-.51,1.35a1,1,0,0,1-1.88-.7C13.25,29.2,13,29,14,29s.75.2,3.94,8.65A1,1,0,0,1,16.06,38.35ZM13.19,35h1.62L14,32.85ZM14,32.85,13.19,35h1.62Zm0,0L13.19,35h1.62Zm0,0L13.19,35h1.62Zm0,0L13.19,35h1.62Zm0,0L13.19,35h1.62Zm0,0L13.19,35h1.62ZM6,27V41H22V27ZM16.06,38.35,15.55,37h-3.1l-.51,1.35a1,1,0,0,1-1.88-.7C13.25,29.2,13,29,14,29s.75.2,3.94,8.65A1,1,0,0,1,16.06,38.35ZM13.19,35h1.62L14,32.85ZM14,32.85,13.19,35h1.62Zm0,0L13.19,35h1.62Zm0,0L13.19,35h1.62Zm0,0L13.19,35h1.62Zm0,0L13.19,35h1.62Zm0,0L13.19,35h1.62Zm0,0L13.19,35h1.62Zm0,0L13.19,35h1.62ZM6,27V41H22V27ZM16.06,38.35,15.55,37h-3.1l-.51,1.35a1,1,0,0,1-1.88-.7C13.25,29.2,13,29,14,29s.75.2,3.94,8.65A1,1,0,0,1,16.06,38.35ZM13.19,35h1.62L14,32.85ZM14,32.85,13.19,35h1.62Zm0,0L13.19,35h1.62Zm0,0L13.19,35h1.62Zm0,0L13.19,35h1.62Zm0,0L13.19,35h1.62Zm0,0L13.19,35h1.62Zm0,0L13.19,35h1.62Zm0,0L13.19,35h1.62ZM6,27V41H22V27ZM16.06,38.35,15.55,37h-3.1l-.51,1.35a1,1,0,0,1-1.88-.7C13.25,29.2,13,29,14,29s.75.2,3.94,8.65A1,1,0,0,1,16.06,38.35ZM13.19,35h1.62L14,32.85ZM14,32.85,13.19,35h1.62Zm0,0L13.19,35h1.62Zm0,0L13.19,35h1.62Zm0,0L13.19,35h1.62Z" />
    <path class="cls-1" d="M51,37H48V35h3A1,1,0,0,1,51,37Z" />
    <path class="cls-1"
      d="M50,31H48v2h2A1,1,0,0,0,50,31Zm0,0H48v2h2A1,1,0,0,0,50,31Zm0,0H48v2h2A1,1,0,0,0,50,31Zm0,0H48v2h2A1,1,0,0,0,50,31Zm0,0H48v2h2A1,1,0,0,0,50,31Zm0,0H48v2h2A1,1,0,0,0,50,31Zm0,0H48v2h2A1,1,0,0,0,50,31Zm-8-4V41H58V27Zm9,12H47a1,1,0,0,1-1-1V30a1,1,0,0,1,1-1h3a3,3,0,0,1,2.62,4.47A3,3,0,0,1,51,39Zm-1-8H48v2h2A1,1,0,0,0,50,31Zm0,0H48v2h2A1,1,0,0,0,50,31Zm0,0H48v2h2A1,1,0,0,0,50,31Zm0,0H48v2h2A1,1,0,0,0,50,31Zm0,0H48v2h2A1,1,0,0,0,50,31Zm0,0H48v2h2A1,1,0,0,0,50,31Zm0,0H48v2h2A1,1,0,0,0,50,31Z" />
    <path class="cls-1"
      d="M36,21V63H64V21Zm5,37a1,1,0,0,1,0-2A1,1,0,0,1,41,58Zm0-5a1,1,0,0,1,0-2A1,1,0,0,1,41,53Zm0-5a1,1,0,0,1,0-2A1,1,0,0,1,41,48ZM59,58H45a1,1,0,0,1,0-2H59A1,1,0,0,1,59,58Zm0-5H45a1,1,0,0,1,0-2H59A1,1,0,0,1,59,53Zm0-5H45a1,1,0,0,1,0-2H59A1,1,0,0,1,59,48Zm1-6a1,1,0,0,1-1,1H41a1,1,0,0,1-1-1V26a1,1,0,0,1,1-1H59a1,1,0,0,1,1,1Z" />
  </g>
</svg>