<svg xmlns="http://www.w3.org/2000/svg" viewBox="0 0 128 128"><defs><style>.cls-1{fill:#a0aec0;}</style></defs><title>Contact</title><g id="Contact"><rect class="cls-1" x="4" y="105" width="120" height="10"/><circle class="cls-1" cx="64" cy="76" r="9.98" transform="translate(-24.21 30.28) rotate(-22.5)"/><path class="cls-1" d="M64,57A19,19,0,1,0,83,76,19,19,0,0,0,64,57Zm0,31A12,12,0,1,1,76,76,12,12,0,0,1,64,88Z"/><path class="cls-1" d="M93.41,65.07A9.25,9.25,0,0,1,87,56.26,8.26,8.26,0,0,0,78.74,48H49.26A8.26,8.26,0,0,0,41,56.26a9.25,9.25,0,0,1-6.41,8.81A39.87,39.87,0,0,0,7,103H121A39.87,39.87,0,0,0,93.41,65.07ZM64,97A21,21,0,1,1,85,76,21,21,0,0,1,64,97Z"/><path class="cls-1" d="M77,46V40A12.44,12.44,0,0,0,87,27.8V26a2,2,0,0,0-2-2H82a2,2,0,0,0-2,2,5,5,0,0,1-5,5H53a5,5,0,0,1-5-5,2,2,0,0,0-2-2H43a2,2,0,0,0-2,2v1.8A12.45,12.45,0,0,0,51,40v6Z"/><path class="cls-1" d="M34.3,40,36,44C17,63,6,63,6,63a30.33,30.33,0,0,1-2.76-5.12C15,56.43,29.67,44.15,34.3,40Z"/><path class="cls-1" d="M93.7,40c4.63,4.13,19.28,16.41,31.06,17.86A30.33,30.33,0,0,1,122,63s-11,0-30-19Z"/><path class="cls-1" d="M125.5,56a.86.86,0,0,0-.23-.06C111.86,54.42,95.14,38.3,94.52,38.11L95,37s2.69-5.38-6.37-5.95A19.84,19.84,0,0,0,89,26a4,4,0,0,0-4-4H82a4,4,0,0,0-4,4,3,3,0,0,1-3,3H53a3,3,0,0,1-3-3,4,4,0,0,0-4-4H43a4,4,0,0,0-4,4,19.84,19.84,0,0,0,.37,5.05C30.31,31.62,33,37,33,37c.62,1.44.52,1,.19,1.28C13.85,55.66,3,55.76,2.5,56a28.48,28.48,0,0,1,17.59-36c26.93-9.25,60.86-9.26,87.82,0A28.47,28.47,0,0,1,125.5,56Z"/></g></svg>