<svg xmlns="http://www.w3.org/2000/svg" viewBox="0 0 64 64"><title>Creative Idea</title><g id="Creative_Idea" data-name="Creative Idea"><path d="M1,0V8H63V0ZM6,5A1,1,0,0,1,6,3,1,1,0,0,1,6,5Zm5,0a1,1,0,0,1,0-2A1,1,0,0,1,11,5Zm5,0a1,1,0,0,1,0-2A1,1,0,0,1,16,5Z"/><path d="M1,10V51H24c0-2-.68-3.27-2.82-5.23C10.49,36,17.43,18,32,18S53.55,35.86,42.86,45.73C41,47.48,40,48.78,40,51H63V10ZM16.44,48.14,18.57,46A1,1,0,0,1,20,47.44l-2.12,2.12A1,1,0,0,1,16.44,48.14ZM14,35H11a1,1,0,0,1,0-2h3A1,1,0,0,1,14,35Zm4.57-13-2.13-2.12a1,1,0,0,1,1.42-1.42L20,20.56A1,1,0,0,1,18.57,22ZM33,16a1,1,0,0,1-2,0V13a1,1,0,0,1,2,0Zm14.56,3.86c-2.31,2.3-2.29,2.41-2.83,2.41A1,1,0,0,1,44,20.56l2.12-2.12A1,1,0,0,1,47.56,19.86Zm-1.42,29.7L44,47.44A1,1,0,0,1,45.43,46l2.13,2.12A1,1,0,0,1,46.14,49.56ZM53,35H50a1,1,0,0,1,0-2h3A1,1,0,0,1,53,35Z"/><path d="M1,0V8H63V0ZM6,5A1,1,0,0,1,6,3,1,1,0,0,1,6,5Zm5,0a1,1,0,0,1,0-2A1,1,0,0,1,11,5Zm5,0a1,1,0,0,1,0-2A1,1,0,0,1,16,5Z"/><path d="M31.32,20c-12.26.57-18,15.85-8.79,24.28A9.5,9.5,0,0,1,25.76,49H38.24a9.88,9.88,0,0,1,3.26-4.74C51,35.52,44.46,19.4,31.32,20ZM31,34h2a3,3,0,0,1,0,6v1a1,1,0,0,1-2,0V40H29a1,1,0,0,1,0-2h4a1,1,0,0,0,0-2H31a3,3,0,0,1,0-6V29a1,1,0,0,1,2,0v1h2a1,1,0,0,1,0,2H31A1,1,0,0,0,31,34Z"/><path d="M26.21,59.09l11.12.8C36.14,61.37,35,61,29,61A3,3,0,0,1,26.21,59.09Z"/><polygon points="38 51 38 53.92 26 53.07 26 51 38 51"/><polygon points="26 55.08 38 55.93 38 57.92 26 57.07 26 55.08"/><path d="M32,64c-2.12,0-2.59-1.78-3-3h6l-.37,1.1A2.77,2.77,0,0,1,32,64Z"/></g></svg>