<svg id="Data_User" data-name="Data User" xmlns="http://www.w3.org/2000/svg" viewBox="0 0 128 128"><defs><style>.cls-1{fill:#a0aec0;}</style></defs><title>Data User</title><path class="cls-1" d="M24,109V1H23a8,8,0,0,0-8,8V113C17.46,109.8,20.34,109,24,109Z"/><path class="cls-1" d="M109,1H26V109c86.45,0,83.07,0,83.18,0a4,4,0,0,0,3.26-2c.79-1.38.54,5,.54-102A4,4,0,0,0,109,1ZM96.5,101h-56a1,1,0,0,1,0-2h56A1,1,0,0,1,96.5,101Zm0-12h-56a1,1,0,0,1,0-2h56A1,1,0,0,1,96.5,89ZM75.14,77.24A33,33,0,1,1,101,45,33,33,0,0,1,75.14,77.24Z"/><path class="cls-1" d="M48.61,69.12h0C59.09,77.86,74.93,78,85.14,70.78c.1-.06,2.25-1.56,2.25-1.66C81.49,46.3,54.51,46.32,48.61,69.12Z"/><path class="cls-1" d="M68,14C40,14,26.36,48.65,46.91,67.67,49.42,59,55.17,52.84,62.43,50.76a13,13,0,1,1,11.14,0c7.26,2.08,13,8.22,15.52,16.9C109.59,48.58,96.11,14,68,14Z"/><circle class="cls-1" cx="68" cy="39" r="10.98"/><path class="cls-1" d="M109,111H24c-2.55,0-4.59.31-6.64,2.34C12.25,118.43,16,127,23.31,127H109a4,4,0,0,0,4-4V109.46A6,6,0,0,1,109,111Z"/></svg>