<svg xmlns="http://www.w3.org/2000/svg" viewBox="0 0 64 64"><title>Data Analytic</title><g id="Data_Analytic" data-name="Data Analytic"><polygon points="39.46 58 40.8 56 23.2 56 24.54 58 39.46 58"/><path d="M61,56H43a1,1,0,0,1-.17.55C40.71,59.72,40.7,60,40,60c-17.25,0-16.42.19-16.83-.45C21.05,56.37,21,56.4,21,56H3a2,2,0,0,0-2,2v2a4,4,0,0,0,4,4H59a4,4,0,0,0,4-4V58A2,2,0,0,0,61,56Z"/><rect x="52" y="19" width="2" height="30"/><path d="M59,17a3,3,0,0,0-3-3H52v3h3a1,1,0,0,1,1,1V50a1,1,0,0,1-1,1H9a1,1,0,0,1-1-1V18a1,1,0,0,1,1-1h3V14H8a3,3,0,0,0-3,3V54H59Z"/><rect x="10" y="19" width="2" height="30"/><path d="M14,8V49H50V8Zm6,39a1,1,0,0,1,0-2A1,1,0,0,1,20,47Zm0-4a1,1,0,0,1,0-2A1,1,0,0,1,20,43Zm0-4a1,1,0,0,1,0-2A1,1,0,0,1,20,39Zm24,8H24a1,1,0,0,1,0-2H44A1,1,0,0,1,44,47Zm0-4H24a1,1,0,0,1,0-2H44A1,1,0,0,1,44,43Zm0-4H24a1,1,0,0,1,0-2H44A1,1,0,0,1,44,39Zm0-6H20a1,1,0,0,1-1-1V12a1,1,0,0,1,2,0V24.59l8.29-8.3a1,1,0,0,1,1.42,0L34,19.59,40.59,13H39a1,1,0,0,1,0-2c5.94,0,5-.85,5,5a1,1,0,0,1-2,0V14.41l-7.29,7.3a1,1,0,0,1-1.42,0L30,18.41l-9,9V31h3V28a1,1,0,0,1,2,0v3h3V23a1,1,0,0,1,2,0v8h3V26a1,1,0,0,1,2,0v5h3V21a1,1,0,0,1,2,0V31h3A1,1,0,0,1,44,33Z"/><path d="M14,0V6H50V0Zm4,4a1,1,0,0,1,0-2A1,1,0,0,1,18,4Zm4,0a1,1,0,0,1,0-2A1,1,0,0,1,22,4Zm4,0a1,1,0,0,1,0-2A1,1,0,0,1,26,4Z"/></g></svg>