<svg xmlns="http://www.w3.org/2000/svg" viewBox="0 0 64 64"><title>Database</title><g id="Database"><path d="M16,13.52V19c.19,1,6,3,16,3s15.81-2,16-3V13.52C41.84,16.82,22.15,16.81,16,13.52ZM28,20a1,1,0,0,1,0-2A1,1,0,0,1,28,20Zm4,0a1,1,0,0,1,0-2A1,1,0,0,1,32,20Zm4,0a1,1,0,0,1,0-2A1,1,0,0,1,36,20ZM16,5.52V11c.19,1,6,3,16,3s15.81-2,16-3V5.52C41.84,8.82,22.15,8.81,16,5.52ZM28,12a1,1,0,0,1,0-2A1,1,0,0,1,28,12Zm4,0a1,1,0,0,1,0-2A1,1,0,0,1,32,12Zm4,0a1,1,0,0,1,0-2A1,1,0,0,1,36,12ZM16,21.52V27c0,2.21,7.16,4,16,4s16-1.79,16-4V21.52C41.84,24.82,22.15,24.81,16,21.52ZM28,28a1,1,0,0,1,0-2A1,1,0,0,1,28,28Zm4,0a1,1,0,0,1,0-2A1,1,0,0,1,32,28Zm4,0a1,1,0,0,1,0-2A1,1,0,0,1,36,28Z"/><ellipse cx="32" cy="3" rx="16" ry="3"/><polygon points="24.54 58 23.2 56 40.8 56 39.46 58 24.54 58"/><path d="M63,58v2a4,4,0,0,1-4,4H5a4,4,0,0,1-4-4V58a2,2,0,0,1,2-2H21a1,1,0,0,0,.17.55C23.29,59.72,23.3,60,24,60c17.25,0,16.42.19,16.83-.45C43,56.37,43,56.4,43,56H61A2,2,0,0,1,63,58Z"/><path d="M56,14H50v3h5a1,1,0,0,1,1,1V50a1,1,0,0,1-1,1H9a1,1,0,0,1-1-1V18a1,1,0,0,1,1-1h5V14H8a3,3,0,0,0-3,3V54H59V17A3,3,0,0,0,56,14ZM16,42a1,1,0,0,0,0,2A1,1,0,0,0,16,42Zm16,0a1,1,0,0,0,0,2A1,1,0,0,0,32,42Zm0,0a1,1,0,0,0,0,2A1,1,0,0,0,32,42ZM50,19v8c0,3.81-6.67,5.21-12,5.71V36H48a1,1,0,0,1,1,1v3.18a3,3,0,1,1-2,0V38H37a1,1,0,0,1-1-1V32.87c-1.18.07-2.22.11-3,.12v7.19a3,3,0,1,1-2,0V33c-.78,0-1.82-.05-3-.12V37a1,1,0,0,1-1,1H17v2.18a3,3,0,1,1-2,0V37a1,1,0,0,1,1-1H26V32.71c-5.33-.5-12-1.9-12-5.71V19H10V49H54V19ZM48,44a1,1,0,0,0,0-2A1,1,0,0,0,48,44ZM32,42a1,1,0,0,0,0,2A1,1,0,0,0,32,42ZM16,42a1,1,0,0,0,0,2A1,1,0,0,0,16,42Zm0,0a1,1,0,0,0,0,2A1,1,0,0,0,16,42Zm0,0a1,1,0,0,0,0,2A1,1,0,0,0,16,42Z"/></g></svg>