<svg xmlns="http://www.w3.org/2000/svg" viewBox="0 0 128 128"><defs><style>.cls-1{fill:#a0aec0;}</style></defs><title>Data Not Avaible</title><g id="Data_Not_Avaible" data-name="Data Not Avaible"><path class="cls-1" d="M110,44h-3.52c6.39-14.25-8.1-28.59-22-22.68A33,33,0,0,0,21,34.08a22,22,0,0,0-20,23.41C1.82,69.13,11.84,78,23.5,78H31V48a1,1,0,0,1,1-1H81.83L97,62.17V78h12.6c8.57,0,16.59-6.94,17.33-15.47A17,17,0,0,0,110,44Z"/><polygon class="cls-1" points="82.02 61.98 93.98 61.98 82.02 50.02 82.02 61.98"/><path class="cls-1" d="M80,63V49H33v78H95V64H81A1,1,0,0,1,80,63ZM64,111a2,2,0,1,1,2-2A2,2,0,0,1,64,111ZM69,92a7,7,0,0,0-4,6.41V102a1,1,0,0,1-2,0V98.36a9,9,0,0,1,5.15-8.27A10,10,0,0,0,73.53,84c1.35-4.32-.6-9.45-3.52-11.2C62.15,68.1,54,73.5,54,81a1,1,0,0,1-2,0c0-9,9.78-15.52,19.07-10C77.61,74.94,78.35,87.68,69,92Z"/></g></svg>