<svg xmlns="http://www.w3.org/2000/svg" viewBox="0 0 128 128"><defs><style>.cls-1{fill:#a0aec0;}</style></defs><title>Delete</title><g id="Delete"><path class="cls-1" d="M23,39l5.62,82.41a6,6,0,0,0,6,5.59H93.4a6,6,0,0,0,6-5.59L105,39Zm23,68.08-4-52a1,1,0,0,1,2-.16l4,52A1,1,0,0,1,46,107.08ZM65,107a1,1,0,0,1-2,0V55a1,1,0,0,1,2,0Zm17,.08a1,1,0,0,1-2-.16l4-52a1,1,0,0,1,2,.16Z"/><path class="cls-1" d="M107.53,18.17,20.47,33.53l.23-5.42a6,6,0,0,1,4.95-5.65L98.88,9.55a6,6,0,0,1,6.58,3.62Z"/><path class="cls-1" d="M77.69,11.25l-2,.36-.37-2.1a7.86,7.86,0,0,0-9.09-6.37l-13,2.3a7.87,7.87,0,0,0-6.38,9.1l.37,2.1-2,.35c-.47-2.65-1.29-5.84,1.27-9.49a9.83,9.83,0,0,1,6.38-4.07l13-2.3a9.9,9.9,0,0,1,11.46,8Z"/><polygon class="cls-1" points="114 48 114 61 105.5 61 106.39 48 114 48"/><polygon class="cls-1" points="22.5 61 14 61 14 48 21.61 48 22.5 61"/></g></svg>