<svg xmlns="http://www.w3.org/2000/svg" viewBox="0 0 64 64"><title>Deskchair</title><g id="Deskchair"><rect x="10" y="22" width="32" height="4"/><path d="M52,41H20c-3.4,0-2.27-6,2-6H50C54.28,35,55.38,41,52,41Z"/><path d="M20,43H15.43A5.43,5.43,0,0,1,10,37.57c0-1.11,0-.9,2.79-9.57H14.9l-2.8,8.75A3.44,3.44,0,0,0,15.43,41h1.11A4,4,0,0,0,20,43Z"/><path d="M52,29.57A3.54,3.54,0,0,1,48.36,33H23.64A3.54,3.54,0,0,1,20,29.56,13.83,13.83,0,0,1,20.13,28H43a1,1,0,0,0,1-1V21a1,1,0,0,0-1-1H21l.94-8.83C22.53,5.4,27.69,1,33.86,1h4.28c6.17,0,11.33,4.4,11.94,10.17C52.15,30.71,52,28.81,52,29.57Z"/><rect x="22" y="43" width="4" height="20"/><rect x="46" y="43" width="4" height="20"/><rect x="28" y="51" width="16" height="2"/></g></svg>