<svg xmlns="http://www.w3.org/2000/svg" viewBox="0 0 64 64">
  <defs>
    <style>
      .cls-1 {
        fill: #3e3e3e;
      }
    </style>
  </defs>
  <g id="Development">
    <rect class="cls-1" x="35" y="5" width="28" height="8" />
    <rect class="cls-1" x="7" y="19" width="21" height="7" />
    <rect class="cls-1" x="7" y="51" width="21" height="2" />
    <path class="cls-1" d="M8.5,36a1.5,1.5,0,0,0,0-3A1.5,1.5,0,0,0,8.5,36Z" />
    <path class="cls-1" d="M17.5,36a1.5,1.5,0,0,0,0-3A1.5,1.5,0,0,0,17.5,36Z" />
    <path class="cls-1"
      d="M35,59H63V15H35Zm19-6H38a1,1,0,0,1,0-2H54A1,1,0,0,1,54,53Zm5-5H38a1,1,0,0,1,0-2H59A1,1,0,0,1,59,48ZM38,41H56a1,1,0,0,1,0,2H38A1,1,0,0,1,38,41Zm0-5H52a1,1,0,0,1,0,2H38A1,1,0,0,1,38,36Zm21-3H38a1,1,0,0,1,0-2H59A1,1,0,0,1,59,33ZM54.29,18.71a1,1,0,0,1,1.42-1.42l4,4a1,1,0,0,1,0,1.42C55.41,27,55.58,27,55,27a1,1,0,0,1-.71-1.71L57.59,22Zm-9.14,6.76,5-8a1,1,0,0,1,1.7,1.06l-5,8A1,1,0,0,1,45.15,25.47Zm-7.86-4.18,4-4a1,1,0,0,1,1.42,1.42L39.41,22l3.3,3.29a1,1,0,0,1-1.42,1.42l-4-4A1,1,0,0,1,37.29,21.29Z" />
    <path class="cls-1"
      d="M1,15V59H31v4a1,1,0,0,0,2,0V15ZM6,40h5a1,1,0,0,1,0,2H6A1,1,0,0,1,6,40ZM5,34.5A3.5,3.5,0,1,1,8.5,38,3.5,3.5,0,0,1,5,34.5ZM6,44h5a1,1,0,0,1,0,2H6A1,1,0,0,1,6,44ZM30,54a1,1,0,0,1-1,1H6a1,1,0,0,1-1-1V50a1,1,0,0,1,1-1H29a1,1,0,0,1,1,1ZM15,40h5a1,1,0,0,1,0,2H15A1,1,0,0,1,15,40Zm-1-5.5A3.5,3.5,0,1,1,17.5,38,3.5,3.5,0,0,1,14,34.5ZM15,44h5a1,1,0,0,1,0,2H15A1,1,0,0,1,15,44Zm14,2H24a1,1,0,0,1,0-2h5A1,1,0,0,1,29,46Zm0-4H24a1,1,0,0,1,0-2h5A1,1,0,0,1,29,42Zm-2.5-4A3.5,3.5,0,1,1,30,34.5,3.5,3.5,0,0,1,26.5,38ZM30,27a1,1,0,0,1-1,1H6a1,1,0,0,1-1-1V18a1,1,0,0,1,1-1H29a1,1,0,0,1,1,1Z" />
    <path class="cls-1" d="M26.5,33a1.5,1.5,0,0,0,0,3A1.5,1.5,0,0,0,26.5,33Z" />
    <path class="cls-1"
      d="M31,1V5H1v8H33V1A1,1,0,0,0,31,1ZM6,10A1,1,0,0,1,6,8,1,1,0,0,1,6,10Zm5,0a1,1,0,0,1,0-2A1,1,0,0,1,11,10Zm5,0a1,1,0,0,1,0-2A1,1,0,0,1,16,10Z" />
  </g>
</svg>