<svg xmlns="http://www.w3.org/2000/svg" viewBox="0 0 64 64"><title>Digital Marketing</title><g id="Digital_Marketing" data-name="Digital Marketing"><path d="M41,41.71V20.29A15.92,15.92,0,0,1,29,27V35A16,16,0,0,1,41,41.71Z"/><path d="M25.19,38h-4l2.42,11.31c.21.92.94.69,4.46.69a.88.88,0,0,0,.42-1.65C26.94,47.5,27.16,47.05,25.19,38Z"/><polygon points="49 29.62 47 28.62 47 33.38 49 32.38 49 29.62"/><path d="M45,45V17a1,1,0,0,0-2,0V45A1,1,0,0,0,45,45Z"/><rect x="19" y="26" width="8" height="10"/><path d="M1,63H63V11H1Zm56-5H41a1,1,0,0,1,0-2H57A1,1,0,0,1,57,58ZM13,30a5,5,0,0,1,4-4.9A1,1,0,0,1,18,24H28a1,1,0,0,1,1,1,13.89,13.89,0,0,0,10.61-6.17L41,16.67A3,3,0,0,1,47,17v9.39c3.61,1.8,4,1.79,4,2.61,0,4,.19,4.54-.55,4.89L47,35.62V45a3,3,0,0,1-6,.33c-1.68-2.53-3-4.81-6.43-6.68A14,14,0,0,0,29,37a1,1,0,0,1-1,1h-.76c1.91,8.74,1.67,8.27,2.18,8.55A2.88,2.88,0,0,1,28.12,52h-3.6a2.91,2.91,0,0,1-2.82-2.28L19.19,38H18a1,1,0,0,1-1-1.1A5,5,0,0,1,13,32Zm1,26H36a1,1,0,0,1,2,0v2a1,1,0,0,1-2,0H14A1,1,0,0,1,14,56ZM6,55a1,1,0,0,1,1.55-.83C10.72,56.29,11,56.3,11,57s-.34.76-3.45,2.83a1,1,0,0,1-1,.05C5.83,59.52,6,59.16,6,55Z"/><path d="M17,34.83V27.17A3,3,0,0,0,15,30v2A3,3,0,0,0,17,34.83Z"/><path d="M1,1V9H63V1ZM6,6A1,1,0,0,1,6,4,1,1,0,0,1,6,6Zm5,0a1,1,0,0,1,0-2A1,1,0,0,1,11,6Zm5,0a1,1,0,0,1,0-2A1,1,0,0,1,16,6Z"/></g></svg>