<svg xmlns="http://www.w3.org/2000/svg" viewBox="0 0 64 64"><title>Digital Agreement</title><g id="Digital_Agreement" data-name="Digital Agreement"><polygon points="39.46 58 40.8 56 23.2 56 24.54 58 39.46 58"/><path d="M61,56H43a1,1,0,0,1-.17.55C40.71,59.72,40.7,60,40,60c-17.25,0-16.42.19-16.83-.45C21.05,56.37,21,56.4,21,56H3a2,2,0,0,0-2,2v2a4,4,0,0,0,4,4H59a4,4,0,0,0,4-4V58A2,2,0,0,0,61,56Z"/><rect x="52" y="19" width="2" height="30"/><rect x="10" y="19" width="2" height="30"/><path d="M59,17a3,3,0,0,0-3-3H52v3h3a1,1,0,0,1,1,1V50a1,1,0,0,1-1,1H9a1,1,0,0,1-1-1V18a1,1,0,0,1,1-1h3V14H8a3,3,0,0,0-3,3V54H59Z"/><circle cx="22" cy="8" r="2"/><path d="M50,4a5.93,5.93,0,0,1,1.54-4H19a5,5,0,0,0-5,5V49H50ZM29,7h8a1,1,0,0,1,0,2H29A1,1,0,0,1,29,7ZM22,4a4,4,0,1,1-4,4A4,4,0,0,1,22,4ZM19,31H39a1,1,0,0,1,0,2H19A1,1,0,0,1,19,31ZM44,45H37a2.77,2.77,0,0,1-2.62-2c-.67.68-.92,1.06-1.54,1s-.77-.63-1.14-1.36c-.77.66-3,2.46-4,2.46-1.85,0-1.68-2.7-1.43-4.53l-3.5,4.09a1,1,0,0,1-1.52-1.3l6-7a1,1,0,0,1,1.73.89,26,26,0,0,0-.86,5.56,18.29,18.29,0,0,0,3.18-2.51,1,1,0,0,1,1.6.26l.38.76,1-1A1,1,0,0,1,36,41s.06,2,1,2h7A1,1,0,0,1,44,45Zm1-17H19a1,1,0,0,1,0-2H45A1,1,0,0,1,45,28Zm0-5H19a1,1,0,0,1,0-2H45A1,1,0,0,1,45,23Zm0-5H24a1,1,0,0,1,0-2H45A1,1,0,0,1,45,18Z"/><path d="M60,4a4,4,0,0,0-8,0V7h8Z"/></g></svg>