<svg xmlns="http://www.w3.org/2000/svg" viewBox="0 0 64 64"><title>Direction</title><g id="Direction"><path d="M34.69,30.73l-4,4L38,38Zm0,0-4,4L38,38ZM26,26l3.3,7.26,4-4Zm0,0,3.3,7.26,4-4Zm8.68,4.72-4,4L38,38Zm0,0-4,4L38,38ZM26,26l3.3,7.26,4-4Zm0,0,3.3,7.26,4-4Zm8.68,4.72-4,4L38,38ZM26,26l3.3,7.26,4-4Zm8.68,4.72-4,4L38,38Zm0,0-4,4L38,38ZM26,26l3.3,7.26,4-4Zm0,0,3.3,7.26,4-4Zm8.68,4.72-4,4L38,38Zm0,0-4,4L38,38ZM26,26l3.3,7.26,4-4Zm0,0,3.3,7.26,4-4Zm8.68,4.72-4,4L38,38Zm0,0-4,4L38,38ZM26,26l3.3,7.26,4-4Zm0,0,3.3,7.26,4-4Zm8.68,4.72-4,4L38,38Zm0,0-4,4L38,38ZM26,26l3.3,7.26,4-4Zm21,5h3a17.93,17.93,0,0,0-4.56-11l-.68.68a1,1,0,0,1-1.42-1.42l.68-.68A17.93,17.93,0,0,0,33,14v3a1,1,0,0,1-2,0V14a17.93,17.93,0,0,0-11,4.56l.68.68a1,1,0,0,1-1.42,1.42L18.59,20A17.93,17.93,0,0,0,14,31h3a1,1,0,0,1,0,2H14a17.93,17.93,0,0,0,4.56,11l.68-.68a1,1,0,0,1,1.42,1.42l-.68.68A17.93,17.93,0,0,0,31,50V47a1,1,0,0,1,2,0v3a17.93,17.93,0,0,0,11-4.56l-.68-.68a1,1,0,0,1,1.42-1.42l.68.68A17.93,17.93,0,0,0,50,33H47A1,1,0,0,1,47,31Zm-7.41,9.91c-11.84-5.38-11.36-5-11.53-5.56C22.71,23.56,22.62,24,23.29,23.29s.57-.45,12.06,4.77c.65.32.13-.43,5.56,11.53A1,1,0,0,1,39.59,40.91Zm-8.86-6.22L38,38l-3.3-7.26ZM26,26l3.3,7.26,4-4Zm0,0,3.3,7.26,4-4Zm8.68,4.72-4,4L38,38Zm0,0-4,4L38,38ZM26,26l3.3,7.26,4-4Zm0,0,3.3,7.26,4-4Zm8.68,4.72-4,4L38,38Zm0,0-4,4L38,38ZM26,26l3.3,7.26,4-4Zm0,0,3.3,7.26,4-4Zm8.68,4.72-4,4L38,38Zm0,0-4,4L38,38ZM26,26l3.3,7.26,4-4Zm0,0,3.3,7.26,4-4Zm8.68,4.72-4,4L38,38Zm0,0-4,4L38,38ZM26,26l3.3,7.26,4-4Zm8.68,4.72-4,4L38,38ZM26,26l3.3,7.26,4-4Zm0,0,3.3,7.26,4-4Zm8.68,4.72-4,4L38,38ZM26,26l3.3,7.26,4-4Zm8.68,4.72-4,4L38,38Zm0,0-4,4L38,38ZM26,26l3.3,7.26,4-4Zm0,0,3.3,7.26,4-4Zm8.68,4.72-4,4L38,38Zm0,0-4,4L38,38ZM26,26l3.3,7.26,4-4Zm0,0,3.3,7.26,4-4Zm8.68,4.72-4,4L38,38Zm0,0-4,4L38,38ZM26,26l3.3,7.26,4-4Zm21,5h3a17.93,17.93,0,0,0-4.56-11l-.68.68a1,1,0,0,1-1.42-1.42l.68-.68A17.93,17.93,0,0,0,33,14v3a1,1,0,0,1-2,0V14a17.93,17.93,0,0,0-11,4.56l.68.68a1,1,0,0,1-1.42,1.42L18.59,20A17.93,17.93,0,0,0,14,31h3a1,1,0,0,1,0,2H14a17.93,17.93,0,0,0,4.56,11l.68-.68a1,1,0,0,1,1.42,1.42l-.68.68A17.93,17.93,0,0,0,31,50V47a1,1,0,0,1,2,0v3a17.93,17.93,0,0,0,11-4.56l-.68-.68a1,1,0,0,1,1.42-1.42l.68.68A17.93,17.93,0,0,0,50,33H47A1,1,0,0,1,47,31Zm-7.41,9.91c-11.84-5.38-11.36-5-11.53-5.56C22.71,23.56,22.62,24,23.29,23.29s.57-.45,12.06,4.77c.65.32.13-.43,5.56,11.53A1,1,0,0,1,39.59,40.91Zm-8.86-6.22L38,38l-3.3-7.26ZM26,26l3.3,7.26,4-4Zm0,0,3.3,7.26,4-4Zm8.68,4.72-4,4L38,38Zm0,0-4,4L38,38ZM26,26l3.3,7.26,4-4Zm0,0,3.3,7.26,4-4Zm8.68,4.72-4,4L38,38Zm0,0-4,4L38,38ZM26,26l3.3,7.26,4-4Zm0,0,3.3,7.26,4-4Zm8.68,4.72-4,4L38,38Zm0,0-4,4L38,38ZM26,26l3.3,7.26,4-4Zm8.68,4.72-4,4L38,38ZM26,26l3.3,7.26,4-4Zm0,0,3.3,7.26,4-4Zm8.68,4.72-4,4L38,38Zm0,0-4,4L38,38ZM26,26l3.3,7.26,4-4Zm0,0,3.3,7.26,4-4Zm8.68,4.72-4,4L38,38Zm0,0-4,4L38,38ZM26,26l3.3,7.26,4-4Zm0,0,3.3,7.26,4-4Zm8.68,4.72-4,4L38,38Zm0,0-4,4L38,38ZM26,26l3.3,7.26,4-4Zm21,5h3a17.93,17.93,0,0,0-4.56-11l-.68.68a1,1,0,0,1-1.42-1.42l.68-.68A17.93,17.93,0,0,0,33,14v3a1,1,0,0,1-2,0V14a17.93,17.93,0,0,0-11,4.56l.68.68a1,1,0,0,1-1.42,1.42L18.59,20A17.93,17.93,0,0,0,14,31h3a1,1,0,0,1,0,2H14a17.93,17.93,0,0,0,4.56,11l.68-.68a1,1,0,0,1,1.42,1.42l-.68.68A17.93,17.93,0,0,0,31,50V47a1,1,0,0,1,2,0v3a17.93,17.93,0,0,0,11-4.56l-.68-.68a1,1,0,0,1,1.42-1.42l.68.68A17.93,17.93,0,0,0,50,33H47A1,1,0,0,1,47,31Zm-7.41,9.91c-11.84-5.38-11.36-5-11.53-5.56C22.71,23.56,22.62,24,23.29,23.29s.57-.45,12.06,4.77c.65.32.13-.43,5.56,11.53A1,1,0,0,1,39.59,40.91Zm-8.86-6.22L38,38l-3.3-7.26ZM26,26l3.3,7.26,4-4Zm0,0,3.3,7.26,4-4Zm8.68,4.72-4,4L38,38Zm0,0-4,4L38,38ZM26,26l3.3,7.26,4-4Zm0,0,3.3,7.26,4-4Zm8.68,4.72-4,4L38,38Zm0,0-4,4L38,38ZM26,26l3.3,7.26,4-4Zm0,0,3.3,7.26,4-4Zm8.68,4.72-4,4L38,38Zm0,0-4,4L38,38ZM26,26l3.3,7.26,4-4Zm0,0,3.3,7.26,4-4Zm8.68,4.72-4,4L38,38Zm0,0-4,4L38,38ZM26,26l3.3,7.26,4-4Zm21,5h3a17.93,17.93,0,0,0-4.56-11l-.68.68a1,1,0,0,1-1.42-1.42l.68-.68A17.93,17.93,0,0,0,33,14v3a1,1,0,0,1-2,0V14a17.93,17.93,0,0,0-11,4.56l.68.68a1,1,0,0,1-1.42,1.42L18.59,20A17.93,17.93,0,0,0,14,31h3a1,1,0,0,1,0,2H14a17.93,17.93,0,0,0,4.56,11l.68-.68a1,1,0,0,1,1.42,1.42l-.68.68A17.93,17.93,0,0,0,31,50V47a1,1,0,0,1,2,0v3a17.93,17.93,0,0,0,11-4.56l-.68-.68a1,1,0,0,1,1.42-1.42l.68.68A17.93,17.93,0,0,0,50,33H47A1,1,0,0,1,47,31Zm-7.41,9.91c-11.84-5.38-11.36-5-11.53-5.56C22.71,23.56,22.62,24,23.29,23.29s.57-.45,12.06,4.77c.65.32.13-.43,5.56,11.53A1,1,0,0,1,39.59,40.91Zm-8.86-6.22L38,38l-3.3-7.26ZM26,26l3.3,7.26,4-4Zm0,0,3.3,7.26,4-4Zm8.68,4.72-4,4L38,38Zm0,0-4,4L38,38ZM26,26l3.3,7.26,4-4Zm8.68,4.72-4,4L38,38ZM26,26l3.3,7.26,4-4Zm21,5h3a17.93,17.93,0,0,0-4.56-11l-.68.68a1,1,0,0,1-1.42-1.42l.68-.68A17.93,17.93,0,0,0,33,14v3a1,1,0,0,1-2,0V14a17.93,17.93,0,0,0-11,4.56l.68.68a1,1,0,0,1-1.42,1.42L18.59,20A17.93,17.93,0,0,0,14,31h3a1,1,0,0,1,0,2H14a17.93,17.93,0,0,0,4.56,11l.68-.68a1,1,0,0,1,1.42,1.42l-.68.68A17.93,17.93,0,0,0,31,50V47a1,1,0,0,1,2,0v3a17.93,17.93,0,0,0,11-4.56l-.68-.68a1,1,0,0,1,1.42-1.42l.68.68A17.93,17.93,0,0,0,50,33H47A1,1,0,0,1,47,31Zm-7.41,9.91c-11.84-5.38-11.36-5-11.53-5.56C22.71,23.56,22.62,24,23.29,23.29s.57-.45,12.06,4.77c.65.32.13-.43,5.56,11.53A1,1,0,0,1,39.59,40.91Zm-8.86-6.22L38,38l-3.3-7.26ZM26,26l3.3,7.26,4-4Zm0,0,3.3,7.26,4-4Zm8.68,4.72-4,4L38,38ZM47,31h3a17.93,17.93,0,0,0-4.56-11l-.68.68a1,1,0,0,1-1.42-1.42l.68-.68A17.93,17.93,0,0,0,33,14v3a1,1,0,0,1-2,0V14a17.93,17.93,0,0,0-11,4.56l.68.68a1,1,0,0,1-1.42,1.42L18.59,20A17.93,17.93,0,0,0,14,31h3a1,1,0,0,1,0,2H14a17.93,17.93,0,0,0,4.56,11l.68-.68a1,1,0,0,1,1.42,1.42l-.68.68A17.93,17.93,0,0,0,31,50V47a1,1,0,0,1,2,0v3a17.93,17.93,0,0,0,11-4.56l-.68-.68a1,1,0,0,1,1.42-1.42l.68.68A17.93,17.93,0,0,0,50,33H47A1,1,0,0,1,47,31Zm-7.41,9.91c-11.84-5.38-11.36-5-11.53-5.56C22.71,23.56,22.62,24,23.29,23.29s.57-.45,12.06,4.77c.65.32.13-.43,5.56,11.53A1,1,0,0,1,39.59,40.91Zm-8.86-6.22L38,38l-3.3-7.26ZM26,26l3.3,7.26,4-4Zm31.18-.47,5.16-3-7-12.12-5.17,3A26,26,0,0,0,39,7V1H25V7a26,26,0,0,0-11.18,6.46l-5.17-3-7,12.12,5.16,3a26.17,26.17,0,0,0,0,12.92l-5.16,3,7,12.12,5.17-3A26,26,0,0,0,25,57v6H39V57a26,26,0,0,0,11.18-6.46l5.17,3,7-12.12-5.16-3A26.17,26.17,0,0,0,57.19,25.54Zm-11,20.6a20,20,0,1,1,0-28.28A20,20,0,0,1,46.14,46.14ZM47,31h3a17.93,17.93,0,0,0-4.56-11c-.61.61-.85,1-1.39,1a1,1,0,0,1-.71-1.71l.68-.68A17.93,17.93,0,0,0,33,14v3a1,1,0,0,1-2,0V14a17.93,17.93,0,0,0-11,4.56l.68.68A1,1,0,0,1,20,21c-.51,0-.68-.26-1.39-1A17.93,17.93,0,0,0,14,31h3a1,1,0,0,1,0,2H14a17.93,17.93,0,0,0,4.56,11l.68-.68a1,1,0,0,1,1.42,1.42l-.68.68A17.93,17.93,0,0,0,31,50V47a1,1,0,0,1,2,0v3a17.93,17.93,0,0,0,11-4.56l-.68-.68a1,1,0,0,1,1.42-1.42l.68.68A17.93,17.93,0,0,0,50,33H47A1,1,0,0,1,47,31Zm-7.41,9.91c-11.84-5.38-11.36-5-11.53-5.56C22.71,23.56,22.62,24,23.29,23.29s.57-.45,12.06,4.77c.65.32.13-.43,5.56,11.53A1,1,0,0,1,39.59,40.91Zm-8.86-6.22L38,38l-3.3-7.26ZM26,26l3.3,7.26,4-4Zm0,0,3.3,7.26,4-4Zm8.68,4.72-4,4L38,38Zm0,0-4,4L38,38ZM26,26l3.3,7.26,4-4Zm21,5h3a17.93,17.93,0,0,0-4.56-11l-.68.68a1,1,0,0,1-1.42-1.42l.68-.68A17.93,17.93,0,0,0,33,14v3a1,1,0,0,1-2,0V14a17.93,17.93,0,0,0-11,4.56l.68.68a1,1,0,0,1-1.42,1.42L18.59,20A17.93,17.93,0,0,0,14,31h3a1,1,0,0,1,0,2H14a17.93,17.93,0,0,0,4.56,11l.68-.68a1,1,0,0,1,1.42,1.42l-.68.68A17.93,17.93,0,0,0,31,50V47a1,1,0,0,1,2,0v3a17.93,17.93,0,0,0,11-4.56l-.68-.68a1,1,0,0,1,1.42-1.42l.68.68A17.93,17.93,0,0,0,50,33H47A1,1,0,0,1,47,31Zm-7.41,9.91c-11.84-5.38-11.36-5-11.53-5.56C22.71,23.56,22.62,24,23.29,23.29s.57-.45,12.06,4.77c.65.32.13-.43,5.56,11.53A1,1,0,0,1,39.59,40.91Zm-8.86-6.22L38,38l-3.3-7.26ZM26,26l3.3,7.26,4-4Zm0,0,3.3,7.26,4-4Zm8.68,4.72-4,4L38,38Zm0,0-4,4L38,38ZM26,26l3.3,7.26,4-4Zm0,0,3.3,7.26,4-4Zm8.68,4.72-4,4L38,38Zm0,0-4,4L38,38ZM26,26l3.3,7.26,4-4Zm0,0,3.3,7.26,4-4Zm8.68,4.72-4,4L38,38Zm0,0-4,4L38,38ZM26,26l3.3,7.26,4-4Zm21,5h3a17.93,17.93,0,0,0-4.56-11l-.68.68a1,1,0,0,1-1.42-1.42l.68-.68A17.93,17.93,0,0,0,33,14v3a1,1,0,0,1-2,0V14a17.93,17.93,0,0,0-11,4.56l.68.68a1,1,0,0,1-1.42,1.42L18.59,20A17.93,17.93,0,0,0,14,31h3a1,1,0,0,1,0,2H14a17.93,17.93,0,0,0,4.56,11l.68-.68a1,1,0,0,1,1.42,1.42l-.68.68A17.93,17.93,0,0,0,31,50V47a1,1,0,0,1,2,0v3a17.93,17.93,0,0,0,11-4.56l-.68-.68a1,1,0,0,1,1.42-1.42l.68.68A17.93,17.93,0,0,0,50,33H47A1,1,0,0,1,47,31Zm-7.41,9.91c-11.84-5.38-11.36-5-11.53-5.56C22.71,23.56,22.62,24,23.29,23.29s.57-.45,12.06,4.77c.65.32.13-.43,5.56,11.53A1,1,0,0,1,39.59,40.91Zm-8.86-6.22L38,38l-3.3-7.26ZM26,26l3.3,7.26,4-4Zm0,0,3.3,7.26,4-4Zm8.68,4.72-4,4L38,38Zm0,0-4,4L38,38ZM26,26l3.3,7.26,4-4Zm0,0,3.3,7.26,4-4Zm8.68,4.72-4,4L38,38Zm0,0-4,4L38,38ZM26,26l3.3,7.26,4-4Zm0,0,3.3,7.26,4-4Zm8.68,4.72-4,4L38,38ZM26,26l3.3,7.26,4-4Zm8.68,4.72-4,4L38,38Zm0,0-4,4L38,38ZM26,26l3.3,7.26,4-4Zm0,0,3.3,7.26,4-4Zm8.68,4.72-4,4L38,38Zm0,0-4,4L38,38ZM26,26l3.3,7.26,4-4Zm0,0,3.3,7.26,4-4Zm8.68,4.72-4,4L38,38Zm0,0-4,4L38,38ZM26,26l3.3,7.26,4-4Zm21,5h3a17.93,17.93,0,0,0-4.56-11l-.68.68a1,1,0,0,1-1.42-1.42l.68-.68A17.93,17.93,0,0,0,33,14v3a1,1,0,0,1-2,0V14a17.93,17.93,0,0,0-11,4.56l.68.68a1,1,0,0,1-1.42,1.42L18.59,20A17.93,17.93,0,0,0,14,31h3a1,1,0,0,1,0,2H14a17.93,17.93,0,0,0,4.56,11l.68-.68a1,1,0,0,1,1.42,1.42l-.68.68A17.93,17.93,0,0,0,31,50V47a1,1,0,0,1,2,0v3a17.93,17.93,0,0,0,11-4.56l-.68-.68a1,1,0,0,1,1.42-1.42l.68.68A17.93,17.93,0,0,0,50,33H47A1,1,0,0,1,47,31Zm-7.41,9.91c-11.84-5.38-11.36-5-11.53-5.56C22.71,23.56,22.62,24,23.29,23.29s.57-.45,12.06,4.77c.65.32.13-.43,5.56,11.53A1,1,0,0,1,39.59,40.91Zm-8.86-6.22L38,38l-3.3-7.26ZM26,26l3.3,7.26,4-4Zm0,0,3.3,7.26,4-4Zm8.68,4.72-4,4L38,38Zm0,0-4,4L38,38ZM26,26l3.3,7.26,4-4Zm0,0,3.3,7.26,4-4Zm8.68,4.72-4,4L38,38Zm0,0-4,4L38,38ZM26,26l3.3,7.26,4-4Zm8.68,4.72-4,4L38,38ZM26,26l3.3,7.26,4-4Zm0,0,3.3,7.26,4-4Zm8.68,4.72-4,4L38,38ZM26,26l3.3,7.26,4-4Zm8.68,4.72-4,4L38,38Zm0,0-4,4L38,38ZM26,26l3.3,7.26,4-4Zm0,0,3.3,7.26,4-4Zm8.68,4.72-4,4L38,38Zm0,0-4,4L38,38ZM26,26l3.3,7.26,4-4Zm0,0,3.3,7.26,4-4Zm8.68,4.72-4,4L38,38Zm0,0-4,4L38,38ZM26,26l3.3,7.26,4-4Zm0,0,3.3,7.26,4-4Zm8.68,4.72-4,4L38,38Zm0,0-4,4L38,38ZM26,26l3.3,7.26,4-4Zm21,5h3a17.93,17.93,0,0,0-4.56-11l-.68.68a1,1,0,0,1-1.42-1.42l.68-.68A17.93,17.93,0,0,0,33,14v3a1,1,0,0,1-2,0V14a17.93,17.93,0,0,0-11,4.56l.68.68a1,1,0,0,1-1.42,1.42L18.59,20A17.93,17.93,0,0,0,14,31h3a1,1,0,0,1,0,2H14a17.93,17.93,0,0,0,4.56,11l.68-.68a1,1,0,0,1,1.42,1.42l-.68.68A17.93,17.93,0,0,0,31,50V47a1,1,0,0,1,2,0v3a17.93,17.93,0,0,0,11-4.56l-.68-.68a1,1,0,0,1,1.42-1.42l.68.68A17.93,17.93,0,0,0,50,33H47A1,1,0,0,1,47,31Zm-7.41,9.91c-11.84-5.38-11.36-5-11.53-5.56C22.71,23.56,22.62,24,23.29,23.29s.57-.45,12.06,4.77c.65.32.13-.43,5.56,11.53A1,1,0,0,1,39.59,40.91Zm-8.86-6.22L38,38l-3.3-7.26ZM26,26l3.3,7.26,4-4Zm0,0,3.3,7.26,4-4Zm8.68,4.72-4,4L38,38Zm0,0-4,4L38,38ZM26,26l3.3,7.26,4-4Zm0,0,3.3,7.26,4-4Zm8.68,4.72-4,4L38,38Zm0,0-4,4L38,38ZM26,26l3.3,7.26,4-4Zm0,0,3.3,7.26,4-4Zm8.68,4.72-4,4L38,38Zm0,0-4,4L38,38ZM26,26l3.3,7.26,4-4Zm8.68,4.72-4,4L38,38ZM26,26l3.3,7.26,4-4Zm0,0,3.3,7.26,4-4Zm8.68,4.72-4,4L38,38Zm0,0-4,4L38,38ZM26,26l3.3,7.26,4-4Zm0,0,3.3,7.26,4-4Zm8.68,4.72-4,4L38,38Zm0,0-4,4L38,38ZM26,26l3.3,7.26,4-4Zm8.68,4.72-4,4L38,38Z"/><path d="M28.23,35.64a1.12,1.12,0,0,0,.2.18A.73.73,0,0,1,28.23,35.64Z"/><path d="M35.91,28.59a1,1,0,0,0-.5-.5A.94.94,0,0,1,35.91,28.59Z"/></g></svg>