<svg id="Discussion_Class" data-name="Discussion Class" xmlns="http://www.w3.org/2000/svg" viewBox="0 0 64 64"><title>Discussion Class</title><path d="M44,10.09v11a1,1,0,0,1-1,1c-4.3,0-5.88-.36-8.52,2H46v-14Zm0,0v11a1,1,0,0,1-1,1c-4.3,0-5.88-.36-8.52,2H46v-14ZM33,9.5V22.73c3.13-2.85,5.13-2.64,9-2.64v-14C37.32,6.09,36.63,5.89,33,9.5ZM21,22.09a1,1,0,0,1-1-1v-11H18v14H29.52C26.85,21.7,25.19,22.09,21,22.09Zm0,0a1,1,0,0,1-1-1v-11H18v14H29.52C26.85,21.7,25.19,22.09,21,22.09Zm23-12v11a1,1,0,0,1-1,1c-4.3,0-5.88-.36-8.52,2H46v-14Zm0,0v11a1,1,0,0,1-1,1c-4.3,0-5.88-.36-8.52,2H46v-14ZM33,9.5V22.73c3.13-2.85,5.13-2.64,9-2.64v-14C37.32,6.09,36.63,5.89,33,9.5ZM22,6.09v14c3.9,0,5.88-.2,9,2.64V9.5C27.37,5.89,26.68,6.09,22,6.09Zm-1,16a1,1,0,0,1-1-1v-11H18v14H29.52C26.85,21.7,25.19,22.09,21,22.09Zm0,0a1,1,0,0,1-1-1v-11H18v14H29.52C26.85,21.7,25.19,22.09,21,22.09Zm1-16v14c3.9,0,5.88-.2,9,2.64V9.5C27.37,5.89,26.68,6.09,22,6.09ZM33,9.5V22.73c3.13-2.85,5.13-2.64,9-2.64v-14C37.32,6.09,36.63,5.89,33,9.5Zm11,.59v11a1,1,0,0,1-1,1c-4.3,0-5.88-.36-8.52,2H46v-14Zm0,0v11a1,1,0,0,1-1,1c-4.3,0-5.88-.36-8.52,2H46v-14Zm-2,10v-14c-4.68,0-5.37-.2-9,3.41V22.73C36.13,19.88,38.13,20.09,42,20.09Zm-20-14v14c3.9,0,5.88-.2,9,2.64V9.5C27.37,5.89,26.68,6.09,22,6.09Zm-1,16a1,1,0,0,1-1-1v-11H18v14H29.52C26.85,21.7,25.19,22.09,21,22.09ZM59,1H5C2.79,1,1,1.79,1,4V26a4,4,0,0,0,4,4H9l3,6,3-6H29l3,6,3-6H49l3,6,3-6h4a4,4,0,0,0,4-4V4C63,1.79,61.21,1,59,1ZM48,25.09a1,1,0,0,1-1,1H17a1,1,0,0,1-1-1v-16a1,1,0,0,1,1-1h3v-3a1,1,0,0,1,1-1c5.57,0,7-.33,11,3.59,4-3.92,5.42-3.59,11-3.59a1,1,0,0,1,1,1v3h3a1,1,0,0,1,1,1Zm-4-4a1,1,0,0,1-1,1c-4.3,0-5.88-.36-8.52,2H46v-14H44Zm-2-1v-14c-4.68,0-5.37-.2-9,3.41V22.73C36.13,19.88,38.13,20.09,42,20.09Zm-20-14v14c3.9,0,5.88-.2,9,2.64V9.5C27.37,5.89,26.68,6.09,22,6.09Zm-1,16a1,1,0,0,1-1-1v-11H18v14H29.52C26.85,21.7,25.19,22.09,21,22.09Zm0,0a1,1,0,0,1-1-1v-11H18v14H29.52C26.85,21.7,25.19,22.09,21,22.09Zm1-16v14c3.9,0,5.88-.2,9,2.64V9.5C27.37,5.89,26.68,6.09,22,6.09ZM33,9.5V22.73c3.13-2.85,5.13-2.64,9-2.64v-14C37.32,6.09,36.63,5.89,33,9.5Zm11,.59v11a1,1,0,0,1-1,1c-4.3,0-5.88-.36-8.52,2H46v-14Zm0,0v11a1,1,0,0,1-1,1c-4.3,0-5.88-.36-8.52,2H46v-14Zm-22-4v14c3.9,0,5.88-.2,9,2.64V9.5C27.37,5.89,26.68,6.09,22,6.09Zm-1,16a1,1,0,0,1-1-1v-11H18v14H29.52C26.85,21.7,25.19,22.09,21,22.09Zm0,0a1,1,0,0,1-1-1v-11H18v14H29.52C26.85,21.7,25.19,22.09,21,22.09Zm1-16v14c3.9,0,5.88-.2,9,2.64V9.5C27.37,5.89,26.68,6.09,22,6.09ZM33,9.5V22.73c3.13-2.85,5.13-2.64,9-2.64v-14C37.32,6.09,36.63,5.89,33,9.5Zm11,.59v11a1,1,0,0,1-1,1c-4.3,0-5.88-.36-8.52,2H46v-14Zm0,0v11a1,1,0,0,1-1,1c-4.3,0-5.88-.36-8.52,2H46v-14Zm-23,12a1,1,0,0,1-1-1v-11H18v14H29.52C26.85,21.7,25.19,22.09,21,22.09Zm23-12v11a1,1,0,0,1-1,1c-4.3,0-5.88-.36-8.52,2H46v-14Z"/><path d="M36,48V46a5,5,0,0,0-10,0v2a5,5,0,0,0,10,0Z"/><path d="M31,53A10,10,0,0,0,21,63h4V61a1,1,0,0,1,2,0v2h8V61a1,1,0,0,1,2,0v2h4A10,10,0,0,0,31,53Z"/><path d="M56,48V46a5,5,0,0,0-10,0v2a5,5,0,0,0,10,0Z"/><path d="M51,53A10,10,0,0,0,41,63h4V61a1,1,0,0,1,2,0v2h8V61a1,1,0,0,1,2,0v2h4A10,10,0,0,0,51,53Z"/><path d="M16,48V46A5,5,0,0,0,6,46v2a5,5,0,0,0,10,0Z"/><path d="M11,53A10,10,0,0,0,1,63H5V61a1,1,0,0,1,2,0v2h8V61a1,1,0,0,1,2,0v2h4A10,10,0,0,0,11,53Z"/></svg>