<svg xmlns="http://www.w3.org/2000/svg" viewBox="0 0 128 128"><defs><style>.cls-1{fill:#a0aec0;}</style></defs><title>Downloading</title><g id="Downloading"><path class="cls-1" d="M113,47.75A13.23,13.23,0,0,1,99.78,61H73V39H55V61H32.11a17.15,17.15,0,0,1-1.55-34.22,25.66,25.66,0,0,1,49.36-10C90.81,12.22,102,23.46,97,34.51h2.74A13.23,13.23,0,0,1,113,47.75Z"/><polygon class="cls-1" points="78 67 64 81 50 67 57 67 57 41 71 41 71 67 78 67"/><path class="cls-1" d="M101,73v49.77a4.06,4.06,0,0,1-5.9,3.75,4.13,4.13,0,0,1-1.32-1.15c-1.11-1.58-.78.49-.78-37.37H50.07l-4-6H35V73H53.17L63.29,83.12a1,1,0,0,0,1.42,0L74.83,73Z"/><path class="cls-1" d="M91,123a6,6,0,0,0,1.54,4H31a4,4,0,0,1-4-4V84H45l4,6H91Z"/><path class="cls-1" d="M97,127a1.17,1.17,0,0,1-.34,0Z"/></g></svg>