<svg xmlns="http://www.w3.org/2000/svg" viewBox="0 0 64 64"><title>Ecommerce</title><g id="Ecommerce"><path d="M1,1V9H63V1ZM6,6A1,1,0,0,1,6,4,1,1,0,0,1,6,6Zm5,0a1,1,0,0,1,0-2A1,1,0,0,1,11,6Zm5,0a1,1,0,0,1,0-2A1,1,0,0,1,16,6Z"/><path d="M1,52H14V19a6,6,0,0,1,6-6H44a6,6,0,0,1,6,6V52H63V11H1Z"/><polygon points="37.25 40 38.67 35 28.85 35 29.89 40 37.25 40"/><path d="M35.76,21H28.24a4.58,4.58,0,0,1-3.81-2H20V59H44V19H39.57A4.58,4.58,0,0,1,35.76,21Zm5,12.4c.41.54.29.43-1.84,7.87A1,1,0,0,1,38,42H29.48c-2.62,2.52-2.78,2,7.52,2a2,2,0,1,1-2,2H31a2,2,0,1,1-3.95-.42,2.4,2.4,0,0,1-1.05-2c0-1.26.83-1.82,2-2.94L26.19,32H24a1,1,0,0,1,0-2h3a1,1,0,0,1,1,.8l.46,2.2C40.9,33,40.37,32.84,40.8,33.4Z"/><path d="M44,15H20a4,4,0,0,0-4,4V59a4,4,0,0,0,4,4H44a4,4,0,0,0,4-4V19A4,4,0,0,0,44,15Zm2,44a2,2,0,0,1-2,2H20a2,2,0,0,1-2-2V19a2,2,0,0,1,2-2c5.28,0,5.54-.18,5.89.55A2.61,2.61,0,0,0,28.24,19h7.52a2.61,2.61,0,0,0,2.35-1.45c.34-.73.61-.55,5.89-.55a2,2,0,0,1,2,2Z"/></g></svg>