<svg xmlns="http://www.w3.org/2000/svg" viewBox="0 0 128 128"><defs><style>.cls-1{fill:#a0aec0;}</style></defs><title>Empty Box</title><g id="Empty_Box" data-name="Empty Box"><polygon class="cls-1" points="16 84.76 16 109 63 126.63 63 78.02 49.77 97.42 16 84.76"/><path class="cls-1" d="M15.42,55.84,1,77,49,95,63.41,73.87C12.4,54.74,15.55,56,15.42,55.84Z"/><path class="cls-1" d="M112.36,56,64.59,73.87,79,95l48-18C111.29,54,112.72,55.83,112.36,56Z"/><path class="cls-1" d="M73.34,36.69a6.38,6.38,0,0,0-2.19,1.89L112.36,54c.36.14-1,1.88,14.64-21L83.89,16.83A20,20,0,0,1,73.34,36.69Z"/><path class="cls-1" d="M15.64,54,58.48,38a17.42,17.42,0,0,1,2.38-5.59L53.09,21H45a1,1,0,0,1-1-1,24.52,24.52,0,0,1,.12-3.17L1,33C16.71,56.05,15.28,54.17,15.64,54Z"/><polygon class="cls-1" points="65 78.02 65 126.63 112 109 112 84.76 78.23 97.42 65 78.02"/><path class="cls-1" d="M70.25,40.42C69.91,41.48,70,41.68,70,48a1,1,0,0,1-1,1H59a1,1,0,0,1-1-1c0-5.55,0-6.43.09-7.69L18.91,55,64,71.91,109.09,55ZM64,64a6,6,0,1,1,6-6A6,6,0,0,1,64,64Z"/><path class="cls-1" d="M57.33,11.55a10,10,0,1,1,11.34,16.3A16.08,16.08,0,0,0,60,42.06V47h8c0-4.9-.12-5.78.36-7.28a8.28,8.28,0,0,1,4-4.8A18,18,0,1,0,46,19h8A10,10,0,0,1,57.33,11.55Z"/><circle class="cls-1" cx="64" cy="58" r="4"/></g></svg>