<svg xmlns="http://www.w3.org/2000/svg" viewBox="0 0 64 64"><title>Energy equivalency</title><g id="Energy_equivalency" data-name="Energy equivalency"><rect x="1" y="42" width="62" height="5"/><path d="M51,37v3H41V37a1,1,0,0,1,1-1h8A1,1,0,0,1,51,37Z"/><path d="M8,6V40H39V37a3,3,0,0,1,3-3h8a3,3,0,0,1,3,3v3h3V6Zm9,14a1,1,0,0,1,0,2H14v3h4a1,1,0,0,1,0,2H13a1,1,0,0,1-1-1V16a1,1,0,0,1,1-1h5a1,1,0,0,1,0,2H14v3Zm7,5H21a1,1,0,0,1,0-2h3A1,1,0,0,1,24,25Zm0-4H21a1,1,0,0,1,0-2h3A1,1,0,0,1,24,21Zm13,5a1,1,0,0,1-2,0V21a1,1,0,0,0-2,0v5a1,1,0,0,1-2,0V21a1,1,0,0,0-2,0v5a1,1,0,0,1-2,0V21a3,3,0,0,1,5-2.22A3,3,0,0,1,37,21Zm6-1h1a1,1,0,0,1,0,2H43a4,4,0,0,1-4-4V22a4,4,0,0,1,4-4h1a1,1,0,0,1,0,2H43a2,2,0,0,0-2,2v1A2,2,0,0,0,43,25Zm9-6a1,1,0,0,1,0,2c-4.16,0-4.6.2-4.92-.62s.11-1,3.51-4.38c.77-.8.38-2-.59-2a1,1,0,0,0-1,1,1,1,0,0,1-1,1c-1.9,0-1-4,2-4a3.1,3.1,0,0,1,2,5.41L50.41,19Z"/><path d="M61,1V40H58V5a1,1,0,0,0-1-1H7A1,1,0,0,0,6,5V40H3V1Z"/><polygon points="59 63 54 63 47.88 49 52.88 49 59 63"/><polygon points="16.13 49 10 63 5 63 11.13 49 16.13 49"/><polygon points="48.76 56 15.25 56 17 52 47.01 52 48.76 56"/></g></svg>