<svg xmlns="http://www.w3.org/2000/svg" viewBox="0 0 128 128"><defs><style>.cls-1{fill:#a0aec0;}</style></defs><title>FAQ</title><g id="FAQ"><path class="cls-1" d="M37.5,44.55l-2.7,9h5.4Zm0,0-2.7,9h5.4Zm0,0-2.7,9h5.4ZM56.5,42a5,5,0,0,0-5,5v8a5,5,0,0,0,7.66,4.19l-3.13-3a1,1,0,0,1,1.42-1.46l3.17,3.08c1.16-1.73.84-2.83.84-10.77A5,5,0,0,0,56.5,42Zm0,0a5,5,0,0,0-5,5v8a5,5,0,0,0,7.66,4.19l-3.13-3a1,1,0,0,1,1.42-1.46l3.17,3.08c1.16-1.73.84-2.83.84-10.77A5,5,0,0,0,56.5,42Zm-19,2.53-2.7,9h5.4Zm0,0-2.7,9h5.4ZM56.5,42a5,5,0,0,0-5,5v8a5,5,0,0,0,7.66,4.19l-3.13-3a1,1,0,0,1,1.42-1.46l3.17,3.08c1.16-1.73.84-2.83.84-10.77A5,5,0,0,0,56.5,42Zm0,0a5,5,0,0,0-5,5v8a5,5,0,0,0,7.66,4.19l-3.13-3a1,1,0,0,1,1.42-1.46l3.17,3.08c1.16-1.73.84-2.83.84-10.77A5,5,0,0,0,56.5,42Zm-19,2.53-2.7,9h5.4ZM70,17H9a8,8,0,0,0-8,8V77a8,8,0,0,0,8,8h9V96L36,85H70a8,8,0,0,0,8-8V25A8,8,0,0,0,70,17ZM26.5,42h-9v8H24a1,1,0,0,1,0,2H17.52v9a1,1,0,0,1-2,0V41a1,1,0,0,1,1-1h10A1,1,0,0,1,26.5,42Zm16,19.27-1.7-5.68H34.18l-1.7,5.68a1,1,0,0,1-2-.58l6-20a1,1,0,0,1,2,0l6,20A1,1,0,0,1,42.52,61.29ZM62.11,59.2l1.1,1.07A1,1,0,0,1,62.5,62c-.49,0-.59-.18-1.84-1.38A7,7,0,0,1,49.48,55V47a7,7,0,0,1,14,0C63.52,55.61,63.89,56.87,62.11,59.2ZM56.5,42a5,5,0,0,0-5,5v8a5,5,0,0,0,7.66,4.19l-3.13-3a1,1,0,0,1,1.42-1.46l3.17,3.08c1.16-1.73.84-2.83.84-10.77A5,5,0,0,0,56.5,42ZM34.8,53.57h5.4l-2.7-9Zm2.7-9-2.7,9h5.4ZM56.5,42a5,5,0,0,0-5,5v8a5,5,0,0,0,7.66,4.19l-3.13-3a1,1,0,0,1,1.42-1.46l3.17,3.08c1.16-1.73.84-2.83.84-10.77A5,5,0,0,0,56.5,42Zm0,0a5,5,0,0,0-5,5v8a5,5,0,0,0,7.66,4.19l-3.13-3a1,1,0,0,1,1.42-1.46l3.17,3.08c1.16-1.73.84-2.83.84-10.77A5,5,0,0,0,56.5,42Zm-19,2.53-2.7,9h5.4Zm0,0-2.7,9h5.4ZM56.5,42a5,5,0,0,0-5,5v8a5,5,0,0,0,7.66,4.19l-3.13-3a1,1,0,0,1,1.42-1.46l3.17,3.08c1.16-1.73.84-2.83.84-10.77A5,5,0,0,0,56.5,42Zm-19,2.53-2.7,9h5.4Zm0,0-2.7,9h5.4Z"/><path class="cls-1" d="M119,32H80V77A10,10,0,0,1,70,87H50v5a8,8,0,0,0,8,8H92l18,11V100h9a8,8,0,0,0,8-8V40A8,8,0,0,0,119,32ZM102,82a2,2,0,1,1,2-2A2,2,0,0,1,102,82Zm3.85-14.86A5,5,0,0,0,103,71.64V75a1,1,0,0,1-2,0V71.64a7,7,0,0,1,4-6.32c6-2.85,5-11.88-1.57-13.16A7,7,0,0,0,95,59a1,1,0,0,1-2,0,9,9,0,0,1,10.82-8.85C112.3,51.81,113.65,63.47,105.85,67.16Z"/></g></svg>