<svg xmlns="http://www.w3.org/2000/svg" viewBox="0 0 128 128"><defs><style>.cls-1{fill:#a0aec0;}</style></defs><title>Fatal Error</title><g id="Fatal_Error" data-name="Fatal Error"><path class="cls-1" d="M81.39,39.21l6.38,6.38L71.1,62.26a1,1,0,0,0,0,1.45L87.77,80.37l-6.38,6.38L64.72,70.08a1,1,0,0,0-1.44,0L46.61,86.75l-6.38-6.38L56.9,63.71a1,1,0,0,0,0-1.45L40.23,45.59l6.38-6.38L63.28,55.88a1,1,0,0,0,1.44,0Z"/><path class="cls-1" d="M90.1,1H37.9L1,37.9V90.1L37.9,127H90.1L127,90.1V37.9ZM117,85.54c0,.62,1.81-1.39-30.76,31.18-.44.44,2.39.3-43.8.3-.62,0,1.39,1.81-31.18-30.76-.44-.44-.3,2.38-.3-43.8,0-.62-1.81,1.39,30.76-31.18.44-.44-2.38-.3,43.8-.3.62,0-1.39-1.81,31.18,30.76C117.16,42.18,117,39.36,117,85.54ZM42.88,13,13,42.88V85.12L42.88,115H85.12L115,85.12V42.88L85.12,13ZM89.93,46.31,73.27,63,89.93,79.65a1,1,0,0,1,0,1.45l-7.82,7.82a1,1,0,0,1-1.44,0L64,72.25,47.33,88.92a1,1,0,0,1-1.44,0L38.07,81.1a1,1,0,0,1,0-1.45L54.73,63,38.07,46.31a1,1,0,0,1,0-1.44l7.82-7.82a1,1,0,0,1,1.44,0L64,53.72,80.67,37.05a1,1,0,0,1,1.44,0l7.82,7.82A1,1,0,0,1,89.93,46.31Z"/></g></svg>