<svg xmlns="http://www.w3.org/2000/svg" viewBox="0 0 64 64"><title>Feedback Audients</title><g id="Feedback_Audients" data-name="Feedback Audients"><path d="M32,48a6,6,0,0,1-6-6V40a6,6,0,0,1,12,0v2A6,6,0,0,1,32,48Z"/><path d="M20,63l1.23-6.17a11,11,0,0,1,21.54,0L44,63Z"/><path d="M52,50a5,5,0,0,1-5-5V43a5,5,0,0,1,10,0v2A5,5,0,0,1,52,50Z"/><path d="M12,50a5,5,0,0,1-5-5V43a5,5,0,0,1,10,0v2A5,5,0,0,1,12,50Z"/><path d="M20,54c-.65,1.58-.62,1.77-2.06,9H1l1.2-5.2A10.07,10.07,0,0,1,20,54Z"/><path d="M63,63H46c-1.38-6.92-1.41-7.49-2.06-9A10.07,10.07,0,0,1,61.8,57.8Z"/><path d="M14.89,10.53c-1.81,1.73-1.61,1.16-1.18,3.62-2.19-1.18-1.61-1.18-3.8,0,.43-2.47.61-1.91-1.18-3.62,2.5-.36,2,0,3.08-2.24C12.9,10.53,12.42,10.18,14.89,10.53Z"/><path d="M32.71,7.75a1,1,0,0,1-1.42,0c-2.55-2.55-8.54,2,.71,7.12C41.24,9.71,35.27,5.19,32.71,7.75ZM47,12v3h2V12Zm0,0v3h2V12ZM32.71,7.75a1,1,0,0,1-1.42,0c-2.55-2.55-8.54,2,.71,7.12C41.24,9.71,35.27,5.19,32.71,7.75ZM60,1H4A3,3,0,0,0,1,4V18a3,3,0,0,0,3,3H28l4,7,4-7H60a3,3,0,0,0,3-3V4A3,3,0,0,0,60,1ZM17.76,10.54l-2.27,2.18L16,15.83a1,1,0,0,1-1,1.17c-.33,0-.19,0-3.25-1.6C9.26,16.75,8.69,17.32,8,16.81s-.4-.93.16-4.09c-2.06-2-2.81-2.37-2.53-3.21s.77-.67,3.93-1.11l1.38-2.84a1,1,0,0,1,1.8,0L14.09,8.4l3.12.43A1,1,0,0,1,17.76,10.54Zm14.69,6.35a1,1,0,0,1-.9,0c-12.13-6-4.61-14.53.45-11.13A4.51,4.51,0,0,1,39,9.5C39,13.5,33.12,16.56,32.45,16.89ZM57,12.38c0,2.37-.92,4.62-3.28,4.62H46a1,1,0,0,1-1-1V11a1,1,0,0,1,1-1h3.07a3.69,3.69,0,0,1,.35-1.08C51.19,5.39,51.19,5,52,5a2.57,2.57,0,0,1,2.49,3.18L54.28,9H55a2,2,0,0,1,2,2Zm-4.79-1.76c-.65-.86.64-2.73.27-3.35C50.64,11,51,9.29,51,15c3.64,0,4,.68,4-4C53,11,52.61,11.13,52.21,10.62ZM47,15h2V12H47ZM32.71,7.75a1,1,0,0,1-1.42,0c-2.55-2.55-8.54,2,.71,7.12C41.24,9.71,35.27,5.19,32.71,7.75Zm0,0a1,1,0,0,1-1.42,0c-2.55-2.55-8.54,2,.71,7.12C41.24,9.71,35.27,5.19,32.71,7.75Zm0,0a1,1,0,0,1-1.42,0c-2.55-2.55-8.54,2,.71,7.12C41.24,9.71,35.27,5.19,32.71,7.75Z"/></g></svg>