<svg xmlns="http://www.w3.org/2000/svg" viewBox="0 0 64 64"><title>Female Teacher</title><g id="Female_Teacher" data-name="Female Teacher"><path d="M29,38.81V36.65a13.39,13.39,0,0,1-6,0v2.16l3,7.5Z"/><path d="M18.11,51.55l1.52-3-6-2.58a1,1,0,0,1-.44-1.49L16.87,39A14,14,0,0,0,4.05,50.7L2,63H25V58.46l-6.65-5.7A1,1,0,0,1,18.11,51.55Z"/><path d="M21,39c-2.64,0-1.57-.17-2.06.57l-3.43,5,5.88,2.52a1,1,0,0,1,.5,1.37l-1.65,3.3L25,55.83V49.2C20.67,38.38,21,39.28,21,39Z"/><path d="M36.49,44.56l-3.43-5c-.49-.74.56-.57-2.06-.57,0,.28.33-.63-4,10.2v6.63l4.76-4.08c-1.78-3.57-1.89-3.54-1.7-4.09S30.08,47.31,36.49,44.56Z"/><path d="M35.13,39c3.8,5.53,4,5.56,3.83,6.24s-.26.51-6.59,3.22l1.52,3a1,1,0,0,1-.24,1.21L27,58.46V63H50L48,50.7A14,14,0,0,0,35.13,39Z"/><path d="M38.69,19l.25.65c.18.54,0,5.35.06,5.35A3,3,0,1,0,38.69,19Z"/><path d="M13,25c.1,0-.09-5.68,0-6a3,3,0,1,0,0,6Z"/><path d="M15,20c0,4.66-.4,8.16,3.22,11.78A11,11,0,0,0,36.58,27c.53-1.8.42-2.95.42-6.81,0-.24.2-.19-1-.19a4.5,4.5,0,1,1-9,.21,2.53,2.53,0,0,0-2,0A4.5,4.5,0,1,1,16,20Zm8.17,9.41a1,1,0,0,1,1.42,0,2,2,0,0,0,2.82,0,1,1,0,0,1,1.42,1.42C26.07,33.56,21.72,30.86,23.17,29.41Z"/><path d="M21,37V36a13,13,0,0,1-7.65-9A5,5,0,0,1,10,26v13C14.16,36.71,17.5,37,21,37Z"/><circle cx="20.5" cy="20.5" r="2.5"/><circle cx="31.5" cy="20.5" r="2.5"/><path d="M35.24,18h.94L36,17.54s0,0,0,0A7,7,0,0,0,29.46,13c-4.46,0-7.72.56-10.52-2.47A16.08,16.08,0,0,0,15.31,18h1.45a4.5,4.5,0,0,1,7.65.28,4.64,4.64,0,0,1,3.18,0A4.49,4.49,0,0,1,35.24,18Z"/><path d="M13.48,17a18.07,18.07,0,0,1,4.81-8.71,1,1,0,0,1,1.54.16A5.75,5.75,0,0,0,24.61,11h4.85a9,9,0,0,1,8.42,5.84c.08.22-.1.16,1.12.16a4.94,4.94,0,0,1,3,1V13A12,12,0,0,0,30,1C25.49,1,22.59.62,19,3a9,9,0,0,0-9,9v6A5.15,5.15,0,0,1,13.48,17Z"/><path d="M42,26a5.07,5.07,0,0,1-3.35,1A13,13,0,0,1,31,36v1c3.92,0,7-.22,11,2Z"/><rect x="50" y="49" width="10" height="14"/><path d="M54.73,31.44a1,1,0,0,1-.07,1.14C53.79,33.65,54,35.69,54,38a.91.91,0,0,0,1,1,1,1,0,0,1,1,1c0,1.83-4,1.1-4-2,0-1.07-.38-6,1.42-6.94A1.33,1.33,0,0,0,53,31c-4.6,0-4,4.37-4,9,0,2,2,4,2,4v3h8V44s3-2,3-5V35C62,31.55,57.79,30.24,54.73,31.44Z"/><path d="M57,1a1,1,0,0,0-2,0V29.27A8.48,8.48,0,0,1,57,29Z"/></g></svg>