<svg xmlns="http://www.w3.org/2000/svg" viewBox="0 0 128 128">
  <defs>
    <style>
      .cls-1 {
        fill: #a0aec0;
      }
    </style>
  </defs>
  <g id="Folder_Data" data-name="Folder Data">
    <rect class="cls-1" x="13" y="35" width="8" height="15" />
    <path class="cls-1" d="M105,60h6v60a7,7,0,0,0,14,0V35H105Z" />
    <path class="cls-1"
      d="M57,72A22,22,0,1,0,79,94,22,22,0,0,0,57,72Zm12.72,14.7C52.2,104.24,53.6,103,53,103s-.08.34-8.72-8.3a1,1,0,0,1,1.44-1.44L53,100.56,68.28,85.28A1,1,0,0,1,69.72,86.72Z" />
    <path class="cls-1"
      d="M109,120V62H38L31,52H3v68.19A6.81,6.81,0,0,0,9.81,127H112.35A9,9,0,0,1,109,120Zm-52-2A24,24,0,1,1,81,94,24,24,0,0,1,57,118Z" />
    <path class="cls-1"
      d="M39,60h64V11a12,12,0,0,1,5.38-10H34A11,11,0,0,0,23,12V50h9ZM36,16H90a1,1,0,0,1,0,2H36A1,1,0,0,1,36,16Zm0,12H90a1,1,0,0,1,0,2H36A1,1,0,0,1,36,28Zm0,12H90a1,1,0,0,1,0,2H36A1,1,0,0,1,36,40Z" />
    <path class="cls-1" d="M115,1a10,10,0,0,0-10,10V21h20V11A10,10,0,0,0,115,1Z" />
  </g>
</svg>