<svg xmlns="http://www.w3.org/2000/svg" viewBox="0 0 64 64"><title>Geology</title><g id="Geology"><path d="M22.82,32.06C20.48,36,21,35.83,21.33,36.46c1.41-3,2.73-3.67,5.18-4.88,1.71-.86,3.64-1.83,3.92-2.85s-3.08-3.92-5-4.45a7.59,7.59,0,0,0-1.78-.2,2,2,0,0,1-1,2.13,7.88,7.88,0,0,0,.58,1.4C24.28,29.78,24.08,29.92,22.82,32.06Z"/><path d="M14.59,36.83A20,20,0,0,0,40,38a.41.41,0,0,1-.1-.13c-.93-1.7-.18-5.22.68-8.43-.12-1.14-5.49-2.73-4.75-5.45.61-2.26,3.15-3.79,3.43-3.95,1.15-.66,2.61-.13,4.17.53-1.88-2.17-3.81-3.5-3.23-4.86.36-.85,1.29-.9,2.28-1,3.08-.17,3.18-.93,3.68-1.1a20.18,20.18,0,0,0-3.34-5,1,1,0,0,1-.89.25c.15,4.1-5.45,2.84-7.59,4.08a3.23,3.23,0,0,1-1.51.5c-2.71,0-1.29-4.35-.59-7a2.1,2.1,0,0,0-.14-1.84,3,3,0,0,0-2-.84,1,1,0,0,1-.94-1.26c0-.17.09-.33.13-.46a19.81,19.81,0,0,0-8.77,1.4c5.18,1.61,5.95,2.31,6.28,2.88.79,1.37.17,1.38.57,2.06,4.12-.13,5.29,6.74,1.77,7.47A4.44,4.44,0,0,0,26,18.22c-.6,2.18-3.91.14-4.6.55,0,.16,0,.82,1.27,3,.31.56,1.43.08,3.25.57s7.2,4,6.44,6.9c-.66,2.45-4.3,3.64-6.85,5.11-2.06,1.19-3,4.63-3,4.67a1,1,0,0,1-1,.74c-.72,0-.75-.3-2.28-2.94C18.17,35,21.32,31,21.9,29.61c-.23-1.05-2.46-3.85-.41-5,.23-.13.32-.28-.55-1.79a14.77,14.77,0,0,0-2.89-2.62c-2.59-2-4.16-2.91-2.64-8.83a16.16,16.16,0,0,0-1.94-3.07A20,20,0,0,0,14.59,36.83Z"/><path d="M33.71,3.41c1.68,2.23-.3,4.88-.49,7.85a9,9,0,0,1,3.86-1c4.46-.55,2-.94,3.4-3.6a.66.66,0,0,1,.12-.17,19.72,19.72,0,0,0-7.42-3.79C32.47,2.49,33.11,2.62,33.71,3.41Z"/><path d="M17.36,11.78c-1,3.84-.27,5,.08,5.31.8.69,1.89,1.53,2,1.61a2,2,0,0,1,1-1.67c1.25-.71,3,0,3.84.2a6.65,6.65,0,0,1,4.51-3.33c1-.2.37-3.11-.69-3.41a1.88,1.88,0,0,0-.67-.1,1,1,0,0,1-.77.1,1.32,1.32,0,0,1-.77-.73c-1.19-2.19-.24-1.48-.77-2.43-1.1-.79-5.86-2.2-7.16-2.6a19.62,19.62,0,0,0-3,2.14C16.12,8.52,17.71,10.49,17.36,11.78Z"/><path d="M41.58,36.66a19.94,19.94,0,0,0,5.34-21.14,7.86,7.86,0,0,1-4.31,1.21c3.55,3.9,5.1,5,4.38,6.2-.22.36-.69.74-1.68.47-1.56-.42-4.46-2-5-1.65a5.91,5.91,0,0,0-2.5,2.73c.19,1.15,5.48,2.71,4.76,5.43C41.39,34.17,41.35,35.94,41.58,36.66Z"/><path d="M48.49,2.93l.22-.22a1,1,0,0,0-1.42-1.42L42.84,5.74c.49.46,1,.93,1.42,1.42l1.4-1.4a24,24,0,0,1-33.9,33.9l1.4-1.4c-.49-.46-1-.93-1.42-1.42L7.29,41.29c-.85.85.3,2.54,1.64,1.2A27.86,27.86,0,0,0,30,49.92V59H23a3,3,0,0,0-3,3v1H44V62a3,3,0,0,0-3-3H34V49.35C54.91,44.8,63.37,18.9,48.49,2.93Z"/></g></svg>