<svg xmlns="http://www.w3.org/2000/svg" viewBox="0 0 64 64"><title>Geometric</title><g id="Geometric"><path d="M27,40V62a1,1,0,0,1,1,1H50V40Zm3.71,20.71A1,1,0,1,1,30,59,1,1,0,0,1,30.71,60.71Zm3-3a1,1,0,0,1-1.42,0,1,1,0,1,1,1.42,0Zm3-3a1,1,0,0,1-1.42,0,1,1,0,1,1,1.42,0Zm3-3a1,1,0,1,1-1.09-1.63A1,1,0,0,1,39.71,51.71ZM38,47a1,1,0,0,1,2,0A1,1,0,0,1,38,47Zm9,3a1,1,0,0,1,0,2A1,1,0,0,1,47,50Zm-4,0a1,1,0,0,1,0,2A1,1,0,0,1,43,50Zm-3-7a1,1,0,0,1-2,0A1,1,0,0,1,40,43Z"/><path d="M40,27a1,1,0,0,1-.81,1C37.3,28.3,41.24,24.76,28,38H50c.84,0-.62,1.21,11.58-11Zm-1,9a1,1,0,0,1,0-2A1,1,0,0,1,39,36Zm0-4a1,1,0,0,1,0-2A1,1,0,0,1,39,32Z"/><ellipse cx="17" cy="6" rx="16" ry="5"/><path d="M33,9.52c-6.15,4.63-25.85,4.62-32,0V43a1,1,0,0,1,.29,2C2.71,47.26,9.2,49,17,49a45.19,45.19,0,0,0,8-.67C25,37,24.93,38.24,25.17,38L33,30.17ZM4.05,42.16a1,1,0,0,1-1.33-.48,1,1,0,1,1,1.33.48ZM7.64,41a1,1,0,1,1-.23-2A1,1,0,0,1,7.64,41Zm3.84-.66a1,1,0,1,1-.11-2A1,1,0,0,1,11.48,40.31ZM15.35,40a1,1,0,0,1,0-2A1,1,0,1,1,15.35,40Zm4,0a1,1,0,0,1,.05-2A1,1,0,1,1,19.3,40.05Zm4,.36a1,1,0,0,1,0-2A1,1,0,0,1,23.34,40.41Z"/><path d="M52,39.41V62c12.63-12.63,10-9.57,10-11a1,1,0,0,1,1-1V28.42ZM55,52a1,1,0,0,1,0-2A1,1,0,0,1,55,52Zm4,0a1,1,0,0,1,0-2A1,1,0,0,1,59,52Z"/></g></svg>