<svg xmlns="http://www.w3.org/2000/svg" viewBox="0 0 64 64"><title>Girl Graduation</title><g id="Girl_Graduation" data-name="Girl Graduation"><path d="M48,20.4A23.41,23.41,0,0,0,45.54,12H18.32A16.19,16.19,0,0,0,16,20.39c0,.19.41-.39,2-.39h2.22a9,9,0,0,1,8.06-5c4.83,0,7.79.42,11.17-1.83a1,1,0,0,1,1.26.12A14.09,14.09,0,0,1,44.47,20,7.88,7.88,0,0,1,48,20.4Z"/><path d="M43,27c0-4.56,0-8.11-3.17-11.72C36.13,17.42,33.1,17,28.28,17a7,7,0,0,0-6.44,4.24C20.78,23.71,21,22.44,21,27a11,11,0,0,0,22,0ZM27,24a1,1,0,0,1-2,0V23a1,1,0,0,1,2,0Zm7.83,9.83a4,4,0,0,1-5.66,0,1,1,0,0,1,1.42-1.42,2,2,0,0,0,2.82,0A1,1,0,0,1,34.83,33.83ZM39,24a1,1,0,0,1-2,0V23a1,1,0,0,1,2,0Z"/><path d="M48,29.58a7.34,7.34,0,0,1-3.36.42A13,13,0,0,1,38,38.53V40H48Z"/><path d="M26,38.55A13,13,0,0,1,19.35,30,7.47,7.47,0,0,1,16,29.59V40H26Z"/><path d="M49,25a3,3,0,0,0-3-3H45v6h1A3,3,0,0,0,49,25Z"/><path d="M15,25a3,3,0,0,0,3,3h1V22H18A3,3,0,0,0,15,25Z"/><path d="M28,39.42V42a5.65,5.65,0,0,0,8,0V39.42A14.3,14.3,0,0,1,28,39.42Z"/><path d="M22.13,42.49C21.72,41.8,23.32,42,16,42A14,14,0,0,0,27,55.68,6,6,0,0,1,28.62,54Z"/><path d="M33.56,53.2,39.85,42H38c-2.06,4.93-9.95,4.89-12,0H24.15l6.29,11.2A6.11,6.11,0,0,1,33.56,53.2Z"/><path d="M48,42c-7.33,0-5.72-.2-6.13.49l-6.5,11.56A5.44,5.44,0,0,1,37,55.67,14,14,0,0,0,48,42Z"/><path d="M34.39,55.8a4,4,0,1,0-3.3,7.1A4,4,0,0,0,34.39,55.8Z"/><path d="M26.18,57.54a16.07,16.07,0,0,1-11.91-12.6C9.4,50.06,9.3,55.19,8,63H27.54A5.94,5.94,0,0,1,26.18,57.54Z"/><path d="M49.73,44.94a16,16,0,0,1-11.92,12.6A5.92,5.92,0,0,1,36.46,63H56C54.72,55.29,54.59,50.05,49.73,44.94Z"/><path d="M11,3h8v7H45V3h3V19a1,1,0,0,0,2,0V3h3a1,1,0,0,0,0-2H11A1,1,0,0,0,11,3Z"/></g></svg>