<svg xmlns="http://www.w3.org/2000/svg" viewBox="0 0 64 64"><title>Girl Student</title><g id="Girl_Student" data-name="Girl Student"><path d="M45,19v6h1a3,3,0,0,0,0-6Z"/><path d="M18,25h1V19c-1.19,0-2.14-.1-3.12.88A3,3,0,0,0,18,25Z"/><path d="M43,24c0-4.56,0-8.11-3.17-11.72C36.11,14.42,33.12,14,28.28,14a7,7,0,0,0-6.44,4.24C20.78,20.71,21,19.44,21,24a11,11,0,0,0,22,0ZM27,21a1,1,0,0,1-2,0V20a1,1,0,0,1,2,0Zm7.83,9.83a4,4,0,0,1-5.66,0,1,1,0,0,1,1.42-1.42,2,2,0,0,0,2.82,0A1,1,0,0,1,34.83,30.83ZM39,21a1,1,0,0,1-2,0V20a1,1,0,0,1,2,0Z"/><path d="M20.22,17a9,9,0,0,1,8.06-5h5.11c5.11,0,6.08-2.92,7.32-1.71A14.23,14.23,0,0,1,44.48,17a8,8,0,0,1,3.52.41V12a9,9,0,0,0-9-9C35.4.61,32.5,1,28,1A12,12,0,0,0,16,13v4.41C17.23,16.89,18.07,17,20.22,17Z"/><path d="M26,37V35.54A12.92,12.92,0,0,1,19.35,27,7.49,7.49,0,0,1,16,26.59V39h1a5,5,0,0,1,4-2Z"/><path d="M48,26.59a7.43,7.43,0,0,1-3.35.41A13,13,0,0,1,38,35.53V37c4.5,0,7.1-.53,9,2h1Z"/><path d="M36,37.59V36.42a14.14,14.14,0,0,1-8,0v1.17l4,4Z"/><path d="M8,63h8V43.32C9.49,48.67,9.37,54.78,8,63Z"/><path d="M26.64,39.05c-.76,0-.64,0-.64.16,0,6.57,0,5.62.05,6l4.32-2.47Z"/><path d="M32,48c1.56,0,1.77-1.49,2.15-2.62-2.57-1.48-2-1.23-2.15-1.23s.34-.2-2.15,1.23C30.27,46.65,30.49,48,32,48Z"/><path d="M28.08,46.4,26,47.59V63h1.25c0-.1-.11.88,1.51-12.14a3.12,3.12,0,0,1,.8-1.75A5.09,5.09,0,0,1,28.08,46.4Z"/><path d="M30.74,51.1,29.25,63h5.5L33.26,51.1A1.27,1.27,0,0,0,30.74,51.1Z"/><path d="M34.44,49.11a3.12,3.12,0,0,1,.8,1.75c1.59,12.71,1.51,12,1.51,12.14H38V47.59L35.92,46.4A5.06,5.06,0,0,1,34.44,49.11Z"/><path d="M37.28,39.13l-3.65,3.65c1.36.77,2.15,1.18,2.26,1.29s-.48-.27,2.06,1.18c.07-.42,0,.55,0-6.15C37.27,39,37.38,39,37.28,39.13Z"/><path d="M48,43.32V63h8C54.63,54.79,54.51,48.67,48,43.32Z"/><path d="M21,39a3,3,0,0,0-3,3V63h6V39Z"/><path d="M43,39H40V63h6V42A3,3,0,0,0,43,39Z"/></g></svg>