<svg xmlns="http://www.w3.org/2000/svg" viewBox="0 0 64 64"><title>Girl Study</title><g id="Girl_Study" data-name="Girl Study"><path d="M36,36.37V39H28V36.37A13,13,0,0,0,36,36.37Z"/><path d="M16,55a3,3,0,0,0-3,3v5h3a1,1,0,0,1,1-1,2,2,0,0,0,2-2V58A3,3,0,0,0,16,55Z"/><path d="M13,46.44C9.46,51,9.36,54.82,8,63h3c0-4.5-.53-7.1,2-9Z"/><rect x="37" y="46" width="8" height="3"/><path d="M49,53.1V41H33V63H44.36C42.76,61.59,43,60,43,58A5,5,0,0,1,49,53.1ZM36,51a1,1,0,0,1-1-1V45.23c0-1.15.79-1.23,1-1.23H46a1,1,0,0,1,1,1v5a1,1,0,0,1-1,1Z"/><path d="M48,55a3,3,0,0,0-3,3v2a2,2,0,0,0,2,2,1,1,0,0,1,1,1h3V58A3,3,0,0,0,48,55Z"/><path d="M56,63c-1.35-8.11-1.45-11.94-5-16.56V54a5,5,0,0,1,2,4v5Z"/><path d="M15,53.1A5,5,0,0,1,21,58c0,2,.24,3.6-1.36,5H31V41H15Z"/><path d="M45,19v6h1a3,3,0,0,0,0-6Z"/><path d="M18,25h1V19c-1.19,0-2.14-.1-3.12.88A3,3,0,0,0,18,25Z"/><path d="M43,24c0-4.56,0-8.11-3.17-11.72C36.11,14.42,33.12,14,28.28,14a7,7,0,0,0-6.44,4.24C20.78,20.71,21,19.44,21,24a11,11,0,0,0,9.88,11l.37,0A11,11,0,0,0,43,24ZM27,21a1,1,0,0,1-2,0V20a1,1,0,0,1,2,0Zm7.83,9.83a4,4,0,0,1-5.66,0,1,1,0,0,1,1.42-1.42,2,2,0,0,0,2.82,0A1,1,0,0,1,34.83,30.83ZM39,21a1,1,0,0,1-2,0V20a1,1,0,0,1,2,0Z"/><path d="M20.22,17a9,9,0,0,1,8.06-5h5.11c5.11,0,6.08-2.92,7.32-1.71A14.23,14.23,0,0,1,44.48,17a7.89,7.89,0,0,1,3.52.41V12a9,9,0,0,0-9-9C35.4.61,32.5,1,28,1A12,12,0,0,0,16,13v4.41C17.23,16.88,18.07,17,20.22,17Z"/><path d="M19.35,27A7.49,7.49,0,0,1,16,26.59V39H26V35.54A13,13,0,0,1,19.35,27Z"/><path d="M48,39V26.59a7.43,7.43,0,0,1-3.35.41A13,13,0,0,1,38,35.53V39Z"/></g></svg>