<svg xmlns="http://www.w3.org/2000/svg" viewBox="0 0 64 64"><title>Growth</title><g id="Growth"><path d="M32,25a9,9,0,1,0-9-9A9,9,0,0,0,32,25Zm1-8H31a3,3,0,0,1,0-6V10a1,1,0,0,1,2,0v1h2a1,1,0,0,1,0,2H31a1,1,0,0,0,0,2h2a3,3,0,0,1,0,6v1a1,1,0,0,1-2,0V21H29a1,1,0,0,1,0-2h4A1,1,0,0,0,33,17Z"/><path d="M20.14,27.46l2.25-1.29A14,14,0,0,0,28,29.41V32h8V29.41a14,14,0,0,0,5.61-3.24l2.25,1.29,4-6.92-2.25-1.3a13.65,13.65,0,0,0,0-6.48l2.25-1.3-4-6.92L41.61,5.83A14,14,0,0,0,36,2.59V0H28V2.59a14,14,0,0,0-5.61,3.24L20.14,4.54l-4,6.92,2.25,1.3a13.65,13.65,0,0,0,0,6.48l-2.25,1.3ZM32,5A11,11,0,1,1,21,16,11,11,0,0,1,32,5Z"/><polygon points="39.46 58 40.8 56 23.2 56 24.54 58 39.46 58"/><path d="M61,56H43a1,1,0,0,1-.17.55C40.71,59.72,40.7,60,40,60c-17.24,0-16.42.19-16.83-.45C21.05,56.37,21,56.4,21,56H3a2,2,0,0,0-2,2v2a4,4,0,0,0,4,4H59a4,4,0,0,0,4-4V58A2,2,0,0,0,61,56Z"/><path d="M44.93,39H40a7,7,0,0,0-6.93,6H38A7,7,0,0,0,44.93,39Z"/><path d="M10,19V49H31a38.25,38.25,0,0,1,.06-4H26c-8.08,0-10.77-10-8-10h6a9,9,0,0,1,7,3.36V34H26V30.83a16.28,16.28,0,0,1-3.83-2.22L19.41,30.2l-6-10.4L14.8,19Z"/><path d="M24,37H19.07A7,7,0,0,0,26,43h4.93A7,7,0,0,0,24,37Z"/><path d="M41.83,28.61A16.28,16.28,0,0,1,38,30.83V34H33v6.36A9,9,0,0,1,40,37h6c2.76,0,.11,10-8,10H33v2H54V19H49.2l1.39.8-6,10.4Z"/><path d="M59,17a3,3,0,0,0-3-3H47.87a15.93,15.93,0,0,1,.1,3h7a1,1,0,0,1,1,1V50a1,1,0,0,1-1,1H9a1,1,0,0,1-1-1V18a1,1,0,0,1,1-1h7a15.93,15.93,0,0,1,.1-3H8a3,3,0,0,0-3,3V54H59Z"/></g></svg>