<svg xmlns="http://www.w3.org/2000/svg" viewBox="0 0 64 64"><title>hockey stick growth</title><g id="hockey_stick_growth" data-name="hockey stick growth"><path d="M62,61H2a1,1,0,0,0,0,2H62A1,1,0,0,0,62,61Z"/><rect x="4" y="39" width="8" height="20"/><rect x="20" y="43" width="8" height="16"/><rect x="36" y="29" width="8" height="30"/><rect x="52" y="14" width="8" height="45"/><path d="M43.51,15.08l9.06-8.5-1.3-1.52-9.13,8.57A3.9,3.9,0,0,1,43.51,15.08Z"/><path d="M27.57,29.21,37.74,20.3a3.9,3.9,0,0,1-1.31-1.51L26.26,27.7A3.9,3.9,0,0,1,27.57,29.21Z"/><path d="M20,31a4.08,4.08,0,0,1,.48-1.91C11.6,26.87,12,26.9,12,27a4,4,0,0,1-.49,1.91C20.4,31.13,20,31.1,20,31Z"/><circle cx="8" cy="27" r="2"/><circle cx="24" cy="31" r="2"/><circle cx="40" cy="17" r="2"/><polygon points="57 1 50.53 1.1 56.01 7.54 57 1"/></g></svg>