<svg xmlns="http://www.w3.org/2000/svg" viewBox="0 0 64 64"><title>Investor</title><g id="Investor"><path d="M32,32a9,9,0,1,0-9-9A9,9,0,0,0,32,32Zm1-8H31a3,3,0,0,1,0-6V17a1,1,0,0,1,2,0v1h2a1,1,0,0,1,0,2H31a1,1,0,0,0,0,2h2a3,3,0,0,1,0,6v1a1,1,0,0,1-2,0V28H29a1,1,0,0,1,0-2h4A1,1,0,0,0,33,24Z"/><path d="M32,36A13,13,0,1,0,19,23,13,13,0,0,0,32,36Zm0-24A11,11,0,1,1,21,23,11,11,0,0,1,32,12Z"/><path d="M15.45,38.33,19.54,36A18,18,0,0,0,27,40.28c2.13,1,.92.18,5,3.44,4.08-3.26,3-2.53,5-3.44A18,18,0,0,0,44.46,36l4.09,2.36,5-8.66-4.09-2.36a17.47,17.47,0,0,0,0-8.62l4.09-2.36-5-8.66L44.46,10A18,18,0,0,0,37,5.72V1H27V5.72A18,18,0,0,0,19.54,10L15.45,7.67l-5,8.66,4.09,2.36a17.47,17.47,0,0,0,0,8.62l-4.09,2.36ZM32,8A15,15,0,1,1,17,23,15,15,0,0,1,32,8Z"/><path d="M20.71,55.13l-2.42-2.42c-.54-.56-.5-.06,2.67-11.69A12,12,0,0,0,9.88,50.34L7,63H22.87l-3.64-4.36C18.63,57.91,19.14,57.5,20.71,55.13Z"/><path d="M23.2,42h-.44l-2.64,9.7,2.59,2.59a1,1,0,0,1,.12,1.26l-1.58,2.38,3.69,4.43c.68.81-.9.64,2.84.64C27.43,61.27,29.09,69,23.2,42Z"/><path d="M28.54,48.34l-1.68,1c2.94,13.52.49,4.14,2.79,1.64a3.34,3.34,0,0,1-1-1.83Z"/><path d="M26,41H25l1.37,6.32,2.34-1.46h0l1.52-1C26.21,41.64,26,41.67,26,41Z"/><path d="M30.38,47.19l.28,1.68a1.36,1.36,0,0,0,2.68,0l.28-1.68-1.62-1Z"/><path d="M30.78,53.1c-1.2,11.53-1,9.28-1,9.9,5,0,4.38.07,4.43-.16s.1.68-1-9.75A1.23,1.23,0,0,0,30.78,53.1Z"/><path d="M35.46,48.34A3.9,3.9,0,0,1,34.35,51c2.32,2.53-.15,11.89,2.79-1.63Z"/><path d="M33.73,44.9l1.52,1h0l2.34,1.46L39,41H38C38,41.63,38,41.47,33.73,44.9Z"/><path d="M41.17,55.55a1,1,0,0,1,.12-1.26l2.59-2.59L41.24,42h-.43c-4.88,22.33-4.58,20.86-4.58,21s-.12,0,2.6,0c0-.5-.09-.25,3.92-5.07Z"/><path d="M54.12,50.34A12,12,0,0,0,43,41L46,51.74c.23.79-.34,1.06-2.67,3.39,1.57,2.36,2.08,2.78,1.48,3.51L41.13,63H57Z"/></g></svg>