<svg xmlns="http://www.w3.org/2000/svg" viewBox="0 0 128 128"><defs><style>.cls-1{fill:#a0aec0;}</style></defs><title>Landing Success</title><g id="Landing_Success" data-name="Landing Success"><path class="cls-1" d="M24.12,61.14a12,12,0,0,1,5.33,16.77c18.69,14.1,44.42,28.44,66.4,35.87,27.44-27.49,9.25-75-29.83-76.73V18.71a18.21,18.21,0,0,1,12,.67c7,3.1,14,0,14,0v-17s-7,3.1-14,0a18.25,18.25,0,0,0-12-.66A1,1,0,0,0,64,2c0,46,0,43,0,43.2a1,1,0,0,1-2-.2v-8A45,45,0,0,0,24.12,61.14Z"/><path class="cls-1" d="M10.64,63.39c-18.72-20.3-5-23.94,20.9-15.38.67-.65,1.64-1.49,1.73-1.56C23.21,43,1.37,37.15,0,47.76c-.66,5.05,4.23,11.76,9.25,17.18A13.27,13.27,0,0,1,10.64,63.39Z"/><path class="cls-1" d="M110.16,90.84c-.14.77-.3,1.54-.49,2.3,26.28,23.35,20.64,34.77-15.88,21.93C80,110.2,62.71,101.92,44.84,90.56s-15.73-11.93-16.55-11A12,12,0,0,1,19.05,84c1.6,36.79,44.8,56.35,73.5,32.79C129.21,130.3,141.34,118.13,110.16,90.84Z"/><path class="cls-1" d="M26.69,78.4C32.27,71,26.87,62,19,62a10,10,0,1,0,7.69,16.4Z"/></g></svg>