<svg xmlns="http://www.w3.org/2000/svg" viewBox="0 0 64 64"><title>Language</title><g id="Language"><path d="M9,60H53v3H9a4,4,0,0,1,0-8H53v3H9A1,1,0,0,0,9,60Z"/><path d="M9,1h1V53c-1.69,0-3.25,0-5,1.54V5A4,4,0,0,1,9,1Z"/><path d="M39,21.69,37.68,25h2.64Zm0,0L37.68,25h2.64Zm0,0L37.68,25h2.64Zm0,0L37.68,25h2.64ZM17,9V33H47V9Zm14,7H24.13A10.11,10.11,0,0,0,26,19.87a10.76,10.76,0,0,0,1.32-2.26,1,1,0,0,1,1.84.78,13.32,13.32,0,0,1-1.81,3,15.69,15.69,0,0,0,2.22,1.78,1,1,0,0,1-1.1,1.66c-3.82-2.55-1.12-2.52-4.95,0a1,1,0,0,1-1.1-1.66,15.46,15.46,0,0,0,2.23-1.79A12.05,12.05,0,0,1,22.1,16H21a1,1,0,0,1,0-2h4V13a1,1,0,0,1,2,0v1h4A1,1,0,0,1,31,16ZM42.07,29.37C41,26.72,41.18,27,41,27c-3.76,0-4,0-4.12,0l-1,2.38a1,1,0,0,1-1.86-.74l4-10a1,1,0,0,1,1.86,0l4,10A1,1,0,0,1,42.07,29.37ZM37.68,25h2.64L39,21.69ZM39,21.69,37.68,25h2.64Zm0,0L37.68,25h2.64Zm0,0L37.68,25h2.64Z"/><path d="M12,1V53H53V1ZM49,34a1,1,0,0,1-1,1H16a1,1,0,0,1-1-1V8a1,1,0,0,1,1-1H48a1,1,0,0,1,1,1Z"/><path d="M12,55a1,1,0,0,1-2,0Z"/></g></svg>