<svg xmlns="http://www.w3.org/2000/svg" viewBox="0 0 128 128"><defs><style>.cls-1{fill:#a0aec0;}</style></defs><title>Launching</title><g id="Launching"><path class="cls-1" d="M49.51,12.57A40.52,40.52,0,0,1,59,2.66a8.29,8.29,0,0,1,10,0,40.16,40.16,0,0,1,9.51,9.91A36.32,36.32,0,0,1,49.51,12.57Z"/><circle class="cls-1" cx="64" cy="60" r="11.98"/><path class="cls-1" d="M79.61,14.29l-.1.05a38.3,38.3,0,0,1-31,0l-.09-.05A43.36,43.36,0,0,0,42,37V88.29A5.57,5.57,0,0,0,47.42,94H80.58A5.57,5.57,0,0,0,86,88.29V37A43.43,43.43,0,0,0,79.61,14.29ZM64,74A14,14,0,1,1,78,60,14,14,0,0,1,64,74Z"/><polygon class="cls-1" points="48 96 80 96 78 103 50 103 48 96"/><polygon class="cls-1" points="114 76.63 114 88 88 88 88 55.62 114 76.63"/><polygon class="cls-1" points="40 55.62 40 88 14 88 14 76.63 40 55.62"/><path class="cls-1" d="M64,127c-4.28-5.08-11.32-16.1-8.17-22H72.17C75.33,110.91,68.26,122,64,127Z"/></g></svg>