<svg xmlns="http://www.w3.org/2000/svg" viewBox="0 0 64 64"><title>Library</title><g id="Library"><rect x="21" y="7" width="2" height="50"/><path d="M16,1V63H28V1Zm9,57a1,1,0,0,1-1,1H20a1,1,0,0,1-1-1V6a1,1,0,0,1,1-1h4a1,1,0,0,1,1,1Z"/><path d="M10,18.83V55.17A3,3,0,0,0,8.17,57H5.83A3,3,0,0,0,4,55.17V18.83A3,3,0,0,0,5.83,17H8.17A3,3,0,0,0,10,18.83Z"/><path d="M0,11V63H14V11ZM12,56a1,1,0,0,1-1,1,1,1,0,0,0-1,1,1,1,0,0,1-1,1H5a1,1,0,0,1-1-1,1,1,0,0,0-1-1,1,1,0,0,1-1-1V18a1,1,0,0,1,1-1,1,1,0,0,0,1-1,1,1,0,0,1,1-1H9a1,1,0,0,1,1,1,1,1,0,0,0,1,1,1,1,0,0,1,1,1Z"/><rect x="30" y="15" width="6" height="33"/><rect x="30" y="50" width="6" height="2"/><rect x="30" y="54" width="6" height="2"/><rect x="30" y="58" width="6" height="5"/><rect x="46.93" y="8.11" width="8" height="4.85" transform="translate(-1.06 9.01) rotate(-10)"/><polygon points="56.04 16.45 48.16 17.84 47.76 15.59 55.64 14.2 56.04 16.45"/><polygon points="62.07 50.64 54.19 52.03 48.51 19.81 56.38 18.42 62.07 50.64"/><polygon points="62.81 54.86 54.93 56.25 54.53 54 62.41 52.61 62.81 54.86"/><rect x="55.64" y="57.49" width="8" height="4.85" transform="translate(-9.5 11.27) rotate(-10)"/><rect x="38" y="18" width="8" height="3"/><path d="M38,23V58h8V23Zm5,31a1,1,0,0,1-2,0V26a1,1,0,0,1,2,0Z"/><rect x="38" y="60" width="8" height="3"/></g></svg>