<svg xmlns="http://www.w3.org/2000/svg" viewBox="0 0 64 64"><title>Locker</title><g id="Locker"><path d="M22,1V61H42V1Zm4,5H38a1,1,0,0,1,0,2H26A1,1,0,0,1,26,6Zm0,5H38a1,1,0,0,1,0,2H26A1,1,0,0,1,26,11Zm0,5H38a1,1,0,0,1,0,2H26A1,1,0,0,1,26,16ZM39,30v4a1,1,0,0,1-2,0V30A1,1,0,0,1,39,30ZM26,45H38a1,1,0,0,1,0,2H26A1,1,0,0,1,26,45Zm0,5H38a1,1,0,0,1,0,2H26A1,1,0,0,1,26,50Zm12,7H26a1,1,0,0,1,0-2H38A1,1,0,0,1,38,57Z"/><path d="M44,1V61H64V1Zm4,5H60a1,1,0,0,1,0,2H48A1,1,0,0,1,48,6Zm0,5H60a1,1,0,0,1,0,2H48A1,1,0,0,1,48,11Zm0,5H60a1,1,0,0,1,0,2H48A1,1,0,0,1,48,16ZM61,30v4a1,1,0,0,1-2,0V30A1,1,0,0,1,61,30ZM48,45H60a1,1,0,0,1,0,2H48A1,1,0,0,1,48,45Zm0,5H60a1,1,0,0,1,0,2H48A1,1,0,0,1,48,50Zm12,7H48a1,1,0,0,1,0-2H60A1,1,0,0,1,60,57Z"/><path d="M0,1V61H20V1ZM4,6H16a1,1,0,0,1,0,2H4A1,1,0,0,1,4,6Zm0,5H16a1,1,0,0,1,0,2H4A1,1,0,0,1,4,11Zm0,5H16a1,1,0,0,1,0,2H4A1,1,0,0,1,4,16ZM17,30v4a1,1,0,0,1-2,0V30A1,1,0,0,1,17,30ZM4,45H16a1,1,0,0,1,0,2H4A1,1,0,0,1,4,45Zm0,5H16a1,1,0,0,1,0,2H4A1,1,0,0,1,4,50Zm12,7H4a1,1,0,0,1,0-2H16A1,1,0,0,1,16,57Z"/><path d="M1,62V61a1,1,0,0,1,2,0v1A1,1,0,0,1,1,62Z"/><path d="M17,62V61a1,1,0,0,1,2,0v1A1,1,0,0,1,17,62Z"/><path d="M23,62V61a1,1,0,0,1,2,0v1A1,1,0,0,1,23,62Z"/><path d="M39,62V61a1,1,0,0,1,2,0v1A1,1,0,0,1,39,62Z"/><path d="M45,62V61a1,1,0,0,1,2,0v1A1,1,0,0,1,45,62Z"/><path d="M61,62V61a1,1,0,0,1,2,0v1A1,1,0,0,1,61,62Z"/></g></svg>