<svg xmlns="http://www.w3.org/2000/svg" viewBox="0 0 128 128"><defs><style>.cls-1{fill:#a0aec0;}</style></defs><title>Log in</title><g id="Log_in" data-name="Log in"><polygon class="cls-1" points="113 54 113 74 76 74 76 84 56 64 76 44 76 54 113 54"/><path class="cls-1" d="M15,14V114l38,13V1ZM46,67a1,1,0,0,1-2,0V61a1,1,0,0,1,2,0Z"/><path class="cls-1" d="M55,14v6H78V52h7V14Z"/><rect class="cls-1" x="78" y="76" width="7" height="35"/><path class="cls-1" d="M112,115H55v-2h57A1,1,0,0,1,112,115Z"/><polygon class="cls-1" points="76 22 76 41.17 55 62.17 55 22 76 22"/><polygon class="cls-1" points="55 65.83 76 86.83 76 110 55 110 55 65.83"/></g></svg>