<svg xmlns="http://www.w3.org/2000/svg" viewBox="0 0 128 128"><defs><style>.cls-1{fill:#a0aec0;}</style></defs><title>Log Out</title><g id="Log_Out" data-name="Log Out"><polygon class="cls-1" points="113 64 93 44 93 54 55 54 55 74 93 74 93 84 113 64"/><path class="cls-1" d="M15,14V114l38,13V1ZM46,67a1,1,0,0,1-2,0V61a1,1,0,0,1,2,0Z"/><path class="cls-1" d="M55,14v6H78V52h7V14Z"/><rect class="cls-1" x="78" y="76" width="7" height="35"/><path class="cls-1" d="M112,115H55v-2h57A1,1,0,0,1,112,115Z"/><rect class="cls-1" x="55" y="22" width="21" height="30"/><rect class="cls-1" x="55" y="76" width="21" height="35"/></g></svg>