<svg xmlns="http://www.w3.org/2000/svg" viewBox="0 0 64 64"><title>Male Teacher</title><g id="Male_Teacher" data-name="Male Teacher"><path d="M24.74,51.1,23.25,63h5.5L27.26,51.1A1.27,1.27,0,0,0,24.74,51.1Z"/><path d="M22.08,46.4C17.89,48.79,18.69,49.31,17,39A14,14,0,0,0,4.05,50.7L2,63c20.87,0,19.22.06,19.26-.12,1.6-12.81,1.38-12.76,2.3-13.77A5.09,5.09,0,0,1,22.08,46.4Z"/><path d="M19,39l1,6.25c1.91-1.09-1.12.63,4.32-2.47L20.59,39Z"/><path d="M26,48c1.56,0,1.77-1.49,2.15-2.62A15.55,15.55,0,0,0,26,44.15l-2.14,1.23C24.27,46.65,24.49,48,26,48Z"/><path d="M30,37.59V36.42a14.13,14.13,0,0,1-8,0v1.17l4,4Z"/><path d="M32,45.25,33,39H31.41l-3.78,3.78C33,45.86,30.17,44.23,32,45.25Z"/><path d="M35,39c-1.71,10.31-.9,9.76-5.09,7.37a5.09,5.09,0,0,1-1.48,2.71,3.12,3.12,0,0,1,.8,1.75c1.59,12.71,1.51,12,1.51,12.14H50L48,50.7A14,14,0,0,0,35,39Z"/><circle cx="20.5" cy="20.5" r="2.5"/><circle cx="31.5" cy="20.5" r="2.5"/><path d="M38,23V20H36a4.5,4.5,0,1,1-9,.21,2.53,2.53,0,0,0-2,0A4.5,4.5,0,1,1,16,20H14c0,4.51-.11,7.87,3.51,11.49C25,39,38,33.73,38,23Zm-9.17,7.83a4,4,0,0,1-5.66,0,1,1,0,0,1,1.42-1.42,2,2,0,0,0,2.82,0A1,1,0,0,1,28.83,30.83Z"/><path d="M35.24,18h.94l-1.87-5h-9.7a7.69,7.69,0,0,1-5.67-2.47A16.09,16.09,0,0,0,15.31,18h1.45a4.5,4.5,0,0,1,7.65.28,4.64,4.64,0,0,1,3.18,0A4.49,4.49,0,0,1,35.24,18Z"/><path d="M40,25a3,3,0,0,0,0-6Z"/><path d="M12,25V19a3,3,0,0,0,0,6Z"/><path d="M13.12,18.53c.41-.82.4-5,4.5-9.53.56-.61.84-1,1.48-1s.7.49,1.15,1a5.76,5.76,0,0,0,4.36,2H35c.93,0,.83.35,3,6.14.41,1.09.3.89.47,1C39.75,13,40,12.39,40,10.79A9.8,9.8,0,0,0,30.21,1C25.53,1,22.61.61,19,3a8,8,0,0,0-8,8A14.39,14.39,0,0,0,13.12,18.53Z"/><rect x="50" y="49" width="10" height="14"/><path d="M54.73,31.44a1,1,0,0,1-.07,1.14C53.79,33.65,54,35.69,54,38a.91.91,0,0,0,1,1,1,1,0,0,1,1,1c0,1.83-4,1.1-4-2,0-1.07-.38-6,1.42-6.94A1.33,1.33,0,0,0,53,31c-4.6,0-4,4.37-4,9,0,2,2,4,2,4v3h8V44s3-2,3-5V35C62,31.55,57.79,30.24,54.73,31.44Z"/><path d="M57,1a1,1,0,0,0-2,0V29.27A8.48,8.48,0,0,1,57,29Z"/></g></svg>