<svg xmlns="http://www.w3.org/2000/svg" viewBox="0 0 64 64"><title>Manager</title><g id="Manager"><path d="M42.42,44c-3.3-9.89-17.48-10.07-20.84,0l-.73,2.17a18,18,0,0,0,9.24,3.77l.83-9.13a2.11,2.11,0,0,1-1.19-2.93c.61-1,1.52-.84,3-.84,2,0,2.51,2.79.31,3.77l.83,9.13a18.07,18.07,0,0,0,9.24-3.77Zm0,0c-3.3-9.89-17.48-10.07-20.84,0l-.73,2.17a18,18,0,0,0,9.24,3.77l.83-9.13a2.11,2.11,0,0,1-1.19-2.93c.61-1,1.52-.84,3-.84,2,0,2.51,2.79.31,3.77l.83,9.13a18.07,18.07,0,0,0,9.24-3.77ZM32,14C16,14,8,33.4,19.22,44.68c1.53-4.53,3.62-7.8,8.49-9.5a7.87,7.87,0,0,1-3.62-6.63V26.82a7.91,7.91,0,1,1,15.82,0v1.73a7.87,7.87,0,0,1-3.62,6.63,13.09,13.09,0,0,1,2.14,1c3.77,2.15,5.13,4.91,6.35,8.51C56,33.4,48,14,32,14Zm5.91,12.82a5.91,5.91,0,1,0-11.82,0v1.73a5.91,5.91,0,0,0,11.82,0ZM42.42,44c-3.3-9.89-17.48-10.07-20.84,0l-.73,2.17a18,18,0,0,0,9.24,3.77l.83-9.13a2.11,2.11,0,0,1-1.19-2.93c.61-1,1.52-.84,3-.84,2,0,2.51,2.79.31,3.77l.83,9.13a18.07,18.07,0,0,0,9.24-3.77ZM32,14C16,14,8,33.4,19.22,44.68c1.53-4.53,3.62-7.8,8.49-9.5a7.87,7.87,0,0,1-3.62-6.63V26.82a7.91,7.91,0,1,1,15.82,0v1.73a7.87,7.87,0,0,1-3.62,6.63,13.09,13.09,0,0,1,2.14,1c3.77,2.15,5.13,4.91,6.35,8.51C56,33.4,48,14,32,14Zm5.91,12.82a5.91,5.91,0,1,0-11.82,0v1.73a5.91,5.91,0,0,0,11.82,0ZM42.42,44c-3.3-9.89-17.48-10.07-20.84,0l-.73,2.17a18,18,0,0,0,9.24,3.77l.83-9.13a2.11,2.11,0,0,1-1.19-2.93c.61-1,1.52-.84,3-.84,2,0,2.51,2.79.31,3.77l.83,9.13a18.07,18.07,0,0,0,9.24-3.77ZM32,14C16,14,8,33.4,19.22,44.68c1.53-4.53,3.62-7.8,8.49-9.5a7.87,7.87,0,0,1-3.62-6.63V26.82a7.91,7.91,0,1,1,15.82,0v1.73a7.87,7.87,0,0,1-3.62,6.63,13.09,13.09,0,0,1,2.14,1c3.77,2.15,5.13,4.91,6.35,8.51C56,33.4,48,14,32,14Zm5.91,12.82a5.91,5.91,0,1,0-11.82,0v1.73a5.91,5.91,0,0,0,11.82,0ZM42.42,44c-3.3-9.89-17.48-10.07-20.84,0l-.73,2.17a18,18,0,0,0,9.24,3.77l.83-9.13a2.11,2.11,0,0,1-1.19-2.93c.61-1,1.52-.84,3-.84,2,0,2.51,2.79.31,3.77l.83,9.13a18.07,18.07,0,0,0,9.24-3.77ZM32,14C16,14,8,33.4,19.22,44.68c1.53-4.53,3.62-7.8,8.49-9.5a7.87,7.87,0,0,1-3.62-6.63V26.82a7.91,7.91,0,1,1,15.82,0v1.73a7.87,7.87,0,0,1-3.62,6.63,13.09,13.09,0,0,1,2.14,1c3.77,2.15,5.13,4.91,6.35,8.51C56,33.4,48,14,32,14Zm5.91,12.82a5.91,5.91,0,1,0-11.82,0v1.73a5.91,5.91,0,0,0,11.82,0ZM42.42,44c-3.3-9.89-17.48-10.07-20.84,0l-.73,2.17a18,18,0,0,0,9.24,3.77l.83-9.13a2.11,2.11,0,0,1-1.19-2.93c.61-1,1.52-.84,3-.84,2,0,2.51,2.79.31,3.77l.83,9.13a18.07,18.07,0,0,0,9.24-3.77ZM32,14C16,14,8,33.4,19.22,44.68c1.53-4.53,3.62-7.8,8.49-9.5a7.87,7.87,0,0,1-3.62-6.63V26.82a7.91,7.91,0,1,1,15.82,0v1.73a7.87,7.87,0,0,1-3.62,6.63,13.09,13.09,0,0,1,2.14,1c3.77,2.15,5.13,4.91,6.35,8.51C56,33.4,48,14,32,14Zm5.91,12.82a5.91,5.91,0,1,0-11.82,0v1.73a5.91,5.91,0,0,0,11.82,0ZM32,14C16,14,8,33.4,19.22,44.68c1.53-4.53,3.62-7.8,8.49-9.5a7.87,7.87,0,0,1-3.62-6.63V26.82a7.91,7.91,0,1,1,15.82,0v1.73a7.87,7.87,0,0,1-3.62,6.63,13.09,13.09,0,0,1,2.14,1c3.77,2.15,5.13,4.91,6.35,8.51C56,33.4,48,14,32,14Zm5.52,24a10.92,10.92,0,0,0-10.82-.13c-3.78,2.26-4.51,4.32-5.85,8.31a17.88,17.88,0,0,0,9.24,3.77l.83-9.13c-2.16-1-1.72-3.77.31-3.77,1.57,0,2.43-.16,3,.84a2.12,2.12,0,0,1-1.19,2.93l.83,9.13a18.17,18.17,0,0,0,9.24-3.77C42.18,43.24,41.37,40.15,37.52,38ZM32,34.45a5.91,5.91,0,0,0,5.91-5.9V26.82a5.91,5.91,0,1,0-11.82,0v1.73A5.92,5.92,0,0,0,32,34.45Zm25.19-8.91,5.16-3-7-12.12-5.17,3A26,26,0,0,0,39,7V1H25V7a26,26,0,0,0-11.18,6.46l-5.17-3-7,12.12,5.16,3a26.17,26.17,0,0,0,0,12.92l-5.16,3,7,12.12,5.17-3A26,26,0,0,0,25,57v6H39V57a26,26,0,0,0,11.18-6.46l5.17,3,7-12.12-5.16-3A26.17,26.17,0,0,0,57.19,25.54ZM45,47.23C32.11,58.16,12,49.15,12,32A20,20,0,0,1,32,12C50.65,12,59,35.29,45,47.23ZM32,14C16,14,8,33.4,19.22,44.68c1.53-4.53,3.62-7.8,8.49-9.5a7.87,7.87,0,0,1-3.62-6.63V26.82a7.91,7.91,0,1,1,15.82,0v1.73a7.87,7.87,0,0,1-3.62,6.63,13.09,13.09,0,0,1,2.14,1c3.77,2.15,5.13,4.91,6.35,8.51C56,33.4,48,14,32,14Zm5.52,24a10.92,10.92,0,0,0-10.82-.13c-3.78,2.26-4.51,4.32-5.85,8.31a17.88,17.88,0,0,0,9.24,3.77l.83-9.13c-2.16-1-1.72-3.77.31-3.77,1.57,0,2.43-.16,3,.84a2.12,2.12,0,0,1-1.19,2.93l.83,9.13a18.17,18.17,0,0,0,9.24-3.77C42.18,43.24,41.37,40.15,37.52,38ZM32,34.45a5.91,5.91,0,0,0,5.91-5.9V26.82a5.91,5.91,0,1,0-11.82,0v1.73A5.92,5.92,0,0,0,32,34.45ZM42.42,44c-3.3-9.89-17.48-10.07-20.84,0l-.73,2.17a18,18,0,0,0,9.24,3.77l.83-9.13a2.11,2.11,0,0,1-1.19-2.93c.61-1,1.52-.84,3-.84,2,0,2.51,2.79.31,3.77l.83,9.13a18.07,18.07,0,0,0,9.24-3.77ZM32,14C16,14,8,33.4,19.22,44.68c1.53-4.53,3.62-7.8,8.49-9.5a7.87,7.87,0,0,1-3.62-6.63V26.82a7.91,7.91,0,1,1,15.82,0v1.73a7.87,7.87,0,0,1-3.62,6.63,13.09,13.09,0,0,1,2.14,1c3.77,2.15,5.13,4.91,6.35,8.51C56,33.4,48,14,32,14Zm5.91,12.82a5.91,5.91,0,1,0-11.82,0v1.73a5.91,5.91,0,0,0,11.82,0ZM42.42,44c-3.3-9.89-17.48-10.07-20.84,0l-.73,2.17a18,18,0,0,0,9.24,3.77l.83-9.13a2.11,2.11,0,0,1-1.19-2.93c.61-1,1.52-.84,3-.84,2,0,2.51,2.79.31,3.77l.83,9.13a18.07,18.07,0,0,0,9.24-3.77ZM32,14C16,14,8,33.4,19.22,44.68c1.53-4.53,3.62-7.8,8.49-9.5a7.87,7.87,0,0,1-3.62-6.63V26.82a7.91,7.91,0,1,1,15.82,0v1.73a7.87,7.87,0,0,1-3.62,6.63,13.09,13.09,0,0,1,2.14,1c3.77,2.15,5.13,4.91,6.35,8.51C56,33.4,48,14,32,14Zm5.91,12.82a5.91,5.91,0,1,0-11.82,0v1.73a5.91,5.91,0,0,0,11.82,0ZM42.42,44c-3.3-9.89-17.48-10.07-20.84,0l-.73,2.17a18,18,0,0,0,9.24,3.77l.83-9.13a2.11,2.11,0,0,1-1.19-2.93c.61-1,1.52-.84,3-.84,2,0,2.51,2.79.31,3.77l.83,9.13a18.07,18.07,0,0,0,9.24-3.77ZM32,14C16,14,8,33.4,19.22,44.68c1.53-4.53,3.62-7.8,8.49-9.5a7.87,7.87,0,0,1-3.62-6.63V26.82a7.91,7.91,0,1,1,15.82,0v1.73a7.87,7.87,0,0,1-3.62,6.63,13.09,13.09,0,0,1,2.14,1c3.77,2.15,5.13,4.91,6.35,8.51C56,33.4,48,14,32,14Zm5.91,12.82a5.91,5.91,0,1,0-11.82,0v1.73a5.91,5.91,0,0,0,11.82,0ZM42.42,44c-3.3-9.89-17.48-10.07-20.84,0l-.73,2.17a18,18,0,0,0,9.24,3.77l.83-9.13a2.11,2.11,0,0,1-1.19-2.93c.61-1,1.52-.84,3-.84,2,0,2.51,2.79.31,3.77l.83,9.13a18.07,18.07,0,0,0,9.24-3.77ZM32,14C16,14,8,33.4,19.22,44.68c1.53-4.53,3.62-7.8,8.49-9.5a7.87,7.87,0,0,1-3.62-6.63V26.82a7.91,7.91,0,1,1,15.82,0v1.73a7.87,7.87,0,0,1-3.62,6.63,13.09,13.09,0,0,1,2.14,1c3.77,2.15,5.13,4.91,6.35,8.51C56,33.4,48,14,32,14Zm5.91,12.82a5.91,5.91,0,1,0-11.82,0v1.73a5.91,5.91,0,0,0,11.82,0ZM42.42,44c-3.3-9.89-17.48-10.07-20.84,0l-.73,2.17a18,18,0,0,0,9.24,3.77l.83-9.13a2.11,2.11,0,0,1-1.19-2.93c.61-1,1.52-.84,3-.84,2,0,2.51,2.79.31,3.77l.83,9.13a18.07,18.07,0,0,0,9.24-3.77ZM32,14C16,14,8,33.4,19.22,44.68c1.53-4.53,3.62-7.8,8.49-9.5a7.87,7.87,0,0,1-3.62-6.63V26.82a7.91,7.91,0,1,1,15.82,0v1.73a7.87,7.87,0,0,1-3.62,6.63,13.09,13.09,0,0,1,2.14,1c3.77,2.15,5.13,4.91,6.35,8.51C56,33.4,48,14,32,14Zm5.91,12.82a5.91,5.91,0,1,0-11.82,0v1.73a5.91,5.91,0,0,0,11.82,0ZM42.42,44c-3.3-9.89-17.48-10.07-20.84,0l-.73,2.17a18,18,0,0,0,9.24,3.77l.83-9.13a2.11,2.11,0,0,1-1.19-2.93c.61-1,1.52-.84,3-.84,2,0,2.51,2.79.31,3.77l.83,9.13a18.07,18.07,0,0,0,9.24-3.77ZM32,14C16,14,8,33.4,19.22,44.68c1.53-4.53,3.62-7.8,8.49-9.5a7.87,7.87,0,0,1-3.62-6.63V26.82a7.91,7.91,0,1,1,15.82,0v1.73a7.87,7.87,0,0,1-3.62,6.63,13.09,13.09,0,0,1,2.14,1c3.77,2.15,5.13,4.91,6.35,8.51C56,33.4,48,14,32,14Zm5.91,12.82a5.91,5.91,0,1,0-11.82,0v1.73a5.91,5.91,0,0,0,11.82,0ZM42.42,44c-3.3-9.89-17.48-10.07-20.84,0l-.73,2.17a18,18,0,0,0,9.24,3.77l.83-9.13a2.11,2.11,0,0,1-1.19-2.93c.61-1,1.52-.84,3-.84,2,0,2.51,2.79.31,3.77l.83,9.13a18.07,18.07,0,0,0,9.24-3.77Z"/></g></svg>