<svg xmlns="http://www.w3.org/2000/svg" viewBox="0 0 64 64"><title>Math</title><g id="Math"><path d="M17,14h6v2H17a1,1,0,0,0-1,1v6H14V17a1,1,0,0,0-1-1H7V14h6a1,1,0,0,0,1-1V7h2v6A1,1,0,0,0,17,14Z"/><path d="M21,1H9A8,8,0,0,0,1,9V21a8,8,0,0,0,8,8H21a8,8,0,0,0,8-8V9A8,8,0,0,0,21,1Zm4,16a1,1,0,0,1-1,1H18v6a1,1,0,0,1-1,1H13a1,1,0,0,1-1-1V18H6a1,1,0,0,1-1-1V13a1,1,0,0,1,1-1h6V6a1,1,0,0,1,1-1h4a1,1,0,0,1,1,1v6h6a1,1,0,0,1,1,1Z"/><rect x="41" y="14" width="16" height="2"/><path d="M55,1H43a8,8,0,0,0-8,8V21a8,8,0,0,0,8,8H55a8,8,0,0,0,8-8V9A8,8,0,0,0,55,1Zm4,16a1,1,0,0,1-1,1H40a1,1,0,0,1-1-1V13a1,1,0,0,1,1-1H58a1,1,0,0,1,1,1Z"/><path d="M16,56a1,1,0,0,1-2,0A1,1,0,0,1,16,56Z"/><path d="M15,41a1,1,0,0,0,0,2A1,1,0,0,0,15,41ZM7,48v2H23V48Zm0,0v2H23V48Zm8-7a1,1,0,0,0,0,2A1,1,0,0,0,15,41Zm6-6H9a8,8,0,0,0-8,8V55a8,8,0,0,0,8,8H21a8,8,0,0,0,8-8V43A8,8,0,0,0,21,35Zm-6,4a3,3,0,1,1-3,3A3,3,0,0,1,15,39Zm0,20a3,3,0,1,1,3-3A3,3,0,0,1,15,59Zm10-8a1,1,0,0,1-1,1H6a1,1,0,0,1-1-1V47a1,1,0,0,1,1-1H24a1,1,0,0,1,1,1ZM7,50H23V48H7Zm8-7a1,1,0,0,0,0-2A1,1,0,0,0,15,43ZM7,48v2H23V48Zm0,0v2H23V48Z"/><path d="M54.59,42,56,43.41l-4.88,4.88a1,1,0,0,0,0,1.42L56,54.59,54.59,56l-4.88-4.88a1,1,0,0,0-1.42,0L43.41,56,42,54.59l4.88-4.88a1,1,0,0,0,0-1.42L42,43.41,43.41,42l4.88,4.88a1,1,0,0,0,1.42,0Z"/><path d="M55,35H43a8,8,0,0,0-8,8V55a8,8,0,0,0,8,8H55a8,8,0,0,0,8-8V43A8,8,0,0,0,55,35Zm3.12,18.88a1,1,0,0,1,0,1.41l-2.83,2.83a1,1,0,0,1-1.41,0L49,53.24l-4.88,4.88a1,1,0,0,1-1.41,0l-2.83-2.83a1,1,0,0,1,0-1.41L44.76,49l-4.88-4.88a1,1,0,0,1,0-1.41l2.83-2.83a1,1,0,0,1,1.41,0L49,44.76l4.88-4.88a1,1,0,0,1,1.41,0l2.83,2.83a1,1,0,0,1,0,1.41L53.24,49Z"/></g></svg>