<svg xmlns="http://www.w3.org/2000/svg" viewBox="0 0 64 64"><title>Mobile Payment</title><g id="Mobile_Payment" data-name="Mobile Payment"><path d="M14,16H34V6H28.83A3,3,0,0,1,26,8c-12.86,0-13,.31-14.13-.89A3,3,0,0,1,11.17,6H6V58H34V48H14a1,1,0,0,1-1-1V17A1,1,0,0,1,14,16Zm25,0V5a4,4,0,0,0-4-4H5A4,4,0,0,0,1,5V59a4,4,0,0,0,4,4H35a4,4,0,0,0,4-4V48H36V59a1,1,0,0,1-1,1H5a1,1,0,0,1-1-1V5A1,1,0,0,1,5,4h7a1,1,0,0,1,1,1,1,1,0,0,0,1,1H26a1,1,0,0,0,1-1,1,1,0,0,1,1-1h7a1,1,0,0,1,1,1V16ZM16,5a1,1,0,0,1,0-2A1,1,0,0,1,16,5Zm8,0a1,1,0,0,1,0-2A1,1,0,0,1,24,5Z"/><path d="M39,27a5,5,0,1,0,5,5A5,5,0,0,0,39,27Zm0,0a5,5,0,1,0,5,5A5,5,0,0,0,39,27Zm14.08-4H24.92A6,6,0,0,1,20,27.92v8.16A6,6,0,0,1,24.92,41H53.08A6,6,0,0,1,58,36.08V27.92A6,6,0,0,1,53.08,23ZM28,33H24a1,1,0,0,1,0-2h4A1,1,0,0,1,28,33Zm11,6a7,7,0,1,1,7-7A7,7,0,0,1,39,39Zm15-6H50a1,1,0,0,1,0-2h4A1,1,0,0,1,54,33ZM39,27a5,5,0,1,0,5,5A5,5,0,0,0,39,27Zm0,0a5,5,0,1,0,5,5A5,5,0,0,0,39,27Zm0,0a5,5,0,1,0,5,5A5,5,0,0,0,39,27Zm14.08-4H24.92A6,6,0,0,1,20,27.92v8.16A6,6,0,0,1,24.92,41H53.08A6,6,0,0,1,58,36.08V27.92A6,6,0,0,1,53.08,23ZM28,33H24a1,1,0,0,1,0-2h4A1,1,0,0,1,28,33Zm11,6a7,7,0,1,1,7-7A7,7,0,0,1,39,39Zm15-6H50a1,1,0,0,1,0-2h4A1,1,0,0,1,54,33ZM39,27a5,5,0,1,0,5,5A5,5,0,0,0,39,27Zm0,0a5,5,0,1,0,5,5A5,5,0,0,0,39,27Zm0,0a5,5,0,1,0,5,5A5,5,0,0,0,39,27Zm14.08-4H24.92A6,6,0,0,1,20,27.92v8.16A6,6,0,0,1,24.92,41H53.08A6,6,0,0,1,58,36.08V27.92A6,6,0,0,1,53.08,23ZM28,33H24a1,1,0,0,1,0-2h4A1,1,0,0,1,28,33Zm11,6a7,7,0,1,1,7-7A7,7,0,0,1,39,39Zm15-6H50a1,1,0,0,1,0-2h4A1,1,0,0,1,54,33ZM39,27a5,5,0,1,0,5,5A5,5,0,0,0,39,27Zm0,0a5,5,0,1,0,5,5A5,5,0,0,0,39,27Zm0,0a5,5,0,1,0,5,5A5,5,0,0,0,39,27Zm14.08-4H24.92A6,6,0,0,1,20,27.92v8.16A6,6,0,0,1,24.92,41H53.08A6,6,0,0,1,58,36.08V27.92A6,6,0,0,1,53.08,23ZM28,33H24a1,1,0,0,1,0-2h4A1,1,0,0,1,28,33Zm11,6a7,7,0,1,1,7-7A7,7,0,0,1,39,39Zm15-6H50a1,1,0,0,1,0-2h4A1,1,0,0,1,54,33ZM39,27a5,5,0,1,0,5,5A5,5,0,0,0,39,27Zm0,0a5,5,0,1,0,5,5A5,5,0,0,0,39,27Zm0,0a5,5,0,1,0,5,5A5,5,0,0,0,39,27Zm14.08-4H24.92A6,6,0,0,1,20,27.92v8.16A6,6,0,0,1,24.92,41H53.08A6,6,0,0,1,58,36.08V27.92A6,6,0,0,1,53.08,23ZM28,33H24a1,1,0,0,1,0-2h4A1,1,0,0,1,28,33Zm11,6a7,7,0,1,1,7-7A7,7,0,0,1,39,39Zm15-6H50a1,1,0,0,1,0-2h4A1,1,0,0,1,54,33ZM39,27a5,5,0,1,0,5,5A5,5,0,0,0,39,27Zm14.08-4H24.92A6,6,0,0,1,20,27.92v8.16A6,6,0,0,1,24.92,41H53.08A6,6,0,0,1,58,36.08V27.92A6,6,0,0,1,53.08,23ZM28,33H24a1,1,0,0,1,0-2h4A1,1,0,0,1,28,33Zm11,6a7,7,0,1,1,7-7A7,7,0,0,1,39,39Zm15-6H50a1,1,0,0,1,0-2h4A1,1,0,0,1,54,33ZM39,27a5,5,0,1,0,5,5A5,5,0,0,0,39,27ZM15,18V46H63V18Zm4,3a1,1,0,0,1,0,2A1,1,0,0,1,19,21Zm0,22a1,1,0,0,1,0-2A1,1,0,0,1,19,43Zm40,0a1,1,0,0,1,0-2A1,1,0,0,1,59,43Zm1-6a1,1,0,0,1-1,1,4,4,0,0,0-4,4,1,1,0,0,1-1,1H24a1,1,0,0,1-1-1,4,4,0,0,0-4-4,1,1,0,0,1-1-1V27a1,1,0,0,1,1-1,4,4,0,0,0,4-4,1,1,0,0,1,1-1H54a1,1,0,0,1,1,1,4,4,0,0,0,4,4,1,1,0,0,1,1,1ZM59,23a1,1,0,0,1,0-2A1,1,0,0,1,59,23Zm-5.92,0H24.92A6,6,0,0,1,20,27.92v8.16A6,6,0,0,1,24.92,41H53.08A6,6,0,0,1,58,36.08V27.92A6,6,0,0,1,53.08,23ZM28,33H24a1,1,0,0,1,0-2h4A1,1,0,0,1,28,33Zm11,6a7,7,0,1,1,7-7A7,7,0,0,1,39,39Zm15-6H50a1,1,0,0,1,0-2h4A1,1,0,0,1,54,33ZM39,27a5,5,0,1,0,5,5A5,5,0,0,0,39,27Zm0,0a5,5,0,1,0,5,5A5,5,0,0,0,39,27Zm0,0a5,5,0,1,0,5,5A5,5,0,0,0,39,27Zm14.08-4H24.92A6,6,0,0,1,20,27.92v8.16A6,6,0,0,1,24.92,41H53.08A6,6,0,0,1,58,36.08V27.92A6,6,0,0,1,53.08,23ZM28,33H24a1,1,0,0,1,0-2h4A1,1,0,0,1,28,33Zm11,6a7,7,0,1,1,7-7A7,7,0,0,1,39,39Zm15-6H50a1,1,0,0,1,0-2h4A1,1,0,0,1,54,33ZM39,27a5,5,0,1,0,5,5A5,5,0,0,0,39,27Zm0,0a5,5,0,1,0,5,5A5,5,0,0,0,39,27Zm0,0a5,5,0,1,0,5,5A5,5,0,0,0,39,27Zm14.08-4H24.92A6,6,0,0,1,20,27.92v8.16A6,6,0,0,1,24.92,41H53.08A6,6,0,0,1,58,36.08V27.92A6,6,0,0,1,53.08,23ZM28,33H24a1,1,0,0,1,0-2h4A1,1,0,0,1,28,33Zm11,6a7,7,0,1,1,7-7A7,7,0,0,1,39,39Zm15-6H50a1,1,0,0,1,0-2h4A1,1,0,0,1,54,33ZM39,27a5,5,0,1,0,5,5A5,5,0,0,0,39,27Zm0,0a5,5,0,1,0,5,5A5,5,0,0,0,39,27Zm0,0a5,5,0,1,0,5,5A5,5,0,0,0,39,27Zm14.08-4H24.92A6,6,0,0,1,20,27.92v8.16A6,6,0,0,1,24.92,41H53.08A6,6,0,0,1,58,36.08V27.92A6,6,0,0,1,53.08,23ZM28,33H24a1,1,0,0,1,0-2h4A1,1,0,0,1,28,33Zm11,6a7,7,0,1,1,7-7A7,7,0,0,1,39,39Zm15-6H50a1,1,0,0,1,0-2h4A1,1,0,0,1,54,33ZM39,27a5,5,0,1,0,5,5A5,5,0,0,0,39,27Zm0,0a5,5,0,1,0,5,5A5,5,0,0,0,39,27Zm0,0a5,5,0,1,0,5,5A5,5,0,0,0,39,27Zm14.08-4H24.92A6,6,0,0,1,20,27.92v8.16A6,6,0,0,1,24.92,41H53.08A6,6,0,0,1,58,36.08V27.92A6,6,0,0,1,53.08,23ZM28,33H24a1,1,0,0,1,0-2h4A1,1,0,0,1,28,33Zm11,6a7,7,0,1,1,7-7A7,7,0,0,1,39,39Zm15-6H50a1,1,0,0,1,0-2h4A1,1,0,0,1,54,33ZM39,27a5,5,0,1,0,5,5A5,5,0,0,0,39,27Zm0,0a5,5,0,1,0,5,5A5,5,0,0,0,39,27Zm0,0a5,5,0,1,0,5,5A5,5,0,0,0,39,27Zm14.08-4H24.92A6,6,0,0,1,20,27.92v8.16A6,6,0,0,1,24.92,41H53.08A6,6,0,0,1,58,36.08V27.92A6,6,0,0,1,53.08,23ZM28,33H24a1,1,0,0,1,0-2h4A1,1,0,0,1,28,33Zm11,6a7,7,0,1,1,7-7A7,7,0,0,1,39,39Zm15-6H50a1,1,0,0,1,0-2h4A1,1,0,0,1,54,33ZM39,27a5,5,0,1,0,5,5A5,5,0,0,0,39,27Zm0,0a5,5,0,1,0,5,5A5,5,0,0,0,39,27Zm0,0a5,5,0,1,0,5,5A5,5,0,0,0,39,27Zm14.08-4H24.92A6,6,0,0,1,20,27.92v8.16A6,6,0,0,1,24.92,41H53.08A6,6,0,0,1,58,36.08V27.92A6,6,0,0,1,53.08,23ZM28,33H24a1,1,0,0,1,0-2h4A1,1,0,0,1,28,33Zm11,6a7,7,0,1,1,7-7A7,7,0,0,1,39,39Zm15-6H50a1,1,0,0,1,0-2h4A1,1,0,0,1,54,33ZM39,27a5,5,0,1,0,5,5A5,5,0,0,0,39,27Z"/></g></svg>