<svg xmlns="http://www.w3.org/2000/svg" viewBox="0 0 64 64"><title>Momentum</title><g id="Momentum"><rect x="1" y="51" width="54" height="4"/><path d="M11,48a3,3,0,0,0-3-3H6a3,3,0,0,0-3,3v1h8Z"/><path d="M48,45a3,3,0,0,0-3,3v1h8V48a3,3,0,0,0-3-3Z"/><path d="M9,13h6V36.1a5,5,0,0,1,2,0V13h4V36.1a5,5,0,0,1,2,0V13h4V36.1a5,5,0,0,1,2,0V13h4V36.1a5,5,0,0,1,2,0V13c5.9,0,3.58-.19,4.49.71L45,19.22V16.38L43.62,15h0l-2-2H47V43h4V13a4,4,0,0,0-4-4H9a4,4,0,0,0-4,4V43H9Z"/><circle cx="28" cy="41" r="3"/><circle cx="34" cy="41" r="3"/><path d="M53,24.38v2.84l2.83,2.83a4.58,4.58,0,0,1,1.42-1.42Z"/><path d="M62.12,30.68a3,3,0,1,0,0,4.24A3,3,0,0,0,62.12,30.68Z"/><circle cx="22" cy="41" r="3"/><circle cx="16" cy="41" r="3"/></g></svg>