<svg xmlns="http://www.w3.org/2000/svg" viewBox="0 0 64 64"><title>MRR</title><g id="MRR"><path d="M56.75,46.85v9.9l-2.83-2.83a31,31,0,0,1-37.59,4.83h1.82a1,1,0,0,0,1-1v-4.3a25,25,0,0,0,30.53-3.77l-2.83-2.83Z"/><path d="M58.75,47.67V45.85a1,1,0,0,0-1-1h-4.3a25,25,0,0,0-3.77-30.53l-2.83,2.83V7.25h9.9l-2.83,2.83A31,31,0,0,1,58.75,47.67Z"/><path d="M17.15,46.85v9.9H7.25l2.83-2.83A31,31,0,0,1,5.25,16.33v1.82a1,1,0,0,0,1,1h4.3a25,25,0,0,0,3.77,30.53Z"/><path d="M47.67,5.25H45.85a1,1,0,0,0-1,1v4.3a25,25,0,0,0-30.53,3.77l2.83,2.83H7.25V7.25l2.83,2.83A31,31,0,0,1,47.67,5.25Z"/><path d="M32,23a9,9,0,1,0,9,9A9,9,0,0,0,32,23Zm-1,8h2a3,3,0,0,1,0,6v1a1,1,0,0,1-2,0V37H29a1,1,0,0,1,0-2h4a1,1,0,0,0,0-2H31a3,3,0,0,1,0-6V26a1,1,0,0,1,2,0v1h2a1,1,0,0,1,0,2H31A1,1,0,0,0,31,31Z"/><path d="M45.61,28.76l2.25-1.3-4-6.92-2.25,1.29A14,14,0,0,0,36,18.59V16H28v2.59a14,14,0,0,0-5.61,3.24l-2.25-1.29-4,6.92,2.25,1.3a13.65,13.65,0,0,0,0,6.48l-2.25,1.3,4,6.92,2.25-1.29A14,14,0,0,0,28,45.41V48h8V45.41a14,14,0,0,0,5.61-3.24l2.25,1.29,4-6.92-2.25-1.3A13.65,13.65,0,0,0,45.61,28.76ZM32,43A11,11,0,1,1,43,32,11,11,0,0,1,32,43Z"/></g></svg>