<svg xmlns="http://www.w3.org/2000/svg" viewBox="0 0 64 64"><title>Music</title><g id="Music"><path d="M31.68,38.53a5.78,5.78,0,1,1-6.21-6.21l7.9-7.9c-3.95-2.68-8.34-3.68-11.11-.91-3.59,3.6-2.68,4.51-5.38,7.21s-9,1.75-12.64,5.35S-2,46,8,56s16.34,7.36,19.93,3.76,2.65-9.94,5.35-12.64,3.61-1.79,7.21-5.38c2.77-2.77,1.77-7.16-.91-11.11ZM17.44,53.33l-6.77-6.77a1,1,0,0,1,1.42-1.42l6.77,6.77A1,1,0,0,1,17.44,53.33Z"/><path d="M26.31,34.31c-.19.19-.11.19-.32,0A3.79,3.79,0,1,0,29.7,38c-.2-.2-.2-.12,0-.3A3.78,3.78,0,0,0,26.31,34.31Z"/><path d="M31.33,36.05,51.19,16.19l-3.38-3.38L28,32.67A5.73,5.73,0,0,1,31.33,36.05Z"/><path d="M62.71,11.45,61,9.76c.19-.19.14.37.14-3.53L57.77,2.85H54.38c-.19.19.12.39-1.83-1.56a1,1,0,0,0-1.41,1.42L52.83,4.4l-2,2L49.17,4.68a1,1,0,0,0-1.42,1.41l1.7,1.69c-.19.19-.14-.37-.14,3.53l3.38,3.38c3.88,0,3.33.06,3.53-.14,1.85,1.86,1.86,2,2.4,2a1,1,0,0,0,.7-1.71l-1.69-1.69,2-2c1.85,1.85,1.87,2,2.4,2A1,1,0,0,0,62.71,11.45Z"/><path d="M58,43c-2.48,0-2.73-2-6-2a1,1,0,0,0-1,1V52.18A3,3,0,1,0,53,55V43.11c1.54.38,2.17,1.89,5,1.89A1,1,0,0,0,58,43Z"/><path d="M6,22a3,3,0,0,0,3-3V6.72L19,3.39v8.79A3,3,0,1,0,21,15c0-14,.18-13.38-.42-13.81s0-.44-12.9,3.86A1,1,0,0,0,7,6V16.18A3,3,0,1,0,6,22Z"/></g></svg>