<svg xmlns="http://www.w3.org/2000/svg" viewBox="0 0 64 64"><title>Networking</title><g id="Networking"><path d="M43.4,22a3,3,0,0,1,1.79,2.76c0,.27.18,0,2.84,1.61a17,17,0,0,0-4.6-6.92A24.32,24.32,0,0,1,43.4,22Z"/><path d="M31.29,43a26.21,26.21,0,0,1-8,3.6,17,17,0,0,0,17.43,0A26.36,26.36,0,0,1,34.52,43,3,3,0,0,1,31.29,43Z"/><path d="M48.79,29.32a21.88,21.88,0,0,0-4.33-2.62,2.93,2.93,0,0,1-2,1.05,27,27,0,0,1-6.72,11.6,3,3,0,0,1,0,2,23.78,23.78,0,0,0,6.95,3.84A16.91,16.91,0,0,0,48.79,29.32Z"/><path d="M40.49,27.26a3,3,0,0,1-1.35-2.38,25.22,25.22,0,0,0-10.8,0,3,3,0,0,1-1.61,2.53,25,25,0,0,0,5.09,10.17,3,3,0,0,1,2.6.23A24.89,24.89,0,0,0,40.49,27.26Z"/><path d="M26,21.8A3.05,3.05,0,0,1,27.77,23a27,27,0,0,1,11.94,0,3,3,0,0,1,1.7-1.15,25.36,25.36,0,0,0-.09-4,17,17,0,0,0-14.63-1.93A24.11,24.11,0,0,0,26,21.8Z"/><path d="M22.29,24.74A3,3,0,0,1,24,22a26.29,26.29,0,0,1,.41-5.24,17.07,17.07,0,0,0-9.28,12.89C19.42,25.66,22.29,25.14,22.29,24.74Z"/><path d="M30,41.45a3.07,3.07,0,0,1,.27-2.6,26.75,26.75,0,0,1-5.52-11.13,3.06,3.06,0,0,1-1.74-1,24.75,24.75,0,0,0-8,6,16.9,16.9,0,0,0,6.1,12.38A24.63,24.63,0,0,0,30,41.45Z"/><path d="M32.25,39.6a1,1,0,1,0,1.43,1.45,1,1,0,0,0,0-1.27A1,1,0,0,0,32.25,39.6Z"/><path d="M25.32,23.71a1,1,0,0,0,0,2.06A1,1,0,0,0,25.32,23.71Z"/><path d="M41.2,24.37a1,1,0,1,0,1.07-.65C42.15,23.6,41.43,23.78,41.2,24.37Z"/><circle cx="32" cy="4" r="3"/><circle cx="32" cy="60" r="3"/><circle cx="12.2" cy="51.8" r="3"/><circle cx="12.2" cy="12.2" r="3"/><circle cx="60" cy="32" r="3"/><circle cx="4" cy="32" r="3"/><path d="M7.41,18.57a1,1,0,0,0,1-1.72A1,1,0,0,0,7.41,18.57Z"/><path d="M5.74,22.21a1,1,0,0,0,.77-1.85A1,1,0,0,0,5.74,22.21Z"/><path d="M4.62,26a1,1,0,0,0,1.21-.72A1,1,0,1,0,4.62,26Z"/><path d="M42.33,7.05A1,1,0,0,0,43.1,5.2,1,1,0,0,0,42.33,7.05Z"/><path d="M38.68,5.83a1,1,0,0,0,.49-1.93A1,1,0,1,0,38.68,5.83Z"/><path d="M45.78,8.78a1,1,0,0,0,1-1.72A1,1,0,0,0,45.78,8.78Z"/><path d="M53.92,49.68a3,3,0,1,0,0,4.24A3,3,0,0,0,53.92,49.68Z"/><path d="M59.38,38a1,1,0,1,0-.25,2A1,1,0,0,0,59.38,38Z"/><path d="M58.25,41.79a1,1,0,0,0-1.3.55,1,1,0,0,0,1.84.76C58.91,43.1,59,42.13,58.25,41.79Z"/><path d="M56.59,45.43a1,1,0,1,0-.51,1.86A1,1,0,0,0,56.59,45.43Z"/><path d="M21.66,57a1,1,0,1,0-.38,1.92A1,1,0,0,0,21.66,57Z"/><path d="M18.22,55.22a1,1,0,1,0-.51,1.86A1,1,0,0,0,18.22,55.22Z"/><path d="M25.32,58.17a1,1,0,1,0-.25,2A1,1,0,0,0,25.32,58.17Z"/><path d="M5.86,38.93a1,1,0,1,0-2,.24A1,1,0,0,0,5.86,38.93Z"/><path d="M7.92,45.29a1,1,0,1,0,.51,1.86A1,1,0,0,0,7.92,45.29Z"/><path d="M7.05,42.33a1,1,0,0,0-1.31-.54,1,1,0,1,0,1.31.54Z"/><path d="M42.71,56.87a1,1,0,1,0,.39,1.93A1,1,0,0,0,42.71,56.87Z"/><path d="M46.28,55.08a1,1,0,1,0,.52,1.86A1,1,0,0,0,46.28,55.08Z"/><path d="M38.93,58.14a1,1,0,1,0,.24,2A1,1,0,0,0,38.93,58.14Z"/><path d="M57,21.67a1,1,0,0,0,1.84-.77c.1,0-.31-.62-.92-.62A1,1,0,0,0,57,21.67Z"/><path d="M58.17,25.32a1,1,0,1,0,1-1.25A1,1,0,0,0,58.17,25.32Z"/><path d="M56.08,18.71a1,1,0,0,0,0-2A1,1,0,0,0,56.08,18.71Z"/><path d="M17.71,8.92a1,1,0,0,0,0-2A1,1,0,0,0,17.71,8.92Z"/><path d="M25.32,5.84h0a1,1,0,0,0-.49-1.93A1,1,0,0,0,25.32,5.83Z"/><path d="M21.28,7.13a1,1,0,0,0,0-2,.91.91,0,0,0-.39.08h0A1,1,0,0,0,21.28,7.13Z"/><path d="M31,8.9V13a16.68,16.68,0,0,1,2,0V8.9A5,5,0,0,1,31,8.9Z"/><path d="M33,55.1V51a16.68,16.68,0,0,1-2,0V55.1A5,5,0,0,1,33,55.1Z"/><path d="M51,31a16.68,16.68,0,0,1,0,2H55.1a5,5,0,0,1,0-2Z"/><path d="M13,33a14.41,14.41,0,0,1,0-2H8.9a5,5,0,0,1,0,2Z"/><path d="M46.13,19.28,49,16.37A4.74,4.74,0,0,1,47.63,15l-2.92,2.92A17.07,17.07,0,0,1,46.13,19.28Z"/><path d="M49.68,14.32a3,3,0,1,0,.67-4.74A3,3,0,0,0,49.68,14.32Z"/><path d="M17.88,44.71,15,47.63A4.74,4.74,0,0,1,16.37,49l2.93-2.92A14.54,14.54,0,0,1,17.88,44.71Z"/><path d="M46.12,44.71a15.75,15.75,0,0,1-1.42,1.41L47.63,49A4.74,4.74,0,0,1,49,47.63Z"/><path d="M17.89,19.3a17.17,17.17,0,0,1,1.41-1.42L16.37,15A4.74,4.74,0,0,1,15,16.37Z"/></g></svg>