<svg xmlns="http://www.w3.org/2000/svg" viewBox="0 0 128 128"><defs><style>.cls-1{fill:#a0aec0;}</style></defs><title>No Comment</title><g id="No_Comment" data-name="No Comment"><path class="cls-1" d="M39,54c0-20,22.35-31.73,38.73-20.85l-34.6,34.6A24.68,24.68,0,0,1,39,54Z"/><path class="cls-1" d="M84.85,40.25l-34.6,34.6A24.68,24.68,0,0,0,64,79C84,79,95.73,56.63,84.85,40.25ZM64,21A33,33,0,1,0,97,54,33,33,0,0,0,64,21ZM42.19,69.93C29.33,52.43,41.66,27,64,27a26.72,26.72,0,0,1,15.93,5.21,1,1,0,0,1,.42.74c.05.7,2.29-1.79-36.62,37.12A1,1,0,0,1,42.19,69.93ZM64,81a26.72,26.72,0,0,1-15.93-5.21,1,1,0,0,1-.42-.74c0-.7-2.29,1.79,36.62-37.12a1,1,0,0,1,1.54.12C98.67,55.57,86.34,81,64,81ZM84.85,40.25l-34.6,34.6A24.68,24.68,0,0,0,64,79C84,79,95.73,56.63,84.85,40.25ZM64,21A33,33,0,1,0,97,54,33,33,0,0,0,64,21ZM42.19,69.93C29.33,52.43,41.66,27,64,27a26.72,26.72,0,0,1,15.93,5.21,1,1,0,0,1,.42.74c.05.7,2.29-1.79-36.62,37.12A1,1,0,0,1,42.19,69.93ZM64,81a26.72,26.72,0,0,1-15.93-5.21,1,1,0,0,1-.42-.74c0-.7-2.29,1.79,36.62-37.12a1,1,0,0,1,1.54.12C98.67,55.57,86.34,81,64,81ZM111,3H17A16,16,0,0,0,1,19V90a16,16,0,0,0,16,16H49v18.8L71,106h40a16,16,0,0,0,16-16V19A16,16,0,0,0,111,3ZM64,89A35,35,0,1,1,99,54,35.06,35.06,0,0,1,64,89ZM50.25,74.85C66.62,85.73,89,74,89,54a24.68,24.68,0,0,0-4.13-13.75ZM64,21A33,33,0,1,0,97,54,33,33,0,0,0,64,21ZM42.19,69.93C29.33,52.43,41.66,27,64,27a26.72,26.72,0,0,1,15.93,5.21,1,1,0,0,1,.42.74c.05.7,2.29-1.79-36.62,37.12A1,1,0,0,1,42.19,69.93ZM64,81a26.72,26.72,0,0,1-15.93-5.21,1,1,0,0,1-.42-.74c0-.7-2.29,1.79,36.62-37.12a1,1,0,0,1,1.54.12C98.67,55.57,86.34,81,64,81Z"/></g></svg>