<svg xmlns="http://www.w3.org/2000/svg" viewBox="0 0 128 128"><defs><style>.cls-1{fill:#a0aec0;}</style></defs><title>No Connection</title><g id="No_Connection" data-name="No Connection"><path class="cls-1" d="M69.28,38.28,64,43.56l-5.28-5.28a1,1,0,0,0-1.44,1.44L62.56,45l-5.28,5.28a1,1,0,0,0,1.44,1.44L64,46.44l5.28,5.28a1,1,0,0,0,1.44-1.44L65.44,45l5.28-5.28A1,1,0,0,0,69.28,38.28Z"/><path class="cls-1" d="M49.84,30.84a1,1,0,0,0,1.45,1.45,18,18,0,0,1,25.42,0,1,1,0,0,0,1.45-1.45A20,20,0,0,0,49.84,30.84Z"/><path class="cls-1" d="M95.13,13.87a44,44,0,0,0-62.26,0,1,1,0,0,0,1.45,1.45,41.94,41.94,0,0,1,59.36,0A1,1,0,0,0,95.13,13.87Z"/><path class="cls-1" d="M41.36,22.36A1,1,0,0,0,42.8,23.8a30,30,0,0,1,42.4,0,1,1,0,0,0,1.44-1.44A32,32,0,0,0,41.36,22.36Z"/><path class="cls-1" d="M1,124H14V106H1Zm5-14h4a1,1,0,0,1,0,2H6A1,1,0,0,1,6,110Zm0,8h4a1,1,0,0,1,0,2H6A1,1,0,0,1,6,118Z"/><path class="cls-1" d="M31,104H18a1,1,0,0,0-2,0v22a1,1,0,0,0,2,0H31l5-4h3V108H36Z"/><polygon class="cls-1" points="41 120 47 119 47 111 41 110 41 120"/><path class="cls-1" d="M49,112v6a39.56,39.56,0,0,0,12.28-1.93,41.79,41.79,0,0,1-7.37-4.41A36,36,0,0,1,49,112Z"/><path class="cls-1" d="M89,78V55H83V78a34,34,0,0,1-16.79,29.33,31.72,31.72,0,0,0,7.37,2.21A39.9,39.9,0,0,0,89,78Z"/><path class="cls-1" d="M114,106v18h13V106Zm8,14h-4a1,1,0,0,1,0-2h4A1,1,0,0,1,122,120Zm0-8h-4a1,1,0,0,1,0-2h4A1,1,0,0,1,122,112Z"/><path class="cls-1" d="M110,104H97l-5,4H89v14h3l5,4h13a1,1,0,0,0,2,0V104A1,1,0,0,0,110,104Z"/><polygon class="cls-1" points="81 119 87 120 87 110 81 111 81 119"/><path class="cls-1" d="M45,78V55H39V78a40,40,0,0,0,40,40v-6A34,34,0,0,1,45,78Z"/><path class="cls-1" d="M42.15,43.43l-2,3c-.35.56-.18.7.83,3.74V53h2c0-4,.23-2.48-.89-5.85l1.72-2.58A1,1,0,0,0,42.15,43.43Z"/><path class="cls-1" d="M85,53h2c0-3.4-.25-2.09,1-5.68.21-.64,0-.78-2.12-3.89a1,1,0,0,0-1.7,1.14l1.72,2.58C84.75,50.53,85,49,85,53Z"/></g></svg>