<svg xmlns="http://www.w3.org/2000/svg" viewBox="0 0 128 128"><defs><style>.cls-1{fill:#a0aec0;}</style></defs><title>No Messages</title><g id="No_Messages" data-name="No Messages"><path class="cls-1" d="M24,28A23,23,0,1,0,47,51,23,23,0,0,0,24,28ZM34.72,60.28A1,1,0,0,1,34,62c-.6,0,.06.48-10-9.58C14,62.49,14.6,62,14,62a1,1,0,0,1-.72-1.74L22.56,51l-9.28-9.28a1,1,0,0,1,1.44-1.44L24,49.56l9.28-9.28a1,1,0,0,1,1.44,1.44L25.44,51Z"/><path class="cls-1" d="M61,41V82H21V75.81a25,25,0,0,0,6.5-49.56C40.23,14.6,61,23.59,61,41Z"/><path class="cls-1" d="M11.75,108.2A14.31,14.31,0,0,0,25.45,127a28.26,28.26,0,0,0,26.84-19.15l8-23.85h-40Z"/><path class="cls-1" d="M77,53a3,3,0,1,0,3-3A3,3,0,0,0,77,53Z"/><path class="cls-1" d="M107,21H83V13H97V1H81c0,28,0,35.94,0,47.08a5,5,0,1,1-2,0V21H50.18A22,22,0,0,1,63,41V82h64V41A20,20,0,0,0,107,21Z"/><rect class="cls-1" x="76" y="84" width="14" height="43"/></g></svg>