<svg xmlns="http://www.w3.org/2000/svg" viewBox="0 0 128 128"><defs><style>.cls-1{fill:#a0aec0;}</style></defs><title>No Results</title><g id="No_Results" data-name="No Results"><path class="cls-1" d="M55.49,96.51c-20-20-2.19-54,25.51-49.07V11A12,12,0,0,1,86.38,1H12A11,11,0,0,0,1,12V127l6.67-4,6.68,4L21,123l6.66,4,6.67-4L41,127l6.67-4,6.66,4L61,123l6.67,4,6.67-4L81,127V104.56A28.88,28.88,0,0,1,55.49,96.51ZM40,61a2,2,0,1,1,2-2A2,2,0,0,1,40,61Zm1-12.66V52a1,1,0,0,1-2,0V48.36a9,9,0,0,1,5.14-8.27A10,10,0,0,0,49.53,34c1.35-4.32-.6-9.45-3.52-11.2-7.84-4.67-16,.69-16,8.22a1,1,0,0,1-2,0c0-9,9.78-15.52,19.08-10C53.69,25,54.3,37.7,45,42A7,7,0,0,0,41,48.36Z"/><path class="cls-1" d="M76,56c-17.71,0-26.71,21.52-14.13,34.1a20,20,0,0,0,28.26,0C102.7,77.56,93.72,56,76,56ZM67,73.18v-2a1,1,0,0,1,2,0v2A1,1,0,0,1,67,73.18ZM81.64,85.54a8,8,0,0,0-11.28,0,1,1,0,0,1-1.45-1.44,10,10,0,0,1,14.18,0A1,1,0,0,1,81.64,85.54ZM85,73.18a1,1,0,0,1-2,0v-2a1,1,0,0,1,2,0Z"/><path class="cls-1" d="M56.91,56.91a27,27,0,1,0,38.18,0A27,27,0,0,0,56.91,56.91ZM91.57,91.57a22,22,0,1,1,0-31.14A22,22,0,0,1,91.57,91.57Z"/><path class="cls-1" d="M126.29,118.29C104.27,96.27,105.43,97,104,97a2.47,2.47,0,0,0-1.88.88l-3.6-3.6a27.78,27.78,0,0,1-4.25,4.23l3.61,3.61A2.4,2.4,0,0,0,97,104c0,1.45-1,0,21.29,22.29a2.41,2.41,0,0,0,3.42,0c4.77-4.77,5.29-5,5.29-6.29A2.41,2.41,0,0,0,126.29,118.29Z"/><path class="cls-1" d="M83,11V21h20V11a10,10,0,0,0-20,0Z"/></g></svg>