<svg xmlns="http://www.w3.org/2000/svg" viewBox="0 0 64 64"><title>Notebook</title><g id="Notebook"><rect x="16" y="9" width="28" height="16"/><path d="M3,3V6H5A1,1,0,0,1,5,8H2a1,1,0,0,0,0,2H3v2H5a1,1,0,0,1,0,2H2a1,1,0,0,0,0,2H3v2H5a1,1,0,0,1,0,2H2a1,1,0,0,0,0,2H3v2H5a1,1,0,0,1,0,2H2a1,1,0,0,0,0,2H3v2H5a1,1,0,0,1,0,2H2a1,1,0,0,0,0,2H3v2H5a1,1,0,0,1,0,2H2a1,1,0,0,0,0,2H3v2H5a1,1,0,0,1,0,2H2a1,1,0,0,0,0,2H3v2H5a1,1,0,0,1,0,2H2a1,1,0,0,0,0,2H3v2H5a1,1,0,0,1,0,2H2a1,1,0,0,0,0,2H3v3a2,2,0,0,0,2,2H8V1H5A2,2,0,0,0,3,3Z"/><path d="M49,1H10V63H49a2,2,0,0,0,2-2V3A2,2,0,0,0,49,1ZM42,45H18a1,1,0,0,1,0-2H42A1,1,0,0,1,42,45Zm0-6H18a1,1,0,0,1,0-2H42A1,1,0,0,1,42,39Zm4-13a1,1,0,0,1-1,1H15a1,1,0,0,1-1-1V8a1,1,0,0,1,1-1H45a1,1,0,0,1,1,1Z"/><path d="M61,3H59a2,2,0,0,0-2,2V9h6V5A2,2,0,0,0,61,3Z"/><rect x="57" y="11" width="6" height="2"/><path d="M59,59.08,60,61l1-1.92A6.18,6.18,0,0,0,59,59.08Z"/><path d="M57.43,55.58c-.16.08-.25-.23.69,1.67a7.43,7.43,0,0,1,3.5-.09c.37.08.09.44,1.07-1.54A6.14,6.14,0,0,0,57.43,55.58Z"/><path d="M57,53.59a7.89,7.89,0,0,1,6,0V15H57Z"/></g></svg>