<svg xmlns="http://www.w3.org/2000/svg" viewBox="0 0 64 64">
  <defs>
    <style>
      .cls-1 {
        fill: #a0aec0;
      }
    </style>
  </defs>
  <g id="Notes">
    <path class="cls-1" d="M61,59.08,60,61l-1-1.92A6.18,6.18,0,0,1,61,59.08Z" />
    <path class="cls-1"
      d="M62.69,55.63c-1,2-.71,1.61-1.07,1.53a7.27,7.27,0,0,0-3.49.09c-1-1.89-.87-1.58-.69-1.67A6.08,6.08,0,0,1,62.69,55.63Z" />
    <path class="cls-1" d="M63,5V9H57V5a2,2,0,0,1,2-2h2A2,2,0,0,1,63,5Z" />
    <rect class="cls-1" x="57" y="11" width="6" height="2" />
    <path class="cls-1" d="M57,15h6V53.59a7.89,7.89,0,0,0-6,0Z" />
    <path class="cls-1"
      d="M5,15V63H46V15Zm6,19H31a1,1,0,0,1,0,2H11A1,1,0,0,1,11,34Zm0-6h9a1,1,0,0,1,0,2H11A1,1,0,0,1,11,28Zm0,12h5a1,1,0,0,1,0,2H11A1,1,0,0,1,11,40Zm0,6H36a1,1,0,0,1,0,2H11A1,1,0,0,1,11,46Zm13,8H11a1,1,0,0,1,0-2H24A1,1,0,0,1,24,54Zm17,0H28a1,1,0,0,1,0-2H41A1,1,0,0,1,41,54Zm0-6H40a1,1,0,0,1,0-2h1A1,1,0,0,1,41,48Zm0-6H20a1,1,0,0,1,0-2H41A1,1,0,0,1,41,42Zm0-6H35a1,1,0,0,1,0-2h6A1,1,0,0,1,41,36Zm0-6H24a1,1,0,0,1,0-2H41A1,1,0,0,1,41,30Zm0-6H11a1,1,0,0,1,0-2H41A1,1,0,0,1,41,24Z" />
    <path class="cls-1" d="M43.06,8H46v4.8C44.48,12.22,43.32,10.34,43.06,8Z" />
    <path class="cls-1" d="M51,7V51H48V7a1,1,0,0,0-1-1H43.06c.31-2.84,2-5,3.94-5C49.21,1,51,3.69,51,7Z" />
    <path class="cls-1" d="M43,13H5c-2.21,0-4-2.69-4-6S2.79,1,5,1H43A10,10,0,0,0,43,13Z" />
  </g>
</svg>