<svg xmlns="http://www.w3.org/2000/svg" viewBox="0 0 128 128"><defs><style>.cls-1{fill:#a0aec0;}</style></defs><title>Notification</title><g id="Notification"><path class="cls-1" d="M105,64a22,22,0,1,0,22,22A22,22,0,0,0,105,64Zm12.72,14.72C100.2,96.24,101.6,95,101,95s-.08.34-8.72-8.3a1,1,0,0,1,1.44-1.44L101,92.56l15.28-15.28A1,1,0,0,1,117.72,78.72Z"/><path class="cls-1" d="M64.52,87.3a17,17,0,0,1-18.63.27c-.56-.32-.32-.27-.42-.27C43.12,89.5,50.12,83,3,127h104.1C64.06,86.87,64.62,87.3,64.52,87.3Z"/><path class="cls-1" d="M1,46.39V126L43.84,86C43.71,85.94,45.56,87.66,1,46.39Z"/><path class="cls-1" d="M81,86a24,24,0,0,1,28-23.66v-16C84.19,69.37,66.37,85.87,66.16,86L109,126V109.66A24,24,0,0,1,81,86Z"/><path class="cls-1" d="M15,31.88,1.75,44.3c1.11,1-.89-.82,13.25,12.27Z"/><path class="cls-1" d="M95,31.88v24.7L108.25,44.3Z"/><path class="cls-1" d="M74,54H36a2,2,0,0,0,0,4H74a2,2,0,1,0,0-4Zm0,0H36a2,2,0,0,0,0,4H74a2,2,0,1,0,0-4ZM58.85,60h-7.7a4,4,0,1,0,7.7,0Zm0,0h-7.7a4,4,0,1,0,7.7,0ZM74,54H36a2,2,0,0,0,0,4H74a2,2,0,1,0,0-4Zm0,0H36a2,2,0,0,0,0,4H74a2,2,0,1,0,0-4ZM70,35.45A15.18,15.18,0,0,0,55.73,20,15,15,0,0,0,40,35c0,7.11.47,11.4-2.3,17H72.28C69.52,46.42,70,42.35,70,35.45ZM58.85,60h-7.7a4,4,0,1,0,7.7,0Zm0,0h-7.7a4,4,0,1,0,7.7,0ZM70,35.45A15.18,15.18,0,0,0,55.73,20,15,15,0,0,0,40,35c0,7.11.47,11.4-2.3,17H72.28C69.52,46.42,70,42.35,70,35.45ZM74,54H36a2,2,0,0,0,0,4H74a2,2,0,1,0,0-4Zm0,0H36a2,2,0,0,0,0,4H74a2,2,0,1,0,0-4ZM70,35.45A15.18,15.18,0,0,0,55.73,20,15,15,0,0,0,40,35c0,7.11.47,11.4-2.3,17H72.28C69.52,46.42,70,42.35,70,35.45ZM51.15,60a4,4,0,1,0,7.7,0Zm6-41.9a3,3,0,1,0-4.2,0A16.87,16.87,0,0,1,57.1,18.12ZM17,1V58.42l.69.65c29.75,27.53,28,26.22,30.74,27.59a14.94,14.94,0,0,0,11.63.63c4.19-1.57,2.3-.44,32.94-28.86V1ZM74,60H60.94a6,6,0,1,1-11.88,0H36a4,4,0,0,1-.62-8c3.14-5.56,2.6-9.92,2.6-17A17,17,0,0,1,50.67,18.54a5,5,0,1,1,8.65,0A17.34,17.34,0,0,1,72,35.45c0,6.92-.5,11.08,2.6,16.58A4,4,0,0,1,74,60Zm0-6H36a2,2,0,0,0,0,4H74a2,2,0,1,0,0-4ZM70,35.45A15.18,15.18,0,0,0,55.73,20,15,15,0,0,0,40,35c0,7.11.47,11.4-2.3,17H72.28C69.52,46.42,70,42.35,70,35.45ZM51.15,60a4,4,0,1,0,7.7,0Zm6-41.9a3,3,0,1,0-4.2,0A16.87,16.87,0,0,1,57.1,18.12ZM55,13a3,3,0,0,0-2.1,5.09,16.87,16.87,0,0,1,4.2,0A3,3,0,0,0,55,13Zm3.85,47h-7.7a4,4,0,1,0,7.7,0ZM70,35.45A15.18,15.18,0,0,0,55.73,20,15,15,0,0,0,40,35c0,7.11.47,11.4-2.3,17H72.28C69.52,46.42,70,42.35,70,35.45ZM74,54H36a2,2,0,0,0,0,4H74a2,2,0,1,0,0-4Zm0,0H36a2,2,0,0,0,0,4H74a2,2,0,1,0,0-4ZM58.85,60h-7.7a4,4,0,1,0,7.7,0Zm0,0h-7.7a4,4,0,1,0,7.7,0ZM74,54H36a2,2,0,0,0,0,4H74a2,2,0,1,0,0-4ZM58.85,60h-7.7a4,4,0,1,0,7.7,0Zm0,0h-7.7a4,4,0,1,0,7.7,0ZM74,54H36a2,2,0,0,0,0,4H74a2,2,0,1,0,0-4Zm0,0H36a2,2,0,0,0,0,4H74a2,2,0,1,0,0-4Z"/></g></svg>