<svg xmlns="http://www.w3.org/2000/svg" viewBox="0 0 64 64"><title>Numeracy</title><g id="Numeracy"><rect x="1" y="42" width="62" height="5"/><path d="M51,37v3H41V37a1,1,0,0,1,1-1h8A1,1,0,0,1,51,37Z"/><path d="M8,6V40H39V37a3,3,0,0,1,3-3h8a3,3,0,0,1,3,3v3h3V6Zm9,19a1,1,0,0,1-2,0V18a1,1,0,0,1,0-2h1a1,1,0,0,1,1,1Zm7-3H23v1a1,1,0,0,1-2,0V22H20a1,1,0,0,1,0-2h1V19a1,1,0,0,1,2,0v1h1A1,1,0,0,1,24,22Zm8,2a1,1,0,0,1,0,2c-3.88,0-4.52.22-4.9-.57s-.09-.79,3.49-5.27C31.33,19.25,31,18,30,18a1,1,0,0,0-1,1,1,1,0,0,1-1,1c-1.9,0-1-4,2-4,2.64,0,4,3.11,2.16,5.41L30.08,24Zm8,0H36a1,1,0,0,1,0-2h4A1,1,0,0,1,40,24Zm0-3H36a1,1,0,0,1,0-2h4A1,1,0,0,1,40,21Zm9,1.88a3.13,3.13,0,0,1-5.33,2.21l-.38-.38a1,1,0,0,1,1.42-1.42l.38.38A1.12,1.12,0,0,0,47,22.88a2.14,2.14,0,0,0-1.45-2,1,1,0,0,1-.38-1.44l1-1.45H44a1,1,0,0,1,0-2c4,0,4.51-.19,4.88.53s0,.86-1.46,3.14A4,4,0,0,1,49,22.88Z"/><path d="M61,1V40H58V5a1,1,0,0,0-1-1H7A1,1,0,0,0,6,5V40H3V1Z"/><polygon points="59 63 54 63 47.88 49 52.88 49 59 63"/><polygon points="16.13 49 10 63 5 63 11.13 49 16.13 49"/><polygon points="48.76 56 15.25 56 17 52 47.01 52 48.76 56"/></g></svg>