<svg xmlns="http://www.w3.org/2000/svg" viewBox="0 0 64 64"><title>Online Shoping</title><g id="Online_Shoping" data-name="Online Shoping"><polygon points="39.46 45 40.8 43 23.2 43 24.54 45 39.46 45"/><path d="M40,47c-17.25,0-16.42.19-16.83-.45C21.05,43.37,21,43.4,21,43H3a2,2,0,0,0-2,2v2a4,4,0,0,0,4,4H41V46.3C40.79,46.61,40.57,47,40,47Z"/><path d="M54,27V6H10V36H41V31a4,4,0,0,1,4-4ZM37,8H49a1,1,0,0,1,0,2H37A1,1,0,0,1,37,8Zm0,5H49a1,1,0,0,1,0,2H37A1,1,0,0,1,37,13Zm0,5H49a1,1,0,0,1,0,2H37A1,1,0,0,1,37,18Zm-7,5.27A1,1,0,0,1,29,24H20.48l-1.36,1.31a.41.41,0,0,0,.28.69H28a2,2,0,1,1-2,2H22a2,2,0,1,1-3.95-.42,2.4,2.4,0,0,1-.31-3.71L19,22.66,17.19,14H15a1,1,0,0,1,0-2h3a1,1,0,0,1,1,.8l.46,2.2c12.46,0,11.93-.16,12.36.4S32.09,15.83,30,23.27ZM37,25a1,1,0,0,1,0-2H49a1,1,0,0,1,0,2Z"/><polygon points="20.89 22 28.25 22 29.67 17 19.85 17 20.89 22"/><path d="M8,37V5A1,1,0,0,1,9,4H55a1,1,0,0,1,1,1V27h3V4a3,3,0,0,0-3-3H8A3,3,0,0,0,5,4V41H41V38H9A1,1,0,0,1,8,37Z"/><path d="M61,29c-2.77,0-2.38-.08-2.42.2l-.28,1.39A3,3,0,0,1,55.36,33H50.64a3,3,0,0,1-2.94-2.41A12,12,0,0,1,47.4,29H45a2,2,0,0,0-2,2V61a2,2,0,0,0,2,2H61a2,2,0,0,0,2-2V31A2,2,0,0,0,61,29ZM56,44H51.64a1,1,0,0,0,0,2h2A3,3,0,0,1,54,52v1a1,1,0,0,1-2,0V52H50a1,1,0,0,1,0-2h3.64a1,1,0,0,0,0-2h-2c-3.87,0-4.24-6,.36-6V41a1,1,0,0,1,2,0v1h2A1,1,0,0,1,56,44Z"/><path d="M49.42,29c.21,1,.23,2,1.22,2,5.93,0,5.43.52,5.94-2Z"/></g></svg>