<svg xmlns="http://www.w3.org/2000/svg" viewBox="0 0 64 64"><title>Open Book</title><g id="Open_Book" data-name="Open Book"><path d="M5,52a1,1,0,0,1-1-1V13H1V55H30.51a12.55,12.55,0,0,0-8.17-3Z"/><path d="M60,13V51a1,1,0,0,1-1,1H41.66a12.55,12.55,0,0,0-8.17,3H63V13Z"/><path d="M6,9V50H22.34A14.5,14.5,0,0,1,31,52.83V12.09A13.65,13.65,0,0,0,22.34,9ZM9,19H19a1,1,0,0,1,0,2H9A1,1,0,0,1,9,19ZM22.34,46H9a1,1,0,0,1,0-2H22.34A1,1,0,0,1,22.34,46ZM9,39h2a1,1,0,0,1,0,2H9A1,1,0,0,1,9,39Zm18.59,3.14C24.26,40.63,21.86,41,15,41a1,1,0,0,1,0-2c6.78,0,9.67-.37,13.41,1.32A1,1,0,0,1,27.59,42.14Zm0-5C24.25,35.62,22.83,36,9,36a1,1,0,0,1,0-2c13.69,0,15.56-.42,19.41,1.32A1,1,0,0,1,27.59,37.14ZM9,29h6a1,1,0,0,1,0,2H9A1,1,0,0,1,9,29Zm18.59,3.14C24.6,30.78,22.46,31,19,31a1,1,0,0,1,0-2c3.68,0,6-.21,9.41,1.32A1,1,0,0,1,27.59,32.14Zm0-5C24.25,25.62,22.83,26,9,26a1,1,0,0,1,0-2c13.69,0,15.56-.42,19.41,1.32A1,1,0,0,1,27.59,27.14Zm0-5A12.54,12.54,0,0,0,23,21a1,1,0,0,1,.1-2,14.5,14.5,0,0,1,5.36,1.3A1,1,0,0,1,27.59,22.14Zm0-5C24.33,15.66,22.69,16,12,16a1,1,0,0,1,0-2c11.13,0,12.74-.34,16.41,1.32A1,1,0,0,1,27.59,17.14Z"/><path d="M58,50V9H41.66A13.65,13.65,0,0,0,33,12.09V52.83A14.5,14.5,0,0,1,41.66,50Zm-3-9H47a1,1,0,0,1,0-2h8A1,1,0,0,1,55,41ZM41.66,36A16.66,16.66,0,0,0,36,37.23a1,1,0,0,1-.41-1.91C39.39,33.6,41.91,34,50,34a1,1,0,0,1,0,2ZM43,41H41.66A16.66,16.66,0,0,0,36,42.23a1,1,0,0,1-.41-1.91A16,16,0,0,1,43,39,1,1,0,0,1,43,41Zm12-5H54a1,1,0,0,1,0-2h1A1,1,0,0,1,55,36Zm0-5c-13.91,0-15.27-.37-18.59,1.14a1,1,0,0,1-.82-1.82C39.51,28.55,41.66,29,55,29A1,1,0,0,1,55,31ZM35.59,25.32C39,23.79,41.33,24,45,24a1,1,0,0,1,0,2c-3.45,0-5.61-.22-8.59,1.14A1,1,0,0,1,35.59,25.32ZM55,26H49a1,1,0,0,1,0-2h6A1,1,0,0,1,55,26Zm0-5c-13.91,0-15.27-.37-18.59,1.14a1,1,0,0,1-.82-1.82C39.51,18.55,41.66,19,55,19A1,1,0,0,1,55,21Zm0-5H41.66a1,1,0,0,1,0-2H55A1,1,0,0,1,55,16ZM35.59,45.32C39.46,43.57,41.86,44,52,44a1,1,0,0,1,0,2c-10.75,0-12.36-.33-15.59,1.14A1,1,0,0,1,35.59,45.32Z"/></g></svg>