<svg xmlns="http://www.w3.org/2000/svg" viewBox="0 0 128 128"><defs><style>.cls-1{fill:#a0aec0;}</style></defs><title>Order Completed</title><g id="Order_Completed" data-name="Order Completed"><path class="cls-1" d="M43.91,50.07,41,51.41V31H65V51.4c-3.06-1.41-3.16-1.59-3.74-1.33l-3.9,1.81-3.9-1.81c-.6-.26-.57-.13-4.77,1.81C44.46,49.93,44.49,49.81,43.91,50.07Z"/><rect class="cls-1" x="11.02" y="111.02" width="17.96" height="5.96"/><path class="cls-1" d="M80,31H67V53a1,1,0,0,1-1,1c-.33,0-.16,0-4.33-1.9-4.21,2-4.18,2.07-4.76,1.81L53,52.12,49.1,53.93c-.6.26-.56.14-4.76-1.81-4.11,1.9-4.27,2.15-4.89,1.74S39,54.9,39,31H1v96H103V49A25,25,0,0,1,80,31ZM31,118a1,1,0,0,1-1,1H10a1,1,0,0,1-1-1v-8a1,1,0,0,1,1-1H30a1,1,0,0,1,1,1Z"/><path class="cls-1" d="M104,1a23,23,0,1,0,23,23A23,23,0,0,0,104,1Zm12.72,15.72C99.2,34.24,100.6,33,100,33s-.08.34-8.72-8.3a1,1,0,0,1,1.44-1.44L100,30.56l15.28-15.28A1,1,0,0,1,116.72,16.72Z"/></g></svg>