<svg xmlns="http://www.w3.org/2000/svg" viewBox="0 0 128 128">
  <defs>
    <style>
      .cls-1 {
        fill: #a0aec0;
      }
    </style>
  </defs>
  <g id="Page_Under_Construction" data-name="Page Under Construction">
    <path class="cls-1"
      d="M46.9,64.45,42.4,69c0,5.33-5.16,10.13-10.8,9L2.27,107.27a4.36,4.36,0,0,0,0,6.15l10.06,10a4.33,4.33,0,0,0,6.14,0c29.4-29.4,29.31-29.42,29.33-29.32-1.14-5.69,3.75-10.8,9-10.8l4.5-4.5Z" />
    <path class="cls-1"
      d="M122.5,12.25c-8.19,8.18-10,11-15.75,11.84L58.06,72.78,53,67.69,101.66,19c.86-5.84,3.88-7.8,11.84-15.75Z" />
    <path class="cls-1"
      d="M126.8,107.92A14.42,14.42,0,0,0,112,96a10.75,10.75,0,0,1-8-3.15L72.46,61.21l-9,9,31.61,31.61a10.75,10.75,0,0,1,3.15,8,14.4,14.4,0,1,0,28.58-1.85Zm-10,9.63h-8.31l-4.16-7.2,4.16-7.2h8.31l4.16,7.2Z" />
    <path class="cls-1"
      d="M64.54,53.29l-9,9L32.39,39.14c-2.59-2.59-17,1-22.39-2.59s-9-9-9-18l12.6,7.2,5.4-3.6V15L6.4,7.75s5.4-3.6,10.8-3.6,12.6,0,18,9c2.93,4.88,0,10.8,7.2,18Z" />
  </g>
</svg>