<svg id="Passive_Income" data-name="Passive Income" xmlns="http://www.w3.org/2000/svg" viewBox="0 0 64 64"><title>Passive Income</title><path d="M32,23a9,9,0,1,0,9,9A9,9,0,0,0,32,23Zm-1,8h2a3,3,0,0,1,0,6v1a1,1,0,0,1-2,0V37H29a1,1,0,0,1,0-2h4a1,1,0,0,0,0-2H31a3,3,0,0,1,0-6V26a1,1,0,0,1,2,0v1h2a1,1,0,0,1,0,2H31A1,1,0,0,0,31,31Z"/><path d="M45.61,35.24a13.65,13.65,0,0,0,0-6.48l2.25-1.3c-4-7-3.49-6-4-6.92l-2.25,1.29A14,14,0,0,0,36,18.59V16H28v2.59a14,14,0,0,0-5.61,3.24l-2.25-1.29-4,6.92,2.25,1.3a13.65,13.65,0,0,0,0,6.48l-2.25,1.3c4,7,3.49,6,4,6.92l2.25-1.29A14,14,0,0,0,28,45.41V48h8V45.41a14,14,0,0,0,5.61-3.24l2.25,1.29,4-6.92ZM32,43A11,11,0,1,1,43,32,11,11,0,0,1,32,43Z"/><path d="M31,6.83A3,3,0,1,0,32,1,3,3,0,0,0,31,6.83Z"/><path d="M33,57.17A3,3,0,1,0,32,63,3,3,0,0,0,33,57.17Z"/><path d="M60.83,29.12a3,3,0,1,0,0,5.76A3,3,0,0,0,60.83,29.12Z"/><path d="M4.62,26.05a1,1,0,0,0,.49-1.94A1,1,0,0,0,4.62,26.05Z"/><path d="M5.74,22.21a1,1,0,0,0,.77-1.85A1,1,0,0,0,5.74,22.21Z"/><path d="M7.41,18.57a1,1,0,0,0,1-1.72A1,1,0,0,0,7.41,18.57Z"/><path d="M10.08,14.32a3,3,0,1,0,0-4.24A3,3,0,0,0,10.08,14.32Z"/><path d="M38.68,5.83a1,1,0,0,0,1.21-.72,1,1,0,1,0-1.21.72Z"/><path d="M42.33,7.05A1,1,0,0,0,43.1,5.2,1,1,0,0,0,42.33,7.05Z"/><path d="M45.78,8.78a1,1,0,0,0,1-1.72A1,1,0,0,0,45.78,8.78Z"/><path d="M53.92,49.68a3,3,0,1,0,0,4.24A3,3,0,0,0,53.92,49.68Z"/><path d="M59.38,38a1,1,0,1,0-.25,2A1,1,0,0,0,59.38,38Z"/><path d="M56.59,45.43a1,1,0,1,0-.51,1.86A1,1,0,0,0,56.59,45.43Z"/><path d="M58.25,41.79a1,1,0,0,0-1.3.54,1,1,0,1,0,1.3-.54Z"/><path d="M18.22,55.22a1,1,0,1,0-.51,1.86A1,1,0,0,0,18.22,55.22Z"/><path d="M25.32,58.16a1,1,0,1,0-.25,2A1,1,0,0,0,25.32,58.16Z"/><path d="M21.66,57a1,1,0,1,0,.55,1.3A1,1,0,0,0,21.66,57Z"/><path d="M5.13,34.77a3,3,0,0,0,0-5.54,2.9,2.9,0,0,0-2-.11,3,3,0,0,0,0,5.76A2.9,2.9,0,0,0,5.13,34.77Z"/><path d="M7.92,45.29a1,1,0,1,0,.51,1.86A1,1,0,0,0,7.92,45.29Z"/><path d="M5.84,38.68h0a1,1,0,1,0-1,1.25A1,1,0,0,0,5.84,38.68Z"/><path d="M7.05,42.33a1,1,0,0,0-1.31-.54,1,1,0,1,0,1.31.54Z"/><path d="M46.28,55.08a1,1,0,1,0,.52,1.86A1,1,0,0,0,46.28,55.08Z"/><path d="M38.93,58.14a1,1,0,1,0,.24,2A1,1,0,0,0,38.93,58.14Z"/><path d="M42.71,56.87a1,1,0,1,0,.39,1.93A1,1,0,0,0,42.71,56.87Z"/><path d="M58.17,25.32a1,1,0,0,0,1.93-.49A1,1,0,0,0,58.17,25.32Z"/><path d="M56.08,18.71a1,1,0,0,0,0-2A1,1,0,0,0,56.08,18.71Z"/><path d="M57.87,22.28a1,1,0,0,0,0-2A1,1,0,0,0,57.87,22.28Z"/><path d="M25.07,5.86a1,1,0,0,0,0-2A1,1,0,0,0,25.07,5.86Z"/><path d="M17.71,8.92a1,1,0,0,0,0-2A1,1,0,0,0,17.71,8.92Z"/><path d="M21.28,7.13a1,1,0,0,0,0-2,.91.91,0,0,0-.39.08h0A1,1,0,0,0,21.28,7.13Z"/><path d="M31,8.9V14h2V8.9A5,5,0,0,1,31,8.9Z"/><path d="M33,55.1V50H31v5.1A5.18,5.18,0,0,1,33,55.1Z"/><path d="M48,31a16.68,16.68,0,0,1,0,2H55.1a5,5,0,0,1,0-2Z"/><path d="M8.9,31a5,5,0,0,1,0,2H16a16.68,16.68,0,0,1,0-2Z"/><path d="M49.05,16.37A4.58,4.58,0,0,1,47.63,15l-3,3,1,1.8Z"/><path d="M49.68,14.32a3,3,0,1,0,.67-4.74A3,3,0,0,0,49.68,14.32Z"/><path d="M14.32,49.68a3,3,0,1,0-.67,4.74A3,3,0,0,0,14.32,49.68Z"/><path d="M15,47.63a4.58,4.58,0,0,1,1.42,1.42l3-3-1-1.8Z"/><path d="M45.7,44.28l-1,1.8,3,3a4.58,4.58,0,0,1,1.42-1.42Z"/><path d="M18.3,19.72l1-1.8-3-3A4.58,4.58,0,0,1,15,16.37Z"/></svg>