<svg xmlns="http://www.w3.org/2000/svg" viewBox="0 0 128 128"><defs><style>.cls-1{fill:#a0aec0;}</style></defs><title>Payment Processed</title><g id="Payment_Processed" data-name="Payment Processed"><path class="cls-1" d="M89,48.13c0,51.51.32,48.89-.59,49.55,0,0-.36.29-.63.29A1.49,1.49,0,0,1,86,96.5c0-.09,0-.1,0-.19-5.3-30.1-4.84-28.66-5.84-30.1A5.74,5.74,0,0,0,69.8,70.48c2.88,16.33,4.53,20.87,1.77,28.72a38.34,38.34,0,0,1-2.36,5.16C66.72,109.71,67,113.7,67,118a1,1,0,0,1-2,0c0-4.16-.17-6.85,1-11H47v2.39a25.58,25.58,0,0,0,7.5,18.11L101,127V79.79A47.73,47.73,0,0,0,89,48.13Z"/><path class="cls-1" d="M69.08,100H41a1,1,0,0,1-1-1,7,7,0,0,0-7-7,1,1,0,0,1-1-1V15a1,1,0,0,1,1-1,7,7,0,0,0,7-7,1,1,0,0,1,1-1H73a1,1,0,0,1,1,1,7,7,0,0,0,7,7,1,1,0,0,1,1,1V65.36c1.11,1.71.73.78,5,24.91V1H27V105H66.71C67.67,102.54,68.18,102.08,69.08,100Z"/><ellipse class="cls-1" cx="57" cy="53" rx="15.98" ry="11.98"/><path class="cls-1" d="M80,63.18V16A9,9,0,0,1,72,8H42A9,9,0,0,1,34,16V90A9,9,0,0,1,42,98H69.84c2.14-6.71,1.06-9.52-2-27.15A7.77,7.77,0,0,1,80,63.18ZM56,17a1,1,0,0,1,2,0v6a1,1,0,0,1-2,0Zm2,72a1,1,0,0,1-2,0V83a1,1,0,0,1,2,0ZM57,67c-9.94,0-18-6.29-18-14s8.08-14,18-14,18,6.29,18,14S66.93,67,57,67Z"/></g></svg>