<svg xmlns="http://www.w3.org/2000/svg" viewBox="0 0 64 64"><title>PDF</title><g id="PDF"><path d="M49,6c0,47.24.31,44.55-.62,44.92-.7.35-1.1-.22-2.38-1.51l-1.29,1.3A1,1,0,0,1,43,50V6H13V54H51V6ZM18,16H34a1,1,0,0,1,0,2H18A1,1,0,0,1,18,16Zm0,6h3a1,1,0,0,1,0,2H18A1,1,0,0,1,18,22Zm0,6H30a1,1,0,0,1,0,2H18A1,1,0,0,1,18,28ZM36,48H18a1,1,0,0,1,0-2H36A1,1,0,0,1,36,48ZM18,40h6a1,1,0,0,1,0,2H18A1,1,0,0,1,18,40Zm22,2H28a1,1,0,0,1,0-2H40A1,1,0,0,1,40,42Zm0-6H18a1,1,0,0,1,0-2H40A1,1,0,0,1,40,36Zm0-6H34a1,1,0,0,1,0-2h6A1,1,0,0,1,40,30Zm0-6H25a1,1,0,0,1,0-2H40A1,1,0,0,1,40,24Zm0-6H38a1,1,0,0,1,0-2h2A1,1,0,0,1,40,18Zm0-6H22a1,1,0,0,1,0-2H40A1,1,0,0,1,40,12Zm5-6c0,45.94-.14,41.73.29,41.29a1,1,0,0,1,1.42,0c.42.43.29,4.94.29-41.29Zm4,0c0,47.24.31,44.55-.62,44.92-.7.35-1.1-.22-2.38-1.51l-1.29,1.3A1,1,0,0,1,43,50V6H13V54H51V6ZM18,16H34a1,1,0,0,1,0,2H18A1,1,0,0,1,18,16Zm0,6h3a1,1,0,0,1,0,2H18A1,1,0,0,1,18,22Zm0,6H30a1,1,0,0,1,0,2H18A1,1,0,0,1,18,28ZM36,48H18a1,1,0,0,1,0-2H36A1,1,0,0,1,36,48ZM18,40h6a1,1,0,0,1,0,2H18A1,1,0,0,1,18,40Zm22,2H28a1,1,0,0,1,0-2H40A1,1,0,0,1,40,42Zm0-6H18a1,1,0,0,1,0-2H40A1,1,0,0,1,40,36Zm0-6H34a1,1,0,0,1,0-2h6A1,1,0,0,1,40,30Zm0-6H25a1,1,0,0,1,0-2H40A1,1,0,0,1,40,24Zm0-6H38a1,1,0,0,1,0-2h2A1,1,0,0,1,40,18Zm0-6H22a1,1,0,0,1,0-2H40A1,1,0,0,1,40,12Zm9-6c0,47.24.31,44.55-.62,44.92-.7.35-1.1-.22-2.38-1.51l-1.29,1.3A1,1,0,0,1,43,50V6H13V54H51V6ZM18,16H34a1,1,0,0,1,0,2H18A1,1,0,0,1,18,16Zm0,6h3a1,1,0,0,1,0,2H18A1,1,0,0,1,18,22Zm0,6H30a1,1,0,0,1,0,2H18A1,1,0,0,1,18,28ZM36,48H18a1,1,0,0,1,0-2H36A1,1,0,0,1,36,48ZM18,40h6a1,1,0,0,1,0,2H18A1,1,0,0,1,18,40Zm22,2H28a1,1,0,0,1,0-2H40A1,1,0,0,1,40,42Zm0-6H18a1,1,0,0,1,0-2H40A1,1,0,0,1,40,36Zm0-6H34a1,1,0,0,1,0-2h6A1,1,0,0,1,40,30Zm0-6H25a1,1,0,0,1,0-2H40A1,1,0,0,1,40,24Zm0-6H38a1,1,0,0,1,0-2h2A1,1,0,0,1,40,18Zm0-6H22a1,1,0,0,1,0-2H40A1,1,0,0,1,40,12Zm9-6c0,47.24.31,44.55-.62,44.92-.7.35-1.1-.22-2.38-1.51l-1.29,1.3A1,1,0,0,1,43,50V6H13V54H51V6ZM18,16H34a1,1,0,0,1,0,2H18A1,1,0,0,1,18,16Zm0,6h3a1,1,0,0,1,0,2H18A1,1,0,0,1,18,22Zm0,6H30a1,1,0,0,1,0,2H18A1,1,0,0,1,18,28ZM36,48H18a1,1,0,0,1,0-2H36A1,1,0,0,1,36,48ZM18,40h6a1,1,0,0,1,0,2H18A1,1,0,0,1,18,40Zm22,2H28a1,1,0,0,1,0-2H40A1,1,0,0,1,40,42Zm0-6H18a1,1,0,0,1,0-2H40A1,1,0,0,1,40,36Zm0-6H34a1,1,0,0,1,0-2h6A1,1,0,0,1,40,30Zm0-6H25a1,1,0,0,1,0-2H40A1,1,0,0,1,40,24Zm0-6H38a1,1,0,0,1,0-2h2A1,1,0,0,1,40,18Zm0-6H22a1,1,0,0,1,0-2H40A1,1,0,0,1,40,12Zm9-6c0,47.24.31,44.55-.62,44.92-.7.35-1.1-.22-2.38-1.51l-1.29,1.3A1,1,0,0,1,43,50V6H13V54H51V6ZM18,16H34a1,1,0,0,1,0,2H18A1,1,0,0,1,18,16Zm0,6h3a1,1,0,0,1,0,2H18A1,1,0,0,1,18,22Zm0,6H30a1,1,0,0,1,0,2H18A1,1,0,0,1,18,28ZM36,48H18a1,1,0,0,1,0-2H36A1,1,0,0,1,36,48ZM18,40h6a1,1,0,0,1,0,2H18A1,1,0,0,1,18,40Zm22,2H28a1,1,0,0,1,0-2H40A1,1,0,0,1,40,42Zm0-6H18a1,1,0,0,1,0-2H40A1,1,0,0,1,40,36Zm0-6H34a1,1,0,0,1,0-2h6A1,1,0,0,1,40,30Zm0-6H25a1,1,0,0,1,0-2H40A1,1,0,0,1,40,24Zm0-6H38a1,1,0,0,1,0-2h2A1,1,0,0,1,40,18Zm0-6H22a1,1,0,0,1,0-2H40A1,1,0,0,1,40,12Zm9-6c0,47.24.31,44.55-.62,44.92-.7.35-1.1-.22-2.38-1.51l-1.29,1.3A1,1,0,0,1,43,50V6H13V54H51V6ZM18,16H34a1,1,0,0,1,0,2H18A1,1,0,0,1,18,16Zm0,6h3a1,1,0,0,1,0,2H18A1,1,0,0,1,18,22Zm0,6H30a1,1,0,0,1,0,2H18A1,1,0,0,1,18,28ZM36,48H18a1,1,0,0,1,0-2H36A1,1,0,0,1,36,48ZM18,40h6a1,1,0,0,1,0,2H18A1,1,0,0,1,18,40Zm22,2H28a1,1,0,0,1,0-2H40A1,1,0,0,1,40,42Zm0-6H18a1,1,0,0,1,0-2H40A1,1,0,0,1,40,36Zm0-6H34a1,1,0,0,1,0-2h6A1,1,0,0,1,40,30Zm0-6H25a1,1,0,0,1,0-2H40A1,1,0,0,1,40,24Zm0-6H38a1,1,0,0,1,0-2h2A1,1,0,0,1,40,18Zm0-6H22a1,1,0,0,1,0-2H40A1,1,0,0,1,40,12Zm9-6c0,47.24.31,44.55-.62,44.92-.7.35-1.1-.22-2.38-1.51l-1.29,1.3A1,1,0,0,1,43,50V6H13V54H51V6ZM18,16H34a1,1,0,0,1,0,2H18A1,1,0,0,1,18,16Zm0,6h3a1,1,0,0,1,0,2H18A1,1,0,0,1,18,22Zm0,6H30a1,1,0,0,1,0,2H18A1,1,0,0,1,18,28ZM36,48H18a1,1,0,0,1,0-2H36A1,1,0,0,1,36,48ZM18,40h6a1,1,0,0,1,0,2H18A1,1,0,0,1,18,40Zm22,2H28a1,1,0,0,1,0-2H40A1,1,0,0,1,40,42Zm0-6H18a1,1,0,0,1,0-2H40A1,1,0,0,1,40,36Zm0-6H34a1,1,0,0,1,0-2h6A1,1,0,0,1,40,30Zm0-6H25a1,1,0,0,1,0-2H40A1,1,0,0,1,40,24Zm0-6H38a1,1,0,0,1,0-2h2A1,1,0,0,1,40,18Zm0-6H22a1,1,0,0,1,0-2H40A1,1,0,0,1,40,12Zm9-6c0,47.24.31,44.55-.62,44.92-.7.35-1.1-.22-2.38-1.51l-1.29,1.3A1,1,0,0,1,43,50V6H13V54H51V6ZM18,16H34a1,1,0,0,1,0,2H18A1,1,0,0,1,18,16Zm0,6h3a1,1,0,0,1,0,2H18A1,1,0,0,1,18,22Zm0,6H30a1,1,0,0,1,0,2H18A1,1,0,0,1,18,28ZM36,48H18a1,1,0,0,1,0-2H36A1,1,0,0,1,36,48ZM18,40h6a1,1,0,0,1,0,2H18A1,1,0,0,1,18,40Zm22,2H28a1,1,0,0,1,0-2H40A1,1,0,0,1,40,42Zm0-6H18a1,1,0,0,1,0-2H40A1,1,0,0,1,40,36Zm0-6H34a1,1,0,0,1,0-2h6A1,1,0,0,1,40,30Zm0-6H25a1,1,0,0,1,0-2H40A1,1,0,0,1,40,24Zm0-6H38a1,1,0,0,1,0-2h2A1,1,0,0,1,40,18Zm0-6H22a1,1,0,0,1,0-2H40A1,1,0,0,1,40,12Zm9-6c0,47.24.31,44.55-.62,44.92-.7.35-1.1-.22-2.38-1.51l-1.29,1.3A1,1,0,0,1,43,50V6H13V54H51V6ZM18,16H34a1,1,0,0,1,0,2H18A1,1,0,0,1,18,16Zm0,6h3a1,1,0,0,1,0,2H18A1,1,0,0,1,18,22Zm0,6H30a1,1,0,0,1,0,2H18A1,1,0,0,1,18,28ZM36,48H18a1,1,0,0,1,0-2H36A1,1,0,0,1,36,48ZM18,40h6a1,1,0,0,1,0,2H18A1,1,0,0,1,18,40Zm22,2H28a1,1,0,0,1,0-2H40A1,1,0,0,1,40,42Zm0-6H18a1,1,0,0,1,0-2H40A1,1,0,0,1,40,36Zm0-6H34a1,1,0,0,1,0-2h6A1,1,0,0,1,40,30Zm0-6H25a1,1,0,0,1,0-2H40A1,1,0,0,1,40,24Zm0-6H38a1,1,0,0,1,0-2h2A1,1,0,0,1,40,18Zm0-6H22a1,1,0,0,1,0-2H40A1,1,0,0,1,40,12Zm9-6c0,47.24.31,44.55-.62,44.92-.7.35-1.1-.22-2.38-1.51l-1.29,1.3A1,1,0,0,1,43,50V6H13V54H51V6ZM18,16H34a1,1,0,0,1,0,2H18A1,1,0,0,1,18,16Zm0,6h3a1,1,0,0,1,0,2H18A1,1,0,0,1,18,22Zm0,6H30a1,1,0,0,1,0,2H18A1,1,0,0,1,18,28ZM36,48H18a1,1,0,0,1,0-2H36A1,1,0,0,1,36,48ZM18,40h6a1,1,0,0,1,0,2H18A1,1,0,0,1,18,40Zm22,2H28a1,1,0,0,1,0-2H40A1,1,0,0,1,40,42Zm0-6H18a1,1,0,0,1,0-2H40A1,1,0,0,1,40,36Zm0-6H34a1,1,0,0,1,0-2h6A1,1,0,0,1,40,30Zm0-6H25a1,1,0,0,1,0-2H40A1,1,0,0,1,40,24Zm0-6H38a1,1,0,0,1,0-2h2A1,1,0,0,1,40,18Zm0-6H22a1,1,0,0,1,0-2H40A1,1,0,0,1,40,12Zm9-6c0,47.24.31,44.55-.62,44.92-.7.35-1.1-.22-2.38-1.51l-1.29,1.3A1,1,0,0,1,43,50V6H13V54H51V6ZM18,16H34a1,1,0,0,1,0,2H18A1,1,0,0,1,18,16Zm0,6h3a1,1,0,0,1,0,2H18A1,1,0,0,1,18,22Zm0,6H30a1,1,0,0,1,0,2H18A1,1,0,0,1,18,28ZM36,48H18a1,1,0,0,1,0-2H36A1,1,0,0,1,36,48ZM18,40h6a1,1,0,0,1,0,2H18A1,1,0,0,1,18,40Zm22,2H28a1,1,0,0,1,0-2H40A1,1,0,0,1,40,42Zm0-6H18a1,1,0,0,1,0-2H40A1,1,0,0,1,40,36Zm0-6H34a1,1,0,0,1,0-2h6A1,1,0,0,1,40,30Zm0-6H25a1,1,0,0,1,0-2H40A1,1,0,0,1,40,24Zm0-6H38a1,1,0,0,1,0-2h2A1,1,0,0,1,40,18Zm0-6H22a1,1,0,0,1,0-2H40A1,1,0,0,1,40,12Zm9-6c0,47.24.31,44.55-.62,44.92-.7.35-1.1-.22-2.38-1.51l-1.29,1.3A1,1,0,0,1,43,50V6H13V54H51V6ZM18,16H34a1,1,0,0,1,0,2H18A1,1,0,0,1,18,16Zm0,6h3a1,1,0,0,1,0,2H18A1,1,0,0,1,18,22Zm0,6H30a1,1,0,0,1,0,2H18A1,1,0,0,1,18,28ZM36,48H18a1,1,0,0,1,0-2H36A1,1,0,0,1,36,48ZM18,40h6a1,1,0,0,1,0,2H18A1,1,0,0,1,18,40Zm22,2H28a1,1,0,0,1,0-2H40A1,1,0,0,1,40,42Zm0-6H18a1,1,0,0,1,0-2H40A1,1,0,0,1,40,36Zm0-6H34a1,1,0,0,1,0-2h6A1,1,0,0,1,40,30Zm0-6H25a1,1,0,0,1,0-2H40A1,1,0,0,1,40,24Zm0-6H38a1,1,0,0,1,0-2h2A1,1,0,0,1,40,18Zm0-6H22a1,1,0,0,1,0-2H40A1,1,0,0,1,40,12Zm9-6c0,47.24.31,44.55-.62,44.92-.7.35-1.1-.22-2.38-1.51l-1.29,1.3A1,1,0,0,1,43,50V6H13V54H51V6ZM18,16H34a1,1,0,0,1,0,2H18A1,1,0,0,1,18,16Zm0,6h3a1,1,0,0,1,0,2H18A1,1,0,0,1,18,22Zm0,6H30a1,1,0,0,1,0,2H18A1,1,0,0,1,18,28ZM36,48H18a1,1,0,0,1,0-2H36A1,1,0,0,1,36,48ZM18,40h6a1,1,0,0,1,0,2H18A1,1,0,0,1,18,40Zm22,2H28a1,1,0,0,1,0-2H40A1,1,0,0,1,40,42Zm0-6H18a1,1,0,0,1,0-2H40A1,1,0,0,1,40,36Zm0-6H34a1,1,0,0,1,0-2h6A1,1,0,0,1,40,30Zm0-6H25a1,1,0,0,1,0-2H40A1,1,0,0,1,40,24Zm0-6H38a1,1,0,0,1,0-2h2A1,1,0,0,1,40,18Zm0-6H22a1,1,0,0,1,0-2H40A1,1,0,0,1,40,12ZM53,1H11A3,3,0,0,0,8,4V60a3,3,0,0,0,3,3H53a3,3,0,0,0,3-3V4A3,3,0,0,0,53,1ZM33,60H31a1,1,0,0,1,0-2h2A1,1,0,0,1,33,60Zm20-5a1,1,0,0,1-1,1H12a1,1,0,0,1-1-1V5a1,1,0,0,1,1-1H52a1,1,0,0,1,1,1Zm-4-5a1,1,0,0,1-1,1c-.56,0-.7-.28-2-1.59-1,1-1.54,1.87-2.38,1.51S43,53.58,43,6H13V54H51V6H49ZM18,16H34a1,1,0,0,1,0,2H18A1,1,0,0,1,18,16Zm0,6h3a1,1,0,0,1,0,2H18A1,1,0,0,1,18,22Zm0,6H30a1,1,0,0,1,0,2H18A1,1,0,0,1,18,28ZM36,48H18a1,1,0,0,1,0-2H36A1,1,0,0,1,36,48ZM18,40h6a1,1,0,0,1,0,2H18A1,1,0,0,1,18,40Zm22,2H28a1,1,0,0,1,0-2H40A1,1,0,0,1,40,42Zm0-6H18a1,1,0,0,1,0-2H40A1,1,0,0,1,40,36Zm0-6H34a1,1,0,0,1,0-2h6A1,1,0,0,1,40,30Zm0-6H25a1,1,0,0,1,0-2H40A1,1,0,0,1,40,24Zm0-6H38a1,1,0,0,1,0-2h2A1,1,0,0,1,40,18Zm0-6H22a1,1,0,0,1,0-2H40A1,1,0,0,1,40,12Zm6.71,35.29c.42.43.29,4.94.29-41.29H45c0,45.94-.14,41.73.29,41.29A1,1,0,0,1,46.71,47.29ZM49,6c0,47.24.31,44.55-.62,44.92-.7.35-1.1-.22-2.38-1.51l-1.29,1.3A1,1,0,0,1,43,50V6H13V54H51V6ZM18,16H34a1,1,0,0,1,0,2H18A1,1,0,0,1,18,16Zm0,6h3a1,1,0,0,1,0,2H18A1,1,0,0,1,18,22Zm0,6H30a1,1,0,0,1,0,2H18A1,1,0,0,1,18,28ZM36,48H18a1,1,0,0,1,0-2H36A1,1,0,0,1,36,48ZM18,40h6a1,1,0,0,1,0,2H18A1,1,0,0,1,18,40Zm22,2H28a1,1,0,0,1,0-2H40A1,1,0,0,1,40,42Zm0-6H18a1,1,0,0,1,0-2H40A1,1,0,0,1,40,36Zm0-6H34a1,1,0,0,1,0-2h6A1,1,0,0,1,40,30Zm0-6H25a1,1,0,0,1,0-2H40A1,1,0,0,1,40,24Zm0-6H38a1,1,0,0,1,0-2h2A1,1,0,0,1,40,18Zm0-6H22a1,1,0,0,1,0-2H40A1,1,0,0,1,40,12Zm9-6c0,47.24.31,44.55-.62,44.92-.7.35-1.1-.22-2.38-1.51l-1.29,1.3A1,1,0,0,1,43,50V6H13V54H51V6ZM18,16H34a1,1,0,0,1,0,2H18A1,1,0,0,1,18,16Zm0,6h3a1,1,0,0,1,0,2H18A1,1,0,0,1,18,22Zm0,6H30a1,1,0,0,1,0,2H18A1,1,0,0,1,18,28ZM36,48H18a1,1,0,0,1,0-2H36A1,1,0,0,1,36,48ZM18,40h6a1,1,0,0,1,0,2H18A1,1,0,0,1,18,40Zm22,2H28a1,1,0,0,1,0-2H40A1,1,0,0,1,40,42Zm0-6H18a1,1,0,0,1,0-2H40A1,1,0,0,1,40,36Zm0-6H34a1,1,0,0,1,0-2h6A1,1,0,0,1,40,30Zm0-6H25a1,1,0,0,1,0-2H40A1,1,0,0,1,40,24Zm0-6H38a1,1,0,0,1,0-2h2A1,1,0,0,1,40,18Zm0-6H22a1,1,0,0,1,0-2H40A1,1,0,0,1,40,12Zm9-6c0,47.24.31,44.55-.62,44.92-.7.35-1.1-.22-2.38-1.51l-1.29,1.3A1,1,0,0,1,43,50V6H13V54H51V6ZM18,16H34a1,1,0,0,1,0,2H18A1,1,0,0,1,18,16Zm0,6h3a1,1,0,0,1,0,2H18A1,1,0,0,1,18,22Zm0,6H30a1,1,0,0,1,0,2H18A1,1,0,0,1,18,28ZM36,48H18a1,1,0,0,1,0-2H36A1,1,0,0,1,36,48ZM18,40h6a1,1,0,0,1,0,2H18A1,1,0,0,1,18,40Zm22,2H28a1,1,0,0,1,0-2H40A1,1,0,0,1,40,42Zm0-6H18a1,1,0,0,1,0-2H40A1,1,0,0,1,40,36Zm0-6H34a1,1,0,0,1,0-2h6A1,1,0,0,1,40,30Zm0-6H25a1,1,0,0,1,0-2H40A1,1,0,0,1,40,24Zm0-6H38a1,1,0,0,1,0-2h2A1,1,0,0,1,40,18Zm0-6H22a1,1,0,0,1,0-2H40A1,1,0,0,1,40,12Zm9-6c0,47.24.31,44.55-.62,44.92-.7.35-1.1-.22-2.38-1.51l-1.29,1.3A1,1,0,0,1,43,50V6H13V54H51V6ZM18,16H34a1,1,0,0,1,0,2H18A1,1,0,0,1,18,16Zm0,6h3a1,1,0,0,1,0,2H18A1,1,0,0,1,18,22Zm0,6H30a1,1,0,0,1,0,2H18A1,1,0,0,1,18,28ZM36,48H18a1,1,0,0,1,0-2H36A1,1,0,0,1,36,48ZM18,40h6a1,1,0,0,1,0,2H18A1,1,0,0,1,18,40Zm22,2H28a1,1,0,0,1,0-2H40A1,1,0,0,1,40,42Zm0-6H18a1,1,0,0,1,0-2H40A1,1,0,0,1,40,36Zm0-6H34a1,1,0,0,1,0-2h6A1,1,0,0,1,40,30Zm0-6H25a1,1,0,0,1,0-2H40A1,1,0,0,1,40,24Zm0-6H38a1,1,0,0,1,0-2h2A1,1,0,0,1,40,18Zm0-6H22a1,1,0,0,1,0-2H40A1,1,0,0,1,40,12Zm9-6c0,47.24.31,44.55-.62,44.92-.7.35-1.1-.22-2.38-1.51l-1.29,1.3A1,1,0,0,1,43,50V6H13V54H51V6ZM18,16H34a1,1,0,0,1,0,2H18A1,1,0,0,1,18,16Zm0,6h3a1,1,0,0,1,0,2H18A1,1,0,0,1,18,22Zm0,6H30a1,1,0,0,1,0,2H18A1,1,0,0,1,18,28ZM36,48H18a1,1,0,0,1,0-2H36A1,1,0,0,1,36,48ZM18,40h6a1,1,0,0,1,0,2H18A1,1,0,0,1,18,40Zm22,2H28a1,1,0,0,1,0-2H40A1,1,0,0,1,40,42Zm0-6H18a1,1,0,0,1,0-2H40A1,1,0,0,1,40,36Zm0-6H34a1,1,0,0,1,0-2h6A1,1,0,0,1,40,30Zm0-6H25a1,1,0,0,1,0-2H40A1,1,0,0,1,40,24Zm0-6H38a1,1,0,0,1,0-2h2A1,1,0,0,1,40,18Zm0-6H22a1,1,0,0,1,0-2H40A1,1,0,0,1,40,12Zm9-6c0,47.24.31,44.55-.62,44.92-.7.35-1.1-.22-2.38-1.51l-1.29,1.3A1,1,0,0,1,43,50V6H13V54H51V6ZM18,16H34a1,1,0,0,1,0,2H18A1,1,0,0,1,18,16Zm0,6h3a1,1,0,0,1,0,2H18A1,1,0,0,1,18,22Zm0,6H30a1,1,0,0,1,0,2H18A1,1,0,0,1,18,28ZM36,48H18a1,1,0,0,1,0-2H36A1,1,0,0,1,36,48ZM18,40h6a1,1,0,0,1,0,2H18A1,1,0,0,1,18,40Zm22,2H28a1,1,0,0,1,0-2H40A1,1,0,0,1,40,42Zm0-6H18a1,1,0,0,1,0-2H40A1,1,0,0,1,40,36Zm0-6H34a1,1,0,0,1,0-2h6A1,1,0,0,1,40,30Zm0-6H25a1,1,0,0,1,0-2H40A1,1,0,0,1,40,24Zm0-6H38a1,1,0,0,1,0-2h2A1,1,0,0,1,40,18Zm0-6H22a1,1,0,0,1,0-2H40A1,1,0,0,1,40,12Zm9-6c0,47.24.31,44.55-.62,44.92-.7.35-1.1-.22-2.38-1.51l-1.29,1.3A1,1,0,0,1,43,50V6H13V54H51V6ZM18,16H34a1,1,0,0,1,0,2H18A1,1,0,0,1,18,16Zm0,6h3a1,1,0,0,1,0,2H18A1,1,0,0,1,18,22Zm0,6H30a1,1,0,0,1,0,2H18A1,1,0,0,1,18,28ZM36,48H18a1,1,0,0,1,0-2H36A1,1,0,0,1,36,48ZM18,40h6a1,1,0,0,1,0,2H18A1,1,0,0,1,18,40Zm22,2H28a1,1,0,0,1,0-2H40A1,1,0,0,1,40,42Zm0-6H18a1,1,0,0,1,0-2H40A1,1,0,0,1,40,36Zm0-6H34a1,1,0,0,1,0-2h6A1,1,0,0,1,40,30Zm0-6H25a1,1,0,0,1,0-2H40A1,1,0,0,1,40,24Zm0-6H38a1,1,0,0,1,0-2h2A1,1,0,0,1,40,18Zm0-6H22a1,1,0,0,1,0-2H40A1,1,0,0,1,40,12Zm9-6c0,47.24.31,44.55-.62,44.92-.7.35-1.1-.22-2.38-1.51l-1.29,1.3A1,1,0,0,1,43,50V6H13V54H51V6ZM18,16H34a1,1,0,0,1,0,2H18A1,1,0,0,1,18,16Zm0,6h3a1,1,0,0,1,0,2H18A1,1,0,0,1,18,22Zm0,6H30a1,1,0,0,1,0,2H18A1,1,0,0,1,18,28ZM36,48H18a1,1,0,0,1,0-2H36A1,1,0,0,1,36,48ZM18,40h6a1,1,0,0,1,0,2H18A1,1,0,0,1,18,40Zm22,2H28a1,1,0,0,1,0-2H40A1,1,0,0,1,40,42Zm0-6H18a1,1,0,0,1,0-2H40A1,1,0,0,1,40,36Zm0-6H34a1,1,0,0,1,0-2h6A1,1,0,0,1,40,30Zm0-6H25a1,1,0,0,1,0-2H40A1,1,0,0,1,40,24Zm0-6H38a1,1,0,0,1,0-2h2A1,1,0,0,1,40,18Zm0-6H22a1,1,0,0,1,0-2H40A1,1,0,0,1,40,12Zm9-6c0,47.24.31,44.55-.62,44.92-.7.35-1.1-.22-2.38-1.51l-1.29,1.3A1,1,0,0,1,43,50V6H13V54H51V6ZM18,16H34a1,1,0,0,1,0,2H18A1,1,0,0,1,18,16Zm0,6h3a1,1,0,0,1,0,2H18A1,1,0,0,1,18,22Zm0,6H30a1,1,0,0,1,0,2H18A1,1,0,0,1,18,28ZM36,48H18a1,1,0,0,1,0-2H36A1,1,0,0,1,36,48ZM18,40h6a1,1,0,0,1,0,2H18A1,1,0,0,1,18,40Zm22,2H28a1,1,0,0,1,0-2H40A1,1,0,0,1,40,42Zm0-6H18a1,1,0,0,1,0-2H40A1,1,0,0,1,40,36Zm0-6H34a1,1,0,0,1,0-2h6A1,1,0,0,1,40,30Zm0-6H25a1,1,0,0,1,0-2H40A1,1,0,0,1,40,24Zm0-6H38a1,1,0,0,1,0-2h2A1,1,0,0,1,40,18Zm0-6H22a1,1,0,0,1,0-2H40A1,1,0,0,1,40,12Zm9-6c0,47.24.31,44.55-.62,44.92-.7.35-1.1-.22-2.38-1.51l-1.29,1.3A1,1,0,0,1,43,50V6H13V54H51V6ZM18,16H34a1,1,0,0,1,0,2H18A1,1,0,0,1,18,16Zm0,6h3a1,1,0,0,1,0,2H18A1,1,0,0,1,18,22Zm0,6H30a1,1,0,0,1,0,2H18A1,1,0,0,1,18,28ZM36,48H18a1,1,0,0,1,0-2H36A1,1,0,0,1,36,48ZM18,40h6a1,1,0,0,1,0,2H18A1,1,0,0,1,18,40Zm22,2H28a1,1,0,0,1,0-2H40A1,1,0,0,1,40,42Zm0-6H18a1,1,0,0,1,0-2H40A1,1,0,0,1,40,36Zm0-6H34a1,1,0,0,1,0-2h6A1,1,0,0,1,40,30Zm0-6H25a1,1,0,0,1,0-2H40A1,1,0,0,1,40,24Zm0-6H38a1,1,0,0,1,0-2h2A1,1,0,0,1,40,18Zm0-6H22a1,1,0,0,1,0-2H40A1,1,0,0,1,40,12Zm9-6c0,47.24.31,44.55-.62,44.92-.7.35-1.1-.22-2.38-1.51l-1.29,1.3A1,1,0,0,1,43,50V6H13V54H51V6ZM18,16H34a1,1,0,0,1,0,2H18A1,1,0,0,1,18,16Zm0,6h3a1,1,0,0,1,0,2H18A1,1,0,0,1,18,22Zm0,6H30a1,1,0,0,1,0,2H18A1,1,0,0,1,18,28ZM36,48H18a1,1,0,0,1,0-2H36A1,1,0,0,1,36,48ZM18,40h6a1,1,0,0,1,0,2H18A1,1,0,0,1,18,40Zm22,2H28a1,1,0,0,1,0-2H40A1,1,0,0,1,40,42Zm0-6H18a1,1,0,0,1,0-2H40A1,1,0,0,1,40,36Zm0-6H34a1,1,0,0,1,0-2h6A1,1,0,0,1,40,30Zm0-6H25a1,1,0,0,1,0-2H40A1,1,0,0,1,40,24Zm0-6H38a1,1,0,0,1,0-2h2A1,1,0,0,1,40,18Zm0-6H22a1,1,0,0,1,0-2H40A1,1,0,0,1,40,12Zm9-6c0,47.24.31,44.55-.62,44.92-.7.35-1.1-.22-2.38-1.51l-1.29,1.3A1,1,0,0,1,43,50V6H13V54H51V6ZM18,16H34a1,1,0,0,1,0,2H18A1,1,0,0,1,18,16Zm0,6h3a1,1,0,0,1,0,2H18A1,1,0,0,1,18,22Zm0,6H30a1,1,0,0,1,0,2H18A1,1,0,0,1,18,28ZM36,48H18a1,1,0,0,1,0-2H36A1,1,0,0,1,36,48ZM18,40h6a1,1,0,0,1,0,2H18A1,1,0,0,1,18,40Zm22,2H28a1,1,0,0,1,0-2H40A1,1,0,0,1,40,42Zm0-6H18a1,1,0,0,1,0-2H40A1,1,0,0,1,40,36Zm0-6H34a1,1,0,0,1,0-2h6A1,1,0,0,1,40,30Zm0-6H25a1,1,0,0,1,0-2H40A1,1,0,0,1,40,24Zm0-6H38a1,1,0,0,1,0-2h2A1,1,0,0,1,40,18Zm0-6H22a1,1,0,0,1,0-2H40A1,1,0,0,1,40,12Z"/></g></svg>