<svg xmlns="http://www.w3.org/2000/svg" viewBox="0 0 64 64"><title>Presentation</title><g id="Presentation"><rect x="1" y="1" width="62" height="6"/><path d="M32,38a9,9,0,1,0-9-9A9,9,0,0,0,32,38Zm1-8H31a3,3,0,0,1,0-6V23a1,1,0,0,1,2,0v1h2a1,1,0,0,1,0,2H31a1,1,0,0,0,0,2h2a3,3,0,0,1,0,6v1a1,1,0,0,1-2,0V34H29a1,1,0,0,1,0-2h4A1,1,0,0,0,33,30Z"/><path d="M17.51,33.9l3,5.2c1.24-.72,1.88-1.3,2.57-.66,3.63,3.43,5.92,2.4,5.92,4V44h6c0-1.41-.18-2.27.71-2.55,4.69-1.39,5-3.93,6.4-3.15l1.38.8,3-5.2c-1.37-.8-2.07-1-1.85-1.89a12.89,12.89,0,0,0,0-6c-.22-.87.51-1.12,1.85-1.89l-3-5.2-1.38.8c-1.35.78-1.66-1.75-6.4-3.15-.86-.26-.71-1-.71-2.55H29v1.59c0,1.57-2.29.54-5.92,4-.66.62-1.2.13-2.57-.66l-3,5.2c3,1.75,1.49.68,1.49,4.9S20.52,32.15,17.51,33.9ZM32,18A11,11,0,1,1,21,29,11,11,0,0,1,32,18Z"/><path d="M61,49H60V9H4V49H3a1,1,0,0,0,0,2H61A1,1,0,0,0,61,49ZM17.26,26.26l-1.62-.93A1,1,0,0,1,15.28,24l4-6.92a1,1,0,0,1,1.36-.37l1.62.94A15.16,15.16,0,0,1,27,14.86V13a1,1,0,0,1,1-1h8a1,1,0,0,1,1,1v1.86a15.16,15.16,0,0,1,4.74,2.75l1.62-.94a1,1,0,0,1,1.36.37c5,8.57,5.19,7.4,2,9.22a14.43,14.43,0,0,1,0,5.48c3.08,1.77,3,.54-2,9.22a1,1,0,0,1-1.36.37l-1.62-.94A15.16,15.16,0,0,1,37,43.14V45a1,1,0,0,1-1,1H28a1,1,0,0,1-1-1V43.14a15.16,15.16,0,0,1-4.74-2.75l-1.62.94A1,1,0,0,1,19.28,41l-4-6.92a1,1,0,0,1,.36-1.37l1.62-.93A14.43,14.43,0,0,1,17.26,26.26Z"/><path d="M33,57.18V53H31v4.18a3,3,0,1,0,2,0ZM32,61a1,1,0,0,1,0-2A1,1,0,0,1,32,61Z"/></g></svg>