<svg xmlns="http://www.w3.org/2000/svg" viewBox="0 0 64 64"><title>Presentation</title><g id="Presentation"><rect x="1" y="1" width="62" height="5"/><path d="M31.61,32.92,21,28.37V36.5c0,1.49,4.76,5.14,11,5.14S43,38,43,36.5V28.37C31.52,33.29,32.17,33.15,31.61,32.92Zm0,0L21,28.37V36.5c0,1.49,4.76,5.14,11,5.14S43,38,43,36.5V28.37C31.52,33.29,32.17,33.15,31.61,32.92Zm0,0L21,28.37V36.5c0,1.49,4.76,5.14,11,5.14S43,38,43,36.5V28.37C31.52,33.29,32.17,33.15,31.61,32.92Zm.52-11,16,2.14,2.35-1L32,15.09,13.54,23,32,30.91l12.52-5.36-12.65-1.7A1,1,0,0,1,32.13,21.87Zm0,0,16,2.14,2.35-1L32,15.09,13.54,23,32,30.91l12.52-5.36-12.65-1.7A1,1,0,0,1,32.13,21.87Zm-.52,11.05L21,28.37V36.5c0,1.49,4.76,5.14,11,5.14S43,38,43,36.5V28.37C31.52,33.29,32.17,33.15,31.61,32.92Zm0,0L21,28.37V36.5c0,1.49,4.76,5.14,11,5.14S43,38,43,36.5V28.37C31.52,33.29,32.17,33.15,31.61,32.92Zm17,8.5a.57.57,0,0,0-1.14,0L47.18,43h1.64ZM32.13,21.87l16,2.14,2.35-1L32,15.09,13.54,23,32,30.91l12.52-5.36-12.65-1.7A1,1,0,0,1,32.13,21.87Zm0,0,16,2.14,2.35-1L32,15.09,13.54,23,32,30.91l12.52-5.36-12.65-1.7A1,1,0,0,1,32.13,21.87ZM48.23,41a.47.47,0,0,0-.46,0c-.38.16-.34.47-.59,2h1.64C48.57,41.4,48.61,41.13,48.23,41ZM32,33c-.29,0,.53.31-11-4.63V36.5c0,1.49,4.76,5.14,11,5.14S43,38,43,36.5V28.37C31.49,33.31,32.29,33,32,33ZM3,8V48H61V8ZM49,25.8V39.12c1.7.71,1.61,2.4,2,4.72A1,1,0,0,1,50,45c-5.83,0-5.27.53-4.54-3.91a2.58,2.58,0,0,1,1.54-2V26.66l-2,.86v9c0,3.15-6.12,7.14-13,7.14s-13-4-13-7.14v-9l-8.39-3.6a1,1,0,0,1,0-1.84c22.92-9.82,21.23-9.24,21.78-9C54.78,22.68,54,22.05,54,23S53.59,23.83,49,25.8ZM13.54,23,32,30.91l12.52-5.36-12.65-1.7a1,1,0,0,1,.26-2l16,2.14,2.35-1L32,15.09ZM48.23,41a.47.47,0,0,0-.46,0c-.38.16-.34.47-.59,2h1.64C48.57,41.4,48.61,41.13,48.23,41ZM32,33c-.29,0,.53.31-11-4.63V36.5c0,1.49,4.76,5.14,11,5.14S43,38,43,36.5V28.37C31.49,33.31,32.29,33,32,33Zm-.39-.08L21,28.37V36.5c0,1.49,4.76,5.14,11,5.14S43,38,43,36.5V28.37C31.52,33.29,32.17,33.15,31.61,32.92Zm17,8.5a.57.57,0,0,0-1.14,0L47.18,43h1.64ZM32.13,21.87l16,2.14,2.35-1L32,15.09,13.54,23,32,30.91l12.52-5.36-12.65-1.7A1,1,0,0,1,32.13,21.87Zm0,0,16,2.14,2.35-1L32,15.09,13.54,23,32,30.91l12.52-5.36-12.65-1.7A1,1,0,0,1,32.13,21.87ZM48.57,41.42a.57.57,0,0,0-1.14,0L47.18,43h1.64Zm-17-8.5L21,28.37V36.5c0,1.49,4.76,5.14,11,5.14S43,38,43,36.5V28.37C31.52,33.29,32.17,33.15,31.61,32.92Zm0,0L21,28.37V36.5c0,1.49,4.76,5.14,11,5.14S43,38,43,36.5V28.37C31.52,33.29,32.17,33.15,31.61,32.92Zm.52-11,16,2.14,2.35-1L32,15.09,13.54,23,32,30.91l12.52-5.36-12.65-1.7A1,1,0,0,1,32.13,21.87Zm0,0,16,2.14,2.35-1L32,15.09,13.54,23,32,30.91l12.52-5.36-12.65-1.7A1,1,0,0,1,32.13,21.87Zm-.52,11.05L21,28.37V36.5c0,1.49,4.76,5.14,11,5.14S43,38,43,36.5V28.37C31.52,33.29,32.17,33.15,31.61,32.92Zm0,0L21,28.37V36.5c0,1.49,4.76,5.14,11,5.14S43,38,43,36.5V28.37C31.52,33.29,32.17,33.15,31.61,32.92Z"/><rect x="3" y="50" width="58" height="1"/><path d="M48.23,41a.9.9,0,0,1-.46,0A.47.47,0,0,1,48.23,41Z"/><path d="M33,58.18a2.87,2.87,0,0,0-2,0,3,3,0,1,0,2,0ZM32,62a1,1,0,0,1,0-2A1,1,0,0,1,32,62Z"/><path d="M31,59V51a1,1,0,0,1,2,0v8A1,1,0,0,1,31,59Z"/><path d="M62,52H2a1,1,0,0,1,0-2H62A1,1,0,0,1,62,52Z"/></g></svg>