<svg xmlns="http://www.w3.org/2000/svg" viewBox="0 0 128 128">
  <defs>
    <style>
      .cls-1 {
        fill: #a0aec0;
      }
    </style>
  </defs>
  <g id="Privacy">
    <path class="cls-1"
      d="M64,22A18,18,0,0,0,46,40v6h4V40a14,14,0,1,1,28,0v6h4V40A18,18,0,0,0,64,22Zm0,6A12,12,0,0,0,52,40v6H76V40A12,12,0,0,0,64,28Zm0-6A18,18,0,0,0,46,40v6h4V40a14,14,0,1,1,28,0v6h4V40A18,18,0,0,0,64,22Zm0,39a4,4,0,1,0,4,4A4,4,0,0,0,64,61Zm0,0a4,4,0,1,0,4,4A4,4,0,0,0,64,61Zm0,0a4,4,0,1,0,4,4A4,4,0,0,0,64,61Zm0-7C51.78,54,45.44,68.78,53.86,77.61a13,13,0,0,1,6.52-7.81,6,6,0,1,1,7.24,0,13,13,0,0,1,6.52,7.81A14,14,0,0,0,64,54Zm0,0C51.78,54,45.44,68.78,53.86,77.61a13,13,0,0,1,6.52-7.81,6,6,0,1,1,7.24,0,13,13,0,0,1,6.52,7.81A14,14,0,0,0,64,54Zm0,7a4,4,0,1,0,4,4A4,4,0,0,0,64,61ZM38,48V88H90V48ZM74.29,80.27a16,16,0,0,1-20.62,0C42.28,70.71,49.14,52,64,52S85.72,70.69,74.29,80.27ZM64,54C51.78,54,45.44,68.78,53.86,77.61a13,13,0,0,1,6.52-7.81,6,6,0,1,1,7.24,0,13,13,0,0,1,6.52,7.81A14,14,0,0,0,64,54Zm0,17c-3.65,0-7.14,3.37-8.47,8.09a13.94,13.94,0,0,0,16.94,0C71.14,74.39,67.65,71,64,71Zm4-6a4,4,0,1,0-4,4A4,4,0,0,0,68,65Zm-4-4a4,4,0,1,0,4,4A4,4,0,0,0,64,61Zm0,0a4,4,0,1,0,4,4A4,4,0,0,0,64,61Zm0,0a4,4,0,1,0,4,4A4,4,0,0,0,64,61Zm0,0a4,4,0,1,0,4,4A4,4,0,0,0,64,61Zm0,0a4,4,0,1,0,4,4A4,4,0,0,0,64,61Zm0-7C51.78,54,45.44,68.78,53.86,77.61a13,13,0,0,1,6.52-7.81,6,6,0,1,1,7.24,0,13,13,0,0,1,6.52,7.81A14,14,0,0,0,64,54Zm0,0C51.78,54,45.44,68.78,53.86,77.61a13,13,0,0,1,6.52-7.81,6,6,0,1,1,7.24,0,13,13,0,0,1,6.52,7.81A14,14,0,0,0,64,54Zm0,7a4,4,0,1,0,4,4A4,4,0,0,0,64,61ZM38,48V88H90V48ZM74.29,80.27a16,16,0,0,1-20.62,0C42.28,70.71,49.14,52,64,52S85.72,70.69,74.29,80.27ZM64,54C51.78,54,45.44,68.78,53.86,77.61a13,13,0,0,1,6.52-7.81,6,6,0,1,1,7.24,0,13,13,0,0,1,6.52,7.81A14,14,0,0,0,64,54Zm0,17c-3.65,0-7.14,3.37-8.47,8.09a13.94,13.94,0,0,0,16.94,0C71.14,74.39,67.65,71,64,71Zm4-6a4,4,0,1,0-4,4A4,4,0,0,0,68,65Zm-4-4a4,4,0,1,0,4,4A4,4,0,0,0,64,61Zm0,0a4,4,0,1,0,4,4A4,4,0,0,0,64,61Zm0-39A18,18,0,0,0,46,40v6h4V40a14,14,0,1,1,28,0v6h4V40A18,18,0,0,0,64,22Zm0,6A12,12,0,0,0,52,40v6H76V40A12,12,0,0,0,64,28Zm0,33a4,4,0,1,0,4,4A4,4,0,0,0,64,61Zm0-33A12,12,0,0,0,52,40v6H76V40A12,12,0,0,0,64,28Zm0-6A18,18,0,0,0,46,40v6h4V40a14,14,0,1,1,28,0v6h4V40A18,18,0,0,0,64,22Zm0,39a4,4,0,1,0,4,4A4,4,0,0,0,64,61Zm0,0a4,4,0,1,0,4,4A4,4,0,0,0,64,61Zm0-7C51.78,54,45.44,68.78,53.86,77.61a13,13,0,0,1,6.52-7.81,6,6,0,1,1,7.24,0,13,13,0,0,1,6.52,7.81A14,14,0,0,0,64,54Zm0,0C51.78,54,45.44,68.78,53.86,77.61a13,13,0,0,1,6.52-7.81,6,6,0,1,1,7.24,0,13,13,0,0,1,6.52,7.81A14,14,0,0,0,64,54Zm0,7a4,4,0,1,0,4,4A4,4,0,0,0,64,61ZM38,48V88H90V48ZM74.29,80.27a16,16,0,0,1-20.62,0C42.28,70.71,49.14,52,64,52S85.72,70.69,74.29,80.27ZM64,54C51.78,54,45.44,68.78,53.86,77.61a13,13,0,0,1,6.52-7.81,6,6,0,1,1,7.24,0,13,13,0,0,1,6.52,7.81A14,14,0,0,0,64,54Zm0,17c-3.65,0-7.14,3.37-8.47,8.09a13.94,13.94,0,0,0,16.94,0C71.14,74.39,67.65,71,64,71Zm4-6a4,4,0,1,0-4,4A4,4,0,0,0,68,65Zm-4-4a4,4,0,1,0,4,4A4,4,0,0,0,64,61Zm0,0a4,4,0,1,0,4,4A4,4,0,0,0,64,61Zm0,0a4,4,0,1,0,4,4A4,4,0,0,0,64,61Zm0-7C51.78,54,45.44,68.78,53.86,77.61a13,13,0,0,1,6.52-7.81,6,6,0,1,1,7.24,0,13,13,0,0,1,6.52,7.81A14,14,0,0,0,64,54Zm0,0C51.78,54,45.44,68.78,53.86,77.61a13,13,0,0,1,6.52-7.81,6,6,0,1,1,7.24,0,13,13,0,0,1,6.52,7.81A14,14,0,0,0,64,54Zm0,7a4,4,0,1,0,4,4A4,4,0,0,0,64,61ZM38,48V88H90V48ZM74.29,80.27a16,16,0,0,1-20.62,0C42.28,70.71,49.14,52,64,52S85.72,70.69,74.29,80.27ZM64,54C51.78,54,45.44,68.78,53.86,77.61a13,13,0,0,1,6.52-7.81,6,6,0,1,1,7.24,0,13,13,0,0,1,6.52,7.81A14,14,0,0,0,64,54Zm0,17c-3.65,0-7.14,3.37-8.47,8.09a13.94,13.94,0,0,0,16.94,0C71.14,74.39,67.65,71,64,71Zm4-6a4,4,0,1,0-4,4A4,4,0,0,0,68,65Zm-4-4a4,4,0,1,0,4,4A4,4,0,0,0,64,61Zm0-39A18,18,0,0,0,46,40v6h4V40a14,14,0,1,1,28,0v6h4V40A18,18,0,0,0,64,22Zm0,6A12,12,0,0,0,52,40v6H76V40A12,12,0,0,0,64,28Zm0,33a4,4,0,1,0,4,4A4,4,0,0,0,64,61Zm0,0a4,4,0,1,0,4,4A4,4,0,0,0,64,61Zm0-33A12,12,0,0,0,52,40v6H76V40A12,12,0,0,0,64,28Zm0,26C51.78,54,45.44,68.78,53.86,77.61a13,13,0,0,1,6.52-7.81,6,6,0,1,1,7.24,0,13,13,0,0,1,6.52,7.81A14,14,0,0,0,64,54Zm0-32A18,18,0,0,0,46,40v6h4V40a14,14,0,1,1,28,0v6h4V40A18,18,0,0,0,64,22Zm0,32C51.78,54,45.44,68.78,53.86,77.61a13,13,0,0,1,6.52-7.81,6,6,0,1,1,7.24,0,13,13,0,0,1,6.52,7.81A14,14,0,0,0,64,54Zm0,7a4,4,0,1,0,4,4A4,4,0,0,0,64,61ZM38,48V88H90V48ZM74.29,80.27a16,16,0,0,1-20.62,0C42.28,70.71,49.14,52,64,52S85.72,70.69,74.29,80.27ZM64,54C51.78,54,45.44,68.78,53.86,77.61a13,13,0,0,1,6.52-7.81,6,6,0,1,1,7.24,0,13,13,0,0,1,6.52,7.81A14,14,0,0,0,64,54Zm0,17c-3.65,0-7.14,3.37-8.47,8.09a13.94,13.94,0,0,0,16.94,0C71.14,74.39,67.65,71,64,71Zm4-6a4,4,0,1,0-4,4A4,4,0,0,0,68,65ZM38,48V88H90V48ZM74.29,80.27a16,16,0,0,1-20.62,0C42.28,70.71,49.14,52,64,52S85.72,70.69,74.29,80.27ZM50,40a14,14,0,1,1,28,0v6h4V40a18,18,0,0,0-36,0v6h4ZM64,54C51.78,54,45.44,68.78,53.86,77.61a13,13,0,0,1,6.52-7.81,6,6,0,1,1,7.24,0,13,13,0,0,1,6.52,7.81A14,14,0,0,0,64,54Zm0-26A12,12,0,0,0,52,40v6H76V40A12,12,0,0,0,64,28Zm0,43c-3.65,0-7.14,3.37-8.47,8.09a13.94,13.94,0,0,0,16.94,0C71.14,74.39,67.65,71,64,71Zm4-6a4,4,0,1,0-4,4A4,4,0,0,0,68,65ZM64,11.38A105.43,105.43,0,0,1,23,23.63v35c0,26.77,16.84,50.94,41,58.9,24.14-8,41-32.13,41-58.9v-35A105.43,105.43,0,0,1,64,11.38ZM92,89a1,1,0,0,1-1,1H37a1,1,0,0,1-1-1V47a1,1,0,0,1,1-1h7V40a20,20,0,1,1,40,0v6h7a1,1,0,0,1,1,1ZM38,88H90V48H38ZM64,52c17.85,0,22.56,25.53,4.82,31.3A16,16,0,0,1,56.05,81.9C41.86,74.1,47.6,52,64,52ZM50,40a14,14,0,1,1,28,0v6h4V40a18,18,0,0,0-36,0v6h4Zm10.4,29.8a6,6,0,1,1,7.24,0,13,13,0,0,1,6.52,7.81A14,14,0,0,0,64,54C51.78,54,45.44,68.78,53.86,77.61A13,13,0,0,1,60.38,69.8ZM64,28A12,12,0,0,0,52,40v6H76V40A12,12,0,0,0,64,28Zm0,43c-3.65,0-7.14,3.37-8.47,8.09a13.94,13.94,0,0,0,16.94,0C71.14,74.39,67.65,71,64,71Zm4-6a4,4,0,1,0-4,4A4,4,0,0,0,68,65Zm-4-4a4,4,0,1,0,4,4A4,4,0,0,0,64,61Zm0-33A12,12,0,0,0,52,40v6H76V40A12,12,0,0,0,64,28Zm0,26C51.78,54,45.44,68.78,53.86,77.61a13,13,0,0,1,6.52-7.81,6,6,0,1,1,7.24,0,13,13,0,0,1,6.52,7.81A14,14,0,0,0,64,54Zm0-32A18,18,0,0,0,46,40v6h4V40a14,14,0,1,1,28,0v6h4V40A18,18,0,0,0,64,22Zm0,32C51.78,54,45.44,68.78,53.86,77.61a13,13,0,0,1,6.52-7.81,6,6,0,1,1,7.24,0,13,13,0,0,1,6.52,7.81A14,14,0,0,0,64,54Zm0,7a4,4,0,1,0,4,4A4,4,0,0,0,64,61ZM38,48V88H90V48ZM74.29,80.27a16,16,0,0,1-20.62,0C42.28,70.71,49.14,52,64,52S85.72,70.69,74.29,80.27ZM64,54C51.78,54,45.44,68.78,53.86,77.61a13,13,0,0,1,6.52-7.81,6,6,0,1,1,7.24,0,13,13,0,0,1,6.52,7.81A14,14,0,0,0,64,54Zm0,17c-3.65,0-7.14,3.37-8.47,8.09a13.94,13.94,0,0,0,16.94,0C71.14,74.39,67.65,71,64,71Zm4-6a4,4,0,1,0-4,4A4,4,0,0,0,68,65Zm-4-4a4,4,0,1,0,4,4A4,4,0,0,0,64,61Zm0-7C51.78,54,45.44,68.78,53.86,77.61a13,13,0,0,1,6.52-7.81,6,6,0,1,1,7.24,0,13,13,0,0,1,6.52,7.81A14,14,0,0,0,64,54Zm0,0C51.78,54,45.44,68.78,53.86,77.61a13,13,0,0,1,6.52-7.81,6,6,0,1,1,7.24,0,13,13,0,0,1,6.52,7.81A14,14,0,0,0,64,54Zm0,7a4,4,0,1,0,4,4A4,4,0,0,0,64,61ZM38,48V88H90V48ZM74.29,80.27a16,16,0,0,1-20.62,0C42.28,70.71,49.14,52,64,52S85.72,70.69,74.29,80.27ZM64,54C51.78,54,45.44,68.78,53.86,77.61a13,13,0,0,1,6.52-7.81,6,6,0,1,1,7.24,0,13,13,0,0,1,6.52,7.81A14,14,0,0,0,64,54Zm0,17c-3.65,0-7.14,3.37-8.47,8.09a13.94,13.94,0,0,0,16.94,0C71.14,74.39,67.65,71,64,71Zm4-6a4,4,0,1,0-4,4A4,4,0,0,0,68,65Zm-4-4a4,4,0,1,0,4,4A4,4,0,0,0,64,61Zm0-39A18,18,0,0,0,46,40v6h4V40a14,14,0,1,1,28,0v6h4V40A18,18,0,0,0,64,22Zm0,6A12,12,0,0,0,52,40v6H76V40A12,12,0,0,0,64,28Zm0,33a4,4,0,1,0,4,4A4,4,0,0,0,64,61Zm0,0a4,4,0,1,0,4,4A4,4,0,0,0,64,61Zm0-33A12,12,0,0,0,52,40v6H76V40A12,12,0,0,0,64,28Zm0-6A18,18,0,0,0,46,40v6h4V40a14,14,0,1,1,28,0v6h4V40A18,18,0,0,0,64,22Zm0,39a4,4,0,1,0,4,4A4,4,0,0,0,64,61Zm0,0a4,4,0,1,0,4,4A4,4,0,0,0,64,61Zm0-7C51.78,54,45.44,68.78,53.86,77.61a13,13,0,0,1,6.52-7.81,6,6,0,1,1,7.24,0,13,13,0,0,1,6.52,7.81A14,14,0,0,0,64,54Zm0,0C51.78,54,45.44,68.78,53.86,77.61a13,13,0,0,1,6.52-7.81,6,6,0,1,1,7.24,0,13,13,0,0,1,6.52,7.81A14,14,0,0,0,64,54Zm0,7a4,4,0,1,0,4,4A4,4,0,0,0,64,61ZM38,48V88H90V48ZM74.29,80.27a16,16,0,0,1-20.62,0C42.28,70.71,49.14,52,64,52S85.72,70.69,74.29,80.27ZM64,54C51.78,54,45.44,68.78,53.86,77.61a13,13,0,0,1,6.52-7.81,6,6,0,1,1,7.24,0,13,13,0,0,1,6.52,7.81A14,14,0,0,0,64,54Zm0,17c-3.65,0-7.14,3.37-8.47,8.09a13.94,13.94,0,0,0,16.94,0C71.14,74.39,67.65,71,64,71Zm4-6a4,4,0,1,0-4,4A4,4,0,0,0,68,65Zm-4-4a4,4,0,1,0,4,4A4,4,0,0,0,64,61Zm0,0a4,4,0,1,0,4,4A4,4,0,0,0,64,61Zm0,0a4,4,0,1,0,4,4A4,4,0,0,0,64,61Zm0,0a4,4,0,1,0,4,4A4,4,0,0,0,64,61Zm0,0a4,4,0,1,0,4,4A4,4,0,0,0,64,61Zm0-7C51.78,54,45.44,68.78,53.86,77.61a13,13,0,0,1,6.52-7.81,6,6,0,1,1,7.24,0,13,13,0,0,1,6.52,7.81A14,14,0,0,0,64,54Zm0,0C51.78,54,45.44,68.78,53.86,77.61a13,13,0,0,1,6.52-7.81,6,6,0,1,1,7.24,0,13,13,0,0,1,6.52,7.81A14,14,0,0,0,64,54Zm0,7a4,4,0,1,0,4,4A4,4,0,0,0,64,61ZM38,48V88H90V48ZM74.29,80.27a16,16,0,0,1-20.62,0C42.28,70.71,49.14,52,64,52S85.72,70.69,74.29,80.27ZM64,54C51.78,54,45.44,68.78,53.86,77.61a13,13,0,0,1,6.52-7.81,6,6,0,1,1,7.24,0,13,13,0,0,1,6.52,7.81A14,14,0,0,0,64,54Zm0,17c-3.65,0-7.14,3.37-8.47,8.09a13.94,13.94,0,0,0,16.94,0C71.14,74.39,67.65,71,64,71Zm4-6a4,4,0,1,0-4,4A4,4,0,0,0,68,65Zm-4-4a4,4,0,1,0,4,4A4,4,0,0,0,64,61Zm0,0a4,4,0,1,0,4,4A4,4,0,0,0,64,61Zm0-39A18,18,0,0,0,46,40v6h4V40a14,14,0,1,1,28,0v6h4V40A18,18,0,0,0,64,22Zm0,6A12,12,0,0,0,52,40v6H76V40A12,12,0,0,0,64,28Zm0,0A12,12,0,0,0,52,40v6H76V40A12,12,0,0,0,64,28Zm0-6A18,18,0,0,0,46,40v6h4V40a14,14,0,1,1,28,0v6h4V40A18,18,0,0,0,64,22Zm0,39a4,4,0,1,0,4,4A4,4,0,0,0,64,61Zm0,0a4,4,0,1,0,4,4A4,4,0,0,0,64,61Zm0,0a4,4,0,1,0,4,4A4,4,0,0,0,64,61Zm0-7C51.78,54,45.44,68.78,53.86,77.61a13,13,0,0,1,6.52-7.81,6,6,0,1,1,7.24,0,13,13,0,0,1,6.52,7.81A14,14,0,0,0,64,54Zm0,0C51.78,54,45.44,68.78,53.86,77.61a13,13,0,0,1,6.52-7.81,6,6,0,1,1,7.24,0,13,13,0,0,1,6.52,7.81A14,14,0,0,0,64,54Zm0,7a4,4,0,1,0,4,4A4,4,0,0,0,64,61ZM38,48V88H90V48ZM74.29,80.27a16,16,0,0,1-20.62,0C42.28,70.71,49.14,52,64,52S85.72,70.69,74.29,80.27ZM64,54C51.78,54,45.44,68.78,53.86,77.61a13,13,0,0,1,6.52-7.81,6,6,0,1,1,7.24,0,13,13,0,0,1,6.52,7.81A14,14,0,0,0,64,54Zm0,17c-3.65,0-7.14,3.37-8.47,8.09a13.94,13.94,0,0,0,16.94,0C71.14,74.39,67.65,71,64,71Zm4-6a4,4,0,1,0-4,4A4,4,0,0,0,68,65Zm-4-4a4,4,0,1,0,4,4A4,4,0,0,0,64,61Zm0,0a4,4,0,1,0,4,4A4,4,0,0,0,64,61Zm0-33A12,12,0,0,0,52,40v6H76V40A12,12,0,0,0,64,28Zm0-6A18,18,0,0,0,46,40v6h4V40a14,14,0,1,1,28,0v6h4V40A18,18,0,0,0,64,22Zm0,39a4,4,0,1,0,4,4A4,4,0,0,0,64,61Zm0,0a4,4,0,1,0,4,4A4,4,0,0,0,64,61Zm0,0a4,4,0,1,0,4,4A4,4,0,0,0,64,61Zm0-7C51.78,54,45.44,68.78,53.86,77.61a13,13,0,0,1,6.52-7.81,6,6,0,1,1,7.24,0,13,13,0,0,1,6.52,7.81A14,14,0,0,0,64,54Zm0,0C51.78,54,45.44,68.78,53.86,77.61a13,13,0,0,1,6.52-7.81,6,6,0,1,1,7.24,0,13,13,0,0,1,6.52,7.81A14,14,0,0,0,64,54Zm0,7a4,4,0,1,0,4,4A4,4,0,0,0,64,61ZM38,48V88H90V48ZM74.29,80.27a16,16,0,0,1-20.62,0C42.28,70.71,49.14,52,64,52S85.72,70.69,74.29,80.27ZM64,54C51.78,54,45.44,68.78,53.86,77.61a13,13,0,0,1,6.52-7.81,6,6,0,1,1,7.24,0,13,13,0,0,1,6.52,7.81A14,14,0,0,0,64,54Zm0,17c-3.65,0-7.14,3.37-8.47,8.09a13.94,13.94,0,0,0,16.94,0C71.14,74.39,67.65,71,64,71Zm4-6a4,4,0,1,0-4,4A4,4,0,0,0,68,65Zm-4-4a4,4,0,1,0,4,4A4,4,0,0,0,64,61Zm0,0a4,4,0,1,0,4,4A4,4,0,0,0,64,61Zm0-33A12,12,0,0,0,52,40v6H76V40A12,12,0,0,0,64,28Zm0-6A18,18,0,0,0,46,40v6h4V40a14,14,0,1,1,28,0v6h4V40A18,18,0,0,0,64,22Z" />
    <path class="cls-1"
      d="M64.18,1.11C63.37.62,44.76,15,14,15V58.67c0,32,20.52,60.07,50,68.33,29.48-8.26,50-36.29,50-68.33V15A96.78,96.78,0,0,1,64.18,1.11ZM107,58.67c0,27.76-17.56,52.83-42.71,61a.94.94,0,0,1-.62,0C38.54,111.5,21,86.43,21,58.67v-36a1,1,0,0,1,.94-1A103.24,103.24,0,0,0,63.51,9.32a1,1,0,0,1,1,0,103.24,103.24,0,0,0,41.59,12.35,1,1,0,0,1,.94,1Z" />
    <path class="cls-1" d="M73.17,81.13a10.88,10.88,0,0,0,1.11-.86C73.92,80.57,73.55,80.86,73.17,81.13Z" />
  </g>
</svg>