<svg xmlns="http://www.w3.org/2000/svg" viewBox="0 0 64 64"><title>Product Management</title><g id="Product_Management" data-name="Product Management"><path d="M33.53,7.13a9,9,0,1,0,7.34,7.34A9,9,0,0,0,33.53,7.13ZM31,15h1.89a3.05,3.05,0,0,1,3,2A3,3,0,0,1,33,21v1a1,1,0,0,1-2,0V21H29a1,1,0,0,1,0-2h4a1,1,0,0,0,0-2H31.11a3.05,3.05,0,0,1-2.95-2A3,3,0,0,1,31,11V10a1,1,0,0,1,2,0v1h2a1,1,0,0,1,0,2H31A1,1,0,0,0,31,15Z"/><path d="M47.86,20.54l-2.25-1.3a13.65,13.65,0,0,0,0-6.48l2.25-1.3-4-6.92L41.61,5.83A14,14,0,0,0,36,2.59V0H28V2.59a14,14,0,0,0-5.61,3.24L20.14,4.54l-4,6.92,2.25,1.3a13.65,13.65,0,0,0,0,6.48l-2.25,1.3,4,6.92,2.25-1.29A14,14,0,0,0,28,29.41V32h8V29.41a14,14,0,0,0,5.61-3.24l2.25,1.29Zm-14,6.31a11,11,0,1,1,9-9A11,11,0,0,1,33.86,26.85Z"/><rect x="11" y="57" width="4" height="2"/><path d="M6,46V64H40V37.88l-4.58,7.63C35,46.22,36.86,46,6,46ZM17,60a1,1,0,0,1-1,1H10a1,1,0,0,1-1-1V56a1,1,0,0,1,1-1h6a1,1,0,0,1,1,1Z"/><path d="M42,37.88V64H58V46H47.44C46.65,46,46.84,46,42,37.88Z"/><polygon points="48 44 64 44 58 34 42 34 48 44"/><polygon points="0 44 34 44 40 34 6 34 0 44"/></g></svg>