<svg xmlns="http://www.w3.org/2000/svg" viewBox="0 0 64 64"><title>Project Management</title><g id="Project_Management" data-name="Project Management"><path d="M29,34a2,2,0,0,1-2-2V28h4v4A2,2,0,0,1,29,34Z"/><path d="M57,16V26a3,3,0,0,1-3,3H33V27a1,1,0,0,0-1-1H26a1,1,0,0,0-1,1v2H4a3,3,0,0,1-3-3V16a4,4,0,0,1,4-4H53A4,4,0,0,1,57,16Z"/><path d="M57,30c0,9.28,0,8.58-.11,8.67A13.38,13.38,0,0,0,54,37V34a1,1,0,0,0-1-1H45a1,1,0,0,0-1,1v3a13.38,13.38,0,0,0-2.89,1.66l-2.6-1.5a1,1,0,0,0-1.37.37l-4,6.92a1,1,0,0,0,.37,1.37l2.6,1.5a12.45,12.45,0,0,0,0,3.34l-2.6,1.5a1,1,0,0,0-.37,1.37l.27.46H5a4,4,0,0,1-4-4V30c1.77,1.34.84,1,24,1v.83A4.12,4.12,0,0,0,28.61,36,4,4,0,0,0,33,32V31C55.32,31,55.19,31.37,57,30Z"/><path d="M52.67,49A3.67,3.67,0,1,1,49,45.33,3.68,3.68,0,0,1,52.67,49Z"/><path d="M59.66,46.31l3-1.71-3-5.2-3,1.71A11.06,11.06,0,0,0,52,38.42V35H46v3.42a11.06,11.06,0,0,0-4.66,2.69l-3-1.71-3,5.2,3,1.71a10.77,10.77,0,0,0,0,5.38l-3,1.71,3,5.2,3-1.71A11.06,11.06,0,0,0,46,59.58V63h6V59.58a11.06,11.06,0,0,0,4.66-2.69l3,1.71,3-5.2-3-1.71A10.77,10.77,0,0,0,59.66,46.31ZM49,54.67A5.67,5.67,0,1,1,54.67,49,5.68,5.68,0,0,1,49,54.67Z"/><path d="M41.64,10H37.91L37.3,6.64a2,2,0,0,0-2-1.64H22.67a2,2,0,0,0-2,1.64L20.09,10H16.36l.89-4.89A5,5,0,0,1,22.17,1H35.83a5,5,0,0,1,4.92,4.11Z"/></g></svg>