<svg xmlns="http://www.w3.org/2000/svg" viewBox="0 0 128 128"><defs><style>.cls-1{fill:#a0aec0;}</style></defs><title>Protection</title><g id="Protection"><path class="cls-1" d="M64,40A22,22,0,1,0,86,62,22,22,0,0,0,64,40Zm12.72,14.7C59.2,72.24,60.6,71,60,71s-.08.34-8.72-8.3a1,1,0,0,1,1.44-1.44L60,68.56,75.28,53.28A1,1,0,0,1,76.72,54.72Z"/><path class="cls-1" d="M64,11.38A105.26,105.26,0,0,1,23,23.63v35c0,26.77,16.84,50.94,41,58.9,24.14-8,41-32.13,41-58.9v-35A105.26,105.26,0,0,1,64,11.38ZM64,86A24,24,0,1,1,88,62,24,24,0,0,1,64,86Z"/><path class="cls-1" d="M64.18,1.11C63.37.62,44.76,15,14,15V58.67c0,32,20.52,60.07,50,68.33,29.48-8.26,50-36.29,50-68.33V15A96.78,96.78,0,0,1,64.18,1.11ZM107,58.67c0,27.76-17.56,52.83-42.71,61a.94.94,0,0,1-.62,0C38.54,111.5,21,86.43,21,58.67v-36a1,1,0,0,1,.94-1A103.24,103.24,0,0,0,63.51,9.32a1.06,1.06,0,0,1,1,0,103.24,103.24,0,0,0,41.59,12.35,1,1,0,0,1,.94,1Z"/></g></svg>