<svg xmlns="http://www.w3.org/2000/svg" viewBox="0 0 64 64"><title>Registration</title><g id="Registration"><polygon points="39.46 58 40.8 56 23.2 56 24.54 58 39.46 58"/><path d="M61,56H43a1,1,0,0,1-.17.55C40.71,59.72,40.7,60,40,60c-17.25,0-16.42.19-16.83-.45C21.05,56.37,21,56.4,21,56H3a2,2,0,0,0-2,2v2a4,4,0,0,0,4,4H59a4,4,0,0,0,4-4V58A2,2,0,0,0,61,56Z"/><rect x="52" y="19" width="2" height="30"/><path d="M59,17a3,3,0,0,0-3-3H52v3h3a1,1,0,0,1,1,1V50a1,1,0,0,1-1,1H9a1,1,0,0,1-1-1V18a1,1,0,0,1,1-1h3V14H8a3,3,0,0,0-3,3V54H59Z"/><rect x="10" y="19" width="2" height="30"/><rect x="22" y="35" width="20" height="2"/><path d="M50,8H14V49H50ZM32,9c12.63,0,15.27,18.24,3,21.58a11.07,11.07,0,0,1-5,.24,11.22,11.22,0,0,1-5.18-2.46A11,11,0,0,1,32,9ZM44,46a1,1,0,0,1-1,1H21a1,1,0,0,1-1-1V42a1,1,0,0,1,1-1H43a1,1,0,0,1,1,1Zm0-8a1,1,0,0,1-1,1H21a1,1,0,0,1-1-1V34a1,1,0,0,1,1-1H43a1,1,0,0,1,1,1Z"/><rect x="22" y="43" width="20" height="2"/><path d="M28.82,21.55a5.09,5.09,0,0,1-1.46-4.28,4.64,4.64,0,0,1,9.28,0c0,1.47,0,2.89-1.46,4.28a7.26,7.26,0,0,1,3.73,4.21,9,9,0,1,0-13.82,0A7.26,7.26,0,0,1,28.82,21.55Z"/><path d="M27,26.44c-.39,1.13-.28.73-.28.83a9.05,9.05,0,0,0,10.62,0c0-.1.1.27-.28-.82A5.31,5.31,0,0,0,27,26.44Z"/><path d="M34.64,18.18v-.91a2.64,2.64,0,0,0-5.28,0v.91a2.64,2.64,0,0,0,5.28,0Z"/><path d="M50,0H14V6H50ZM18,4a1,1,0,0,1,0-2A1,1,0,0,1,18,4Zm4,0a1,1,0,0,1,0-2A1,1,0,0,1,22,4Zm4,0a1,1,0,0,1,0-2A1,1,0,0,1,26,4Z"/></g></svg>