<svg xmlns="http://www.w3.org/2000/svg" viewBox="0 0 128 128">
  <defs>
    <style>
      .cls-1 {
        fill: #a0aec0;
      }
    </style>
  </defs>
  <g id="Reviews">
    <rect class="cls-1" x="26" y="88" width="24" height="39" />
    <path class="cls-1"
      d="M102.07,99.22A5.44,5.44,0,0,1,96.56,104h-3.2a5.5,5.5,0,1,1,0,11H91.72a5.5,5.5,0,1,1,0,11H61.13A11.92,11.92,0,0,1,52,121.72c0-31.91,0-26.65,0-30.49C64.1,68.34,63,72.86,63,59.38c0-5.32,8.2-5.54,11.67,1.32a10.62,10.62,0,0,1,1.17,4.86c0,7.69-2.1,12.44-3.94,17.44H96.56a5.44,5.44,0,0,1,5.51,4.78,5.25,5.25,0,0,1-5.23,5.72A5.25,5.25,0,0,1,102.07,99.22Z" />
    <path class="cls-1"
      d="M18.89,18.15l4.73.69-3.43,3.34c-.52.52-.34.6.52,5.62-4.64-2.45-4.37-2.35-4.71-2.35s-.16-.05-4.71,2.35c.87-5.07,1-5.11.52-5.62L8.38,18.84l4.73-.69c.7-.08.61-.24,2.89-4.84C18.22,17.8,18.19,18.07,18.89,18.15Z" />
    <path class="cls-1"
      d="M44.19,22.18l3.43-3.34-4.73-.69c-.7-.08-.61-.24-2.89-4.84-2.22,4.49-2.19,4.76-2.89,4.84l-4.73.69,3.43,3.34c.52.52.34.6-.52,5.62,4.64-2.45,4.37-2.35,4.71-2.35s.16-.05,4.71,2.35C43.84,22.73,43.68,22.69,44.19,22.18Zm0,0,3.43-3.34-4.73-.69c-.7-.08-.61-.24-2.89-4.84-2.22,4.49-2.19,4.76-2.89,4.84l-4.73.69,3.43,3.34c.52.52.34.6-.52,5.62,4.64-2.45,4.37-2.35,4.71-2.35s.16-.05,4.71,2.35C43.84,22.73,43.68,22.69,44.19,22.18Zm0,0,3.43-3.34-4.73-.69c-.7-.08-.61-.24-2.89-4.84-2.22,4.49-2.19,4.76-2.89,4.84l-4.73.69,3.43,3.34c.52.52.34.6-.52,5.62,4.64-2.45,4.37-2.35,4.71-2.35s.16-.05,4.71,2.35C43.84,22.73,43.68,22.69,44.19,22.18Zm24,0,3.43-3.34-4.73-.69c-.7-.08-.61-.24-2.89-4.84-2.22,4.49-2.19,4.76-2.89,4.84l-4.73.69,3.43,3.34c.52.52.34.6-.52,5.62,4.64-2.45,4.37-2.35,4.71-2.35s.16-.05,4.71,2.35C67.84,22.73,67.68,22.69,68.19,22.18Zm24,0,3.43-3.34-4.73-.69c-.7-.08-.61-.24-2.89-4.84-2.22,4.49-2.19,4.76-2.89,4.84l-4.73.69,3.43,3.34c.52.52.34.6-.52,5.62,4.64-2.45,4.37-2.35,4.71-2.35s.16-.05,4.71,2.35C91.84,22.73,91.68,22.69,92.19,22.18Zm0,0,3.43-3.34-4.73-.69c-.7-.08-.61-.24-2.89-4.84-2.22,4.49-2.19,4.76-2.89,4.84l-4.73.69,3.43,3.34c.52.52.34.6-.52,5.62,4.64-2.45,4.37-2.35,4.71-2.35s.16-.05,4.71,2.35C91.84,22.73,91.68,22.69,92.19,22.18Zm-24,0,3.43-3.34-4.73-.69c-.7-.08-.61-.24-2.89-4.84-2.22,4.49-2.19,4.76-2.89,4.84l-4.73.69,3.43,3.34c.52.52.34.6-.52,5.62,4.64-2.45,4.37-2.35,4.71-2.35s.16-.05,4.71,2.35C67.84,22.73,67.68,22.69,68.19,22.18Zm-24,0,3.43-3.34-4.73-.69c-.7-.08-.61-.24-2.89-4.84-2.22,4.49-2.19,4.76-2.89,4.84l-4.73.69,3.43,3.34c.52.52.34.6-.52,5.62,4.64-2.45,4.37-2.35,4.71-2.35s.16-.05,4.71,2.35C43.84,22.73,43.68,22.69,44.19,22.18ZM118.87,1H9.13A8.13,8.13,0,0,0,1,9.13V31.87A8.13,8.13,0,0,0,9.13,40H55.84L64,51l8.16-11h46.71A8.13,8.13,0,0,0,127,31.87V9.13A8.13,8.13,0,0,0,118.87,1ZM26.52,18.86,22,23.27l1.07,6.22a1,1,0,0,1-1,1.19c-.38,0-.08.09-6.06-3.05-6,3.16-6,3.36-6.66,2.86S8.85,30,10,23.27c-4.86-4.75-5-4.65-4.78-5.46s.32-.62,7.07-1.6l2.79-5.66a1.07,1.07,0,0,1,1.84,0l2.79,5.66,6.25.91A1,1,0,0,1,26.52,18.86Zm24,0L46,23.27l1.07,6.22a1,1,0,0,1-1,1.19c-.38,0-.08.09-6.06-3.05-6,3.16-6,3.36-6.66,2.86s-.49-.54.66-7.22c-4.86-4.75-5-4.65-4.78-5.46s.32-.62,7.07-1.6l2.79-5.66a1.07,1.07,0,0,1,1.84,0l2.79,5.66,6.25.91A1,1,0,0,1,50.52,18.86Zm24,0L70,23.27l1.07,6.22a1,1,0,0,1-1,1.19c-.38,0-.08.09-6.06-3.05-6,3.16-6,3.36-6.66,2.86s-.49-.54.66-7.22c-4.86-4.75-5-4.65-4.78-5.46s.32-.62,7.07-1.6l2.79-5.66a1.07,1.07,0,0,1,1.84,0l2.79,5.66,6.25.91A1,1,0,0,1,74.52,18.86Zm24,0L94,23.27l1.07,6.22a1,1,0,0,1-1,1.19c-.38,0-.08.09-6.06-3.05-6,3.16-6,3.36-6.66,2.86s-.49-.54.66-7.22c-4.86-4.75-5-4.65-4.78-5.46s.32-.62,7.07-1.6l2.79-5.66a1.07,1.07,0,0,1,1.84,0l2.79,5.66,6.25.91A1,1,0,0,1,98.52,18.86Zm24,0L118,23.27l1.07,6.22a1,1,0,0,1-1,1.19c-.38,0-.08.09-6.06-3.05-6,3.16-6,3.36-6.66,2.86s-.49-.54.66-7.22c-4.86-4.75-5-4.65-4.78-5.46s.32-.62,7.07-1.6l2.79-5.66a1.07,1.07,0,0,1,1.84,0l2.79,5.66,6.25.91A1,1,0,0,1,122.52,18.86Zm-8.4-1.27L112,13.31l-2.12,4.28c-.32.65-.41.51-5.5,1.25,3.68,3.58,3.85,3.54,3.72,4.24l-.81,4.72,4.23-2.23c.64-.34.68-.15,5.19,2.23l-.81-4.72c-.13-.74.16-.77,3.72-4.24C114.52,18.1,114.43,18.23,114.12,17.59Zm-24,0L88,13.31l-2.12,4.28c-.32.65-.41.51-5.5,1.25,3.68,3.58,3.85,3.54,3.72,4.24l-.81,4.72,4.23-2.23c.64-.34.68-.15,5.19,2.23l-.81-4.72c-.13-.74.16-.77,3.72-4.24C90.52,18.1,90.43,18.23,90.12,17.59Zm-24,0L64,13.31l-2.12,4.28c-.32.65-.41.51-5.5,1.25,3.68,3.58,3.85,3.54,3.72,4.24l-.81,4.72,4.23-2.23c.64-.34.68-.15,5.19,2.23l-.81-4.72c-.13-.74.16-.77,3.72-4.24C66.52,18.1,66.43,18.23,66.12,17.59Zm-24,0L40,13.31l-2.12,4.28c-.32.65-.41.51-5.5,1.25,3.68,3.58,3.85,3.54,3.72,4.24l-.81,4.72,4.23-2.23c.64-.34.68-.15,5.19,2.23l-.81-4.72c-.13-.74.16-.77,3.72-4.24C42.52,18.1,42.43,18.23,42.12,17.59Zm2.07,4.59,3.43-3.34-4.73-.69c-.7-.08-.61-.24-2.89-4.84-2.22,4.49-2.19,4.76-2.89,4.84l-4.73.69,3.43,3.34c.52.52.34.6-.52,5.62,4.64-2.45,4.37-2.35,4.71-2.35s.16-.05,4.71,2.35C43.84,22.73,43.68,22.69,44.19,22.18Zm24,0,3.43-3.34-4.73-.69c-.7-.08-.61-.24-2.89-4.84-2.22,4.49-2.19,4.76-2.89,4.84l-4.73.69,3.43,3.34c.52.52.34.6-.52,5.62,4.64-2.45,4.37-2.35,4.71-2.35s.16-.05,4.71,2.35C67.84,22.73,67.68,22.69,68.19,22.18Zm0,0,3.43-3.34-4.73-.69c-.7-.08-.61-.24-2.89-4.84-2.22,4.49-2.19,4.76-2.89,4.84l-4.73.69,3.43,3.34c.52.52.34.6-.52,5.62,4.64-2.45,4.37-2.35,4.71-2.35s.16-.05,4.71,2.35C67.84,22.73,67.68,22.69,68.19,22.18Zm-24,0,3.43-3.34-4.73-.69c-.7-.08-.61-.24-2.89-4.84-2.22,4.49-2.19,4.76-2.89,4.84l-4.73.69,3.43,3.34c.52.52.34.6-.52,5.62,4.64-2.45,4.37-2.35,4.71-2.35s.16-.05,4.71,2.35C43.84,22.73,43.68,22.69,44.19,22.18Z" />
  </g>
</svg>