<svg xmlns="http://www.w3.org/2000/svg" viewBox="0 0 64 64"><title>SaaS</title><g id="SaaS"><path d="M17,35l-.85-1.46a1,1,0,0,1,.37-1.37l2.6-1.5a12.45,12.45,0,0,1,0-3.34l-2.6-1.5a1,1,0,0,1-.37-1.37l4-6.92a1,1,0,0,1,1.37-.37l2.6,1.5A13.38,13.38,0,0,1,27,17V14a1,1,0,0,1,1-1h8a1,1,0,0,1,1,1v3a13.38,13.38,0,0,1,2.89,1.66l2.6-1.5a1,1,0,0,1,1.37.37l4,6.92a1,1,0,0,1-.37,1.37l-2.6,1.5a12.45,12.45,0,0,1,0,3.34l2.6,1.5a1,1,0,0,1,.37,1.37L47,35H49.7A8.2,8.2,0,0,0,58,27.3a8,8,0,0,0-6-8c0-.58.42-.74-4.13-5.9a4.06,4.06,0,0,0-4.16-1.24A14,14,0,0,0,16,15,10,10,0,0,0,6,25.67C6.34,30.47,10.26,35,17,35Z"/><path d="M33,57.13V45H31V57.13A4,4,0,0,1,33,57.13Z"/><path d="M4,57.13V51H21a1,1,0,0,0,1-1V40.55l-1.36.78L20,40.22V49H3a1,1,0,0,0-1,1v7.13A4,4,0,0,1,4,57.13Z"/><path d="M44,40.22l-.64,1.11L42,40.55V50a1,1,0,0,0,1,1H60v6.13a4,4,0,0,1,2,0V50a1,1,0,0,0-1-1H44Z"/><circle cx="32" cy="61" r="2"/><circle cx="18" cy="61" r="2"/><circle cx="46" cy="61" r="2"/><circle cx="61" cy="61" r="2"/><circle cx="3" cy="61" r="2"/><path d="M25,54H18a1,1,0,0,0-1,1v2.13a4,4,0,0,1,2,0V56h7a1,1,0,0,0,1-1V41a12.28,12.28,0,0,1-2-1.05Z"/><path d="M45,57.13a4,4,0,0,1,2,0V55a1,1,0,0,0-1-1H39V39.94A12.28,12.28,0,0,1,37,41V55a1,1,0,0,0,1,1h7Z"/><path d="M32,25.33A3.67,3.67,0,1,0,35.67,29,3.68,3.68,0,0,0,32,25.33Z"/><path d="M42.62,38.6l3-5.2-3-1.71a10.77,10.77,0,0,0,0-5.38l3-1.71-3-5.2-3,1.71A11.06,11.06,0,0,0,35,18.42V15H29v3.42a11.06,11.06,0,0,0-4.66,2.69l-3-1.71-3,5.2,3,1.71a10.77,10.77,0,0,0,0,5.38l-3,1.71,3,5.2,3-1.71A11.06,11.06,0,0,0,29,39.58V43h6V39.58a11.06,11.06,0,0,0,4.66-2.69ZM32,34.67A5.67,5.67,0,1,1,37.67,29,5.68,5.68,0,0,1,32,34.67Z"/></g></svg>