<svg xmlns="http://www.w3.org/2000/svg" viewBox="0 0 64 64"><title>Shcool</title><g id="Shcool"><path d="M19,57v3H45V57Z"/><rect x="47" y="45" width="3" height="3"/><rect x="52" y="45" width="3" height="3"/><path d="M43,55h4v3H60V39H43Zm2-11a1,1,0,0,1,1-1H56a1,1,0,0,1,1,1v5a1,1,0,0,1-1,1H46a1,1,0,0,1-1-1Z"/><rect x="9" y="45" width="3" height="3"/><rect x="14" y="45" width="3" height="3"/><path d="M21,39H4V58H17V55h4ZM19,49a1,1,0,0,1-1,1H8a1,1,0,0,1-1-1V44a1,1,0,0,1,1-1H18a1,1,0,0,1,1,1Z"/><path d="M21,31H16a2,2,0,0,1-1.31-3.51l4-3.49H9L1,37H21Z"/><path d="M48,31H43v6H63L55,24H45.32l4,3.49A2,2,0,0,1,48,31Z"/><path d="M42.23,29H48L32,15,16,29h5.77L32,20Z"/><rect x="28" y="49" width="3" height="6"/><rect x="33" y="49" width="3" height="6"/><path d="M41,55V30.58l-9-7.92-9,7.92V55h3V48a1,1,0,0,1,1-1H37a1,1,0,0,1,1,1v7ZM32,39a5,5,0,1,1,5-5A5,5,0,0,1,32,39Z"/><circle cx="32" cy="34" r="3"/><path d="M33,13.22V10h7V4H33a1,1,0,0,0-2,0v9.22l1-.88Z"/></g></svg>