<svg xmlns="http://www.w3.org/2000/svg" viewBox="0 0 64 64"><title>School Bus</title><g id="School_Bus" data-name="School Bus"><circle cx="12" cy="42" r="2"/><rect x="39" y="38" width="5" height="2"/><rect x="39" y="42" width="5" height="2"/><rect x="39" y="46" width="5" height="2"/><path d="M5,48H18V37a1,1,0,0,1,1-1H45a1,1,0,0,1,1,1V48H59V41A12,12,0,0,0,47,29c-32.47,0-31.54-.32-34.49.87A12,12,0,0,0,5,41ZM52,38a4,4,0,1,1-4,4A4,4,0,0,1,52,38ZM12,38a4,4,0,1,1-4,4A4,4,0,0,1,12,38Z"/><circle cx="52" cy="42" r="2"/><rect x="20" y="46" width="5" height="2"/><rect x="27" y="42" width="10" height="2"/><rect x="20" y="38" width="5" height="2"/><rect x="20" y="42" width="5" height="2"/><rect x="27" y="38" width="10" height="2"/><rect x="27" y="46" width="10" height="2"/><rect x="4" y="50" width="56" height="4"/><path d="M6,61a2,2,0,0,0,2,2h4a2,2,0,0,0,2-2V56H6Z"/><path d="M50,61a2,2,0,0,0,2,2h4a2,2,0,0,0,2-2V56H50Z"/><path d="M50,27.33V14H33V27C48.33,27,48.06,26.89,50,27.33Z"/><path d="M31,27V14H14V27.33C15.93,26.89,15.72,27,31,27Z"/><rect x="28" y="6" width="8" height="2"/><path d="M12,13a1,1,0,0,1,1-1H51a1,1,0,0,1,1,1V27.93a13.89,13.89,0,0,1,3,1.59V13C55,3.43,41.63,1,32,1S9,3.41,9,13V29.52a13.89,13.89,0,0,1,3-1.59ZM43,5a2,2,0,1,1-2,2A2,2,0,0,1,43,5ZM26,5a1,1,0,0,1,1-1H37a1,1,0,0,1,1,1V9a1,1,0,0,1-1,1H27a1,1,0,0,1-1-1ZM21,5a2,2,0,1,1-2,2A2,2,0,0,1,21,5Z"/><path d="M61.93,17.34c.09-.26.07-.12.07-2.34a3,3,0,0,0-3-3H57a19.54,19.54,0,0,1,0,2h2a1,1,0,0,1,1,1c0,.51,0,1.52,0,2a2.23,2.23,0,0,0-2,2.22v3.52A2.24,2.24,0,0,0,60.24,25h.52A2.24,2.24,0,0,0,63,22.76C63,19.48,63.33,18.2,61.93,17.34Z"/><path d="M6,22.76V19.24A2.23,2.23,0,0,0,4,17V15a1,1,0,0,1,1-1H7a14.89,14.89,0,0,1,.06-2H5a3,3,0,0,0-3,3c0,2.23,0,2.09.07,2.34C.67,18.2,1,19.44,1,22.76A2.24,2.24,0,0,0,3.24,25h.52A2.24,2.24,0,0,0,6,22.76Z"/></g></svg>