<svg xmlns="http://www.w3.org/2000/svg" viewBox="0 0 128 128">
  <defs>
    <style>
      .cls-1 {
        fill: #a0aec0;
      }
    </style>
  </defs>
  <g id="Searching">
    <path class="cls-1"
      d="M111.68,1A11,11,0,0,0,107,10V84.17L95.12,72.29A4.39,4.39,0,0,0,92,71c-2.43,0-.48,1.45-4.27-2.34a29,29,0,1,0-7.07,7.07C84.45,79.52,83,77.56,83,80a4.39,4.39,0,0,0,1.29,3.12c22.19,22.19,20.95,21.35,22.71,21.77v11.78c0,9.1-10.88,14-17.4,7A10,10,0,0,1,87,117.63c0-.65,0-9.73,0-9.63a1,1,0,0,0-1-1H21V11A10,10,0,0,1,31,1Z" />
    <path class="cls-1" d="M44,52A20,20,0,0,0,64,72C81.65,72,90.76,50.5,78.13,37.87S44,34.27,44,52Z" />
    <path class="cls-1"
      d="M44.91,32.91a27,27,0,1,0,38.18,0A27,27,0,0,0,44.91,32.91ZM79.57,67.57a22,22,0,1,1-4.1-34.39A22,22,0,0,1,79.57,67.57Z" />
    <path class="cls-1"
      d="M93.71,73.71a2.41,2.41,0,0,0-3.42,0c-.24.24.35.69-3.77-3.43a29.3,29.3,0,0,1-4.24,4.24c4.11,4.11,3.67,3.53,3.43,3.77a2.41,2.41,0,0,0,0,3.42c22,22,20.86,21.29,22.29,21.29s1.42-.42,6.29-5.29a2.41,2.41,0,0,0,0-3.42Z" />
    <path class="cls-1" d="M90.38,127H11A10,10,0,0,1,1,117v-8H85v8A12,12,0,0,0,90.38,127Z" />
    <path class="cls-1" d="M118,1a9,9,0,0,1,9,9v9H109V10A9,9,0,0,1,118,1Z" />
  </g>
</svg>