<svg xmlns="http://www.w3.org/2000/svg" viewBox="0 0 128 128"><defs><style>.cls-1{fill:#a0aec0;}</style></defs><title>See You Soon</title><g id="See_You_Soon" data-name="See You Soon"><path class="cls-1" d="M66.41,123c18.14,0,28.51-13,31.1-28.51s5.18-23.32,7.78-28.51,0-13-7.78-7.77-13,23.32-13,23.32L76.89,36.26A5.58,5.58,0,0,0,65.82,37.6l2.36,31.83L56,36.34a5.71,5.71,0,0,0-10.84,3.54L55,74.32,39.69,48.54a5.42,5.42,0,0,0-9.6,5L42.93,81.68,32.09,66.37a5.46,5.46,0,0,0-9.19,5.89L44.17,109S51.75,123,66.41,123Z"/><path class="cls-1" d="M127,69h-8a1,1,0,0,1,0-2h8A1,1,0,0,1,127,69Z"/><path class="cls-1" d="M9,69H1a1,1,0,0,1,0-2H9A1,1,0,0,1,9,69Z"/><path class="cls-1" d="M63,13V5a1,1,0,0,1,2,0v8A1,1,0,0,1,63,13Z"/><path class="cls-1" d="M111.63,41.52a1,1,0,0,1-.51-1.9l6.93-4a1,1,0,0,1,1,1.76C111.55,41.72,112,41.52,111.63,41.52Z"/><path class="cls-1" d="M9.44,100.52a1,1,0,0,1-.51-1.9l6.93-4a1,1,0,0,1,1,1.76C9.36,100.72,9.83,100.52,9.44,100.52Z"/><path class="cls-1" d="M16.37,41.52c-.39,0,.09.21-7.44-4.14a1,1,0,0,1,1-1.76l6.93,4A1,1,0,0,1,16.37,41.52Z"/><path class="cls-1" d="M118.56,100.52c-.39,0,.09.21-7.44-4.14a1,1,0,0,1,1-1.76l6.93,4A1,1,0,0,1,118.56,100.52Z"/><path class="cls-1" d="M36.5,21.39c-.8,0-.5.15-4.88-7.44a1,1,0,0,1,1.76-1l4,6.93A1,1,0,0,1,36.5,21.39Z"/><path class="cls-1" d="M91.5,21.39a1,1,0,0,1-.88-1.53l4-6.93a1,1,0,0,1,1.76,1C92.07,21.42,92.32,21.39,91.5,21.39Z"/></g></svg>