<svg xmlns="http://www.w3.org/2000/svg" viewBox="0 0 128 128"><defs><style>.cls-1{fill:#a0aec0;}</style></defs><title>Sent Message</title><g id="Sent_Message" data-name="Sent Message"><path class="cls-1" d="M72.66,63.32,36.25,93.47l9.54-59.19C74.15,65,72.1,62.76,72.66,63.32Z"/><path class="cls-1" d="M115.63,95h-78L74.26,64.64a13.11,13.11,0,0,0,14.34.47Z"/><path class="cls-1" d="M125.38,33C86.09,64.66,88.63,62.63,88.24,62.9a11.07,11.07,0,0,1-14.58-1.47L47.39,33Z"/><polygon class="cls-1" points="126.76 34.5 117.21 93.71 90.27 63.91 126.76 34.5"/><path class="cls-1" d="M25,64H2a1,1,0,0,1,0-2H25A1,1,0,0,1,25,64Z"/><path class="cls-1" d="M38,43H20a1,1,0,0,1,0-2H38A1,1,0,0,1,38,43Z"/><path class="cls-1" d="M69,23H13a1,1,0,0,1,0-2H69A1,1,0,0,1,69,23Z"/><path class="cls-1" d="M62,107H54a1,1,0,0,1,0-2h8A1,1,0,0,1,62,107Z"/><path class="cls-1" d="M48,107H13a1,1,0,0,1,0-2H48A1,1,0,0,1,48,107Z"/><path class="cls-1" d="M21,86H8a1,1,0,0,1,0-2H21A1,1,0,0,1,21,86Z"/><path class="cls-1" d="M29,86H27a1,1,0,0,1,0-2h2A1,1,0,0,1,29,86Z"/><path class="cls-1" d="M15,43H13a1,1,0,0,1,0-2h2A1,1,0,0,1,15,43Z"/></g></svg>