<svg xmlns="http://www.w3.org/2000/svg" viewBox="0 0 64 64"><title>SEO</title><g id="SEO"><path d="M57.19,38.46l5.16,3-5.16,8.93-6.6-6.61C59.76,29.4,49.48,10,32,10A22,22,0,0,0,10,32c0,17.46,19.37,27.77,33.76,18.59l2.88,2.88A25.82,25.82,0,0,1,39,57v6H25V57a26,26,0,0,1-11.18-6.46l-5.17,3-7-12.12,5.16-3a26.17,26.17,0,0,1,0-12.92l-5.16-3,7-12.12,5.17,3A26,26,0,0,1,25,7V1H39V7a26,26,0,0,1,11.18,6.46l5.17-3,7,12.12-5.16,3A26.17,26.17,0,0,1,57.19,38.46Z"/><path d="M32,22A10,10,0,1,0,42,32,10,10,0,0,0,32,22Zm-1,9h2a3,3,0,0,1,0,6v1a1,1,0,0,1-2,0V37H29a1,1,0,0,1,0-2h4a1,1,0,0,0,0-2H31a3,3,0,0,1,0-6V26a1,1,0,0,1,2,0v1h2a1,1,0,0,1,0,2H31A1,1,0,0,0,31,31Z"/><path d="M32,18A14,14,0,1,0,46,32,14,14,0,0,0,32,18Zm0,26A12,12,0,1,1,44,32,12,12,0,0,1,32,44Z"/><path d="M62.17,58.17,48,44c9.71-12.93.71-32-16-32A20,20,0,0,0,12,32c0,16.68,19.06,25.73,32,16C59.13,63.13,58.55,63,60.17,63A2.83,2.83,0,0,0,62.17,58.17ZM32,48A16,16,0,1,1,48,32,16,16,0,0,1,32,48Z"/></g></svg>