<svg xmlns="http://www.w3.org/2000/svg" viewBox="0 0 128 128"><defs><style>.cls-1{fill:#a0aec0;}</style></defs><title>Shipping</title><g id="Shipping"><path class="cls-1" d="M33.55,22.09,31,23.35V11H53V23.35c-2.6-1.3-2.84-1.57-3.43-1.26L46,23.86l-3.54-1.77c-.58-.31-.66-.12-4.46,1.77C34.19,22,34.14,21.78,33.55,22.09Z"/><path class="cls-1" d="M55,11c0,15,.21,14.44-.48,14.87S53.75,26,50,24.14c-3.81,1.91-3.86,2.08-4.45,1.77L42,24.14l-3.55,1.77c-.63.33-.8.05-4.46-1.77C30.28,26,30.34,26,30,26a1,1,0,0,1-1-1V11H1V84H83V11ZM42,79A24,24,0,1,1,66,55,24,24,0,0,1,42,79Z"/><path class="cls-1" d="M42,33A22,22,0,1,0,64,55,22,22,0,0,0,42,33Zm12.72,14.7C37.2,65.24,38.6,64,38,64s-.08.34-8.72-8.3a1,1,0,0,1,1.44-1.44L38,61.56,53.28,46.28A1,1,0,0,1,54.72,47.72Z"/><path class="cls-1" d="M117.58,45H95V73h31.5ZM123,83h4V75H94a1,1,0,0,1-1-1V44a1,1,0,0,1,1-1h23l-.87-2.74A6.12,6.12,0,0,0,110.23,36H85v69h4a14,14,0,0,1,28,0h10V97h-4a3,3,0,0,1-3-3V86A3,3,0,0,1,123,83ZM99,83H94a1,1,0,0,1,0-2h5A1,1,0,0,1,99,83Z"/><path class="cls-1" d="M123,85h4V95h-4a1,1,0,0,1-1-1V86A1,1,0,0,1,123,85Z"/><circle class="cls-1" cx="103" cy="105" r="5"/><path class="cls-1" d="M103,93a12,12,0,1,0,12,12A12,12,0,0,0,103,93Zm0,19a7,7,0,1,1,7-7A7,7,0,0,1,103,112Z"/><circle class="cls-1" cx="27" cy="105" r="5"/><path class="cls-1" d="M27,93a12,12,0,1,0,12,12A12,12,0,0,0,27,93Zm0,19a7,7,0,1,1,7-7A7,7,0,0,1,27,112Z"/><path class="cls-1" d="M83,86v19H41a14,14,0,0,0-28,0H1V86Z"/></g></svg>