<svg xmlns="http://www.w3.org/2000/svg" viewBox="0 0 128 128"><defs><style>.cls-1{fill:#a0aec0;}</style></defs><title>Sign Up</title><g id="Sign_Up" data-name="Sign Up"><path class="cls-1" d="M83.54,57.75a1.08,1.08,0,0,0,.2.4,31.86,31.86,0,0,1-39.48,0,1.08,1.08,0,0,0,.2-.4C50.06,34.1,77.94,34.09,83.54,57.75Z"/><circle class="cls-1" cx="64" cy="27" r="10.98" transform="translate(-5.46 26.55) rotate(-22.5)"/><path class="cls-1" d="M85.39,56.78c-2.33-9.27-8.26-15.85-15.82-18a13,13,0,1,0-11.14,0c-7.56,2.17-13.49,8.75-15.82,18C20.91,37.31,34.69,1,64,1S107.1,37.3,85.39,56.78Z"/><rect class="cls-1" x="25" y="94" width="78" height="14"/><rect class="cls-1" x="25" y="72" width="78" height="14"/><path class="cls-1" d="M49.5,127h-11a5.5,5.5,0,0,1,0-11h11a5.5,5.5,0,0,1,0,11Z"/><path class="cls-1" d="M89.5,127h-11a5.5,5.5,0,0,1,0-11h11a5.5,5.5,0,0,1,0,11Z"/></g></svg>