<svg xmlns="http://www.w3.org/2000/svg" viewBox="0 0 64 64"><title>Software Compenies</title><g id="Software_Compenies" data-name="Software Compenies"><path d="M62,62H2a1,1,0,0,0,0,2H62A1,1,0,0,0,62,62Z"/><path d="M1,0V8H63V0ZM6,5A1,1,0,0,1,6,3,1,1,0,0,1,6,5Zm5,0a1,1,0,0,1,0-2A1,1,0,0,1,11,5Zm5,0a1,1,0,0,1,0-2A1,1,0,0,1,16,5Z"/><path d="M10,60h3V56a1,1,0,0,1,1-1h3.55a14.73,14.73,0,0,1,.74-2c-.21.07.17,0-5.29,0a1,1,0,0,1,0-2h5.35c-1.76-1.75-2.47-2.16-2.12-3H13a1,1,0,0,1,0-2h5c.17,0-.2.32,2.68-2.56C21.14,43,21,44.59,21,33H10Zm3-24h5a1,1,0,0,1,0,2H13A1,1,0,0,1,13,36Zm0,5h5a1,1,0,0,1,0,2H13A1,1,0,0,1,13,41Z"/><path d="M18.56,48.39C21.1,50.92,21,50.79,21.11,51c.55,1.06-1,1.5-1.8,5.21a1,1,0,0,1-1,.79H15v3H49V57c-6.57,0-2.56.48-6.06-5-.58-.9.26-1.38,2.5-3.61l-2.83-2.83-2.36,2.37a1,1,0,0,1-1.25.13c-5.51-3.52-5,.5-5-6.06H30v3.33a1,1,0,0,1-.79,1c-3.86.83-4.41,2.64-5.46,1.62l-2.36-2.37Zm19.15,2.9,3,3a1,1,0,0,1,0,1.42C37.6,58.82,37.58,59,37,59a1,1,0,0,1-.71-1.71L38.59,55l-2.3-2.29A1,1,0,0,1,37.71,51.29Zm-3.76,1-2,6a1,1,0,0,1-1.9-.64l2-6A1,1,0,0,1,34,52.32Zm-6.24.39L25.41,55l2.3,2.29a1,1,0,0,1-1.42,1.42l-3-3a1,1,0,0,1,0-1.42C26.56,51,26.44,51,27,51A1,1,0,0,1,27.71,52.71Z"/><path d="M54,60V33H43V43.24c.25.08.11,0,2.89,2.77C46,46,47,46,51,46a1,1,0,0,1,0,2H47.77c.35.84-.33,1.22-2.12,3H51a1,1,0,0,1,0,2H46c-.55,0-.28-.55.45,2H50a1,1,0,0,1,1,1v4ZM46,36h5a1,1,0,0,1,0,2H46A1,1,0,0,1,46,36Zm5,7H46a1,1,0,0,1,0-2h5A1,1,0,0,1,51,43Z"/><path d="M1,51H8V32a1,1,0,0,1,1-1H21V22a1,1,0,0,1,1-1h1V18a1,1,0,0,1,1-1H40a1,1,0,0,1,1,1v3h1a1,1,0,0,1,1,1v9H55a1,1,0,0,1,1,1V51h7V10H1Z"/><rect x="25" y="19" width="14" height="2"/><path d="M23,44.34,24.61,46A15.19,15.19,0,0,1,28,44.55V41a1,1,0,0,1,1-1h6a1,1,0,0,1,1,1v3.55A15.19,15.19,0,0,1,39.39,46L41,44.34V23H23ZM36,27a1,1,0,0,1,2,0v2a1,1,0,0,1-2,0Zm0,7a1,1,0,0,1,2,0v2a1,1,0,0,1-2,0Zm-5-7a1,1,0,0,1,2,0v2a1,1,0,0,1-2,0Zm0,7a1,1,0,0,1,2,0v2a1,1,0,0,1-2,0Zm-5-7a1,1,0,0,1,2,0v2a1,1,0,0,1-2,0Zm0,7a1,1,0,0,1,2,0v2a1,1,0,0,1-2,0Z"/></g></svg>