<svg xmlns="http://www.w3.org/2000/svg" viewBox="0 0 128 128"><defs><style>.cls-1{fill:#a0aec0;}</style></defs><title>Something Went Wrong</title><g id="Something_Went_Wrong" data-name="Something Went Wrong"><circle class="cls-1" cx="64" cy="95" r="3.98"/><path class="cls-1" d="M64,24.38,13.78,105.94H114.22ZM58.26,45.29c.44-.44,0-.31,10.74-.31a1,1,0,0,1,1,1.07l-1.67,37a1,1,0,0,1-1,1H60.67a1,1,0,0,1-1-1C57.85,43.18,57.8,45.8,58.26,45.29ZM64,101a6,6,0,1,1,6-6A6,6,0,0,1,64,101Zm2.36-19,1.57-35H60.07l1.57,35Z"/><path class="cls-1" d="M125.63,102.81,71.79,15.36a9.15,9.15,0,0,0-15.58,0L2.37,102.81c-3.71,6,.42,14.19,7.79,14.19H117.84C125.32,117,129.28,108.68,125.63,102.81Zm-8.7,4.65c-.44.78,6.38.52-105,.52a1,1,0,0,1-.87-1.56l52-84.53a1.07,1.07,0,0,1,1.74,0C120.75,112.66,117.36,106.66,116.93,107.46Z"/></g></svg>