<svg xmlns="http://www.w3.org/2000/svg" viewBox="0 0 64 64"><title>Speed</title><g id="Speed"><path d="M1,1V9H63V1ZM6,6A1,1,0,0,1,6,4,1,1,0,0,1,6,6Zm5,0a1,1,0,0,1,0-2A1,1,0,0,1,11,6Zm5,0a1,1,0,0,1,0-2A1,1,0,0,1,16,6Z"/><path d="M33,46a1,1,0,0,1-2,0,49.7,49.7,0,0,1,1-7A49.7,49.7,0,0,1,33,46Z"/><path d="M1,11V52H7.74a24.92,24.92,0,0,1,6.55-23.63l0-.05,0,0a25,25,0,0,1,35.26,0l0,0,0,.05A24.91,24.91,0,0,1,56.26,52H63V11ZM9,45h4a18.88,18.88,0,0,1,4.84-11.7l-2.84-2.83A22.91,22.91,0,0,0,9,45Z"/><path d="M31,23v4a18.77,18.77,0,0,0-11.69,4.84l-2.84-2.84A22.91,22.91,0,0,1,31,23Z"/><path d="M47.53,29.05l-2.84,2.84A18.83,18.83,0,0,0,33,27.05V23A22.91,22.91,0,0,1,47.53,29.05Z"/><path d="M55,45H51a18.83,18.83,0,0,0-4.84-11.69L49,30.47A22.91,22.91,0,0,1,55,45Z"/><path d="M55,47a22.89,22.89,0,0,1-6,14.53L46.11,58.7A18.86,18.86,0,0,0,51,47Z"/><path d="M17.89,58.7l-2.84,2.83A22.87,22.87,0,0,1,9,47h4A18.86,18.86,0,0,0,17.89,58.7Z"/><path d="M49,46a17,17,0,0,0-34,0c0,7.43,4.6,11.46,5.2,12.35a1.36,1.36,0,0,1,0,.76c-.23.54-3.84,3.73-3.68,3.89,32.89,0,30.86,0,31,0a48.39,48.39,0,0,1-3.73-3.84s0-.1,0-.15c0-.22-.06-.09,0-.37C43.87,57.68,49,54.09,49,46ZM31,33.78a1,1,0,0,1,2,0c.08.38,2,9.15,2,12.22a3,3,0,0,1-6,0C29,42.93,30.94,34.16,31,33.78ZM38,56H26a1,1,0,0,1,0-2H38A1,1,0,0,1,38,56Z"/></g></svg>