<svg xmlns="http://www.w3.org/2000/svg" viewBox="0 0 64 64"><title>Sport</title><g id="Sport"><path d="M36.05,24.63c-.46-7.45.85-11.17-.44-13.3a19.35,19.35,0,0,0-5.24,11c-.17,1-.16.77-.08,1a15.94,15.94,0,0,0,10,9A12.19,12.19,0,0,1,36.05,24.63Z"/><path d="M55,14.73C48.29,10.31,44.3,9.9,42.84,6.62a21.28,21.28,0,0,0-2.14.93L53.85,30.33a15.78,15.78,0,0,0,4.82-5,6.51,6.51,0,0,0,.22-2.42C58.77,19.19,56.79,15.92,55,14.73Z"/><path d="M34.1,10c-1.69-.46-3.56,2.25-4.77,3.77a16,16,0,0,0-.23,4.94A21,21,0,0,1,34.1,10Z"/><path d="M35.65,8.55A20.25,20.25,0,0,1,38,6.82L36.15,3.67a15.82,15.82,0,0,0-4.88,5.14A3.81,3.81,0,0,1,35.65,8.55Z"/><path d="M42.36,4.68A3.84,3.84,0,0,1,44.77,1a15.53,15.53,0,0,0-6.88,1.67L39.7,5.82A21.5,21.5,0,0,1,42.36,4.68Z"/><path d="M44.41,4.06a21.3,21.3,0,0,1,10,0,15.64,15.64,0,0,0-3.77-2,10,10,0,0,0-3,.14C46.49,2.38,44.74,2.9,44.41,4.06Z"/><path d="M58.85,9c-1-1.71-1.26-1.83-1.92-2A19.61,19.61,0,0,0,44.77,6c1.22,2.19,5.06,2.91,11.31,7a12.22,12.22,0,0,1,4.52,7.45A15.91,15.91,0,0,0,58.85,9Z"/><path d="M37.1,9.94c2.08,2.91.47,6.57.95,14.57.13,2.16,2,5.51,5.11,7.46a8.8,8.8,0,0,0,2,1,15.86,15.86,0,0,0,7-1.68L39,8.55A21.06,21.06,0,0,0,37.1,9.94Z"/><rect x="3" y="33" width="36" height="5"/><polygon points="16.5 39.96 16.47 40 16.53 40 16.5 39.96"/><polygon points="25.5 39.96 25.47 40 25.53 40 25.5 39.96"/><path d="M35.49,40a44.38,44.38,0,0,0-1.92,6.52L31.3,43.8,34.47,40H31.86L30,42.24,28.14,40H25.53l3.17,3.8-3.2,3.84L22.3,43.8,25.47,40H22.86L21,42.24,19.14,40H16.53l3.17,3.8-3.2,3.84L13.3,43.8,16.47,40H13.86L12,42.24,10.14,40H7.53l3.17,3.8L8.43,46.52A44.38,44.38,0,0,0,6.51,40H4.35A44.18,44.18,0,0,1,6.8,48.6a1,1,0,0,0,.13.87,1,1,0,0,0,.16.78A68.46,68.46,0,0,1,8,62a1,1,0,0,0,2,0c0-1.16,0-2.27-.07-3.35L12,56.17l3.5,4.19V62a1,1,0,0,0,2,0V60.36l3.5-4.2,3.5,4.2V62a1,1,0,0,0,2,0V60.36L30,56.17l2.07,2.48C32,59.73,32,60.84,32,62a1,1,0,0,0,2,0,63.56,63.56,0,0,1,1.08-12.52v0a1.11,1.11,0,0,0,.11-.86A44.18,44.18,0,0,1,37.65,40ZM30,45.36c3.47,4.17,3.09,3.53,3,4.07L30,53,26.8,49.2Zm-9,0,3.2,3.83L21,53,17.8,49.2Zm-9,0,3.2,3.84L12,53c-3.35-4-3-3.48-3.07-4ZM9.76,55.73c-.15-2.22-.23-2.33-.23-2.53l1.17,1.4Zm6.74,2.71L13.3,54.6l3.2-3.83,3.2,3.83Zm5.8-3.84,3.2-3.83,3.2,3.83-3.2,3.84Zm9,0,1.17-1.4c0,.15-.1.58-.23,2.53Z"/></g></svg>