<svg xmlns="http://www.w3.org/2000/svg" viewBox="0 0 64 64"><title>Square root</title><g id="Square_root" data-name="Square root"><rect x="1" y="42" width="62" height="5"/><path d="M51,37v3H41V37a1,1,0,0,1,1-1h8A1,1,0,0,1,51,37Z"/><path d="M8,6V40H39V37a3,3,0,0,1,3-3h8a3,3,0,0,1,3,3v3h3V6ZM33.86,27.49A1,1,0,0,1,33,29c-.76,0-.73-.28-3-4.06C27.72,28.74,27.75,29,27,29a1,1,0,0,1-.86-1.51L28.83,23l-2.69-4.49a1,1,0,0,1,1.72-1L30,21.06l2.14-3.57a1,1,0,0,1,1.72,1L31.17,23ZM40,24H39v1a1,1,0,0,1-2,0V24H36a1,1,0,0,1,0-2h1V21a1,1,0,0,1,2,0v1h1A1,1,0,0,1,40,24Zm9.86-5.49L47,23.28V28a1,1,0,0,1-2,0V23.28l-2.86-4.77a1,1,0,0,1,1.72-1L46,21.06l2.14-3.57A1,1,0,0,1,49.86,18.51ZM49,15H23.81L21,28.21a1,1,0,0,1-1.93.11L17.28,23H15a1,1,0,0,1,0-2c4.3,0,3.52-.62,4.79,3.21L22,13.79A1,1,0,0,1,23,13H49A1,1,0,0,1,49,15Z"/><path d="M61,1V40H58V5a1,1,0,0,0-1-1H7A1,1,0,0,0,6,5V40H3V1Z"/><polygon points="59 63 54 63 47.88 49 52.88 49 59 63"/><polygon points="16.13 49 10 63 5 63 11.13 49 16.13 49"/><polygon points="48.76 56 15.25 56 17 52 47.01 52 48.76 56"/></g></svg>