<svg xmlns="http://www.w3.org/2000/svg" viewBox="0 0 64 64"><title>Startup</title><g id="Startup"><circle cx="32" cy="19" r="3"/><path d="M27,28H37a2,2,0,0,0,2-2c0-13.29.45-15.37-1.72-19.73a8.91,8.91,0,0,1-10.56,0C24.55,10.62,25,12.69,25,26A2,2,0,0,0,27,28Zm5-14a5,5,0,1,1-5,5A5,5,0,0,1,32,14Z"/><polygon points="47 23 41 18.5 41 26 47 26 47 23"/><polygon points="23 26 23 18.5 17 23 17 26 23 26"/><path d="M36.3,4.51A16.6,16.6,0,0,0,32,0a16.6,16.6,0,0,0-4.3,4.51A6.94,6.94,0,0,0,36.3,4.51Z"/><path d="M24.54,58H39.46l1.34-2H23.2Z"/><path d="M61,56H43a1,1,0,0,1-.17.55C40.71,59.72,40.7,60,40,60c-17.24,0-16.42.19-16.83-.45C21.05,56.37,21,56.4,21,56H3a2,2,0,0,0-2,2v2a4,4,0,0,0,4,4H59a4,4,0,0,0,4-4V58A2,2,0,0,0,61,56Z"/><path d="M59,17a3,3,0,0,0-3-3H41v2l1.33,1H55a1,1,0,0,1,1,1V50a1,1,0,0,1-1,1H9a1,1,0,0,1-1-1V18a1,1,0,0,1,1-1H21.67L23,16V14H8a3,3,0,0,0-3,3V54H59Z"/><path d="M37,29H27l1,4h8Z"/><path d="M15,27c0-4.89-.13-4.9.4-5.3L19,19H10c0,32.31-.06,30,.1,30a5,5,0,0,1,4-3.91,6,6,0,0,1,9.43-3.94A4.45,4.45,0,0,1,28,40.26V35H26.44l-1.38-5.5A4,4,0,0,1,23.54,28H16A1,1,0,0,1,15,27Z"/><path d="M16,46a1,1,0,0,1-1,1,3,3,0,0,0-2.82,2C53,49,52,49.11,51.8,48.94c0-.26-.58-.92-.58-.95A3.07,3.07,0,0,0,49,47a1,1,0,0,1-1-1,4,4,0,0,0-5.89-3.53c-.92.52-.11.09-.11,2a1,1,0,0,1-2,0,2.28,2.28,0,0,0-.43-1.38v0h0c.12,0-.57-.66-.92-.82A2.5,2.5,0,0,0,35,44.5a1,1,0,0,1-2,0,4.43,4.43,0,0,1,1-2.82V35H30v6.68c1.05,1.28,1.59,3.82,0,3.82a1,1,0,0,1-1-1,2.52,2.52,0,0,0-.78-1.82c-.16,0,.05-.18-1-.57A2.51,2.51,0,0,0,24,44.5c0,1.55-3,1.53-1.65-1.74A4,4,0,0,0,16,46Z"/><path d="M37.56,35H36v5.26a4.45,4.45,0,0,1,4.49.89,6,6,0,0,1,9.43,3.94,5,5,0,0,1,4,3.91c.15,0,.1,2.3.1-30H45c3.86,2.9,4,2.83,4,3.5V27a1,1,0,0,1-1,1H40.46a4,4,0,0,1-1.52,1.5Z"/></g></svg>