<svg xmlns="http://www.w3.org/2000/svg" viewBox="0 0 64 64"><title>Student Question</title><g id="Student_Question" data-name="Student Question"><path d="M3,52H37V42H3Z"/><path d="M38,38H2a1,1,0,0,0,0,2H38A1,1,0,0,0,38,38Z"/><path d="M13,61a2,2,0,0,0,4,0V54H13Z"/><path d="M22,61a2,2,0,0,0,4,0V54H22Z"/><path d="M3,62a1,1,0,0,0,2,0V54H3Z"/><path d="M35,62a1,1,0,0,0,2,0V54H35Z"/><path d="M51,1a12,12,0,0,0-8.49,20.49L39,25H51A12,12,0,0,0,51,1Zm0,19a1,1,0,0,1,0-2A1,1,0,0,1,51,20Zm2.65-6.76A3.32,3.32,0,0,0,52,16a1,1,0,0,1-2,0,5.28,5.28,0,0,1,2.59-4.45A3,3,0,1,0,48,9a1,1,0,0,1-2,0,5,5,0,1,1,7.65,4.24Z"/><path d="M10,36v0c7.54,0,6.94,0,6.94,0a3.44,3.44,0,0,0-3.49-3.38H11a1,1,0,0,1,0-2h2.45A5.44,5.44,0,0,1,18.94,36c0,.1-.54,0,7.06,0,0-1.5,0,.11,0-6h4a4,4,0,0,0,4-4V14a2,2,0,0,0-4,0V25H19.54A5.45,5.45,0,0,0,25,19.54V17.46a5.5,5.5,0,0,0-11,0v2.08A5.45,5.45,0,0,0,19.46,25H16.82A11.22,11.22,0,0,0,6.67,31.3C5.69,33.32,7,36,10,36Z"/></g></svg>