<svg xmlns="http://www.w3.org/2000/svg" viewBox="0 0 64 64"><title>Study lamp</title><g id="Study_lamp" data-name="Study lamp"><path d="M34,57H8a4,4,0,0,0-4,4v2H38V61A4,4,0,0,0,34,57Z"/><rect x="10" y="51" width="8" height="4"/><path d="M51.35,7.52A10.59,10.59,0,0,0,36.52,22.35L43,31,60,14Z"/><path d="M33.62,10.62a12.66,12.66,0,0,1,6-6C37.44,2.44,36.45,1,34.24,1A4.25,4.25,0,0,0,30,5.24C30,7.49,31.46,8.46,33.62,10.62Z"/><path d="M49.12,27.7a6,6,0,0,0,7.58-7.58Z"/><path d="M16,45c0-17.6,11.5-28.56,16.62-32.56-2.21-2.21-2.79-2.77-2.86-2.87C23.87,14.2,12,25.91,12,45v4h4Z"/></g></svg>