<svg xmlns="http://www.w3.org/2000/svg" viewBox="0 0 128 128">
  <defs>
    <style>
      .cls-1 {
        fill: #a0aec0;
      }
    </style>
  </defs>
  <title>Success</title>
  <g id="Success">
    <rect class="cls-1" x="52.02" y="108.02" width="23.96" height="11.96" />
    <path class="cls-1"
      d="M93,125H88.94L86.05,102.1H42L39.06,125H35a1,1,0,0,0,0,2H93A1,1,0,0,0,93,125Zm-15-4a1,1,0,0,1-1,1H51a1,1,0,0,1-1-1V107a1,1,0,0,1,1-1H77a1,1,0,0,1,1,1Z" />
    <path class="cls-1" d="M57,98v2H71V98a4,4,0,0,0-4-4H61A4,4,0,0,0,57,98Z" />
    <path class="cls-1" d="M67,80.57a11.31,11.31,0,0,1-6,0V92h6Z" />
    <path class="cls-1"
      d="M127,18c0-10-6-16-16-16-5.79,0-10.09,2.41-12.32,6.59,0,0,0-.83.32-7.57H29c.28,6.66.32,7.56.32,7.58C27.1,4.39,22.79,2,17,2,7,2,1,8,1,18,1,34.63,31.34,40,31.34,48.09,31.34,50.67,30.21,52,28,52c-1.09,0-2.59-1.72-3.15-2.55a1,1,0,0,0-1.7,1.14C23.39,50.92,25.53,54,28,54a5.17,5.17,0,0,0,4.67-2.6C37.23,66.06,49.08,77.33,64,79c14.94-1.67,26.78-13,31.33-27.58A5.17,5.17,0,0,0,100,54c2.47,0,4.61-3.1,4.85-3.45a1,1,0,0,0-1.7-1.14c-.56.83-2.06,2.55-3.15,2.55-2.21,0-3.34-1.31-3.34-3.89C96.66,40,127,34.6,127,18ZM3,18C3,9.12,8.12,4,17,4c7.61,0,12,4.37,12,12a10,10,0,0,1-5.41,9.07,1,1,0,0,0,.86,1.86,12.35,12.35,0,0,0,5.44-5.62c.88,20,.73,18.91,1.06,21.9C23.84,36.19,3,30.67,3,18ZM64,59A24,24,0,1,1,88,35,24,24,0,0,1,64,59ZM98.13,21.31a12.35,12.35,0,0,0,5.44,5.62,1,1,0,0,0,.86-1.86A10,10,0,0,1,99,16c0-7.61,4.37-12,12-12,8.88,0,14,5.1,14,14,0,12.68-20.83,18.2-27.91,25.21C97.42,40.07,97.32,39.8,98.13,21.31Z" />
    <path class="cls-1"
      d="M64,13A22,22,0,1,0,86,35,22,22,0,0,0,64,13Zm12.72,14.7C59.2,45.24,60.6,44,60,44s-.08.34-8.72-8.3a1,1,0,0,1,1.44-1.44L60,41.56,75.28,26.28A1,1,0,0,1,76.72,27.72Z" />
  </g>
</svg>