<svg xmlns="http://www.w3.org/2000/svg" viewBox="0 0 64 64"><title>Sync Data</title><g id="Sync_Data" data-name="Sync Data"><path d="M55.51,22.48c.46-4.59-4.1-9.43-9.74-8.39a16.47,16.47,0,0,0-32.59,3.38A11.77,11.77,0,0,0,1.41,29.24C1.41,35.14,5.82,41,14,41V35c0-2.26,3.57-3.5,7.14-4.17a12,12,0,1,1,19.72,0C44.43,31.5,48,32.74,48,35v6h5.18a9.41,9.41,0,0,0,2.33-18.52Z"/><path d="M38.23,30.91a10,10,0,1,0-14.46,0A10,10,0,0,0,38.23,30.91Zm-11-13.68,2-2A1,1,0,0,1,30.32,15c.73.3.62,1,.64,2a7,7,0,0,1,5.86,10.89,1,1,0,0,1-1.66-1.12A5,5,0,0,0,31,19v1a1,1,0,0,1-1,1c-.56,0-.59-.17-2.77-2.35A1,1,0,0,1,27.23,17.23ZM24,24c0-1.82,1.06-5.17,2.57-4.16a1,1,0,0,1,.27,1.39A5,5,0,0,0,31,29c0-1-.16-1.66.59-2s1.15.26,3.16,2.27a1,1,0,0,1,0,1.42l-2,2a1,1,0,0,1-1.09.22c-.66-.27-.62-.76-.63-1.93A7,7,0,0,1,24,24Z"/><path d="M39.35,32.6a12,12,0,0,1-16.7,0C17.17,33.46,16,34.77,16,35c0,.87,5.26,3,15,3s15-2.13,15-3C46,34.77,44.83,33.46,39.35,32.6Z"/><path d="M16,37.54v6.27c6,2.91,24,2.92,30,0V37.54C40,40.79,22,40.8,16,37.54ZM27,44a1,1,0,0,1,0-2A1,1,0,0,1,27,44Zm4,0a1,1,0,0,1,0-2A1,1,0,0,1,31,44Zm4,0a1,1,0,0,1,0-2A1,1,0,0,1,35,44Z"/><path d="M16,46v5.83c6,2.91,24,2.92,30,0V46C39.34,48.66,22.65,48.66,16,46Zm11,6a1,1,0,0,1,0-2A1,1,0,0,1,27,52Zm8-2a1,1,0,0,1,0,2A1,1,0,0,1,35,50Zm-3,1a1,1,0,0,1-2,0A1,1,0,0,1,32,51Z"/><path d="M16,54v6.41c5.13,3.47,24.87,3.47,30,0V54C39.34,56.66,22.65,56.66,16,54Zm11,6a1,1,0,0,1,0-2A1,1,0,0,1,27,60Zm8-2a1,1,0,0,1,0,2A1,1,0,0,1,35,58Zm-3,1a1,1,0,0,1-2,0A1,1,0,0,1,32,59Z"/></g></svg>