<svg xmlns="http://www.w3.org/2000/svg" viewBox="0 0 64 64"><title>Target</title><g id="Target"><path d="M32,13a2,2,0,0,0,2-2V3a2,2,0,0,0-4,0v8A2,2,0,0,0,32,13Z"/><path d="M32,51a2,2,0,0,0-2,2v8a2,2,0,0,0,4,0V53A2,2,0,0,0,32,51Z"/><path d="M61,30H53a2,2,0,0,0,0,4h8a2,2,0,0,0,0-4Z"/><path d="M13,32a2,2,0,0,0-2-2H3a2,2,0,0,0,0,4h8A2,2,0,0,0,13,32Z"/><path d="M36,54.65v4A26.94,26.94,0,0,0,58.69,36h-4A23,23,0,0,1,36,54.65Z"/><path d="M28,9.35v-4A26.94,26.94,0,0,0,5.31,28h4A23,23,0,0,1,28,9.35Z"/><path d="M54.65,28h4A26.94,26.94,0,0,0,36,5.31v4A23,23,0,0,1,54.65,28Z"/><path d="M41,32a9,9,0,1,0-9,9A9,9,0,0,0,41,32ZM31,38V37H29a1,1,0,0,1,0-2h4a1,1,0,0,0,0-2H31a3,3,0,0,1,0-6V26a1,1,0,0,1,2,0v1h2a1,1,0,0,1,0,2H31a1,1,0,0,0,0,2h2a3,3,0,0,1,0,6v1A1,1,0,0,1,31,38Z"/><path d="M36,48V45.41a14,14,0,0,0,5.61-3.24l2.25,1.29,4-6.92-2.25-1.3a13.65,13.65,0,0,0,0-6.48l2.25-1.3-4-6.92-2.25,1.29A14,14,0,0,0,36,18.59V16H28v2.59a14,14,0,0,0-5.61,3.24l-2.25-1.29-4,6.92,2.25,1.3a13.65,13.65,0,0,0,0,6.48l-2.25,1.3,4,6.92,2.25-1.29A14,14,0,0,0,28,45.41V48ZM21,32A11,11,0,1,1,32,43,11,11,0,0,1,21,32Z"/><path d="M9.35,36h-4A26.94,26.94,0,0,0,28,58.69v-4A23,23,0,0,1,9.35,36Z"/></g></svg>