<svg xmlns="http://www.w3.org/2000/svg" viewBox="0 0 64 64"><title>Target Audience</title><g id="Target_Audience" data-name="Target Audience"><path d="M39.43,40.9c.74,2.2.72,2.21.87,2.38a14,14,0,0,1-16.6,0c.15-.15.16-.28.87-2.39A7.84,7.84,0,0,1,39.43,40.9Z"/><path d="M36.09,29.45a4.09,4.09,0,1,1-8.18,0V28.18a4.09,4.09,0,0,1,8.18,0Z"/><path d="M41.88,41.92l-.56-1.66a9.78,9.78,0,0,0-5.62-6c2.39-1.8,2.39-4.09,2.39-6.09a6.09,6.09,0,0,0-12.18,0c0,2.11,0,4.29,2.39,6.09a9.78,9.78,0,0,0-5.62,6l-.56,1.66C13.36,33.19,19.47,18,32,18S50.65,33.19,41.88,41.92Z"/><path d="M32,13a2,2,0,0,0,2-2V3a2,2,0,0,0-4,0v8A2,2,0,0,0,32,13Z"/><path d="M32,51a2,2,0,0,0-2,2v8a2,2,0,0,0,4,0V53A2,2,0,0,0,32,51Z"/><path d="M61,30H53a2,2,0,0,0,0,4h8a2,2,0,0,0,0-4Z"/><path d="M13,32a2,2,0,0,0-2-2H3a2,2,0,0,0,0,4h8A2,2,0,0,0,13,32Z"/><path d="M36,54.65v4A26.94,26.94,0,0,0,58.69,36h-4A23,23,0,0,1,36,54.65Z"/><path d="M28,9.35v-4A26.94,26.94,0,0,0,5.31,28h4A23,23,0,0,1,28,9.35Z"/><path d="M54.65,28h4A26.94,26.94,0,0,0,36,5.31v4A23,23,0,0,1,54.65,28Z"/><path d="M9.35,36h-4A26.94,26.94,0,0,0,28,58.69v-4A23,23,0,0,1,9.35,36Z"/></g></svg>