<svg xmlns="http://www.w3.org/2000/svg" viewBox="0 0 64 64"><title>Teacher Desk</title><g id="Teacher_Desk" data-name="Teacher Desk"><rect x="1" y="22" width="62" height="3"/><path d="M13.9,48H50.1A5,5,0,0,1,54,44.1V35.9A5,5,0,0,1,50.1,32H13.9A5,5,0,0,1,10,35.9v8.2A5,5,0,0,1,13.9,48Z"/><path d="M4,53H60V27H4ZM8,35a1,1,0,0,1,1-1,3,3,0,0,0,3-3,1,1,0,0,1,1-1H51a1,1,0,0,1,1,1,3,3,0,0,0,3,3,1,1,0,0,1,1,1V45a1,1,0,0,1-1,1,3,3,0,0,0-3,3,1,1,0,0,1-1,1H13a1,1,0,0,1-1-1,3,3,0,0,0-3-3,1,1,0,0,1-1-1Z"/><rect x="56" y="55" width="4" height="7"/><rect x="4" y="55" width="4" height="7"/><path d="M15,14H14V8a1,1,0,0,0-2,0v6H10V11a1,1,0,0,0-2,0v3H7v6h8Z"/><path d="M62,18a2,2,0,0,0-2-2H46v4H60A2,2,0,0,0,62,18Z"/><path d="M50,14H60V10H50a2,2,0,0,0,0,4Z"/><path d="M42,9a5,5,0,0,0-5-5H27a5,5,0,0,0-5,5V20H42Zm-5,9H27a1,1,0,0,1,0-2H37A1,1,0,0,1,37,18Zm0-6H27a1,1,0,0,1,0-2H37A1,1,0,0,1,37,12Z"/><path d="M41,61a1,1,0,0,0,2,0V55H41Z"/><path d="M21,61a1,1,0,0,0,2,0V55H21Z"/></g></svg>