<svg xmlns="http://www.w3.org/2000/svg" viewBox="0 0 64 64"><title>Teaching</title><g id="Teaching"><path d="M4,47.46c0-1.8-.11-3.23,1-5.06V32a1,1,0,0,1,2,0v8.26A7,7,0,0,1,18,46c0,2.17.21,4.17-1.51,6.33a12.1,12.1,0,0,1,4.51,4V31H31.82C39,22.06,39,22.29,39,21.22A2.21,2.21,0,0,0,36.78,19c-2.31,0-2.83,1.26-7.6,7H8a6,6,0,0,0-6,6V44A4,4,0,0,0,4,47.46Z"/><path d="M19,20.5v-2a5.5,5.5,0,0,0-11,0v2a5.5,5.5,0,0,0,11,0Z"/><path d="M36,48V46a5,5,0,0,0-10,0v2a5,5,0,0,0,10,0Z"/><path d="M13,1V11a7.47,7.47,0,0,1,8,7.47c0,2.13.15,3.62-.88,5.5h8.12c4.1-4.93,4.9-6.56,7.76-6.94V5a1,1,0,0,1,2,0V17.18a4.21,4.21,0,0,1,3,4c0,2-.34,1.9-8.22,11.78H23v2H63V1Z"/><path d="M31,53A10,10,0,0,0,21,63h4V61a1,1,0,0,1,2,0v2h8V61a1,1,0,0,1,2,0v2h4A10,10,0,0,0,31,53Z"/><path d="M56,48V46a5,5,0,0,0-10,0v2a5,5,0,0,0,10,0Z"/><path d="M51,53A10,10,0,0,0,41,63h4V61a1,1,0,0,1,2,0v2h8V61a1,1,0,0,1,2,0v2h4A10,10,0,0,0,51,53Z"/><path d="M16,48V46A5,5,0,0,0,6,46v2a5,5,0,0,0,10,0Z"/><path d="M11,53A10,10,0,0,0,1,63H5V61a1,1,0,0,1,2,0v2h8V61a1,1,0,0,1,2,0v2h4A10,10,0,0,0,11,53Z"/></g></svg>