<svg xmlns="http://www.w3.org/2000/svg" viewBox="0 0 64 64">
  <defs>
    <style>
      .cls-1 {
        fill: #a0aec0;
      }
    </style>
  </defs>
  <g id="Teamwork">
    <path class="cls-1"
      d="M39,23.75c-.14-.17-.14-.23-.76-2.08a6.57,6.57,0,0,0-12.46,0c-.64,1.92-.62,1.92-.76,2.08a11.62,11.62,0,0,0,2,1.16v-1a.94.94,0,0,1,.94-.94h8.12a.94.94,0,0,1,.94.94v1A11.62,11.62,0,0,0,39,23.75Z" />
    <path class="cls-1" d="M35.36,11.82V10.73a3.36,3.36,0,1,0-6.72,0v1.09a3.36,3.36,0,0,0,6.72,0Z" />
    <path class="cls-1"
      d="M28.54,15.91c-1.94-1.64-1.9-3.54-1.9-5.18a5.36,5.36,0,1,1,10.72,0c0,1.78,0,3.56-1.9,5.18,3.45,1.51,4.36,4.19,5.12,6.48C47.9,14.93,42.74,2,32,2S16.1,14.93,23.42,22.39C24.25,19.87,25.15,17.39,28.54,15.91Z" />
    <path class="cls-1"
      d="M57.23,57.67a6.57,6.57,0,0,0-12.46,0c-.64,1.92-.62,1.92-.76,2.08a12,12,0,0,0,14,0C57.85,59.58,57.85,59.52,57.23,57.67Z" />
    <path class="cls-1" d="M54.36,47.82V46.73a3.36,3.36,0,1,0-6.72,0v1.09a3.36,3.36,0,0,0,6.72,0Z" />
    <path class="cls-1"
      d="M51,38a12.16,12.16,0,0,0-5.23,1.18.94.94,0,0,1,.38,1.3l-4.06,7a.93.93,0,0,1-1.28.34L39.37,47a12,12,0,0,0,3.05,11.36c.83-2.52,1.73-5,5.12-6.48-1.94-1.64-1.9-3.54-1.9-5.18a5.36,5.36,0,1,1,10.72,0c0,1.78,0,3.56-1.9,5.18,3.45,1.51,4.36,4.2,5.12,6.48C66.9,50.93,61.74,38,51,38Z" />
    <path class="cls-1"
      d="M19.23,57.67a6.57,6.57,0,0,0-12.46,0c-.64,1.92-.62,1.92-.76,2.08a12,12,0,0,0,14,0C19.85,59.58,19.85,59.52,19.23,57.67Z" />
    <path class="cls-1" d="M16.36,47.82V46.73a3.36,3.36,0,1,0-6.72,0v1.09a3.36,3.36,0,0,0,6.72,0Z" />
    <path class="cls-1"
      d="M23.19,47.86a.93.93,0,0,1-1.28-.34l-4.06-7a.94.94,0,0,1,.38-1.3A12,12,0,0,0,4.42,58.39c.83-2.52,1.73-5,5.12-6.48-1.94-1.64-1.9-3.54-1.9-5.18a5.36,5.36,0,1,1,10.72,0c0,1.78,0,3.56-1.9,5.18,3.45,1.51,4.36,4.2,5.12,6.48A12,12,0,0,0,24.63,47Z" />
    <circle class="cls-1" cx="32" cy="37" r="2" />
    <path class="cls-1"
      d="M43.89,40.4l-3-1.76a8.62,8.62,0,0,0,0-3.28l3-1.76-3-5.2-3,1.76A9.13,9.13,0,0,0,35,28.52V25H29v3.52a9.13,9.13,0,0,0-2.84,1.64L23.11,28.4l-3,5.2,3.05,1.76a8.42,8.42,0,0,0,0,3.28L20.11,40.4l3,5.2,3.05-1.76A9.13,9.13,0,0,0,29,45.48V49h6V45.48a9.13,9.13,0,0,0,2.84-1.64l3,1.76ZM32,41a4,4,0,1,1,4-4A4,4,0,0,1,32,41Z" />
  </g>
</svg>