<svg xmlns="http://www.w3.org/2000/svg" viewBox="0 0 64 64"><title>Technology</title><g id="Technology"><circle cx="32" cy="32" r="2"/><path d="M19,45H45V19H19Zm4.16-14.64-1.32-.76a1,1,0,0,1-.37-1.37l2-3.46a1,1,0,0,1,1.37-.37l1.31.76A9.21,9.21,0,0,1,29,23.52V22a1,1,0,0,1,1-1h4a1,1,0,0,1,1,1v1.52a9,9,0,0,1,2.84,1.64l1.32-.76a1,1,0,0,1,1.37.37c2.71,4.69,2.87,4.12.31,5.59a8.62,8.62,0,0,1,0,3.28c2.58,1.49,2.38.93-.31,5.59a1,1,0,0,1-1.37.37l-1.32-.76A9,9,0,0,1,35,40.48V42a1,1,0,0,1-1,1H30a1,1,0,0,1-1-1V40.48a9.21,9.21,0,0,1-2.85-1.64l-1.31.76a1,1,0,0,1-1.37-.37l-2-3.46a1,1,0,0,1,.37-1.37l1.32-.76A8.62,8.62,0,0,1,23.16,30.36Z"/><path d="M24.8,35l-1.09.63,1,1.74c1-.58,1.64-1.13,2.3-.47,2.23,2.28,4,1.41,4,2.84V41h2c0-1.3-.13-2,.75-2.23,3.17-.82,3.19-2.76,4.46-2l1.08.63,1-1.74L39.2,35c-1.23-.69.39-1.77-.46-4.87-.23-.86.44-1.12,1.55-1.76l-1-1.74-1.08.63c-1.22.7-1.38-1.23-4.46-2C32.87,25,33,24.22,33,23H31v1.26c0,1.44-1.76.56-4,2.84-.66.66-1.31.11-2.3-.47l-1,1.74L24.8,29c.94.53.2,1.35.2,3S25.74,34.47,24.8,35ZM32,28a4,4,0,1,1-4,4A4,4,0,0,1,32,28Z"/><path d="M46,14H18a4,4,0,0,0-4,4V46a4,4,0,0,0,4,4H46a4,4,0,0,0,4-4V18A4,4,0,0,0,46,14Zm1,32a1,1,0,0,1-1,1H18a1,1,0,0,1-1-1V18a1,1,0,0,1,1-1H46a1,1,0,0,1,1,1Z"/><circle cx="38" cy="61" r="2"/><circle cx="49" cy="61" r="2"/><circle cx="26" cy="61" r="2"/><circle cx="15" cy="61" r="2"/><path d="M28,56.67l-1.11,1.47a3.05,3.05,0,0,1,1.61,1.19C29.91,57.45,30,57.43,30,57V52H28Z"/><path d="M36,56.67V52H34c0,6.38-.39,4.82,1.5,7.33a3.05,3.05,0,0,1,1.61-1.19Z"/><path d="M42,55.45V52H40c0,4.27-.15,4.47.47,4.85l5.6,3.5a3,3,0,0,1,1.06-1.69Z"/><path d="M24,52H22v3H15a1,1,0,0,0-1,1v2.18a2.87,2.87,0,0,1,2,0V57h7a1,1,0,0,0,1-1Z"/><circle cx="26" cy="3" r="2"/><circle cx="15" cy="3" r="2"/><circle cx="38" cy="3" r="2"/><circle cx="49" cy="3" r="2"/><path d="M36,7.33l1.11-1.47A3.05,3.05,0,0,1,35.5,4.67C34.09,6.55,34,6.57,34,7v5h2Z"/><path d="M28,7.33V12h2c0-6.38.39-4.82-1.5-7.33a3.05,3.05,0,0,1-1.61,1.19Z"/><path d="M22,8.55V12h2c0-4.27.15-4.47-.47-4.85l-5.6-3.5a3,3,0,0,1-1.06,1.69Z"/><path d="M40,12h2V9h7a1,1,0,0,0,1-1V5.82a2.87,2.87,0,0,1-2,0V7H41a1,1,0,0,0-1,1Z"/><circle cx="3" cy="38" r="2"/><circle cx="3" cy="49" r="2"/><circle cx="3" cy="26" r="2"/><circle cx="3" cy="15" r="2"/><path d="M5.86,26.89A3.05,3.05,0,0,1,4.67,28.5C7.18,30.38,5.6,30,12,30V28H7.33Z"/><path d="M4.67,35.5a3.05,3.05,0,0,1,1.19,1.61L7.33,36H12V34C5.62,34,7.18,33.61,4.67,35.5Z"/><path d="M7.15,40.47l-3.5,5.6a3,3,0,0,1,1.69,1.06L8.55,42H12V40C7.73,40,7.53,39.85,7.15,40.47Z"/><path d="M9,15a1,1,0,0,0-1-1H5.82a2.87,2.87,0,0,1,0,2H7v7a1,1,0,0,0,1,1h4V22H9Z"/><circle cx="61" cy="26" r="2"/><circle cx="61" cy="15" r="2"/><circle cx="61" cy="38" r="2"/><circle cx="61" cy="49" r="2"/><path d="M52,34v2h4.67l1.47,1.11a3.05,3.05,0,0,1,1.19-1.61C56.82,33.62,58.4,34,52,34Z"/><path d="M59.33,28.5a3.05,3.05,0,0,1-1.19-1.61L56.67,28H52v2C58.38,30,56.82,30.39,59.33,28.5Z"/><path d="M56.85,23.53l3.5-5.6a3,3,0,0,1-1.69-1.06L55.45,22H52v2C56.27,24,56.47,24.15,56.85,23.53Z"/><path d="M57,48V41a1,1,0,0,0-1-1H52v2h3v7a1,1,0,0,0,1,1h2.18a2.87,2.87,0,0,1,0-2Z"/></g></svg>