<svg xmlns="http://www.w3.org/2000/svg" viewBox="0 0 128 128"><defs><style>.cls-1{fill:#a0aec0;}</style></defs><title>Term of Use</title><g id="Term_of_Use" data-name="Term of Use"><path class="cls-1" d="M90.38,127H11A10,10,0,0,1,1,117v-7H85v7A12,12,0,0,0,90.38,127Z"/><rect class="cls-1" x="32.02" y="64.02" width="3.96" height="3.96"/><path class="cls-1" d="M32,80v4h4V80Zm0,0v4h4V80Zm0,0v4h4V80Zm0,0v4h4V80Zm0,0v4h4V80Zm0,0v4h4V80Zm0,0v4h4V80Zm0,16v4h4V96Zm0-16v4h4V80Zm0,16v4h4V96ZM31,1A10,10,0,0,0,21,11v97H86a1,1,0,0,1,1,1v8a10,10,0,0,0,10.67,10A10.24,10.24,0,0,0,107,116.65V10a11,11,0,0,1,4.68-9Zm7,100a1,1,0,0,1-1,1H31a1,1,0,0,1-1-1V95a1,1,0,0,1,1-1h6a1,1,0,0,1,1,1Zm0-16a1,1,0,0,1-1,1H31a1,1,0,0,1-1-1V79a1,1,0,0,1,1-1h6a1,1,0,0,1,1,1Zm0-16a1,1,0,0,1-1,1H31a1,1,0,0,1-1-1V63a1,1,0,0,1,1-1h6a1,1,0,0,1,1,1ZM64,8A24,24,0,1,1,40,32,24,24,0,0,1,64,8Zm16,94H44a1,1,0,0,1,0-2H80A1,1,0,0,1,80,102Zm17-6H44a1,1,0,0,1,0-2H97A1,1,0,0,1,97,96ZM44,84H80a1,1,0,0,1,0,2H44A1,1,0,0,1,44,84Zm53-4H44a1,1,0,0,1,0-2H97A1,1,0,0,1,97,80ZM44,68H80a1,1,0,0,1,0,2H44A1,1,0,0,1,44,68Zm53-4H44a1,1,0,0,1,0-2H97A1,1,0,0,1,97,64ZM64,54A22,22,0,1,0,42,32,22,22,0,0,0,64,54ZM52.72,31.28,60,38.56,75.28,23.28a1,1,0,0,1,1.44,1.44l-16,16a1,1,0,0,1-1.44,0l-8-8A1,1,0,0,1,52.72,31.28ZM32,100h4V96H32Zm0-16h4V80H32Zm0,12v4h4V96Zm0-16v4h4V80Zm0,16v4h4V96Zm0-16v4h4V80Zm0,0v4h4V80Zm0,0v4h4V80Zm0,0v4h4V80Zm0,0v4h4V80Z"/><path class="cls-1" d="M118,1a9,9,0,0,1,9,9v9H109V10A9,9,0,0,1,118,1Z"/></g></svg>