<svg xmlns="http://www.w3.org/2000/svg" viewBox="0 0 64 64"><title>Theatter</title><g id="Theatter"><path d="M52.11,50s.09.12.09.58c0,3-3.68,5.42-8.2,5.42s-8.2-2.43-8.2-5.42a2.24,2.24,0,0,1,.06-.56c.84-.34,4.29,1.56,8.14,1.56S51.38,49.67,52.11,50Z"/><path d="M31,38.92a11.42,11.42,0,0,1,4-1.1,11.42,11.42,0,0,1,4,1.1C39,33.72,31,33.72,31,38.92Zm0,0a11.42,11.42,0,0,1,4-1.1,11.42,11.42,0,0,1,4,1.1C39,33.72,31,33.72,31,38.92Zm0,0a11.42,11.42,0,0,1,4-1.1,11.42,11.42,0,0,1,4,1.1C39,33.72,31,33.72,31,38.92ZM53.5,35A3.67,3.67,0,0,0,50,38.86a8.87,8.87,0,0,1,3.5-1,8.87,8.87,0,0,1,3.5,1A3.67,3.67,0,0,0,53.5,35Zm0,0A3.67,3.67,0,0,0,50,38.86a8.87,8.87,0,0,1,3.5-1,8.87,8.87,0,0,1,3.5,1A3.67,3.67,0,0,0,53.5,35ZM31,38.92a11.42,11.42,0,0,1,4-1.1,11.42,11.42,0,0,1,4,1.1C39,33.72,31,33.72,31,38.92ZM44,17c-5.94,0-11.87,1.63-15.4,6.44-2.77,3.71-3.82,9.25-3.59,13.69C25,50.66,30.25,63,44,63c15.1,0,19-14.45,19-26.45C63,20.18,52.4,17,44,17ZM29.78,40.74C27.76,39.39,29.54,33,35,33s7.21,6.41,5.22,7.74c-.8.55-1.78.12-2.68-.24-2.18-.91-2.9-.91-5.08,0C31.49,40.9,30.57,41.27,29.78,40.74ZM44,58c-9.11,0-11.88-7.69-9.33-9.59,1.82-1.36,5.24,1.17,9.33,1.17s7.48-2.55,9.33-1.17C55.82,50.27,53.27,58,44,58ZM58.21,40.77c-.79.49-1.64.11-2.49-.29-1.93-.88-2.51-.88-4.44,0-.84.39-1.71.79-2.49.29-2-1.28-.35-7.77,4.71-7.77S60.17,39.5,58.21,40.77ZM53.5,35A3.67,3.67,0,0,0,50,38.86a8.87,8.87,0,0,1,3.5-1,8.87,8.87,0,0,1,3.5,1A3.67,3.67,0,0,0,53.5,35ZM38.3,38.65c.82.34.7.29.7.17a4,4,0,0,0-8,0c0,.12-.14.17.7-.17C34.39,37.54,35.6,37.54,38.3,38.65Zm-7.3.27a11.42,11.42,0,0,1,4-1.1,11.42,11.42,0,0,1,4,1.1C39,33.72,31,33.72,31,38.92ZM53.5,35A3.67,3.67,0,0,0,50,38.86a8.87,8.87,0,0,1,3.5-1,8.87,8.87,0,0,1,3.5,1A3.67,3.67,0,0,0,53.5,35Zm0,0A3.67,3.67,0,0,0,50,38.86a8.87,8.87,0,0,1,3.5-1,8.87,8.87,0,0,1,3.5,1A3.67,3.67,0,0,0,53.5,35ZM31,38.92a11.42,11.42,0,0,1,4-1.1,11.42,11.42,0,0,1,4,1.1C39,33.72,31,33.72,31,38.92Z"/><path d="M23.19,32.84A35.37,35.37,0,0,0,23,37.36c-3.69.68-6.81,3.11-7.59,2.92a1.15,1.15,0,0,1-.19-.55C14.59,36,19.25,33.28,23.19,32.84Z"/><path d="M15.05,18.23a3.92,3.92,0,0,1-3.28,4.45,3.92,3.92,0,0,1-4.6-3.07c0-.12-.09-.13.71.05a7,7,0,0,0,6.51-1.15C15.14,18.06,15,18.09,15.05,18.23Z"/><path d="M32.78,15.11c0-.07.09-.09-.42.22-2.41,1.66-3.51,1.73-6.48.94a3.71,3.71,0,0,0,3.49,3.24l.17,0a15.93,15.93,0,0,1,3.14-2.1C32.56,16.93,33,16.41,32.78,15.11Zm5.75.37C35.18,1.18,24.75.05,16.82,1.45,8.54,2.91-1.34,7.88,1.5,24,3.54,35.62,9.71,48.9,24,46.86a44.58,44.58,0,0,1-1-7.48c-3.4.75-5.77,2.89-7.64,2.89-1,0-1.89-.62-2.16-2.2-.86-4.89,4.73-8.91,10.22-9.25a19.34,19.34,0,0,1,4.31-9.57c-3.63-1.17-4.66-5.53-3.45-6.64s3.06.42,4.81.12,3-2.37,4.47-1.76c1.14.48,1.3,2.43,1.17,3.53A21.24,21.24,0,0,1,38.53,15.48ZM12.12,24.65c-5.48.91-8.18-5.08-6.49-6.71.7-.67,1.66-.46,2.68-.23,2.38.52,3,.37,5-.88.89-.57,1.72-1.09,2.6-.71C18.13,17.1,17.49,23.69,12.12,24.65Z"/><path d="M25.07,39.13c0-.67-.06-1.34-.06-2A1,1,0,0,1,25.07,39.13Z"/><path d="M25.21,32.81a19.58,19.58,0,0,1,.3-2A1,1,0,0,1,25.21,32.81Z"/></g></svg>