<svg xmlns="http://www.w3.org/2000/svg" viewBox="0 0 64 64"><title>Time Management</title><g id="Time_Management" data-name="Time Management"><path d="M32,14A18,18,0,1,0,50,32,18,18,0,0,0,32,14ZM16,31h2a1,1,0,0,1,0,2H16A1,1,0,0,1,16,31Zm2.64,9.87a1,1,0,0,1-1-1.74A1,1,0,0,1,18.64,40.87ZM19,24.5a1,1,0,0,1-1.73-1A1,1,0,0,1,19,24.5Zm20.12-6.86a1,1,0,0,1,1.74,1A1,1,0,0,1,39.13,17.64ZM31,16a1,1,0,0,1,2,0v2a1,1,0,0,1-2,0ZM24.87,46.36a1,1,0,0,1-1.74-1A1,1,0,0,1,24.87,46.36ZM24.5,19a1,1,0,0,1-1-1.73A1,1,0,0,1,24.5,19ZM33,48a1,1,0,0,1-2,0V46a1,1,0,0,1,2,0Zm7.5-1.28a1,1,0,0,1-1-1.73A1,1,0,0,1,40.5,46.72ZM40,33c-8.48,0-5.4-.23-7,.73V35a1,1,0,0,1-2,0V33.73a2.13,2.13,0,0,1-.73-.73H29a1,1,0,0,1,0-2h1.27c1-1.72.73,2,.73-9a1,1,0,0,1,2,0v8.27c1.59.95-1.47.73,7,.73A1,1,0,0,1,40,33Zm8,0H46a1,1,0,0,1,0-2h2A1,1,0,0,1,48,33Zm-2.64-9.87a1,1,0,0,1,1,1.74A1,1,0,0,1,45.36,23.13ZM45,39.5a1,1,0,0,1,1.73,1A1,1,0,0,1,45,39.5Z"/><path d="M57.19,25.54l5.16-3-7-12.12-5.17,3A26,26,0,0,0,39,7V1H25V7a26,26,0,0,0-11.18,6.46l-5.17-3-7,12.12,5.16,3a26.17,26.17,0,0,0,0,12.92l-5.16,3,7,12.12,5.17-3A26,26,0,0,0,25,57v6H39V57a26,26,0,0,0,11.18-6.46l5.17,3,7-12.12-5.16-3A26.17,26.17,0,0,0,57.19,25.54ZM32,52A20,20,0,1,1,52,32,20,20,0,0,1,32,52Z"/></g></svg>