<svg xmlns="http://www.w3.org/2000/svg" viewBox="0 0 64 64"><title>Tools</title><g id="Tools"><path d="M1,63H12V61a1,1,0,0,1,2,0v2h3V59a1,1,0,0,1,2,0v4h3V61a1,1,0,0,1,2,0v2h3V59a1,1,0,0,1,2,0v4h3V61a1,1,0,0,1,2,0v2h3V59a1,1,0,0,1,2,0v4h3V61a1,1,0,0,1,2,0v2h3V59a1,1,0,0,1,2,0v4h3V61a1,1,0,0,1,2,0v2h3V59a1,1,0,0,1,2,0v4h4V21ZM53,53H33.59L53,39.85Z"/><path d="M2.84,49.24,1,50l.76-1.84A1.91,1.91,0,0,1,2.84,49.24Z"/><path d="M8.52,46.46c0,.62.94,0-3.82,2a4,4,0,0,0-2.18-2.17c1.9-4.61,1.48-3.9,1.92-3.86A7,7,0,0,1,8.52,46.46Z"/><path d="M35.79,10.21l5,5L10.35,45.65a9,9,0,0,0-5-5Z"/><rect x="39.38" y="6.96" width="2.23" height="7.07" transform="translate(4.44 31.71) rotate(-45)"/><path d="M50,5c0,1.33-.51,1.51-4.79,5.79l-5-5,4.08-4.08a2.41,2.41,0,0,1,3.42,0C49.23,3.23,50,3.74,50,5Z"/><rect x="4" y="6" width="8" height="8"/><path d="M18,8v4a2,2,0,0,1-2,2H14V6h2A2,2,0,0,1,18,8Z"/></g></svg>