<svg xmlns="http://www.w3.org/2000/svg" viewBox="0 0 64 64"><title>Tutorial</title><g id="Tutorial"><path d="M48.23,39c-.66.19-.62-.68-1,2h1.64C48.57,39.4,48.61,39.13,48.23,39Zm.34.45a.57.57,0,0,0-1.14,0L47.18,41h1.64Zm0,0a.57.57,0,0,0-1.14,0L47.18,41h1.64Zm0,0a.57.57,0,0,0-1.14,0L47.18,41h1.64ZM32.13,19.87l16,2.14,2.35-1L32,13.09,13.54,21,32,28.91l12.52-5.36-12.65-1.7A1,1,0,0,1,32.13,19.87Zm0,0,16,2.14,2.35-1L32,13.09,13.54,21,32,28.91l12.52-5.36-12.65-1.7A1,1,0,0,1,32.13,19.87ZM48.23,39a.47.47,0,0,0-.46,0c-.38.16-.34.46-.59,2h1.64C48.57,39.4,48.61,39.13,48.23,39ZM32,31c-.29,0,.53.31-11-4.63V34.5c0,1.49,4.76,5.14,11,5.14S43,36,43,34.5V26.37C31.51,31.3,32.29,31,32,31ZM1,5V46H63V5ZM49,23.8V37.11c1.7.73,1.61,2.4,2,4.73A1,1,0,0,1,50,43c-5.83,0-5.27.53-4.54-3.91a2.61,2.61,0,0,1,1.54-2V24.66l-2,.86v9c0,3.15-6.12,7.14-13,7.14s-13-4-13-7.14v-9l-8.39-3.6a1,1,0,0,1,0-1.84c22.92-9.82,21.23-9.24,21.78-9C54.78,20.68,54,20.05,54,21S53.59,21.83,49,23.8ZM13.54,21,32,28.91l12.52-5.36-12.65-1.7a1,1,0,0,1,.26-2l16,2.14,2.35-1L32,13.09ZM48.23,39a.47.47,0,0,0-.46,0c-.38.16-.34.46-.59,2h1.64C48.57,39.4,48.61,39.13,48.23,39ZM32,31c-.29,0,.53.31-11-4.63V34.5c0,1.49,4.76,5.14,11,5.14S43,36,43,34.5V26.37C31.51,31.3,32.29,31,32,31Zm16.57,8.42a.57.57,0,0,0-1.14,0L47.18,41h1.64ZM32.13,19.87l16,2.14,2.35-1L32,13.09,13.54,21,32,28.91l12.52-5.36-12.65-1.7A1,1,0,0,1,32.13,19.87ZM48.57,39.42a.57.57,0,0,0-1.14,0L47.18,41h1.64Zm0,0a.57.57,0,0,0-1.14,0L47.18,41h1.64Zm0,0a.57.57,0,0,0-1.14,0L47.18,41h1.64Z"/><path d="M1,49V59H63V49Zm6.45,5.89C5.28,56,5.31,56,5,56a1,1,0,0,1-1-1c0-2.09-.12-2.48.47-2.85s1,0,3,1A1,1,0,0,1,7.45,54.89ZM36,55a1,1,0,0,1-2,0H11a1,1,0,0,1,0-2H34a1,1,0,0,1,2,0Zm23,0H38a1,1,0,0,1,0-2H59A1,1,0,0,1,59,55Z"/><path d="M48.23,39a.9.9,0,0,1-.46,0A.47.47,0,0,1,48.23,39Z"/></g></svg>