<svg xmlns="http://www.w3.org/2000/svg" viewBox="0 0 64 64"><title>Unicorn</title><g id="Unicorn"><path d="M32,13V9a17.4,17.4,0,0,0-6.12,1.1C29.64,15,27.23,13,32,13Z"/><path d="M52,1,37.59,13.7a15.53,15.53,0,0,1,6.78,3.86Z"/><path d="M61.54,34c-17.92-12.21-12.2-8.74-18.06-14.52C40.62,16.62,37.33,15,32,15a10.57,10.57,0,0,0-2.19.22l4,5.17a1,1,0,0,1-1.58,1.22l-9-11.77a12.9,12.9,0,0,0-.44,9.63,22.44,22.44,0,0,0,1.17,3.08,1,1,0,0,1-1.78.9,20.57,20.57,0,0,1-1-2.55C12.92,30.42,7.14,52.11,6,63H41c-1.67-5-2.89-13.31-1.16-18.49a14.46,14.46,0,0,1-16.55-2.8,1,1,0,0,1,1.42-1.42,12.44,12.44,0,0,0,14.08,2.5c3-1.29-1.1-2.41,17,4.37a3.38,3.38,0,0,0,3.77-1l2.69-7.22A3.38,3.38,0,0,0,61.54,34Z"/><path d="M19.56,19.6h0c1.1-1.32.89-.58.67-2a14,14,0,0,1-.14-4.08C9.37,22.24,3.71,42.4,1,56l3.85,1.1C6.91,45.9,11.94,28.44,19.56,19.6Z"/></g></svg>