<svg xmlns="http://www.w3.org/2000/svg" viewBox="0 0 128 128"><defs><style>.cls-1{fill:#a0aec0;}</style></defs><title>Unsubscribed</title><g id="Unsubscribed"><path class="cls-1" d="M127,19a18,18,0,0,1-18,18H73V32a9,9,0,0,0-18,0v5H19A18,18,0,0,1,19,1h90A18,18,0,0,1,127,19Z"/><path class="cls-1" d="M106.21,65A7,7,0,0,0,99,72V68.29A7.19,7.19,0,0,0,92.21,61,7,7,0,0,0,85,68a7,7,0,0,0-14,0V32a7,7,0,0,0-2-4.95c-4.48-4.48-12-1.1-12,5.24V88a1,1,0,0,1-2,0V66c0-10.17-14-13.32-14-6V91a35.92,35.92,0,0,0,10.54,25.46C73.38,138.1,113,125.09,113,91V72.29A7.19,7.19,0,0,0,106.21,65Z"/></g></svg>