<svg xmlns="http://www.w3.org/2000/svg" viewBox="0 0 128 128"><defs><style>.cls-1{fill:#a0aec0;}</style></defs><title>Upgrade</title><g id="Upgrade"><rect class="cls-1" x="56.02" y="83.02" width="15.96" height="4.96"/><path class="cls-1" d="M64,30A34,34,0,1,0,98,64,34,34,0,0,0,64,30ZM74,89a1,1,0,0,1-1,1H55a1,1,0,0,1-1-1V82a1,1,0,0,1,1-1H73a1,1,0,0,1,1,1ZM84,55.38c-.36.88-.21.64-9.93.64V75a1,1,0,0,1-1,1H55a1,1,0,0,1-1-1V56H45a1,1,0,0,1-.71-1.75l19-18.57a1,1,0,0,1,1.42,0C85.31,55.83,84.31,54.48,84,55.38ZM47.5,54H55a1,1,0,0,1,1,1V74H72V55a1,1,0,0,1,1-1h7.5L64,37.86Z"/><path class="cls-1" d="M114.43,52,126,45.34,111.15,19.66,99.6,26.33a51.68,51.68,0,0,0-20.78-12V1H49.18V14.29a51.68,51.68,0,0,0-20.78,12L16.85,19.66,2,45.34,13.57,52a50.46,50.46,0,0,0,0,24L2,82.66l14.82,25.68,11.55-6.67a51.68,51.68,0,0,0,20.78,12V127H78.82V113.71a51.68,51.68,0,0,0,20.78-12l11.55,6.67L126,82.66,114.43,76A50.46,50.46,0,0,0,114.43,52ZM64,100a36,36,0,1,1,36-36A36.06,36.06,0,0,1,64,100Z"/></g></svg>