<svg xmlns="http://www.w3.org/2000/svg" viewBox="0 0 128 128">
  <defs>
    <style>
      .cls-1 {
        fill: #a0aec0;
      }
    </style>
  </defs>
  <g id="Uploading">
    <path class="cls-1"
      d="M99.78,34.51H97c5-11.08-6.26-22.27-17.12-17.68a25.66,25.66,0,0,0-49.36,10A17.15,17.15,0,0,0,32.11,61H55V57H47.58a1,1,0,0,1-.7-1.71L63.29,38.88a1,1,0,0,1,1.42,0L81.12,55.29a1,1,0,0,1-.7,1.71H73v4H99.78a13.25,13.25,0,0,0,0-26.49Z" />
    <polygon class="cls-1" points="71 81 71 55 78 55 64 41 50 55 57 55 57 81 71 81" />
    <path class="cls-1"
      d="M73,82a1,1,0,0,1-1,1H56a1,1,0,0,1-1-1V73H35v9H46.07l4,6H93c0,37.42-.25,35.87.59,37.07,2.13,3.55,7.41,1.86,7.41-2.3V73H73Z" />
    <path class="cls-1" d="M91,90H49c-4.55-6.79-3.8-6-4.4-6H27v39a4,4,0,0,0,4,4H92.54A6,6,0,0,1,91,123Z" />
  </g>
</svg>