<svg xmlns="http://www.w3.org/2000/svg" viewBox="0 0 64 64"><title>User Experience</title><g id="User_Experience" data-name="User Experience"><path d="M48,56v3a1,1,0,0,1-1,1H17a1,1,0,0,1-1-1V55H13v4a4,4,0,0,0,4,4H47a4,4,0,0,0,4-4V55.83A12,12,0,0,1,48,56ZM13,33v6h3V33Zm35-4v3a12,12,0,0,1,3,.13V29ZM47,1H17a4,4,0,0,0-4,4v6h3V5a1,1,0,0,1,1-1h7a1,1,0,0,1,1,1,1,1,0,0,0,1,1H38a1,1,0,0,0,1-1,1,1,0,0,1,1-1h7a1,1,0,0,1,1,1v6h3V5A4,4,0,0,0,47,1ZM27,4a1,1,0,0,1,2,0A1,1,0,0,1,27,4Zm8,0a1,1,0,0,1,2,0A1,1,0,0,1,35,4Zm-1,7H46V6H40.83A3,3,0,0,1,38,8H26a3,3,0,0,1-2.83-2H18v5h9a1,1,0,0,1,1,1V32a1,1,0,0,1-1,1H18v6H32a1,1,0,0,1,1,1V54a1,1,0,0,1-1,1H18v3H46V55.62a12,12,0,0,1,0-23.24V29H34a1,1,0,0,1-1-1V12A1,1,0,0,1,34,11Z"/><path d="M54.68,52.22a10,10,0,0,1-11.36,0c.14-.18.09-.1.65-1.78a5.31,5.31,0,0,1,10.06,0C54.6,52.15,54.54,52,54.68,52.22Z"/><path d="M51.64,41.27v.91a2.64,2.64,0,1,1-5.28,0v-.91a2.64,2.64,0,0,1,5.28,0Z"/><path d="M56.28,50.85c-.69-2-1.41-4.05-4.09-5.31a5.08,5.08,0,0,0,1.45-4.27,4.64,4.64,0,0,0-9.28,0c0,1.45,0,2.87,1.45,4.28-2.73,1.29-3.47,3.45-4.09,5.3a10,10,0,1,1,14.56,0Z"/><path d="M1,41V53H31V41Zm21,9H6a1,1,0,0,1,0-2H22A1,1,0,0,1,22,50Zm4-4H6a1,1,0,0,1,0-2H26A1,1,0,0,1,26,46Z"/><path d="M35,13V27H63V13Zm8.71,9.29A1,1,0,0,1,43,24c-.56,0-.45,0-3.71-3.29a1,1,0,0,1,0-1.42l3-3a1,1,0,0,1,1.42,1.42L41.41,20Zm8.12-4.74C47.47,24.09,47.72,24,47,24a1,1,0,0,1-.83-1.55l4-6A1,1,0,0,1,51.83,17.55Zm6.88,3.16C55.6,23.82,55.58,24,55,24a1,1,0,0,1-.71-1.71L56.59,20l-2.3-2.29a1,1,0,0,1,1.42-1.42l3,3A1,1,0,0,1,58.71,20.71Z"/><path d="M4,13V31H26V13Zm6,14a1,1,0,0,1-2,0V25a1,1,0,0,1,2,0Zm4,0a1,1,0,0,1-2,0V21a1,1,0,0,1,2,0Zm4,0a1,1,0,0,1-2,0V22a1,1,0,0,1,2,0Zm4,0a1,1,0,0,1-2,0V17a1,1,0,0,1,2,0Z"/></g></svg>