<svg xmlns="http://www.w3.org/2000/svg" viewBox="0 0 64 64"><title>User Acquisitions</title><g id="User_Acquisitions" data-name="User Acquisitions"><path d="M1,1V9H63V1ZM6,6A1,1,0,0,1,6,4,1,1,0,0,1,6,6Zm5,0a1,1,0,0,1,0-2A1,1,0,0,1,11,6Zm5,0a1,1,0,0,1,0-2A1,1,0,0,1,16,6Z"/><path d="M39.83,41.15l-2-3.55a12.92,12.92,0,0,1-11.71,0l-2,3.55A13,13,0,0,1,30,52h4A13,13,0,0,1,39.83,41.15Z"/><path d="M1,52H4A13,13,0,0,1,22.42,40.18l2-3.61C14.11,29.09,19.53,13,32,13s17.87,16.11,7.57,23.57l2,3.61A13,13,0,0,1,60,52h3V11H1Z"/><path d="M26.37,33.06c-.59,1.76-.58,1.78-.71,1.93a11,11,0,0,0,12.68,0c-.15-.17-.15-.26-.71-1.93A5.94,5.94,0,0,0,26.37,33.06Z"/><path d="M35,24V23a3,3,0,0,0-6,0v1a3,3,0,0,0,6,0Z"/><path d="M39.93,33.63a11,11,0,1,0-15.86,0c.75-2.27,1.57-4.51,4.61-5.9C27,26.23,27,24.49,27,23a5,5,0,0,1,10,0c0,1.62,0,3.24-1.68,4.73C38.41,29.14,39.24,31.53,39.93,33.63Z"/><path d="M22.63,59.06a5.94,5.94,0,0,0-11.26,0c-.61,1.83-.58,1.78-.71,1.93a11,11,0,0,0,12.68,0C23.18,60.81,23.15,60.62,22.63,59.06Z"/><path d="M20,50V49a3,3,0,0,0-6,0v1a3,3,0,0,0,6,0Z"/><path d="M17,41A11,11,0,0,0,9.07,59.62c.76-2.27,1.58-4.51,4.61-5.89C12,52.23,12,50.49,12,49a5,5,0,0,1,10,0c0,1.62,0,3.24-1.68,4.73,3.08,1.41,3.91,3.79,4.61,5.89A11,11,0,0,0,17,41Z"/><path d="M52.63,59.06a5.94,5.94,0,0,0-11.26,0c-.61,1.83-.58,1.78-.71,1.93a11,11,0,0,0,12.68,0C53.18,60.81,53.15,60.62,52.63,59.06Z"/><path d="M50,50V49a3,3,0,0,0-6,0v1a3,3,0,0,0,6,0Z"/><path d="M47,41a11,11,0,0,0-7.93,18.62c.76-2.27,1.58-4.51,4.61-5.89C42,52.23,42,50.49,42,49a5,5,0,0,1,10,0c0,1.62,0,3.24-1.68,4.73,3.08,1.41,3.91,3.79,4.61,5.89A11,11,0,0,0,47,41Z"/></g></svg>