<svg xmlns="http://www.w3.org/2000/svg" viewBox="0 0 64 64"><title>User Interface</title><g id="User_Interface" data-name="User Interface"><polygon points="39.46 58 40.8 56 23.2 56 24.54 58 39.46 58"/><path d="M61,56H43a1,1,0,0,1-.17.55C40.71,59.72,40.7,60,40,60c-17.25,0-16.42.19-16.83-.45C21.05,56.37,21,56.4,21,56H3a2,2,0,0,0-2,2v2a4,4,0,0,0,4,4H59a4,4,0,0,0,4-4V58A2,2,0,0,0,61,56Z"/><rect x="52" y="19" width="2" height="30"/><path d="M59,17a3,3,0,0,0-3-3H52v3h3a1,1,0,0,1,1,1V50a1,1,0,0,1-1,1H9a1,1,0,0,1-1-1V18a1,1,0,0,1,1-1h3V14H8a3,3,0,0,0-3,3V54H59Z"/><rect x="10" y="19" width="2" height="30"/><rect x="20" y="43" width="24" height="2"/><path d="M42,25a2,2,0,1,0,2,2A2,2,0,0,0,42,25Zm0,0a2,2,0,1,0,2,2A2,2,0,0,0,42,25ZM22,25a2,2,0,1,0,2,2A2,2,0,0,0,22,25Zm10,0a2,2,0,1,0,2,2A2,2,0,0,0,32,25Zm10,0a2,2,0,1,0,2,2A2,2,0,0,0,42,25Zm0,0a2,2,0,1,0,2,2A2,2,0,0,0,42,25ZM22,25a2,2,0,1,0,2,2A2,2,0,0,0,22,25Zm10,0a2,2,0,1,0,2,2A2,2,0,0,0,32,25ZM14,8V49H50V8Zm5,25h6a1,1,0,0,1,0,2H19A1,1,0,0,1,19,33Zm-1-6a4,4,0,1,1,4,4A4,4,0,0,1,18,27Zm1,10h6a1,1,0,0,1,0,2H19A1,1,0,0,1,19,37Zm27,9a1,1,0,0,1-1,1H19a1,1,0,0,1-1-1V42a1,1,0,0,1,1-1H45a1,1,0,0,1,1,1ZM29,33h6a1,1,0,0,1,0,2H29A1,1,0,0,1,29,33Zm-1-6a4,4,0,1,1,4,4A4,4,0,0,1,28,27Zm1,10h6a1,1,0,0,1,0,2H29A1,1,0,0,1,29,37Zm16,2H39a1,1,0,0,1,0-2h6A1,1,0,0,1,45,39Zm0-4H39a1,1,0,0,1,0-2h6A1,1,0,0,1,45,35Zm-3-4a4,4,0,1,1,4-4A4,4,0,0,1,42,31Zm4-11a1,1,0,0,1-1,1H19a1,1,0,0,1-1-1V11a1,1,0,0,1,1-1H45a1,1,0,0,1,1,1ZM20,19H44V12H20Zm22,6a2,2,0,1,0,2,2A2,2,0,0,0,42,25ZM32,29a2,2,0,1,0-2-2A2,2,0,0,0,32,29ZM22,29a2,2,0,1,0-2-2A2,2,0,0,0,22,29Zm10-4a2,2,0,1,0,2,2A2,2,0,0,0,32,25Zm10,0a2,2,0,1,0,2,2A2,2,0,0,0,42,25Zm0,0a2,2,0,1,0,2,2A2,2,0,0,0,42,25ZM32,25a2,2,0,1,0,2,2A2,2,0,0,0,32,25Z"/><path d="M14,0V6H50V0Zm4,4a1,1,0,0,1,0-2A1,1,0,0,1,18,4Zm4,0a1,1,0,0,1,0-2A1,1,0,0,1,22,4Zm4,0a1,1,0,0,1,0-2A1,1,0,0,1,26,4Z"/></g></svg>