<svg xmlns="http://www.w3.org/2000/svg" viewBox="0 0 64 64"><title>User Security</title><g id="User_Security" data-name="User Security"><rect x="18" y="56" width="28" height="2"/><path d="M51,56v3a4,4,0,0,1-4,4H17a4,4,0,0,1-4-4V56h3v3a1,1,0,0,0,1,1H47a1,1,0,0,0,1-1V56Z"/><path d="M32,14a4,4,0,0,0-4,4v2h8V18A4,4,0,0,0,32,14Zm-7,8V32H39V22Zm8,5.73V29a1,1,0,0,1-2,0V27.73a2,2,0,1,1,2,0ZM25,22V32H39V22Zm8,5.73V29a1,1,0,0,1-2,0V27.73a2,2,0,1,1,2,0ZM32,14a4,4,0,0,0-4,4v2h8V18A4,4,0,0,0,32,14Zm0,0a4,4,0,0,0-4,4v2h8V18A4,4,0,0,0,32,14Zm-7,8V32H39V22Zm8,5.73V29a1,1,0,0,1-2,0V27.73a2,2,0,1,1,2,0ZM25,22V32H39V22Zm8,5.73V29a1,1,0,0,1-2,0V27.73a2,2,0,1,1,2,0ZM32,14a4,4,0,0,0-4,4v2h8V18A4,4,0,0,0,32,14Zm0,0a4,4,0,0,0-4,4v2h8V18A4,4,0,0,0,32,14Zm-7,8V32H39V22Zm8,5.73V29a1,1,0,0,1-2,0V27.73a2,2,0,1,1,2,0ZM25,22V32H39V22Zm8,5.73V29a1,1,0,0,1-2,0V27.73a2,2,0,1,1,2,0ZM32,14a4,4,0,0,0-4,4v2h8V18A4,4,0,0,0,32,14Zm0,0a4,4,0,0,0-4,4v2h8V18A4,4,0,0,0,32,14Zm-7,8V32H39V22Zm8,5.73V29a1,1,0,0,1-2,0V27.73a2,2,0,1,1,2,0ZM25,22V32H39V22Zm8,5.73V29a1,1,0,0,1-2,0V27.73a2,2,0,1,1,2,0ZM32,14a4,4,0,0,0-4,4v2h8V18A4,4,0,0,0,32,14Zm0,0a4,4,0,0,0-4,4v2h8V18A4,4,0,0,0,32,14Zm-7,8V32H39V22Zm8,5.73V29a1,1,0,0,1-2,0V27.73a2,2,0,1,1,2,0ZM25,22V32H39V22Zm8,5.73V29a1,1,0,0,1-2,0V27.73a2,2,0,1,1,2,0ZM32,14a4,4,0,0,0-4,4v2h8V18A4,4,0,0,0,32,14Zm0,0a4,4,0,0,0-4,4v2h8V18A4,4,0,0,0,32,14Zm-7,8V32H39V22Zm8,5.73V29a1,1,0,0,1-2,0V27.73a2,2,0,1,1,2,0ZM25,22V32H39V22Zm8,5.73V29a1,1,0,0,1-2,0V27.73a2,2,0,1,1,2,0ZM32,14a4,4,0,0,0-4,4v2h8V18A4,4,0,0,0,32,14Zm0,0a4,4,0,0,0-4,4v2h8V18A4,4,0,0,0,32,14Zm-7,8V32H39V22Zm8,5.73V29a1,1,0,0,1-2,0V27.73a2,2,0,1,1,2,0ZM25,22V32H39V22Zm8,5.73V29a1,1,0,0,1-2,0V27.73a2,2,0,1,1,2,0ZM32,14a4,4,0,0,0-4,4v2h8V18A4,4,0,0,0,32,14Zm0,0a4,4,0,0,0-4,4v2h8V18A4,4,0,0,0,32,14Zm-7,8V32H39V22Zm8,5.73V29a1,1,0,0,1-2,0V27.73a2,2,0,1,1,2,0ZM25,22V32H39V22Zm8,5.73V29a1,1,0,0,1-2,0V27.73a2,2,0,1,1,2,0ZM32,14a4,4,0,0,0-4,4v2h8V18A4,4,0,0,0,32,14Zm0,0a4,4,0,0,0-4,4v2h8V18A4,4,0,0,0,32,14Zm-7,8V32H39V22Zm8,5.73V29a1,1,0,0,1-2,0V27.73a2,2,0,1,1,2,0ZM25,22V32H39V22Zm8,5.73V29a1,1,0,0,1-2,0V27.73a2,2,0,1,1,2,0ZM32,14a4,4,0,0,0-4,4v2h8V18A4,4,0,0,0,32,14Zm0,0a4,4,0,0,0-4,4v2h8V18A4,4,0,0,0,32,14Zm-7,8V32H39V22Zm8,5.73V29a1,1,0,0,1-2,0V27.73a2,2,0,1,1,2,0ZM25,22V32H39V22Zm8,5.73V29a1,1,0,0,1-2,0V27.73a2,2,0,1,1,2,0ZM32,14a4,4,0,0,0-4,4v2h8V18A4,4,0,0,0,32,14Zm0,0a4,4,0,0,0-4,4v2h8V18A4,4,0,0,0,32,14Zm-7,8V32H39V22Zm8,5.73V29a1,1,0,0,1-2,0V27.73a2,2,0,1,1,2,0ZM25,22V32H39V22Zm8,5.73V29a1,1,0,0,1-2,0V27.73a2,2,0,1,1,2,0ZM32,14a4,4,0,0,0-4,4v2h8V18A4,4,0,0,0,32,14Zm0,0a4,4,0,0,0-4,4v2h8V18A4,4,0,0,0,32,14Zm-7,8V32H39V22Zm8,5.73V29a1,1,0,0,1-2,0V27.73a2,2,0,1,1,2,0ZM25,22V32H39V22Zm8,5.73V29a1,1,0,0,1-2,0V27.73a2,2,0,1,1,2,0ZM32,14a4,4,0,0,0-4,4v2h8V18A4,4,0,0,0,32,14Zm0,0a4,4,0,0,0-4,4v2h8V18A4,4,0,0,0,32,14Zm-7,8V32H39V22Zm8,5.73V29a1,1,0,0,1-2,0V27.73a2,2,0,1,1,2,0ZM25,22V32H39V22Zm8,5.73V29a1,1,0,0,1-2,0V27.73a2,2,0,1,1,2,0ZM32,14a4,4,0,0,0-4,4v2h8V18A4,4,0,0,0,32,14Zm0,0a4,4,0,0,0-4,4v2h8V18A4,4,0,0,0,32,14Zm-7,8V32H39V22Zm8,5.73V29a1,1,0,0,1-2,0V27.73a2,2,0,1,1,2,0ZM25,22V32H39V22Zm8,5.73V29a1,1,0,0,1-2,0V27.73a2,2,0,1,1,2,0ZM32,14a4,4,0,0,0-4,4v2h8V18A4,4,0,0,0,32,14Zm0,0a4,4,0,0,0-4,4v2h8V18A4,4,0,0,0,32,14Zm-7,8V32H39V22Zm8,5.73V29a1,1,0,0,1-2,0V27.73a2,2,0,1,1,2,0ZM25,22V32H39V22Zm8,5.73V29a1,1,0,0,1-2,0V27.73a2,2,0,1,1,2,0ZM32,14a4,4,0,0,0-4,4v2h8V18A4,4,0,0,0,32,14Zm0,0a4,4,0,0,0-4,4v2h8V18A4,4,0,0,0,32,14Zm-7,8V32H39V22Zm8,5.73V29a1,1,0,0,1-2,0V27.73a2,2,0,1,1,2,0ZM25,22V32H39V22Zm8,5.73V29a1,1,0,0,1-2,0V27.73a2,2,0,1,1,2,0ZM32,14a4,4,0,0,0-4,4v2h8V18A4,4,0,0,0,32,14Zm0,0a4,4,0,0,0-4,4v2h8V18A4,4,0,0,0,32,14Zm-7,8V32H39V22Zm8,5.73V29a1,1,0,0,1-2,0V27.73a2,2,0,1,1,2,0ZM25,22V32H39V22Zm8,5.73V29a1,1,0,0,1-2,0V27.73a2,2,0,1,1,2,0ZM32,14a4,4,0,0,0-4,4v2h8V18A4,4,0,0,0,32,14Zm0,0a4,4,0,0,0-4,4v2h8V18A4,4,0,0,0,32,14Zm-7,8V32H39V22Zm8,5.73V29a1,1,0,0,1-2,0V27.73a2,2,0,1,1,2,0ZM25,22V32H39V22Zm8,5.73V29a1,1,0,0,1-2,0V27.73a2,2,0,1,1,2,0ZM32,14a4,4,0,0,0-4,4v2h8V18A4,4,0,0,0,32,14Zm0,0a4,4,0,0,0-4,4v2h8V18A4,4,0,0,0,32,14Zm-7,8V32H39V22Zm8,5.73V29a1,1,0,0,1-2,0V27.73a2,2,0,1,1,2,0ZM25,22V32H39V22Zm8,5.73V29a1,1,0,0,1-2,0V27.73a2,2,0,1,1,2,0ZM36,18a4,4,0,0,0-8,0v2h8ZM40.83,6A3,3,0,0,1,38,8H26a3,3,0,0,1-2.83-2H18V40H28l4-5.33L36,40H46V6ZM41,33a1,1,0,0,1-1,1H24a1,1,0,0,1-1-1V21a1,1,0,0,1,1-1h2V18a6,6,0,0,1,12,0v2h2a1,1,0,0,1,1,1ZM25,32H39V22H25Zm7-8a2,2,0,0,1,1,3.73V29a1,1,0,0,1-2,0V27.73A2,2,0,0,1,32,24Zm4-6a4,4,0,0,0-8,0v2h8Zm-4-4a4,4,0,0,0-4,4v2h8V18A4,4,0,0,0,32,14Zm-7,8V32H39V22Zm8,5.73V29a1,1,0,0,1-2,0V27.73a2,2,0,1,1,2,0ZM25,22V32H39V22Zm8,5.73V29a1,1,0,0,1-2,0V27.73a2,2,0,1,1,2,0ZM32,14a4,4,0,0,0-4,4v2h8V18A4,4,0,0,0,32,14Zm0,0a4,4,0,0,0-4,4v2h8V18A4,4,0,0,0,32,14Zm-7,8V32H39V22Zm8,5.73V29a1,1,0,0,1-2,0V27.73a2,2,0,1,1,2,0ZM25,22V32H39V22Zm8,5.73V29a1,1,0,0,1-2,0V27.73a2,2,0,1,1,2,0ZM32,14a4,4,0,0,0-4,4v2h8V18A4,4,0,0,0,32,14Zm0,0a4,4,0,0,0-4,4v2h8V18A4,4,0,0,0,32,14Zm-7,8V32H39V22Zm8,5.73V29a1,1,0,0,1-2,0V27.73a2,2,0,1,1,2,0ZM25,22V32H39V22Zm8,5.73V29a1,1,0,0,1-2,0V27.73a2,2,0,1,1,2,0ZM32,14a4,4,0,0,0-4,4v2h8V18A4,4,0,0,0,32,14Zm0,0a4,4,0,0,0-4,4v2h8V18A4,4,0,0,0,32,14Zm-7,8V32H39V22Zm8,5.73V29a1,1,0,0,1-2,0V27.73a2,2,0,1,1,2,0ZM25,22V32H39V22Zm8,5.73V29a1,1,0,0,1-2,0V27.73a2,2,0,1,1,2,0ZM32,14a4,4,0,0,0-4,4v2h8V18A4,4,0,0,0,32,14Zm0,0a4,4,0,0,0-4,4v2h8V18A4,4,0,0,0,32,14Zm-7,8V32H39V22Zm8,5.73V29a1,1,0,0,1-2,0V27.73a2,2,0,1,1,2,0ZM25,22V32H39V22Zm8,5.73V29a1,1,0,0,1-2,0V27.73a2,2,0,1,1,2,0ZM32,14a4,4,0,0,0-4,4v2h8V18A4,4,0,0,0,32,14Zm0,0a4,4,0,0,0-4,4v2h8V18A4,4,0,0,0,32,14Zm-7,8V32H39V22Zm8,5.73V29a1,1,0,0,1-2,0V27.73a2,2,0,1,1,2,0ZM25,22V32H39V22Zm8,5.73V29a1,1,0,0,1-2,0V27.73a2,2,0,1,1,2,0ZM32,14a4,4,0,0,0-4,4v2h8V18A4,4,0,0,0,32,14Zm0,0a4,4,0,0,0-4,4v2h8V18A4,4,0,0,0,32,14Zm-7,8V32H39V22Zm8,5.73V29a1,1,0,0,1-2,0V27.73a2,2,0,1,1,2,0ZM25,22V32H39V22Zm8,5.73V29a1,1,0,0,1-2,0V27.73a2,2,0,1,1,2,0ZM32,14a4,4,0,0,0-4,4v2h8V18A4,4,0,0,0,32,14Zm0,0a4,4,0,0,0-4,4v2h8V18A4,4,0,0,0,32,14Zm-7,8V32H39V22Zm8,5.73V29a1,1,0,0,1-2,0V27.73a2,2,0,1,1,2,0ZM25,22V32H39V22Zm8,5.73V29a1,1,0,0,1-2,0V27.73a2,2,0,1,1,2,0ZM32,14a4,4,0,0,0-4,4v2h8V18A4,4,0,0,0,32,14Zm0,0a4,4,0,0,0-4,4v2h8V18A4,4,0,0,0,32,14Zm-7,8V32H39V22Zm8,5.73V29a1,1,0,0,1-2,0V27.73a2,2,0,1,1,2,0ZM25,22V32H39V22Zm8,5.73V29a1,1,0,0,1-2,0V27.73a2,2,0,1,1,2,0ZM32,14a4,4,0,0,0-4,4v2h8V18A4,4,0,0,0,32,14Zm0,0a4,4,0,0,0-4,4v2h8V18A4,4,0,0,0,32,14Zm-7,8V32H39V22Zm8,5.73V29a1,1,0,0,1-2,0V27.73a2,2,0,1,1,2,0ZM25,22V32H39V22Zm8,5.73V29a1,1,0,0,1-2,0V27.73a2,2,0,1,1,2,0ZM32,14a4,4,0,0,0-4,4v2h8V18A4,4,0,0,0,32,14Zm0,0a4,4,0,0,0-4,4v2h8V18A4,4,0,0,0,32,14Zm-7,8V32H39V22Zm8,5.73V29a1,1,0,0,1-2,0V27.73a2,2,0,1,1,2,0ZM25,22V32H39V22Zm8,5.73V29a1,1,0,0,1-2,0V27.73a2,2,0,1,1,2,0ZM32,14a4,4,0,0,0-4,4v2h8V18A4,4,0,0,0,32,14Zm0,0a4,4,0,0,0-4,4v2h8V18A4,4,0,0,0,32,14Zm-7,8V32H39V22Zm8,5.73V29a1,1,0,0,1-2,0V27.73a2,2,0,1,1,2,0ZM25,22V32H39V22Zm8,5.73V29a1,1,0,0,1-2,0V27.73a2,2,0,1,1,2,0ZM32,14a4,4,0,0,0-4,4v2h8V18A4,4,0,0,0,32,14Zm0,0a4,4,0,0,0-4,4v2h8V18A4,4,0,0,0,32,14Zm-7,8V32H39V22Zm8,5.73V29a1,1,0,0,1-2,0V27.73a2,2,0,1,1,2,0ZM25,22V32H39V22Zm8,5.73V29a1,1,0,0,1-2,0V27.73a2,2,0,1,1,2,0ZM32,14a4,4,0,0,0-4,4v2h8V18A4,4,0,0,0,32,14Zm0,0a4,4,0,0,0-4,4v2h8V18A4,4,0,0,0,32,14Zm-7,8V32H39V22Zm8,5.73V29a1,1,0,0,1-2,0V27.73a2,2,0,1,1,2,0ZM25,22V32H39V22Zm8,5.73V29a1,1,0,0,1-2,0V27.73a2,2,0,1,1,2,0ZM32,14a4,4,0,0,0-4,4v2h8V18A4,4,0,0,0,32,14Zm0,0a4,4,0,0,0-4,4v2h8V18A4,4,0,0,0,32,14Zm-7,8V32H39V22Zm8,5.73V29a1,1,0,0,1-2,0V27.73a2,2,0,1,1,2,0ZM25,22V32H39V22Zm8,5.73V29a1,1,0,0,1-2,0V27.73a2,2,0,1,1,2,0ZM32,14a4,4,0,0,0-4,4v2h8V18A4,4,0,0,0,32,14Zm0,0a4,4,0,0,0-4,4v2h8V18A4,4,0,0,0,32,14Zm-7,8V32H39V22Zm8,5.73V29a1,1,0,0,1-2,0V27.73a2,2,0,1,1,2,0ZM25,22V32H39V22Zm8,5.73V29a1,1,0,0,1-2,0V27.73a2,2,0,1,1,2,0ZM32,14a4,4,0,0,0-4,4v2h8V18A4,4,0,0,0,32,14Zm0,0a4,4,0,0,0-4,4v2h8V18A4,4,0,0,0,32,14Zm-7,8V32H39V22Zm8,5.73V29a1,1,0,0,1-2,0V27.73a2,2,0,1,1,2,0ZM25,22V32H39V22Zm8,5.73V29a1,1,0,0,1-2,0V27.73a2,2,0,1,1,2,0ZM32,14a4,4,0,0,0-4,4v2h8V18A4,4,0,0,0,32,14Zm0,0a4,4,0,0,0-4,4v2h8V18A4,4,0,0,0,32,14Zm-7,8V32H39V22Zm8,5.73V29a1,1,0,0,1-2,0V27.73a2,2,0,1,1,2,0ZM25,22V32H39V22Zm8,5.73V29a1,1,0,0,1-2,0V27.73a2,2,0,1,1,2,0ZM32,14a4,4,0,0,0-4,4v2h8V18A4,4,0,0,0,32,14Zm0,0a4,4,0,0,0-4,4v2h8V18A4,4,0,0,0,32,14Z"/><path d="M47,1H17a4,4,0,0,0-4,4V40h3V5a1,1,0,0,1,1-1h7a1,1,0,0,1,1,1,1,1,0,0,0,1,1H38a1,1,0,0,0,1-1,1,1,0,0,1,1-1h7a1,1,0,0,1,1,1V40h3V5A4,4,0,0,0,47,1ZM28,5a1,1,0,0,1,0-2A1,1,0,0,1,28,5Zm8,0a1,1,0,0,1,0-2A1,1,0,0,1,36,5Z"/><path d="M57,42H35l-3-4-3,4H7a2,2,0,0,0-2,2v8a2,2,0,0,0,2,2H57a2,2,0,0,0,2-2V44A2,2,0,0,0,57,42ZM14.23,48.13c1,.61.35,2.51-1.23,1.61,0,1.69-2,1.7-2,0-1.57.89-2.29-1-1.23-1.61.28-.16.29-.09,0-.26a1,1,0,0,1,1-1.74c.3.17.23.2.23-.13a1,1,0,0,1,2,0c0,.34-.06.29.23.13a1,1,0,0,1,1,1.74C14,48,13.94,48,14.23,48.13Zm8,0c1.05.61.35,2.51-1.23,1.61,0,1.69-2,1.7-2,0-1.57.89-2.29-1-1.23-1.61.28-.16.29-.09,0-.26a1,1,0,0,1,1-1.74c.3.17.23.2.23-.13a1,1,0,0,1,2,0c0,.34-.06.29.23.13a1,1,0,0,1,1,1.74C22,48,21.94,48,22.23,48.13Zm8,0c1.05.61.35,2.51-1.23,1.61,0,1.69-2,1.7-2,0-1.57.89-2.29-1-1.23-1.61.28-.16.29-.09,0-.26a1,1,0,0,1,1-1.74c.3.17.23.2.23-.13a1,1,0,0,1,2,0c0,.34-.06.29.23.13a1,1,0,0,1,1,1.74C30,48,29.94,48,30.23,48.13Zm8,0c1.05.61.35,2.51-1.23,1.61,0,1.69-2,1.7-2,0-1.57.89-2.29-1-1.23-1.61.28-.16.29-.09,0-.26a1,1,0,0,1,1-1.74c.3.17.23.2.23-.13a1,1,0,0,1,2,0c0,.34-.06.29.23.13a1,1,0,0,1,1,1.74C38,48,37.94,48,38.23,48.13Zm8,0c1.05.61.35,2.51-1.23,1.61,0,1.69-2,1.7-2,0-1.57.89-2.29-1-1.23-1.61.28-.16.29-.09,0-.26a1,1,0,0,1,1-1.74c.3.17.23.2.23-.13a1,1,0,0,1,2,0c0,.34-.06.29.23.13a1,1,0,0,1,1,1.74C46,48,45.94,48,46.23,48.13Zm8,0c1.05.61.35,2.51-1.23,1.61,0,1.69-2,1.7-2,0-1.57.89-2.29-1-1.23-1.61.28-.16.29-.09,0-.26a1,1,0,0,1,1-1.74c.3.17.23.2.23-.13a1,1,0,0,1,2,0c0,.34-.06.29.23.13a1,1,0,0,1,1,1.74C54,48,53.94,48,54.23,48.13Z"/></g></svg>