<svg xmlns="http://www.w3.org/2000/svg" viewBox="0 0 128 128"><defs><style>.cls-1{fill:#a0aec0;}</style></defs><title>Verification</title><g id="Verification"><rect class="cls-1" x="19.02" y="36.02" width="55.96" height="10.96"/><path class="cls-1" d="M25,20H11v98H83V96.51a24.91,24.91,0,0,1,0-27V20H69v6H25Zm39,88H18a1,1,0,0,1,0-2H64A1,1,0,0,1,64,108Zm12-8H18a1,1,0,0,1,0-2H76A1,1,0,0,1,76,100ZM18,82H48a1,1,0,0,1,0,2H18A1,1,0,0,1,18,82ZM76,92H24a1,1,0,0,1,0-2H76A1,1,0,0,1,76,92Zm0-16H18a1,1,0,0,1,0-2H76A1,1,0,0,1,76,76Zm0-8H18a1,1,0,0,1,0-2H76A1,1,0,0,1,76,68Zm0-8H24a1,1,0,0,1,0-2H76A1,1,0,0,1,76,60Zm0-26a1,1,0,0,1,1,1V48a1,1,0,0,1-1,1H18a1,1,0,0,1-1-1V35a1,1,0,0,1,1-1Z"/><path class="cls-1" d="M85,19V66.75a24.92,24.92,0,0,1,8-6.19V15a3,3,0,0,0-3-3H69v6H84A1,1,0,0,1,85,19Z"/><path class="cls-1" d="M85,99.25V119a1,1,0,0,1-1,1H10a1,1,0,0,1-1-1V19a1,1,0,0,1,1-1H25V12H4a3,3,0,0,0-3,3V124a3,3,0,0,0,3,3H90a3,3,0,0,0,3-3V105.44A24.92,24.92,0,0,1,85,99.25Z"/><path class="cls-1" d="M67,8H54.93A8,8,0,0,0,39.07,8H27V24H67ZM47,12a3,3,0,1,1,3-3A3,3,0,0,1,47,12Z"/><path class="cls-1" d="M104,60a23,23,0,1,0,23,23A23,23,0,0,0,104,60Zm12.72,15.72C99.2,93.24,100.6,92,100,92s-.08.34-8.72-8.3a1,1,0,0,1,1.44-1.44L100,89.56l15.28-15.28A1,1,0,0,1,116.72,75.72Z"/></g></svg>