<svg xmlns="http://www.w3.org/2000/svg" viewBox="0 0 128 128"><defs><style>.cls-1{fill:#a0aec0;}</style></defs><title>Waiting</title><g id="Waiting"><path class="cls-1" d="M95.93,51A43,43,0,0,0,10,53c0,35.68,41,55.48,68.92,34.25l-5.51-4.39A14.67,14.67,0,0,1,68,71.46V62H65V51ZM88.51,32.5a1,1,0,0,1-1.74,1A1,1,0,0,1,88.51,32.5ZM72.13,17.86a1,1,0,0,1,1.74,1A1,1,0,0,1,72.13,17.86ZM15,54H13a1,1,0,0,1,0-2h2A1,1,0,0,1,15,54Zm3.86,19.85a1,1,0,0,1-1-1.74A1,1,0,0,1,18.86,73.87Zm.37-40.37a1,1,0,0,1-1.74-1A1,1,0,0,1,19.23,33.5ZM72.5,86.77a1,1,0,0,1,1,1.74A1,1,0,0,1,72.5,86.77ZM52,13a1,1,0,0,1,2,0v2a1,1,0,0,1-2,0ZM32.5,17.49a1,1,0,0,1,1,1.74A1,1,0,0,1,32.5,17.49Zm1.37,70.65a1,1,0,0,1-1.74-1A1,1,0,0,1,33.87,88.14ZM54,93a1,1,0,0,1-2,0V91a1,1,0,0,1,2,0Zm3-39H54.73a1.73,1.73,0,0,1-.71.71V58a1,1,0,0,1-2,0V54.73c-1.9-1,4.58-.71-25-.71a1,1,0,0,1,0-2c29.53,0,23.08.3,25-.71V23a1,1,0,0,1,2,0c0,33.63-.3,27.08.71,29H57A1,1,0,0,1,57,54Z"/><path class="cls-1" d="M69.24,102.4c.43-.11.91-2.66,4.19-5.26l9-7.14L80.6,88.57C51.31,111.28,8,90.57,8,53a45,45,0,0,1,90-2h7A52,52,0,0,0,1,53C1,88.53,36,113.48,69.24,102.4Z"/><path class="cls-1" d="M67,53v7h58V53Z"/><polygon class="cls-1" points="113.54 117.98 96 100.44 78.46 117.98 113.54 117.98"/><path class="cls-1" d="M108.91,79A65.57,65.57,0,0,1,83.1,79c12.25,9.78,12,9.4,12.9,10.76C97,88.38,96.5,88.91,108.91,79Z"/><path class="cls-1" d="M122,71.46V62H70v9.46a12.58,12.58,0,0,0,4.68,9.84L85.6,90,74.68,98.7A12.58,12.58,0,0,0,70,108.54V118h5.56L95.1,98.46c-.17-.29-.12,0-.12-6.27-.81-2.09-.46-1.45-16.7-14.39a1,1,0,0,1,.9-1.79,63.83,63.83,0,0,0,33.65,0,1,1,0,0,1,.9,1.79C97.69,90.58,97.84,90.08,97,92.19V98c0,.83-2.57-2,19.42,20H122v-9.46a12.58,12.58,0,0,0-4.68-9.84L106.4,90l10.92-8.7A12.58,12.58,0,0,0,122,71.46Z"/><path class="cls-1" d="M67,120v7h58v-7Z"/></g></svg>