<svg xmlns="http://www.w3.org/2000/svg" viewBox="0 0 64 64"><title>Warning</title><g id="Warning"><polygon points="39.46 58 40.8 56 23.2 56 24.54 58 39.46 58"/><path d="M61,56H43a1,1,0,0,1-.17.55C40.71,59.72,40.7,60,40,60c-17.25,0-16.42.19-16.83-.45C21.05,56.37,21,56.4,21,56H3a2,2,0,0,0-2,2v2a4,4,0,0,0,4,4H59a4,4,0,0,0,4-4V58A2,2,0,0,0,61,56Z"/><rect x="52" y="19" width="2" height="30"/><path d="M59,17a3,3,0,0,0-3-3H52v3h3a1,1,0,0,1,1,1V50a1,1,0,0,1-1,1H9a1,1,0,0,1-1-1V18a1,1,0,0,1,1-1h3V14H8a3,3,0,0,0-3,3V54H59Z"/><rect x="10" y="19" width="2" height="30"/><path d="M14,8V49H50V8ZM43.2,41H20.8A2.8,2.8,0,0,1,18,38.2c0-1.11-.51,0,11.63-19.87a2.78,2.78,0,0,1,4.74,0C46.51,38.26,46,37.09,46,38.2A2.8,2.8,0,0,1,43.2,41ZM32.67,19.38a.79.79,0,0,0-1.34,0C19.26,39.21,20,37.89,20,38.2a.8.8,0,0,0,.8.8H43.2a.8.8,0,0,0,.68-1.21ZM32,37a1,1,0,0,1,0-2A1,1,0,0,1,32,37Zm1-4a1,1,0,0,1-2,0V25a1,1,0,0,1,2,0Z"/><path d="M14,0V6H50V0Zm4,4a1,1,0,0,1,0-2A1,1,0,0,1,18,4Zm4,0a1,1,0,0,1,0-2A1,1,0,0,1,22,4Zm4,0a1,1,0,0,1,0-2A1,1,0,0,1,26,4Z"/></g></svg>