<svg xmlns="http://www.w3.org/2000/svg" viewBox="0 0 64 64"><title>Website</title><g id="Website"><path d="M4,1V9H60V1ZM8,5a1,1,0,0,1,2,0A1,1,0,0,1,8,5Zm5,0a1,1,0,0,1,2,0A1,1,0,0,1,13,5Zm5,0a1,1,0,0,1,2,0A1,1,0,0,1,18,5Z"/><rect x="10" y="16" width="44" height="12"/><path d="M10,35v4H20V35Zm0,0v4H20V35Zm0,0v4H20V35Zm17,0v4H37V35Zm0,0v4H37V35ZM10,35v4H20V35Zm0,0v4H20V35Zm17,0v4H37V35Zm17,0v4H54V35Zm0,0v4H54V35ZM27,35v4H37V35ZM10,35v4H20V35Zm0,0v4H20V35Zm17,0v4H37V35Zm17,0v4H54V35Zm0,0v4H54V35ZM27,35v4H37V35ZM10,35v4H20V35Zm0,0v4H20V35Zm17,0v4H37V35Zm17,0v4H54V35Zm0,0v4H54V35ZM27,35v4H37V35ZM10,35v4H20V35Zm0,0v4H20V35Zm17,0v4H37V35Zm17,0v4H54V35Zm0,0v4H54V35ZM27,35v4H37V35ZM10,35v4H20V35ZM4,11V63H60V11ZM8,34a1,1,0,0,1,1-1H21a1,1,0,0,1,1,1v6a1,1,0,0,1-1,1H9a1,1,0,0,1-1-1ZM9,44H21a1,1,0,0,1,0,2H9A1,1,0,0,1,9,44Zm0,4H21a1,1,0,0,1,0,2H9A1,1,0,0,1,9,48ZM55,59H9a1,1,0,0,1,0-2H55A1,1,0,0,1,55,59Zm0-4H9a1,1,0,0,1,0-2H55A1,1,0,0,1,55,55ZM26,44H38a1,1,0,0,1,0,2H26A1,1,0,0,1,26,44Zm-1-4V34a1,1,0,0,1,1-1H38a1,1,0,0,1,1,1v6a1,1,0,0,1-1,1H26A1,1,0,0,1,25,40Zm1,8H38a1,1,0,0,1,0,2H26A1,1,0,0,1,26,48Zm29,2H43a1,1,0,0,1,0-2H55A1,1,0,0,1,55,50Zm0-4H43a1,1,0,0,1,0-2H55A1,1,0,0,1,55,46Zm1-6a1,1,0,0,1-1,1H43a1,1,0,0,1-1-1V34a1,1,0,0,1,1-1H55a1,1,0,0,1,1,1Zm0-11a1,1,0,0,1-1,1H9a1,1,0,0,1-1-1V15a1,1,0,0,1,1-1H55a1,1,0,0,1,1,1ZM44,39H54V35H44Zm-7-4H27v4H37ZM20,35H10v4H20ZM10,35v4H20V35Zm17,0v4H37V35Zm17,0v4H54V35Zm0,0v4H54V35ZM27,35v4H37V35ZM10,35v4H20V35Zm0,0v4H20V35Zm17,0v4H37V35Zm17,0v4H54V35Zm0,0v4H54V35ZM27,35v4H37V35ZM10,35v4H20V35Zm0,0v4H20V35Zm17,0v4H37V35Zm17,0v4H54V35Zm0,0v4H54V35ZM27,35v4H37V35ZM10,35v4H20V35Zm0,0v4H20V35Zm17,0v4H37V35Zm17,0v4H54V35Zm0,0v4H54V35ZM27,35v4H37V35ZM10,35v4H20V35Zm0,0v4H20V35Zm0,0v4H20V35Z"/></g></svg>