<svg xmlns="http://www.w3.org/2000/svg" viewBox="0 0 128 128"><defs><style>.cls-1{fill:#a0aec0;}</style></defs><title>Welcome</title><g id="Welcome"><path class="cls-1" d="M37.05,123.45,13.73,109.62A3.58,3.58,0,0,1,12,107c0-.1,0,.6,0-12H.92l9,16-9,16c17.27,0,.36,0,35.16,0A1.9,1.9,0,0,0,37.05,123.45Z"/><path class="cls-1" d="M127,95H116c0,12.92,0,11.9,0,12a3.58,3.58,0,0,1-1.72,2.62L91,123.45a1.9,1.9,0,0,0,1,3.53c24.61,0,25.69,0,35.08,0l-9-16Z"/><path class="cls-1" d="M90,105v16.6l23.21-13.76a1.52,1.52,0,0,0,.31-2.38C112.9,104.82,114.45,105,90,105Z"/><path class="cls-1" d="M14.48,105.46a1.52,1.52,0,0,0,.29,2.4L38,121.62V105C13.64,105,15.09,104.83,14.48,105.46Z"/><path class="cls-1" d="M114,74v29.33c-1-.46-1.11-.35-7.27-.35-98,0-91.71-.16-92.73.36V74a3,3,0,0,1,3-3h94A3,3,0,0,1,114,74Z"/><path class="cls-1" d="M88.8,103h.4A.9.9,0,0,0,88.8,103Z"/><path class="cls-1" d="M83.54,57.75a1.08,1.08,0,0,0,.2.4,31.86,31.86,0,0,1-39.48,0,1.08,1.08,0,0,0,.2-.4C50.06,34.1,77.94,34.09,83.54,57.75Z"/><circle class="cls-1" cx="64" cy="27" r="10.98" transform="translate(-5.46 26.55) rotate(-22.5)"/><path class="cls-1" d="M85.39,56.78c-2.33-9.27-8.26-15.85-15.82-18a13,13,0,1,0-11.14,0c-7.56,2.17-13.49,8.75-15.82,18C20.91,37.31,34.69,1,64,1S107.1,37.3,85.39,56.78Z"/></g></svg>