<svg xmlns="http://www.w3.org/2000/svg" viewBox="0 0 64 64">
  <defs>
    <style>
      .cls-1 {
        fill: #a0aec0;
      }
    </style>
  </defs>
  <g id="Work_Flow" data-name="Work Flow">
    <rect class="cls-1" x="6" y="7" width="6" height="2" />
    <path class="cls-1"
      d="M17,1H1V23H17ZM14,18a1,1,0,0,1-1,1H5a1,1,0,0,1-1-1V14a1,1,0,0,1,1-1h8a1,1,0,0,1,1,1Zm0-8a1,1,0,0,1-1,1H5a1,1,0,0,1-1-1V6A1,1,0,0,1,5,5h8a1,1,0,0,1,1,1Z" />
    <rect class="cls-1" x="6" y="15" width="6" height="2" />
    <path class="cls-1"
      d="M40,1H24V23H40ZM36,19H28a1,1,0,0,1,0-2h8A1,1,0,0,1,36,19Zm0-4H28a1,1,0,0,1,0-2h8A1,1,0,0,1,36,15Zm0-4H28a1,1,0,0,1,0-2h8A1,1,0,0,1,36,11Zm0-4H28a1,1,0,0,1,0-2h8A1,1,0,0,1,36,7Z" />
    <circle class="cls-1" cx="55" cy="9" r="3" />
    <path class="cls-1" d="M47,1V23H63V1Zm9,12.9V19a1,1,0,0,1-2,0V13.9a5,5,0,1,1,2,0Z" />
    <path class="cls-1"
      d="M1,63H17V41H1ZM12,47a1,1,0,0,1,2,0v9a1,1,0,0,1-2,0ZM8,52a1,1,0,0,1,2,0v4a1,1,0,0,1-2,0ZM4,49a1,1,0,0,1,2,0v7a1,1,0,0,1-2,0Z" />
    <rect class="cls-1" x="29" y="46" width="6" height="6" />
    <path class="cls-1"
      d="M24,63H40V41H24Zm3-18a1,1,0,0,1,1-1h8a1,1,0,0,1,1,1v8a1,1,0,0,1-1,1H28a1,1,0,0,1-1-1Zm1,12h8a1,1,0,0,1,0,2H28A1,1,0,0,1,28,57Z" />
    <path class="cls-1"
      d="M53.1,55.15c2.22-1.19,1.64-1.16,3.8,0-.43-2.48-.61-1.91,1.18-3.62-2.47-.35-2,0-3.08-2.24-1.1,2.25-.61,1.89-3.08,2.24C53.72,53.25,53.53,52.7,53.1,55.15Z" />
    <path class="cls-1"
      d="M47,63H63V41H47Zm1.79-12.49c.26-.78.77-.67,3.93-1.11l1.38-2.84a1,1,0,0,1,1.8,0l1.38,2.84,3.12.43A1,1,0,0,1,61,51.54l-2.27,2.18.55,3.1a1,1,0,0,1-1,1.18c-.33,0-.19,0-3.25-1.6-2.58,1.37-3.13,1.92-3.84,1.41s-.4-.94.16-4.09C49.23,51.71,48.52,51.35,48.79,50.51Z" />
    <rect class="cls-1" x="18" y="11" width="5" height="2" />
    <rect class="cls-1" x="41" y="11" width="5" height="2" />
    <path class="cls-1" d="M56,32V24H54v7H9a1,1,0,0,0-1,1v8h2V33H55A1,1,0,0,0,56,32Z" />
    <path class="cls-1" d="M32,27a1,1,0,0,0,0-2A1,1,0,0,0,32,27Z" />
    <path class="cls-1" d="M32,30a1,1,0,0,0,0-2A1,1,0,0,0,32,30Z" />
    <path class="cls-1" d="M32,34a1,1,0,0,0,0,2A1,1,0,0,0,32,34Z" />
    <path class="cls-1" d="M32,37a1,1,0,0,0,0,2A1,1,0,0,0,32,37Z" />
    <rect class="cls-1" x="18" y="51" width="5" height="2" />
    <rect class="cls-1" x="41" y="51" width="5" height="2" />
  </g>
</svg>