<svg xmlns="http://www.w3.org/2000/svg" viewBox="0 0 128 128"><defs><style>.cls-1{fill:#a0aec0;}</style></defs><title>You are Up to date</title><g id="You_are_Up_to_date" data-name="You are Up to date"><path class="cls-1" d="M125,8H114V1a1,1,0,0,0-2-.2c0,.2,0,16.2,0,16.4a1,1,0,0,1-2-.2V8h-8V1a1,1,0,0,0-2,0c0,17.16,0,16,0,16.2a1,1,0,0,1-2-.2V8H90V1a1,1,0,0,0-2-.2C88,1,88,17,88,17.2a1,1,0,0,1-2-.2V8H78V1a1,1,0,0,0-2,0c0,17.16,0,16,0,16.2a1,1,0,0,1-2-.2V8H66V1a1,1,0,0,0-2-.2C64,1,64,17,64,17.2a1,1,0,0,1-2-.2V8H54V1a1,1,0,0,0-2,0V17a1,1,0,1,1-2,0V8H42V1a1,1,0,0,0-2-.2C40,1,40,17,40,17.2a1,1,0,0,1-2-.2V8H30V1a1,1,0,0,0-2,0c0,17.16,0,16,0,16.2a1,1,0,0,1-2-.2V8H18V1a1,1,0,0,0-2-.2C16,1,16,17,16,17.2a1,1,0,0,1-2-.2V8H3a2,2,0,0,0-2,2V32a2,2,0,0,0,2,2H125a2,2,0,0,0,2-2V10A2,2,0,0,0,125,8Z"/><path class="cls-1" d="M105.06,99.33,22.3,122.86l88.69-15A11,11,0,0,1,105.06,99.33Z"/><path class="cls-1" d="M64,93A22,22,0,1,0,42,71,22,22,0,0,0,64,93ZM52.72,70.28,60,77.56,75.28,62.28a1,1,0,0,1,1.44,1.44l-16,16a1,1,0,0,1-1.44,0l-8-8A1,1,0,0,1,52.72,70.28Z"/><path class="cls-1" d="M3.22,126.35C3.52,126-3.24,128,105.6,97.06A1,1,0,0,1,107,98a9,9,0,0,0,18,0c0-.4,0,5.73,0-62H3C3,137.63,2.88,126.69,3.22,126.35ZM64,47A24,24,0,1,1,40,71,24,24,0,0,1,64,47Z"/><path class="cls-1" d="M116.12,109l-106,18H125V104.35A11,11,0,0,1,116.12,109Z"/></g></svg>